<?xml version="1.0" encoding="utf-8"?>
<!-- Generator: Adobe Illustrator 21.0.0, SVG Export Plug-In . SVG Version: 6.00 Build 0)  -->
<svg version="1.1" id="Layer_1" xmlns="http://www.w3.org/2000/svg" xmlns:xlink="http://www.w3.org/1999/xlink" x="0px" y="0px"
	 viewBox="0 0 200 200" style="enable-background:new 0 0 200 200;" xml:space="preserve">
<style type="text/css">
	.st0{fill:#36BAA2;}
</style>
<title>arrow_left_blue_1</title>
<path class="st0" d="M73.5,173.4c2.9,3,7.6,3.2,10.6,0.3c0,0,0,0,0,0c3-2.8,3.1-7.5,0.3-10.5c0,0,0,0,0,0l-61.2-62.8L84.5,39
	c2.8-2.9,2.8-7.6,0-10.5C83,27,81,26.2,78.9,26.2c-2,0-4,0.9-5.3,2.3L7.1,94.6c-2.8,3-2.8,7.7,0,10.7L73.5,173.4z"/>
<path class="st0" d="M172.4,173.4c2.9,3,7.6,3.2,10.6,0.3c0,0,0,0,0,0c3-2.8,3.1-7.5,0.3-10.5c0,0,0,0,0,0l-61.2-62.8L183.3,39
	c2.8-2.9,2.8-7.6,0-10.5c-1.5-1.5-3.5-2.3-5.6-2.3c-2,0-4,0.9-5.3,2.3L106,94.6c-2.8,3-2.8,7.7,0,10.7L172.4,173.4z"/>
</svg>
