<svg data-name="Layer 1" xmlns="http://www.w3.org/2000/svg" viewBox="0 0 200 200"><path d="M73.53 173.36a7.53 7.53 0 0 0 10.68.27 7.44 7.44 0 0 0 .27-10.54l-61.2-62.84 61.2-61.2a7.58 7.58 0 0 0 0-10.54 7.76 7.76 0 0 0-5.61-2.33 7.39 7.39 0 0 0-5.34 2.33L7.13 94.64a7.77 7.77 0 0 0 0 10.68zm98.84 0a7.53 7.53 0 0 0 10.68.27 7.44 7.44 0 0 0 .27-10.54l-61.2-62.84 61.2-61.2a7.58 7.58 0 0 0 0-10.54 7.76 7.76 0 0 0-5.61-2.33 7.39 7.39 0 0 0-5.34 2.33L106 94.64a7.77 7.77 0 0 0 0 10.68z" fill="#a1a1a1"/></svg>