<svg id="Layer_1" data-name="Layer 1" xmlns="http://www.w3.org/2000/svg" viewBox="0 0 200 200"><defs><style>.cls-1{fill:#fff}</style></defs><path class="cls-1" d="M121.18 154.21a5.64 5.64 0 0 0 8 .21 5.57 5.57 0 0 0 .21-7.9L83.54 99.44l45.84-45.84a5.68 5.68 0 0 0 0-7.9 5.82 5.82 0 0 0-4.2-1.7 5.54 5.54 0 0 0-4 1.74l-49.74 49.5a5.82 5.82 0 0 0 0 8z"/><path class="cls-1" d="M101.41 195A95 95 0 0 1 34.23 32.79a95 95 0 0 1 134.35 134.35A94.38 94.38 0 0 1 101.41 195zm0-181.08A86.08 86.08 0 1 0 187.48 100a86.18 86.18 0 0 0-86.07-86.11z"/></svg>