<svg id="Layer_1" data-name="Layer 1" xmlns="http://www.w3.org/2000/svg" viewBox="0 0 200 200"><defs><style>.cls-1{fill:#fff}</style></defs><path class="cls-1" d="M81 45.73a5.64 5.64 0 0 0-8-.21 5.57 5.57 0 0 0-.21 7.9l45.84 47.08-45.8 45.84a5.68 5.68 0 0 0 0 7.9A5.82 5.82 0 0 0 77 156a5.54 5.54 0 0 0 4-1.74l49.74-49.54a5.82 5.82 0 0 0 0-8z"/><path class="cls-1" d="M100.81 5A95 95 0 0 1 168 167.14 95 95 0 0 1 33.63 32.79 94.38 94.38 0 0 1 100.81 5zm0 181.08A86.08 86.08 0 1 0 14.73 100a86.18 86.18 0 0 0 86.08 86z"/></svg>