<svg id="Layer_1" data-name="Layer 1" xmlns="http://www.w3.org/2000/svg" viewBox="0 0 200 200"><defs><style>.cls-1{fill:#a1a1a1}</style></defs><path class="cls-1" d="M172.34 97.92c-4.25-3.81-9.84-4.79-13.51-5C153 78 141.3 66.69 124.77 60.23a80.51 80.51 0 0 0-25.12-5.43h-2.03a4.6 4.6 0 0 0-.37-.52c-2.33-2.68-8.41-11.52-5.83-16.83A12.39 12.39 0 0 1 101.77 31c1.6 0 3.69.28 4.68 2.07a9 9 0 0 1-.11 9 2.35 2.35 0 0 1-2.2 1.23 4.61 4.61 0 0 1-.31-1.47 4.63 4.63 0 0 0-4.61-4.66 4.63 4.63 0 0 0-4.63 4.61c0 4.43 2.35 9.64 7.62 10.6a11.61 11.61 0 0 0 11.68-4.9c3.77-5.25 4-12.85.69-18.93-2.49-4.51-7.24-7-13-6.86a21.5 21.5 0 0 0-18.5 11.74c-3.9 8 .27 17 3.73 22.31C68 58.63 56.54 67.65 49.94 75.44A56.15 56.15 0 0 0 40.22 92c-3.46-.47-8.2-.41-12.08 2.22-2.52 1.71-5.58 5.15-5.87 11.9-.6 13.56 10.21 21 15.45 23.85a45.78 45.78 0 0 0 6.84 19.14c6.44 10.13 20.21 22.78 49.28 25.52 2.73.26 5.35.38 7.88.38 24.51 0 39.67-11.48 48.3-21.66a71.94 71.94 0 0 0 12.73-22.26c6.51-1.57 15.09-7 15-20.1-.03-5.4-1.9-9.92-5.41-13.07zm-13.39 24.4a4.63 4.63 0 0 0-4.25 3.48 60.7 60.7 0 0 1-11.75 21.55c-11.76 13.89-28 20-48.23 18-47.51-4.49-47.93-37-47.92-38.38a4.63 4.63 0 0 0-2.93-4.38c-.13-.05-12.81-5.17-12.33-16.13.1-2.32.71-3.88 1.8-4.63a6.54 6.54 0 0 1 3.61-.85 16.82 16.82 0 0 1 4.9.78 4.65 4.65 0 0 0 6-3.38c.31-1.4 8.2-34.34 51.61-34.37 1.42 0 41 1.67 51.66 35a4.66 4.66 0 0 0 4.87 3.2c1.83-.18 7.21 0 10.15 2.61 1.54 1.39 2.3 3.42 2.32 6.2.09 10.11-7.95 11.19-9.52 11.3z"/><path class="cls-1" d="M77.82 120.58a5.66 5.66 0 0 0 3.16.93 8.86 8.86 0 0 0 4.31-1.28 4.63 4.63 0 0 0 2.17-3.1 7.09 7.09 0 0 0-1.83-6.33 7 7 0 0 0-6.63-1.61 4.63 4.63 0 0 0-3.63 5.14c-.55 3.83 1.53 5.67 2.45 6.25zm44.34-9.58a7 7 0 0 0-6.16-1.1 4.63 4.63 0 0 0-2.63 1.95 6.82 6.82 0 0 0-.85 5.58 6 6 0 0 0 3.56 3.74 7.67 7.67 0 0 0 2.87.61 5.41 5.41 0 0 0 5.48-5.26 6.34 6.34 0 0 0-2.27-5.52zm-10.52 28.64c-17 11.38-24.09 2.71-26.41-.13l-.48-.57a4.63 4.63 0 0 0-6.92 6.17l.22.26c5 6.17 11.27 9.27 18.33 9.27 6.25 0 13.14-2.42 20.41-7.28a4.63 4.63 0 0 0-5.15-7.7z"/></svg>