<svg data-name="Layer 1" xmlns="http://www.w3.org/2000/svg" viewBox="0 0 200 200"><path d="M193 79.1c-20.65-18.42-47.5-30.81-84.52-39a5.26 5.26 0 0 0-1.19-.12l-.53-.11a4.78 4.78 0 0 0-2.57-.34C70.43 44.31 37.55 57.35 6.5 78.32a4.29 4.29 0 0 0-2 3.93 5.06 5.06 0 0 0 2.56 4.13l.41.21.2.41a4.36 4.36 0 0 0 1.67 1.84 136.26 136.26 0 0 0 15.32 8.33c-5.43 6.25-9.34 14-9.68 23.34l-.32.06c-3.84 1.1-6.27 3.62-6.5 6.74-.15 2 .5 4.64 4.08 6.82l-6.68 16.08A4 4 0 0 0 8 155.59l10.68 3.56a4 4 0 0 0 5.25-4.53l-3.24-18.44a8.07 8.07 0 0 0 2.93-1.09 8.62 8.62 0 0 0 3.94-7 5.37 5.37 0 0 0-4.73-5.5 4 4 0 0 0 .16-1c.06-8.47 4.1-15.44 9.58-21q4.3 1.7 8.85 3.22l1.12.37-.23 1.16a11.32 11.32 0 0 0-.22 2.09v.39l-.15.41a4.55 4.55 0 0 0-.47 1.6 221.53 221.53 0 0 0-1.14 32.5 4.36 4.36 0 0 0 4.46 4.23l.55.14a118.46 118.46 0 0 0 19 7.42c2.72.77 5.53 1.39 8.25 2 1.44.32 2.88.64 4.31 1h.19a120.24 120.24 0 0 0 82.24-15 4.16 4.16 0 0 0 1.84-2.06l.32-.48a4 4 0 0 0 1.17-3c0-9.89 0-19.58.58-29.32a4.56 4.56 0 0 0-.11-1.28l-.07-.29.06-.29a4.3 4.3 0 0 0 .11-.93l-.07-3.84.87-.71c8.95-3.59 18-7.74 26.9-12.34a3.67 3.67 0 0 0 2.09-2.52l.07-.33.21-.26a3.67 3.67 0 0 0-.3-5.37zm-38.33 27.37a3.87 3.87 0 0 0-.18 1c-.5 9-.57 18.25-.57 26.87v.78l-.68.39a112.43 112.43 0 0 1-55.5 14.79 108.86 108.86 0 0 1-22-2.24l-.48-.1a51.92 51.92 0 0 1-8.85-2.49 6.94 6.94 0 0 1-1.58-.35 5.24 5.24 0 0 1-1.56-.49 102.82 102.82 0 0 1-13.49-5.52l-.73-.36v-.81c-.19-9.46 1.64-29.24 1.73-29.78l.23-1.47 1.44.38c2.83.74 17.49 3.78 20.67 4.37l.66.11c9.52 1.56 20 2.76 31.89 3.64a4.76 4.76 0 0 0 1.44.06 223.76 223.76 0 0 0 45.69-11l1.52-.53.25 1.59a1.87 1.87 0 0 0 .07.27l.11.39zM181 82.89c-26 12.81-50 20.51-73.51 23.55l-.19-1.33.09 1.36-.52.11-.55-.09c-2.34-.19-40.54-3.14-67-11.65a88.4 88.4 0 0 1 23.73-11.9 4 4 0 0 0-2.26-7.75c-1.13.33-17.56 5.27-30.44 16.34-5.45-2.34-9.93-5-12.78-8.06l-1.11-1.19 1.38-.87c27.66-17.45 56.92-28.6 87-33.16l.36-.06.34.13a3.74 3.74 0 0 0 .55.19c32.73 7.25 56.61 17.45 75.15 32.1l1.67 1.32z" fill="#fb7598"/></svg>