<svg id="Layer_1" data-name="Layer 1" xmlns="http://www.w3.org/2000/svg" viewBox="0 0 200 200"><defs><style>.cls-1{fill:none;stroke-width:11.04px;stroke:#35b9a1;stroke-linecap:round;stroke-linejoin:round}</style></defs><path class="cls-1" d="M136.71 33.66c14.19-.1 25.18-.29 25.18-.29s-3.37 50-3 67.83c.17 7.65.5 14.9.28 21.41-.29 8.66-4.07 13.67-7.92 18.91-4.05 5.51-10.21 11.49-19.94 13.81A154.68 154.68 0 0 1 94.94 159c-14.44-.4-57.1 8.64-60.48 4.32S28.39 144.8 28 126.58s.67-53.86 0-61.29-3.64-30.51 0-28.08c0 0 8.86-.7 20.42-1.51m12.22-.8c15-1 31-1.78 37.54-1.46 5.26.26 15 .31 25.85.27"/><path class="cls-1" d="M174.31 37.49c0 .9 2.34 27.9 1.44 40s-2.5 33.21.14 45.36 2.2 42.21 2.2 43.92-58.59 7.38-79.37 9.81S42 180.22 42 180.22"/><path class="cls-1" d="M28.21 72.77S51 67 82.52 68.44 160 65.61 160 65.61"/><path d="M52.15 34.84c-.07 1.3-.14 2.41-.21 3.11-.28 3-.4 7.56 2.75 8.37s5.1 0 5-20.34c0-9.26-6.13-10.08-7.21 1.84 0 0-.1 2.8-.33 7" stroke-width="9.48" fill="#fff" stroke="#35b9a1" stroke-linecap="round" stroke-linejoin="round"/><path d="M129.36 20.61s-1.56 2.29-1.84 8.37-2.08 17.91 3.41 16.11c2.75-.9 4.51-12.53 4.19-19.89s-3.76-8.37-5.76-4.59z" stroke-width="8.85" fill="#fff" stroke="#35b9a1" stroke-linecap="round" stroke-linejoin="round"/><path class="cls-1" d="M76.4 93.46c.63 0 14.22-5.22 14.76-7.74s3.24 55.8 3.24 55.8m-18 0s19.39.1 24.32.65a53.18 53.18 0 0 0 13.81-.65m43.41-17.1c-1 0-17 5.85-19.53 3.69s5.64 24.56-5.33 26.79"/></svg>