<svg id="Layer_1" data-name="Layer 1" xmlns="http://www.w3.org/2000/svg" viewBox="0 0 200 200"><defs><style>.cls-1{fill:#fb7598}.cls-2{fill:#fff}</style></defs><path class="cls-1" d="M15.41 30.06s68.25-3.89 86.71-4.36 64.09 0 64.09 0l-1.54 35.1S109.51 64 88.48 64s-61.17 1.44-71.89 3.9c0 0-2.86-36.74-2.36-37.12a7.08 7.08 0 0 1 1.18-.72z"/><path class="cls-1" d="M41 183.85c-11.55 0-16-1.14-16.31-1.24a1.85 1.85 0 1 1 1-3.56c.16 0 17.18 4.29 73.52-4.42C113 172.51 164.78 169 175 168.3c.18-7.21.77-35.83-.9-50.1-1.94-16.57-1.47-94.19-1.45-97.49a1.85 1.85 0 0 1 3.69 0c0 .8-.49 80.69 1.42 97 1.94 16.59.92 50.87.88 52.32a1.85 1.85 0 0 1-1.72 1.79c-.62 0-62.34 4.12-77.2 6.42-28.67 4.48-47.25 5.61-58.72 5.61z"/><path class="cls-1" d="M31.15 194a1.85 1.85 0 0 1-.06-3.69c.41 0 41.11-1.46 64.45-4.19 6.12-.72 14.91-1.66 25.08-2.74 23.15-2.48 57.51-6.15 63.74-7.78.18-22.78-.72-40.43-2.47-48.47-3.05-14-1.28-37.76-.22-52v-.26c.85-11.38-.89-34.9-1.46-42.63-.15-2.08-.19-2.55-.19-2.76a1.85 1.85 0 0 1 3.69 0c0 .23.07 1.12.18 2.51.58 7.79 2.33 31.52 1.46 43.17v.26c-1 14-2.79 37.4.15 50.89 2.48 11.41 2.66 36 2.55 49.63v.8c0 2.57 0 3.1-67 10.27-10.16 1.09-18.94 2-25 2.74-23.57 2.78-64.42 4.25-64.83 4.25zm153.2-17.25zm-.62-147.23z"/><path class="cls-1" d="M166.2 102.08c-.45-20 3.34-76.56 3.38-77.13a1.85 1.85 0 0 0-1.87-2c-.12 0-12.7.21-28.68.33A1.85 1.85 0 0 0 139 27c12.26-.09 22.53-.23 26.71-.3-.32 5-1.19 18.47-1.95 33.16-9 .79-54.55 4.54-86.44 3.09a246.94 246.94 0 0 0-60.15 4.46c0-2.79-.11-5-.24-6.38-.11-1.23-.28-2.82-.47-4.65-.63-6-2.23-21.49-1.27-25.33.1 0 10.24-.81 23.25-1.71a1.85 1.85 0 0 0-.26-3.68c-11.39.79-20.58 1.5-22.79 1.68a2.49 2.49 0 0 0-2.21.19c-2.58 1.56-2.68 7.84-.45 29.25.19 1.81.35 3.39.46 4.6.4 4.37.24 18 .08 32.37-.15 13.51-.31 27.48-.09 37.33.46 20.62 3.51 37.47 7.77 42.93 1.1 1.41 3.73 2 8.27 2 6.31 0 16.31-1.21 31-3.17 12-1.6 24.37-3.26 31-3.08a176.7 176.7 0 0 0 42-4.21c9.54-2.28 17.32-7.65 23.78-16.44l.2-.27c4.35-5.91 8.84-12 9.19-22.31.2-5.74 0-11.92-.16-18.46.07-1.94.02-3.95-.03-5.99zm-3.69.08q.07 3.06.16 6c.18 6.49.35 12.61.16 18.24-.31 9.15-4.28 14.54-8.48 20.25l-.2.27c-5.92 8.05-13 13-21.66 15a175.24 175.24 0 0 1-41 4.11c-6.93-.19-18.91 1.41-31.6 3.11-13.34 1.86-33.51 4.56-35.89 2.6-3-3.86-6.49-18.26-7-40.74-.22-9.79-.06-23.73.09-37.21.1-8.6.19-16.52.17-22.6a241.59 241.59 0 0 1 60-4.55c31.54 1.44 76.24-2.17 86.42-3.05-.79 14.71-1.37 29.97-1.17 38.57z"/><path class="cls-1" d="M52.37 28.41h.12C74.22 27 88.94 26.45 95 26.75c5.29.26 15 .36 29.55.31a1.85 1.85 0 0 0 0-3.69c-14.52 0-24.13-.05-29.36-.31-6.33-.31-20.79.25-43 1.66a1.85 1.85 0 0 0 .12 3.69z"/><path class="cls-2" d="M46.2 10.24c-2-.16-4.4 2.73-5.18 8.42 0 .52-.2 3.61-.55 8-.13 1.64-.25 2.87-.36 3.64-.81 5.95 1 7.1 3.1 7.47 1.86.33 2.75.25 3.37-.27 3-2.53 2.88-16.49 2.84-21.07-.02-3.94-1.64-6.09-3.22-6.19z"/><path class="cls-1" d="M53.12 16.38c0-6.47-3.5-9.63-6.69-9.83-3.41-.2-7.88 2.72-9.08 11.69v.15s-.17 3.22-.55 8c-.12 1.55-.24 2.74-.34 3.44-.93 6.83 1.13 10.73 6.13 11.6a13.58 13.58 0 0 0 2.39.25 6 6 0 0 0 4-1.35c2.58-2.22 4.27-7.12 4.14-23.95zm-6.53 21.1c-.62.53-1.51.6-3.37.27-2.09-.37-3.91-1.52-3.1-7.47.11-.77.23-2 .36-3.64.36-4.38.53-7.47.55-8 .78-5.7 3.21-8.58 5.18-8.42 1.58.1 3.2 2.25 3.23 6.17.03 4.61.13 18.61-2.85 21.09z"/><path class="cls-2" d="M134 9.87a4.51 4.51 0 0 0-4.69 1.66l-.15.15c-.08.08-2.47 2.43-2.93 8.3-.08 1.07-.23 2.27-.39 3.53-.54 4.37-1.28 10.35.82 12.31.78.73 2.1.91 3.93.56 3.57-.69 7.19-12.12 6.56-20.72-.24-3.07-1.4-5.18-3.15-5.79z"/><path class="cls-1" d="M140.82 15.39c-.34-4.62-2.4-7.91-5.66-9A8.09 8.09 0 0 0 126.59 9c-.66.62-3.52 3.7-4.06 10.69-.08 1-.22 2.14-.37 3.37-.67 5.45-1.5 12.22 2 15.46a6.77 6.77 0 0 0 4.8 1.72 12.35 12.35 0 0 0 2.35-.24c6.69-1.31 10.16-15.68 9.51-24.61zm-14.18 20.43c-2.1-2-1.36-7.94-.82-12.31.16-1.27.3-2.46.39-3.53.46-5.88 2.85-8.23 2.93-8.3l.15-.15A4.51 4.51 0 0 1 134 9.87c1.79.61 2.94 2.72 3.17 5.79.63 8.6-3 20-6.56 20.72-1.87.35-3.19.16-3.97-.56zM90.82 151.14a3.08 3.08 0 0 1-3.07-2.93c-.85-18.39-2.24-46.17-3-57.77-1.25.71-2.79 1.48-4.66 2.33-.08 0-7.95 3.61-9.73 3.61a3.08 3.08 0 0 1-.51-6.11c2.35-.65 12.65-5 14.46-6.92a3.11 3.11 0 0 1 3.16-2c2.72.22 2.92 2.58 3.17 5.56.14 1.68.31 4.13.51 7.29.33 5.29.74 12.67 1.22 21.92.82 15.74 1.55 31.67 1.56 31.83a3.08 3.08 0 0 1-2.93 3.18zM70.31 90.23zm0 0zm13.81-6.39z"/><path class="cls-1" d="M102.79 152.13a45.85 45.85 0 0 1-5.11-.27c-5.4-.61-27.16-.72-27.38-.72a3.08 3.08 0 0 1 0-6.15c.91 0 22.32.12 28 .76a58 58 0 0 0 14.82-.71 3.08 3.08 0 0 1 1.16 6 67.57 67.57 0 0 1-11.49 1.09zm32.1 13.02a1.85 1.85 0 0 1-.37-3.65c7-1.42 5.32-15.53 4.44-23.11-.58-5-.76-6.54.78-7.36a2.11 2.11 0 0 1 2.43.35c1.3.67 7.07-.54 17.11-3.61 2.88-.88 3.43-1 3.94-1a1.85 1.85 0 0 1 .15 3.69c-.37.08-1.71.49-3 .88-8.67 2.66-14.6 4.16-18 3.81.08.85.2 1.88.31 2.85 1 8.76 2.92 25.06-7.37 27.15a1.84 1.84 0 0 1-.42 0zm28.45-34.73z"/></svg>