<svg id="Layer_1" data-name="Layer 1" xmlns="http://www.w3.org/2000/svg" viewBox="0 0 200 200"><defs><style>.cls-1{fill:#fbc100}</style></defs><path class="cls-1" d="M91.95 185.12c-20.16 0-43.64-7.61-66.47-32.58C10.61 136.28 2.94 98 16.47 64.45 28 35.87 52.4 19 85.18 16.91c28.17-1.79 50.48 4.85 66.29 19.72 23.5 22.1 23.7 54.08 23.7 55.44a5.59 5.59 0 0 1-5.59 5.58 5.59 5.59 0 0 1-5.58-5.59c0-.29-.29-28.65-20.26-47.35-13.48-12.62-32.94-18.22-57.85-16.64-36.2 2.3-52.09 23.33-59 40.56-11.4 28.15-5.53 62.83 6.84 76.37 24.06 26.32 51.47 34.79 81.47 25.17 32.73-10.49 39.72-36.25 40-37.34a5.59 5.59 0 0 1 10.85 2.72c-.33 1.33-8.56 32.81-47.44 45.27a87.57 87.57 0 0 1-26.66 4.3z"/><path class="cls-1" d="M172.84 109.77a5.59 5.59 0 0 1-3.44-1.18c-.71-.55-17.33-13.55-22-18.17a5.59 5.59 0 0 1 7.91-7.91c2.49 2.5 10 8.56 15.64 13.08l9-17.3a5.59 5.59 0 1 1 9.92 5.16l-12.12 23.3a5.59 5.59 0 0 1-5 3zm-81.46 6.58h-1c-7.33-.38-12.79-4.77-13.91-11.18-1.54-8.75 5.13-14.82 11.1-18V41.72a5.59 5.59 0 1 1 11.19 0V90l2.84-3.6c3.29 2.59 8.11 9.57 5.33 19.29-1.84 6.39-8.15 10.66-15.55 10.66zM95.31 96l-.31.11c-1.62.59-8.14 3.73-7.54 7.12.3 1.73 3.16 1.93 3.48 1.95 2.15.12 4.7-.73 5.21-2.52a7.45 7.45 0 0 0-.84-6.66z"/><path class="cls-1" d="M140.06 133.38a5.57 5.57 0 0 1-3.09-.94c-2.15-1.27-24-12.93-37.44-20.07a5.59 5.59 0 0 1 5.25-9.88c37.6 20 38.28 20.52 38.78 20.92a5.59 5.59 0 0 1-3.5 10zm-3.49-1.22a3.86 3.86 0 0 0 .35.26z"/></svg>