<svg id="Layer_1" data-name="Layer 1" xmlns="http://www.w3.org/2000/svg" viewBox="0 0 200 200"><defs><style>.cls-1{fill:#36baa2}</style></defs><path class="cls-1" d="M95.37 188.61c-20.16 0-43.64-7.61-66.47-32.61-14.86-16.25-22.53-54.55-9-88.09C31.42 39.36 55.82 22.48 88.6 20.4c28.17-1.79 50.48 4.85 66.29 19.72 23.5 22.1 23.7 54.08 23.7 55.44a5.59 5.59 0 0 1-5.59 5.58 5.59 5.59 0 0 1-5.58-5.59c0-.29-.29-28.65-20.26-47.35-13.48-12.62-32.94-18.2-57.85-16.64-36.2 2.3-52.09 23.33-59 40.56-11.35 28.14-5.48 62.83 6.89 76.36 24.06 26.32 51.47 34.79 81.47 25.17 32.73-10.49 39.72-36.25 40-37.34a5.59 5.59 0 0 1 10.81 2.69c-.33 1.33-8.56 32.81-47.44 45.27a87.57 87.57 0 0 1-26.67 4.34z"/><path class="cls-1" d="M176.26 113.26a5.59 5.59 0 0 1-3.44-1.18c-.71-.55-17.33-13.55-22-18.17a5.59 5.59 0 1 1 7.96-7.91c2.49 2.5 10 8.56 15.64 13.08l9-17.3a5.59 5.59 0 1 1 9.92 5.16l-12.12 23.3a5.59 5.59 0 0 1-5 3zm-81.46 6.58h-1c-7.34-.41-12.8-4.84-13.93-11.21C78.33 99.88 85 93.82 91 90.68V45.21a5.59 5.59 0 1 1 11.19 0v48.3l2.84-3.6c3.29 2.59 8.11 9.57 5.33 19.29-1.85 6.37-8.16 10.64-15.56 10.64zm3.94-20.37l-.31.11c-1.62.59-8.14 3.73-7.54 7.12.3 1.73 3.16 1.93 3.48 1.95 2.15.12 4.7-.73 5.21-2.52a7.45 7.45 0 0 0-.85-6.66z"/><path class="cls-1" d="M143.48 136.87a5.57 5.57 0 0 1-3.09-.94c-2.15-1.27-24-12.93-37.44-20.07a5.59 5.59 0 0 1 5.25-9.88c37.6 20 38.28 20.52 38.78 20.92a5.59 5.59 0 0 1-3.5 10zm-3.48-1.22a3.86 3.86 0 0 0 .35.26z"/></svg>