<svg id="Layer_1" data-name="Layer 1" xmlns="http://www.w3.org/2000/svg" viewBox="0 0 200 200"><defs><style>.cls-1{fill:#a1a1a1;}</style></defs><title>closed_grey</title><path class="cls-1" d="M99.34,33c-.52,0-1.05,0-1.58-.07C92.19,32.5,88,29.6,86.15,25c-4.26-10.75,4.22-15.8,4.31-15.85l.26-.12c9.41-3.22,16-2.61,19.52,1.82,4.11,5.13,2.37,13.91.25,17.38C108.72,31.15,104.18,33,99.34,33ZM91.86,11.84c-.86.56-6,4.3-2.92,12.08,1.89,4.77,6.5,5.85,9.08,6.07,4.2.36,8.56-1.09,9.92-3.3,1.64-2.67,3.11-10,0-13.94C105.28,9.48,99.73,9.17,91.86,11.84Z"/><rect class="cls-1" x="14.52" y="56.03" width="87.99" height="3" transform="translate(-23.32 63.55) rotate(-48.72)"/><rect class="cls-1" x="134.78" y="16.32" width="3" height="85.03" transform="translate(-8.51 91.53) rotate(-36.07)"/><path class="cls-1" d="M81.08,180c-33.09,0-63.86-.41-65.79-.75s-3.67-.64-2.68-43.26C13.08,115.69,14,95.19,14,94.74c.1-2.42,3.27-3.43,4.31-3.76C32.6,86.43,87.22,88.15,110,89.11c18,.75,36.88,1.86,51.68,3,23.46,1.85,24.14,2.72,24.68,3.42,2.24,2.88.87,35.62.71,39.34-.6,13.78-2.07,37.42-5.1,40.9-1,1.14-3.33,3.83-84,4.2C92.36,180,86.68,180,81.08,180Zm-64.74-3.66c5.08.29,41.24.8,80.58.63,71.59-.31,81.57-2.53,82.89-3.25,3.84-5.06,6.14-69.25,4.24-76.16-4.74-1.35-42.7-4.41-84.15-5.87C23.84,89,17.55,94.18,17,94.94,15.69,123.84,14.36,170.54,16.34,176.37Zm163.53-2.66Zm4.52-76Z"/><path class="cls-1" d="M47.82,127.52a2,2,0,0,1-.78.76,2.12,2.12,0,0,1-1,.25,2,2,0,0,1-1.08-.3,1.93,1.93,0,0,1-.76-.79,2.22,2.22,0,0,1-.25-1,2.09,2.09,0,0,1,.3-1.08,9.49,9.49,0,0,0,.51-1,2.25,2.25,0,0,0,.21-.9,1.31,1.31,0,0,0-.75-1.13,6.79,6.79,0,0,0-3.73-.72,9.93,9.93,0,0,0-1.94.18,8.23,8.23,0,0,0-1.85.63,9.64,9.64,0,0,0-3.82,3.29,13.47,13.47,0,0,0-2.15,5.88q-.15,1-.22,1.88t-.07,1.73a14.45,14.45,0,0,0,.3,3.09,9.07,9.07,0,0,0,.87,2.4,5.68,5.68,0,0,0,4.36,3,8.48,8.48,0,0,0,1.25.09,13.18,13.18,0,0,0,3.69-.58A22.18,22.18,0,0,0,45,141.47a2.06,2.06,0,0,1,1-.24,2.08,2.08,0,0,1,1.06.28,2.16,2.16,0,0,1,.79.79,2.19,2.19,0,0,1,.24,1,2.09,2.09,0,0,1-1.1,1.85,27.3,27.3,0,0,1-5.14,2.12,17,17,0,0,1-4.72.72q-.48,0-.94,0l-.91-.1A10.27,10.27,0,0,1,31,146.17a9.51,9.51,0,0,1-3.08-3.51,14.19,14.19,0,0,1-1.21-3.36,18.44,18.44,0,0,1-.43-4.17q0-1,.09-2t.24-2.16a20.2,20.2,0,0,1,1.12-4.35,16.1,16.1,0,0,1,1.85-3.49A14,14,0,0,1,32,120.47a13,13,0,0,1,2.91-1.85,14.39,14.39,0,0,1,2.66-.9,11.07,11.07,0,0,1,2.78-.3,13.39,13.39,0,0,1,3.39.28,8.89,8.89,0,0,1,2.64,1,5.34,5.34,0,0,1,2,1.91,5.48,5.48,0,0,1,.78,2.63A7.72,7.72,0,0,1,47.82,127.52Z"/><path class="cls-1" d="M55.78,118.17a1.89,1.89,0,0,1,1.57-.21,2,2,0,0,1,1.3.94,2,2,0,0,1,.22,1.57q-.27,1.4-.46,2.57t-.46,2.7q-.27,1.54-.55,3.27t-.55,3.52q-.27,1.79-.46,3.48T56,139.15q-.13,1.45-.13,2.46a7.5,7.5,0,0,0,.09,1.31c.06.32.17.5.33.54q.87.15,1.78.22t1.81.07a27.83,27.83,0,0,0,2.94-.15q1.42-.15,2.51-.34t2.4-.52a2,2,0,0,1,1.57.28,2,2,0,0,1,.91,1.3,2,2,0,0,1-.28,1.58,2.1,2.1,0,0,1-1.3.93q-1.76.36-3.18.57t-3.24.39q-1.82.18-3.73.18-1.14,0-2.24-.08a16.82,16.82,0,0,1-2.15-.28h0a1.91,1.91,0,0,1-1.19-.7,4.56,4.56,0,0,1-.78-1.49,10.59,10.59,0,0,1-.43-2.12,23.64,23.64,0,0,1-.13-2.61q0-2.09.24-4.46t.6-4.73q.36-2.36.79-4.52t.79-3.84q.36-1.67.84-3.67A2.14,2.14,0,0,1,55.78,118.17Z"/><path class="cls-1" d="M75.59,124.26a2.11,2.11,0,0,1,1.49-1,12.26,12.26,0,0,1,1.64-2.72,8.39,8.39,0,0,1,2.15-1.88,9.31,9.31,0,0,1,2.79-1.11,16.28,16.28,0,0,1,3.6-.36l.45,0h.45A9.9,9.9,0,0,1,93,118.74a9.48,9.48,0,0,1,3.3,3.58,13.28,13.28,0,0,1,1.36,3.88,19.73,19.73,0,0,1,.31,4.45,29.66,29.66,0,0,1-.42,3.66,26.4,26.4,0,0,1-.91,3.64,23.08,23.08,0,0,1-1.4,3.37,13.91,13.91,0,0,1-1.93,2.85,12.6,12.6,0,0,1-4.45,3.17,14.71,14.71,0,0,1-6.33,1,9.33,9.33,0,0,1-3-.52A9.88,9.88,0,0,1,75,144.47a11.53,11.53,0,0,1-1.49-2.64,13.85,13.85,0,0,1-.94-3.24A18.2,18.2,0,0,1,72.3,135a20.68,20.68,0,0,1,.88-5.45A21.66,21.66,0,0,1,75.59,124.26Zm2.66,3.82a17.72,17.72,0,0,0-1.76,7,13.38,13.38,0,0,0,.15,2.72,10,10,0,0,0,.69,2.39,6.67,6.67,0,0,0,2,2.84,5.44,5.44,0,0,0,3.3,1.1,11,11,0,0,0,4.51-.66,8.05,8.05,0,0,0,3-2.09,10,10,0,0,0,1.46-2.19,18.48,18.48,0,0,0,1.12-2.76,23.07,23.07,0,0,0,.73-3,19.65,19.65,0,0,0,.3-3,16.89,16.89,0,0,0-.21-3.37,9,9,0,0,0-1-2.84,5.52,5.52,0,0,0-1.88-2.06,4.93,4.93,0,0,0-2.75-.78,20.14,20.14,0,0,0-3,.19,5.89,5.89,0,0,0-2.2.75,4.09,4.09,0,0,0-1.45,1.49,7.21,7.21,0,0,0-.78,2.43,2,2,0,0,1-.81,1.39A1.92,1.92,0,0,1,78.25,128.09Z"/><path class="cls-1" d="M122.89,126.41a2,2,0,0,1-1.12,1.15,2.08,2.08,0,0,1-2.73-1.1,2,2,0,0,1,0-1.57,2.65,2.65,0,0,0,.21-1,1.66,1.66,0,0,0-.42-1.15,3.14,3.14,0,0,0-1-.75,5.38,5.38,0,0,0-1.39-.4,9.61,9.61,0,0,0-1.48-.12,22.65,22.65,0,0,0-3.06.13,7.15,7.15,0,0,0-2.39.69,4.69,4.69,0,0,0-1.73,1.52,7.33,7.33,0,0,0-1.06,2.67,1.61,1.61,0,0,0,.28,1.4,4.23,4.23,0,0,0,1.33,1.08,12.38,12.38,0,0,0,2,.87q1.15.39,2.34.75,1.73.54,3.39,1.12a14.06,14.06,0,0,1,3,1.42,7,7,0,0,1,2.09,2,5.24,5.24,0,0,1,.79,3,9.74,9.74,0,0,1-.33,2.33,10.27,10.27,0,0,1-1.72,3.78,9.17,9.17,0,0,1-2.69,2.4,10.75,10.75,0,0,1-3.36,1.25,15.54,15.54,0,0,1-3.73.27,10.33,10.33,0,0,1-2.91-.55,12.29,12.29,0,0,1-2.7-1.3,11.91,11.91,0,0,1-2.24-1.85,8.29,8.29,0,0,1-1.52-2.21,2,2,0,0,1-.21-.9,2.07,2.07,0,0,1,.31-1.11,2,2,0,0,1,.88-.78,2.33,2.33,0,0,1,.87-.18,2.22,2.22,0,0,1,1.12.3,1.91,1.91,0,0,1,.79.87,4.55,4.55,0,0,0,.94,1.33,7.08,7.08,0,0,0,1.39,1.08,8.66,8.66,0,0,0,1.66.76,7,7,0,0,0,1.78.36l.45,0h.45a10.47,10.47,0,0,0,2.12-.21A5.39,5.39,0,0,0,115,143a5.33,5.33,0,0,0,1.46-1.42,6.84,6.84,0,0,0,1-2.22,2.17,2.17,0,0,0-.18-1.75,4,4,0,0,0-1.33-1.28,10.2,10.2,0,0,0-2.09-1q-1.21-.42-2.49-.81-1.7-.54-3.31-1.1a14.07,14.07,0,0,1-2.88-1.37,6.77,6.77,0,0,1-2-1.94,5,5,0,0,1-.76-2.84,8.5,8.5,0,0,1,.18-1.67,11.27,11.27,0,0,1,1.61-4.08,8.5,8.5,0,0,1,2.72-2.58,11.22,11.22,0,0,1,3.66-1.34,20.83,20.83,0,0,1,4.4-.33,12.54,12.54,0,0,1,4.24.78,6.37,6.37,0,0,1,3.17,2.51,5.87,5.87,0,0,1,.75,1.63,6.33,6.33,0,0,1,.24,1.72A6.47,6.47,0,0,1,122.89,126.41Z"/><path class="cls-1" d="M128.92,122.74a1.89,1.89,0,0,1-1.49-.54,2.16,2.16,0,0,1-.69-1.46,1.89,1.89,0,0,1,.54-1.49,2.16,2.16,0,0,1,1.46-.69l1.88-.09.12-.42a2,2,0,0,1,.94-1.3,2,2,0,0,1,2.63.43,2.13,2.13,0,0,1,.49,1.08l11.95-.63a2,2,0,0,1,1.52.54,2,2,0,0,1,.69,1.46,1.89,1.89,0,0,1-.54,1.49,2.16,2.16,0,0,1-1.46.69l-13,.69q-.33,1.4-.75,3.14t-.84,3.64l9.2-.54a2,2,0,0,1,1.52.52,2.13,2.13,0,0,1,.57,2.29,2.2,2.2,0,0,1-.42.69,2,2,0,0,1-.64.48,2.18,2.18,0,0,1-.79.21l-10.36.6q-.51,2.54-.85,4.73a23.67,23.67,0,0,0-.34,3.45,3.7,3.7,0,0,0,.09.93q.18.42,1,.63a10.38,10.38,0,0,0,2.06.27,18.76,18.76,0,0,0,2.31-.09q1.24-.12,2.52-.37t2.57-.63a24.43,24.43,0,0,0,2.45-.85,2,2,0,0,1,1.6,0,2.09,2.09,0,0,1,0,3.85,27.27,27.27,0,0,1-2.85,1q-1.51.45-3,.75a29.75,29.75,0,0,1-3,.43,20,20,0,0,1-2.73.08,11.09,11.09,0,0,1-4.24-1,4.75,4.75,0,0,1-2.48-2.52l-.06-.18a1.17,1.17,0,0,0-.06-.15v-.06a3.29,3.29,0,0,1-.12-.7q0-.4,0-.91a30,30,0,0,1,.3-3.79q.3-2.27.78-4.84a2.16,2.16,0,0,1-1-.69,2.09,2.09,0,0,1-.45-1.17,1.93,1.93,0,0,1,.54-1.51,2.14,2.14,0,0,1,1.46-.7h.24q.39-1.88.78-3.6t.75-3.21Z"/><path class="cls-1" d="M156.19,123.31a2,2,0,0,1-.9.21,2.06,2.06,0,0,1-1.1-.31,2,2,0,0,1-.78-.88q-.09-.24-.15-.45a1.61,1.61,0,0,1-.06-.45,2.07,2.07,0,0,1,.31-1.1,2,2,0,0,1,.88-.78,21.57,21.57,0,0,1,4.23-1.51,17.46,17.46,0,0,1,4-.49,14.64,14.64,0,0,1,1.61.09,12.15,12.15,0,0,1,4.78,1.33,11.85,11.85,0,0,1,3.61,2.91A12.9,12.9,0,0,1,175,126a14.64,14.64,0,0,1,.79,4.82,14.35,14.35,0,0,1-.09,1.58,31.13,31.13,0,0,1-1,5.42,18.29,18.29,0,0,1-1.69,4.06,12.12,12.12,0,0,1-2.3,2.9,11,11,0,0,1-2.88,1.9,13.48,13.48,0,0,1-3.21,1,20.55,20.55,0,0,1-3.57.3,33.6,33.6,0,0,1-3.79-.22q-2-.22-4.06-.55a2.09,2.09,0,0,1-1.37-.84,2,2,0,0,1-.36-1.55,2.08,2.08,0,0,1,.84-1.37,2,2,0,0,1,1.55-.36,1.63,1.63,0,0,0,.33.06l2.24-19.86Zm2.09,20.31q.69.06,1.36.09t1.33,0a18,18,0,0,0,2.73-.19,8.43,8.43,0,0,0,2.34-.7,7.26,7.26,0,0,0,2-1.36,8.56,8.56,0,0,0,1.58-2.18,14.79,14.79,0,0,0,1.18-3.15,30,30,0,0,0,.75-4.24,3.57,3.57,0,0,0,.06-.63v-.66a10.25,10.25,0,0,0-.52-3.29,8.39,8.39,0,0,0-1.51-2.73,8,8,0,0,0-2.42-1.94,8.31,8.31,0,0,0-3.26-.91l-.54,0-.57,0c-.36,0-.72,0-1.08,0a10.07,10.07,0,0,0-1.13.17,1.53,1.53,0,0,1,.09.81Z"/></svg>