<svg data-name="Layer 1" xmlns="http://www.w3.org/2000/svg" viewBox="0 0 200 200"><path d="M169.49 41.53a5 5 0 0 0-5.37-5.17C115.55 38 66.87 32.69 18.6 40.28c-4.1.64-4.79 4.49-3.31 7.42v.16A5.32 5.32 0 0 0 15 50.3c2.4 33.52 6 66.93 9.29 100.37a6.17 6.17 0 0 0 .2 1c-.06 2.83 1.72 5.63 5.37 5.49 45.23-1.76 90.57-.21 135.68-4.65a6.32 6.32 0 0 0 1.09-.22 5.45 5.45 0 0 0 5.41-5.36c1.2-34.73-.87-69.39-2.32-104.08a6.29 6.29 0 0 0-.23-1.32zM161 108a296.29 296.29 0 0 0-25-30.74 246.51 246.51 0 0 0 23.32-17.8C160 75.66 160.7 91.85 161 108zm-5.3-60.31c-17.67 16-37.55 28.79-58.93 39.36-21.51-10.71-41-24.67-61.07-37.83 39.81-4.22 80.01-.85 120-1.53zm-129.08 8.9c10.72 6.95 21.23 14.2 31.94 21.14-9 14.85-18.75 29.24-25.94 44.93-2.18-22.01-4.33-44.02-6-66.07zM161 141.75c-41.71 3.75-83.61 2.71-125.43 4.1a5.73 5.73 0 0 0 1-2.06c6.22-22.1 19.61-40.7 31.38-60.1 8 4.92 16.1 9.58 24.55 13.72l.29.11a5.6 5.6 0 0 0 6.26.82 298.83 298.83 0 0 0 27.36-14.94c12.87 13.93 24.86 28.44 34.24 45a5.79 5.79 0 0 0 .47.67c.03 4.22-.02 8.45-.12 12.68z" fill="#36baa2"/></svg>