<svg id="Layer_1" data-name="Layer 1" xmlns="http://www.w3.org/2000/svg" viewBox="0 0 200 200"><defs><style>.cls-1{fill:#a1a1a1}</style></defs><path class="cls-1" d="M102.35 181.7c-25.09 0-52.35-11.1-69.43-28.29-13.4-13.48-20.43-30.16-20.33-48.23.08-13.65 4-82.05 74.62-88.34 51.79-4.61 89.47 17.39 98.37 57.41 4.77 21.48 1.26 55.39-17.75 79.08-15.11 18.82-37.13 28.37-65.48 28.37zm-2-154.46q-5.92 0-12.17.55c-59.57 5.3-64.51 60.62-64.6 77.45-.09 15.08 5.84 29.05 17.13 40.41 15.13 15.22 39.32 25 61.64 25 24.85 0 44-8.16 56.9-24.25 17.87-22.28 19.12-54 15.59-69.82-6.91-31.05-34.99-49.34-74.49-49.34z"/><path class="cls-1" d="M127.73 125.07a6.59 6.59 0 0 0-1.49.18 77.12 77.12 0 0 1-17.36 2.22 50 50 0 0 1-17.69-3.58c-5-1.81-10.13-6.74-10.13-6.74l15-.25a5.47 5.47 0 0 0 3.91-5.47c0-2.21-1.14-6-5.64-6.07H76.49l-.18-3.51a34.38 34.38 0 0 1 .08-4.58l.28-3.31L80 94h1.32c2 0 11 0 13-.09 4.52-.1 5.68-3.88 5.65-6.1a5.44 5.44 0 0 0-4-5.48s-11.39-.25-14.89-.43c-2.18-.11 6.3-6 6.3-6a24.86 24.86 0 0 1 4.39-2.9c3.85-1.94 8.55-2.88 14.37-2.88a97.19 97.19 0 0 1 14.34 1.35 9.51 9.51 0 0 0 1.39.1c3.06 0 5.24-1.52 6-4.16a6.54 6.54 0 0 0-.91-5.06 4.48 4.48 0 0 0-3-2.12A112.49 112.49 0 0 0 107 58.74 50.08 50.08 0 0 0 85.68 63c-6.88 3.13-12.52 9.2-16.31 17.51l-.94 2.06-2.26.09c-3.13.12-5.91.26-8.49.43-4.32.29-5.76 4.09-5.68 6.57.11 3.14 2.08 5.17 5 5.17h.46l3.25-.19L65 94.4l-.37 4.19a33.92 33.92 0 0 0-.12 3.68l.07 3.56L61 106l-2.84.16c-4.29.27-5.74 4.05-5.66 6.53.1 3.17 2.09 5.21 5.07 5.21h.46c2.48-.15 5.15-.29 8.1-.42l2.19-.09 1.12 1.88a41.25 41.25 0 0 0 10.32 11.51c7.27 5.58 16.82 8.41 28.38 8.41a95.56 95.56 0 0 0 21.33-2.67 5 5 0 0 0 4.09-5.8c-.29-2.18-2.08-5.65-5.83-5.65z"/></svg>