<svg id="Layer_1" data-name="Layer 1" xmlns="http://www.w3.org/2000/svg" viewBox="0 0 200 200"><defs><style>.cls-1{fill:#fff}</style></defs><path class="cls-1" d="M105.48 154.77c2.14-.14 2.27-7.39 1.87-9.72-.09-2.24-.18-4.73-.27-7.33-.32-8.9-.68-18.92-1.15-25.3l1.84-.3c2.89-.46 5.88-.93 8.68-2.62a4.5 4.5 0 0 0 2.3-3.63 5.07 5.07 0 0 0 .12-1.11V93.45a4.66 4.66 0 0 0-4.66-4.77 5.19 5.19 0 0 0-1.25-.16h-8c-2.11-9.82-1.14-18 2.69-22.68 2.83-3.42 7.27-5 13.16-4.81a4.51 4.51 0 0 0 4.5-2.92 4.67 4.67 0 0 0 1.46-3.49v-11.3a4.66 4.66 0 0 0-1.36-3.41 5 5 0 0 0-3.42-1.38c-19.28-3.24-35.86 4.81-42.2 20.54a4.4 4.4 0 0 0-.28 2.67 173.29 173.29 0 0 0 .07 28.94 39.49 39.49 0 0 0-10.3 2c-2.43 1-3.77 3.11-3.43 5.25a5.51 5.51 0 0 0 .11 1.16c.31 1.57.59 3.63.86 5.61.21 1.51.41 3 .61 4.18.39 2.4 2.76 3.75 5 3.75 1.94 0 5.12 0 7.59.1v34.34c-.37 3.55.17 7.66 3.91 8.15 0 0 17.76-.09 21.57-.45"/><path class="cls-1" d="M99 2a95 95 0 1 0 95 95A95.11 95.11 0 0 0 99 2zm78.81 95A78.81 78.81 0 1 1 99 18.15 78.9 78.9 0 0 1 177.81 97z"/></svg>