<svg id="Layer_1" data-name="Layer 1" xmlns="http://www.w3.org/2000/svg" viewBox="0 0 200 200"><defs><style>.cls-1{fill:#a1a1a1;}</style></defs><title>fire_grey</title><path class="cls-1" d="M99.76,199a92.08,92.08,0,0,1-27.16-4.42c-23.06-7.11-38.66-21.94-43.93-41.77C22.08,128,32.82,98.24,58.14,71.2,84.66,42.87,69.54,9.54,68.88,8.13a4.31,4.31,0,0,1,5.84-5.67c23.33,11.81,37.89,32.89,42.12,61a122,122,0,0,1,.39,32.32c25.83-7.34,24.93-26.83,24.88-27.71a4.31,4.31,0,0,1,8.27-1.95,209.2,209.2,0,0,1,13.18,57.76c1.57,19.55-5.68,46.37-25.44,62.23C130,192.59,117.5,199,99.76,199Zm-19.37-183a74.44,74.44,0,0,1,1.79,12.46,64.43,64.43,0,0,1-17.76,48.7C41.18,101.91,31.18,128.69,37,150.55c4.48,16.86,18,29.56,38.15,35.76,23.12,7.13,43,4.72,57.58-7,17.3-13.88,23.64-37.54,22.25-54.82a206.69,206.69,0,0,0-7.89-41.46c-4.33,8.82-13.78,18.79-34.33,22.53a4.3,4.3,0,0,1-5-5.14,111.65,111.65,0,0,0,.51-36C105,43.16,95.66,26.89,80.39,15.93Z"/><path class="cls-1" d="M97.43,198.82a6,6,0,0,1-1-.08,4.3,4.3,0,0,1,1.2-8.52c1.73-.1,13.65-3,19.54-13.11,4.76-8.16,4.23-18.78-1.58-31.62-3.12,3.91-7.38,8.17-11.59,9a4.3,4.3,0,0,1-5.17-4.25c0-.17-.15-15-10.91-29.83-.67,7.43-3.46,17.41-11.48,28.91C70,158.59,68.21,168.66,71.56,177a20.19,20.19,0,0,0,15.13,12.35A4.3,4.3,0,0,1,85,197.78,28.66,28.66,0,0,1,63.58,180.2c-4.46-11.07-2.36-24.1,5.78-35.77,14.26-20.44,9.39-34.22,9.18-34.79a4.31,4.31,0,0,1,6.91-4.73,66.91,66.91,0,0,1,21.16,37.75,54.66,54.66,0,0,0,5.93-7.76,4.36,4.36,0,0,1,3.77-2,4.3,4.3,0,0,1,3.65,2.22c13.64,24.73,9.18,40.19,3,48.8C115.53,194.35,102.54,198.82,97.43,198.82Zm.27-8.58.19,0Z"/></svg>