<svg data-name="Layer 1" xmlns="http://www.w3.org/2000/svg" viewBox="0 0 200 200"><path d="M162.57 63.44l-47-3.37c2.2-1.23 4.57-2.6 6.94-4.08C136 47.57 142.25 40.61 142 34.1c-.12-3.18-1.78-7.56-9.05-10.32-4.38-1.67-11.33-2.41-19.54 3.5-6.48 4.72-11.79 12.12-15.1 17.54-.61 1-2.63 4.37-4.19 7.59C83.74 37.37 65.46 21 52 22.37c-5.93.6-10.27 4.44-12.22 10.81a16.8 16.8 0 0 0 2.67 15.43A28.25 28.25 0 0 0 50 55.38l-17.76-1.27a5 5 0 0 0-5.34 4.53l-2.67 29A5 5 0 0 0 28.18 93c.45.1 2.1.44 4.72 1a5 5 0 0 0-.35 2l4 74.5a5 5 0 0 0 5 4.73H153a5 5 0 0 0 5-5V106c1.79-.24 3.51-.51 5.14-.84a5 5 0 0 0 4-4.9V68.43a5 5 0 0 0-4.57-4.99zm-40.32-29.82a12 12 0 0 1 2.22-.79 8.08 8.08 0 0 1 4.94.3 7 7 0 0 1 2.59 1.45c-.19.73-1.83 4.9-15 13-4.83 3-9.7 5.58-12.94 7.22 3.53-6.58 10.65-17.68 18.19-21.18zm-72.92 2.49c1.08-3.53 2.76-3.7 3.66-3.79h.67c7.19 0 21.38 10.45 31.18 24.18-9.24-1.5-29.06-5.96-34.62-14.18a6.72 6.72 0 0 1-.89-6.21zM36.41 64.43l120.8 8.65V96c-34.69 4.79-104.52-8.31-122.61-11.91zM148 165.26H46.29l-3.73-69.44C64.49 99.93 106.95 107 139.15 107q4.6 0 8.89-.21z" fill="#36baa2"/></svg>