<svg width="409" height="264" xmlns="http://www.w3.org/2000/svg"><g fill="none" fill-rule="evenodd"><path d="M124.292.01v117.465a82.694 82.694 0 0 0-18.565-9.495c-8.094-2.918-16.835-4.398-25.984-4.398-10.937 0-21.344 2.087-30.929 6.202-9.562 4.127-18.04 9.873-25.195 17.086-7.176 7.226-12.88 15.77-16.959 25.388C2.577 161.89.505 172.37.505 183.405s2.072 21.51 6.155 31.143c4.07 9.615 9.774 18.154 16.955 25.388 7.172 7.23 15.654 12.976 25.204 17.082 9.576 4.12 19.978 6.206 30.924 6.206 10.946 0 21.349-2.087 30.92-6.206 9.55-4.106 18.027-9.851 25.208-17.082 7.172-7.23 12.871-15.773 16.95-25.388 4.084-9.645 6.156-20.125 6.156-31.143V.01h-34.685zm0 183.395c0 6.107-1.158 11.965-3.441 17.418-2.31 5.479-5.51 10.312-9.525 14.362-4.031 4.071-8.813 7.308-14.215 9.619-10.756 4.614-23.704 4.618-34.46-.004-5.407-2.307-10.184-5.544-14.207-9.615-4.028-4.063-7.284-8.905-9.68-14.392-2.373-5.436-3.574-11.285-3.574-17.388 0-6.098 1.201-11.947 3.575-17.387 2.39-5.475 5.647-10.321 9.679-14.397 4.015-4.058 8.796-7.29 14.206-9.615 5.402-2.31 11.2-3.481 17.24-3.481 6.026 0 11.824 1.17 17.221 3.477 5.406 2.324 10.188 5.56 14.215 9.62 4.024 4.07 7.229 8.86 9.529 14.232 2.283 5.354 3.437 11.16 3.437 17.551zm228.337-31.439c-4.075-9.61-9.783-18.153-16.955-25.392-7.176-7.222-15.658-12.968-25.2-17.074-9.57-4.118-19.974-6.21-30.92-6.21-10.945 0-21.352 2.092-30.924 6.21-9.55 4.11-18.027 9.852-25.208 17.078-7.172 7.235-12.875 15.774-16.95 25.388-4.088 9.632-6.156 20.108-6.156 31.143s2.068 21.515 6.156 31.156c4.075 9.615 9.783 18.158 16.95 25.384 7.173 7.222 15.654 12.967 25.208 17.082 9.568 4.114 19.97 6.202 30.925 6.202 10.954 0 21.353-2.088 30.92-6.202 9.545-4.11 18.027-9.86 25.2-17.086 7.171-7.227 12.875-15.765 16.954-25.38 4.088-9.662 6.16-20.142 6.16-31.156 0-11.013-2.072-21.493-6.16-31.143m-28.53 31.143c0 6.112-1.158 11.978-3.441 17.422-2.296 5.475-5.5 10.304-9.52 14.362-4.036 4.08-8.822 7.312-14.22 9.62-10.781 4.626-23.704 4.617-34.456-.005-5.393-2.303-10.174-5.535-14.21-9.615-4.032-4.067-7.289-8.909-9.684-14.396-2.37-5.427-3.567-11.276-3.567-17.388 0-6.098 1.198-11.952 3.567-17.383 2.395-5.479 5.652-10.32 9.683-14.397 4.037-4.071 8.818-7.307 14.211-9.614 5.389-2.311 11.183-3.478 17.235-3.478 6.04 0 11.833 1.17 17.226 3.478 5.393 2.307 10.179 5.543 14.21 9.614 4.024 4.063 7.229 8.897 9.525 14.362 2.283 5.453 3.442 11.315 3.442 17.418" fill="#000"/><path d="M263.798 113.055c-3.373-28.47 1.184-55.39 14.934-80.603 9.688-17.757-17.282-33.656-26.974-15.88-16.18 29.666-23.192 62.792-19.203 96.483 2.356 19.862 33.625 20.103 31.243 0m50.71-1.477c3.649-18.468 12.182-33.992 25.971-46.714 14.861-13.712-7.276-35.92-22.09-22.255-17.402 16.057-29.399 37.267-34.004 60.602-3.907 19.78 26.2 28.246 30.123 8.367m37.675 29.305c5.225-18.734 21.443-33.828 41.043-35.743 19.837-1.933 20.035-33.424 0-31.47-33.625 3.28-61.93 25.703-71.162 58.846-5.449 19.531 24.683 27.868 30.12 8.367" fill="#F27292"/></g></svg>