<svg xmlns="http://www.w3.org/2000/svg" viewBox="0 0 168 140.62"><g data-name="logo"><path d="M73.75 4.87v22.74a16.15 16.15 0 0 0-3.62-1.84 15 15 0 0 0-5.07-.85 15.29 15.29 0 0 0-6 1.2 15.43 15.43 0 0 0-8.22 8.22 15.74 15.74 0 0 0 0 12.06A15.42 15.42 0 0 0 59 54.62a15.73 15.73 0 0 0 12.06 0 15.42 15.42 0 0 0 8.22-8.22 15.27 15.27 0 0 0 1.2-6V4.87zm0 35.5a8.62 8.62 0 0 1-.67 3.37A8.66 8.66 0 0 1 59 46.52a9.1 9.1 0 0 1-1.89-2.79 8.47 8.47 0 0 1 0-6.73A9.14 9.14 0 0 1 59 34.22a8.7 8.7 0 0 1 2.77-1.86 8.71 8.71 0 0 1 6.72 0A8.68 8.68 0 0 1 73.08 37a8.49 8.49 0 0 1 .67 3.37zm44.52-6.09a15.41 15.41 0 0 0-8.22-8.22 15.72 15.72 0 0 0-12.06 0 15.41 15.41 0 0 0-8.22 8.22 15.74 15.74 0 0 0 0 12.06A15.42 15.42 0 0 0 98 54.56a15.74 15.74 0 0 0 12.06 0 15.43 15.43 0 0 0 8.22-8.22 15.73 15.73 0 0 0 0-12.06zm-5.56 6a8.64 8.64 0 0 1-5.3 8 8.67 8.67 0 0 1-9.49-1.86A9.09 9.09 0 0 1 96 43.68a8.48 8.48 0 0 1 0-6.73 9.14 9.14 0 0 1 1.89-2.79 8.69 8.69 0 0 1 2.77-1.86 8.72 8.72 0 0 1 6.72 0 8.67 8.67 0 0 1 5.3 8zM36.09 81.76H22.84v-6.82h-3.42v18.04h3.42v-8.11h13.25v8.11h3.42V74.94h-3.42v6.82zm17.45-.09a6.68 6.68 0 0 0-2.11-1.42 6.78 6.78 0 0 0-5.18 0 6.62 6.62 0 0 0-3.53 3.53 6.75 6.75 0 0 0 0 5.18 6.62 6.62 0 0 0 3.53 3.53 6.75 6.75 0 0 0 5.18 0A6.62 6.62 0 0 0 55 89a6.75 6.75 0 0 0 0-5.18 6.69 6.69 0 0 0-1.46-2.15zm-1.39 4.7a3.29 3.29 0 0 1-.26 1.29 3.3 3.3 0 0 1-5.38 1.06 3.47 3.47 0 0 1-.72-1.07 3.22 3.22 0 0 1 0-2.56 3.49 3.49 0 0 1 .72-1.09 3.32 3.32 0 0 1 1.06-.71 3.33 3.33 0 0 1 2.56 0 3.28 3.28 0 0 1 1.76 1.77 3.29 3.29 0 0 1 .26 1.31zm17.44-4.67a6.67 6.67 0 0 0-2.11-1.42 6.77 6.77 0 0 0-4.78-.15 6.91 6.91 0 0 0-1.14.53v-9.15h-3.3V86.4a6.54 6.54 0 0 0 .51 2.6 6.63 6.63 0 0 0 3.53 3.53 6.75 6.75 0 0 0 5.18 0A6.63 6.63 0 0 0 71 89a6.75 6.75 0 0 0 0-5.18 6.66 6.66 0 0 0-1.41-2.12zm-1.39 4.7a3.28 3.28 0 0 1-.26 1.28 3.3 3.3 0 0 1-5.38 1.06 3.49 3.49 0 0 1-.72-1.07 3.19 3.19 0 0 1-.26-1.3 3.09 3.09 0 0 1 .26-1.26 3.52 3.52 0 0 1 .72-1.06 3.32 3.32 0 0 1 1.06-.71 3.32 3.32 0 0 1 2.56 0 3.3 3.3 0 0 1 2 3.06zm17.45-4.7a6.66 6.66 0 0 0-2.11-1.42 6.77 6.77 0 0 0-4.78-.15 6.92 6.92 0 0 0-1.14.53v-9.15h-3.31V86.4a6.54 6.54 0 0 0 .52 2.6 6.62 6.62 0 0 0 3.53 3.53 6.75 6.75 0 0 0 5.18 0A6.63 6.63 0 0 0 87.07 89a6.75 6.75 0 0 0 0-5.18 6.66 6.66 0 0 0-1.42-2.12zm-1.39 4.7a3.28 3.28 0 0 1-.26 1.28 3.3 3.3 0 0 1-5.38 1.06 3.49 3.49 0 0 1-.72-1.07 3.18 3.18 0 0 1-.26-1.3 3.08 3.08 0 0 1 .26-1.26 3.53 3.53 0 0 1 .72-1.06 3.31 3.31 0 0 1 1.06-.71 3.32 3.32 0 0 1 2.56 0A3.27 3.27 0 0 1 84 85.11a3.29 3.29 0 0 1 .26 1.29zm11.26.96l-3.33-7.58h-3.74l5.11 11.64-3.48 6.89h3.81l1.9-3.64 7.18-14.89h-3.8l-3.65 7.58zm17.92-6.71a6.91 6.91 0 0 0-1.13-.53 6.63 6.63 0 0 0-6.88 1.57 6.67 6.67 0 0 0-1.43 2.12 6.76 6.76 0 0 0 0 5.19 6.63 6.63 0 0 0 3.53 3.53 6.75 6.75 0 0 0 5.18 0 6.62 6.62 0 0 0 3.54-3.53 6.6 6.6 0 0 0 .52-2.61V71.5h-3.32zm-1 3.4a3.37 3.37 0 0 1 .71 1.05 3.21 3.21 0 0 1 .25 1.27 3.29 3.29 0 0 1-2 3.06 3.35 3.35 0 0 1-2.56 0 3.3 3.3 0 0 1-1.06-.71 3.49 3.49 0 0 1-.72-1.07 3.22 3.22 0 0 1 0-2.56 3.47 3.47 0 0 1 .72-1.07 3.32 3.32 0 0 1 1.06-.71 3.32 3.32 0 0 1 2.56 0 3.33 3.33 0 0 1 1.08.69zm18.45-2.38a6.69 6.69 0 0 0-2.11-1.42 6.78 6.78 0 0 0-5.18 0 6.62 6.62 0 0 0-3.53 3.53 6.75 6.75 0 0 0 0 5.18 6.62 6.62 0 0 0 3.53 3.53 6.75 6.75 0 0 0 5.18 0A6.62 6.62 0 0 0 132.3 89a6.75 6.75 0 0 0 0-5.18 6.67 6.67 0 0 0-1.41-2.15zm-1.39 4.7a3.28 3.28 0 0 1-.26 1.29 3.3 3.3 0 0 1-4.32 1.77 3.26 3.26 0 0 1-1.06-.71 3.48 3.48 0 0 1-.72-1.07 3.23 3.23 0 0 1 0-2.56 3.49 3.49 0 0 1 .72-1.07 3.32 3.32 0 0 1 1.06-.71 3.32 3.32 0 0 1 2.56 0 3.3 3.3 0 0 1 2 3.06zm25.5-3.65a5.84 5.84 0 0 0-1.9-2.07 5.77 5.77 0 0 0-1.51-.71 5.92 5.92 0 0 0-3.43 0 6.18 6.18 0 0 0-1.54.72 5.86 5.86 0 0 0-.94.8 5.51 5.51 0 0 0-1-.81 5.76 5.76 0 0 0-1.51-.71 5.93 5.93 0 0 0-3.43 0 6.18 6.18 0 0 0-.83.32v-.57h-3.32V93h3.32v-7.5a2.41 2.41 0 0 1 .2-1 2.61 2.61 0 0 1 .55-.81 2.56 2.56 0 0 1 .81-.55 2.5 2.5 0 0 1 1.94 0 2.59 2.59 0 0 1 1.35 1.36 2.4 2.4 0 0 1 .2 1V93h3.33v-7.5a2.41 2.41 0 0 1 .2-1 2.61 2.61 0 0 1 .55-.81 2.58 2.58 0 0 1 .82-.55 2.49 2.49 0 0 1 1.94 0 2.6 2.6 0 0 1 1.36 1.35 2.42 2.42 0 0 1 .2 1V93h3.32v-7.5a5.72 5.72 0 0 0-.68-2.78z" fill="#232222"/><path d="M65.07 43.36c3.92 0 3.93-6.09 0-6.09s-3.93 6.09 0 6.09zm38.78 0c3.92 0 3.93-6.09 0-6.09s-3.93 6.09 0 6.09z" fill="#36baa2"/><path d="M101 26.75a25.35 25.35 0 0 1 2.91-15.6c1.89-3.44-3.37-6.51-5.26-3.07a30.91 30.91 0 0 0-3.74 18.67c.46 3.84 6.56 3.89 6.09 0zm9.84-.28a16.21 16.21 0 0 1 5.06-9c2.9-2.65-1.42-7-4.31-4.31A21.66 21.66 0 0 0 105 24.85c-.76 3.83 5.11 5.47 5.87 1.62zm7.34 5.67a9.48 9.48 0 0 1 8-6.92c3.87-.37 3.91-6.47 0-6.09a15.75 15.75 0 0 0-13.88 11.39c-1.06 3.78 4.81 5.39 5.87 1.62z" fill="#fb7598"/><path d="M66.62 109.3l-.49 13.16c0 .28-.1 2.34-.16 4l-.51-.37a7.29 7.29 0 0 0-2.42-.91c-3.83-.76-5.47 5.11-1.62 5.87 2.46.49 3.76 2.75 6.61 2.32a4.63 4.63 0 0 0 3.97-4.31c.88-6.43.51-13.27.75-19.75.11-3.93-5.98-3.92-6.13-.01zm39.96 18.53c-.87-.1-2-.26-3.13-.36l-.59-.07c.25-1.88-.24-4.49-.3-6.3l-.47-13.49c-.14-3.91-6.23-3.93-6.09 0 .23 6.54.35 13.09.68 19.63.11 2.22.25 4.48 2.52 5.56s5.07.86 7.38 1.13c3.88.44 3.85-5.65 0-6.1zm19.63-59.39L149 52.57c3.19-2.23.15-7.51-3.07-5.26l-22.79 15.87c-3.19 2.23-.15 7.51 3.07 5.26zM47.4 57.62a285.78 285.78 0 0 0-32.56-28.77c-3.12-2.37-6.16 2.92-3.07 5.26a275.8 275.8 0 0 1 31.32 27.82c2.73 2.82 7-1.49 4.31-4.31z" fill="#ffc10e"/></g></svg>