<svg id="Layer_1" data-name="Layer 1" xmlns="http://www.w3.org/2000/svg" viewBox="0 0 200 200"><defs><style>.cls-1{fill:#36baa2}</style></defs><path class="cls-1" d="M190.68 177.52q-6.42 0-12.82.12c-2.86-33.78-4.77-70.21-6.59-104.05a6.22 6.22 0 0 0 .35-3.49 34.66 34.66 0 0 1-.45-5.58q5.49.15 11 .49a4.47 4.47 0 0 0 4.94-4.23 4.32 4.32 0 0 0-1.28-5.26 210.34 210.34 0 0 0-19.09-14.63 4.24 4.24 0 0 0 .05-.54c0-10.31-.46-23.22-.5-33.53a3.79 3.79 0 0 0-4.1-3.82 5 5 0 0 0-.9-.14c-9.15-.46-18.29-.5-27.45-.5A3.77 3.77 0 0 0 130 6.27a4.29 4.29 0 0 0-.13 1c0 3.23 0 9-.16 12.27-10.17-5-20.56-9.62-31-14.05a5.41 5.41 0 0 0-5.23.51 4.91 4.91 0 0 0-2.59.82C62.16 25.33 35.48 38.89 8.05 59.22c-4.86 3.6-.92 11.43 3.89 9.64 2.16-.13 4.32-.3 6.48-.46 2.26 34.37.44 76.66 3 111-2.66 0-5.31-.06-8-.11-7.07-.15-7 10.79 0 10.94 26.83.58 53.64-.24 80.44-1.32 25.26-.53 50.49 1.12 75.72-.2 7-.14 14.06-.24 21.09-.26s7.06-10.94.01-10.93zm-52.87-167.2c6.84 0 13.69.08 20.53.37.08 7.46.29 17.52.39 25q-10.37-6.51-21.27-12.15c.25-3.54.32-9.69.35-13.22zM93.52 177.89q-12.76.51-25.51.93c-.6-6.25-.9-12.49-1.05-18.73a5 5 0 0 0 2.6.68c6.67 0 6.67-10.35 0-10.35a5 5 0 0 0-2.68.73c0-6.06.21-12.14.6-18.21 7.54-5 15.89-6.19 24.36-2.67a384.6 384.6 0 0 1 1.68 47.62zm10.35-.44a385 385 0 0 0-2-50.33 5.5 5.5 0 0 0-.7-2.19 4.41 4.41 0 0 0-2.48-2.93c-12.84-6.28-26.68-5.41-38.22 3.23a5.64 5.64 0 0 0-1.27 1.34 5.13 5.13 0 0 0-1.95 3.78 291.26 291.26 0 0 0 .42 48.65c-9.51 0-16.43 0-25.94-.06-2.47-34.25-.66-76.43-2.93-110.71 0-.22-.07-.42-.1-.63 44.06-3.81 87.93-3.29 132.17-3.22 0 1.63.12 3.27.28 4.9-.25.63 4.14 82 6.38 108.56-20.37.45-43.31-1.25-63.66-.38zM27.74 57.32C50.18 40.38 72.45 31 96.12 15.76c.05 0 .08-.07.13-.1 24.85 10.62 49.64 22.28 71.34 38.45-46.84-.89-93.22-.78-139.85 3.21z"/><path class="cls-1" d="M145.28 76.33c-.16 0-.32.06-.48.1a5.37 5.37 0 0 0-1.32-.11L118 78a5.19 5.19 0 0 0-4.84 5.18v30.07a5.19 5.19 0 0 0 5.19 5.19h.48a5.15 5.15 0 0 0 3.19 1.13h.38l26.82-1.95a5.19 5.19 0 0 0 4.79-5.68L151 81a5.19 5.19 0 0 0-5.72-4.67zm-21.78 32.73v-21l17.59-1.19 2 20.75z"/></svg>