<svg id="Layer_1" data-name="Layer 1" xmlns="http://www.w3.org/2000/svg" viewBox="0 0 200 200"><defs><style>.cls-1{fill:#fff}</style></defs><path class="cls-1" d="M193.94 56A52 52 0 0 0 142 4H55.91c-32.53 0-52 30.4-52 59.79V142a52 52 0 0 0 52 52H142c29.1 0 54.63-24.48 54.63-52.4zM174 162.34c-7.82 8.84-21.44 14.55-34.7 14.55L55.93 179a37 37 0 0 1-37-37V62.6c0-20.21 18.17-45.86 38.58-45.86L142 19a35.6 35.6 0 0 1 26.79 11.86 31.25 31.25 0 0 1 7.7 24.82l4.25 86.32c.89 7.36-1.42 14.38-6.74 20.34z"/><path class="cls-1" d="M98.94 50.54c-25.47 0-45.41 22.14-45.41 50.4 0 27 20.1 47.43 46.75 47.43 27.2 0 51.06-23.07 51.06-49.38-.01-25.81-24.49-48.45-52.4-48.45zm0 81.93c-17.54 0-29.79-13.58-29.79-33 0-19.67 12.53-34 29.79-34a33.49 33.49 0 1 1 0 67zM152 36.08h-1.48a11.46 11.46 0 0 0 0 22.92c2.83 0 7.26-2.52 9.63-4.88a11.47 11.47 0 0 0 0-16.21c-1.72-1.7-5.29-1.83-8.15-1.83z"/></svg>