<svg id="Layer_1" data-name="Layer 1" xmlns="http://www.w3.org/2000/svg" viewBox="0 0 200 200"><defs><style>.cls-1{fill:#ffc10e;}.cls-2{fill:#fff;}</style></defs><title>left_circle_arrow_hover_1</title><path class="cls-1" d="M165.48,34.52a92.6,92.6,0,0,0-131,131,92.6,92.6,0,0,0,131-131Z"/><path class="cls-2" d="M80.73,47.13a5.5,5.5,0,0,0-7.8-.2,5.43,5.43,0,0,0-.2,7.7l44.68,45.88L72.73,145.19a5.54,5.54,0,0,0,0,7.7,5.67,5.67,0,0,0,4.1,1.7,5.4,5.4,0,0,0,3.9-1.7l48.48-48.28a5.68,5.68,0,0,0,0-7.8Z"/></svg>