<svg id="Layer_1" data-name="Layer 1" xmlns="http://www.w3.org/2000/svg" viewBox="0 0 200 200"><defs><style>.cls-1{fill:#ffc10e}</style></defs><path class="cls-1" d="M116 152.87a5.5 5.5 0 0 0 7.8.2 5.43 5.43 0 0 0 .2-7.7L79.31 99.49 124 54.81a5.54 5.54 0 0 0 0-7.7 5.67 5.67 0 0 0-4.1-1.7 5.4 5.4 0 0 0-3.9 1.7L67.51 95.39a5.68 5.68 0 0 0 0 7.8z"/><path class="cls-1" d="M96.72 192.6A92.6 92.6 0 0 1 31.24 34.52a92.6 92.6 0 0 1 131 131 92 92 0 0 1-65.52 27.08zm0-176.5a83.9 83.9 0 1 0 83.9 83.9 84 84 0 0 0-83.9-83.9z"/></svg>