<svg id="Layer_1" data-name="Layer 1" xmlns="http://www.w3.org/2000/svg" viewBox="0 0 200 200"><defs><style>.cls-1{fill:#ffc10e;}.cls-2{fill:#fff;}</style></defs><title>left_circle_arrow_hover</title><path class="cls-1" d="M34.52,165.48a92.6,92.6,0,0,0,131-131,92.6,92.6,0,0,0-131,131Z"/><path class="cls-2" d="M119.27,152.87a5.5,5.5,0,0,0,7.8.2,5.43,5.43,0,0,0,.2-7.7L82.59,99.49l44.68-44.68a5.54,5.54,0,0,0,0-7.7,5.67,5.67,0,0,0-4.1-1.7,5.4,5.4,0,0,0-3.9,1.7L70.79,95.39a5.68,5.68,0,0,0,0,7.8Z"/></svg>