<svg id="Layer_1" data-name="Layer 1" xmlns="http://www.w3.org/2000/svg" viewBox="0 0 200 200"><defs><style>.cls-1{fill:#36baa2}</style></defs><path class="cls-1" d="M97.11 4.64c-2.55 0-5.25.09-8 .26h-3.36a5.2 5.2 0 0 0-2.17.47l-.19.09h-.21c-20 .4-37.21 11.36-44.8 28.61-7.49 17-3.87 36.45-.5 49.58 7.83 30.46 25.32 62.75 49.24 90.92l1.44 1.7-2.23-.05-8.43-.22h-.73q-7.51-.2-15-.38h-.27c-3.8 0-5.84 2.58-5.87 5.14s2 5.4 6.07 5.49c5 .12 10 .25 15 .39h1.64c13.74.36 28 .73 41.93.73 4.32 0 8.53 0 12.52-.1s6.11-2.8 6.09-5.46c0-2.49-2-5.17-6.14-5.17-4 .07-8.1.1-12.47.1-3.07 0-6.16 0-9.25-.05h-3.19l1.57-1.69c25.47-27.13 43.25-65.44 47.55-102.48 1.6-13.74.92-33.44-11.45-49.27-9.62-12.34-26.04-18.61-48.79-18.61zm48.74 72.2c-5 33.64-22.91 69.44-46.64 93.41l-.76.76-.71-.81A251.41 251.41 0 0 1 53 95.08c-7-18.52-9.44-34-7.35-47.34 2.92-18.49 18.91-31.41 38.89-31.41h1.28A5.3 5.3 0 0 0 88 15.9l.2-.09h2.4a5.39 5.39 0 0 0 1.08-.12h.16c1.78-.08 3.55-.11 5.25-.11 18.84 0 32.21 5 40.9 15.25 8.34 9.76 11.01 25.25 7.86 46.02z"/><path class="cls-1" d="M96.11 25h-2.69C75.58 25 63 36.37 61.82 53.75c-1.39 20.33 17 35.41 35.09 36.74.8.06 1.61.09 2.39.09 17.83 0 34.78-13.78 37-30.1A26.55 26.55 0 0 0 130 38.8C122.67 30.42 109.38 25 96.11 25zm28.44 34.55C122.94 71.32 109 78.61 97 78.61c-14.14-.07-22.57-12-22.55-23.4 0-8.86 5.11-18.32 19.31-18.32h2.16c7.71 0 18.85 2.44 24.84 9.31a16.13 16.13 0 0 1 3.79 13.35z"/></svg>