<svg id="Layer_1" data-name="Layer 1" xmlns="http://www.w3.org/2000/svg" viewBox="0 0 200 200"><defs><style>.cls-1{fill:#f9be00}</style></defs><path class="cls-1" d="M105 6.6c-2.66 0-5.43.09-8.1.26h-3.22a6.19 6.19 0 0 0-2.59.57C70.65 7.83 53.17 19 45.4 36.62c-7.62 17.31-4 37-.56 50.23 7.85 30.53 25.68 63.33 49.45 91.32l-9.17-.24q-7.51-.2-15-.38h-.23c-4.49 0-6.88 3.08-6.92 6.12s2.37 6.4 7 6.51c5 .12 10 .24 15 .39 14.28.37 29.05.77 43.6.77q6.26 0 12.54-.1c4.68-.08 7.09-3.32 7.07-6.46s-2.44-6.17-7.14-6.17c-4.16.07-8.31.1-12.47.1-3.37 0-6.75 0-10.14-.06 25.36-27 43.49-65.83 47.81-103 1.62-13.92.92-33.91-11.65-50C144.8 13 128.11 6.6 105 6.6zm47.75 73.05c-5 33.59-22.72 69-46.36 92.85a250.12 250.12 0 0 1-44.52-74.83c-7-18.36-9.36-33.67-7.3-46.83 2.84-18 18.41-30.56 37.9-30.56h1.33a6.27 6.27 0 0 0 2.58-.54h2.19a6.4 6.4 0 0 0 1.28-.14c1.73-.07 3.47-.11 5.21-.11 18.53 0 31.65 4.87 40.14 14.9 8.1 9.56 10.65 24.79 7.58 45.24zm0 0"/><path class="cls-1" d="M104 27h-1c-19.1-.79-33 11.36-34.24 29.63-1.43 20.92 17.47 36.44 36 37.8.82.06 1.64.09 2.47.09 18.3 0 35.71-14.18 38-31a27.53 27.53 0 0 0-6.6-22.47C131.17 32.5 117.58 27 104 27zm27.45 35.41c-1.54 11.24-14.92 18.2-26.55 18.2-13.52-.06-21.57-11.44-21.55-22.4 0-8.38 4.84-17.33 18.31-17.33h.81a1.35 1.35 0 0 0 .21 0h1.14c7.5 0 18.31 2.34 24.09 9a15.18 15.18 0 0 1 3.55 12.56zm0 0"/></svg>