<svg id="Layer_1" data-name="Layer 1" xmlns="http://www.w3.org/2000/svg" viewBox="0 0 200 200"><defs><style>.cls-1{fill:#36baa2}</style></defs><path class="cls-1" d="M96.21 17.09c-2.35 0-4.85.08-7.41.24h-3.06a4.79 4.79 0 0 0-2 .44l-.17.08h-.19c-18.48.37-34.31 10.48-41.31 26.38-6.91 15.7-3.57 33.61-.46 45.71C48.82 118 64.95 147.8 87 173.78l1.33 1.57h-2.05l-7.78-.2h-.67q-6.92-.19-13.85-.35h-.23c-3.51 0-5.39 2.38-5.41 4.74s1.88 5 5.6 5.07c4.62.11 9.22.23 13.84.36h1.51c12.67.33 25.77.67 38.67.67 4 0 7.87 0 11.54-.09s5.63-2.58 5.61-5c0-2.3-1.81-4.77-5.66-4.77-3.7.06-7.47.09-11.5.09h-11.47l1.44-1.54c23.49-25 39.88-60.34 43.85-94.49 1.48-12.67.84-30.84-10.55-45.43-8.89-11.54-24.03-17.32-45.01-17.32zm44.94 66.57c-4.64 31-21.12 64-43 86.13l-.7.71-.65-.75a231.81 231.81 0 0 1-41.25-69.28c-6.49-17.08-8.71-31.36-6.78-43.65 2.69-17.05 17.43-29 35.86-29h1.18a4.89 4.89 0 0 0 2-.42l.18-.08h2.22a5 5 0 0 0 1-.11h.15c1.65-.07 3.28-.11 4.84-.11 17.37 0 29.7 4.6 37.71 14.07 7.69 9.07 10.09 23.35 7.24 42.5z"/><path class="cls-1" d="M100.13 32.22h-2.69C79.61 32.21 67 43.59 65.85 61c-1.39 20.33 17 35.41 35.09 36.74.8.06 1.61.09 2.39.09 17.83 0 34.78-13.78 37-30.1A26.55 26.55 0 0 0 134 46c-7.31-8.36-20.6-13.78-33.87-13.78zm28.44 34.55C127 78.54 113 85.83 101 85.83c-14.14-.07-22.57-12-22.55-23.4 0-8.86 5.11-18.32 19.31-18.32H100c7.71 0 18.85 2.44 24.84 9.31a16.13 16.13 0 0 1 3.73 13.35z"/></svg>