<svg xmlns="http://www.w3.org/2000/svg" viewBox="0 0 162.5 135.02"><g data-name="logo"><path d="M66.85.29V24a16.86 16.86 0 0 0-3.78-1.92 15.64 15.64 0 0 0-5.29-.89 16 16 0 0 0-6.29 1.25A16.11 16.11 0 0 0 42.91 31a16.43 16.43 0 0 0 0 12.58 16.1 16.1 0 0 0 8.58 8.58 16.42 16.42 0 0 0 12.59 0 16.09 16.09 0 0 0 8.58-8.58 15.94 15.94 0 0 0 1.25-6.29v-37zm0 37.05a9 9 0 0 1-.7 3.52 9 9 0 0 1-14.74 2.9 9.5 9.5 0 0 1-2-2.91 8.84 8.84 0 0 1 0-7 9.54 9.54 0 0 1 2-2.91 9.08 9.08 0 0 1 2.9-1.94 9.09 9.09 0 0 1 7 0 9.06 9.06 0 0 1 4.83 4.82 8.86 8.86 0 0 1 .71 3.52zM113.32 31a16.09 16.09 0 0 0-8.58-8.58 16.41 16.41 0 0 0-12.59 0A16.09 16.09 0 0 0 83.58 31a16.43 16.43 0 0 0 0 12.59 16.1 16.1 0 0 0 8.58 8.58 16.43 16.43 0 0 0 12.59 0 16.1 16.1 0 0 0 8.58-8.58 16.42 16.42 0 0 0 0-12.59zm-5.81 6.29a9 9 0 0 1-5.51 8.35 9.05 9.05 0 0 1-9.9-1.94 9.49 9.49 0 0 1-2-2.91 8.85 8.85 0 0 1 0-7 9.54 9.54 0 0 1 2-2.91 9.07 9.07 0 0 1 2.9-1.97 9.1 9.1 0 0 1 7 0 9 9 0 0 1 5.53 8.36zM27.54 80.54H13.71v-7.12h-3.57v18.84h3.57v-8.47h13.83v8.47h3.57V73.42h-3.57v7.12zm18.21-.09a7 7 0 0 0-2.2-1.45 7.08 7.08 0 0 0-5.41 0 6.91 6.91 0 0 0-3.68 3.68 7 7 0 0 0 0 5.41 6.91 6.91 0 0 0 3.68 3.68 7 7 0 0 0 5.41 0 6.91 6.91 0 0 0 3.68-3.68 7 7 0 0 0 0-5.41 7 7 0 0 0-1.48-2.23zm-1.45 4.91a3.43 3.43 0 0 1-.3 1.34 3.45 3.45 0 0 1-5.62 1.11 3.63 3.63 0 0 1-.75-1.11 3.36 3.36 0 0 1 0-2.67 3.65 3.65 0 0 1 .75-1.11 3.46 3.46 0 0 1 1.1-.74 3.47 3.47 0 0 1 2.67 0A3.42 3.42 0 0 1 44 84a3.43 3.43 0 0 1 .3 1.36zm18.21-4.88a7 7 0 0 0-2.2-1.48 7.07 7.07 0 0 0-5-.16 7.21 7.21 0 0 0-1.2.55v-9.56h-3.43v15.55a6.83 6.83 0 0 0 .54 2.7 6.92 6.92 0 0 0 3.68 3.68 7 7 0 0 0 5.41 0A6.92 6.92 0 0 0 64 88.09a7 7 0 0 0 0-5.41 7 7 0 0 0-1.49-2.2zm-1.45 4.91a3.43 3.43 0 0 1-.27 1.34 3.45 3.45 0 0 1-5.62 1.11 3.64 3.64 0 0 1-.75-1.11 3.33 3.33 0 0 1-.28-1.36 3.22 3.22 0 0 1 .28-1.37 3.68 3.68 0 0 1 .75-1.1 3.46 3.46 0 0 1 1.1-.74 3.46 3.46 0 0 1 2.67 0 3.45 3.45 0 0 1 2.11 3.19zm18.21-4.91a7 7 0 0 0-2.2-1.48 7.07 7.07 0 0 0-5-.16 7.23 7.23 0 0 0-1.19.55v-9.56h-3.44v15.55a6.83 6.83 0 0 0 .54 2.7 6.91 6.91 0 0 0 3.68 3.68 7 7 0 0 0 5.41 0 6.92 6.92 0 0 0 3.68-3.68 7 7 0 0 0 0-5.41 7 7 0 0 0-1.48-2.19zm-1.45 4.91a3.43 3.43 0 0 1-.27 1.34 3.45 3.45 0 0 1-5.62 1.11 3.64 3.64 0 0 1-.75-1.11 3.31 3.31 0 0 1-.28-1.36 3.22 3.22 0 0 1 .29-1.37 3.69 3.69 0 0 1 .75-1.1 3.46 3.46 0 0 1 1.1-.74 3.46 3.46 0 0 1 2.67 0A3.42 3.42 0 0 1 77.56 84a3.43 3.43 0 0 1 .26 1.38zm11.75 1l-3.47-7.91h-3.9l5.33 12.14-3.63 7.21h3.97l1.99-3.81 7.49-15.54h-3.97l-3.81 7.91zm18.71-7a7.21 7.21 0 0 0-1.18-.55 6.92 6.92 0 0 0-7.18 1.64 7 7 0 0 0-1.48 2.2 7.05 7.05 0 0 0 0 5.41 6.92 6.92 0 0 0 3.68 3.68 7 7 0 0 0 5.41 0 6.91 6.91 0 0 0 3.68-3.68 6.89 6.89 0 0 0 .54-2.73V69.83h-3.47zm-1 3.55A3.51 3.51 0 0 1 108 84a3.35 3.35 0 0 1 .27 1.33 3.44 3.44 0 0 1-2.11 3.19 3.5 3.5 0 0 1-2.67 0 3.44 3.44 0 0 1-1.1-.74 3.64 3.64 0 0 1-.75-1.11 3.36 3.36 0 0 1 0-2.67 3.63 3.63 0 0 1 .75-1.11 3.47 3.47 0 0 1 1.1-.74 3.46 3.46 0 0 1 2.67 0 3.48 3.48 0 0 1 1.12.78zm19.21-2.49a7 7 0 0 0-2.2-1.48 7.08 7.08 0 0 0-5.41 0 6.91 6.91 0 0 0-3.68 3.68 7 7 0 0 0 0 5.41 6.91 6.91 0 0 0 3.68 3.68 7 7 0 0 0 5.41 0 6.91 6.91 0 0 0 3.71-3.68 7 7 0 0 0 0-5.41 7 7 0 0 0-1.51-2.2zM125 85.36a3.43 3.43 0 0 1-.27 1.34 3.44 3.44 0 0 1-4.51 1.85 3.4 3.4 0 0 1-1.1-.74 3.64 3.64 0 0 1-.75-1.11 3.37 3.37 0 0 1 0-2.67 3.65 3.65 0 0 1 .75-1.11 3.46 3.46 0 0 1 1.1-.74 3.47 3.47 0 0 1 2.67 0 3.45 3.45 0 0 1 2.11 3.18zm26.64-3.81a6.09 6.09 0 0 0-2-2.16 6 6 0 0 0-1.58-.74 6.18 6.18 0 0 0-3.58 0 6.46 6.46 0 0 0-1.61.75 6.12 6.12 0 0 0-1 .84 5.76 5.76 0 0 0-1-.84 6 6 0 0 0-1.58-.74 6.19 6.19 0 0 0-3.58 0 6.45 6.45 0 0 0-.86.33v-.6h-3.47v13.92h3.47v-7.83a2.51 2.51 0 0 1 .2-1 2.73 2.73 0 0 1 .57-.84 2.67 2.67 0 0 1 .85-.57 2.61 2.61 0 0 1 2 0 2.71 2.71 0 0 1 1.53 1.4 2.51 2.51 0 0 1 .2 1v7.83h3.47v-7.82a2.51 2.51 0 0 1 .2-1 2.73 2.73 0 0 1 .57-.84 2.69 2.69 0 0 1 .85-.57 2.6 2.6 0 0 1 2 0 2.72 2.72 0 0 1 1.41 1.41 2.52 2.52 0 0 1 .2 1v7.83h3.47v-7.83a6 6 0 0 0-.73-2.93z" fill="#232222"/><path d="M57.79 40.46c4.09 0 4.1-6.36 0-6.36s-4.1 6.36 0 6.36zm40.48 0c4.09 0 4.1-6.36 0-6.36s-4.1 6.36 0 6.36z" fill="#36baa2"/><path d="M95.24 23.13a26.46 26.46 0 0 1 3-16.28c2-3.59-3.52-6.8-5.49-3.21a32.26 32.26 0 0 0-3.91 19.49c.48 4 6.84 4.06 6.36 0zm10.32-.3a16.92 16.92 0 0 1 5.29-9.44c3-2.77-1.48-7.26-4.5-4.5a22.61 22.61 0 0 0-6.92 12.24c-.8 4 5.33 5.71 6.13 1.69zm7.67 5.92a9.9 9.9 0 0 1 8.35-7.22c4-.39 4.08-6.75 0-6.36a16.44 16.44 0 0 0-14.48 11.89c-1.11 3.95 5 5.63 6.13 1.69z" fill="#fb7598"/><path d="M59.41 109.3L58.9 123c0 .3-.1 2.44-.17 4.13l-.53-.38a7.61 7.61 0 0 0-2.52-.95c-4-.8-5.71 5.33-1.69 6.13 2.56.51 3.92 2.87 6.89 2.42a4.83 4.83 0 0 0 4.1-4.47c.92-6.71.54-13.85.79-20.62.15-4.06-6.21-4.05-6.36.04zm41.71 19.33c-.91-.11-2.1-.27-3.27-.38l-.61-.07c.26-2-.25-4.69-.31-6.58l-.49-14.08c-.14-4.08-6.5-4.1-6.36 0 .24 6.83.37 13.66.71 20.49.12 2.31.26 4.68 2.63 5.81 2.22 1.05 5.29.9 7.7 1.18 4.05.46 4.02-5.9 0-6.37zm20.49-61.99l23.77-16.57c3.33-2.32.16-7.84-3.21-5.49l-23.76 16.57c-3.33 2.32-.16 7.84 3.21 5.49zM39.34 55.35a298.31 298.31 0 0 0-34-30c-3.26-2.47-6.43 3-3.21 5.49a287.89 287.89 0 0 1 32.7 29c2.85 2.94 7.35-1.55 4.5-4.5z" fill="#ffc10e"/></g></svg>