<svg data-name="Layer 1" xmlns="http://www.w3.org/2000/svg" viewBox="0 0 200 200"><path d="M190.27 37.33c-.11-3.18-2.2-6.21-6.32-6.08-57.13 1.88-114.39-4.32-171.16 4.61-4.79.76-5.63 5.29-3.89 8.74l.05.19a6.26 6.26 0 0 0-.43 2.87c2.82 39.42 7.08 78.72 10.93 118a7.25 7.25 0 0 0 .24 1.19c-.07 3.33 2 6.63 6.32 6.46 53.2-2.07 106.53-.24 159.58-5.47a7.43 7.43 0 0 0 1.28-.25 6.4 6.4 0 0 0 6.37-6.3c1.41-40.85-1-81.62-2.73-122.42a7.4 7.4 0 0 0-.24-1.54zm-10 78.24a348.48 348.48 0 0 0-29.47-36.21 289.94 289.94 0 0 0 27.42-20.93c.88 19.05 1.7 38.09 2.07 57.14zm-6.25-71c-20.79 18.86-44.16 33.86-69.31 46.29-25.3-12.6-48.25-29-71.82-44.49C79.73 41.38 127 45.38 174 44.58zM22.23 55c12.6 8.17 25 16.7 37.57 24.86-10.54 17.51-22.06 34.44-30.51 52.89C26.71 106.87 24.2 81 22.23 55zm158 100.17c-49.06 4.41-98.34 3.19-147.53 4.82a6.74 6.74 0 0 0 1.3-2.38c7.32-26 23.06-47.87 36.91-70.69 9.38 5.79 18.94 11.27 28.88 16.13.12.05.23.08.34.13a6.58 6.58 0 0 0 7.37 1 351.47 351.47 0 0 0 32.18-17.57C154.79 103 168.89 120 179.93 139.5a6.81 6.81 0 0 0 .55.78c-.03 4.98-.08 9.96-.21 14.93z" fill="#fff"/></svg>