<svg id="Layer_1" data-name="Layer 1" xmlns="http://www.w3.org/2000/svg" viewBox="0 0 200 200"><defs><style>.cls-1{fill:#a1a1a1;}</style></defs><title>new_grey</title><path class="cls-1" d="M40.18,77.73a3.43,3.43,0,0,1,2.39,1.33,3.33,3.33,0,0,1,.69,2.65l-.33,2.36q.59,2.21,1.63,5.63T46.88,97q1.26,3.86,2.64,7.74t2.67,7a47.62,47.62,0,0,0,2.41,5.07q1.1,2,1.82,2,.56,0,1.15-1.66a31.74,31.74,0,0,0,1.09-4.35q.51-2.69,1-6.14t.89-7.07q.4-3.61.74-7.07t.57-6.2q.24-2.74.53-6.07a3.45,3.45,0,0,1,1.18-2.5,3.31,3.31,0,0,1,2.6-.9,3.68,3.68,0,0,1,3.39,3.83q-.3,4.15-.62,7.5t-.8,7.63q-.48,4.27-1.19,8.75t-1.63,8.75a67.79,67.79,0,0,1-2.05,7.61,21.24,21.24,0,0,1-2.57,5.38,3.89,3.89,0,0,1-3.12,2q-2,0-4.23-2.33A32.89,32.89,0,0,1,49,119.88a81.5,81.5,0,0,1-4.29-8.71q-2.1-4.92-3.94-10.17L37.7,125a3.49,3.49,0,0,1-1.38,2.37,3.59,3.59,0,0,1-5-.66,3.35,3.35,0,0,1-.69-2.65L35.65,84.5a4.1,4.1,0,0,1-.17-.57l-.17-.72a3.43,3.43,0,0,1,.1-2,3.37,3.37,0,0,1,1.12-1.58A3.54,3.54,0,0,1,38,78.09,3.43,3.43,0,0,1,40.18,77.73Z"/><path class="cls-1" d="M79.32,85.82a3.24,3.24,0,0,1-2.55-.95,3.71,3.71,0,0,1-1.15-2.52,3.24,3.24,0,0,1,.95-2.55,3.71,3.71,0,0,1,2.52-1.15l3.23-.12.21-.71a3.42,3.42,0,0,1,1.63-2.21,3.56,3.56,0,0,1,2.75-.36,3.52,3.52,0,0,1,1.76,1.15,3.66,3.66,0,0,1,.83,1.85L110,77.37a3.4,3.4,0,0,1,2.6.95,3.44,3.44,0,0,1,1.15,2.52,3.23,3.23,0,0,1-.95,2.55,3.74,3.74,0,0,1-2.52,1.16l-22.41.95q-.59,2.4-1.33,5.37T85,97.11l15.8-.76a3.44,3.44,0,0,1,2.61.92,3.37,3.37,0,0,1,1.15,2.5,3.4,3.4,0,0,1-.22,1.43,3.71,3.71,0,0,1-.73,1.17,3.44,3.44,0,0,1-1.11.81,3.71,3.71,0,0,1-1.36.34l-17.8.84q-.91,4.35-1.54,8.11a40.29,40.29,0,0,0-.65,5.92,6.28,6.28,0,0,0,.14,1.59c.2.48.76.84,1.68,1.09a17.57,17.57,0,0,0,3.53.5,32.28,32.28,0,0,0,4-.11q2.13-.19,4.34-.6t4.42-1a42.65,42.65,0,0,0,4.22-1.42,3.47,3.47,0,0,1,2.74,0,3.58,3.58,0,0,1-.1,6.61,47.66,47.66,0,0,1-4.91,1.69q-2.6.74-5.22,1.23a51.07,51.07,0,0,1-5.16.69,34.19,34.19,0,0,1-4.69.08A19.09,19.09,0,0,1,78.89,127a8.17,8.17,0,0,1-4.21-4.38l-.1-.31a2.08,2.08,0,0,0-.1-.26V122a5.63,5.63,0,0,1-.19-1.21q0-.69,0-1.56a51.84,51.84,0,0,1,.58-6.51q.56-3.89,1.42-8.29a3.7,3.7,0,0,1-1.68-1.2,3.59,3.59,0,0,1-.75-2,3.32,3.32,0,0,1,1-2.58,3.67,3.67,0,0,1,2.52-1.18h.41q.7-3.22,1.4-6.16t1.34-5.49Z"/><path class="cls-1" d="M118.26,82a3.59,3.59,0,1,1,7.18.07q0,2.61-.06,6.36t0,7.82q0,4.08.07,8.1t.21,7.23c.1,2.14.22,3.87.38,5.2s.35,2,.59,2.06q.67,0,1.89-1.73a43.44,43.44,0,0,0,2.71-4.51q1.49-2.77,3.11-6.2t3-6.79q.37-.86.71-1.71t.61-1.61c0-.27,0-.54,0-.8s0-.52,0-.8,0-.71,0-1,0-.57.08-.85a6.77,6.77,0,0,1,1.29-3.7,4,4,0,0,1,6.87,2,4.8,4.8,0,0,1,.06,1.2,12.72,12.72,0,0,1-.17,1.56,15.64,15.64,0,0,1-.38,1.69q-.24.87-.5,1.63.09,1.39.23,3t.38,3.16q.38,2.52.9,5.29t1.07,5c.38,1.51.73,2.76,1.07,3.75s.6,1.5.8,1.5.62-.36.93-1.09.72-1.62,1.21-2.68q1.36-2.76,2.75-6.2t2.74-7.1q1.34-3.65,2.51-7.28t2.07-6.72q.91-3.09,1.47-5.5a23,23,0,0,0,.63-3.58,3.45,3.45,0,0,1,1.25-2.45,3.63,3.63,0,0,1,5.07.39,3.41,3.41,0,0,1,.85,2.6A39.1,39.1,0,0,1,171,84.1q-.73,3.22-1.89,7.36t-2.73,8.84q-1.56,4.7-3.35,9.19t-3.7,8.4a39.77,39.77,0,0,1-3.84,6.44,10.07,10.07,0,0,1-2.57,2.59,5,5,0,0,1-2.85.89,4.32,4.32,0,0,1-3.06-1.55,15.77,15.77,0,0,1-2.7-4,38.3,38.3,0,0,1-2.22-5.74q-1-3.24-1.68-6.63-1.83,3.47-3.89,6.8a64.45,64.45,0,0,1-4.08,5.93,27.93,27.93,0,0,1-3.89,4.16,4.85,4.85,0,0,1-3.35,1.45,4,4,0,0,1-2.88-1.59,12.58,12.58,0,0,1-2-3.94A34,34,0,0,1,119,117q-.48-3.23-.7-6.9t-.28-7.54Q118,98.67,118,95t.12-7Q118.23,84.58,118.26,82Z"/><path class="cls-1" d="M97.73,195h-.36c-22.27-.06-53.93-11.5-74.46-36.91C7,138.39,1.48,114.5,6.89,89,21.81,18.51,89,19.44,89.61,19.42a4.3,4.3,0,0,1,4.19,4.4A4.39,4.39,0,0,1,89.4,28c-2.57,0-60.7-.54-74.1,62.73-6.14,29,4.38,49.65,14.29,61.91,18.66,23.09,48.23,33.67,67.8,33.72h.34c27.33,0,50.26-9.29,66.31-26.89,15.9-17.43,24.38-43,22.13-66.83-2.29-24.13-12.9-44.93-29.88-58.56-20.15-16.17-49-22.46-83.6-18.16a4.29,4.29,0,1,1-1.06-8.52c36.9-4.59,68,2.32,90,20,18.81,15.09,30.55,38,33.06,64.45s-6.58,54-24.33,73.42S127.54,195,97.73,195Z"/></svg>