<svg id="Layer_1" data-name="Layer 1" xmlns="http://www.w3.org/2000/svg" viewBox="0 0 200 200"><defs><style>.cls-1{fill:#36baa2}</style></defs><path class="cls-1" d="M154.73 28.16a2.94 2.94 0 0 0-.07-.37 5 5 0 0 0-4.22-5.08c-33-6.75-71-6.45-104.22.81A5.1 5.1 0 0 0 42 29.06c-6.27 41.37-5.94 87.37 1.05 144.74a6.6 6.6 0 0 0 1.1 5.07 5.79 5.79 0 0 0 4.25 2.4h.34c17.85 1.77 36 3.57 54.17 3.57 15.94 0 31.88-1.39 47.55-5.42a5.24 5.24 0 0 0 4.13-4.87c10.07-50.21 4.8-101.31.14-146.39zM54.22 170.29c-6.56-55.31-7-97.45-1.29-136.41a248 248 0 0 1 90.76-.76c4.89 46.39 8.53 91.71.21 136-30.26 6.98-61.77 3.94-89.68 1.17z"/><path class="cls-1" d="M135.64 51.83v-.24a4.78 4.78 0 0 0-4.13-4.5 170 170 0 0 0-31.15-2.79 173.28 173.28 0 0 0-33.87 3.25 4.83 4.83 0 0 0-4.1 4.91c-5.56 33.54-1.45 72.8.61 88.26a5.43 5.43 0 0 0 5 6.16h.2c11 1 22.39 2 33.64 2a129.2 129.2 0 0 0 29.74-3.11 4.94 4.94 0 0 0 4-4.32c5.9-27.16 3.34-60.54.06-89.62zm-10.1 84.68a122.84 122.84 0 0 1-23.91 2.12c-9.33 0-18.68-.75-28.23-1.61-1.82-14.61-5.31-50.1-.82-80.07a165.08 165.08 0 0 1 27.78-2.33 158.75 158.75 0 0 1 24.93 1.91c2.52 22.22 5.2 54.35.25 79.97zm-26.19 22.04a6.41 6.41 0 1 0 6.23 6.4 6.12 6.12 0 0 0-6.23-6.4z"/></svg>