<svg id="Layer_1" data-name="Layer 1" xmlns="http://www.w3.org/2000/svg" viewBox="0 0 200 200"><defs><style>.cls-1{fill:#fff}</style></defs><path class="cls-1" d="M155 19.06a3.26 3.26 0 0 0-.08-.41 5.52 5.52 0 0 0-4.71-5.65c-36.53-7.47-78.6-7.15-115.42.89a5.65 5.65 0 0 0-4.65 6.18c-6.94 45.82-6.57 96.76 1.16 160.29a7.31 7.31 0 0 0 1.22 5.64 6.41 6.41 0 0 0 4.71 2.66h.38c19.77 2 39.88 4 60 4 17.66 0 35.3-1.54 52.66-6a5.8 5.8 0 0 0 4.58-5.4C166 125.57 160.12 69 155 19.06zM43.66 176.46c-7.27-61.25-7.71-107.92-1.43-151.07 32.15-6.45 68.69-6.76 100.52-.84 5.41 51.37 9.45 101.56.23 150.64-33.53 7.71-68.43 4.34-99.32 1.27z"/><path class="cls-1" d="M133.82 45.27v-.26a5.3 5.3 0 0 0-4.57-5 188.24 188.24 0 0 0-34.5-3.09 191.9 191.9 0 0 0-37.51 3.6A5.35 5.35 0 0 0 52.65 46c-6.11 37.15-1.56 80.63.7 97.75a6 6 0 0 0 5.56 6.82h.22c12.19 1.11 24.79 2.25 37.25 2.25a143.08 143.08 0 0 0 32.94-3.45 5.47 5.47 0 0 0 4.41-4.78c6.55-30.14 3.72-67.11.09-99.32zM122.63 139a136 136 0 0 1-26.48 2.34c-10.33 0-20.69-.84-31.26-1.78-2-16.18-5.88-55.48-.91-88.67a182.82 182.82 0 0 1 30.77-2.58 175.8 175.8 0 0 1 27.61 2.11c2.79 24.66 5.76 60.25.27 88.58zm-29 24.46c-4.53 0-6.9 3.57-6.9 7.09s2.37 7.09 6.9 7.09 6.9-3.57 6.9-7.09-2.37-7.09-6.9-7.09z"/></svg>