<svg id="Layer_1" data-name="Layer 1" xmlns="http://www.w3.org/2000/svg" viewBox="0 0 200 200"><defs><style>.cls-1{fill:#fbc100;stroke:#858585;stroke-miterlimit:10;stroke-width:6.66px;}</style></defs><title>pin_map</title><path class="cls-1" d="M87.38,179.61c4.15,5.39,7.52,8.65,12.38,8.65,2.43,0,7.09-2.62,11.08-8.19,24.62-26.22,42.21-63.9,46.41-100,1.58-13.51.89-32.92-11.31-48.53C136.4,19.27,120.2,13.07,97.81,13.07c-2.58,0-5.27.09-7.86.25H86.79a6,6,0,0,0-2.51.55c-19.85.4-36.81,11.23-44.35,28.34a55.6,55.6,0,0,0-4.36,22.64c0,9.66,2,18.86,3.82,26.11C47,120.6,64.31,152.44,87.38,179.61ZM94.57,46.3h.79a1.31,1.31,0,0,0,.2,0h1.11c7.28,0,17.77,2.28,23.38,8.71a14.73,14.73,0,0,1,3.44,12.19C122,78.11,109,84.86,97.71,84.86,84.59,84.8,76.78,73.76,76.8,63.12,76.82,55,81.5,46.3,94.57,46.3Z"/></svg>