<svg data-name="Layer 1" xmlns="http://www.w3.org/2000/svg" viewBox="0 0 582.13 184.13"><path fill="none" stroke="#fb7598" stroke-miterlimit="10" stroke-width="5.98" d="M0 94.15h578.79"/><circle cx="289.4" cy="91.99" r="92.15" fill="#fb7598"/><path d="M287.82 99.38a10.91 10.91 0 0 1-3 7.88 10.45 10.45 0 0 1-7.88 3.16 12.32 12.32 0 0 1-9.76-4.43 15.69 15.69 0 0 1-3.82-10.61A20.64 20.64 0 0 1 270 80a22.38 22.38 0 0 1 16.12-6.42l.25 1.82a16.14 16.14 0 0 0-10.67 4.09q-4.85 4.08-4.85 9.36a4.17 4.17 0 0 0 .31 1.83 1 1 0 0 0 .91.6 7.19 7.19 0 0 0 2.6-.79 7.62 7.62 0 0 1 3-.79 10.44 10.44 0 0 1 7.09 2.73 8.87 8.87 0 0 1 3.06 6.95zm27.64 0a11 11 0 0 1-3 7.88 10.45 10.45 0 0 1-7.88 3.16 12.32 12.32 0 0 1-9.76-4.43A15.69 15.69 0 0 1 291 95.38 20.64 20.64 0 0 1 297.64 80a22.38 22.38 0 0 1 16.12-6.42l.25 1.82a16.16 16.16 0 0 0-10.67 4.09q-4.85 4.08-4.84 9.36a4.34 4.34 0 0 0 .3 1.83 1 1 0 0 0 .92.6 7.19 7.19 0 0 0 2.6-.79 7.58 7.58 0 0 1 3-.79 10.44 10.44 0 0 1 7.09 2.73 8.87 8.87 0 0 1 3.05 6.95z" fill="#fff"/></svg>