<svg id="Layer_1" data-name="Layer 1" xmlns="http://www.w3.org/2000/svg" viewBox="0 0 200 200"><defs><style>.cls-1{fill:#ffc10e}</style></defs><path class="cls-1" d="M80.73 47.13a5.5 5.5 0 0 0-7.8-.2 5.43 5.43 0 0 0-.2 7.7l44.68 45.88-44.68 44.68a5.54 5.54 0 0 0 0 7.7 5.67 5.67 0 0 0 4.1 1.7 5.4 5.4 0 0 0 3.9-1.7l48.48-48.28a5.68 5.68 0 0 0 0-7.8z"/><path class="cls-1" d="M100 7.4a92.6 92.6 0 0 1 65.48 158.07 92.6 92.6 0 0 1-131-131A92 92 0 0 1 100 7.4zm0 176.5A83.9 83.9 0 1 0 16.1 100a84 84 0 0 0 83.9 83.9z"/></svg>