<?xml version="1.0" standalone="no"?>
<!DOCTYPE svg PUBLIC "-//W3C//DTD SVG 20010904//EN"
 "http://www.w3.org/TR/2001/REC-SVG-20010904/DTD/svg10.dtd">
<svg version="1.0" xmlns="http://www.w3.org/2000/svg"
 width="512.000000pt" height="512.000000pt" viewBox="0 0 512.000000 512.000000"
 preserveAspectRatio="xMidYMid meet">
<metadata>
Created by potrace 1.11, written by Peter Selinger 2001-2013
</metadata>
<g transform="translate(0.000000,512.000000) scale(0.100000,-0.100000)"
fill="#000000" stroke="none">
<path d="M1570 3456 l0 -714 -92 48 c-145 76 -244 102 -418 107 -119 4 -162 1
-240 -15 -351 -72 -639 -342 -740 -693 -31 -106 -39 -331 -16 -454 43 -226
182 -450 369 -591 80 -60 240 -138 342 -166 116 -31 384 -31 498 0 165 45 323
137 443 256 118 119 209 275 257 443 l22 78 3 1208 3 1207 -216 0 -215 0 0
-714z m-390 -1006 c136 -40 261 -141 327 -265 192 -362 -70 -804 -477 -805
-250 0 -465 163 -536 405 -62 214 37 472 229 596 144 93 295 116 457 69z"/>
<path d="M3410 2904 c-8 -1 -41 -6 -72 -9 l-57 -6 6 -87 c5 -80 3 -90 -19
-122 -67 -99 -245 -93 -317 11 -14 21 -30 38 -35 39 -4 0 -56 -48 -115 -107
-143 -146 -221 -282 -268 -469 -24 -96 -24 -352 0 -448 56 -225 202 -443 383
-572 357 -255 850 -238 1194 39 165 133 293 346 335 557 23 113 17 352 -12
455 -19 69 -71 195 -80 195 -3 0 -18 -11 -35 -25 -66 -56 -176 -53 -245 8 -73
64 -80 128 -31 264 l31 87 -25 19 c-13 10 -48 31 -76 48 l-51 29 -19 -43 c-29
-64 -73 -92 -147 -92 -72 0 -125 25 -169 78 -24 30 -31 49 -34 97 l-4 60 -62
-1 c-33 -1 -68 -3 -76 -5z m193 -439 c249 -52 431 -278 431 -535 0 -256 -174
-476 -425 -535 -333 -78 -669 190 -669 535 0 250 187 482 433 535 82 18 147
18 230 0z"/>
</g>
</svg>
