<svg id="Layer_1" data-name="Layer 1" xmlns="http://www.w3.org/2000/svg" viewBox="0 0 200 200"><defs><style>.cls-1{fill:#36baa2}</style></defs><path class="cls-1" d="M65.75 112.2a4.65 4.65 0 0 0-4.65 4.65v3.81a4.65 4.65 0 1 0 9.3 0v-3.81a4.65 4.65 0 0 0-4.65-4.65zm66.56.74a4.65 4.65 0 0 0-4.65 4.65v4.31a4.65 4.65 0 0 0 9.3 0v-4.31a4.65 4.65 0 0 0-4.65-4.65zm-27.64 18.26c-3.65 4.08-8 1.39-9.31.47a4.65 4.65 0 0 0-5.61 7.42 18.35 18.35 0 0 0 10.6 3.61 14.71 14.71 0 0 0 11.24-5.3 4.65 4.65 0 1 0-6.93-6.21z"/><path class="cls-1" d="M180.44 111.32c-1.11-4.49-4.84-7.51-10.53-8.66 0-.1.06-.19.08-.29.25-1.49 6-36.66-9.12-54-5.73-6.59-13.55-9.8-23.26-9.52a4.62 4.62 0 0 0-2.65.93c-2.18-1.47-24.7-15.67-67.67-5.34-30.95 7.44-42.91 41.3-45.09 60.14-.83 7.18-.33 11.47.58 14.08-2.65 4.44-5.15 11-2.16 17.28 4.6 9.65 17 12.61 18.4 12.92a4.64 4.64 0 0 0 .66.09c5.82 12.71 15.91 25.81 33.41 33.26a70.64 70.64 0 0 0 27.84 5.92c27.59 0 48.94-17.58 57.65-32.31a46 46 0 0 0 4.42-10.35c3.8-.42 7.64-2.65 11.06-6.51 4.19-4.7 7.77-11.96 6.38-17.64zm-26.59-56.88c9.16 10.51 8.54 31.1 7.63 40.92-13.68-5-18.78-10.47-20.6-14.31a10.57 10.57 0 0 1 0-9 9.89 9.89 0 0 0 .35-1 18 18 0 0 0 2.31-4c2.1-8 .68-14.31-1.55-18.79a18 18 0 0 1 11.86 6.18zm-115 16.18c5-10.23 14.34-23.25 30.64-27.16A116.85 116.85 0 0 1 96.78 40c21.79 0 32.83 7.34 32.92 7.41.31.23 7.53 5.74 5 16.73-2.53 3.78-26.79 38.22-55.6 31.6-2.94-.68-5.69-1.23-8.28-1.67a62.77 62.77 0 0 0 13.89-14.9 4.65 4.65 0 0 0-7.87-5c-.11.17-10.14 15.83-24.36 18.47-10.53.56-16.5 4-21.37 8.11a76.74 76.74 0 0 1 7.72-30.13zM29 121.92c-1.27-2.67.32-6.32 2.06-9a7 7 0 0 0 1.22-.7 94.81 94.81 0 0 0 3.2 15.52c-2.58-1.35-5.24-3.26-6.48-5.82zm121.56 19.14c-9.87 16.68-38.64 37.56-73.84 22.57-33.33-14.19-35.53-52.75-35.67-58.45a24.48 24.48 0 0 1 8.28-2.82 31.22 31.22 0 0 0 4.27-.43c5.71-.25 13.17.54 23.38 2.89 15.35 3.53 31.66-1.64 47.15-15a102 102 0 0 0 7.42-7.1 20.68 20.68 0 0 0 .91 2.28c3.33 7 10.9 13 22.52 17.76.47 2.24 4.44 23.35-4.4 38.3zm16.54-18.27a15.72 15.72 0 0 1-2 1.88 79.56 79.56 0 0 0 .28-13.2c3.62.15 5.75 1.12 6 2.08.32 1.2-.89 5.45-4.26 9.24z"/></svg>