<svg id="Layer_1" data-name="Layer 1" xmlns="http://www.w3.org/2000/svg" viewBox="0 0 200 200"><defs><style>.cls-1{fill:#787878}</style></defs><path class="cls-1" d="M86 27.08A42.9 42.9 0 1 0 128.87 70 42.95 42.95 0 0 0 86 27.08zm0 73.45A30.55 30.55 0 1 1 116.54 70 30.59 30.59 0 0 1 86 100.53zm0 0"/><path class="cls-1" d="M133.82 115.17a65.65 65.65 0 0 0 18-45.24c0-10.91-4.54-23-6.49-27.73-9.6-23.15-31.59-37-58.81-37a86.16 86.16 0 0 0-29.82 5.47c-26 9.68-37 38.41-36.31 62.57.9 33.91 30.91 62.55 65.52 62.55a65.49 65.49 0 0 0 23.42-4.32c6.37 13.54 13.14 26.91 20.12 40.13 3.42 6.49 6.07 14.26 10.31 20.25 6.9 9.71 29-4.35 35.18-9.47a.39.39 0 0 0 .08-.08c2.74-.9 4.75-3.81 2.64-6.83-14.21-20.43-30.26-39.52-43.89-60.34zm-101-42.22c-.53-19.77 8-43.12 28.28-50.68a73.8 73.8 0 0 1 25.51-4.69c22.39 0 39.66 10.7 47.41 29.36 3.48 8.38 5.55 17 5.55 23A53.62 53.62 0 0 1 86 123.49c-28.1 0-52.46-23.14-53.19-50.54zm85.45 54.42a68.26 68.26 0 0 0 8.27-5.51c5.7 8.58 11.77 16.89 18 25.13a141.27 141.27 0 0 0-12.26 8.52c-4.76-9.32-9.47-18.67-14-28.13zm29 57.58c-3.41-6.86-6.9-13.68-10.41-20.5a128.08 128.08 0 0 1 13.67-9.51c5.44 7.19 10.88 14.38 16.11 21.72a43.8 43.8 0 0 1-19.37 8.29zm0 0"/></svg>