<svg data-name="Layer 1" xmlns="http://www.w3.org/2000/svg" viewBox="0 0 200 200"><path d="M150.61 95.92c-6.12-35.11-41.5-51.7-74-42.83a5.09 5.09 0 0 0-3.94 4.77 55.05 55.05 0 0 0-27.52 57.34c4.89 29.58 36.88 44 63.77 37.55 24.65-5.95 46.26-30.56 41.69-56.83zm-42.43 45.39c-21.75 7.26-45.22-4.47-51.67-26.62-6.73-23.1 11.17-46.36 33.16-51.37a5.29 5.29 0 0 0 2.58-1.37C114 61 133.89 73.21 139.4 96.52c4.91 20.76-13.16 38.76-31.22 44.79zm-7.13-110.25V14.27c0-7.23-11.19-7.23-11.19 0v16.79c0 7.22 11.19 7.22 11.19 0zm49.29 19.63c3.59-4.2 7.16-8.41 10.39-12.89 1.79-2.48.44-6.23-2-7.66-2.83-1.65-5.88-.47-7.66 2-2.67 3.69-5.67 7.15-8.64 10.62-2 2.31-2.28 5.63 0 7.91 2 2 5.93 2.32 7.91 0zm29.07 48.09H166c-7.22 0-7.22 11.19 0 11.19h13.44c7.22 0 7.22-11.19 0-11.19zM155.94 153c-5.08-5.15-13 2.78-7.91 7.91a163.6 163.6 0 0 1 12.3 14.56c1.88 2.41 6 2 7.92 0 2.35-2.36 1.87-5.51 0-7.91A162.33 162.33 0 0 0 155.94 153zm-65.52 17.41a159.21 159.21 0 0 1-.56 16.23c-.31 3 2.79 5.59 5.6 5.59 3.28 0 5.28-2.57 5.59-5.59a159.93 159.93 0 0 0 .56-16.23c0-7.22-11.19-7.22-11.19 0zm-42.57-14.03c-3.27 3.81-6.54 7.63-10.08 11.19-5.08 5.14 2.84 13 7.91 7.92 3.54-3.57 6.81-7.39 10.08-11.2 2-2.31 2.27-5.63 0-7.91-2-2-5.93-2.31-7.91 0zM29.42 99.89H11.51c-7.23 0-7.23 11.2 0 11.2h17.9c7.22 0 7.22-11.2 0-11.2zm11.73-37.13c6.41 3.26 12.08-6.39 5.65-9.67a68.76 68.76 0 0 1-14-9.2c-5.45-4.68-13.4 3.2-7.92 7.91a81.6 81.6 0 0 0 16.25 11zm0 0" fill="#ffc10e"/></svg>