<svg id="Layer_1" data-name="Layer 1" xmlns="http://www.w3.org/2000/svg" viewBox="0 0 200 200"><defs><style>.cls-1{fill:#36baa2;}</style></defs><title>women_blue</title><path class="cls-1" d="M159.65,53.39a50.79,50.79,0,0,0-19-11.37c2.72-10.35,5.19-20.11-.79-27.73-5.75-7.33-18-10.44-39.57-10.07C81.14,4.54,69.18,9,63.76,17.87c-4.11,6.72-4,15.29.42,25.48a54.05,54.05,0,0,0-9.71,4.33C37.91,57.16,28.38,74.55,26.15,99.37a4.55,4.55,0,0,0,0,.59c-10.4,17.89-2.62,44.07-2.28,45.17a4.65,4.65,0,0,0,4.45,3.3h.33a4.65,4.65,0,0,0,4.27-3.93,29.83,29.83,0,0,1,3.23-8.44c2,4.64,6.18,10.34,14.79,14.3a63.82,63.82,0,0,0,6.41,11.32c12.3,17.24,33.69,31.15,48.71,31.68l1,0c15.55,0,34.38-13,46.16-31.94a84.82,84.82,0,0,0,9-20.43l0-.08c4.2-10.89,6.23-20,6.78-27.75a4.64,4.64,0,0,0,3.07-3.57C176.51,84.66,172.35,65.75,159.65,53.39Zm4.76,35.47a32.1,32.1,0,0,0-15.63-14,4.79,4.79,0,0,0-7.2,2.88c-.15.66-.7,4,3.27,5.57,5.05,2,13.78,7.54,14.9,22.31-19.17.5-30.14-16.07-31.28-17.91h0c.61-1,1.16-2,1.66-2.94,7-13.61,7-29.25,5.77-34.49a42.46,42.46,0,0,1,17.28,9.81C160.21,66.92,164,76.57,164.42,88.85Zm-35.79,1.29a4.64,4.64,0,0,1-.18.64A4.68,4.68,0,0,0,128.62,90.14Zm-.2.67a4.55,4.55,0,0,1-.26.58A4.65,4.65,0,0,0,128.43,90.81Zm-.32.67a4.49,4.49,0,0,1-.31.48A4.58,4.58,0,0,0,128.11,91.49ZM71.7,22.72c3.52-5.76,13.48-8.95,28.78-9.2,17.67-.31,28.47,1.89,32.09,6.51,3.14,4,1.33,11.19-.87,19.54-19.89-4.12-39.51-.2-40.73,0a4.62,4.62,0,0,0-1.61.67,71.61,71.61,0,0,0-16,.79C70.7,35.39,68.51,27.94,71.7,22.72ZM30.23,127.85c-.57-7.47,0-16.42,4-23.33,3.23-5.48,8.24-8.88,15.32-10.4,17.57-3.76,28.3-9.31,31.89-16.48a10.44,10.44,0,0,0,.58-8.92,4.65,4.65,0,0,0-8.58,3.57c.21,1.56-3.47,8-25.84,12.74a35.87,35.87,0,0,0-10.54,4c3.38-15.65,10.75-26.81,22-33.24,18.23-10.44,42.4-5.93,54.2-.36a4.64,4.64,0,0,0,4.3-8.21,85.24,85.24,0,0,1,10.2,1.13,4.66,4.66,0,0,0-.82,4.17c.57,3.39,1.18,21-8.83,33.86-7.16,9.19-18.39,14.27-33.37,15.12C56.62,103,41.57,114,33.9,123A49.79,49.79,0,0,0,30.23,127.85ZM41.88,131a4.55,4.55,0,0,0,.44-.41A4.57,4.57,0,0,1,41.88,131Zm1.55-2.46a4.77,4.77,0,0,0,.1-.57A4,4,0,0,1,43.43,128.52Zm.12-.69a4.64,4.64,0,0,0-.09-1.39q.81-.79,1.7-1.57a68.85,68.85,0,0,0,1.13,10.41A13.47,13.47,0,0,1,43.55,127.82Zm101.71,28.7c-11.41,18.37-28.52,27.93-38.89,27.54-10.71-.37-29.93-11.63-41.46-27.78A58.33,58.33,0,0,1,54.61,118.4c7.45-3.92,17.4-6.92,30.68-7.67,18.27-1,29.85-7.65,37.17-15.26,5.15,7,17.08,18.64,34.55,19.4C156.57,129.9,152.32,145.16,145.26,156.52Z"/><path class="cls-1" d="M139.06,119.08a23.6,23.6,0,0,0-22,.19,4.66,4.66,0,0,0,2.4,8.64,4.59,4.59,0,0,0,2.4-.68,14.3,14.3,0,0,1,13.08.17,4.65,4.65,0,0,0,4.15-8.32Z"/><path class="cls-1" d="M97.91,124.9a4.65,4.65,0,0,0-1-6.49c-5.75-4.15-12.58-4.73-19.24-1.62-1.75.82-7.48,3.77-7.75,7.5a4.65,4.65,0,0,0,4.3,5h.34a4.65,4.65,0,0,0,3.77-1.93c.93-.83,7-5.83,13.13-1.4A4.65,4.65,0,0,0,97.91,124.9Z"/><path class="cls-1" d="M109,154.82c-3.64,1.82-7.27,1.34-8.2.57a4.65,4.65,0,0,0-5.91,7.18,14.08,14.08,0,0,0,8.94,2.79,21.12,21.12,0,0,0,9.33-2.22,4.65,4.65,0,1,0-4.15-8.32Z"/><path class="cls-1" d="M96.24,141.76a4.65,4.65,0,0,0,3.95,5.26,24.65,24.65,0,0,0,3.46.25,17.92,17.92,0,0,0,3.53-.3,4.67,4.67,0,0,0,3.6-5.52,4.62,4.62,0,0,0-5.49-3.58,13,13,0,0,1-3.8,0A4.65,4.65,0,0,0,96.24,141.76Z"/></svg>