<svg id="Layer_1" data-name="Layer 1" xmlns="http://www.w3.org/2000/svg" viewBox="0 0 200 200"><defs><style>.cls-1{fill:#36baa2}</style></defs><path class="cls-1" d="M101.62 184c-37 0-58.66-18.65-67.22-28-16-17.55-24.18-58.76-10.72-92.14 11.14-27.63 35.09-44 67.42-46 28.69-1.83 51.42 4.94 67.54 20.09 23 21.62 24.09 52.54 24.14 56.17A111.45 111.45 0 0 1 179 131.7c-7.56 26.56-25 43.57-50.33 49.2a125 125 0 0 1-27.05 3.1zM100 28.93q-4 0-8.19.27c-35.5 2.25-50.9 22.41-57.56 38.92-11.68 29-4.87 65.5 8.56 80.19 7.44 8.13 26.33 24.28 58.91 24.29a113 113 0 0 0 24.51-2.82c21.23-4.71 35.27-18.46 41.75-40.88a101 101 0 0 0 3.44-33.9v-.58c0-.29-.29-29.18-20.64-48.24C138.54 34.71 121.5 28.93 100 28.93z"/><path class="cls-1" d="M97.42 119.13h-1c-7.46-.39-13-4.86-14.17-11.39-1.56-8.92 5.23-15.09 11.31-18.29V43.11a5.7 5.7 0 1 1 11.39 0v44.35a5.67 5.67 0 0 1 2.9 1.19c3.35 2.64 8.26 9.75 5.43 19.65-1.89 6.48-8.28 10.83-15.86 10.83zm4-20.76l-.32.11c-1.65.6-8.29 3.8-7.68 7.25.31 1.76 3.22 2 3.55 2 2.17.12 4.79-.75 5.31-2.56a7.67 7.67 0 0 0-.84-6.79z"/><path class="cls-1" d="M144.8 109.09a5.66 5.66 0 0 1-1.31-.15c-3.06-.24-19.92-.12-35 .15h-.1a5.7 5.7 0 0 1-.1-11.39c37.67-.67 38.08-.34 40.07 1.25a5.7 5.7 0 0 1-3.56 10.15zm-3.55-1.24zm0 0z"/></svg>