<?xml version="1.0" standalone="no"?>
<!DOCTYPE svg PUBLIC "-//W3C//DTD SVG 1.1//EN" "http://www.w3.org/Graphics/SVG/1.1/DTD/svg11.dtd" >
<svg xmlns="http://www.w3.org/2000/svg" xmlns:xlink="http://www.w3.org/1999/xlink" version="1.1">
<metadata>
Created by FontForge 20170731 at Mon Jun  6 04:24:26 2016
 By Aleksey,,,
(c) 2008-2016 Typodermic Fonts Inc.
</metadata>
<defs>
<font id="SchemeRg-Regular" horiz-adv-x="578" >
  <font-face 
    font-family="Scheme Rg"
    font-weight="400"
    font-stretch="normal"
    units-per-em="1000"
    panose-1="2 15 6 3 3 0 0 2 0 3"
    ascent="777"
    descent="-223"
    x-height="498"
    cap-height="724"
    bbox="-458 -230 1205 1091"
    underline-thickness="50"
    underline-position="-150"
    unicode-range="U+0017-FB02"
  />
<missing-glyph horiz-adv-x="579" 
d="M535 29q0 -12 -9 -20.5t-20 -8.5h-451q-12 0 -20.5 8.5t-8.5 20.5v666q0 12 8.5 20.5t20.5 8.5h451q11 0 20 -8.5t9 -20.5v-666zM84 666v-608h393v608h-393zM310 361l76 -74q4 -7 4 -15q0 -19 -19 -19q-9 0 -14 6l-74 74l-75 -74q-4 -6 -14 -6q-8 0 -13.5 5.5t-5.5 13.5
q0 7 6 15l73 74l-73 73q-6 6 -6 15q0 8 5.5 14t13.5 6q9 0 15 -7l74 -73l74 73q2 4 6 5.5t7 1.5q9 0 14.5 -6t5.5 -14t-5 -15z" />
    <glyph glyph-name=".notdef" horiz-adv-x="579" 
d="M535 29q0 -12 -9 -20.5t-20 -8.5h-451q-12 0 -20.5 8.5t-8.5 20.5v666q0 12 8.5 20.5t20.5 8.5h451q11 0 20 -8.5t9 -20.5v-666zM84 666v-608h393v608h-393zM310 361l76 -74q4 -7 4 -15q0 -19 -19 -19q-9 0 -14 6l-74 74l-75 -74q-4 -6 -14 -6q-8 0 -13.5 5.5t-5.5 13.5
q0 7 6 15l73 74l-73 73q-6 6 -6 15q0 8 5.5 14t13.5 6q9 0 15 -7l74 -73l74 73q2 4 6 5.5t7 1.5q9 0 14.5 -6t5.5 -14t-5 -15z" />
    <glyph glyph-name=".null" horiz-adv-x="0" 
 />
    <glyph glyph-name="nonmarkingreturn" horiz-adv-x="230" 
 />
    <glyph glyph-name="uni0017" horiz-adv-x="230" 
 />
    <glyph glyph-name="space" unicode=" " horiz-adv-x="230" 
 />
    <glyph glyph-name="exclam" unicode="!" horiz-adv-x="439" 
d="M275 240q-1 -21 -16.5 -36.5t-38.5 -15.5q-22 0 -37.5 15.5t-16.5 36.5l-13 439q0 26 19.5 45t47.5 19q29 0 48.5 -19t19.5 -45zM292 61q0 -29 -21 -49t-51 -20q-29 0 -50 20t-21 49t21 49t50 20q30 0 51 -20t21 -49z" />
    <glyph glyph-name="quotedbl" unicode="&#x22;" horiz-adv-x="366" 
d="M313 551q-1 -18 -15.5 -32.5t-34.5 -14.5t-35 14.5t-16 32.5l-4 148q0 22 16.5 38t38.5 16t39 -16t17 -38zM151 551q-1 -18 -16.5 -32.5t-35.5 -14.5t-34.5 14.5t-15.5 32.5l-5 148q0 22 16.5 38t38.5 16q23 0 39.5 -16t16.5 -38z" />
    <glyph glyph-name="numbersign" unicode="#" horiz-adv-x="531" 
d="M416 491h46q20 0 31 -11.5t11 -26.5t-11 -27t-31 -12h-58l-17 -111h52q20 0 30 -12t10 -26t-10 -26.5t-30 -12.5h-61l-28 -197q-2 -17 -14.5 -25t-26.5 -8t-26.5 10t-12.5 31l27 189h-99l-29 -197q-2 -17 -14 -25t-26 -8t-26.5 10t-12.5 31l27 189h-48q-20 0 -30.5 12.5
t-10.5 26.5t10.5 26t30.5 12h57l18 111h-52q-20 0 -30 12t-10 27t10 26.5t30 11.5h62l27 190q2 17 14 25t25 8q16 0 29 -10.5t13 -29.5l-27 -183h99l27 190q2 17 14 25t25 8q16 0 29 -10.5t13 -29.5zM224 414l-17 -111h99l18 111h-100z" />
    <glyph glyph-name="dollar" unicode="$" 
d="M343 616q18 -5 36 -13.5t34 -21.5q20 -16 32 -36.5t12 -40.5t-12 -30.5t-30 -11.5q-14 -1 -23 2.5t-15.5 9.5t-10.5 13.5t-7 13.5q-8 16 -28 23t-41 7q-31 0 -52.5 -14t-21.5 -40q0 -17 10 -28t30 -20q29 -13 63.5 -22t68.5 -26q16 -8 30.5 -19t25.5 -27t18 -36.5
t7 -48.5q0 -65 -35 -103.5t-91 -52.5v-44q0 -22 -12.5 -38t-34.5 -16q-20 0 -34 13.5t-14 31.5v49q-29 4 -57 18.5t-48 34.5q-15 16 -24.5 34t-9.5 36q0 22 13.5 34.5t31.5 12.5q21 0 34.5 -15.5t22.5 -29.5q13 -20 33.5 -29t44.5 -9q35 0 59.5 17.5t24.5 49.5t-29 51
q-12 8 -28.5 14t-34.5 11.5t-37.5 12t-37.5 14.5q-35 16 -59.5 44t-24.5 80q0 31 10 56t27 43t40 29.5t49 17.5v49q0 18 14.5 33t33.5 15q20 0 33.5 -14.5t13.5 -33.5v-50z" />
    <glyph glyph-name="percent" unicode="%" horiz-adv-x="803" 
d="M203 714q37 0 65.5 -14t48 -39t30 -58.5t10.5 -72.5q0 -41 -10.5 -76t-30 -60t-48 -39t-65.5 -14t-66 14t-48.5 39t-30 60t-10.5 76q0 39 10.5 72.5t30 58.5t48.5 39t66 14zM203 630q-36 0 -52.5 -30.5t-16.5 -69.5q0 -43 16.5 -74t52.5 -31q34 0 50.5 31t16.5 74
q0 39 -16.5 69.5t-50.5 30.5zM603 361q36 0 64.5 -14t48.5 -39t30.5 -59t10.5 -73q0 -41 -10.5 -75t-30.5 -59.5t-48.5 -39.5t-64.5 -14q-38 0 -67 14t-48.5 39.5t-30 59.5t-10.5 75q0 39 10.5 73t30 59t48.5 39t67 14zM603 277q-17 0 -30 -8t-21.5 -22t-12.5 -32.5
t-4 -38.5q0 -42 16.5 -73t51.5 -31q34 0 50 31t16 73q0 41 -16 71t-50 30zM254 18q-7 -13 -16.5 -17.5t-19.5 -4.5q-19 0 -31.5 10.5t-12.5 29.5q0 8 1.5 13.5t3.5 8.5l364 633q7 14 17.5 18.5t20.5 4.5q15 0 29.5 -11.5t14.5 -30.5q0 -10 -6 -20z" />
    <glyph glyph-name="ampersand" unicode="&#x26;" horiz-adv-x="591" 
d="M510 145q10 -10 22.5 -21.5t27.5 -22.5q12 -8 19.5 -21t7.5 -27q0 -24 -20.5 -40.5t-43.5 -16.5q-13 0 -26 6t-24 14.5t-20.5 18.5t-16.5 18q-34 -31 -74 -48t-88 -17q-50 0 -91 14.5t-70 41t-45 64t-16 82.5q0 36 9.5 67t27 58t40.5 50t50 43q-62 92 -62 166q0 37 13 67
t34.5 51t50.5 32.5t61 11.5q31 0 59.5 -10.5t50 -30t34.5 -48t13 -64.5q0 -60 -33 -104.5t-87 -87.5q26 -38 54 -76t57 -74q11 25 19 52t8 56q0 13 3 28t10.5 27.5t19.5 20.5t30 8q29 0 44.5 -21t15.5 -48q0 -54 -16.5 -111t-47.5 -108zM232 320q-24 -23 -43 -54t-19 -62
q0 -23 8.5 -41.5t23 -32.5t32.5 -21.5t38 -7.5q25 0 47 11.5t42 28.5q-32 38 -66 84.5t-63 94.5zM260 472q23 20 43.5 46t20.5 62q0 20 -13 35.5t-36 15.5q-27 0 -38 -19.5t-11 -45.5q0 -23 10 -46t24 -48z" />
    <glyph glyph-name="quotesingle" unicode="'" horiz-adv-x="203" 
d="M151 551q-1 -18 -16.5 -32.5t-35.5 -14.5t-34.5 14.5t-15.5 32.5l-5 148q0 22 16.5 38t38.5 16q23 0 39.5 -16t16.5 -38z" />
    <glyph glyph-name="parenleft" unicode="(" horiz-adv-x="296" 
d="M172 733q5 13 15.5 17.5t23.5 4.5q17 0 29.5 -12.5t12.5 -29.5q0 -9 -4 -17.5t-6 -15.5q-34 -86 -53 -179.5t-19 -190.5q0 -96 18.5 -186t50.5 -175q3 -9 8 -20t5 -22q0 -17 -12.5 -30t-29.5 -13q-16 0 -26.5 10.5t-21.5 31.5q-42 85 -66.5 188t-24.5 216q0 115 27.5 222
t72.5 201z" />
    <glyph glyph-name="parenright" unicode=")" horiz-adv-x="297" 
d="M123 733q25 -43 43.5 -93t31 -104.5t18.5 -111.5t6 -114q0 -113 -24 -216t-66 -188q-11 -23 -22 -32.5t-25 -9.5q-17 0 -30 13t-13 30q0 11 5 22t9 20q32 83 50 174.5t18 186.5q0 97 -18.5 190.5t-52.5 179.5q-3 7 -7 15.5t-4 17.5q0 17 13 29.5t30 12.5q25 0 38 -22z
" />
    <glyph glyph-name="asterisk" unicode="*" horiz-adv-x="449" 
d="M272 576l85 -15q17 -3 24 -15t7 -23q0 -15 -10.5 -26.5t-26.5 -11.5q-3 0 -8 0.5t-10 2.5l-79 33l9 -87q1 -20 -11.5 -30t-27.5 -10q-14 0 -26 10t-12 30l10 87l-79 -33q-5 -2 -10 -2.5t-8 -0.5q-16 0 -26.5 11.5t-10.5 26.5q0 11 7 23t24 15l85 15l-60 70q-8 11 -8 22
q0 16 12.5 28t27.5 12q7 0 15.5 -4.5t16.5 -17.5l42 -77l44 77q8 13 16.5 17.5t14.5 4.5q16 0 28.5 -12t12.5 -28q0 -10 -9 -22z" />
    <glyph glyph-name="plus" unicode="+" 
d="M334 338h124q19 0 33 -13.5t14 -31.5q0 -19 -14 -32.5t-33 -13.5h-124v-124q0 -19 -13.5 -32.5t-31.5 -13.5q-19 0 -32.5 13.5t-13.5 32.5v124h-123q-19 0 -33 13.5t-14 32.5q0 18 14 31.5t33 13.5h123v123q0 19 13.5 33t32.5 14q18 0 31.5 -14t13.5 -33v-123z" />
    <glyph glyph-name="comma" unicode="," horiz-adv-x="324" 
d="M136 0q-22 8 -31.5 26.5t-9.5 35.5q0 25 16 45.5t49 20.5q32 0 50 -21.5t18 -68.5q0 -23 -5.5 -52t-16 -54.5t-25 -43t-32.5 -17.5q-15 0 -21 7.5t-6 18.5q0 19 7.5 36t7.5 45v11.5t-1 10.5z" />
    <glyph glyph-name="hyphen" unicode="-" horiz-adv-x="312" 
d="M242 346q23 0 41 -16t18 -42q0 -27 -18 -42t-41 -15h-172q-23 0 -40.5 16t-17.5 42t17.5 41.5t40.5 15.5h172z" />
    <glyph glyph-name="period" unicode="." horiz-adv-x="334" 
d="M95 60q0 29 21 49.5t50 20.5q30 0 51 -20.5t21 -49.5q0 -28 -21 -47.5t-51 -19.5q-29 0 -50 19.5t-21 47.5z" />
    <glyph glyph-name="slash" unicode="/" horiz-adv-x="325" 
d="M66 -63q-5 -14 -16 -23.5t-26 -9.5q-19 0 -33 13t-14 31q0 7 1.5 11.5t3.5 9.5l277 747q5 13 15.5 23t27.5 10q18 0 32 -13.5t14 -31.5q0 -9 -6 -21z" />
    <glyph glyph-name="zero" unicode="0" 
d="M289 590q-58 0 -82 -62.5t-24 -177.5t24 -177t82 -62q57 0 80.5 62t23.5 177q0 114 -24 177t-80 63zM289 713q120 0 176 -96t56 -267q0 -172 -56 -267t-176 -95q-61 0 -105 24.5t-72.5 71t-42 113.5t-13.5 153q0 85 13.5 152.5t42 114.5t72.5 71.5t105 24.5z" />
    <glyph glyph-name="one" unicode="1" 
d="M364 55q0 -23 -19.5 -41t-44.5 -18q-24 0 -43 18t-19 41v463l-34 -21q-7 -5 -17.5 -7.5t-20.5 -2.5q-27 0 -43.5 18.5t-16.5 42.5q0 21 12 34t32 22q13 6 24 11.5t21 13.5t21 19t24 29q8 11 21 23.5t37 12.5q29 0 47.5 -19t18.5 -44v-595z" />
    <glyph glyph-name="two" unicode="2" 
d="M139 0q-31 0 -55.5 15t-24.5 48q0 5 2 12.5t12 21.5q14 20 42.5 54.5t60 70t59 66.5t39.5 44q42 47 67 89.5t25 83.5q0 17 -5 33.5t-15 29t-26 20t-37 7.5q-17 0 -32.5 -5.5t-26.5 -18.5q-11 -14 -14 -28t-8 -29q-6 -21 -19.5 -37.5t-38.5 -16.5q-11 0 -22.5 4
t-21.5 12.5t-16 21.5t-6 32q0 29 15 62t41 59q26 27 64.5 44.5t85.5 17.5q42 0 79.5 -15t66 -42t45 -65t16.5 -83q0 -54 -23 -104.5t-59.5 -98t-81 -93.5t-87.5 -92h217q22 0 42 -15.5t20 -45.5q0 -29 -19 -44t-44 -15h-317z" />
    <glyph glyph-name="three" unicode="3" 
d="M391 377q53 -20 86 -64t33 -110q0 -49 -19 -88.5t-51 -67.5t-73 -43.5t-84 -15.5q-29 0 -58.5 7t-56 20.5t-48.5 32.5t-35 44q-8 15 -12.5 31.5t-4.5 30.5q0 28 18 47t47 19q20 0 32.5 -10t21.5 -27q8 -17 16.5 -31t19 -25t25.5 -17t36 -6q47 0 74.5 28.5t27.5 79.5
q0 26 -7.5 44.5t-21.5 32.5q-22 21 -48.5 24.5t-48.5 6.5q-33 5 -45 22.5t-12 34.5q0 30 23 41t51 14q21 2 36.5 6t28.5 15t19 27t6 35q0 42 -25.5 63.5t-60.5 21.5q-27 0 -43 -11.5t-27 -28.5q-6 -9 -11.5 -20t-13 -20t-17.5 -15.5t-24 -6.5q-25 0 -45.5 18.5t-20.5 47.5
q0 8 2.5 20t10.5 27q26 51 76 76.5t107 25.5q39 0 77.5 -12t69 -35.5t49 -59t18.5 -82.5q0 -57 -27 -93.5t-71 -53.5z" />
    <glyph glyph-name="four" unicode="4" 
d="M190 258h143v92q0 25 17.5 43t42.5 18q24 0 41.5 -17.5t17.5 -40.5v-95h33q20 0 35.5 -16t15.5 -38q0 -20 -15.5 -37t-35.5 -17h-33v-97q0 -22 -18 -39.5t-41 -17.5t-41.5 17.5t-18.5 39.5v97h-231q-29 0 -44.5 18t-15.5 42q0 17 9 35l225 438q8 14 22 22t31 8
q23 0 41.5 -17.5t18.5 -41.5q0 -13 -7 -29z" />
    <glyph glyph-name="five" unicode="5" 
d="M208 446q20 17 47.5 26t56.5 9q45 0 81.5 -17.5t62 -49t39.5 -74t14 -91.5q0 -53 -16 -100.5t-45.5 -83t-71 -56.5t-93.5 -21q-63 0 -110.5 23.5t-85.5 77.5q-10 14 -14 27.5t-4 21.5q0 23 17.5 42.5t42.5 19.5q20 0 37 -7.5t23 -25.5q4 -10 13 -20.5t21 -19t26.5 -14
t28.5 -5.5q53 0 79.5 38t26.5 104t-28.5 96t-67.5 30q-23 0 -43 -9.5t-32 -32.5q-8 -16 -24 -27t-36 -11q-25 0 -44 18.5t-19 44.5l13 272q1 14 4.5 27.5t11 24.5t19.5 18t30 7q12 0 24 -0.5t28 -1.5t36.5 -1.5t49.5 -0.5q42 0 63.5 2t40.5 2q14 0 28 -4t25 -11.5t18 -19
t7 -26.5q0 -30 -24.5 -45.5t-56.5 -15.5h-30t-36 1t-51 2.5t-75 4.5z" />
    <glyph glyph-name="six" unicode="6" 
d="M184 367q19 43 58.5 65t86.5 22q39 0 73 -15t59 -43.5t39.5 -70.5t14.5 -97q0 -113 -59 -176.5t-161 -63.5q-58 0 -101.5 23t-72.5 63.5t-43.5 97t-14.5 123.5q0 37 3 82.5t12.5 92t26.5 90.5t44.5 78t67.5 54.5t95 20.5q58 0 95 -19t57 -46q11 -15 18.5 -30.5t7.5 -34.5
q0 -23 -15 -41t-41 -18q-21 0 -35 10t-22 25q-10 17 -28 28.5t-44 11.5q-33 0 -55 -19.5t-36 -52t-21 -74.5t-9 -86zM299 344q-21 0 -39.5 -7t-32.5 -21t-22.5 -36t-8.5 -52q0 -53 26.5 -86t68.5 -33q46 0 72.5 29t26.5 89q0 61 -23 89t-68 28z" />
    <glyph glyph-name="seven" unicode="7" 
d="M123 587q-24 0 -43 18.5t-19 41.5q0 25 19 43t43 18h326q27 0 47 -17t20 -41q0 -17 -4 -27t-12 -23q-14 -21 -33 -63t-40 -95.5t-42.5 -114t-41 -116.5t-35.5 -104t-25 -76q-6 -18 -22 -30.5t-40 -12.5q-14 0 -26 5.5t-20.5 14t-13 19t-4.5 20.5q0 8 2 17t8 29
q12 39 34.5 103t50.5 134.5t58 139.5t57 117h-244z" />
    <glyph glyph-name="eight" unicode="8" 
d="M402 373q21 -9 41.5 -25t37 -38t26.5 -50t10 -62q0 -50 -19 -89t-50.5 -66t-73 -41t-86.5 -14t-86.5 14t-73 41t-50 66t-18.5 89q0 67 33 111t80 63q-42 18 -70.5 58.5t-28.5 99.5q0 43 17.5 77.5t47.5 57.5t68.5 35.5t80.5 12.5q41 0 79.5 -12t68 -35.5t47 -57.5
t17.5 -78q0 -30 -8 -55t-21.5 -44.5t-31.5 -34t-37 -23.5zM288 328q-21 -2 -40.5 -10.5t-34 -22.5t-23.5 -34.5t-9 -46.5q0 -55 30.5 -83t76.5 -28q45 0 76.5 28t31.5 83q0 27 -9 48t-24 35t-34.5 22t-40.5 9zM288 416q40 5 64.5 29t24.5 65q0 47 -26.5 67t-62.5 20
q-37 0 -63 -20t-26 -67q0 -41 25.5 -65t63.5 -29z" />
    <glyph glyph-name="nine" unicode="9" 
d="M394 333q-19 -43 -58.5 -65t-86.5 -22q-39 0 -73 15t-59 43.5t-39.5 71t-14.5 97.5q0 113 59 176.5t161 63.5q58 0 102 -23t72.5 -64t43 -97t14.5 -123q0 -40 -3 -86.5t-12 -93t-26 -89.5t-44.5 -76t-68 -53t-95.5 -20q-58 0 -94.5 19t-57.5 46q-11 14 -18.5 29.5
t-7.5 34.5q0 23 15 41t41 18q22 0 36 -10t22 -24q9 -18 27 -29.5t44 -11.5q33 0 55 19.5t36 52t21 74.5t9 86zM288 592q-46 0 -73 -29t-27 -89q0 -62 23 -90t68 -28q42 0 73 28t31 89q0 52 -27 85.5t-68 33.5z" />
    <glyph glyph-name="colon" unicode=":" horiz-adv-x="334" 
d="M239 64q0 -28 -21.5 -48t-50.5 -20t-50.5 20t-21.5 48q0 29 21.5 49t50.5 20t50.5 -20t21.5 -49zM239 422q0 -29 -21.5 -49t-50.5 -20t-50.5 20t-21.5 49q0 28 21.5 48t50.5 20t50.5 -20t21.5 -48z" />
    <glyph glyph-name="semicolon" unicode=";" horiz-adv-x="293" 
d="M218 421q0 -29 -21 -49t-50 -20t-50 20t-21 49t21 49t50 20t50 -20t21 -49zM116 0q-22 8 -31 26.5t-9 35.5q0 25 15.5 45.5t49.5 20.5q32 0 49.5 -21.5t17.5 -68.5q0 -23 -5.5 -52t-16 -54.5t-25 -43t-32.5 -17.5q-14 0 -20.5 7.5t-6.5 18.5q0 19 7.5 36t7.5 45v11.5
t-1 10.5z" />
    <glyph glyph-name="less" unicode="&#x3c;" 
d="M224 293l233 -134q10 -5 17 -15.5t7 -22.5q0 -18 -14 -31t-32 -13q-13 0 -23 5l-289 170q-11 7 -19 17t-8 24q0 13 8 23t19 16l289 170q10 6 23 6q18 0 32 -13.5t14 -31.5q0 -11 -7 -22t-17 -16z" />
    <glyph glyph-name="equal" unicode="=" 
d="M120 156q-19 0 -33 14t-14 32t14 31.5t33 13.5h338q19 0 33 -13.5t14 -31.5t-14 -32t-33 -14h-338zM120 338q-19 0 -33 13.5t-14 31.5q0 19 14 32t33 13h338q19 0 33 -13t14 -32q0 -18 -14 -31.5t-33 -13.5h-338z" />
    <glyph glyph-name="greater" unicode="&#x3e;" 
d="M454 332q10 -6 18.5 -16t8.5 -23q0 -14 -8.5 -24.5t-18.5 -15.5l-290 -171l-10 -4t-12 -2q-18 0 -32 13.5t-14 31.5q0 12 6.5 22t17.5 17l233 133l-233 132q-11 6 -17.5 17t-6.5 22q0 17 14 30.5t32 13.5q5 0 11 -1t11 -5z" />
    <glyph glyph-name="question" unicode="?" horiz-adv-x="542" 
d="M469 566q0 -32 -7.5 -57.5t-19.5 -46t-26.5 -37t-27.5 -30.5q-20 -21 -32 -37.5t-18.5 -31.5t-9.5 -30.5t-4 -34.5q0 -10 -2 -23t-8 -24t-17.5 -19t-30.5 -8q-30 0 -44.5 21t-14.5 59q0 56 25.5 99.5t57.5 78.5q19 20 38.5 48.5t19.5 67.5q0 35 -17 53.5t-46 18.5
q-18 0 -37 -6.5t-32 -15.5q-9 -6 -22 -16.5t-33 -10.5q-23 0 -42 16.5t-19 41.5q0 17 10 32.5t26 28.5q25 20 62 32.5t79 12.5q39 0 74 -12t61.5 -35t41.5 -57t15 -78zM338 61q0 -29 -21 -48.5t-50 -19.5t-50 19.5t-21 48.5q0 28 21 48t50 20t50 -20t21 -48z" />
    <glyph glyph-name="at" unicode="@" horiz-adv-x="740" 
d="M486 184q0 -8 5.5 -12.5t13.5 -4.5q14 0 32 14t34 39t27 59.5t11 74.5q0 45 -15 83.5t-42.5 66t-66 43.5t-84.5 16q-56 0 -105 -24t-85.5 -67t-57.5 -102.5t-21 -131.5q0 -114 54 -179.5t159 -65.5q38 0 64.5 8.5t54.5 22.5q7 4 14.5 6.5t16.5 2.5q23 0 34 -14t11 -28
q0 -20 -21 -36.5t-52.5 -28.5t-68.5 -18.5t-70 -6.5q-67 0 -120.5 26t-91 72t-58 108.5t-20.5 135.5q0 90 29.5 165.5t79.5 130t116 85.5t140 31q66 0 120 -24.5t92 -65t58.5 -94t20.5 -110.5q0 -52 -16.5 -101t-44 -86.5t-65 -60t-79.5 -22.5q-28 0 -49 12t-31 41
q-35 -52 -91 -52q-45 0 -74 34.5t-29 100.5q0 37 10 77t30 73.5t49 55t68 21.5q28 0 45.5 -11t28.5 -31q8 23 18.5 31t23.5 8q17 0 25 -11.5t8 -31.5v-5t-1 -7zM369 181q24 21 37 68.5t24 105.5q-5 12 -19 18.5t-28 6.5q-20 0 -36.5 -12.5t-28.5 -33t-18.5 -47t-6.5 -53.5
q0 -36 12 -50t33 -14q12 0 19 3t12 8z" />
    <glyph glyph-name="A" unicode="A" horiz-adv-x="563" 
d="M550 81q4 -13 4 -25q0 -23 -15.5 -41.5t-44.5 -18.5q-23 0 -39 12t-21 29l-38 115h-235l-38 -117q-5 -17 -19.5 -28t-36.5 -11q-27 0 -43 17t-16 40q0 7 1.5 12.5t3.5 13.5l210 610q6 17 22.5 28.5t36.5 11.5t36.5 -11.5t22.5 -28.5zM194 260h169l-85 255z" />
    <glyph glyph-name="B" unicode="B" horiz-adv-x="618" 
d="M311 724q46 0 84.5 -11.5t66.5 -34t43.5 -56t15.5 -77.5q0 -59 -26.5 -97t-71.5 -57q27 -7 51 -20t42 -35t29 -52.5t11 -71.5q0 -44 -13.5 -83t-40.5 -67.5t-67 -45t-93 -16.5h-192q-25 0 -43.5 18t-18.5 43v602q0 25 18.5 43t43.5 18h161zM212 330v-208h92q28 0 51 5
t39.5 17t26 32t9.5 50q0 31 -9.5 51t-27.5 32t-43 16.5t-56 4.5h-82zM212 606v-175h85q48 0 73.5 21t25.5 69q0 49 -26.5 67t-74.5 18h-83z" />
    <glyph glyph-name="C" unicode="C" horiz-adv-x="655" 
d="M598 600q12 -24 12 -38q0 -24 -18 -42t-45 -18q-14 0 -29 7.5t-22 21.5q-21 39 -56.5 61t-82.5 22q-42 0 -74.5 -19t-55 -53t-34 -80.5t-11.5 -101.5q0 -54 11 -100t33 -79.5t55 -52.5t78 -19q17 0 36 4.5t36.5 13t31 21.5t19.5 31q6 17 23 29.5t37 12.5q26 0 44 -18
t18 -42q0 -18 -6.5 -33.5t-17.5 -31.5q-17 -23 -41 -43t-53.5 -34t-62.5 -22t-66 -8q-69 0 -124.5 26.5t-94.5 75t-59.5 117.5t-20.5 153q0 81 21 150t60 119t94 78t123 28q84 0 144 -35.5t98 -100.5z" />
    <glyph glyph-name="D" unicode="D" horiz-adv-x="681" 
d="M290 724q75 0 136 -22t103.5 -67t66 -113.5t23.5 -160.5q0 -93 -22.5 -161t-64.5 -112.5t-103 -66t-139 -21.5h-141q-24 0 -42.5 18t-18.5 43v602q0 25 18.5 43t42.5 18h141zM212 602v-480h33q67 0 114 10t77 36.5t44 73t14 119.5q0 72 -14 118.5t-43 74t-73.5 38
t-106.5 10.5h-45z" />
    <glyph glyph-name="E" unicode="E" horiz-adv-x="588" 
d="M212 603v-171h214q23 0 40.5 -16t17.5 -39t-17.5 -40t-40.5 -17h-214v-198h250q26 0 44 -18.5t18 -42.5q0 -25 -18 -43t-44 -18h-312q-25 0 -43.5 18t-18.5 43v602q0 25 18.5 43t43.5 18h312q26 0 44 -18t18 -43q0 -24 -18 -42t-44 -18h-250z" />
    <glyph glyph-name="F" unicode="F" horiz-adv-x="574" 
d="M212 603v-171h208q23 0 40.5 -16.5t17.5 -39.5t-17.5 -39.5t-40.5 -16.5h-208v-264q0 -24 -18.5 -42t-43.5 -18t-43.5 18t-18.5 42v607q0 25 18.5 43t43.5 18h313q25 0 43.5 -18t18.5 -43q0 -24 -18.5 -42t-43.5 -18h-251z" />
    <glyph glyph-name="G" unicode="G" horiz-adv-x="702" 
d="M604 68q-45 -38 -105 -59t-137 -21q-67 0 -122 25t-94.5 73t-61.5 117t-22 158q0 82 21 151t59.5 118.5t93.5 77.5t123 28q42 0 76.5 -7.5t64 -24t55 -43.5t49.5 -65q10 -15 10 -33q0 -25 -17.5 -43t-44.5 -18q-16 0 -30.5 8t-21.5 21q-25 44 -58.5 63.5t-81.5 19.5
q-41 0 -73 -19t-54.5 -53t-34.5 -80.5t-12 -101.5q0 -118 49 -185.5t137 -67.5q41 0 72 8t48 19v146h-104q-23 0 -41 17.5t-18 40.5q0 24 18 41t41 17h154q26 0 44 -18t18 -42v-268z" />
    <glyph glyph-name="H" unicode="H" horiz-adv-x="686" 
d="M596 56q0 -24 -18.5 -42t-42.5 -18q-26 0 -44.5 18t-18.5 42v265h-260v-265q0 -24 -18.5 -42t-43.5 -18q-24 0 -43 18t-19 42v613q0 24 19 42t43 18q25 0 43.5 -18t18.5 -42v-233h260v233q0 24 18.5 42t44.5 18q24 0 42.5 -18t18.5 -42v-613z" />
    <glyph glyph-name="I" unicode="I" horiz-adv-x="303" 
d="M212 56q0 -24 -18 -42t-43 -18q-26 0 -44.5 18t-18.5 42v613q0 24 18.5 42t44.5 18q25 0 43 -18t18 -42v-613z" />
    <glyph glyph-name="J" unicode="J" horiz-adv-x="502" 
d="M416 261q0 -60 -15 -110t-42.5 -86.5t-67.5 -56.5t-89 -20q-55 0 -95 18t-72 62q-8 11 -15.5 24t-7.5 29q0 25 18.5 43t43.5 18q21 0 35 -10t22 -26q22 -38 70 -38q43 0 67.5 35.5t24.5 109.5v416q0 24 18 42t44 18q24 0 42.5 -18t18.5 -42v-408z" />
    <glyph glyph-name="K" unicode="K" horiz-adv-x="572" 
d="M370 385l181 -293q11 -17 11 -34q0 -25 -19.5 -43.5t-45.5 -18.5q-17 0 -31.5 7.5t-25.5 24.5l-176 300h-51v-272q0 -24 -18 -42t-44 -18q-25 0 -43.5 18t-18.5 42v613q0 24 18.5 42t43.5 18q26 0 44 -18t18 -42v-244h60l163 277q15 27 49 27q21 0 38.5 -15t17.5 -40
q0 -14 -9 -30z" />
    <glyph glyph-name="L" unicode="L" horiz-adv-x="547" 
d="M212 122h238q25 0 43.5 -18.5t18.5 -42.5q0 -25 -18.5 -43t-43.5 -18h-300q-25 0 -43.5 18t-18.5 43v608q0 24 18.5 42t43.5 18t43.5 -18t18.5 -42v-547z" />
    <glyph glyph-name="M" unicode="M" horiz-adv-x="860" 
d="M769 53q1 -23 -16.5 -40t-41.5 -17q-23 0 -41 16.5t-18 39.5l-4 417l-160 -436q-6 -17 -21.5 -27t-35.5 -10t-35.5 10t-22.5 27l-158 436l-5 -417q0 -23 -17.5 -39.5t-40.5 -16.5t-41.5 17t-17.5 40l13 615q1 31 22 46t49 15q23 0 41.5 -11t26.5 -31l188 -487l189 487
q8 20 24.5 31t39.5 11q28 0 49 -15t22 -46z" />
    <glyph glyph-name="N" unicode="N" horiz-adv-x="709" 
d="M619 56q0 -25 -18 -42.5t-47 -17.5q-20 0 -34 9.5t-22 20.5l-292 454v-427q0 -23 -17.5 -40t-41.5 -17t-41.5 17t-17.5 40v617q0 24 18 41.5t47 17.5q20 0 33.5 -9.5t21.5 -20.5l292 -453v426q0 23 18 40t41 17q24 0 42 -17t18 -40v-616z" />
    <glyph glyph-name="O" unicode="O" horiz-adv-x="735" 
d="M367 736q67 0 122.5 -25.5t95.5 -74t62 -118t22 -156.5q0 -88 -22 -157.5t-61.5 -117.5t-95.5 -73.5t-123 -25.5q-68 0 -124 25.5t-95.5 73.5t-61.5 117.5t-22 157.5q0 87 22 156.5t61.5 118t95.5 74t124 25.5zM367 614q-44 0 -77 -18.5t-56 -52t-34.5 -80t-11.5 -102.5
t11.5 -102.5t34.5 -79.5t56 -51.5t77 -18.5q43 0 76.5 18.5t56 51.5t34 79.5t11.5 102.5t-11.5 102.5t-34 80t-56 52t-76.5 18.5z" />
    <glyph glyph-name="P" unicode="P" horiz-adv-x="568" 
d="M264 724q56 0 106 -9t88 -33.5t60.5 -67t22.5 -109.5q0 -62 -20.5 -104.5t-55.5 -68.5t-80.5 -37t-94.5 -11h-70v-228q0 -24 -18.5 -42t-43.5 -18t-43.5 18t-18.5 42v607q0 25 18.5 43t43.5 18h106zM220 602v-201h86q23 0 43.5 5.5t35.5 17.5t23.5 31.5t8.5 47.5
q0 53 -32 76t-79 23h-86z" />
    <glyph glyph-name="Q" unicode="Q" horiz-adv-x="735" 
d="M667 5q8 -9 11.5 -19.5t3.5 -19.5q0 -24 -19.5 -42.5t-43.5 -18.5q-29 0 -49 24l-73 89q-29 -14 -62 -22t-68 -8q-68 0 -124 25.5t-95.5 73.5t-61.5 117.5t-22 157.5q0 87 22 156.5t61.5 118t95.5 74t124 25.5q67 0 122.5 -25.5t95.5 -74t62 -118t22 -156.5
q0 -83 -20.5 -149.5t-55.5 -114.5zM367 614q-44 0 -77 -18.5t-56 -52t-34.5 -80t-11.5 -102.5t11.5 -102.5t34.5 -79.5t56 -51.5t77 -18.5q43 0 76.5 18.5t56 51.5t34 79.5t11.5 102.5t-11.5 102.5t-34 80t-56 52t-76.5 18.5z" />
    <glyph glyph-name="R" unicode="R" horiz-adv-x="618" 
d="M266 724q56 0 106 -9t88 -33.5t60.5 -67.5t22.5 -110q0 -80 -35.5 -128t-86.5 -67l137 -223q9 -15 9 -31q0 -25 -19.5 -42t-44.5 -17q-15 0 -29 6.5t-24 23.5l-152 257h-76v-228q0 -24 -18 -41.5t-44 -17.5q-24 0 -42.5 17.5t-18.5 41.5v608q0 24 18.5 42.5t42.5 18.5
h106zM222 602v-207h86q46 0 78.5 24.5t32.5 80.5q0 53 -32 77.5t-78 24.5h-87z" />
    <glyph glyph-name="S" unicode="S" horiz-adv-x="577" 
d="M475 651q13 -18 21.5 -38t8.5 -38q0 -27 -18.5 -46t-44.5 -19q-22 0 -37 14t-23 37q-4 12 -9 21.5t-19 20.5q-12 9 -27.5 13.5t-32.5 4.5q-19 0 -36.5 -6t-31 -17.5t-21.5 -27.5t-8 -37q0 -20 8 -35t21.5 -26t32.5 -19.5t40 -16.5q16 -6 35 -12.5t38 -14.5t37.5 -17.5
t34.5 -21.5q34 -26 55 -64.5t21 -97.5q0 -56 -19.5 -97t-52 -68.5t-75 -41t-89.5 -13.5q-74 0 -130 31.5t-82 87.5q-6 13 -11 28.5t-5 29.5q0 26 18 44t44 18q20 0 35 -11.5t23 -30.5q9 -23 14.5 -32t16.5 -18q15 -14 36 -20.5t44 -6.5q22 0 42 6.5t35 18.5t23.5 29.5
t8.5 40.5q0 21 -7.5 35.5t-20.5 26t-30.5 19.5t-37.5 15q-43 15 -80.5 30.5t-69.5 39.5q-33 25 -55.5 63t-22.5 95q0 47 17 85.5t46.5 66t70 42.5t88.5 15q56 0 103 -21t78 -64z" />
    <glyph glyph-name="T" unicode="T" horiz-adv-x="561" 
d="M342 603v-547q0 -24 -18.5 -42t-43.5 -18t-43.5 18t-18.5 42v547h-142q-26 0 -44.5 18t-18.5 42q0 25 18.5 43t44.5 18h409q25 0 43.5 -18t18.5 -43q0 -24 -18.5 -42t-43.5 -18h-143z" />
    <glyph glyph-name="U" unicode="U" horiz-adv-x="670" 
d="M588 248q0 -59 -17 -106.5t-49 -82t-79 -53t-107 -18.5q-65 0 -112 20t-78 57t-45.5 90t-14.5 119v395q0 24 18.5 42t43.5 18t43.5 -18t18.5 -42v-419q0 -67 34 -104t92 -37q60 0 94 37.5t34 103.5v419q0 24 18 42t44 18q24 0 43 -18t19 -42v-421z" />
    <glyph glyph-name="V" unicode="V" horiz-adv-x="561" 
d="M339 36q-5 -17 -22 -28.5t-37 -11.5t-36 11.5t-23 28.5l-210 608q-4 13 -4 25q0 24 18.5 42t43.5 18q20 0 36.5 -11.5t21.5 -29.5l156 -475l157 477q5 17 21 28t34 11q23 0 40.5 -17t17.5 -40q0 -10 -5 -25z" />
    <glyph glyph-name="W" unicode="W" horiz-adv-x="877" 
d="M708 47q-8 -28 -25.5 -39.5t-41.5 -11.5q-25 0 -40.5 11t-23.5 37l-141 456l-136 -456q-8 -26 -23 -37t-40 -11t-41.5 11.5t-23.5 39.5l-160 605q-2 6 -2.5 9t-0.5 8q0 24 18.5 42t43.5 18q20 0 38 -12.5t23 -30.5l110 -455l131 451q14 47 65 47q24 0 42 -11.5t25 -36.5
l134 -450l114 457q5 17 21.5 29t35.5 12q23 0 41 -17t18 -40v-8t-2 -9z" />
    <glyph glyph-name="X" unicode="X" horiz-adv-x="529" 
d="M329 385l182 -293q10 -17 10 -34q0 -25 -19.5 -43.5t-45.5 -18.5q-17 0 -31.5 7t-25.5 25l-140 241l-144 -244q-9 -16 -22 -22.5t-28 -6.5q-23 0 -40.5 16t-17.5 39q0 8 1.5 14t7.5 15l181 290l-161 263q-11 17 -11 34q0 25 19.5 43.5t45.5 18.5q17 0 31.5 -7.5
t24.5 -24.5l122 -211l126 216q8 14 21 20.5t28 6.5q21 0 39 -15t18 -40q0 -14 -10 -30z" />
    <glyph glyph-name="Y" unicode="Y" horiz-adv-x="537" 
d="M329 318v-262q0 -24 -19 -42t-44 -18q-24 0 -42.5 18t-18.5 42v260l-187 319q-11 16 -11 34q0 24 19 42t43 18q20 0 33.5 -9.5t21.5 -23.5l148 -266l147 266q7 14 19.5 23.5t32.5 9.5q23 0 41 -17t18 -40q0 -10 -4 -18l-7 -14z" />
    <glyph glyph-name="Z" unicode="Z" horiz-adv-x="562" 
d="M205 122h257q26 0 44 -18.5t18 -42.5q0 -25 -18 -43t-44 -18h-360q-25 0 -43.5 18t-18.5 43q0 11 4 20t9 17l295 505h-249q-25 0 -43.5 18t-18.5 42q0 25 18.5 43t43.5 18h350q26 0 44 -18t18 -43q0 -17 -10 -34z" />
    <glyph glyph-name="bracketleft" unicode="[" horiz-adv-x="323" 
d="M224 748q18 0 31.5 -13.5t13.5 -31.5q0 -16 -13.5 -29t-31.5 -13h-50v-713h50q18 0 31.5 -12t13.5 -29q0 -18 -13.5 -31.5t-31.5 -13.5h-99q-17 0 -30.5 13.5t-13.5 31.5v796q0 18 13.5 31.5t30.5 13.5h99z" />
    <glyph glyph-name="backslash" unicode="\" horiz-adv-x="284" 
d="M323 -31q2 -5 3.5 -9.5t1.5 -11.5q0 -18 -14 -31t-33 -13q-15 0 -26 9.5t-16 23.5l-276 746q-5 13 -5 21q0 18 13.5 31.5t31.5 13.5q17 0 28.5 -10t16.5 -23z" />
    <glyph glyph-name="bracketright" unicode="]" horiz-adv-x="323" 
d="M242 -94q0 -18 -13.5 -31t-30.5 -13h-100q-18 0 -31 13t-13 31q0 17 13 29t31 12h52v715h-52q-18 0 -31 13t-13 29q0 18 13 31t31 13h100q17 0 30.5 -13t13.5 -31v-798z" />
    <glyph glyph-name="asciicircum" unicode="^" horiz-adv-x="597" 
d="M509 413q2 -5 4.5 -11t2.5 -11q0 -17 -14 -30.5t-32 -13.5q-13 0 -23.5 6.5t-16.5 16.5l-131 231l-131 -231q-6 -9 -17.5 -16t-23.5 -7q-18 0 -31.5 13.5t-13.5 30.5q0 7 2 12l4 10l170 290q5 10 15.5 18t25.5 8t25 -8t15 -18z" />
    <glyph glyph-name="underscore" unicode="_" horiz-adv-x="427" 
d="M20 -176q-18 0 -32 13.5t-14 31.5q0 17 14 30.5t32 13.5h389q17 0 31 -13.5t14 -30.5q0 -18 -14 -31.5t-31 -13.5h-389z" />
    <glyph glyph-name="grave" unicode="`" horiz-adv-x="214" 
d="M184 633q13 -19 13 -35q0 -17 -11.5 -27.5t-27.5 -10.5q-6 0 -14 2.5t-16 11.5l-97 113q-8 9 -11.5 18.5t-3.5 18.5q0 20 14 33.5t34 13.5q10 0 22.5 -5t23.5 -22z" />
    <glyph glyph-name="a" unicode="a" horiz-adv-x="482" 
d="M408 115q0 -11 3 -19t7 -14.5t7 -14t3 -16.5q0 -20 -15.5 -37.5t-45.5 -17.5q-17 0 -28.5 6.5t-18.5 16t-11 21t-6 22.5q-20 -35 -53.5 -54.5t-78.5 -19.5q-28 0 -52.5 8.5t-42.5 25t-28 41.5t-10 58q0 26 6 45t16 33t23 23t26 15q20 9 44 14t48 9t46.5 9t40.5 14v59
q0 30 -12 43t-40 13q-26 0 -39 -10.5t-27 -28.5q-9 -12 -20.5 -22.5t-33.5 -10.5q-27 0 -41 16.5t-14 41.5q0 21 10 41t27 37q23 21 57 33.5t85 12.5q36 0 66.5 -7.5t53 -27t35.5 -53t13 -84.5v-221zM291 220q-29 -16 -59 -22t-50 -17q-13 -7 -20.5 -18t-7.5 -29
q0 -25 14 -38t40 -13q29 0 49.5 15t33.5 38v84z" />
    <glyph glyph-name="b" unicode="b" horiz-adv-x="517" 
d="M181 451q20 26 51 42t72 16q48 0 80.5 -22.5t52 -59t28 -84t8.5 -97.5q0 -51 -8.5 -97.5t-28 -82.5t-51 -57t-77.5 -21q-43 0 -77.5 18t-54.5 48q-4 -23 -19 -40.5t-43 -17.5q-18 0 -28.5 7.5t-15.5 20.5t-6.5 28.5t-1.5 32.5v613q0 24 17 41t43 17q25 0 42 -17t17 -41
v-247zM181 117q15 -13 36 -20t41 -7q95 0 95 158q0 75 -22.5 116.5t-73.5 41.5q-23 0 -43 -8.5t-33 -24.5v-256z" />
    <glyph glyph-name="c" unicode="c" horiz-adv-x="489" 
d="M426 422q5 -8 9.5 -19.5t4.5 -24.5q0 -24 -16.5 -40t-38.5 -16q-23 0 -33.5 11t-18.5 25q-5 9 -10.5 17.5t-13.5 15t-20 11t-30 4.5q-41 0 -69 -37.5t-28 -117.5t29.5 -119.5t70.5 -39.5q26 0 42.5 12t24.5 29q6 14 17 28.5t36 14.5q22 0 38.5 -17.5t16.5 -40.5
q0 -14 -6 -28t-14 -27q-12 -17 -29.5 -31t-38.5 -23.5t-43.5 -15t-44.5 -5.5q-51 0 -91.5 19t-68.5 53.5t-43 83t-15 107.5q0 58 15.5 105.5t44 81.5t69 52.5t91.5 18.5t95.5 -22t67.5 -65z" />
    <glyph glyph-name="d" unicode="d" horiz-adv-x="530" 
d="M459 138q0 -32 6 -51.5t6 -34.5q0 -25 -17.5 -40.5t-42.5 -15.5q-21 0 -38.5 14.5t-25.5 52.5q-17 -32 -50.5 -53.5t-81.5 -21.5q-50 0 -83 21.5t-52.5 58t-28 83.5t-8.5 98t8.5 98t28 83t52.5 57.5t82 21.5q36 0 71 -19t55 -48v256q0 24 17 41t43 17q25 0 42 -17t17 -41
v-560zM340 373q-15 15 -37 24.5t-44 9.5q-48 0 -72 -40t-24 -117q0 -76 22 -119t73 -43q27 0 49 11t33 31v243z" />
    <glyph glyph-name="e" unicode="e" horiz-adv-x="517" 
d="M169 230q2 -68 27.5 -103t68.5 -35q26 0 45.5 12t35.5 32q8 11 19 18.5t29 7.5q26 0 41.5 -17t15.5 -37q0 -14 -6 -26t-14 -21q-30 -36 -74 -54.5t-94 -18.5t-90 19t-67.5 54t-42 83t-14.5 107q0 58 15 105.5t43 81.5t67.5 52.5t89.5 18.5q48 0 85.5 -17t63.5 -46.5
t39.5 -69.5t13.5 -86q0 -27 -16.5 -43.5t-49.5 -16.5h-231zM343 304q-3 51 -25 75.5t-57 24.5q-37 0 -62 -25.5t-30 -74.5h174z" />
    <glyph glyph-name="f" unicode="f" horiz-adv-x="377" 
d="M223 498h54q29 0 41.5 -15.5t12.5 -32.5q0 -20 -14 -33t-40 -13h-54v-338q0 -31 -13 -50.5t-47 -19.5t-47 20t-13 50v338h-34q-24 0 -36 14.5t-12 31.5t12 32.5t36 15.5h34v94q0 72 35 117.5t101 45.5q20 0 43 -3t42 -11.5t31.5 -23t12.5 -37.5q0 -22 -15.5 -34.5
t-31.5 -12.5q-11 0 -17.5 3t-12 6.5t-12.5 6.5t-20 3q-17 0 -26.5 -12.5t-9.5 -38.5v-103z" />
    <glyph glyph-name="g" unicode="g" horiz-adv-x="516" 
d="M453 3q0 -47 -12.5 -88t-37.5 -72t-61 -48.5t-82 -17.5q-38 0 -79.5 12.5t-69.5 38.5q-27 25 -27 57q0 23 15.5 40t39.5 17q20 0 32.5 -9.5t21.5 -19.5q14 -14 29.5 -22.5t38.5 -8.5q42 0 59.5 28.5t17.5 82.5v101q-20 -29 -52.5 -46t-76.5 -17q-48 0 -80 20t-51.5 53.5
t-27.5 77t-8 89.5q0 49 8.5 92t28 75.5t50.5 51.5t76 19t78 -18t56 -49q2 26 15.5 42.5t42.5 16.5q33 0 44.5 -22t11.5 -53v-423zM338 376q-16 14 -37 22t-46 8q-46 0 -69.5 -32t-23.5 -101q0 -66 22 -103.5t73 -37.5q53 0 81 36v208z" />
    <glyph glyph-name="h" unicode="h" horiz-adv-x="543" 
d="M197 462q6 7 15 15.5t23.5 15.5t34.5 11.5t47 4.5q31 0 57.5 -13.5t46 -39.5t31 -64.5t11.5 -87.5v-166q0 -32 5.5 -51.5t5.5 -34.5q0 -25 -17 -40.5t-43 -15.5q-23 0 -36.5 12t-21 31.5t-10 45t-2.5 52.5v176q0 19 -3.5 36.5t-12.5 31t-24 22t-37 8.5q-26 0 -43.5 -8
t-26.5 -20v-330q0 -24 -17.5 -40.5t-42.5 -16.5q-23 0 -41.5 16.5t-18.5 40.5v645q0 23 17 40.5t43 17.5q25 0 42.5 -17.5t17.5 -40.5v-236z" />
    <glyph glyph-name="i" unicode="i" horiz-adv-x="282" 
d="M72 0zM197 138q0 -16 1.5 -28t4 -21.5t4 -18t1.5 -17.5q0 -24 -17 -40.5t-42 -16.5q-23 0 -37 12t-21.5 31.5t-10 45t-2.5 52.5v307q0 25 14.5 41.5t45.5 16.5q24 0 41.5 -17t17.5 -41v-306zM72 672q0 26 18.5 44t46.5 18q27 0 45.5 -18t18.5 -44t-18.5 -43.5
t-45.5 -17.5q-28 0 -46.5 17.5t-18.5 43.5z" />
    <glyph glyph-name="j" unicode="j" horiz-adv-x="304" 
d="M0 0zM226 -59q0 -76 -32.5 -120t-107.5 -44q-19 0 -39.5 3.5t-37 11.5t-27 22t-10.5 34q0 27 16 39t33 12q10 0 17 -3.5t13 -8t12 -8t15 -3.5q18 0 23.5 15.5t5.5 42.5v511q0 24 16.5 40.5t42.5 16.5t43 -16.5t17 -40.5v-504zM101 672q0 26 18.5 44t46.5 18
q27 0 45.5 -18t18.5 -44t-18.5 -43.5t-45.5 -17.5q-28 0 -46.5 17.5t-18.5 43.5z" />
    <glyph glyph-name="k" unicode="k" horiz-adv-x="495" 
d="M201 289h35l112 182q8 12 20 21.5t29 9.5q23 0 38.5 -15.5t15.5 -37.5q0 -17 -10 -30l-104 -157l115 -172q6 -9 10.5 -18t4.5 -20q0 -23 -18.5 -39t-43.5 -16q-21 0 -36.5 11.5t-26.5 29.5l-106 169h-35v-145q0 -28 -14 -47t-45 -19t-45.5 19t-14.5 48v635q0 24 14.5 41
t42.5 17q29 0 45.5 -17.5t16.5 -40.5v-409z" />
    <glyph glyph-name="l" unicode="l" horiz-adv-x="276" 
d="M197 138q0 -32 5.5 -51.5t5.5 -34.5q0 -25 -17.5 -40.5t-42.5 -15.5q-23 0 -37 12t-21.5 32t-9.5 45t-2 52v561q0 24 17 41t43 17q25 0 42 -17t17 -41v-560z" />
    <glyph glyph-name="m" unicode="m" horiz-adv-x="767" 
d="M686 138q0 -32 4 -49t6 -36q0 -24 -17 -40.5t-43 -16.5q-22 0 -35.5 12t-21 32t-10 45t-2.5 52v176q0 18 -3 35.5t-10.5 31.5t-20.5 22.5t-34 8.5q-19 0 -36.5 -9.5t-34.5 -33.5q5 -28 5 -57v-173q0 -32 3.5 -50.5t3.5 -32.5q0 -27 -17 -43t-43 -16q-22 0 -35 11.5
t-20 31t-9 44.5t-2 53v177q0 17 -2.5 34.5t-10 31.5t-20.5 23t-34 9q-42 0 -66 -33v-325q0 -23 -17.5 -40t-43.5 -17q-29 0 -43.5 22t-14.5 51v293q0 34 -5.5 51.5t-5.5 34.5q0 21 12 37.5t37 16.5q23 0 42.5 -15.5t27.5 -39.5q23 27 51.5 44t65.5 17q40 0 71 -21t50 -59
q23 36 57 58.5t76 22.5q64 0 104.5 -54t40.5 -151v-166z" />
    <glyph glyph-name="n" unicode="n" horiz-adv-x="529" 
d="M448 136q0 -17 1.5 -29.5t4 -22t4 -17.5t1.5 -17q0 -23 -18 -38.5t-44 -15.5q-22 0 -35.5 12t-20.5 31.5t-9.5 44t-2.5 50.5v179q0 17 -4 34.5t-13 31.5t-24 23t-36 9q-47 0 -71 -33v-325q0 -23 -17.5 -40t-41.5 -17q-32 0 -46 22t-14 51v289q0 33 -5.5 50.5t-5.5 34.5
q0 23 14 41t46 18q23 0 36.5 -15t22.5 -40q22 26 51.5 44t79.5 18q63 0 105 -53t42 -152v-168z" />
    <glyph glyph-name="o" unicode="o" horiz-adv-x="527" 
d="M264 397q-49 0 -75.5 -37t-26.5 -109t26.5 -112.5t75.5 -40.5q48 0 74.5 40.5t26.5 112.5t-26.5 109t-74.5 37zM264 509q52 0 93 -18.5t69.5 -52t43 -81.5t14.5 -106q0 -59 -14.5 -107.5t-43 -83t-69.5 -53.5t-93 -19q-53 0 -94.5 19t-70 53.5t-43 83t-14.5 107.5
q0 58 14.5 106t43 81.5t70 52t94.5 18.5z" />
    <glyph glyph-name="p" unicode="p" horiz-adv-x="522" 
d="M174 432q17 33 51 54.5t83 21.5t81.5 -22t52 -58t28 -83t8.5 -98q0 -50 -8 -96.5t-27.5 -82.5t-51.5 -58t-81 -22q-36 0 -73 17.5t-56 48.5v-220q0 -24 -17.5 -40.5t-42.5 -16.5t-42 16.5t-17 40.5v524q0 31 -5.5 51t-5.5 36q0 25 17.5 41t42.5 16q22 0 38 -15.5
t25 -54.5zM181 122q16 -15 38 -23t44 -8q95 0 95 155q0 77 -22.5 118.5t-71.5 41.5q-27 0 -49 -11t-34 -30v-243z" />
    <glyph glyph-name="q" unicode="q" horiz-adv-x="518" 
d="M454 -166q0 -24 -17 -40.5t-43 -16.5q-25 0 -42 16.5t-17 40.5v209q-20 -26 -52 -40.5t-70 -14.5q-49 0 -81.5 22t-52 59t-28 83.5t-8.5 96.5q0 51 8.5 98t28 82.5t52.5 57t82 21.5q36 0 70.5 -18t55.5 -48q3 26 16 43.5t38 17.5q35 0 47.5 -22t12.5 -64v-583zM335 378
q-16 13 -36 20.5t-40 7.5q-48 0 -72 -39.5t-24 -116.5q0 -76 22 -118t73 -42q24 0 44 8t33 24v256z" />
    <glyph glyph-name="r" unicode="r" horiz-adv-x="416" 
d="M181 65q0 -29 -15 -49t-44 -20q-30 0 -45 20.5t-15 49.5v299q0 17 -1.5 29.5t-4 22t-4 18t-1.5 17.5q0 22 17.5 36t35.5 14q34 0 49.5 -21t19.5 -51q53 79 130 79q17 0 34 -4.5t30.5 -14t22 -23.5t8.5 -33q0 -26 -18 -42t-46 -16q-13 0 -22 3.5t-18.5 8t-21 8t-29.5 3.5
q-13 0 -34 -9t-28 -23v-302z" />
    <glyph glyph-name="s" unicode="s" horiz-adv-x="465" 
d="M383 452q8 -11 13 -23t5 -27q0 -19 -15 -34.5t-34 -15.5q-30 0 -45 15q-8 7 -13.5 14t-15.5 15q-9 8 -23.5 13t-34.5 5q-26 0 -39 -12t-13 -30q0 -16 10.5 -26.5t27.5 -18.5q28 -14 66 -24t72 -30q31 -17 51 -44.5t20 -74.5q0 -42 -14 -73t-39.5 -51.5t-60.5 -31
t-77 -10.5q-41 0 -85.5 15.5t-73.5 52.5q-9 11 -17 24.5t-8 30.5q0 23 15.5 37t36.5 14q22 0 36 -7.5t25 -23.5t31 -29.5t42 -13.5q30 0 51.5 14t21.5 35q0 20 -12.5 32.5t-32.5 20.5q-34 12 -67 23t-59 26q-33 19 -53.5 47t-20.5 76q0 36 15 63.5t39.5 46t56.5 27.5t66 9
q52 0 90.5 -14.5t61.5 -41.5z" />
    <glyph glyph-name="t" unicode="t" horiz-adv-x="389" 
d="M224 498h80q25 0 37 -14.5t12 -32.5q0 -17 -12 -32t-37 -15h-80v-273q0 -23 10 -31.5t20 -8.5q7 0 13 3t12 7t13 7t17 3q19 0 36 -12t17 -35q0 -21 -10.5 -35.5t-27 -23.5t-36.5 -13t-39 -4q-75 0 -110 46.5t-35 128.5v241h-33q-23 0 -36 13t-13 34q0 17 13 32t36 15h33
v75q0 26 15.5 46.5t44.5 20.5q26 0 43 -15.5t17 -41.5v-85z" />
    <glyph glyph-name="u" unicode="u" horiz-adv-x="545" 
d="M472 192q0 -37 -7.5 -73.5t-28.5 -65.5t-59.5 -47t-100.5 -18q-61 0 -99.5 18t-60.5 47.5t-30 66t-8 73.5v252q0 24 16.5 40.5t42.5 16.5t43 -16.5t17 -40.5v-256q0 -87 79 -87q78 0 78 85v258q0 24 17.5 40.5t41.5 16.5t41.5 -16.5t17.5 -40.5v-253z" />
    <glyph glyph-name="v" unicode="v" horiz-adv-x="438" 
d="M278 35q-7 -19 -22.5 -29t-35.5 -10q-41 0 -57 39l-143 382q-2 5 -4.5 11t-2.5 16q0 25 17.5 41.5t43.5 16.5q27 0 40.5 -14t19.5 -34l87 -267l91 276q6 17 20.5 28t34.5 11q24 0 40.5 -15.5t16.5 -38.5q0 -5 -1 -10.5t-3 -10.5z" />
    <glyph glyph-name="w" unicode="w" horiz-adv-x="673" 
d="M523 35q-6 -19 -20.5 -29t-33.5 -10q-44 0 -55 39l-79 261l-74 -260q-5 -19 -20 -29.5t-35 -10.5q-43 0 -55 39l-131 383q-2 5 -3 10.5t-1 16.5q0 24 16 40.5t42 16.5q20 0 36.5 -11t22.5 -33l73 -267l76 271q5 17 20.5 28.5t35.5 11.5q22 0 35.5 -11t18.5 -28l81 -272
l77 275q5 16 19 26t33 10q25 0 40.5 -15t15.5 -38q0 -6 -1 -11t-2 -8z" />
    <glyph glyph-name="x" unicode="x" horiz-adv-x="422" 
d="M278 263l115 -172q5 -8 9.5 -17.5t4.5 -20.5q0 -23 -17.5 -40t-43.5 -17q-16 0 -30 7t-23 22l-87 136l-88 -139q-16 -26 -48 -26q-23 0 -38 15t-15 37q0 14 10 31l117 174l-104 157q-10 13 -10 31q0 25 17 43t44 18q16 0 29.5 -6.5t21.5 -19.5l74 -121l73 116q8 13 20 22
t28 9q23 0 39 -15.5t16 -36.5q0 -16 -10 -31z" />
    <glyph glyph-name="y" unicode="y" horiz-adv-x="435" 
d="M227 -87q-5 -12 -16.5 -35t-28.5 -45.5t-38.5 -39t-45.5 -16.5q-25 0 -42.5 16t-17.5 40q0 17 8.5 29.5t21.5 20.5q24 14 38 36.5t23 47.5l27 70l-144 379q-2 5 -3.5 11.5t-1.5 16.5q0 22 17 40t44 18q25 0 38.5 -11.5t19.5 -29.5l89 -274l91 275q5 17 20 28.5t35 11.5
q23 0 40 -16.5t17 -38.5q0 -10 -4 -20z" />
    <glyph glyph-name="z" unicode="z" horiz-adv-x="458" 
d="M196 112h166q24 0 40.5 -17t16.5 -40q0 -24 -16.5 -39.5t-40.5 -15.5h-262q-25 0 -42 16t-17 41q0 8 4 17.5t9 17.5l197 295h-154q-25 0 -42 16t-17 39t17 39.5t42 16.5h249q26 0 43 -17t17 -40q0 -10 -3.5 -18.5t-7.5 -14.5z" />
    <glyph glyph-name="braceleft" unicode="{" horiz-adv-x="339" 
d="M139 305q27 -17 40 -43t18.5 -62.5t5.5 -85.5t2 -112q1 -35 16 -44t44 -9q18 0 31 -12t13 -29q0 -18 -13 -31.5t-31 -13.5q-39 0 -68 7.5t-47.5 27.5t-27.5 54.5t-9 87.5q0 55 -1 95t-5 66.5t-12.5 41.5t-24.5 20q-14 5 -24 16.5t-10 25.5q0 16 10 27t24 16
q16 5 24.5 19.5t12.5 41t5 66t1 95.5q0 54 9 88t27.5 54t47.5 27.5t68 7.5q18 0 31 -13.5t13 -31.5q0 -16 -13 -28.5t-31 -12.5q-29 0 -44 -9t-16 -45q-2 -64 -2.5 -113t-5.5 -85t-18 -61.5t-40 -42.5z" />
    <glyph glyph-name="bar" unicode="|" horiz-adv-x="249" 
d="M171 -175q0 -18 -14 -31t-33 -13q-18 0 -31.5 13t-13.5 31v896q0 18 13.5 31.5t31.5 13.5q19 0 33 -13.5t14 -31.5v-896z" />
    <glyph glyph-name="braceright" unicode="}" horiz-adv-x="339" 
d="M199 305q-28 18 -41 43t-18.5 61.5t-5.5 85t-2 112.5q-1 36 -15.5 45t-43.5 9q-17 0 -31 12.5t-14 28.5q0 18 14 31.5t31 13.5q39 0 68 -7.5t48 -27.5t28 -54.5t9 -87.5q0 -56 1 -95.5t5 -66t12 -41t23 -19.5q14 -5 24.5 -16t10.5 -27q0 -14 -10.5 -25.5t-24.5 -16.5
q-15 -5 -23.5 -19t-12 -38.5t-4.5 -60.5t-1 -85q0 -60 -8 -98t-26.5 -60t-47.5 -30.5t-71 -8.5q-17 0 -31 13.5t-14 31.5q0 17 14 29t31 12q29 0 43.5 9t15.5 44q2 63 2.5 112t5.5 85.5t18 62.5t41 43z" />
    <glyph glyph-name="asciitilde" unicode="~" 
d="M443 362q19 0 31 -10.5t12 -32.5q0 -19 -15 -43q-17 -26 -47.5 -41.5t-56.5 -15.5q-24 0 -43.5 8.5t-37 19t-34 19.5t-34.5 9t-28 -9t-15 -22q-5 -11 -16.5 -18t-24.5 -7q-18 0 -30.5 11t-12.5 33q0 20 16 42q17 25 44.5 41t59.5 16q24 0 42.5 -9t36 -19.5t34 -19
t35.5 -8.5q18 0 28 9.5t15 21.5q6 12 17 18.5t24 6.5z" />
    <glyph glyph-name="nonbreakingspace" unicode="&#xa0;" horiz-adv-x="230" 
 />
    <glyph glyph-name="exclamdown" unicode="&#xa1;" horiz-adv-x="439" 
d="M165 347q1 21 16.5 36.5t38.5 15.5q22 0 37.5 -15.5t16.5 -36.5l13 -439q0 -26 -19.5 -45t-47.5 -19q-29 0 -48.5 19t-19.5 45zM148 526q0 29 21 49t51 20q29 0 50 -20t21 -49t-21 -49t-50 -20q-30 0 -51 20t-21 49z" />
    <glyph glyph-name="cent" unicode="&#xa2;" 
d="M356 617q22 -5 45.5 -16t42.5 -27t31 -34.5t12 -37.5q0 -13 -5.5 -21.5t-13.5 -14t-17.5 -8t-17.5 -2.5q-20 0 -26.5 9t-11.5 17q-29 50 -84 50q-29 0 -52.5 -13t-40 -36t-25 -55t-8.5 -70q0 -39 9 -72.5t25.5 -57.5t39 -37.5t49.5 -13.5q26 0 44 11t29 25q5 7 10 15
t11 14.5t14 11t19 4.5q20 0 34 -13.5t14 -33.5q0 -18 -11 -36t-29 -34t-41 -29t-46 -20v-51q0 -17 -15 -31t-34 -14t-33 13.5t-14 31.5v52q-39 10 -70.5 34t-53.5 58t-33.5 77.5t-11.5 92.5t12 92.5t33.5 77t53 57t70.5 32.5v51q0 18 14 33t34 15q19 0 33.5 -14.5
t14.5 -33.5v-48z" />
    <glyph glyph-name="sterling" unicode="&#xa3;" 
d="M351 397q24 0 35.5 -13t11.5 -31q0 -20 -12 -33.5t-35 -13.5h-113q-2 -59 -6 -108.5t-14 -86.5q33 0 57 -4t43.5 -8.5t37 -8t38.5 -3.5q27 0 41 5t32 5q23 0 36.5 -11.5t13.5 -32.5q0 -20 -11 -30t-27 -15q-22 -7 -49 -9.5t-47 -2.5q-30 0 -53 4t-43.5 9t-39 9t-38.5 4
q-21 0 -34.5 -4t-25 -9t-21.5 -9t-23 -4q-24 0 -34 14t-10 28q0 24 19.5 39t42.5 22q11 49 16 101.5t7 105.5h-21q-17 0 -31 13.5t-14 32.5t13.5 32t31.5 13h22q2 52 9 107.5t27.5 102t58.5 76.5t101 30q42 0 77.5 -14.5t57.5 -43.5q9 -12 16 -28t7 -31q0 -22 -15.5 -33
t-34.5 -11q-20 0 -28 10t-15 24q-17 35 -61 35q-30 0 -49.5 -13t-31 -40.5t-17 -70t-8.5 -100.5h110z" />
    <glyph glyph-name="currency" unicode="&#xa4;" horiz-adv-x="568" 
d="M445 449q15 -44 15 -94q0 -52 -15 -94l65 -64q14 -16 14 -36q0 -18 -13 -31.5t-32 -13.5q-21 0 -35 14l-53 53q-43 -35 -107 -35q-62 0 -105 35l-53 -53q-8 -8 -17 -11t-18 -3q-19 0 -32 13.5t-13 31.5q0 20 14 36l65 64q-15 42 -15 94q0 50 15 94l-65 64q-14 14 -14 35
q0 19 13 32.5t32 13.5q8 0 18 -3.5t17 -11.5l53 -52q21 17 49.5 28t60.5 11t56.5 -11t45.5 -28l53 52q7 8 16.5 11.5t18.5 3.5q19 0 32 -13.5t13 -32.5q0 -21 -14 -35zM284 232q47 0 68.5 32t21.5 91q0 58 -21.5 90.5t-68.5 32.5q-45 0 -67.5 -32.5t-22.5 -90.5
q0 -59 22.5 -91t67.5 -32z" />
    <glyph glyph-name="yen" unicode="&#xa5;" 
d="M289 426l149 260q6 11 17 19t25 8q20 0 34 -14t14 -32q0 -11 -7 -23l-173 -289h85q17 0 31 -13.5t14 -30.5q0 -19 -14 -32t-31 -13h-98v-55h98q17 0 31 -13t14 -32q0 -17 -14 -30t-31 -13h-98v-81q0 -19 -13 -32.5t-34 -13.5q-22 0 -34.5 13.5t-12.5 32.5v81h-96
q-18 0 -31.5 13t-13.5 30q0 19 13.5 32t31.5 13h96v55h-96q-18 0 -31.5 13t-13.5 32q0 17 13.5 30.5t31.5 13.5h81l-168 287q-7 11 -7 25q0 18 13.5 32t33.5 14q16 0 26 -9t16 -19z" />
    <glyph glyph-name="brokenbar" unicode="&#xa6;" horiz-adv-x="249" 
d="M171 -158q0 -18 -14 -31.5t-33 -13.5q-18 0 -31.5 13.5t-13.5 31.5v324q0 17 13.5 30.5t31.5 13.5q19 0 33 -13.5t14 -30.5v-324zM171 378q0 -18 -14 -31.5t-33 -13.5q-18 0 -31.5 13.5t-13.5 31.5v322q0 18 13.5 32t31.5 14q19 0 33 -14t14 -32v-322z" />
    <glyph glyph-name="section" unicode="&#xa7;" horiz-adv-x="584" 
d="M412 262q35 -18 49.5 -42.5t14.5 -62.5q0 -41 -14 -72.5t-38.5 -53t-57.5 -32.5t-72 -11q-38 0 -72 10t-59.5 27.5t-40 40t-14.5 47.5t14.5 41t40.5 16q20 0 30 -8.5t17 -19.5q4 -7 10.5 -17t16.5 -19t24 -15t32 -6q26 0 47.5 14t21.5 41q0 18 -11 29t-29 19
q-31 14 -66.5 25t-65.5 27.5t-50 43.5t-20 73q0 75 67 113q-33 19 -50.5 45.5t-17.5 68.5q0 70 47.5 107.5t127.5 37.5q34 0 64.5 -7t53 -20.5t36 -33t13.5 -44.5q0 -28 -16 -43.5t-42 -15.5q-23 0 -33.5 10.5t-15.5 23.5q-8 20 -28 28.5t-40 8.5q-27 0 -41.5 -12t-14.5 -31
q0 -22 18 -34t45.5 -20.5t59 -17.5t59 -25.5t45.5 -44.5t18 -75q0 -45 -17 -71t-46 -43zM261 434q-15 -8 -26.5 -24t-11.5 -37q0 -17 8.5 -28t24 -19t36.5 -15.5t46 -16.5q15 11 22 28.5t7 32.5q0 29 -25.5 45.5t-80.5 33.5z" />
    <glyph glyph-name="dieresis" unicode="&#xa8;" horiz-adv-x="354" 
d="M212 672q0 26 18 44t46 18q27 0 45.5 -18t18.5 -44t-18.5 -43.5t-45.5 -17.5q-28 0 -46 17.5t-18 43.5zM13 672q0 26 18.5 44t46.5 18q27 0 45.5 -18t18.5 -44t-18.5 -43.5t-45.5 -17.5q-28 0 -46.5 17.5t-18.5 43.5z" />
    <glyph glyph-name="copyright" unicode="&#xa9;" horiz-adv-x="717" 
d="M359 714q69 0 130 -28t106.5 -77.5t72 -116t26.5 -142.5q0 -77 -26.5 -143t-72 -115.5t-106.5 -77.5t-130 -28q-70 0 -131 28.5t-106.5 77.5t-72 115.5t-26.5 142.5t26.5 142.5t72 115.5t106.5 77.5t131 28.5zM359 648q-59 0 -109 -22.5t-86.5 -62.5t-57 -94.5
t-20.5 -118.5t20.5 -119t57 -95t86.5 -63t109 -23q58 0 108 23t86.5 63t57 95t20.5 119t-20.5 118.5t-57 94.5t-86.5 62.5t-108 22.5zM498 507q4 -6 7 -14t3 -16q0 -12 -8 -20.5t-23 -8.5q-14 0 -19 6.5t-8 13.5q-13 26 -36.5 38.5t-52.5 12.5q-60 0 -94 -47.5t-34 -122.5
q0 -38 9 -70.5t25.5 -55.5t39.5 -36t51 -13q40 0 64 22q7 6 11 13t9 15t13 15.5t20 7.5t21 -8.5t9 -21.5q0 -11 -8 -25q-7 -13 -17 -25t-22 -21q-40 -31 -98 -31q-44 0 -79 17.5t-59.5 49t-37.5 73.5t-13 92t13.5 92.5t38 73.5t59.5 48.5t78 17.5q45 0 81.5 -18.5
t56.5 -53.5z" />
    <glyph glyph-name="ordfeminine" unicode="&#xaa;" horiz-adv-x="396" 
d="M330 393q0 -9 2.5 -15t5.5 -10.5t5.5 -10t2.5 -12.5q0 -19 -15 -31t-36 -12q-13 0 -21 4.5t-13.5 11.5t-8 15t-4.5 16q-18 -29 -42.5 -41t-53.5 -12q-45 0 -73 25.5t-28 75.5q0 33 13 54t36 33q15 8 33 12t36.5 7t35.5 6.5t31 9.5v44q0 37 -37 37q-14 0 -24.5 -5.5
t-21.5 -19.5q-8 -9 -16.5 -18.5t-26.5 -9.5q-22 0 -32.5 13.5t-10.5 31.5q0 25 17 47q16 21 45 34.5t76 13.5q27 0 49.5 -5.5t39.5 -20.5t26.5 -40t9.5 -64v-164zM238 469q-17 -9 -38.5 -14.5t-35.5 -13.5q-10 -5 -16 -13t-6 -21q0 -34 38 -34q36 0 58 36v60z" />
    <glyph glyph-name="guillemotleft" unicode="&#xab;" horiz-adv-x="444" 
d="M27 0zM338 481q10 21 35 21q18 0 30 -12t12 -32q0 -10 -3 -19l-86 -190l86 -191q3 -9 3 -19q0 -20 -11.5 -31.5t-30.5 -11.5q-25 0 -35 20l-114 233zM141 481q10 21 35 21q18 0 30 -12t12 -32q0 -10 -3 -19l-86 -190l86 -191q3 -9 3 -19q0 -20 -11.5 -31.5t-30.5 -11.5
q-25 0 -35 20l-114 233z" />
    <glyph glyph-name="logicalnot" unicode="&#xac;" 
d="M458 338q20 0 33.5 -13.5t13.5 -31.5v-146q0 -19 -13.5 -32.5t-33.5 -13.5q-19 0 -33 13.5t-14 32.5v100h-292q-18 0 -31.5 13.5t-13.5 32.5q0 18 13.5 31.5t31.5 13.5h339z" />
    <glyph glyph-name="uni00AD" unicode="&#xad;" horiz-adv-x="0" 
 />
    <glyph glyph-name="registered" unicode="&#xae;" horiz-adv-x="469" 
d="M219 651q21 0 40 -3.5t33 -12.5t22 -24.5t8 -40.5q0 -30 -12.5 -47.5t-32.5 -26.5l49 -82q2 -3 3 -6.5t1 -5.5q0 -9 -6.5 -14.5t-14.5 -5.5q-13 0 -19 10l-57 96h-31v-86q0 -9 -7.5 -14.5t-14.5 -5.5q-8 0 -15 5.5t-7 14.5v228q0 8 7 14.5t15 6.5h39zM202 608v-77h34
q18 0 30.5 9t12.5 30q0 20 -12.5 29t-29.5 9h-35zM235 739q44 0 82.5 -16.5t67 -46t45 -71t16.5 -90.5q0 -50 -16.5 -92t-45 -72.5t-67 -47.5t-82.5 -17t-82.5 17t-67 47.5t-45 72.5t-16.5 92q0 49 16.5 90.5t45 71t67 46t82.5 16.5zM235 693q-36 0 -66.5 -12.5t-53 -35.5
t-35.5 -56t-13 -74q0 -42 13 -76t35.5 -57.5t53 -36.5t66.5 -13t66 13t52.5 36.5t35 57.5t12.5 76q0 41 -12.5 74t-35 56t-52.5 35.5t-66 12.5z" />
    <glyph glyph-name="macron" unicode="&#xaf;" horiz-adv-x="398" 
d="M342 716q17 0 29 -12t12 -28q0 -17 -12 -29t-29 -12h-286q-17 0 -29.5 12t-12.5 29q0 16 12.5 28t29.5 12h286z" />
    <glyph glyph-name="degree" unicode="&#xb0;" horiz-adv-x="341" 
d="M171 722q26 0 48 -10.5t38.5 -28.5t26 -42.5t9.5 -52.5q0 -29 -9.5 -53.5t-26 -42.5t-38.5 -28t-48 -10q-27 0 -49.5 10t-39 28t-25.5 42.5t-9 53.5q0 28 9 52.5t25.5 42.5t39 28.5t49.5 10.5zM170 661q-27 0 -43 -20t-16 -53t16 -53.5t44 -20.5q26 0 42.5 20.5
t16.5 53.5t-16.5 53t-43.5 20z" />
    <glyph glyph-name="plusminus" unicode="&#xb1;" 
d="M73 0zM334 338h124q19 0 33 -13.5t14 -31.5q0 -19 -14 -32.5t-33 -13.5h-124v-124q0 -19 -13.5 -32.5t-31.5 -13.5q-19 0 -32.5 13.5t-13.5 32.5v124h-123q-19 0 -33 13.5t-14 32.5q0 18 14 31.5t33 13.5h123v123q0 19 13.5 33t32.5 14q18 0 31.5 -14t13.5 -33v-123z
M120 -78q-19 0 -33 13.5t-14 32.5q0 18 14 31.5t33 13.5h338q19 0 33 -13.5t14 -31.5q0 -19 -14 -32.5t-33 -13.5h-338z" />
    <glyph glyph-name="twosuperior" unicode="&#xb2;" horiz-adv-x="377" 
d="M50 310zM98.3965 310q-18.5996 0 -33.2988 9q-14.6992 8.99902 -14.6992 28.7988q0 3 1.2002 7.49902q1.2002 4.5 7.19922 12.8994q8.40039 12 25.499 32.6992q17.0996 20.6992 35.999 41.998t35.3984 39.8984t23.6992 26.3984q25.1982 28.1992 40.1982 53.6982
q14.999 25.499 14.999 50.0977q0 10.2002 -3 20.0996q-2.99902 9.89941 -8.99902 17.3994t-15.5996 11.999q-9.59961 4.5 -22.1992 4.5q-10.1992 0 -19.499 -3.2998t-15.8994 -11.0996q-6.59961 -8.39941 -8.39941 -16.7988q-1.7998 -8.40039 -4.7998 -17.3994
q-3.59961 -12.5996 -11.7002 -22.499q-8.09961 -9.90039 -23.0986 -9.90039q-6.59961 0 -13.499 2.40039q-6.90039 2.40039 -12.8994 7.5q-6 5.09961 -9.59961 12.8994q-3.60059 7.7998 -3.60059 19.1992q0 17.3994 9 37.1982q8.99902 19.7988 24.5986 35.3984
q15.5996 16.1992 38.6982 26.6992q23.0996 10.499 51.2979 10.499q25.1992 0 47.6982 -8.99902q22.499 -9 39.5986 -25.1992t26.999 -38.998q9.89941 -22.7998 9.89941 -49.7988q0 -32.3984 -13.7988 -62.6973q-13.7998 -30.2988 -35.6992 -58.7969
q-21.8984 -28.499 -48.5977 -56.0977q-26.6992 -27.5996 -52.498 -55.1982h130.194q13.2002 0 25.1992 -9.2998q12 -9.2998 12 -27.2988q0 -17.3994 -11.3994 -26.3984q-11.4004 -9 -26.3994 -9h-190.192z" />
    <glyph glyph-name="threesuperior" unicode="&#xb3;" horiz-adv-x="377" 
d="M55 302zM249.591 536.19q31.7979 -11.999 51.5977 -38.3984q19.7988 -26.3984 19.7988 -65.9971q0 -29.3984 -11.3994 -53.0977t-30.5986 -40.498q-19.1992 -16.7998 -43.7979 -26.0996q-24.5996 -9.29883 -50.3984 -9.29883q-17.3994 0 -35.0986 4.19922
q-17.6992 4.2002 -33.5986 12.2998t-29.0986 19.499t-20.999 26.3984q-4.7998 9 -7.5 18.8994q-2.69922 9.89941 -2.69922 18.2998q0 16.7988 10.7988 28.1982q10.7998 11.3994 28.1992 11.3994q11.999 0 19.499 -5.99902q7.5 -6 12.8994 -16.1992
q4.7998 -10.2002 9.89941 -18.5996q5.10059 -8.39941 11.3994 -14.999q6.2998 -6.59961 15.2998 -10.2002q9 -3.59961 21.5986 -3.59961q28.1992 0 44.6982 17.0996q16.5 17.0986 16.5 47.6982q0 15.5986 -4.5 26.6982t-12.8994 19.499q-13.1992 12.5996 -29.0986 14.7002
q-15.8994 2.09961 -29.0986 3.89941q-19.7998 3 -26.999 13.499q-7.2002 10.5 -7.2002 20.6992q0 18 13.7998 24.5996q13.7988 6.59961 30.5986 8.39941q12.5996 1.2002 21.8994 3.59961q9.29883 2.40039 17.0986 9t11.3994 16.1992q3.60059 9.59961 3.60059 20.999
q0 25.1992 -15.2998 38.0986t-36.2988 12.8994q-16.1992 0 -25.7988 -6.89941q-9.59961 -6.90039 -16.1992 -17.0996q-3.59961 -5.39941 -6.89941 -12q-3.2998 -6.59961 -7.7998 -11.999t-10.5 -9.2998q-5.99902 -3.89941 -14.3994 -3.89941q-14.999 0 -27.2988 11.0996
q-12.2988 11.0996 -12.2988 28.499q0 4.79883 1.5 11.999t6.29883 16.1992q15.5996 30.5986 45.5986 45.8984q29.999 15.2988 64.1973 15.2988q23.3994 0 46.498 -7.19922q23.0996 -7.2002 41.3984 -21.2988q18.2998 -14.0996 29.3984 -35.3994
q11.0996 -21.2988 11.0996 -49.498q0 -34.1982 -16.1992 -56.0977q-16.1992 -21.8984 -42.5977 -32.0986z" />
    <glyph glyph-name="acute" unicode="&#xb4;" horiz-adv-x="214" 
d="M103 744q11 15 22.5 21t23.5 6q21 0 34.5 -13.5t13.5 -33.5t-14 -37l-98 -113q-7 -8 -14.5 -11t-15.5 -3q-15 0 -27 10.5t-12 27.5t14 35z" />
    <glyph glyph-name="uni00B5" unicode="&#xb5;" 
d="M184 112q18 -20 42 -29t55 -9q92 0 92 109v275q0 18 13 31t33 13q18 0 31.5 -13t13.5 -31v-361q0 -9 3.5 -17t7.5 -15t7.5 -13.5t3.5 -13.5q0 -18 -13 -30t-33 -12t-35 15.5t-16 41.5q-17 -35 -44.5 -49.5t-62.5 -14.5q-29 0 -56 10t-42 31v-209q0 -19 -13 -31.5
t-33 -12.5t-33 12.5t-13 31.5v637q0 18 13 31t33 13t33 -13t13 -31v-346z" />
    <glyph glyph-name="paragraph" unicode="&#xb6;" horiz-adv-x="569" 
d="M482 37q0 -41 -45 -41t-45 41v600h-97v-600q0 -41 -46 -41q-43 0 -43 41v335h-23q-120 0 -120 154v44q0 154 120 154h264q16 0 25.5 -10t9.5 -22v-655z" />
    <glyph glyph-name="periodcentered" unicode="&#xb7;" horiz-adv-x="327" 
d="M235 294q0 -29 -21 -49.5t-51 -20.5q-29 0 -50 20.5t-21 49.5t21 49t50 20q30 0 51 -20t21 -49z" />
    <glyph glyph-name="cedilla" unicode="&#xb8;" horiz-adv-x="135" 
d="M47 -117q-18 6 -26 20.5t-8 28.5q0 18 13.5 34t40.5 16q53 0 53 -70q0 -20 -4.5 -43t-13 -43t-20.5 -33.5t-27 -13.5q-11 0 -15.5 6.5t-4.5 14.5q0 11 6.5 27.5t6.5 36.5v9.5t-1 9.5z" />
    <glyph glyph-name="onesuperior" unicode="&#xb9;" horiz-adv-x="377" 
d="M80 307zM235.391 342.999q0 -13.7998 -11.6992 -24.5996t-26.6992 -10.7998q-14.3984 0 -25.7988 10.7998q-11.3994 10.7998 -11.3994 24.5996v277.788l-20.3994 -12.5996q-4.19922 -3 -10.499 -4.49902q-6.2998 -1.5 -12.2998 -1.5q-16.1992 0 -26.0986 11.0996
q-9.89941 11.0986 -9.89941 25.499q0 12.5986 7.19922 20.3984q7.2002 7.7998 19.1992 13.1992q7.7998 3.60059 14.3994 6.90039t12.5996 8.09961t12.5996 11.3994t14.3994 17.3994q4.7998 6.59961 12.5996 14.0996q7.7998 7.49902 22.1992 7.49902
q17.3994 0 28.499 -11.3994q11.0986 -11.3994 11.0986 -26.3984v-356.985z" />
    <glyph glyph-name="ordmasculine" unicode="&#xba;" horiz-adv-x="425" 
d="M206 601q-35 0 -54 -27.5t-19 -79.5q0 -53 19 -81.5t54 -28.5t53.5 28.5t18.5 81.5q0 52 -18.5 79.5t-53.5 27.5zM205 688q80 0 123.5 -53.5t43.5 -140.5q0 -44 -11 -80t-32.5 -62t-52.5 -40.5t-71 -14.5q-80 0 -123 54t-43 143t43 141.5t123 52.5z" />
    <glyph glyph-name="guillemotright" unicode="&#xbb;" horiz-adv-x="444" 
d="M27 0zM416 249l-114 -232q-10 -21 -35 -21q-20 0 -31.5 11.5t-11.5 31.5q0 11 4 20l85 190l-85 190q-4 9 -4 20q0 20 11.5 31.5t31.5 11.5q24 0 35 -21zM219 249l-114 -232q-10 -21 -35 -21q-20 0 -31.5 11.5t-11.5 31.5q0 11 4 20l85 190l-85 190q-4 9 -4 20
q0 20 11.5 31.5t31.5 11.5q24 0 35 -21z" />
    <glyph glyph-name="onequarter" unicode="&#xbc;" horiz-adv-x="806" 
d="M32 0zM187.391 342.999q0 -13.7998 -11.6992 -24.5996t-26.6992 -10.7998q-14.3984 0 -25.7988 10.7998q-11.3994 10.7998 -11.3994 24.5996v277.788l-20.3994 -12.5996q-4.19922 -3 -10.499 -4.49902q-6.2998 -1.5 -12.2998 -1.5q-16.1992 0 -26.0986 11.0996
q-9.89941 11.0986 -9.89941 25.499q0 12.5986 7.19922 20.3984q7.2002 7.7998 19.1992 13.1992q7.7998 3.60059 14.3994 6.90039t12.5996 8.09961t12.5996 11.3994t14.3994 17.3994q4.7998 6.59961 12.5996 14.0996q7.7998 7.49902 22.1992 7.49902
q17.3994 0 28.499 -11.3994q11.0986 -11.3994 11.0986 -26.3984v-356.985zM535.995 92.7939h85.7969v55.1973q0 15 10.499 25.7988q10.5 10.7998 25.499 10.7998q14.3994 0 24.8994 -10.499q10.5 -10.5 10.5 -24.2998v-56.9971h19.7988q11.999 0 21.2988 -9.59961
t9.2998 -22.7998q0 -11.999 -9.2998 -22.1982q-9.2998 -10.2002 -21.2988 -10.2002h-19.7988v-58.1973q0 -13.1992 -10.7998 -23.6992t-24.5996 -10.5q-13.7988 0 -24.8984 10.5t-11.0996 23.6992v58.1973h-138.595q-17.3994 0 -26.6982 10.7998
q-9.2998 10.7998 -9.2998 25.1992q0 10.1992 5.39941 20.999l134.995 262.789q4.79883 8.39941 13.1992 13.1992q8.39941 4.7998 18.5986 4.7998q13.7998 0 24.8994 -10.499q11.0996 -10.5 11.0996 -24.8994q0 -7.7998 -4.2002 -17.3994zM256 -7q-10 -22 -32 -22
q-12 0 -23.5 8.5t-11.5 25.5q0 2 0.5 6.5t2.5 9.5l341 689q11 19 32 19q14 0 25 -8.5t11 -25.5q0 -4 -1 -8.5t-5 -9.5z" />
    <glyph glyph-name="onehalf" unicode="&#xbd;" horiz-adv-x="809" 
d="M26 0zM181.391 342.999q0 -13.7998 -11.6992 -24.5996t-26.6992 -10.7998q-14.3984 0 -25.7988 10.7998q-11.3994 10.7998 -11.3994 24.5996v277.788l-20.3994 -12.5996q-4.19922 -3 -10.499 -4.49902q-6.2998 -1.5 -12.2998 -1.5q-16.1992 0 -26.0986 11.0996
q-9.89941 11.0986 -9.89941 25.499q0 12.5986 7.19922 20.3984q7.2002 7.7998 19.1992 13.1992q7.7998 3.60059 14.3994 6.90039t12.5996 8.09961t12.5996 11.3994t14.3994 17.3994q4.7998 6.59961 12.5996 14.0996q7.7998 7.49902 22.1992 7.49902
q17.3994 0 28.499 -11.3994q11.0986 -11.3994 11.0986 -26.3984v-356.985zM525.396 -62q-18.5996 0 -33.2988 9q-14.6992 8.99902 -14.6992 28.7988q0 3 1.2002 7.49902q1.2002 4.5 7.19922 12.8994q8.40039 12 25.499 32.6992q17.0996 20.6992 35.999 41.998
t35.3984 39.8984t23.6992 26.3984q25.1982 28.1992 40.1982 53.6982q14.999 25.499 14.999 50.0977q0 10.2002 -3 20.0996q-2.99902 9.89941 -8.99902 17.3994t-15.5996 11.999q-9.59961 4.5 -22.1992 4.5q-10.1992 0 -19.499 -3.2998t-15.8994 -11.0996
q-6.59961 -8.39941 -8.39941 -16.7988q-1.7998 -8.40039 -4.7998 -17.3994q-3.59961 -12.5996 -11.7002 -22.499q-8.09961 -9.90039 -23.0986 -9.90039q-6.59961 0 -13.499 2.40039q-6.90039 2.40039 -12.8994 7.5q-6 5.09961 -9.59961 12.8994
q-3.60059 7.7998 -3.60059 19.1992q0 17.3994 9 37.1982q8.99902 19.7988 24.5986 35.3984q15.5996 16.1992 38.6982 26.6992q23.0996 10.499 51.2979 10.499q25.1992 0 47.6982 -8.99902q22.499 -9 39.5986 -25.1992t26.999 -38.998q9.89941 -22.7998 9.89941 -49.7988
q0 -32.3984 -13.7988 -62.6973q-13.7998 -30.2988 -35.6992 -58.7969q-21.8984 -28.499 -48.5977 -56.0977q-26.6992 -27.5996 -52.498 -55.1982h130.194q13.2002 0 25.1992 -9.2998q12 -9.2998 12 -27.2988q0 -17.3994 -11.3994 -26.3984q-11.4004 -9 -26.3994 -9h-190.192
zM254 -7q-10 -22 -32 -22q-12 0 -23.5 8.5t-11.5 25.5q0 2 0.5 6.5t2.5 9.5l341 689q11 19 32 19q14 0 25 -8.5t11 -25.5q0 -4 -1 -8.5t-5 -9.5z" />
    <glyph glyph-name="threequarters" unicode="&#xbe;" horiz-adv-x="808" 
d="M47 0zM564.995 92.7939h85.7969v55.1973q0 15 10.499 25.7988q10.5 10.7998 25.499 10.7998q14.3994 0 24.8994 -10.499q10.5 -10.5 10.5 -24.2998v-56.9971h19.7988q11.999 0 21.2988 -9.59961t9.2998 -22.7998q0 -11.999 -9.2998 -22.1982
q-9.2998 -10.2002 -21.2988 -10.2002h-19.7988v-58.1973q0 -13.1992 -10.7998 -23.6992t-24.5996 -10.5q-13.7988 0 -24.8984 10.5t-11.0996 23.6992v58.1973h-138.595q-17.3994 0 -26.6982 10.7998q-9.2998 10.7998 -9.2998 25.1992q0 10.1992 5.39941 20.999
l134.995 262.789q4.79883 8.39941 13.1992 13.1992q8.39941 4.7998 18.5986 4.7998q13.7998 0 24.8994 -10.499q11.0996 -10.5 11.0996 -24.8994q0 -7.7998 -4.2002 -17.3994zM241.591 536.19q31.7979 -11.999 51.5977 -38.3984q19.7988 -26.3984 19.7988 -65.9971
q0 -29.3984 -11.3994 -53.0977t-30.5986 -40.498q-19.1992 -16.7998 -43.7979 -26.0996q-24.5996 -9.29883 -50.3984 -9.29883q-17.3994 0 -35.0986 4.19922q-17.6992 4.2002 -33.5986 12.2998t-29.0986 19.499t-20.999 26.3984q-4.7998 9 -7.5 18.8994
q-2.69922 9.89941 -2.69922 18.2998q0 16.7988 10.7988 28.1982q10.7998 11.3994 28.1992 11.3994q11.999 0 19.499 -5.99902q7.5 -6 12.8994 -16.1992q4.7998 -10.2002 9.89941 -18.5996q5.10059 -8.39941 11.3994 -14.999q6.2998 -6.59961 15.2998 -10.2002
q9 -3.59961 21.5986 -3.59961q28.1992 0 44.6982 17.0996q16.5 17.0986 16.5 47.6982q0 15.5986 -4.5 26.6982t-12.8994 19.499q-13.1992 12.5996 -29.0986 14.7002q-15.8994 2.09961 -29.0986 3.89941q-19.7998 3 -26.999 13.499q-7.2002 10.5 -7.2002 20.6992
q0 18 13.7998 24.5996q13.7988 6.59961 30.5986 8.39941q12.5996 1.2002 21.8994 3.59961q9.29883 2.40039 17.0986 9t11.3994 16.1992q3.60059 9.59961 3.60059 20.999q0 25.1992 -15.2998 38.0986t-36.2988 12.8994q-16.1992 0 -25.7988 -6.89941
q-9.59961 -6.90039 -16.1992 -17.0996q-3.59961 -5.39941 -6.89941 -12q-3.2998 -6.59961 -7.7998 -11.999t-10.5 -9.2998q-5.99902 -3.89941 -14.3994 -3.89941q-14.999 0 -27.2988 11.0996q-12.2988 11.0996 -12.2988 28.499q0 4.79883 1.5 11.999t6.29883 16.1992
q15.5996 30.5986 45.5986 45.8984q29.999 15.2988 64.1973 15.2988q23.3994 0 46.498 -7.19922q23.0996 -7.2002 41.3984 -21.2988q18.2998 -14.0996 29.3984 -35.3994q11.0996 -21.2988 11.0996 -49.498q0 -34.1982 -16.1992 -56.0977q-16.1992 -21.8984 -42.5977 -32.0986
zM289 -7q-10 -22 -32 -22q-12 0 -23.5 8.5t-11.5 25.5q0 2 0.5 6.5t2.5 9.5l341 689q11 19 32 19q14 0 25 -8.5t11 -25.5q0 -4 -1 -8.5t-5 -9.5z" />
    <glyph glyph-name="questiondown" unicode="&#xbf;" horiz-adv-x="542" 
d="M72 27q0 32 7.5 57.5t19.5 46t26 37t28 30.5q19 21 31.5 37t19 31t9.5 30.5t4 35.5q0 10 2 23t8 24t17 19t31 8q30 0 44.5 -21t14.5 -59q0 -56 -25.5 -99.5t-57.5 -78.5q-19 -20 -38.5 -48.5t-19.5 -67.5q0 -35 17 -53.5t46 -18.5q18 0 37 6.5t32 15.5q9 6 22 16.5
t33 10.5q23 0 42 -16.5t19 -41.5q0 -17 -10 -32.5t-26 -28.5q-25 -20 -62 -32.5t-79 -12.5q-39 0 -74 12t-61.5 35t-41.5 57t-15 78zM203 532q0 29 21 48.5t50 19.5t50 -19.5t21 -48.5q0 -28 -21 -48t-50 -20t-50 20t-21 48z" />
    <glyph glyph-name="Agrave" unicode="&#xc0;" horiz-adv-x="563" 
d="M8 0zM550 81q4 -13 4 -25q0 -23 -15.5 -41.5t-44.5 -18.5q-23 0 -39 12t-21 29l-38 115h-235l-38 -117q-5 -17 -19.5 -28t-36.5 -11q-27 0 -43 17t-16 40q0 7 1.5 12.5t3.5 13.5l210 610q6 17 22.5 28.5t36.5 11.5t36.5 -11.5t22.5 -28.5zM194 260h169l-85 255zM333 832
q8 -12 8 -25q0 -15 -10 -25.5t-27 -10.5q-8 0 -16 2.5t-15 10.5l-98 106q-8 8 -11 17t-3 17q0 20 15 31.5t35 11.5q11 0 22 -5t22 -20z" />
    <glyph glyph-name="Aacute" unicode="&#xc1;" horiz-adv-x="563" 
d="M8 0zM550 81q4 -13 4 -25q0 -23 -15.5 -41.5t-44.5 -18.5q-23 0 -39 12t-21 29l-38 115h-235l-38 -117q-5 -17 -19.5 -28t-36.5 -11q-27 0 -43 17t-16 40q0 7 1.5 12.5t3.5 13.5l210 610q6 17 22.5 28.5t36.5 11.5t36.5 -11.5t22.5 -28.5zM194 260h169l-85 255zM308 942
q11 14 22.5 19.5t23.5 5.5q20 0 34 -12.5t14 -31.5q0 -17 -15 -33l-97 -106q-12 -13 -31 -13q-15 0 -26.5 9.5t-11.5 25.5t13 33z" />
    <glyph glyph-name="Acircumflex" unicode="&#xc2;" horiz-adv-x="563" 
d="M8 0zM550 81q4 -13 4 -25q0 -23 -15.5 -41.5t-44.5 -18.5q-23 0 -39 12t-21 29l-38 115h-235l-38 -117q-5 -17 -19.5 -28t-36.5 -11q-27 0 -43 17t-16 40q0 7 1.5 12.5t3.5 13.5l210 610q6 17 22.5 28.5t36.5 11.5t36.5 -11.5t22.5 -28.5zM194 260h169l-85 255zM214 932
q15 21 32.5 28t34.5 7q19 0 36 -8t31 -27l75 -101q3 -5 5.5 -10.5t2.5 -13.5q0 -17 -12.5 -27t-28.5 -10q-18 0 -32 17l-77 93l-76 -93q-14 -17 -32 -17q-15 0 -28 10t-13 27q0 8 2.5 13.5t5.5 10.5z" />
    <glyph glyph-name="Atilde" unicode="&#xc3;" horiz-adv-x="563" 
d="M8 0zM550 81q4 -13 4 -25q0 -23 -15.5 -41.5t-44.5 -18.5q-23 0 -39 12t-21 29l-38 115h-235l-38 -117q-5 -17 -19.5 -28t-36.5 -11q-27 0 -43 17t-16 40q0 7 1.5 12.5t3.5 13.5l210 610q6 17 22.5 28.5t36.5 11.5t36.5 -11.5t22.5 -28.5zM194 260h169l-85 255zM106 864
q0 35 20.5 61t59.5 26q24 0 47.5 -7.5t45.5 -17t42.5 -17t38.5 -7.5q20 0 27 8.5t11 18.5q4 11 9.5 18t20.5 7q14 0 21.5 -8.5t7.5 -29.5q0 -35 -20.5 -61t-59.5 -26q-24 0 -47.5 7.5t-45.5 16.5t-42.5 16.5t-38.5 7.5q-19 0 -26.5 -8t-11.5 -18q-2 -7 -8 -16.5t-23 -9.5
q-13 0 -20.5 8.5t-7.5 30.5z" />
    <glyph glyph-name="Adieresis" unicode="&#xc4;" horiz-adv-x="563" 
d="M8 0zM550 81q4 -13 4 -25q0 -23 -15.5 -41.5t-44.5 -18.5q-23 0 -39 12t-21 29l-38 115h-235l-38 -117q-5 -17 -19.5 -28t-36.5 -11q-27 0 -43 17t-16 40q0 7 1.5 12.5t3.5 13.5l210 610q6 17 22.5 28.5t36.5 11.5t36.5 -11.5t22.5 -28.5zM194 260h169l-85 255zM317 880
q0 26 18 44t46 18t46 -18t18 -44t-18 -44t-46 -18t-46 18t-18 44zM119 880q0 26 18 44t46 18t46 -18t18 -44t-18 -44t-46 -18t-46 18t-18 44z" />
    <glyph glyph-name="Aring" unicode="&#xc5;" horiz-adv-x="563" 
d="M8 0zM550 81q4 -13 4 -25q0 -23 -15.5 -41.5t-44.5 -18.5q-23 0 -39 12t-21 29l-38 115h-235l-38 -117q-5 -17 -19.5 -28t-36.5 -11q-27 0 -43 17t-16 40q0 7 1.5 12.5t3.5 13.5l210 610q6 17 22.5 28.5t36.5 11.5t36.5 -11.5t22.5 -28.5zM194 260h169l-85 255zM189 876
q0 39 27 65t66 26t66 -26t27 -65q0 -40 -27 -65t-66 -25q-40 0 -66.5 25t-26.5 65zM282 926q-21 0 -35 -14.5t-14 -34.5q0 -21 14 -35t35 -14t35 14t14 35q0 20 -14 34.5t-35 14.5z" />
    <glyph glyph-name="AE" unicode="&#xc6;" horiz-adv-x="880" 
d="M504 603v-171h214q24 0 41.5 -16t17.5 -39t-17.5 -40t-41.5 -17h-214v-198h251q24 0 43 -18.5t19 -42.5q0 -25 -19 -43t-43 -18h-312q-26 0 -44 18t-18 43v91h-213l-40 -116q-5 -17 -22 -28.5t-37 -11.5q-30 0 -46 18t-16 42q0 7 1.5 13l3.5 14l208 600q7 17 23 29t36 12
h476q24 0 43 -18t19 -43q0 -24 -19 -42t-43 -18h-251zM322 604l-118 -344h177v344h-59z" />
    <glyph glyph-name="Ccedilla" unicode="&#xc7;" horiz-adv-x="655" 
d="M58 0zM598 600q12 -24 12 -38q0 -24 -18 -42t-45 -18q-14 0 -29 7.5t-22 21.5q-21 39 -56.5 61t-82.5 22q-42 0 -74.5 -19t-55 -53t-34 -80.5t-11.5 -101.5q0 -54 11 -100t33 -79.5t55 -52.5t78 -19q17 0 36 4.5t36.5 13t31 21.5t19.5 31q6 17 23 29.5t37 12.5
q26 0 44 -18t18 -42q0 -18 -6.5 -33.5t-17.5 -31.5q-17 -23 -41 -43t-53.5 -34t-62.5 -22t-66 -8q-69 0 -124.5 26.5t-94.5 75t-59.5 117.5t-20.5 153q0 81 21 150t60 119t94 78t123 28q84 0 144 -35.5t98 -100.5zM333 -117q-18 6 -26 20.5t-8 28.5q0 18 13.5 34t40.5 16
q53 0 53 -70q0 -20 -4.5 -43t-13 -43t-20.5 -33.5t-27 -13.5q-11 0 -15.5 6.5t-4.5 14.5q0 11 6.5 27.5t6.5 36.5v9.5t-1 9.5z" />
    <glyph glyph-name="Egrave" unicode="&#xc8;" horiz-adv-x="588" 
d="M88 0zM212 603v-171h214q23 0 40.5 -16t17.5 -39t-17.5 -40t-40.5 -17h-214v-198h250q26 0 44 -18.5t18 -42.5q0 -25 -18 -43t-44 -18h-312q-25 0 -43.5 18t-18.5 43v602q0 25 18.5 43t43.5 18h312q26 0 44 -18t18 -43q0 -24 -18 -42t-44 -18h-250zM359 832q8 -12 8 -25
q0 -15 -10 -25.5t-27 -10.5q-8 0 -16 2.5t-15 10.5l-98 106q-8 8 -11 17t-3 17q0 20 15 31.5t35 11.5q11 0 22 -5t22 -20z" />
    <glyph glyph-name="Eacute" unicode="&#xc9;" horiz-adv-x="588" 
d="M88 0zM212 603v-171h214q23 0 40.5 -16t17.5 -39t-17.5 -40t-40.5 -17h-214v-198h250q26 0 44 -18.5t18 -42.5q0 -25 -18 -43t-44 -18h-312q-25 0 -43.5 18t-18.5 43v602q0 25 18.5 43t43.5 18h312q26 0 44 -18t18 -43q0 -24 -18 -42t-44 -18h-250zM334 942
q11 14 22.5 19.5t23.5 5.5q20 0 34 -12.5t14 -31.5q0 -17 -15 -33l-97 -106q-12 -13 -31 -13q-15 0 -26.5 9.5t-11.5 25.5t13 33z" />
    <glyph glyph-name="Ecircumflex" unicode="&#xca;" horiz-adv-x="588" 
d="M88 0zM212 603v-171h214q23 0 40.5 -16t17.5 -39t-17.5 -40t-40.5 -17h-214v-198h250q26 0 44 -18.5t18 -42.5q0 -25 -18 -43t-44 -18h-312q-25 0 -43.5 18t-18.5 43v602q0 25 18.5 43t43.5 18h312q26 0 44 -18t18 -43q0 -24 -18 -42t-44 -18h-250zM243 932
q15 21 32.5 28t34.5 7q19 0 36 -8t31 -27l75 -101q3 -5 5.5 -10.5t2.5 -13.5q0 -17 -12.5 -27t-28.5 -10q-18 0 -32 17l-77 93l-76 -93q-14 -17 -32 -17q-15 0 -28 10t-13 27q0 8 2.5 13.5t5.5 10.5z" />
    <glyph glyph-name="Edieresis" unicode="&#xcb;" horiz-adv-x="588" 
d="M88 0zM212 603v-171h214q23 0 40.5 -16t17.5 -39t-17.5 -40t-40.5 -17h-214v-198h250q26 0 44 -18.5t18 -42.5q0 -25 -18 -43t-44 -18h-312q-25 0 -43.5 18t-18.5 43v602q0 25 18.5 43t43.5 18h312q26 0 44 -18t18 -43q0 -24 -18 -42t-44 -18h-250zM342 880q0 26 18 44
t46 18t46 -18t18 -44t-18 -44t-46 -18t-46 18t-18 44zM144 880q0 26 18 44t46 18t46 -18t18 -44t-18 -44t-46 -18t-46 18t-18 44z" />
    <glyph glyph-name="Igrave" unicode="&#xcc;" horiz-adv-x="303" 
d="M31 0zM212 56q0 -24 -18 -42t-43 -18q-26 0 -44.5 18t-18.5 42v613q0 24 18.5 42t44.5 18q25 0 43 -18t18 -42v-613zM203 832q8 -12 8 -25q0 -15 -10 -25.5t-27 -10.5q-8 0 -16 2.5t-15 10.5l-98 106q-8 8 -11 17t-3 17q0 20 15 31.5t35 11.5q11 0 22 -5t22 -20z" />
    <glyph glyph-name="Iacute" unicode="&#xcd;" horiz-adv-x="303" 
d="M88 0zM212 56q0 -24 -18 -42t-43 -18q-26 0 -44.5 18t-18.5 42v613q0 24 18.5 42t44.5 18q25 0 43 -18t18 -42v-613zM178 942q11 14 22.5 19.5t23.5 5.5q20 0 34 -12.5t14 -31.5q0 -17 -15 -33l-97 -106q-12 -13 -31 -13q-15 0 -26.5 9.5t-11.5 25.5t13 33z" />
    <glyph glyph-name="Icircumflex" unicode="&#xce;" horiz-adv-x="310" 
d="M5 0zM215 56q0 -24 -18 -42t-43 -18q-26 0 -44.5 18t-18.5 42v613q0 24 18.5 42t44.5 18q25 0 43 -18t18 -42v-613zM87 932q15 21 32.5 28t34.5 7q19 0 36 -8t31 -27l75 -101q3 -5 5.5 -10.5t2.5 -13.5q0 -17 -12.5 -27t-28.5 -10q-18 0 -32 17l-77 93l-76 -93
q-14 -17 -32 -17q-15 0 -28 10t-13 27q0 8 2.5 13.5t5.5 10.5z" />
    <glyph glyph-name="Idieresis" unicode="&#xcf;" horiz-adv-x="328" 
d="M1 0zM224 56q0 -24 -18 -42t-43 -18q-26 0 -44.5 18t-18.5 42v613q0 24 18.5 42t44.5 18q25 0 43 -18t18 -42v-613zM199 880q0 26 18 44t46 18t46 -18t18 -44t-18 -44t-46 -18t-46 18t-18 44zM1 880q0 26 18 44t46 18t46 -18t18 -44t-18 -44t-46 -18t-46 18t-18 44z" />
    <glyph glyph-name="Eth" unicode="&#xd0;" horiz-adv-x="680" 
d="M290 724q75 0 136 -22t103.5 -67t66 -113.5t23.5 -160.5q0 -93 -22.5 -161t-64.5 -112.5t-103 -66t-139 -21.5h-141q-24 0 -42.5 18t-18.5 43v259h-24q-23 0 -40.5 17t-17.5 40t17.5 39t40.5 16h24v231q0 25 18.5 43t42.5 18h141zM212 602v-170h89q23 0 40.5 -16
t17.5 -39t-17.5 -40t-40.5 -17h-89v-198h33q67 0 114 10t77 36.5t44 73t14 119.5q0 72 -14 118.5t-43 74t-73.5 38t-106.5 10.5h-45z" />
    <glyph glyph-name="Ntilde" unicode="&#xd1;" horiz-adv-x="709" 
d="M88 0zM619 56q0 -25 -18 -42.5t-47 -17.5q-20 0 -34 9.5t-22 20.5l-292 454v-427q0 -23 -17.5 -40t-41.5 -17t-41.5 17t-17.5 40v617q0 24 18 41.5t47 17.5q20 0 33.5 -9.5t21.5 -20.5l292 -453v426q0 23 18 40t41 17q24 0 42 -17t18 -40v-616zM179 864q0 35 20.5 61
t59.5 26q24 0 47.5 -7.5t45.5 -17t42.5 -17t38.5 -7.5q20 0 27 8.5t11 18.5q4 11 9.5 18t20.5 7q14 0 21.5 -8.5t7.5 -29.5q0 -35 -20.5 -61t-59.5 -26q-24 0 -47.5 7.5t-45.5 16.5t-42.5 16.5t-38.5 7.5q-19 0 -26.5 -8t-11.5 -18q-2 -7 -8 -16.5t-23 -9.5q-13 0 -20.5 8.5
t-7.5 30.5z" />
    <glyph glyph-name="Ograve" unicode="&#xd2;" horiz-adv-x="735" 
d="M64 0zM367 736q67 0 122.5 -25.5t95.5 -74t62 -118t22 -156.5q0 -88 -22 -157.5t-61.5 -117.5t-95.5 -73.5t-123 -25.5q-68 0 -124 25.5t-95.5 73.5t-61.5 117.5t-22 157.5q0 87 22 156.5t61.5 118t95.5 74t124 25.5zM367 614q-44 0 -77 -18.5t-56 -52t-34.5 -80
t-11.5 -102.5t11.5 -102.5t34.5 -79.5t56 -51.5t77 -18.5q43 0 76.5 18.5t56 51.5t34 79.5t11.5 102.5t-11.5 102.5t-34 80t-56 52t-76.5 18.5zM419 832q8 -12 8 -25q0 -15 -10 -25.5t-27 -10.5q-8 0 -16 2.5t-15 10.5l-98 106q-8 8 -11 17t-3 17q0 20 15 31.5t35 11.5
q11 0 22 -5t22 -20z" />
    <glyph glyph-name="Oacute" unicode="&#xd3;" horiz-adv-x="735" 
d="M64 0zM367 736q67 0 122.5 -25.5t95.5 -74t62 -118t22 -156.5q0 -88 -22 -157.5t-61.5 -117.5t-95.5 -73.5t-123 -25.5q-68 0 -124 25.5t-95.5 73.5t-61.5 117.5t-22 157.5q0 87 22 156.5t61.5 118t95.5 74t124 25.5zM367 614q-44 0 -77 -18.5t-56 -52t-34.5 -80
t-11.5 -102.5t11.5 -102.5t34.5 -79.5t56 -51.5t77 -18.5q43 0 76.5 18.5t56 51.5t34 79.5t11.5 102.5t-11.5 102.5t-34 80t-56 52t-76.5 18.5zM394 942q11 14 22.5 19.5t23.5 5.5q20 0 34 -12.5t14 -31.5q0 -17 -15 -33l-97 -106q-12 -13 -31 -13q-15 0 -26.5 9.5
t-11.5 25.5t13 33z" />
    <glyph glyph-name="Ocircumflex" unicode="&#xd4;" horiz-adv-x="735" 
d="M64 0zM367 736q67 0 122.5 -25.5t95.5 -74t62 -118t22 -156.5q0 -88 -22 -157.5t-61.5 -117.5t-95.5 -73.5t-123 -25.5q-68 0 -124 25.5t-95.5 73.5t-61.5 117.5t-22 157.5q0 87 22 156.5t61.5 118t95.5 74t124 25.5zM367 614q-44 0 -77 -18.5t-56 -52t-34.5 -80
t-11.5 -102.5t11.5 -102.5t34.5 -79.5t56 -51.5t77 -18.5q43 0 76.5 18.5t56 51.5t34 79.5t11.5 102.5t-11.5 102.5t-34 80t-56 52t-76.5 18.5zM300 932q15 21 32.5 28t34.5 7q19 0 36 -8t31 -27l75 -101q3 -5 5.5 -10.5t2.5 -13.5q0 -17 -12.5 -27t-28.5 -10q-18 0 -32 17
l-77 93l-76 -93q-14 -17 -32 -17q-15 0 -28 10t-13 27q0 8 2.5 13.5t5.5 10.5z" />
    <glyph glyph-name="Otilde" unicode="&#xd5;" horiz-adv-x="735" 
d="M64 0zM367 736q67 0 122.5 -25.5t95.5 -74t62 -118t22 -156.5q0 -88 -22 -157.5t-61.5 -117.5t-95.5 -73.5t-123 -25.5q-68 0 -124 25.5t-95.5 73.5t-61.5 117.5t-22 157.5q0 87 22 156.5t61.5 118t95.5 74t124 25.5zM367 614q-44 0 -77 -18.5t-56 -52t-34.5 -80
t-11.5 -102.5t11.5 -102.5t34.5 -79.5t56 -51.5t77 -18.5q43 0 76.5 18.5t56 51.5t34 79.5t11.5 102.5t-11.5 102.5t-34 80t-56 52t-76.5 18.5zM192 864q0 35 20.5 61t59.5 26q24 0 47.5 -7.5t45.5 -17t42.5 -17t38.5 -7.5q20 0 27 8.5t11 18.5q4 11 9.5 18t20.5 7
q14 0 21.5 -8.5t7.5 -29.5q0 -35 -20.5 -61t-59.5 -26q-24 0 -47.5 7.5t-45.5 16.5t-42.5 16.5t-38.5 7.5q-19 0 -26.5 -8t-11.5 -18q-2 -7 -8 -16.5t-23 -9.5q-13 0 -20.5 8.5t-7.5 30.5z" />
    <glyph glyph-name="Odieresis" unicode="&#xd6;" horiz-adv-x="735" 
d="M64 0zM367 736q67 0 122.5 -25.5t95.5 -74t62 -118t22 -156.5q0 -88 -22 -157.5t-61.5 -117.5t-95.5 -73.5t-123 -25.5q-68 0 -124 25.5t-95.5 73.5t-61.5 117.5t-22 157.5q0 87 22 156.5t61.5 118t95.5 74t124 25.5zM367 614q-44 0 -77 -18.5t-56 -52t-34.5 -80
t-11.5 -102.5t11.5 -102.5t34.5 -79.5t56 -51.5t77 -18.5q43 0 76.5 18.5t56 51.5t34 79.5t11.5 102.5t-11.5 102.5t-34 80t-56 52t-76.5 18.5zM402 880q0 26 18 44t46 18t46 -18t18 -44t-18 -44t-46 -18t-46 18t-18 44zM204 880q0 26 18 44t46 18t46 -18t18 -44t-18 -44
t-46 -18t-46 18t-18 44z" />
    <glyph glyph-name="multiply" unicode="&#xd7;" 
d="M353 293l87 -89q14 -16 13 -33q0 -19 -13 -32t-31 -13q-9 0 -17.5 3.5t-15.5 11.5l-87 87l-88 -87q-15 -15 -33 -15q-19 0 -32 13.5t-13 31.5q0 19 14 33l86 89l-86 87q-14 12 -14 33q0 19 13 31t32 12q18 0 33 -12l88 -88l87 88q12 12 33 12q18 0 31 -12.5t13 -30.5
q0 -20 -13 -33z" />
    <glyph glyph-name="Oslash" unicode="&#xd8;" horiz-adv-x="735" 
d="M598 620q34 -48 52.5 -112.5t18.5 -145.5q0 -88 -22 -157.5t-61.5 -117.5t-95.5 -73.5t-123 -25.5q-109 0 -185 64l-45 -62q-13 -17 -28 -17q-14 0 -25 10.5t-11 24.5q0 8 9 22l54 73q-35 48 -53.5 113t-18.5 146q0 87 22 156.5t61.5 118t95.5 74t124 25.5q109 0 183 -66
l45 60q12 16 28 16q13 0 24 -10t11 -24q0 -11 -8 -22zM478 570q-22 21 -49.5 32.5t-61.5 11.5q-44 0 -77 -18.5t-56 -52t-34.5 -80t-11.5 -102.5q0 -86 28 -147zM256 152q43 -43 111 -43q43 0 76.5 18.5t56 51.5t34 79.5t11.5 102.5q0 86 -28 148z" />
    <glyph glyph-name="Ugrave" unicode="&#xd9;" horiz-adv-x="670" 
d="M86 0zM588 248q0 -59 -17 -106.5t-49 -82t-79 -53t-107 -18.5q-65 0 -112 20t-78 57t-45.5 90t-14.5 119v395q0 24 18.5 42t43.5 18t43.5 -18t18.5 -42v-419q0 -67 34 -104t92 -37q60 0 94 37.5t34 103.5v419q0 24 18 42t44 18q24 0 43 -18t19 -42v-421zM387 832
q8 -12 8 -25q0 -15 -10 -25.5t-27 -10.5q-8 0 -16 2.5t-15 10.5l-98 106q-8 8 -11 17t-3 17q0 20 15 31.5t35 11.5q11 0 22 -5t22 -20z" />
    <glyph glyph-name="Uacute" unicode="&#xda;" horiz-adv-x="670" 
d="M86 0zM588 248q0 -59 -17 -106.5t-49 -82t-79 -53t-107 -18.5q-65 0 -112 20t-78 57t-45.5 90t-14.5 119v395q0 24 18.5 42t43.5 18t43.5 -18t18.5 -42v-419q0 -67 34 -104t92 -37q60 0 94 37.5t34 103.5v419q0 24 18 42t44 18q24 0 43 -18t19 -42v-421zM362 942
q11 14 22.5 19.5t23.5 5.5q20 0 34 -12.5t14 -31.5q0 -17 -15 -33l-97 -106q-12 -13 -31 -13q-15 0 -26.5 9.5t-11.5 25.5t13 33z" />
    <glyph glyph-name="Ucircumflex" unicode="&#xdb;" horiz-adv-x="670" 
d="M86 0zM588 248q0 -59 -17 -106.5t-49 -82t-79 -53t-107 -18.5q-65 0 -112 20t-78 57t-45.5 90t-14.5 119v395q0 24 18.5 42t43.5 18t43.5 -18t18.5 -42v-419q0 -67 34 -104t92 -37q60 0 94 37.5t34 103.5v419q0 24 18 42t44 18q24 0 43 -18t19 -42v-421zM268 932
q15 21 32.5 28t34.5 7q19 0 36 -8t31 -27l75 -101q3 -5 5.5 -10.5t2.5 -13.5q0 -17 -12.5 -27t-28.5 -10q-18 0 -32 17l-77 93l-76 -93q-14 -17 -32 -17q-15 0 -28 10t-13 27q0 8 2.5 13.5t5.5 10.5z" />
    <glyph glyph-name="Udieresis" unicode="&#xdc;" horiz-adv-x="670" 
d="M86 0zM588 248q0 -59 -17 -106.5t-49 -82t-79 -53t-107 -18.5q-65 0 -112 20t-78 57t-45.5 90t-14.5 119v395q0 24 18.5 42t43.5 18t43.5 -18t18.5 -42v-419q0 -67 34 -104t92 -37q60 0 94 37.5t34 103.5v419q0 24 18 42t44 18q24 0 43 -18t19 -42v-421zM370 880
q0 26 18 44t46 18t46 -18t18 -44t-18 -44t-46 -18t-46 18t-18 44zM172 880q0 26 18 44t46 18t46 -18t18 -44t-18 -44t-46 -18t-46 18t-18 44z" />
    <glyph glyph-name="Yacute" unicode="&#xdd;" horiz-adv-x="537" 
d="M7 0zM329 318v-262q0 -24 -19 -42t-44 -18q-24 0 -42.5 18t-18.5 42v260l-187 319q-11 16 -11 34q0 24 19 42t43 18q20 0 33.5 -9.5t21.5 -23.5l148 -266l147 266q7 14 19.5 23.5t32.5 9.5q23 0 41 -17t18 -40q0 -10 -4 -18l-7 -14zM295 942q11 14 22.5 19.5t23.5 5.5
q20 0 34 -12.5t14 -31.5q0 -17 -15 -33l-97 -106q-12 -13 -31 -13q-15 0 -26.5 9.5t-11.5 25.5t13 33z" />
    <glyph glyph-name="Thorn" unicode="&#xde;" horiz-adv-x="570" 
d="M220 598h73q51 0 95.5 -10t77.5 -35t52 -66.5t19 -104.5q0 -61 -18.5 -102.5t-50 -66.5t-73.5 -36t-88 -11h-87v-110q0 -24 -18.5 -42t-43.5 -18t-43.5 18t-18.5 42v613q0 24 18.5 42t43.5 18t43.5 -18t18.5 -42v-71zM220 484v-206h91q43 0 72.5 24.5t29.5 79.5t-30 78.5
t-73 23.5h-90z" />
    <glyph glyph-name="germandbls" unicode="&#xdf;" horiz-adv-x="597" 
d="M199 52q0 -25 -16 -40.5t-42 -15.5t-42 15.5t-16 40.5v493q0 43 11.5 81.5t36 67t61.5 45.5t88 17q40 0 74.5 -11t59 -32t38.5 -51t14 -67q0 -33 -11 -58t-31 -48q-12 -14 -26 -28.5t-14 -32.5q0 -17 13 -29t31 -25q20 -14 44 -31.5t44 -41.5q18 -22 29.5 -50t11.5 -69
q0 -43 -13.5 -78.5t-36.5 -61t-55.5 -40t-69.5 -14.5q-39 0 -75 15.5t-56 44.5q-17 25 -17 53q0 23 14 38.5t37 15.5q18 0 29 -9t17 -17q8 -10 20 -16t29 -6q29 0 45.5 18.5t16.5 47.5q0 34 -24 66q-12 16 -28.5 29t-36.5 27q-14 9 -28 19.5t-25 23.5t-17.5 30t-6.5 41
q0 29 10.5 49t32.5 49q16 21 23 38t7 37q0 38 -22 53.5t-48 15.5q-42 0 -59 -30t-17 -80z" />
    <glyph glyph-name="agrave" unicode="&#xe0;" horiz-adv-x="482" 
d="M38 0zM408 115q0 -11 3 -19t7 -14.5t7 -14t3 -16.5q0 -20 -15.5 -37.5t-45.5 -17.5q-17 0 -28.5 6.5t-18.5 16t-11 21t-6 22.5q-20 -35 -53.5 -54.5t-78.5 -19.5q-28 0 -52.5 8.5t-42.5 25t-28 41.5t-10 58q0 26 6 45t16 33t23 23t26 15q20 9 44 14t48 9t46.5 9t40.5 14
v59q0 30 -12 43t-40 13q-26 0 -39 -10.5t-27 -28.5q-9 -12 -20.5 -22.5t-33.5 -10.5q-27 0 -41 16.5t-14 41.5q0 21 10 41t27 37q23 21 57 33.5t85 12.5q36 0 66.5 -7.5t53 -27t35.5 -53t13 -84.5v-221zM291 220q-29 -16 -59 -22t-50 -17q-13 -7 -20.5 -18t-7.5 -29
q0 -25 14 -38t40 -13q29 0 49.5 15t33.5 38v84zM288 633q13 -19 13 -35q0 -17 -11.5 -27.5t-27.5 -10.5q-6 0 -14 2.5t-16 11.5l-97 113q-8 9 -11.5 18.5t-3.5 18.5q0 20 14 33.5t34 13.5q10 0 22.5 -5t23.5 -22z" />
    <glyph glyph-name="aacute" unicode="&#xe1;" horiz-adv-x="482" 
d="M38 0zM408 115q0 -11 3 -19t7 -14.5t7 -14t3 -16.5q0 -20 -15.5 -37.5t-45.5 -17.5q-17 0 -28.5 6.5t-18.5 16t-11 21t-6 22.5q-20 -35 -53.5 -54.5t-78.5 -19.5q-28 0 -52.5 8.5t-42.5 25t-28 41.5t-10 58q0 26 6 45t16 33t23 23t26 15q20 9 44 14t48 9t46.5 9t40.5 14
v59q0 30 -12 43t-40 13q-26 0 -39 -10.5t-27 -28.5q-9 -12 -20.5 -22.5t-33.5 -10.5q-27 0 -41 16.5t-14 41.5q0 21 10 41t27 37q23 21 57 33.5t85 12.5q36 0 66.5 -7.5t53 -27t35.5 -53t13 -84.5v-221zM291 220q-29 -16 -59 -22t-50 -17q-13 -7 -20.5 -18t-7.5 -29
q0 -25 14 -38t40 -13q29 0 49.5 15t33.5 38v84zM267 744q11 15 22.5 21t23.5 6q21 0 34.5 -13.5t13.5 -33.5t-14 -37l-98 -113q-7 -8 -14.5 -11t-15.5 -3q-15 0 -27 10.5t-12 27.5t14 35z" />
    <glyph glyph-name="acircumflex" unicode="&#xe2;" horiz-adv-x="482" 
d="M38 0zM408 115q0 -11 3 -19t7 -14.5t7 -14t3 -16.5q0 -20 -15.5 -37.5t-45.5 -17.5q-17 0 -28.5 6.5t-18.5 16t-11 21t-6 22.5q-20 -35 -53.5 -54.5t-78.5 -19.5q-28 0 -52.5 8.5t-42.5 25t-28 41.5t-10 58q0 26 6 45t16 33t23 23t26 15q20 9 44 14t48 9t46.5 9t40.5 14
v59q0 30 -12 43t-40 13q-26 0 -39 -10.5t-27 -28.5q-9 -12 -20.5 -22.5t-33.5 -10.5q-27 0 -41 16.5t-14 41.5q0 21 10 41t27 37q23 21 57 33.5t85 12.5q36 0 66.5 -7.5t53 -27t35.5 -53t13 -84.5v-221zM291 220q-29 -16 -59 -22t-50 -17q-13 -7 -20.5 -18t-7.5 -29
q0 -25 14 -38t40 -13q29 0 49.5 15t33.5 38v84zM173 733q15 23 32.5 30.5t34.5 7.5q19 0 36.5 -8.5t31.5 -29.5l74 -109q3 -5 5.5 -11t2.5 -14q0 -17 -12.5 -28.5t-27.5 -11.5q-8 0 -16.5 3.5t-16.5 14.5l-77 100l-76 -100q-15 -18 -32 -18q-15 0 -28 11t-13 29q0 8 2.5 14
t5.5 11z" />
    <glyph glyph-name="atilde" unicode="&#xe3;" horiz-adv-x="482" 
d="M38 0zM408 115q0 -11 3 -19t7 -14.5t7 -14t3 -16.5q0 -20 -15.5 -37.5t-45.5 -17.5q-17 0 -28.5 6.5t-18.5 16t-11 21t-6 22.5q-20 -35 -53.5 -54.5t-78.5 -19.5q-28 0 -52.5 8.5t-42.5 25t-28 41.5t-10 58q0 26 6 45t16 33t23 23t26 15q20 9 44 14t48 9t46.5 9t40.5 14
v59q0 30 -12 43t-40 13q-26 0 -39 -10.5t-27 -28.5q-9 -12 -20.5 -22.5t-33.5 -10.5q-27 0 -41 16.5t-14 41.5q0 21 10 41t27 37q23 21 57 33.5t85 12.5q36 0 66.5 -7.5t53 -27t35.5 -53t13 -84.5v-221zM291 220q-29 -16 -59 -22t-50 -17q-13 -7 -20.5 -18t-7.5 -29
q0 -25 14 -38t40 -13q29 0 49.5 15t33.5 38v84zM78 717q8 14 24 25t44 11q27 0 49 -7t45 -19q23 -11 41.5 -18t36.5 -7q22 0 29 10t12 25q6 20 29 20q14 0 21 -9.5t7 -32.5q0 -14 -3 -29t-9 -27q-8 -14 -24.5 -25t-43.5 -11q-28 0 -52.5 9.5t-50.5 21.5q-19 9 -35 14.5
t-33 5.5q-23 0 -30.5 -10t-12.5 -25q-4 -10 -9.5 -15.5t-18.5 -5.5q-14 0 -21.5 9.5t-7.5 32.5q0 14 3 29.5t10 27.5z" />
    <glyph glyph-name="adieresis" unicode="&#xe4;" horiz-adv-x="482" 
d="M38 0zM408 115q0 -11 3 -19t7 -14.5t7 -14t3 -16.5q0 -20 -15.5 -37.5t-45.5 -17.5q-17 0 -28.5 6.5t-18.5 16t-11 21t-6 22.5q-20 -35 -53.5 -54.5t-78.5 -19.5q-28 0 -52.5 8.5t-42.5 25t-28 41.5t-10 58q0 26 6 45t16 33t23 23t26 15q20 9 44 14t48 9t46.5 9t40.5 14
v59q0 30 -12 43t-40 13q-26 0 -39 -10.5t-27 -28.5q-9 -12 -20.5 -22.5t-33.5 -10.5q-27 0 -41 16.5t-14 41.5q0 21 10 41t27 37q23 21 57 33.5t85 12.5q36 0 66.5 -7.5t53 -27t35.5 -53t13 -84.5v-221zM291 220q-29 -16 -59 -22t-50 -17q-13 -7 -20.5 -18t-7.5 -29
q0 -25 14 -38t40 -13q29 0 49.5 15t33.5 38v84zM276 672q0 26 18 44t46 18q27 0 45.5 -18t18.5 -44t-18.5 -43.5t-45.5 -17.5q-28 0 -46 17.5t-18 43.5zM77 672q0 26 18.5 44t46.5 18q27 0 45.5 -18t18.5 -44t-18.5 -43.5t-45.5 -17.5q-28 0 -46.5 17.5t-18.5 43.5z" />
    <glyph glyph-name="aring" unicode="&#xe5;" horiz-adv-x="482" 
d="M38 0zM408 115q0 -11 3 -19t7 -14.5t7 -14t3 -16.5q0 -20 -15.5 -37.5t-45.5 -17.5q-17 0 -28.5 6.5t-18.5 16t-11 21t-6 22.5q-20 -35 -53.5 -54.5t-78.5 -19.5q-28 0 -52.5 8.5t-42.5 25t-28 41.5t-10 58q0 26 6 45t16 33t23 23t26 15q20 9 44 14t48 9t46.5 9t40.5 14
v59q0 30 -12 43t-40 13q-26 0 -39 -10.5t-27 -28.5q-9 -12 -20.5 -22.5t-33.5 -10.5q-27 0 -41 16.5t-14 41.5q0 21 10 41t27 37q23 21 57 33.5t85 12.5q36 0 66.5 -7.5t53 -27t35.5 -53t13 -84.5v-221zM291 220q-29 -16 -59 -22t-50 -17q-13 -7 -20.5 -18t-7.5 -29
q0 -25 14 -38t40 -13q29 0 49.5 15t33.5 38v84zM241 771q19 0 36 -7.5t30 -20.5t20 -30.5t7 -38.5q0 -43 -27 -70t-66 -27q-40 0 -66.5 27t-26.5 70q0 21 7 38.5t20 30.5t29.5 20.5t36.5 7.5zM241 727q-21 0 -35 -15t-14 -37q0 -23 14 -38t35 -15t35 15t14 38q0 22 -14 37
t-35 15z" />
    <glyph glyph-name="ae" unicode="&#xe6;" horiz-adv-x="763" 
d="M411 230q2 -67 27.5 -102.5t70.5 -35.5q47 0 80 42q8 10 18 18.5t29 8.5q26 0 41.5 -15.5t15.5 -35.5q0 -14 -6.5 -27.5t-13.5 -22.5q-29 -39 -76 -55.5t-92 -16.5q-62 0 -107.5 28t-71.5 79q-12 -22 -27 -41.5t-34 -34t-42.5 -23t-51.5 -8.5q-26 0 -50 8t-42.5 24
t-29.5 41t-11 60q0 53 24 80.5t58 40.5q19 7 41.5 11.5t44.5 8t43 8.5t39 13v59q0 33 -13.5 44t-35.5 11q-29 0 -44 -11t-24 -25t-20.5 -24.5t-34.5 -10.5q-29 0 -42 17t-13 40q0 30 19 59q20 30 60 48t94 18q45 0 80.5 -15t54.5 -50q19 31 57.5 48t83.5 17q46 0 83 -18
t63 -47t39.5 -64.5t13.5 -71.5q0 -43 -18.5 -60t-48.5 -17h-231zM587 303q-4 43 -24.5 72t-60.5 29q-38 0 -61.5 -27t-28.5 -74h175zM296 144q-1 13 -3 30t-2 46q-31 -17 -61.5 -23.5t-49.5 -17.5q-12 -7 -19 -17.5t-7 -28.5q0 -48 54 -48q33 0 52 16.5t36 42.5z" />
    <glyph glyph-name="ccedilla" unicode="&#xe7;" horiz-adv-x="489" 
d="M43 0zM426 422q5 -8 9.5 -19.5t4.5 -24.5q0 -24 -16.5 -40t-38.5 -16q-23 0 -33.5 11t-18.5 25q-5 9 -10.5 17.5t-13.5 15t-20 11t-30 4.5q-41 0 -69 -37.5t-28 -117.5t29.5 -119.5t70.5 -39.5q26 0 42.5 12t24.5 29q6 14 17 28.5t36 14.5q22 0 38.5 -17.5t16.5 -40.5
q0 -14 -6 -28t-14 -27q-12 -17 -29.5 -31t-38.5 -23.5t-43.5 -15t-44.5 -5.5q-51 0 -91.5 19t-68.5 53.5t-43 83t-15 107.5q0 58 15.5 105.5t44 81.5t69 52.5t91.5 18.5t95.5 -22t67.5 -65zM244 -117q-18 6 -26 20.5t-8 28.5q0 18 13.5 34t40.5 16q53 0 53 -70
q0 -20 -4.5 -43t-13 -43t-20.5 -33.5t-27 -13.5q-11 0 -15.5 6.5t-4.5 14.5q0 11 6.5 27.5t6.5 36.5v9.5t-1 9.5z" />
    <glyph glyph-name="egrave" unicode="&#xe8;" horiz-adv-x="517" 
d="M49 0zM169 230q2 -68 27.5 -103t68.5 -35q26 0 45.5 12t35.5 32q8 11 19 18.5t29 7.5q26 0 41.5 -17t15.5 -37q0 -14 -6 -26t-14 -21q-30 -36 -74 -54.5t-94 -18.5t-90 19t-67.5 54t-42 83t-14.5 107q0 58 15 105.5t43 81.5t67.5 52.5t89.5 18.5q48 0 85.5 -17
t63.5 -46.5t39.5 -69.5t13.5 -86q0 -27 -16.5 -43.5t-49.5 -16.5h-231zM343 304q-3 51 -25 75.5t-57 24.5q-37 0 -62 -25.5t-30 -74.5h174zM306 633q13 -19 13 -35q0 -17 -11.5 -27.5t-27.5 -10.5q-6 0 -14 2.5t-16 11.5l-97 113q-8 9 -11.5 18.5t-3.5 18.5q0 20 14 33.5
t34 13.5q10 0 22.5 -5t23.5 -22z" />
    <glyph glyph-name="eacute" unicode="&#xe9;" horiz-adv-x="517" 
d="M49 0zM169 230q2 -68 27.5 -103t68.5 -35q26 0 45.5 12t35.5 32q8 11 19 18.5t29 7.5q26 0 41.5 -17t15.5 -37q0 -14 -6 -26t-14 -21q-30 -36 -74 -54.5t-94 -18.5t-90 19t-67.5 54t-42 83t-14.5 107q0 58 15 105.5t43 81.5t67.5 52.5t89.5 18.5q48 0 85.5 -17
t63.5 -46.5t39.5 -69.5t13.5 -86q0 -27 -16.5 -43.5t-49.5 -16.5h-231zM343 304q-3 51 -25 75.5t-57 24.5q-37 0 -62 -25.5t-30 -74.5h174zM285 744q11 15 22.5 21t23.5 6q21 0 34.5 -13.5t13.5 -33.5t-14 -37l-98 -113q-7 -8 -14.5 -11t-15.5 -3q-15 0 -27 10.5t-12 27.5
t14 35z" />
    <glyph glyph-name="ecircumflex" unicode="&#xea;" horiz-adv-x="517" 
d="M49 0zM169 230q2 -68 27.5 -103t68.5 -35q26 0 45.5 12t35.5 32q8 11 19 18.5t29 7.5q26 0 41.5 -17t15.5 -37q0 -14 -6 -26t-14 -21q-30 -36 -74 -54.5t-94 -18.5t-90 19t-67.5 54t-42 83t-14.5 107q0 58 15 105.5t43 81.5t67.5 52.5t89.5 18.5q48 0 85.5 -17
t63.5 -46.5t39.5 -69.5t13.5 -86q0 -27 -16.5 -43.5t-49.5 -16.5h-231zM343 304q-3 51 -25 75.5t-57 24.5q-37 0 -62 -25.5t-30 -74.5h174zM191 733q15 23 32.5 30.5t34.5 7.5q19 0 36.5 -8.5t31.5 -29.5l74 -109q3 -5 5.5 -11t2.5 -14q0 -17 -12.5 -28.5t-27.5 -11.5
q-8 0 -16.5 3.5t-16.5 14.5l-77 100l-76 -100q-15 -18 -32 -18q-15 0 -28 11t-13 29q0 8 2.5 14t5.5 11z" />
    <glyph glyph-name="edieresis" unicode="&#xeb;" horiz-adv-x="517" 
d="M49 0zM169 230q2 -68 27.5 -103t68.5 -35q26 0 45.5 12t35.5 32q8 11 19 18.5t29 7.5q26 0 41.5 -17t15.5 -37q0 -14 -6 -26t-14 -21q-30 -36 -74 -54.5t-94 -18.5t-90 19t-67.5 54t-42 83t-14.5 107q0 58 15 105.5t43 81.5t67.5 52.5t89.5 18.5q48 0 85.5 -17
t63.5 -46.5t39.5 -69.5t13.5 -86q0 -27 -16.5 -43.5t-49.5 -16.5h-231zM343 304q-3 51 -25 75.5t-57 24.5q-37 0 -62 -25.5t-30 -74.5h174zM293 672q0 26 18 44t46 18q27 0 45.5 -18t18.5 -44t-18.5 -43.5t-45.5 -17.5q-28 0 -46 17.5t-18 43.5zM94 672q0 26 18.5 44
t46.5 18q27 0 45.5 -18t18.5 -44t-18.5 -43.5t-45.5 -17.5q-28 0 -46.5 17.5t-18.5 43.5z" />
    <glyph glyph-name="igrave" unicode="&#xec;" horiz-adv-x="282" 
d="M20 0zM188 633q13 -19 13 -35q0 -17 -11.5 -27.5t-27.5 -10.5q-6 0 -14 2.5t-16 11.5l-97 113q-8 9 -11.5 18.5t-3.5 18.5q0 20 14 33.5t34 13.5q10 0 22.5 -5t23.5 -22zM197 138q0 -16 1.5 -28t4 -21.5t4 -18t1.5 -17.5q0 -24 -17 -40.5t-42 -16.5q-23 0 -37 12
t-21.5 31.5t-10 45t-2.5 52.5v307q0 25 14.5 41.5t45.5 16.5q24 0 41.5 -17t17.5 -41v-306z" />
    <glyph glyph-name="iacute" unicode="&#xed;" horiz-adv-x="282" 
d="M78 0zM167 744q11 15 22.5 21t23.5 6q21 0 34.5 -13.5t13.5 -33.5t-14 -37l-98 -113q-7 -8 -14.5 -11t-15.5 -3q-15 0 -27 10.5t-12 27.5t14 35zM197 138q0 -16 1.5 -28t4 -21.5t4 -18t1.5 -17.5q0 -24 -17 -40.5t-42 -16.5q-23 0 -37 12t-21.5 31.5t-10 45t-2.5 52.5
v307q0 25 14.5 41.5t45.5 16.5q24 0 41.5 -17t17.5 -41v-306z" />
    <glyph glyph-name="icircumflex" unicode="&#xee;" horiz-adv-x="300" 
d="M0 0zM205 138q0 -16 1.5 -28t4 -21.5t4 -18t1.5 -17.5q0 -24 -17 -40.5t-42 -16.5q-23 0 -37 12t-21.5 31.5t-10 45t-2.5 52.5v307q0 25 14.5 41.5t45.5 16.5q24 0 41.5 -17t17.5 -41v-306zM82 733q15 23 32.5 30.5t34.5 7.5q19 0 36.5 -8.5t31.5 -29.5l74 -109
q3 -5 5.5 -11t2.5 -14q0 -17 -12.5 -28.5t-27.5 -11.5q-8 0 -16.5 3.5t-16.5 14.5l-77 100l-76 -100q-15 -18 -32 -18q-15 0 -28 11t-13 29q0 8 2.5 14t5.5 11z" />
    <glyph glyph-name="idieresis" unicode="&#xef;" horiz-adv-x="330" 
d="M0 0zM199 672q0 26 18 44t46 18q27 0 45.5 -18t18.5 -44t-18.5 -43.5t-45.5 -17.5q-28 0 -46 17.5t-18 43.5zM0 672q0 26 18.5 44t46.5 18q27 0 45.5 -18t18.5 -44t-18.5 -43.5t-45.5 -17.5q-28 0 -46.5 17.5t-18.5 43.5zM220 138q0 -16 1.5 -28t4 -21.5t4 -18t1.5 -17.5
q0 -24 -17 -40.5t-42 -16.5q-23 0 -37 12t-21.5 31.5t-10 45t-2.5 52.5v307q0 25 14.5 41.5t45.5 16.5q24 0 41.5 -17t17.5 -41v-306z" />
    <glyph glyph-name="eth" unicode="&#xf0;" horiz-adv-x="512" 
d="M364 633q50 -77 77.5 -171.5t27.5 -185.5q0 -143 -56.5 -215.5t-159.5 -72.5q-50 0 -89 19.5t-66 54t-41.5 81.5t-14.5 101q0 42 12.5 80t36.5 66.5t58 45.5t78 17q42 0 73 -18.5t51 -45.5q-18 100 -78 180l-77 -56q-11 -6 -22 -6q-15 0 -26 9t-11 26q0 21 24 39l62 44
q-25 24 -40 39t-15 34q0 23 16.5 40.5t42.5 17.5q11 0 24 -6t25.5 -15.5t23.5 -21t20 -22.5l61 45q10 8 23 8q15 0 26 -10t11 -26q0 -21 -17 -31zM351 258q-3 20 -10 39.5t-17.5 35t-25 25t-33.5 9.5q-28 0 -47.5 -10t-32 -27t-18.5 -40.5t-6 -51.5t6 -53.5t17.5 -44.5
t28.5 -30t40 -11q48 0 73 45t25 114z" />
    <glyph glyph-name="ntilde" unicode="&#xf1;" horiz-adv-x="529" 
d="M51 0zM448 136q0 -17 1.5 -29.5t4 -22t4 -17.5t1.5 -17q0 -23 -18 -38.5t-44 -15.5q-22 0 -35.5 12t-20.5 31.5t-9.5 44t-2.5 50.5v179q0 17 -4 34.5t-13 31.5t-24 23t-36 9q-47 0 -71 -33v-325q0 -23 -17.5 -40t-41.5 -17q-32 0 -46 22t-14 51v289q0 33 -5.5 50.5
t-5.5 34.5q0 23 14 41t46 18q23 0 36.5 -15t22.5 -40q22 26 51.5 44t79.5 18q63 0 105 -53t42 -152v-168zM96 717q8 14 24 25t44 11q27 0 49 -7t45 -19q23 -11 41.5 -18t36.5 -7q22 0 29 10t12 25q6 20 29 20q14 0 21 -9.5t7 -32.5q0 -14 -3 -29t-9 -27q-8 -14 -24.5 -25
t-43.5 -11q-28 0 -52.5 9.5t-50.5 21.5q-19 9 -35 14.5t-33 5.5q-23 0 -30.5 -10t-12.5 -25q-4 -10 -9.5 -15.5t-18.5 -5.5q-14 0 -21.5 9.5t-7.5 32.5q0 14 3 29.5t10 27.5z" />
    <glyph glyph-name="ograve" unicode="&#xf2;" horiz-adv-x="527" 
d="M42 0zM264 397q-49 0 -75.5 -37t-26.5 -109t26.5 -112.5t75.5 -40.5q48 0 74.5 40.5t26.5 112.5t-26.5 109t-74.5 37zM264 509q52 0 93 -18.5t69.5 -52t43 -81.5t14.5 -106q0 -59 -14.5 -107.5t-43 -83t-69.5 -53.5t-93 -19q-53 0 -94.5 19t-70 53.5t-43 83t-14.5 107.5
q0 58 14.5 106t43 81.5t70 52t94.5 18.5zM310 633q13 -19 13 -35q0 -17 -11.5 -27.5t-27.5 -10.5q-6 0 -14 2.5t-16 11.5l-97 113q-8 9 -11.5 18.5t-3.5 18.5q0 20 14 33.5t34 13.5q10 0 22.5 -5t23.5 -22z" />
    <glyph glyph-name="oacute" unicode="&#xf3;" horiz-adv-x="527" 
d="M42 0zM264 397q-49 0 -75.5 -37t-26.5 -109t26.5 -112.5t75.5 -40.5q48 0 74.5 40.5t26.5 112.5t-26.5 109t-74.5 37zM264 509q52 0 93 -18.5t69.5 -52t43 -81.5t14.5 -106q0 -59 -14.5 -107.5t-43 -83t-69.5 -53.5t-93 -19q-53 0 -94.5 19t-70 53.5t-43 83t-14.5 107.5
q0 58 14.5 106t43 81.5t70 52t94.5 18.5zM289 744q11 15 22.5 21t23.5 6q21 0 34.5 -13.5t13.5 -33.5t-14 -37l-98 -113q-7 -8 -14.5 -11t-15.5 -3q-15 0 -27 10.5t-12 27.5t14 35z" />
    <glyph glyph-name="ocircumflex" unicode="&#xf4;" horiz-adv-x="527" 
d="M42 0zM264 397q-49 0 -75.5 -37t-26.5 -109t26.5 -112.5t75.5 -40.5q48 0 74.5 40.5t26.5 112.5t-26.5 109t-74.5 37zM264 509q52 0 93 -18.5t69.5 -52t43 -81.5t14.5 -106q0 -59 -14.5 -107.5t-43 -83t-69.5 -53.5t-93 -19q-53 0 -94.5 19t-70 53.5t-43 83t-14.5 107.5
q0 58 14.5 106t43 81.5t70 52t94.5 18.5zM196 733q15 23 32.5 30.5t34.5 7.5q19 0 36.5 -8.5t31.5 -29.5l74 -109q3 -5 5.5 -11t2.5 -14q0 -17 -12.5 -28.5t-27.5 -11.5q-8 0 -16.5 3.5t-16.5 14.5l-77 100l-76 -100q-15 -18 -32 -18q-15 0 -28 11t-13 29q0 8 2.5 14t5.5 11
z" />
    <glyph glyph-name="otilde" unicode="&#xf5;" horiz-adv-x="527" 
d="M42 0zM264 397q-49 0 -75.5 -37t-26.5 -109t26.5 -112.5t75.5 -40.5q48 0 74.5 40.5t26.5 112.5t-26.5 109t-74.5 37zM264 509q52 0 93 -18.5t69.5 -52t43 -81.5t14.5 -106q0 -59 -14.5 -107.5t-43 -83t-69.5 -53.5t-93 -19q-53 0 -94.5 19t-70 53.5t-43 83t-14.5 107.5
q0 58 14.5 106t43 81.5t70 52t94.5 18.5zM100 717q8 14 24 25t44 11q27 0 49 -7t45 -19q23 -11 41.5 -18t36.5 -7q22 0 29 10t12 25q6 20 29 20q14 0 21 -9.5t7 -32.5q0 -14 -3 -29t-9 -27q-8 -14 -24.5 -25t-43.5 -11q-28 0 -52.5 9.5t-50.5 21.5q-19 9 -35 14.5t-33 5.5
q-23 0 -30.5 -10t-12.5 -25q-4 -10 -9.5 -15.5t-18.5 -5.5q-14 0 -21.5 9.5t-7.5 32.5q0 14 3 29.5t10 27.5z" />
    <glyph glyph-name="odieresis" unicode="&#xf6;" horiz-adv-x="527" 
d="M42 0zM264 397q-49 0 -75.5 -37t-26.5 -109t26.5 -112.5t75.5 -40.5q48 0 74.5 40.5t26.5 112.5t-26.5 109t-74.5 37zM264 509q52 0 93 -18.5t69.5 -52t43 -81.5t14.5 -106q0 -59 -14.5 -107.5t-43 -83t-69.5 -53.5t-93 -19q-53 0 -94.5 19t-70 53.5t-43 83t-14.5 107.5
q0 58 14.5 106t43 81.5t70 52t94.5 18.5zM298 672q0 26 18 44t46 18q27 0 45.5 -18t18.5 -44t-18.5 -43.5t-45.5 -17.5q-28 0 -46 17.5t-18 43.5zM99 672q0 26 18.5 44t46.5 18q27 0 45.5 -18t18.5 -44t-18.5 -43.5t-45.5 -17.5q-28 0 -46.5 17.5t-18.5 43.5z" />
    <glyph glyph-name="divide" unicode="&#xf7;" 
d="M73 45zM362 113q0 -28 -21.5 -48t-50.5 -20t-50.5 20t-21.5 48q0 29 21.5 49t50.5 20t50.5 -20t21.5 -49zM362 471q0 -29 -21.5 -49t-50.5 -20t-50.5 20t-21.5 49q0 28 21.5 48t50.5 20t50.5 -20t21.5 -48zM120 247q-19 0 -33 13.5t-14 32.5q0 18 14 31.5t33 13.5h338
q19 0 33 -13.5t14 -31.5q0 -19 -14 -32.5t-33 -13.5h-338z" />
    <glyph glyph-name="oslash" unicode="&#xf8;" horiz-adv-x="527" 
d="M436 425q23 -32 35.5 -76t12.5 -98q0 -59 -15 -107.5t-43 -83t-68.5 -53.5t-92.5 -19q-38 0 -68.5 10t-55.5 27l-28 -37q-5 -8 -12.5 -12t-14.5 -4q-11 0 -23 8.5t-12 27.5q0 4 1 10t6 11l33 44q-49 69 -49 178q0 58 14.5 106t43 81.5t69.5 52t94 18.5q73 0 122 -35
l27 36q5 8 12.5 11t14.5 3q14 0 25 -10.5t11 -24.5q0 -9 -8 -20zM202 109q23 -22 61 -22q53 0 81 43t28 115q0 26 -3.5 44.5t-9.5 33.5zM323 391q-12 8 -26 13.5t-34 5.5q-53 0 -80.5 -40.5t-27.5 -115.5q0 -46 12 -77z" />
    <glyph glyph-name="ugrave" unicode="&#xf9;" horiz-adv-x="545" 
d="M78 0zM472 192q0 -37 -7.5 -73.5t-28.5 -65.5t-59.5 -47t-100.5 -18q-61 0 -99.5 18t-60.5 47.5t-30 66t-8 73.5v252q0 24 16.5 40.5t42.5 16.5t43 -16.5t17 -40.5v-256q0 -87 79 -87q78 0 78 85v258q0 24 17.5 40.5t41.5 16.5t41.5 -16.5t17.5 -40.5v-253zM320 633
q13 -19 13 -35q0 -17 -11.5 -27.5t-27.5 -10.5q-6 0 -14 2.5t-16 11.5l-97 113q-8 9 -11.5 18.5t-3.5 18.5q0 20 14 33.5t34 13.5q10 0 22.5 -5t23.5 -22z" />
    <glyph glyph-name="uacute" unicode="&#xfa;" horiz-adv-x="545" 
d="M78 0zM472 192q0 -37 -7.5 -73.5t-28.5 -65.5t-59.5 -47t-100.5 -18q-61 0 -99.5 18t-60.5 47.5t-30 66t-8 73.5v252q0 24 16.5 40.5t42.5 16.5t43 -16.5t17 -40.5v-256q0 -87 79 -87q78 0 78 85v258q0 24 17.5 40.5t41.5 16.5t41.5 -16.5t17.5 -40.5v-253zM299 744
q11 15 22.5 21t23.5 6q21 0 34.5 -13.5t13.5 -33.5t-14 -37l-98 -113q-7 -8 -14.5 -11t-15.5 -3q-15 0 -27 10.5t-12 27.5t14 35z" />
    <glyph glyph-name="ucircumflex" unicode="&#xfb;" horiz-adv-x="545" 
d="M78 0zM472 192q0 -37 -7.5 -73.5t-28.5 -65.5t-59.5 -47t-100.5 -18q-61 0 -99.5 18t-60.5 47.5t-30 66t-8 73.5v252q0 24 16.5 40.5t42.5 16.5t43 -16.5t17 -40.5v-256q0 -87 79 -87q78 0 78 85v258q0 24 17.5 40.5t41.5 16.5t41.5 -16.5t17.5 -40.5v-253zM205 733
q15 23 32.5 30.5t34.5 7.5q19 0 36.5 -8.5t31.5 -29.5l74 -109q3 -5 5.5 -11t2.5 -14q0 -17 -12.5 -28.5t-27.5 -11.5q-8 0 -16.5 3.5t-16.5 14.5l-77 100l-76 -100q-15 -18 -32 -18q-15 0 -28 11t-13 29q0 8 2.5 14t5.5 11z" />
    <glyph glyph-name="udieresis" unicode="&#xfc;" horiz-adv-x="545" 
d="M78 0zM472 192q0 -37 -7.5 -73.5t-28.5 -65.5t-59.5 -47t-100.5 -18q-61 0 -99.5 18t-60.5 47.5t-30 66t-8 73.5v252q0 24 16.5 40.5t42.5 16.5t43 -16.5t17 -40.5v-256q0 -87 79 -87q78 0 78 85v258q0 24 17.5 40.5t41.5 16.5t41.5 -16.5t17.5 -40.5v-253zM307 672
q0 26 18 44t46 18q27 0 45.5 -18t18.5 -44t-18.5 -43.5t-45.5 -17.5q-28 0 -46 17.5t-18 43.5zM108 672q0 26 18.5 44t46.5 18q27 0 45.5 -18t18.5 -44t-18.5 -43.5t-45.5 -17.5q-28 0 -46.5 17.5t-18.5 43.5z" />
    <glyph glyph-name="yacute" unicode="&#xfd;" horiz-adv-x="435" 
d="M7 0zM227 -87q-5 -12 -16.5 -35t-28.5 -45.5t-38.5 -39t-45.5 -16.5q-25 0 -42.5 16t-17.5 40q0 17 8.5 29.5t21.5 20.5q24 14 38 36.5t23 47.5l27 70l-144 379q-2 5 -3.5 11.5t-1.5 16.5q0 22 17 40t44 18q25 0 38.5 -11.5t19.5 -29.5l89 -274l91 275q5 17 20 28.5
t35 11.5q23 0 40 -16.5t17 -38.5q0 -10 -4 -20zM243 744q11 15 22.5 21t23.5 6q21 0 34.5 -13.5t13.5 -33.5t-14 -37l-98 -113q-7 -8 -14.5 -11t-15.5 -3q-15 0 -27 10.5t-12 27.5t14 35z" />
    <glyph glyph-name="thorn" unicode="&#xfe;" horiz-adv-x="525" 
d="M187 451q20 27 51.5 42.5t69.5 15.5q48 0 81 -22t53 -58.5t29 -83.5t9 -98t-8.5 -97.5t-28 -82.5t-52.5 -57.5t-81 -21.5q-35 0 -69 16t-54 45v-216q0 -24 -17 -40t-43 -16q-25 0 -42.5 16t-17.5 40v865q0 24 17.5 41t42.5 17q26 0 43 -17t17 -41v-247zM187 120
q15 -14 36 -21.5t42 -7.5q96 0 96 155q0 77 -23.5 118.5t-72.5 41.5q-25 0 -45 -8t-33 -25v-253z" />
    <glyph glyph-name="ydieresis" unicode="&#xff;" horiz-adv-x="435" 
d="M7 0zM227 -87q-5 -12 -16.5 -35t-28.5 -45.5t-38.5 -39t-45.5 -16.5q-25 0 -42.5 16t-17.5 40q0 17 8.5 29.5t21.5 20.5q24 14 38 36.5t23 47.5l27 70l-144 379q-2 5 -3.5 11.5t-1.5 16.5q0 22 17 40t44 18q25 0 38.5 -11.5t19.5 -29.5l89 -274l91 275q5 17 20 28.5
t35 11.5q23 0 40 -16.5t17 -38.5q0 -10 -4 -20zM252 672q0 26 18 44t46 18q27 0 45.5 -18t18.5 -44t-18.5 -43.5t-45.5 -17.5q-28 0 -46 17.5t-18 43.5zM53 672q0 26 18.5 44t46.5 18q27 0 45.5 -18t18.5 -44t-18.5 -43.5t-45.5 -17.5q-28 0 -46.5 17.5t-18.5 43.5z" />
    <glyph glyph-name="Amacron" unicode="&#x100;" horiz-adv-x="563" 
d="M8 0zM550 81q4 -13 4 -25q0 -23 -15.5 -41.5t-44.5 -18.5q-23 0 -39 12t-21 29l-38 115h-235l-38 -117q-5 -17 -19.5 -28t-36.5 -11q-27 0 -43 17t-16 40q0 7 1.5 12.5t3.5 13.5l210 610q6 17 22.5 28.5t36.5 11.5t36.5 -11.5t22.5 -28.5zM194 260h169l-85 255zM425 916
q17 0 29 -11.5t12 -26.5t-12 -26.5t-29 -11.5h-286q-17 0 -29.5 11.5t-12.5 26.5t12.5 26.5t29.5 11.5h286z" />
    <glyph glyph-name="amacron" unicode="&#x101;" horiz-adv-x="482" 
d="M38 0zM408 115q0 -11 3 -19t7 -14.5t7 -14t3 -16.5q0 -20 -15.5 -37.5t-45.5 -17.5q-17 0 -28.5 6.5t-18.5 16t-11 21t-6 22.5q-20 -35 -53.5 -54.5t-78.5 -19.5q-28 0 -52.5 8.5t-42.5 25t-28 41.5t-10 58q0 26 6 45t16 33t23 23t26 15q20 9 44 14t48 9t46.5 9t40.5 14
v59q0 30 -12 43t-40 13q-26 0 -39 -10.5t-27 -28.5q-9 -12 -20.5 -22.5t-33.5 -10.5q-27 0 -41 16.5t-14 41.5q0 21 10 41t27 37q23 21 57 33.5t85 12.5q36 0 66.5 -7.5t53 -27t35.5 -53t13 -84.5v-221zM291 220q-29 -16 -59 -22t-50 -17q-13 -7 -20.5 -18t-7.5 -29
q0 -25 14 -38t40 -13q29 0 49.5 15t33.5 38v84zM384 716q17 0 29 -12t12 -28q0 -17 -12 -29t-29 -12h-286q-17 0 -29.5 12t-12.5 29q0 16 12.5 28t29.5 12h286z" />
    <glyph glyph-name="Abreve" unicode="&#x102;" horiz-adv-x="563" 
d="M8 0zM550 81q4 -13 4 -25q0 -23 -15.5 -41.5t-44.5 -18.5q-23 0 -39 12t-21 29l-38 115h-235l-38 -117q-5 -17 -19.5 -28t-36.5 -11q-27 0 -43 17t-16 40q0 7 1.5 12.5t3.5 13.5l210 610q6 17 22.5 28.5t36.5 11.5t36.5 -11.5t22.5 -28.5zM194 260h169l-85 255zM98 913
q0 14 8 20.5t22 6.5q13 0 22.5 -5.5t17.5 -13.5q21 -18 47 -28t66 -10q41 0 67 10t47 28q8 8 17 13.5t23 5.5t22 -6.5t8 -20.5q0 -19 -12.5 -34t-23.5 -24q-23 -19 -59.5 -31t-88.5 -12q-51 0 -87.5 12t-60.5 31q-11 9 -23 24t-12 34z" />
    <glyph glyph-name="abreve" unicode="&#x103;" horiz-adv-x="482" 
d="M38 0zM408 115q0 -11 3 -19t7 -14.5t7 -14t3 -16.5q0 -20 -15.5 -37.5t-45.5 -17.5q-17 0 -28.5 6.5t-18.5 16t-11 21t-6 22.5q-20 -35 -53.5 -54.5t-78.5 -19.5q-28 0 -52.5 8.5t-42.5 25t-28 41.5t-10 58q0 26 6 45t16 33t23 23t26 15q20 9 44 14t48 9t46.5 9t40.5 14
v59q0 30 -12 43t-40 13q-26 0 -39 -10.5t-27 -28.5q-9 -12 -20.5 -22.5t-33.5 -10.5q-27 0 -41 16.5t-14 41.5q0 21 10 41t27 37q23 21 57 33.5t85 12.5q36 0 66.5 -7.5t53 -27t35.5 -53t13 -84.5v-221zM291 220q-29 -16 -59 -22t-50 -17q-13 -7 -20.5 -18t-7.5 -29
q0 -25 14 -38t40 -13q29 0 49.5 15t33.5 38v84zM86 742q14 0 23 -6t17 -14q22 -21 47.5 -31.5t66.5 -10.5t66.5 10.5t47.5 31.5q8 8 17 14t23 6q29 0 29 -30q0 -20 -12 -35.5t-23 -25.5q-23 -20 -59.5 -33.5t-88.5 -13.5q-51 0 -87.5 13.5t-60.5 33.5q-11 10 -23 25.5
t-12 35.5q0 30 29 30z" />
    <glyph glyph-name="Aogonek" unicode="&#x104;" horiz-adv-x="572" 
d="M550 81q4 -13 4 -25q0 -19 -11 -33.5t-28 -22.5q-32 -17 -50 -45.5t-18 -51.5q0 -14 9.5 -22.5t23.5 -8.5q15 0 25.5 3t21.5 3q17 0 28.5 -10.5t11.5 -26.5q0 -15 -8.5 -24.5t-21.5 -15t-28.5 -7.5t-28.5 -2q-52 0 -82.5 23.5t-30.5 72.5q0 18 7.5 34.5t19.5 31t27 26.5
t31 20l9 5q-19 11 -27 32l-38 115h-235l-38 -117q-5 -17 -21 -28t-36 -11q-23 0 -40.5 17t-17.5 40q0 6 1.5 12l3.5 14l210 609q6 17 22.5 28.5t35.5 11.5q20 0 37 -11.5t23 -28.5zM194 260h169l-85 254z" />
    <glyph glyph-name="aogonek" unicode="&#x105;" horiz-adv-x="484" 
d="M408 115q0 -11 3 -19t7 -15t7 -14t3 -15q0 -20 -10.5 -33.5t-27.5 -18.5q-32 -19 -50.5 -46.5t-18.5 -50.5q0 -14 9.5 -22.5t23.5 -8.5t24.5 3t21.5 3q18 0 29.5 -10.5t11.5 -26.5q0 -15 -8.5 -24.5t-21.5 -15t-28.5 -7.5t-28.5 -2q-53 0 -83 23.5t-30 72.5q0 35 27.5 66
t66.5 50q-17 10 -23 26t-9 32q-20 -35 -53.5 -53.5t-76.5 -18.5q-60 0 -97.5 33t-37.5 92q0 42 13 67.5t33.5 41t47.5 22.5t54.5 12t54 9.5t47.5 15.5v59q0 55 -46 55q-14 0 -24 -1.5t-18 -6t-15 -12t-15 -18.5q-9 -12 -20.5 -22.5t-35.5 -10.5q-26 0 -39.5 17t-13.5 39
q0 27 12.5 49.5t35.5 39.5t54.5 26.5t70.5 9.5q38 0 70 -7t55 -26t36 -52.5t13 -85.5v-221zM291 220q-24 -13 -48.5 -19t-44 -13t-32 -18.5t-12.5 -36.5q0 -23 14 -35.5t39 -12.5q55 0 84 51v84z" />
    <glyph glyph-name="Cacute" unicode="&#x106;" horiz-adv-x="655" 
d="M58 0zM598 600q12 -24 12 -38q0 -24 -18 -42t-45 -18q-14 0 -29 7.5t-22 21.5q-21 39 -56.5 61t-82.5 22q-42 0 -74.5 -19t-55 -53t-34 -80.5t-11.5 -101.5q0 -54 11 -100t33 -79.5t55 -52.5t78 -19q17 0 36 4.5t36.5 13t31 21.5t19.5 31q6 17 23 29.5t37 12.5
q26 0 44 -18t18 -42q0 -18 -6.5 -33.5t-17.5 -31.5q-17 -23 -41 -43t-53.5 -34t-62.5 -22t-66 -8q-69 0 -124.5 26.5t-94.5 75t-59.5 117.5t-20.5 153q0 81 21 150t60 119t94 78t123 28q84 0 144 -35.5t98 -100.5zM377 942q11 14 22.5 19.5t23.5 5.5q20 0 34 -12.5t14 -31.5
q0 -17 -15 -33l-97 -106q-12 -13 -31 -13q-15 0 -26.5 9.5t-11.5 25.5t13 33z" />
    <glyph glyph-name="cacute" unicode="&#x107;" horiz-adv-x="489" 
d="M43 0zM426 422q5 -8 9.5 -19.5t4.5 -24.5q0 -24 -16.5 -40t-38.5 -16q-23 0 -33.5 11t-18.5 25q-5 9 -10.5 17.5t-13.5 15t-20 11t-30 4.5q-41 0 -69 -37.5t-28 -117.5t29.5 -119.5t70.5 -39.5q26 0 42.5 12t24.5 29q6 14 17 28.5t36 14.5q22 0 38.5 -17.5t16.5 -40.5
q0 -14 -6 -28t-14 -27q-12 -17 -29.5 -31t-38.5 -23.5t-43.5 -15t-44.5 -5.5q-51 0 -91.5 19t-68.5 53.5t-43 83t-15 107.5q0 58 15.5 105.5t44 81.5t69 52.5t91.5 18.5t95.5 -22t67.5 -65zM283 744q11 15 22.5 21t23.5 6q21 0 34.5 -13.5t13.5 -33.5t-14 -37l-98 -113
q-7 -8 -14.5 -11t-15.5 -3q-15 0 -27 10.5t-12 27.5t14 35z" />
    <glyph glyph-name="Cdotaccent" unicode="&#x10a;" horiz-adv-x="655" 
d="M58 0zM598 600q12 -24 12 -38q0 -24 -18 -42t-45 -18q-14 0 -29 7.5t-22 21.5q-21 39 -56.5 61t-82.5 22q-42 0 -74.5 -19t-55 -53t-34 -80.5t-11.5 -101.5q0 -54 11 -100t33 -79.5t55 -52.5t78 -19q17 0 36 4.5t36.5 13t31 21.5t19.5 31q6 17 23 29.5t37 12.5
q26 0 44 -18t18 -42q0 -18 -6.5 -33.5t-17.5 -31.5q-17 -23 -41 -43t-53.5 -34t-62.5 -22t-66 -8q-69 0 -124.5 26.5t-94.5 75t-59.5 117.5t-20.5 153q0 81 21 150t60 119t94 78t123 28q84 0 144 -35.5t98 -100.5zM290 880q0 26 18 44t46 18t46 -18t18 -44t-18 -44t-46 -18
t-46 18t-18 44z" />
    <glyph glyph-name="cdotaccent" unicode="&#x10b;" horiz-adv-x="489" 
d="M43 0zM426 422q5 -8 9.5 -19.5t4.5 -24.5q0 -24 -16.5 -40t-38.5 -16q-23 0 -33.5 11t-18.5 25q-5 9 -10.5 17.5t-13.5 15t-20 11t-30 4.5q-41 0 -69 -37.5t-28 -117.5t29.5 -119.5t70.5 -39.5q26 0 42.5 12t24.5 29q6 14 17 28.5t36 14.5q22 0 38.5 -17.5t16.5 -40.5
q0 -14 -6 -28t-14 -27q-12 -17 -29.5 -31t-38.5 -23.5t-43.5 -15t-44.5 -5.5q-51 0 -91.5 19t-68.5 53.5t-43 83t-15 107.5q0 58 15.5 105.5t44 81.5t69 52.5t91.5 18.5t95.5 -22t67.5 -65zM192 672q0 26 18.5 44t46.5 18q27 0 45.5 -18t18.5 -44t-18.5 -43.5t-45.5 -17.5
q-28 0 -46.5 17.5t-18.5 43.5z" />
    <glyph glyph-name="Ccaron" unicode="&#x10c;" horiz-adv-x="655" 
d="M58 0zM598 600q12 -24 12 -38q0 -24 -18 -42t-45 -18q-14 0 -29 7.5t-22 21.5q-21 39 -56.5 61t-82.5 22q-42 0 -74.5 -19t-55 -53t-34 -80.5t-11.5 -101.5q0 -54 11 -100t33 -79.5t55 -52.5t78 -19q17 0 36 4.5t36.5 13t31 21.5t19.5 31q6 17 23 29.5t37 12.5
q26 0 44 -18t18 -42q0 -18 -6.5 -33.5t-17.5 -31.5q-17 -23 -41 -43t-53.5 -34t-62.5 -22t-66 -8q-69 0 -124.5 26.5t-94.5 75t-59.5 117.5t-20.5 153q0 81 21 150t60 119t94 78t123 28q84 0 144 -35.5t98 -100.5zM354 857l77 94q14 16 32 16q15 0 28 -10t13 -27
q0 -7 -2.5 -13t-5.5 -11l-75 -101q-15 -20 -32 -27.5t-34 -7.5q-20 0 -37 8t-31 27l-74 101q-3 5 -5.5 11t-2.5 13q0 17 12 27t29 10q20 0 32 -16z" />
    <glyph glyph-name="ccaron" unicode="&#x10d;" horiz-adv-x="489" 
d="M43 0zM426 422q5 -8 9.5 -19.5t4.5 -24.5q0 -24 -16.5 -40t-38.5 -16q-23 0 -33.5 11t-18.5 25q-5 9 -10.5 17.5t-13.5 15t-20 11t-30 4.5q-41 0 -69 -37.5t-28 -117.5t29.5 -119.5t70.5 -39.5q26 0 42.5 12t24.5 29q6 14 17 28.5t36 14.5q22 0 38.5 -17.5t16.5 -40.5
q0 -14 -6 -28t-14 -27q-12 -17 -29.5 -31t-38.5 -23.5t-43.5 -15t-44.5 -5.5q-51 0 -91.5 19t-68.5 53.5t-43 83t-15 107.5q0 58 15.5 105.5t44 81.5t69 52.5t91.5 18.5t95.5 -22t67.5 -65zM257 653l77 100q15 18 32 18q15 0 28 -11t13 -29q0 -8 -2.5 -14t-5.5 -11l-74 -109
q-15 -22 -32.5 -30t-34.5 -8q-22 0 -38 10t-29 28l-75 109q-3 5 -5.5 11t-2.5 14q0 17 12 28.5t29 11.5q18 0 32 -18z" />
    <glyph glyph-name="Dcaron" unicode="&#x10e;" horiz-adv-x="681" 
d="M88 0zM290 724q75 0 136 -22t103.5 -67t66 -113.5t23.5 -160.5q0 -93 -22.5 -161t-64.5 -112.5t-103 -66t-139 -21.5h-141q-24 0 -42.5 18t-18.5 43v602q0 25 18.5 43t42.5 18h141zM212 602v-480h33q67 0 114 10t77 36.5t44 73t14 119.5q0 72 -14 118.5t-43 74t-73.5 38
t-106.5 10.5h-45zM320 857l77 94q14 16 32 16q15 0 28 -10t13 -27q0 -7 -2.5 -13t-5.5 -11l-75 -101q-15 -20 -32 -27.5t-34 -7.5q-20 0 -37 8t-31 27l-74 101q-3 5 -5.5 11t-2.5 13q0 17 12 27t29 10q20 0 32 -16z" />
    <glyph glyph-name="dcaron" unicode="&#x10f;" horiz-adv-x="573" 
d="M43 0zM459 138q0 -32 6 -51.5t6 -34.5q0 -25 -17.5 -40.5t-42.5 -15.5q-21 0 -38.5 14.5t-25.5 52.5q-17 -32 -50.5 -53.5t-81.5 -21.5q-50 0 -83 21.5t-52.5 58t-28 83.5t-8.5 98t8.5 98t28 83t52.5 57.5t82 21.5q36 0 71 -19t55 -48v256q0 24 17 41t43 17q25 0 42 -17
t17 -41v-560zM340 373q-15 15 -37 24.5t-44 9.5q-48 0 -72 -40t-24 -117q0 -76 22 -119t73 -43q27 0 49 11t33 31v243zM543 658q-18 6 -26 20.5t-8 28.5q0 18 13.5 34t40.5 16q53 0 53 -70q0 -20 -4.5 -43t-13 -43t-20.5 -33.5t-27 -13.5q-11 0 -15.5 6.5t-4.5 14.5
q0 11 6.5 27.5t6.5 36.5v9.5t-1 9.5z" />
    <glyph glyph-name="Dcroat" unicode="&#x110;" horiz-adv-x="680" 
d="M6 0zM290 724q75 0 136 -22t103.5 -67t66 -113.5t23.5 -160.5q0 -93 -22.5 -161t-64.5 -112.5t-103 -66t-139 -21.5h-141q-24 0 -42.5 18t-18.5 43v259h-24q-23 0 -40.5 17t-17.5 40t17.5 39t40.5 16h24v231q0 25 18.5 43t42.5 18h141zM212 602v-170h89q23 0 40.5 -16
t17.5 -39t-17.5 -40t-40.5 -17h-89v-198h33q67 0 114 10t77 36.5t44 73t14 119.5q0 72 -14 118.5t-43 74t-73.5 38t-106.5 10.5h-45z" />
    <glyph glyph-name="dcroat" unicode="&#x111;" horiz-adv-x="530" 
d="M459 665h21q17 0 29 -12t12 -28q0 -17 -12 -29.5t-29 -12.5h-21v-433q0 -35 6 -56.5t6 -41.5q0 -23 -16 -39.5t-39 -16.5q-26 0 -45.5 14t-23.5 53q-17 -33 -52.5 -54t-83.5 -21t-80 22t-51.5 58.5t-28 83.5t-8.5 97q0 49 8 96t27.5 83t51.5 58t80 22q37 0 73.5 -17.5
t56.5 -48.5v141h-91q-16 0 -29 12.5t-13 29.5q0 16 13 28t29 12h91v33q0 21 17.5 39.5t42.5 18.5t42 -17t17 -41v-33zM340 373q-15 15 -37 24.5t-44 9.5q-48 0 -72 -40t-24 -117q0 -76 22 -118.5t73 -42.5q27 0 49 10.5t33 30.5v243z" />
    <glyph glyph-name="Emacron" unicode="&#x112;" horiz-adv-x="588" 
d="M88 0zM212 603v-171h214q23 0 40.5 -16t17.5 -39t-17.5 -40t-40.5 -17h-214v-198h250q26 0 44 -18.5t18 -42.5q0 -25 -18 -43t-44 -18h-312q-25 0 -43.5 18t-18.5 43v602q0 25 18.5 43t43.5 18h312q26 0 44 -18t18 -43q0 -24 -18 -42t-44 -18h-250zM444 916
q17 0 29 -11.5t12 -26.5t-12 -26.5t-29 -11.5h-286q-17 0 -29.5 11.5t-12.5 26.5t12.5 26.5t29.5 11.5h286z" />
    <glyph glyph-name="emacron" unicode="&#x113;" horiz-adv-x="517" 
d="M49 0zM169 230q2 -68 27.5 -103t68.5 -35q26 0 45.5 12t35.5 32q8 11 19 18.5t29 7.5q26 0 41.5 -17t15.5 -37q0 -14 -6 -26t-14 -21q-30 -36 -74 -54.5t-94 -18.5t-90 19t-67.5 54t-42 83t-14.5 107q0 58 15 105.5t43 81.5t67.5 52.5t89.5 18.5q48 0 85.5 -17
t63.5 -46.5t39.5 -69.5t13.5 -86q0 -27 -16.5 -43.5t-49.5 -16.5h-231zM343 304q-3 51 -25 75.5t-57 24.5q-37 0 -62 -25.5t-30 -74.5h174zM401 716q17 0 29 -12t12 -28q0 -17 -12 -29t-29 -12h-286q-17 0 -29.5 12t-12.5 29q0 16 12.5 28t29.5 12h286z" />
    <glyph glyph-name="Ebreve" unicode="&#x114;" horiz-adv-x="588" 
d="M88 0zM212 603v-171h214q23 0 40.5 -16t17.5 -39t-17.5 -40t-40.5 -17h-214v-198h250q26 0 44 -18.5t18 -42.5q0 -25 -18 -43t-44 -18h-312q-25 0 -43.5 18t-18.5 43v602q0 25 18.5 43t43.5 18h312q26 0 44 -18t18 -43q0 -24 -18 -42t-44 -18h-250zM117 913q0 14 8 20.5
t22 6.5q13 0 22.5 -5.5t17.5 -13.5q21 -18 47 -28t66 -10q41 0 67 10t47 28q8 8 17 13.5t23 5.5t22 -6.5t8 -20.5q0 -19 -12.5 -34t-23.5 -24q-23 -19 -59.5 -31t-88.5 -12q-51 0 -87.5 12t-60.5 31q-11 9 -23 24t-12 34z" />
    <glyph glyph-name="ebreve" unicode="&#x115;" horiz-adv-x="517" 
d="M49 0zM169 230q2 -68 27.5 -103t68.5 -35q26 0 45.5 12t35.5 32q8 11 19 18.5t29 7.5q26 0 41.5 -17t15.5 -37q0 -14 -6 -26t-14 -21q-30 -36 -74 -54.5t-94 -18.5t-90 19t-67.5 54t-42 83t-14.5 107q0 58 15 105.5t43 81.5t67.5 52.5t89.5 18.5q48 0 85.5 -17
t63.5 -46.5t39.5 -69.5t13.5 -86q0 -27 -16.5 -43.5t-49.5 -16.5h-231zM343 304q-3 51 -25 75.5t-57 24.5q-37 0 -62 -25.5t-30 -74.5h174zM104 742q14 0 23 -6t17 -14q22 -21 47.5 -31.5t66.5 -10.5t66.5 10.5t47.5 31.5q8 8 17 14t23 6q29 0 29 -30q0 -20 -12 -35.5
t-23 -25.5q-23 -20 -59.5 -33.5t-88.5 -13.5q-51 0 -87.5 13.5t-60.5 33.5q-11 10 -23 25.5t-12 35.5q0 30 29 30z" />
    <glyph glyph-name="Edotaccent" unicode="&#x116;" horiz-adv-x="588" 
d="M88 0zM212 603v-171h214q23 0 40.5 -16t17.5 -39t-17.5 -40t-40.5 -17h-214v-198h250q26 0 44 -18.5t18 -42.5q0 -25 -18 -43t-44 -18h-312q-25 0 -43.5 18t-18.5 43v602q0 25 18.5 43t43.5 18h312q26 0 44 -18t18 -43q0 -24 -18 -42t-44 -18h-250zM243 880q0 26 18 44
t46 18t46 -18t18 -44t-18 -44t-46 -18t-46 18t-18 44z" />
    <glyph glyph-name="edotaccent" unicode="&#x117;" horiz-adv-x="517" 
d="M49 0zM169 230q2 -68 27.5 -103t68.5 -35q26 0 45.5 12t35.5 32q8 11 19 18.5t29 7.5q26 0 41.5 -17t15.5 -37q0 -14 -6 -26t-14 -21q-30 -36 -74 -54.5t-94 -18.5t-90 19t-67.5 54t-42 83t-14.5 107q0 58 15 105.5t43 81.5t67.5 52.5t89.5 18.5q48 0 85.5 -17
t63.5 -46.5t39.5 -69.5t13.5 -86q0 -27 -16.5 -43.5t-49.5 -16.5h-231zM343 304q-3 51 -25 75.5t-57 24.5q-37 0 -62 -25.5t-30 -74.5h174zM193 672q0 26 18.5 44t46.5 18q27 0 45.5 -18t18.5 -44t-18.5 -43.5t-45.5 -17.5q-28 0 -46.5 17.5t-18.5 43.5z" />
    <glyph glyph-name="Eogonek" unicode="&#x118;" horiz-adv-x="588" 
d="M211 603v-171h215q21 0 39.5 -16.5t18.5 -39.5q0 -24 -17.5 -40.5t-40.5 -16.5h-215v-198h234q30 0 54.5 -14.5t24.5 -46.5q0 -16 -9.5 -31t-32.5 -29q-18 -11 -31 -24.5t-21.5 -27t-12.5 -26t-4 -20.5q0 -14 9 -22t23 -8q13 0 24 3t25 3q17 0 27.5 -11t10.5 -26
q0 -14 -10 -23.5t-25.5 -15t-33 -8t-32.5 -2.5q-42 0 -70.5 23.5t-28.5 72.5q0 18 7 34.5t19 31t27 26.5t32 20h-250q-35 0 -57 15t-22 45v603q0 29 22.5 45t56.5 16h279q29 0 53.5 -15t24.5 -46q0 -24 -18 -42t-44 -18h-251z" />
    <glyph glyph-name="eogonek" unicode="&#x119;" horiz-adv-x="517" 
d="M169 230q2 -68 27.5 -102.5t68.5 -34.5q26 0 45.5 11.5t35.5 31.5q8 11 19 18.5t29 7.5q26 0 41.5 -17t15.5 -37q0 -14 -6 -26t-14 -21q-18 -23 -42.5 -38t-52.5 -23q-31 -19 -49.5 -46.5t-18.5 -50.5q0 -14 9.5 -22.5t23.5 -8.5q15 0 25.5 3t21.5 3q17 0 28.5 -10.5
t11.5 -26.5q0 -15 -8.5 -24.5t-21.5 -15t-28.5 -7.5t-28.5 -2q-52 0 -82.5 23.5t-30.5 72.5q0 30 19 57t45 44q-48 2 -85.5 21.5t-63.5 54t-40 82t-14 104.5q0 58 15 105.5t43 81.5t67.5 52.5t89.5 18.5q48 0 85.5 -17t63.5 -46.5t39.5 -69.5t13.5 -86q0 -24 -18.5 -42
t-47.5 -18h-231zM343 304q-3 51 -25 75.5t-57 24.5q-37 0 -62 -25.5t-30 -74.5h174z" />
    <glyph glyph-name="Ecaron" unicode="&#x11a;" horiz-adv-x="588" 
d="M88 0zM212 603v-171h214q23 0 40.5 -16t17.5 -39t-17.5 -40t-40.5 -17h-214v-198h250q26 0 44 -18.5t18 -42.5q0 -25 -18 -43t-44 -18h-312q-25 0 -43.5 18t-18.5 43v602q0 25 18.5 43t43.5 18h312q26 0 44 -18t18 -43q0 -24 -18 -42t-44 -18h-250zM300 857l77 94
q14 16 32 16q15 0 28 -10t13 -27q0 -7 -2.5 -13t-5.5 -11l-75 -101q-15 -20 -32 -27.5t-34 -7.5q-20 0 -37 8t-31 27l-74 101q-3 5 -5.5 11t-2.5 13q0 17 12 27t29 10q20 0 32 -16z" />
    <glyph glyph-name="ecaron" unicode="&#x11b;" horiz-adv-x="517" 
d="M49 0zM169 230q2 -68 27.5 -103t68.5 -35q26 0 45.5 12t35.5 32q8 11 19 18.5t29 7.5q26 0 41.5 -17t15.5 -37q0 -14 -6 -26t-14 -21q-30 -36 -74 -54.5t-94 -18.5t-90 19t-67.5 54t-42 83t-14.5 107q0 58 15 105.5t43 81.5t67.5 52.5t89.5 18.5q48 0 85.5 -17
t63.5 -46.5t39.5 -69.5t13.5 -86q0 -27 -16.5 -43.5t-49.5 -16.5h-231zM343 304q-3 51 -25 75.5t-57 24.5q-37 0 -62 -25.5t-30 -74.5h174zM258 653l77 100q15 18 32 18q15 0 28 -11t13 -29q0 -8 -2.5 -14t-5.5 -11l-74 -109q-15 -22 -32.5 -30t-34.5 -8q-22 0 -38 10
t-29 28l-75 109q-3 5 -5.5 11t-2.5 14q0 17 12 28.5t29 11.5q18 0 32 -18z" />
    <glyph glyph-name="Gbreve" unicode="&#x11e;" horiz-adv-x="702" 
d="M62 0zM604 68q-45 -38 -105 -59t-137 -21q-67 0 -122 25t-94.5 73t-61.5 117t-22 158q0 82 21 151t59.5 118.5t93.5 77.5t123 28q42 0 76.5 -7.5t64 -24t55 -43.5t49.5 -65q10 -15 10 -33q0 -25 -17.5 -43t-44.5 -18q-16 0 -30.5 8t-21.5 21q-25 44 -58.5 63.5
t-81.5 19.5q-41 0 -73 -19t-54.5 -53t-34.5 -80.5t-12 -101.5q0 -118 49 -185.5t137 -67.5q41 0 72 8t48 19v146h-104q-23 0 -41 17.5t-18 40.5q0 24 18 41t41 17h154q26 0 44 -18t18 -42v-268zM181 913q0 14 8 20.5t22 6.5q13 0 22.5 -5.5t17.5 -13.5q21 -18 47 -28t66 -10
q41 0 67 10t47 28q8 8 17 13.5t23 5.5t22 -6.5t8 -20.5q0 -19 -12.5 -34t-23.5 -24q-23 -19 -59.5 -31t-88.5 -12q-51 0 -87.5 12t-60.5 31q-11 9 -23 24t-12 34z" />
    <glyph glyph-name="gbreve" unicode="&#x11f;" horiz-adv-x="516" 
d="M42 0zM453 3q0 -47 -12.5 -88t-37.5 -72t-61 -48.5t-82 -17.5q-38 0 -79.5 12.5t-69.5 38.5q-27 25 -27 57q0 23 15.5 40t39.5 17q20 0 32.5 -9.5t21.5 -19.5q14 -14 29.5 -22.5t38.5 -8.5q42 0 59.5 28.5t17.5 82.5v101q-20 -29 -52.5 -46t-76.5 -17q-48 0 -80 20
t-51.5 53.5t-27.5 77t-8 89.5q0 49 8.5 92t28 75.5t50.5 51.5t76 19t78 -18t56 -49q2 26 15.5 42.5t42.5 16.5q33 0 44.5 -22t11.5 -53v-423zM338 376q-16 14 -37 22t-46 8q-46 0 -69.5 -32t-23.5 -101q0 -66 22 -103.5t73 -37.5q53 0 81 36v208zM104 742q14 0 23 -6t17 -14
q22 -21 47.5 -31.5t66.5 -10.5t66.5 10.5t47.5 31.5q8 8 17 14t23 6q29 0 29 -30q0 -20 -12 -35.5t-23 -25.5q-23 -20 -59.5 -33.5t-88.5 -13.5q-51 0 -87.5 13.5t-60.5 33.5q-11 10 -23 25.5t-12 35.5q0 30 29 30z" />
    <glyph glyph-name="Gdotaccent" unicode="&#x120;" horiz-adv-x="702" 
d="M62 0zM604 68q-45 -38 -105 -59t-137 -21q-67 0 -122 25t-94.5 73t-61.5 117t-22 158q0 82 21 151t59.5 118.5t93.5 77.5t123 28q42 0 76.5 -7.5t64 -24t55 -43.5t49.5 -65q10 -15 10 -33q0 -25 -17.5 -43t-44.5 -18q-16 0 -30.5 8t-21.5 21q-25 44 -58.5 63.5
t-81.5 19.5q-41 0 -73 -19t-54.5 -53t-34.5 -80.5t-12 -101.5q0 -118 49 -185.5t137 -67.5q41 0 72 8t48 19v146h-104q-23 0 -41 17.5t-18 40.5q0 24 18 41t41 17h154q26 0 44 -18t18 -42v-268zM300 880q0 26 18 44t46 18t46 -18t18 -44t-18 -44t-46 -18t-46 18t-18 44z" />
    <glyph glyph-name="gdotaccent" unicode="&#x121;" horiz-adv-x="516" 
d="M42 0zM453 3q0 -47 -12.5 -88t-37.5 -72t-61 -48.5t-82 -17.5q-38 0 -79.5 12.5t-69.5 38.5q-27 25 -27 57q0 23 15.5 40t39.5 17q20 0 32.5 -9.5t21.5 -19.5q14 -14 29.5 -22.5t38.5 -8.5q42 0 59.5 28.5t17.5 82.5v101q-20 -29 -52.5 -46t-76.5 -17q-48 0 -80 20
t-51.5 53.5t-27.5 77t-8 89.5q0 49 8.5 92t28 75.5t50.5 51.5t76 19t78 -18t56 -49q2 26 15.5 42.5t42.5 16.5q33 0 44.5 -22t11.5 -53v-423zM338 376q-16 14 -37 22t-46 8q-46 0 -69.5 -32t-23.5 -101q0 -66 22 -103.5t73 -37.5q53 0 81 36v208zM193 672q0 26 18.5 44
t46.5 18q27 0 45.5 -18t18.5 -44t-18.5 -43.5t-45.5 -17.5q-28 0 -46.5 17.5t-18.5 43.5z" />
    <glyph glyph-name="Gcommaaccent" unicode="&#x122;" horiz-adv-x="702" 
d="M62 0zM604 68q-45 -38 -105 -59t-137 -21q-67 0 -122 25t-94.5 73t-61.5 117t-22 158q0 82 21 151t59.5 118.5t93.5 77.5t123 28q42 0 76.5 -7.5t64 -24t55 -43.5t49.5 -65q10 -15 10 -33q0 -25 -17.5 -43t-44.5 -18q-16 0 -30.5 8t-21.5 21q-25 44 -58.5 63.5
t-81.5 19.5q-41 0 -73 -19t-54.5 -53t-34.5 -80.5t-12 -101.5q0 -118 49 -185.5t137 -67.5q41 0 72 8t48 19v146h-104q-23 0 -41 17.5t-18 40.5q0 24 18 41t41 17h154q26 0 44 -18t18 -42v-268zM340 -117q-18 6 -26 20.5t-8 28.5q0 18 13.5 34t40.5 16q53 0 53 -70
q0 -20 -4.5 -43t-13 -43t-20.5 -33.5t-27 -13.5q-11 0 -15.5 6.5t-4.5 14.5q0 11 6.5 27.5t6.5 36.5v9.5t-1 9.5z" />
    <glyph glyph-name="gcommaaccent" unicode="&#x123;" horiz-adv-x="516" 
d="M42 0zM453 3q0 -47 -12.5 -88t-37.5 -72t-61 -48.5t-82 -17.5q-38 0 -79.5 12.5t-69.5 38.5q-27 25 -27 57q0 23 15.5 40t39.5 17q20 0 32.5 -9.5t21.5 -19.5q14 -14 29.5 -22.5t38.5 -8.5q42 0 59.5 28.5t17.5 82.5v101q-20 -29 -52.5 -46t-76.5 -17q-48 0 -80 20
t-51.5 53.5t-27.5 77t-8 89.5q0 49 8.5 92t28 75.5t50.5 51.5t76 19t78 -18t56 -49q2 26 15.5 42.5t42.5 16.5q33 0 44.5 -22t11.5 -53v-423zM338 376q-16 14 -37 22t-46 8q-46 0 -69.5 -32t-23.5 -101q0 -66 22 -103.5t73 -37.5q53 0 81 36v208zM284 663q20 -9 30 -27.5
t10 -35.5q0 -25 -16.5 -45.5t-48.5 -20.5t-50.5 21.5t-18.5 68.5q0 23 6 52.5t16.5 55.5t25 43.5t32.5 17.5q15 0 21 -8t6 -18t-2.5 -18.5t-5.5 -18t-5.5 -20.5t-2.5 -25q0 -5 1 -10.5t2 -11.5z" />
    <glyph glyph-name="Hcircumflex" unicode="&#x124;" horiz-adv-x="686" 
d="M88 0zM596 56q0 -24 -18.5 -42t-42.5 -18q-26 0 -44.5 18t-18.5 42v265h-260v-265q0 -24 -18.5 -42t-43.5 -18q-24 0 -43 18t-19 42v613q0 24 19 42t43 18q25 0 43.5 -18t18.5 -42v-233h260v233q0 24 18.5 42t44.5 18q24 0 42.5 -18t18.5 -42v-613zM275 932
q15 21 32.5 28t34.5 7q19 0 36 -8t31 -27l75 -101q3 -5 5.5 -10.5t2.5 -13.5q0 -17 -12.5 -27t-28.5 -10q-18 0 -32 17l-77 93l-76 -93q-14 -17 -32 -17q-15 0 -28 10t-13 27q0 8 2.5 13.5t5.5 10.5z" />
    <glyph glyph-name="hcircumflex" unicode="&#x125;" horiz-adv-x="543" 
d="M0 0zM197 462q6 7 15 15.5t23.5 15.5t34.5 11.5t47 4.5q31 0 57.5 -13.5t46 -39.5t31 -64.5t11.5 -87.5v-166q0 -32 5.5 -51.5t5.5 -34.5q0 -25 -17 -40.5t-43 -15.5q-23 0 -36.5 12t-21 31.5t-10 45t-2.5 52.5v176q0 19 -3.5 36.5t-12.5 31t-24 22t-37 8.5
q-26 0 -43.5 -8t-26.5 -20v-330q0 -24 -17.5 -40.5t-42.5 -16.5q-23 0 -41.5 16.5t-18.5 40.5v645q0 23 17 40.5t43 17.5q25 0 42.5 -17.5t17.5 -40.5v-236zM74 932q15 21 32.5 28t34.5 7q19 0 36 -8t31 -27l75 -101q3 -5 5.5 -10.5t2.5 -13.5q0 -17 -12.5 -27t-28.5 -10
q-18 0 -32 17l-77 93l-76 -93q-14 -17 -32 -17q-15 0 -28 10t-13 27q0 8 2.5 13.5t5.5 10.5z" />
    <glyph glyph-name="Hbar" unicode="&#x126;" horiz-adv-x="686" 
d="M596 56q0 -24 -18.5 -42t-42.5 -18q-26 0 -44.5 18t-18.5 42v265h-260v-265q0 -24 -18.5 -42t-43.5 -18q-24 0 -43 18t-19 42v613q0 24 19 42t43 18q25 0 43.5 -18t18.5 -42v-55h260v55q0 24 18.5 42t44.5 18q24 0 42.5 -18t18.5 -42v-613zM212 527v-104h260v104h-260z
" />
    <glyph glyph-name="hbar" unicode="&#x127;" horiz-adv-x="543" 
d="M197 665h83q17 0 30 -12t13 -28q0 -17 -13 -29.5t-30 -12.5h-83v-121q13 16 40.5 30.5t78.5 14.5q30 0 56.5 -12.5t47 -38t32 -63.5t11.5 -89v-166q0 -16 1.5 -28t4 -21.5t4 -18t1.5 -17.5q0 -24 -17 -40.5t-43 -16.5q-23 0 -36.5 12t-21 31.5t-10 45t-2.5 52.5v176
q0 16 -4 33.5t-13 32t-24 23.5t-36 9q-26 0 -43.5 -8t-26.5 -20v-317q0 -29 -15.5 -49.5t-44.5 -20.5q-30 0 -45 20.5t-15 49.5v517h-26q-17 0 -30 12.5t-13 29.5q0 16 13 28t30 12h26v33q0 21 17.5 39.5t42.5 18.5t42.5 -17.5t17.5 -40.5v-33z" />
    <glyph glyph-name="Itilde" unicode="&#x128;" horiz-adv-x="342" 
d="M0 0zM232 56q0 -24 -18 -42t-43 -18q-26 0 -44.5 18t-18.5 42v613q0 24 18.5 42t44.5 18q25 0 43 -18t18 -42v-613zM-5 864q0 35 20.5 61t59.5 26q24 0 47.5 -7.5t45.5 -17t42.5 -17t38.5 -7.5q20 0 27 8.5t11 18.5q4 11 9.5 18t20.5 7q14 0 21.5 -8.5t7.5 -29.5
q0 -35 -20.5 -61t-59.5 -26q-24 0 -47.5 7.5t-45.5 16.5t-42.5 16.5t-38.5 7.5q-19 0 -26.5 -8t-11.5 -18q-2 -7 -8 -16.5t-23 -9.5q-13 0 -20.5 8.5t-7.5 30.5z" />
    <glyph glyph-name="itilde" unicode="&#x129;" horiz-adv-x="344" 
d="M0 0zM9 717q8 14 24 25t44 11q27 0 49 -7t45 -19q23 -11 41.5 -18t36.5 -7q22 0 29 10t12 25q6 20 29 20q14 0 21 -9.5t7 -32.5q0 -14 -3 -29t-9 -27q-8 -14 -24.5 -25t-43.5 -11q-28 0 -52.5 9.5t-50.5 21.5q-19 9 -35 14.5t-33 5.5q-23 0 -30.5 -10t-12.5 -25
q-4 -10 -9.5 -15.5t-18.5 -5.5q-14 0 -21.5 9.5t-7.5 32.5q0 14 3 29.5t10 27.5zM228 138q0 -16 1.5 -28t4 -21.5t4 -18t1.5 -17.5q0 -24 -17 -40.5t-42 -16.5q-23 0 -37 12t-21.5 31.5t-10 45t-2.5 52.5v307q0 25 14.5 41.5t45.5 16.5q24 0 41.5 -17t17.5 -41v-306z" />
    <glyph glyph-name="Imacron" unicode="&#x12a;" horiz-adv-x="361" 
d="M0 0zM241 56q0 -24 -18 -42t-43 -18q-26 0 -44.5 18t-18.5 42v613q0 24 18.5 42t44.5 18q25 0 43 -18t18 -42v-613zM324 916q17 0 29 -11.5t12 -26.5t-12 -26.5t-29 -11.5h-286q-17 0 -29.5 11.5t-12.5 26.5t12.5 26.5t29.5 11.5h286z" />
    <glyph glyph-name="imacron" unicode="&#x12b;" horiz-adv-x="355" 
d="M0 0zM321 716q17 0 29 -12t12 -28q0 -17 -12 -29t-29 -12h-286q-17 0 -29.5 12t-12.5 29q0 16 12.5 28t29.5 12h286zM234 138q0 -16 1.5 -28t4 -21.5t4 -18t1.5 -17.5q0 -24 -17 -40.5t-42 -16.5q-23 0 -37 12t-21.5 31.5t-10 45t-2.5 52.5v307q0 25 14.5 41.5t45.5 16.5
q24 0 41.5 -17t17.5 -41v-306z" />
    <glyph glyph-name="Ibreve" unicode="&#x12c;" horiz-adv-x="344" 
d="M0 0zM233 56q0 -24 -18 -42t-43 -18q-26 0 -44.5 18t-18.5 42v613q0 24 18.5 42t44.5 18q25 0 43 -18t18 -42v-613zM-11 913q0 14 8 20.5t22 6.5q13 0 22.5 -5.5t17.5 -13.5q21 -18 47 -28t66 -10q41 0 67 10t47 28q8 8 17 13.5t23 5.5t22 -6.5t8 -20.5q0 -19 -12.5 -34
t-23.5 -24q-23 -19 -59.5 -31t-88.5 -12q-51 0 -87.5 12t-60.5 31q-11 9 -23 24t-12 34z" />
    <glyph glyph-name="ibreve" unicode="&#x12d;" horiz-adv-x="353" 
d="M0 0zM23 742q14 0 23 -6t17 -14q22 -21 47.5 -31.5t66.5 -10.5t66.5 10.5t47.5 31.5q8 8 17 14t23 6q29 0 29 -30q0 -20 -12 -35.5t-23 -25.5q-23 -20 -59.5 -33.5t-88.5 -13.5q-51 0 -87.5 13.5t-60.5 33.5q-11 10 -23 25.5t-12 35.5q0 30 29 30zM232 138q0 -16 1.5 -28
t4 -21.5t4 -18t1.5 -17.5q0 -24 -17 -40.5t-42 -16.5q-23 0 -37 12t-21.5 31.5t-10 45t-2.5 52.5v307q0 25 14.5 41.5t45.5 16.5q24 0 41.5 -17t17.5 -41v-306z" />
    <glyph glyph-name="Iogonek" unicode="&#x12e;" horiz-adv-x="329" 
d="M227 55q0 -19 -11.5 -33.5t-28.5 -21.5q-13 -5 -25.5 -16.5t-22.5 -25t-16 -28.5t-6 -27q0 -14 10 -22.5t24 -8.5t25.5 3t24.5 3q17 0 27 -11t10 -26q0 -14 -10 -23.5t-25 -15t-32.5 -8t-32.5 -2.5q-42 0 -71 23.5t-29 72.5q0 18 9 36t23 33.5t30.5 28t32.5 19.5
q-14 7 -22.5 20.5t-8.5 29.5v612q0 26 15 44t47 18q26 0 44.5 -18t18.5 -43v-613z" />
    <glyph glyph-name="iogonek" unicode="&#x12f;" horiz-adv-x="282" 
d="M197 138q0 -32 5 -49t5 -34q0 -19 -10.5 -35t-26.5 -21q-17 -7 -30 -18.5t-21.5 -25t-13 -27.5t-4.5 -25t10 -21t25 -10q13 0 25 3t24 3q17 0 27 -11t10 -26q0 -14 -10 -23.5t-25 -15t-32.5 -8t-32.5 -2.5q-42 0 -70.5 23.5t-28.5 72.5q0 35 27.5 66t65.5 49
q-12 8 -19.5 22.5t-11.5 32.5t-5.5 38.5t-1.5 40.5v306q0 25 14 42t46 17q25 0 42 -17t17 -41v-306zM72 672q0 26 18.5 44t46.5 18q27 0 45.5 -18t18.5 -44t-18.5 -43.5t-45.5 -17.5q-28 0 -46.5 17.5t-18.5 43.5z" />
    <glyph glyph-name="Idotaccent" unicode="&#x130;" horiz-adv-x="303" 
d="M88 0zM212 56q0 -24 -18 -42t-43 -18q-26 0 -44.5 18t-18.5 42v613q0 24 18.5 42t44.5 18q25 0 43 -18t18 -42v-613zM88 880q0 26 18 44t46 18t46 -18t18 -44t-18 -44t-46 -18t-46 18t-18 44z" />
    <glyph glyph-name="dotlessi" unicode="&#x131;" horiz-adv-x="282" 
d="M197 138q0 -16 1.5 -28t4 -21.5t4 -18t1.5 -17.5q0 -24 -17 -40.5t-42 -16.5q-23 0 -37 12t-21.5 31.5t-10 45t-2.5 52.5v307q0 25 14.5 41.5t45.5 16.5q24 0 41.5 -17t17.5 -41v-306z" />
    <glyph glyph-name="IJ" unicode="&#x132;" horiz-adv-x="778" 
d="M88 0zM212 56q0 -24 -18 -42t-43 -18q-26 0 -44.5 18t-18.5 42v613q0 24 18.5 42t44.5 18q25 0 43 -18t18 -42v-613zM692 261q0 -60 -15 -110t-42.5 -86.5t-67.5 -56.5t-89 -20q-55 0 -95 18t-72 62q-8 11 -15.5 24t-7.5 29q0 25 18.5 43t43.5 18q21 0 35 -10t22 -26
q22 -38 70 -38q43 0 67.5 35.5t24.5 109.5v416q0 24 18 42t44 18q24 0 42.5 -18t18.5 -42v-408z" />
    <glyph glyph-name="ij" unicode="&#x133;" horiz-adv-x="548" 
d="M72 0zM197 138q0 -16 1.5 -28t4 -21.5t4 -18t1.5 -17.5q0 -24 -17 -40.5t-42 -16.5q-23 0 -37 12t-21.5 31.5t-10 45t-2.5 52.5v307q0 25 14.5 41.5t45.5 16.5q24 0 41.5 -17t17.5 -41v-306zM470 -59q0 -76 -32.5 -120t-107.5 -44q-19 0 -39.5 3.5t-37 11.5t-27 22
t-10.5 34q0 27 16 39t33 12q10 0 17 -3.5t13 -8t12 -8t15 -3.5q18 0 23.5 15.5t5.5 42.5v511q0 24 16.5 40.5t42.5 16.5t43 -16.5t17 -40.5v-504zM345 672q0 26 18.5 44t46.5 18q27 0 45.5 -18t18.5 -44t-18.5 -43.5t-45.5 -17.5q-28 0 -46.5 17.5t-18.5 43.5zM72 672
q0 26 18.5 44t46.5 18q27 0 45.5 -18t18.5 -44t-18.5 -43.5t-45.5 -17.5q-28 0 -46.5 17.5t-18.5 43.5z" />
    <glyph glyph-name="Jcircumflex" unicode="&#x134;" horiz-adv-x="501" 
d="M12 0zM416 261q0 -60 -15 -110t-42.5 -86.5t-67.5 -56.5t-89 -20q-55 0 -95 18t-72 62q-8 11 -15.5 24t-7.5 29q0 25 18.5 43t43.5 18q21 0 35 -10t22 -26q22 -38 70 -38q43 0 67.5 35.5t24.5 109.5v416q0 24 18 42t44 18q24 0 42.5 -18t18.5 -42v-408zM288 932
q15 21 32.5 28t34.5 7q19 0 36 -8t31 -27l75 -101q3 -5 5.5 -10.5t2.5 -13.5q0 -17 -12.5 -27t-28.5 -10q-18 0 -32 17l-77 93l-76 -93q-14 -17 -32 -17q-15 0 -28 10t-13 27q0 8 2.5 13.5t5.5 10.5z" />
    <glyph glyph-name="jcircumflex" unicode="&#x135;" horiz-adv-x="305" 
d="M0 0zM226 -59q0 -76 -32.5 -120t-107.5 -44q-19 0 -39.5 3.5t-37 11.5t-27 22t-10.5 34q0 27 16 39t33 12q10 0 17 -3.5t13 -8t12 -8t15 -3.5q18 0 23.5 15.5t5.5 42.5v511q0 24 16.5 40.5t42.5 16.5t43 -16.5t17 -40.5v-504zM97 733q15 23 32.5 30.5t34.5 7.5
q19 0 36.5 -8.5t31.5 -29.5l74 -109q3 -5 5.5 -11t2.5 -14q0 -17 -12.5 -28.5t-27.5 -11.5q-8 0 -16.5 3.5t-16.5 14.5l-77 100l-76 -100q-15 -18 -32 -18q-15 0 -28 11t-13 29q0 8 2.5 14t5.5 11z" />
    <glyph glyph-name="Kcommaaccent" unicode="&#x136;" horiz-adv-x="572" 
d="M89 0zM370 385l181 -293q11 -17 11 -34q0 -25 -19.5 -43.5t-45.5 -18.5q-17 0 -31.5 7.5t-25.5 24.5l-176 300h-51v-272q0 -24 -18 -42t-44 -18q-25 0 -43.5 18t-18.5 42v613q0 24 18.5 42t43.5 18q26 0 44 -18t18 -42v-244h60l163 277q15 27 49 27q21 0 38.5 -15
t17.5 -40q0 -14 -9 -30zM299 -117q-18 6 -26 20.5t-8 28.5q0 18 13.5 34t40.5 16q53 0 53 -70q0 -20 -4.5 -43t-13 -43t-20.5 -33.5t-27 -13.5q-11 0 -15.5 6.5t-4.5 14.5q0 11 6.5 27.5t6.5 36.5v9.5t-1 9.5z" />
    <glyph glyph-name="kcommaaccent" unicode="&#x137;" horiz-adv-x="495" 
d="M82 0zM201 289h35l112 182q8 12 20 21.5t29 9.5q23 0 38.5 -15.5t15.5 -37.5q0 -17 -10 -30l-104 -157l115 -172q6 -9 10.5 -18t4.5 -20q0 -23 -18.5 -39t-43.5 -16q-21 0 -36.5 11.5t-26.5 29.5l-106 169h-35v-145q0 -28 -14 -47t-45 -19t-45.5 19t-14.5 48v635
q0 24 14.5 41t42.5 17q29 0 45.5 -17.5t16.5 -40.5v-409zM243 -117q-18 6 -26 20.5t-8 28.5q0 18 13.5 34t40.5 16q53 0 53 -70q0 -20 -4.5 -43t-13 -43t-20.5 -33.5t-27 -13.5q-11 0 -15.5 6.5t-4.5 14.5q0 11 6.5 27.5t6.5 36.5v9.5t-1 9.5z" />
    <glyph glyph-name="Lacute" unicode="&#x139;" horiz-adv-x="547" 
d="M88 0zM212 122h238q25 0 43.5 -18.5t18.5 -42.5q0 -25 -18.5 -43t-43.5 -18h-300q-25 0 -43.5 18t-18.5 43v608q0 24 18.5 42t43.5 18t43.5 -18t18.5 -42v-547zM209 942q11 14 22.5 19.5t23.5 5.5q20 0 34 -12.5t14 -31.5q0 -17 -15 -33l-97 -106q-12 -13 -31 -13
q-15 0 -26.5 9.5t-11.5 25.5t13 33z" />
    <glyph glyph-name="lacute" unicode="&#x13a;" horiz-adv-x="280" 
d="M78 0zM197 138q0 -32 5.5 -51.5t5.5 -34.5q0 -25 -17.5 -40.5t-42.5 -15.5q-23 0 -37 12t-21.5 32t-9.5 45t-2 52v561q0 24 17 41t43 17q25 0 42 -17t17 -41v-560zM170 942q11 14 22.5 19.5t23.5 5.5q20 0 34 -12.5t14 -31.5q0 -17 -15 -33l-97 -106q-12 -13 -31 -13
q-15 0 -26.5 9.5t-11.5 25.5t13 33z" />
    <glyph glyph-name="Lcommaaccent" unicode="&#x13b;" horiz-adv-x="547" 
d="M88 0zM212 122h238q25 0 43.5 -18.5t18.5 -42.5q0 -25 -18.5 -43t-43.5 -18h-300q-25 0 -43.5 18t-18.5 43v608q0 24 18.5 42t43.5 18t43.5 -18t18.5 -42v-547zM273 -117q-18 6 -26 20.5t-8 28.5q0 18 13.5 34t40.5 16q53 0 53 -70q0 -20 -4.5 -43t-13 -43t-20.5 -33.5
t-27 -13.5q-11 0 -15.5 6.5t-4.5 14.5q0 11 6.5 27.5t6.5 36.5v9.5t-1 9.5z" />
    <glyph glyph-name="lcommaaccent" unicode="&#x13c;" horiz-adv-x="276" 
d="M78 0zM197 138q0 -32 5.5 -51.5t5.5 -34.5q0 -25 -17.5 -40.5t-42.5 -15.5q-23 0 -37 12t-21.5 32t-9.5 45t-2 52v561q0 24 17 41t43 17q25 0 42 -17t17 -41v-560zM124 -117q-18 6 -26 20.5t-8 28.5q0 18 13.5 34t40.5 16q53 0 53 -70q0 -20 -4.5 -43t-13 -43
t-20.5 -33.5t-27 -13.5q-11 0 -15.5 6.5t-4.5 14.5q0 11 6.5 27.5t6.5 36.5v9.5t-1 9.5z" />
    <glyph glyph-name="Lcaron" unicode="&#x13d;" horiz-adv-x="547" 
d="M88 0zM212 122h238q25 0 43.5 -18.5t18.5 -42.5q0 -25 -18.5 -43t-43.5 -18h-300q-25 0 -43.5 18t-18.5 43v608q0 24 18.5 42t43.5 18t43.5 -18t18.5 -42v-547zM338 631q-18 6 -26 20.5t-8 28.5q0 18 13.5 34t40.5 16q53 0 53 -70q0 -20 -4.5 -43t-13 -43t-20.5 -33.5
t-27 -13.5q-11 0 -15.5 6.5t-4.5 14.5q0 11 6.5 27.5t6.5 36.5v9.5t-1 9.5z" />
    <glyph glyph-name="lcaron" unicode="&#x13e;" horiz-adv-x="300" 
d="M78 0zM197 138q0 -32 5.5 -51.5t5.5 -34.5q0 -25 -17.5 -40.5t-42.5 -15.5q-23 0 -37 12t-21.5 32t-9.5 45t-2 52v561q0 24 17 41t43 17q25 0 42 -17t17 -41v-560zM281 658q-18 6 -26 20.5t-8 28.5q0 18 13.5 34t40.5 16q53 0 53 -70q0 -20 -4.5 -43t-13 -43t-20.5 -33.5
t-27 -13.5q-11 0 -15.5 6.5t-4.5 14.5q0 11 6.5 27.5t6.5 36.5v9.5t-1 9.5z" />
    <glyph glyph-name="Lslash" unicode="&#x141;" horiz-adv-x="542" 
d="M214 462l51 20q4 1 11 1q18 0 31.5 -11t13.5 -28q0 -14 -9 -26.5t-22 -17.5l-76 -27v-251h237q26 0 44.5 -18.5t18.5 -42.5q0 -25 -18.5 -43t-44.5 -18h-299q-25 0 -43.5 18t-18.5 43v276l-32 -11q-8 -2 -12 -2q-17 0 -31 11.5t-14 29.5q0 14 9.5 26t23.5 17l56 17v244
q0 24 18.5 42t43.5 18t43.5 -18t18.5 -42v-207z" />
    <glyph glyph-name="lslash" unicode="&#x142;" horiz-adv-x="277" 
d="M197 459l15 7q5 2 9 3t9 1q17 0 30.5 -11.5t13.5 -28.5t-10 -28t-25 -16l-42 -16v-232q0 -32 5 -49t5 -34q0 -26 -16 -42.5t-43 -16.5q-23 0 -37 13.5t-21.5 35t-9.5 48.5t-2 55v186l-22 -8q-6 -2 -12 -2q-16 0 -30 12t-14 29q0 14 11 26.5t29 19.5l38 12v275
q0 29 15.5 43.5t44.5 14.5q25 0 42 -17t17 -41v-239z" />
    <glyph glyph-name="Nacute" unicode="&#x143;" horiz-adv-x="709" 
d="M88 0zM619 56q0 -25 -18 -42.5t-47 -17.5q-20 0 -34 9.5t-22 20.5l-292 454v-427q0 -23 -17.5 -40t-41.5 -17t-41.5 17t-17.5 40v617q0 24 18 41.5t47 17.5q20 0 33.5 -9.5t21.5 -20.5l292 -453v426q0 23 18 40t41 17q24 0 42 -17t18 -40v-616zM381 942q11 14 22.5 19.5
t23.5 5.5q20 0 34 -12.5t14 -31.5q0 -17 -15 -33l-97 -106q-12 -13 -31 -13q-15 0 -26.5 9.5t-11.5 25.5t13 33z" />
    <glyph glyph-name="nacute" unicode="&#x144;" horiz-adv-x="529" 
d="M51 0zM448 136q0 -17 1.5 -29.5t4 -22t4 -17.5t1.5 -17q0 -23 -18 -38.5t-44 -15.5q-22 0 -35.5 12t-20.5 31.5t-9.5 44t-2.5 50.5v179q0 17 -4 34.5t-13 31.5t-24 23t-36 9q-47 0 -71 -33v-325q0 -23 -17.5 -40t-41.5 -17q-32 0 -46 22t-14 51v289q0 33 -5.5 50.5
t-5.5 34.5q0 23 14 41t46 18q23 0 36.5 -15t22.5 -40q22 26 51.5 44t79.5 18q63 0 105 -53t42 -152v-168zM284 744q11 15 22.5 21t23.5 6q21 0 34.5 -13.5t13.5 -33.5t-14 -37l-98 -113q-7 -8 -14.5 -11t-15.5 -3q-15 0 -27 10.5t-12 27.5t14 35z" />
    <glyph glyph-name="Ncommaaccent" unicode="&#x145;" horiz-adv-x="709" 
d="M88 0zM619 56q0 -25 -18 -42.5t-47 -17.5q-20 0 -34 9.5t-22 20.5l-292 454v-427q0 -23 -17.5 -40t-41.5 -17t-41.5 17t-17.5 40v617q0 24 18 41.5t47 17.5q20 0 33.5 -9.5t21.5 -20.5l292 -453v426q0 23 18 40t41 17q24 0 42 -17t18 -40v-616zM334 -117q-18 6 -26 20.5
t-8 28.5q0 18 13.5 34t40.5 16q53 0 53 -70q0 -20 -4.5 -43t-13 -43t-20.5 -33.5t-27 -13.5q-11 0 -15.5 6.5t-4.5 14.5q0 11 6.5 27.5t6.5 36.5v9.5t-1 9.5z" />
    <glyph glyph-name="ncommaaccent" unicode="&#x146;" horiz-adv-x="529" 
d="M51 0zM448 136q0 -17 1.5 -29.5t4 -22t4 -17.5t1.5 -17q0 -23 -18 -38.5t-44 -15.5q-22 0 -35.5 12t-20.5 31.5t-9.5 44t-2.5 50.5v179q0 17 -4 34.5t-13 31.5t-24 23t-36 9q-47 0 -71 -33v-325q0 -23 -17.5 -40t-41.5 -17q-32 0 -46 22t-14 51v289q0 33 -5.5 50.5
t-5.5 34.5q0 23 14 41t46 18q23 0 36.5 -15t22.5 -40q22 26 51.5 44t79.5 18q63 0 105 -53t42 -152v-168zM244 -117q-18 6 -26 20.5t-8 28.5q0 18 13.5 34t40.5 16q53 0 53 -70q0 -20 -4.5 -43t-13 -43t-20.5 -33.5t-27 -13.5q-11 0 -15.5 6.5t-4.5 14.5q0 11 6.5 27.5
t6.5 36.5v9.5t-1 9.5z" />
    <glyph glyph-name="Ncaron" unicode="&#x147;" horiz-adv-x="709" 
d="M88 0zM619 56q0 -25 -18 -42.5t-47 -17.5q-20 0 -34 9.5t-22 20.5l-292 454v-427q0 -23 -17.5 -40t-41.5 -17t-41.5 17t-17.5 40v617q0 24 18 41.5t47 17.5q20 0 33.5 -9.5t21.5 -20.5l292 -453v426q0 23 18 40t41 17q24 0 42 -17t18 -40v-616zM354 857l77 94
q14 16 32 16q15 0 28 -10t13 -27q0 -7 -2.5 -13t-5.5 -11l-75 -101q-15 -20 -32 -27.5t-34 -7.5q-20 0 -37 8t-31 27l-74 101q-3 5 -5.5 11t-2.5 13q0 17 12 27t29 10q20 0 32 -16z" />
    <glyph glyph-name="ncaron" unicode="&#x148;" horiz-adv-x="529" 
d="M51 0zM448 136q0 -17 1.5 -29.5t4 -22t4 -17.5t1.5 -17q0 -23 -18 -38.5t-44 -15.5q-22 0 -35.5 12t-20.5 31.5t-9.5 44t-2.5 50.5v179q0 17 -4 34.5t-13 31.5t-24 23t-36 9q-47 0 -71 -33v-325q0 -23 -17.5 -40t-41.5 -17q-32 0 -46 22t-14 51v289q0 33 -5.5 50.5
t-5.5 34.5q0 23 14 41t46 18q23 0 36.5 -15t22.5 -40q22 26 51.5 44t79.5 18q63 0 105 -53t42 -152v-168zM257 653l77 100q15 18 32 18q15 0 28 -11t13 -29q0 -8 -2.5 -14t-5.5 -11l-74 -109q-15 -22 -32.5 -30t-34.5 -8q-22 0 -38 10t-29 28l-75 109q-3 5 -5.5 11t-2.5 14
q0 17 12 28.5t29 11.5q18 0 32 -18z" />
    <glyph glyph-name="Eng" unicode="&#x14a;" horiz-adv-x="670" 
d="M585 -59q0 -76 -34.5 -120t-109.5 -44q-19 0 -39.5 3.5t-37 11.5t-27 22t-10.5 34q0 27 16 39t33 12q10 0 17 -3.5t13 -8t12 -8t15 -3.5q18 0 23.5 15.5t5.5 42.5v535q0 67 -30.5 106.5t-90.5 39.5q-47 0 -77.5 -20t-55.5 -58v-479q0 -24 -18.5 -41.5t-42.5 -17.5
q-25 0 -44 17.5t-19 41.5v610q0 25 15 43t41 18q31 0 46 -20t16 -50q28 35 68 56t94 21q55 0 96.5 -20t69.5 -57t41.5 -88.5t13.5 -115.5v-514v0z" />
    <glyph glyph-name="eng" unicode="&#x14b;" horiz-adv-x="526" 
d="M448 -59q0 -75 -31 -119.5t-104 -44.5q-20 0 -41 3t-38.5 11.5t-29 22.5t-11.5 37t16 35.5t33 12.5q12 0 19 -3.5t13 -8t11.5 -8t14.5 -3.5q22 0 25.5 16.5t3.5 50.5v370q0 16 -4 33.5t-13 32.5t-24 24.5t-36 9.5q-25 0 -42.5 -9.5t-28.5 -25.5v-309q0 -31 -14.5 -52
t-44.5 -21q-32 0 -46 22t-14 51v296q0 17 -1.5 29.5t-4 22t-4 18t-1.5 17.5q0 22 17.5 36t35.5 14q22 0 40 -16t26 -39q23 29 54.5 45.5t77.5 16.5q30 0 56.5 -13t46.5 -39t31.5 -64t11.5 -89v-363z" />
    <glyph glyph-name="Omacron" unicode="&#x14c;" horiz-adv-x="735" 
d="M64 0zM367 736q67 0 122.5 -25.5t95.5 -74t62 -118t22 -156.5q0 -88 -22 -157.5t-61.5 -117.5t-95.5 -73.5t-123 -25.5q-68 0 -124 25.5t-95.5 73.5t-61.5 117.5t-22 157.5q0 87 22 156.5t61.5 118t95.5 74t124 25.5zM367 614q-44 0 -77 -18.5t-56 -52t-34.5 -80
t-11.5 -102.5t11.5 -102.5t34.5 -79.5t56 -51.5t77 -18.5q43 0 76.5 18.5t56 51.5t34 79.5t11.5 102.5t-11.5 102.5t-34 80t-56 52t-76.5 18.5zM510 916q17 0 29 -11.5t12 -26.5t-12 -26.5t-29 -11.5h-286q-17 0 -29.5 11.5t-12.5 26.5t12.5 26.5t29.5 11.5h286z" />
    <glyph glyph-name="omacron" unicode="&#x14d;" horiz-adv-x="527" 
d="M42 0zM264 397q-49 0 -75.5 -37t-26.5 -109t26.5 -112.5t75.5 -40.5q48 0 74.5 40.5t26.5 112.5t-26.5 109t-74.5 37zM264 509q52 0 93 -18.5t69.5 -52t43 -81.5t14.5 -106q0 -59 -14.5 -107.5t-43 -83t-69.5 -53.5t-93 -19q-53 0 -94.5 19t-70 53.5t-43 83t-14.5 107.5
q0 58 14.5 106t43 81.5t70 52t94.5 18.5zM407 716q17 0 29 -12t12 -28q0 -17 -12 -29t-29 -12h-286q-17 0 -29.5 12t-12.5 29q0 16 12.5 28t29.5 12h286z" />
    <glyph glyph-name="Obreve" unicode="&#x14e;" horiz-adv-x="735" 
d="M64 0zM367 736q67 0 122.5 -25.5t95.5 -74t62 -118t22 -156.5q0 -88 -22 -157.5t-61.5 -117.5t-95.5 -73.5t-123 -25.5q-68 0 -124 25.5t-95.5 73.5t-61.5 117.5t-22 157.5q0 87 22 156.5t61.5 118t95.5 74t124 25.5zM367 614q-44 0 -77 -18.5t-56 -52t-34.5 -80
t-11.5 -102.5t11.5 -102.5t34.5 -79.5t56 -51.5t77 -18.5q43 0 76.5 18.5t56 51.5t34 79.5t11.5 102.5t-11.5 102.5t-34 80t-56 52t-76.5 18.5zM184 913q0 14 8 20.5t22 6.5q13 0 22.5 -5.5t17.5 -13.5q21 -18 47 -28t66 -10q41 0 67 10t47 28q8 8 17 13.5t23 5.5t22 -6.5
t8 -20.5q0 -19 -12.5 -34t-23.5 -24q-23 -19 -59.5 -31t-88.5 -12q-51 0 -87.5 12t-60.5 31q-11 9 -23 24t-12 34z" />
    <glyph glyph-name="obreve" unicode="&#x14f;" horiz-adv-x="527" 
d="M42 0zM264 397q-49 0 -75.5 -37t-26.5 -109t26.5 -112.5t75.5 -40.5q48 0 74.5 40.5t26.5 112.5t-26.5 109t-74.5 37zM264 509q52 0 93 -18.5t69.5 -52t43 -81.5t14.5 -106q0 -59 -14.5 -107.5t-43 -83t-69.5 -53.5t-93 -19q-53 0 -94.5 19t-70 53.5t-43 83t-14.5 107.5
q0 58 14.5 106t43 81.5t70 52t94.5 18.5zM109 742q14 0 23 -6t17 -14q22 -21 47.5 -31.5t66.5 -10.5t66.5 10.5t47.5 31.5q8 8 17 14t23 6q29 0 29 -30q0 -20 -12 -35.5t-23 -25.5q-23 -20 -59.5 -33.5t-88.5 -13.5q-51 0 -87.5 13.5t-60.5 33.5q-11 10 -23 25.5t-12 35.5
q0 30 29 30z" />
    <glyph glyph-name="Ohungarumlaut" unicode="&#x150;" horiz-adv-x="735" 
d="M64 0zM367 736q67 0 122.5 -25.5t95.5 -74t62 -118t22 -156.5q0 -88 -22 -157.5t-61.5 -117.5t-95.5 -73.5t-123 -25.5q-68 0 -124 25.5t-95.5 73.5t-61.5 117.5t-22 157.5q0 87 22 156.5t61.5 118t95.5 74t124 25.5zM367 614q-44 0 -77 -18.5t-56 -52t-34.5 -80
t-11.5 -102.5t11.5 -102.5t34.5 -79.5t56 -51.5t77 -18.5q43 0 76.5 18.5t56 51.5t34 79.5t11.5 102.5t-11.5 102.5t-34 80t-56 52t-76.5 18.5zM485 942q11 14 22.5 19.5t23.5 5.5q20 0 34 -12.5t14 -31.5q0 -17 -15 -33l-97 -106q-12 -13 -31 -13q-15 0 -26.5 9.5
t-11.5 25.5t13 33zM302 942q11 14 22.5 19.5t23.5 5.5q20 0 34 -12.5t14 -31.5q0 -17 -15 -33l-97 -106q-12 -13 -31 -13q-15 0 -26.5 9.5t-11.5 25.5t13 33z" />
    <glyph glyph-name="ohungarumlaut" unicode="&#x151;" horiz-adv-x="527" 
d="M42 0zM264 397q-49 0 -75.5 -37t-26.5 -109t26.5 -112.5t75.5 -40.5q48 0 74.5 40.5t26.5 112.5t-26.5 109t-74.5 37zM264 509q52 0 93 -18.5t69.5 -52t43 -81.5t14.5 -106q0 -59 -14.5 -107.5t-43 -83t-69.5 -53.5t-93 -19q-53 0 -94.5 19t-70 53.5t-43 83t-14.5 107.5
q0 58 14.5 106t43 81.5t70 52t94.5 18.5zM381 744q11 17 23.5 22t22.5 5q20 0 34 -13.5t14 -33.5q0 -9 -3.5 -18.5t-11.5 -18.5l-97 -113q-8 -9 -16 -11.5t-14 -2.5q-16 0 -27.5 10.5t-11.5 27.5q0 16 13 35zM197 744q11 16 22.5 21.5t24.5 5.5q20 0 34 -13.5t14 -33.5
q0 -9 -3.5 -18.5t-11.5 -18.5l-98 -113q-13 -14 -30 -14q-15 0 -27 10t-12 27q0 16 14 36z" />
    <glyph glyph-name="OE" unicode="&#x152;" horiz-adv-x="973" 
d="M607 603v-171h214q24 0 41 -16.5t17 -39.5q0 -24 -17 -40.5t-41 -16.5h-214v-198h252q24 0 43 -18.5t19 -42.5t-19 -42t-43 -18h-313q-15 0 -25 9t-16 15q-65 -36 -144 -36q-68 0 -124 25.5t-95.5 73.5t-61.5 117.5t-22 157.5q0 87 22 156.5t61.5 118t95.5 74t124 25.5
q39 0 74.5 -10.5t67.5 -29.5q3 10 16 19t27 9h313q24 0 43 -18.5t19 -42.5t-19 -42t-43 -18h-252zM484 557q-23 26 -54 41.5t-69 15.5q-44 0 -77 -18.5t-56 -52t-34.5 -80t-11.5 -102.5q0 -57 11.5 -103.5t34.5 -79.5t56 -51.5t77 -18.5q38 0 69 14.5t54 41.5v393z" />
    <glyph glyph-name="oe" unicode="&#x153;" horiz-adv-x="830" 
d="M485 230q2 -68 27.5 -103t68.5 -35q51 0 82 44q8 10 19 18t29 8q26 0 41.5 -17t15.5 -37q0 -14 -6 -26t-14 -21q-30 -36 -74 -54.5t-95 -18.5q-50 0 -89.5 20.5t-65.5 55.5q-27 -35 -67 -55.5t-93 -20.5t-94.5 19t-70 53.5t-43 83t-14.5 107.5q0 58 14.5 106t43 81.5
t70 52t94.5 18.5t93.5 -20.5t67.5 -55.5q27 35 66.5 55.5t88.5 20.5q48 0 86 -17t63.5 -46.5t39 -68.5t13.5 -83q0 -27 -18 -45.5t-47 -18.5h-232zM661 304q-4 51 -25.5 75.5t-58.5 24.5q-36 0 -61.5 -25.5t-30.5 -74.5h176zM264 397q-49 0 -75.5 -37t-26.5 -109
t26.5 -112.5t75.5 -40.5q48 0 74.5 40.5t26.5 112.5t-26.5 109t-74.5 37z" />
    <glyph glyph-name="Racute" unicode="&#x154;" horiz-adv-x="618" 
d="M99 0zM266 724q56 0 106 -9t88 -33.5t60.5 -67.5t22.5 -110q0 -80 -35.5 -128t-86.5 -67l137 -223q9 -15 9 -31q0 -25 -19.5 -42t-44.5 -17q-15 0 -29 6.5t-24 23.5l-152 257h-76v-228q0 -24 -18 -41.5t-44 -17.5q-24 0 -42.5 17.5t-18.5 41.5v608q0 24 18.5 42.5
t42.5 18.5h106zM222 602v-207h86q46 0 78.5 24.5t32.5 80.5q0 53 -32 77.5t-78 24.5h-87zM315 942q11 14 22.5 19.5t23.5 5.5q20 0 34 -12.5t14 -31.5q0 -17 -15 -33l-97 -106q-12 -13 -31 -13q-15 0 -26.5 9.5t-11.5 25.5t13 33z" />
    <glyph glyph-name="racute" unicode="&#x155;" horiz-adv-x="416" 
d="M51 0zM181 65q0 -29 -15 -49t-44 -20q-30 0 -45 20.5t-15 49.5v299q0 17 -1.5 29.5t-4 22t-4 18t-1.5 17.5q0 22 17.5 36t35.5 14q34 0 49.5 -21t19.5 -51q53 79 130 79q17 0 34 -4.5t30.5 -14t22 -23.5t8.5 -33q0 -26 -18 -42t-46 -16q-13 0 -22 3.5t-18.5 8t-21 8
t-29.5 3.5q-13 0 -34 -9t-28 -23v-302zM247 744q11 15 22.5 21t23.5 6q21 0 34.5 -13.5t13.5 -33.5t-14 -37l-98 -113q-7 -8 -14.5 -11t-15.5 -3q-15 0 -27 10.5t-12 27.5t14 35z" />
    <glyph glyph-name="Rcommaaccent" unicode="&#x156;" horiz-adv-x="618" 
d="M99 0zM266 724q56 0 106 -9t88 -33.5t60.5 -67.5t22.5 -110q0 -80 -35.5 -128t-86.5 -67l137 -223q9 -15 9 -31q0 -25 -19.5 -42t-44.5 -17q-15 0 -29 6.5t-24 23.5l-152 257h-76v-228q0 -24 -18 -41.5t-44 -17.5q-24 0 -42.5 17.5t-18.5 41.5v608q0 24 18.5 42.5
t42.5 18.5h106zM222 602v-207h86q46 0 78.5 24.5t32.5 80.5q0 53 -32 77.5t-78 24.5h-87zM295 -117q-18 6 -26 20.5t-8 28.5q0 18 13.5 34t40.5 16q53 0 53 -70q0 -20 -4.5 -43t-13 -43t-20.5 -33.5t-27 -13.5q-11 0 -15.5 6.5t-4.5 14.5q0 11 6.5 27.5t6.5 36.5v9.5t-1 9.5
z" />
    <glyph glyph-name="rcommaaccent" unicode="&#x157;" horiz-adv-x="416" 
d="M51 0zM181 65q0 -29 -15 -49t-44 -20q-30 0 -45 20.5t-15 49.5v299q0 17 -1.5 29.5t-4 22t-4 18t-1.5 17.5q0 22 17.5 36t35.5 14q34 0 49.5 -21t19.5 -51q53 79 130 79q17 0 34 -4.5t30.5 -14t22 -23.5t8.5 -33q0 -26 -18 -42t-46 -16q-13 0 -22 3.5t-18.5 8t-21 8
t-29.5 3.5q-13 0 -34 -9t-28 -23v-302zM103 -117q-18 6 -26 20.5t-8 28.5q0 18 13.5 34t40.5 16q53 0 53 -70q0 -20 -4.5 -43t-13 -43t-20.5 -33.5t-27 -13.5q-11 0 -15.5 6.5t-4.5 14.5q0 11 6.5 27.5t6.5 36.5v9.5t-1 9.5z" />
    <glyph glyph-name="Rcaron" unicode="&#x158;" horiz-adv-x="618" 
d="M99 0zM266 724q56 0 106 -9t88 -33.5t60.5 -67.5t22.5 -110q0 -80 -35.5 -128t-86.5 -67l137 -223q9 -15 9 -31q0 -25 -19.5 -42t-44.5 -17q-15 0 -29 6.5t-24 23.5l-152 257h-76v-228q0 -24 -18 -41.5t-44 -17.5q-24 0 -42.5 17.5t-18.5 41.5v608q0 24 18.5 42.5
t42.5 18.5h106zM222 602v-207h86q46 0 78.5 24.5t32.5 80.5q0 53 -32 77.5t-78 24.5h-87zM288 857l77 94q14 16 32 16q15 0 28 -10t13 -27q0 -7 -2.5 -13t-5.5 -11l-75 -101q-15 -20 -32 -27.5t-34 -7.5q-20 0 -37 8t-31 27l-74 101q-3 5 -5.5 11t-2.5 13q0 17 12 27t29 10
q20 0 32 -16z" />
    <glyph glyph-name="rcaron" unicode="&#x159;" horiz-adv-x="416" 
d="M51 0zM181 65q0 -29 -15 -49t-44 -20q-30 0 -45 20.5t-15 49.5v299q0 17 -1.5 29.5t-4 22t-4 18t-1.5 17.5q0 22 17.5 36t35.5 14q34 0 49.5 -21t19.5 -51q53 79 130 79q17 0 34 -4.5t30.5 -14t22 -23.5t8.5 -33q0 -26 -18 -42t-46 -16q-13 0 -22 3.5t-18.5 8t-21 8
t-29.5 3.5q-13 0 -34 -9t-28 -23v-302zM217 653l77 100q15 18 32 18q15 0 28 -11t13 -29q0 -8 -2.5 -14t-5.5 -11l-74 -109q-15 -22 -32.5 -30t-34.5 -8q-22 0 -38 10t-29 28l-75 109q-3 5 -5.5 11t-2.5 14q0 17 12 28.5t29 11.5q18 0 32 -18z" />
    <glyph glyph-name="Sacute" unicode="&#x15a;" horiz-adv-x="577" 
d="M56 0zM475 651q13 -18 21.5 -38t8.5 -38q0 -27 -18.5 -46t-44.5 -19q-22 0 -37 14t-23 37q-4 12 -9 21.5t-19 20.5q-12 9 -27.5 13.5t-32.5 4.5q-19 0 -36.5 -6t-31 -17.5t-21.5 -27.5t-8 -37q0 -20 8 -35t21.5 -26t32.5 -19.5t40 -16.5q16 -6 35 -12.5t38 -14.5
t37.5 -17.5t34.5 -21.5q34 -26 55 -64.5t21 -97.5q0 -56 -19.5 -97t-52 -68.5t-75 -41t-89.5 -13.5q-74 0 -130 31.5t-82 87.5q-6 13 -11 28.5t-5 29.5q0 26 18 44t44 18q20 0 35 -11.5t23 -30.5q9 -23 14.5 -32t16.5 -18q15 -14 36 -20.5t44 -6.5q22 0 42 6.5t35 18.5
t23.5 29.5t8.5 40.5q0 21 -7.5 35.5t-20.5 26t-30.5 19.5t-37.5 15q-43 15 -80.5 30.5t-69.5 39.5q-33 25 -55.5 63t-22.5 95q0 47 17 85.5t46.5 66t70 42.5t88.5 15q56 0 103 -21t78 -64zM315 942q11 14 22.5 19.5t23.5 5.5q20 0 34 -12.5t14 -31.5q0 -17 -15 -33l-97 -106
q-12 -13 -31 -13q-15 0 -26.5 9.5t-11.5 25.5t13 33z" />
    <glyph glyph-name="sacute" unicode="&#x15b;" horiz-adv-x="465" 
d="M40 0zM383 452q8 -11 13 -23t5 -27q0 -19 -15 -34.5t-34 -15.5q-30 0 -45 15q-8 7 -13.5 14t-15.5 15q-9 8 -23.5 13t-34.5 5q-26 0 -39 -12t-13 -30q0 -16 10.5 -26.5t27.5 -18.5q28 -14 66 -24t72 -30q31 -17 51 -44.5t20 -74.5q0 -42 -14 -73t-39.5 -51.5t-60.5 -31
t-77 -10.5q-41 0 -85.5 15.5t-73.5 52.5q-9 11 -17 24.5t-8 30.5q0 23 15.5 37t36.5 14q22 0 36 -7.5t25 -23.5t31 -29.5t42 -13.5q30 0 51.5 14t21.5 35q0 20 -12.5 32.5t-32.5 20.5q-34 12 -67 23t-59 26q-33 19 -53.5 47t-20.5 76q0 36 15 63.5t39.5 46t56.5 27.5t66 9
q52 0 90.5 -14.5t61.5 -41.5zM259 744q11 15 22.5 21t23.5 6q21 0 34.5 -13.5t13.5 -33.5t-14 -37l-98 -113q-7 -8 -14.5 -11t-15.5 -3q-15 0 -27 10.5t-12 27.5t14 35z" />
    <glyph glyph-name="Scircumflex" unicode="&#x15c;" horiz-adv-x="577" 
d="M56 0zM475 651q13 -18 21.5 -38t8.5 -38q0 -27 -18.5 -46t-44.5 -19q-22 0 -37 14t-23 37q-4 12 -9 21.5t-19 20.5q-12 9 -27.5 13.5t-32.5 4.5q-19 0 -36.5 -6t-31 -17.5t-21.5 -27.5t-8 -37q0 -20 8 -35t21.5 -26t32.5 -19.5t40 -16.5q16 -6 35 -12.5t38 -14.5
t37.5 -17.5t34.5 -21.5q34 -26 55 -64.5t21 -97.5q0 -56 -19.5 -97t-52 -68.5t-75 -41t-89.5 -13.5q-74 0 -130 31.5t-82 87.5q-6 13 -11 28.5t-5 29.5q0 26 18 44t44 18q20 0 35 -11.5t23 -30.5q9 -23 14.5 -32t16.5 -18q15 -14 36 -20.5t44 -6.5q22 0 42 6.5t35 18.5
t23.5 29.5t8.5 40.5q0 21 -7.5 35.5t-20.5 26t-30.5 19.5t-37.5 15q-43 15 -80.5 30.5t-69.5 39.5q-33 25 -55.5 63t-22.5 95q0 47 17 85.5t46.5 66t70 42.5t88.5 15q56 0 103 -21t78 -64zM234 932q15 21 32.5 28t34.5 7q19 0 36 -8t31 -27l75 -101q3 -5 5.5 -10.5
t2.5 -13.5q0 -17 -12.5 -27t-28.5 -10q-18 0 -32 17l-77 93l-76 -93q-14 -17 -32 -17q-15 0 -28 10t-13 27q0 8 2.5 13.5t5.5 10.5z" />
    <glyph glyph-name="scircumflex" unicode="&#x15d;" horiz-adv-x="465" 
d="M40 0zM383 452q8 -11 13 -23t5 -27q0 -19 -15 -34.5t-34 -15.5q-30 0 -45 15q-8 7 -13.5 14t-15.5 15q-9 8 -23.5 13t-34.5 5q-26 0 -39 -12t-13 -30q0 -16 10.5 -26.5t27.5 -18.5q28 -14 66 -24t72 -30q31 -17 51 -44.5t20 -74.5q0 -42 -14 -73t-39.5 -51.5t-60.5 -31
t-77 -10.5q-41 0 -85.5 15.5t-73.5 52.5q-9 11 -17 24.5t-8 30.5q0 23 15.5 37t36.5 14q22 0 36 -7.5t25 -23.5t31 -29.5t42 -13.5q30 0 51.5 14t21.5 35q0 20 -12.5 32.5t-32.5 20.5q-34 12 -67 23t-59 26q-33 19 -53.5 47t-20.5 76q0 36 15 63.5t39.5 46t56.5 27.5t66 9
q52 0 90.5 -14.5t61.5 -41.5zM163 733q15 23 32.5 30.5t34.5 7.5q19 0 36.5 -8.5t31.5 -29.5l74 -109q3 -5 5.5 -11t2.5 -14q0 -17 -12.5 -28.5t-27.5 -11.5q-8 0 -16.5 3.5t-16.5 14.5l-77 100l-76 -100q-15 -18 -32 -18q-15 0 -28 11t-13 29q0 8 2.5 14t5.5 11z" />
    <glyph glyph-name="Scedilla" unicode="&#x15e;" horiz-adv-x="577" 
d="M56 0zM475 651q13 -18 21.5 -38t8.5 -38q0 -27 -18.5 -46t-44.5 -19q-22 0 -37 14t-23 37q-4 12 -9 21.5t-19 20.5q-12 9 -27.5 13.5t-32.5 4.5q-19 0 -36.5 -6t-31 -17.5t-21.5 -27.5t-8 -37q0 -20 8 -35t21.5 -26t32.5 -19.5t40 -16.5q16 -6 35 -12.5t38 -14.5
t37.5 -17.5t34.5 -21.5q34 -26 55 -64.5t21 -97.5q0 -56 -19.5 -97t-52 -68.5t-75 -41t-89.5 -13.5q-74 0 -130 31.5t-82 87.5q-6 13 -11 28.5t-5 29.5q0 26 18 44t44 18q20 0 35 -11.5t23 -30.5q9 -23 14.5 -32t16.5 -18q15 -14 36 -20.5t44 -6.5q22 0 42 6.5t35 18.5
t23.5 29.5t8.5 40.5q0 21 -7.5 35.5t-20.5 26t-30.5 19.5t-37.5 15q-43 15 -80.5 30.5t-69.5 39.5q-33 25 -55.5 63t-22.5 95q0 47 17 85.5t46.5 66t70 42.5t88.5 15q56 0 103 -21t78 -64zM267 -117q-18 6 -26 20.5t-8 28.5q0 18 13.5 34t40.5 16q53 0 53 -70
q0 -20 -4.5 -43t-13 -43t-20.5 -33.5t-27 -13.5q-11 0 -15.5 6.5t-4.5 14.5q0 11 6.5 27.5t6.5 36.5v9.5t-1 9.5z" />
    <glyph glyph-name="scedilla" unicode="&#x15f;" horiz-adv-x="465" 
d="M40 0zM383 452q8 -11 13 -23t5 -27q0 -19 -15 -34.5t-34 -15.5q-30 0 -45 15q-8 7 -13.5 14t-15.5 15q-9 8 -23.5 13t-34.5 5q-26 0 -39 -12t-13 -30q0 -16 10.5 -26.5t27.5 -18.5q28 -14 66 -24t72 -30q31 -17 51 -44.5t20 -74.5q0 -42 -14 -73t-39.5 -51.5t-60.5 -31
t-77 -10.5q-41 0 -85.5 15.5t-73.5 52.5q-9 11 -17 24.5t-8 30.5q0 23 15.5 37t36.5 14q22 0 36 -7.5t25 -23.5t31 -29.5t42 -13.5q30 0 51.5 14t21.5 35q0 20 -12.5 32.5t-32.5 20.5q-34 12 -67 23t-59 26q-33 19 -53.5 47t-20.5 76q0 36 15 63.5t39.5 46t56.5 27.5t66 9
q52 0 90.5 -14.5t61.5 -41.5zM211 -117q-18 6 -26 20.5t-8 28.5q0 18 13.5 34t40.5 16q53 0 53 -70q0 -20 -4.5 -43t-13 -43t-20.5 -33.5t-27 -13.5q-11 0 -15.5 6.5t-4.5 14.5q0 11 6.5 27.5t6.5 36.5v9.5t-1 9.5z" />
    <glyph glyph-name="Scaron" unicode="&#x160;" horiz-adv-x="577" 
d="M56 0zM475 651q13 -18 21.5 -38t8.5 -38q0 -27 -18.5 -46t-44.5 -19q-22 0 -37 14t-23 37q-4 12 -9 21.5t-19 20.5q-12 9 -27.5 13.5t-32.5 4.5q-19 0 -36.5 -6t-31 -17.5t-21.5 -27.5t-8 -37q0 -20 8 -35t21.5 -26t32.5 -19.5t40 -16.5q16 -6 35 -12.5t38 -14.5
t37.5 -17.5t34.5 -21.5q34 -26 55 -64.5t21 -97.5q0 -56 -19.5 -97t-52 -68.5t-75 -41t-89.5 -13.5q-74 0 -130 31.5t-82 87.5q-6 13 -11 28.5t-5 29.5q0 26 18 44t44 18q20 0 35 -11.5t23 -30.5q9 -23 14.5 -32t16.5 -18q15 -14 36 -20.5t44 -6.5q22 0 42 6.5t35 18.5
t23.5 29.5t8.5 40.5q0 21 -7.5 35.5t-20.5 26t-30.5 19.5t-37.5 15q-43 15 -80.5 30.5t-69.5 39.5q-33 25 -55.5 63t-22.5 95q0 47 17 85.5t46.5 66t70 42.5t88.5 15q56 0 103 -21t78 -64zM291 857l77 94q14 16 32 16q15 0 28 -10t13 -27q0 -7 -2.5 -13t-5.5 -11l-75 -101
q-15 -20 -32 -27.5t-34 -7.5q-20 0 -37 8t-31 27l-74 101q-3 5 -5.5 11t-2.5 13q0 17 12 27t29 10q20 0 32 -16z" />
    <glyph glyph-name="scaron" unicode="&#x161;" horiz-adv-x="465" 
d="M40 0zM383 452q8 -11 13 -23t5 -27q0 -19 -15 -34.5t-34 -15.5q-30 0 -45 15q-8 7 -13.5 14t-15.5 15q-9 8 -23.5 13t-34.5 5q-26 0 -39 -12t-13 -30q0 -16 10.5 -26.5t27.5 -18.5q28 -14 66 -24t72 -30q31 -17 51 -44.5t20 -74.5q0 -42 -14 -73t-39.5 -51.5t-60.5 -31
t-77 -10.5q-41 0 -85.5 15.5t-73.5 52.5q-9 11 -17 24.5t-8 30.5q0 23 15.5 37t36.5 14q22 0 36 -7.5t25 -23.5t31 -29.5t42 -13.5q30 0 51.5 14t21.5 35q0 20 -12.5 32.5t-32.5 20.5q-34 12 -67 23t-59 26q-33 19 -53.5 47t-20.5 76q0 36 15 63.5t39.5 46t56.5 27.5t66 9
q52 0 90.5 -14.5t61.5 -41.5zM232 653l77 100q15 18 32 18q15 0 28 -11t13 -29q0 -8 -2.5 -14t-5.5 -11l-74 -109q-15 -22 -32.5 -30t-34.5 -8q-22 0 -38 10t-29 28l-75 109q-3 5 -5.5 11t-2.5 14q0 17 12 28.5t29 11.5q18 0 32 -18z" />
    <glyph glyph-name="Tcedilla" unicode="&#x162;" horiz-adv-x="561" 
d="M13 0zM342 603v-547q0 -24 -18.5 -42t-43.5 -18t-43.5 18t-18.5 42v547h-142q-26 0 -44.5 18t-18.5 42q0 25 18.5 43t44.5 18h409q25 0 43.5 -18t18.5 -43q0 -24 -18.5 -42t-43.5 -18h-143zM260 -117q-18 6 -26 20.5t-8 28.5q0 18 13.5 34t40.5 16q53 0 53 -70
q0 -20 -4.5 -43t-13 -43t-20.5 -33.5t-27 -13.5q-11 0 -15.5 6.5t-4.5 14.5q0 11 6.5 27.5t6.5 36.5v9.5t-1 9.5z" />
    <glyph glyph-name="tcedilla" unicode="&#x163;" horiz-adv-x="389" 
d="M22 0zM224 498h80q25 0 37 -14.5t12 -32.5q0 -17 -12 -32t-37 -15h-80v-273q0 -23 10 -31.5t20 -8.5q7 0 13 3t12 7t13 7t17 3q19 0 36 -12t17 -35q0 -21 -10.5 -35.5t-27 -23.5t-36.5 -13t-39 -4q-75 0 -110 46.5t-35 128.5v241h-33q-23 0 -36 13t-13 34q0 17 13 32
t36 15h33v75q0 26 15.5 46.5t44.5 20.5q26 0 43 -15.5t17 -41.5v-85zM193 -117q-18 6 -26 20.5t-8 28.5q0 18 13.5 34t40.5 16q53 0 53 -70q0 -20 -4.5 -43t-13 -43t-20.5 -33.5t-27 -13.5q-11 0 -15.5 6.5t-4.5 14.5q0 11 6.5 27.5t6.5 36.5v9.5t-1 9.5z" />
    <glyph glyph-name="Tcaron" unicode="&#x164;" horiz-adv-x="561" 
d="M13 0zM342 603v-547q0 -24 -18.5 -42t-43.5 -18t-43.5 18t-18.5 42v547h-142q-26 0 -44.5 18t-18.5 42q0 25 18.5 43t44.5 18h409q25 0 43.5 -18t18.5 -43q0 -24 -18.5 -42t-43.5 -18h-143zM280 857l77 94q14 16 32 16q15 0 28 -10t13 -27q0 -7 -2.5 -13t-5.5 -11
l-75 -101q-15 -20 -32 -27.5t-34 -7.5q-20 0 -37 8t-31 27l-74 101q-3 5 -5.5 11t-2.5 13q0 17 12 27t29 10q20 0 32 -16z" />
    <glyph glyph-name="tcaron" unicode="&#x165;" horiz-adv-x="389" 
d="M22 0zM224 498h80q25 0 37 -14.5t12 -32.5q0 -17 -12 -32t-37 -15h-80v-273q0 -23 10 -31.5t20 -8.5q7 0 13 3t12 7t13 7t17 3q19 0 36 -12t17 -35q0 -21 -10.5 -35.5t-27 -23.5t-36.5 -13t-39 -4q-75 0 -110 46.5t-35 128.5v241h-33q-23 0 -36 13t-13 34q0 17 13 32
t36 15h33v75q0 26 15.5 46.5t44.5 20.5q26 0 43 -15.5t17 -41.5v-85zM304 658q-18 6 -26 20.5t-8 28.5q0 18 13.5 34t40.5 16q53 0 53 -70q0 -20 -4.5 -43t-13 -43t-20.5 -33.5t-27 -13.5q-11 0 -15.5 6.5t-4.5 14.5q0 11 6.5 27.5t6.5 36.5v9.5t-1 9.5z" />
    <glyph glyph-name="Tbar" unicode="&#x166;" horiz-adv-x="561" 
d="M342 603v-105h73q17 0 29 -12.5t12 -28.5t-12 -28.5t-29 -12.5h-73v-360q0 -24 -18.5 -42t-43.5 -18t-43.5 18t-18.5 42v360h-72q-17 0 -30 12.5t-13 28.5t13 28.5t30 12.5h72v105h-142q-26 0 -44.5 18t-18.5 42q0 25 18.5 43t44.5 18h409q25 0 43.5 -18t18.5 -43
q0 -24 -18.5 -42t-43.5 -18h-143z" />
    <glyph glyph-name="tbar" unicode="&#x167;" horiz-adv-x="389" 
d="M104 404h-33q-23 0 -36 13t-13 34q0 17 13 32t36 15h33v75q0 26 15.5 46.5t44.5 20.5q26 0 43 -15.5t17 -41.5v-85h80q25 0 37 -14.5t12 -32.5q0 -17 -12 -32t-37 -15h-80v-77h80q25 0 37 -14.5t12 -32.5q0 -17 -12 -31.5t-37 -14.5h-80v-103q0 -23 10 -31.5t20 -8.5
q7 0 13 3t12 7t13 7t17 3q19 0 36 -12t17 -35q0 -21 -10.5 -35.5t-27 -23.5t-36.5 -13t-39 -4q-75 0 -110 46.5t-35 128.5v71h-33q-23 0 -36 12.5t-13 33.5q0 17 13 32t36 15h33v77z" />
    <glyph glyph-name="Utilde" unicode="&#x168;" horiz-adv-x="670" 
d="M86 0zM588 248q0 -59 -17 -106.5t-49 -82t-79 -53t-107 -18.5q-65 0 -112 20t-78 57t-45.5 90t-14.5 119v395q0 24 18.5 42t43.5 18t43.5 -18t18.5 -42v-419q0 -67 34 -104t92 -37q60 0 94 37.5t34 103.5v419q0 24 18 42t44 18q24 0 43 -18t19 -42v-421zM160 864
q0 35 20.5 61t59.5 26q24 0 47.5 -7.5t45.5 -17t42.5 -17t38.5 -7.5q20 0 27 8.5t11 18.5q4 11 9.5 18t20.5 7q14 0 21.5 -8.5t7.5 -29.5q0 -35 -20.5 -61t-59.5 -26q-24 0 -47.5 7.5t-45.5 16.5t-42.5 16.5t-38.5 7.5q-19 0 -26.5 -8t-11.5 -18q-2 -7 -8 -16.5t-23 -9.5
q-13 0 -20.5 8.5t-7.5 30.5z" />
    <glyph glyph-name="utilde" unicode="&#x169;" horiz-adv-x="545" 
d="M78 0zM472 192q0 -37 -7.5 -73.5t-28.5 -65.5t-59.5 -47t-100.5 -18q-61 0 -99.5 18t-60.5 47.5t-30 66t-8 73.5v252q0 24 16.5 40.5t42.5 16.5t43 -16.5t17 -40.5v-256q0 -87 79 -87q78 0 78 85v258q0 24 17.5 40.5t41.5 16.5t41.5 -16.5t17.5 -40.5v-253zM109 717
q8 14 24 25t44 11q27 0 49 -7t45 -19q23 -11 41.5 -18t36.5 -7q22 0 29 10t12 25q6 20 29 20q14 0 21 -9.5t7 -32.5q0 -14 -3 -29t-9 -27q-8 -14 -24.5 -25t-43.5 -11q-28 0 -52.5 9.5t-50.5 21.5q-19 9 -35 14.5t-33 5.5q-23 0 -30.5 -10t-12.5 -25q-4 -10 -9.5 -15.5
t-18.5 -5.5q-14 0 -21.5 9.5t-7.5 32.5q0 14 3 29.5t10 27.5z" />
    <glyph glyph-name="Umacron" unicode="&#x16a;" horiz-adv-x="670" 
d="M86 0zM588 248q0 -59 -17 -106.5t-49 -82t-79 -53t-107 -18.5q-65 0 -112 20t-78 57t-45.5 90t-14.5 119v395q0 24 18.5 42t43.5 18t43.5 -18t18.5 -42v-419q0 -67 34 -104t92 -37q60 0 94 37.5t34 103.5v419q0 24 18 42t44 18q24 0 43 -18t19 -42v-421zM478 916
q17 0 29 -11.5t12 -26.5t-12 -26.5t-29 -11.5h-286q-17 0 -29.5 11.5t-12.5 26.5t12.5 26.5t29.5 11.5h286z" />
    <glyph glyph-name="umacron" unicode="&#x16b;" horiz-adv-x="545" 
d="M78 0zM472 192q0 -37 -7.5 -73.5t-28.5 -65.5t-59.5 -47t-100.5 -18q-61 0 -99.5 18t-60.5 47.5t-30 66t-8 73.5v252q0 24 16.5 40.5t42.5 16.5t43 -16.5t17 -40.5v-256q0 -87 79 -87q78 0 78 85v258q0 24 17.5 40.5t41.5 16.5t41.5 -16.5t17.5 -40.5v-253zM415 716
q17 0 29 -12t12 -28q0 -17 -12 -29t-29 -12h-286q-17 0 -29.5 12t-12.5 29q0 16 12.5 28t29.5 12h286z" />
    <glyph glyph-name="Uring" unicode="&#x16e;" horiz-adv-x="670" 
d="M86 0zM588 248q0 -59 -17 -106.5t-49 -82t-79 -53t-107 -18.5q-65 0 -112 20t-78 57t-45.5 90t-14.5 119v395q0 24 18.5 42t43.5 18t43.5 -18t18.5 -42v-419q0 -67 34 -104t92 -37q60 0 94 37.5t34 103.5v419q0 24 18 42t44 18q24 0 43 -18t19 -42v-421zM242 876
q0 39 27 65t66 26t66 -26t27 -65q0 -40 -27 -65t-66 -25q-40 0 -66.5 25t-26.5 65zM335 926q-21 0 -35 -14.5t-14 -34.5q0 -21 14 -35t35 -14t35 14t14 35q0 20 -14 34.5t-35 14.5z" />
    <glyph glyph-name="uring" unicode="&#x16f;" horiz-adv-x="545" 
d="M78 0zM472 192q0 -37 -7.5 -73.5t-28.5 -65.5t-59.5 -47t-100.5 -18q-61 0 -99.5 18t-60.5 47.5t-30 66t-8 73.5v252q0 24 16.5 40.5t42.5 16.5t43 -16.5t17 -40.5v-256q0 -87 79 -87q78 0 78 85v258q0 24 17.5 40.5t41.5 16.5t41.5 -16.5t17.5 -40.5v-253zM272 771
q19 0 36 -7.5t30 -20.5t20 -30.5t7 -38.5q0 -43 -27 -70t-66 -27q-40 0 -66.5 27t-26.5 70q0 21 7 38.5t20 30.5t29.5 20.5t36.5 7.5zM272 727q-21 0 -35 -15t-14 -37q0 -23 14 -38t35 -15t35 15t14 38q0 22 -14 37t-35 15z" />
    <glyph glyph-name="Uhungarumlaut" unicode="&#x170;" horiz-adv-x="670" 
d="M86 0zM588 248q0 -59 -17 -106.5t-49 -82t-79 -53t-107 -18.5q-65 0 -112 20t-78 57t-45.5 90t-14.5 119v395q0 24 18.5 42t43.5 18t43.5 -18t18.5 -42v-419q0 -67 34 -104t92 -37q60 0 94 37.5t34 103.5v419q0 24 18 42t44 18q24 0 43 -18t19 -42v-421zM453 942
q11 14 22.5 19.5t23.5 5.5q20 0 34 -12.5t14 -31.5q0 -17 -15 -33l-97 -106q-12 -13 -31 -13q-15 0 -26.5 9.5t-11.5 25.5t13 33zM270 942q11 14 22.5 19.5t23.5 5.5q20 0 34 -12.5t14 -31.5q0 -17 -15 -33l-97 -106q-12 -13 -31 -13q-15 0 -26.5 9.5t-11.5 25.5t13 33z" />
    <glyph glyph-name="uhungarumlaut" unicode="&#x171;" horiz-adv-x="545" 
d="M78 0zM472 192q0 -37 -7.5 -73.5t-28.5 -65.5t-59.5 -47t-100.5 -18q-61 0 -99.5 18t-60.5 47.5t-30 66t-8 73.5v252q0 24 16.5 40.5t42.5 16.5t43 -16.5t17 -40.5v-256q0 -87 79 -87q78 0 78 85v258q0 24 17.5 40.5t41.5 16.5t41.5 -16.5t17.5 -40.5v-253zM391 744
q11 17 23.5 22t22.5 5q20 0 34 -13.5t14 -33.5q0 -9 -3.5 -18.5t-11.5 -18.5l-97 -113q-8 -9 -16 -11.5t-14 -2.5q-16 0 -27.5 10.5t-11.5 27.5q0 16 13 35zM207 744q11 16 22.5 21.5t24.5 5.5q20 0 34 -13.5t14 -33.5q0 -9 -3.5 -18.5t-11.5 -18.5l-98 -113
q-13 -14 -30 -14q-15 0 -27 10t-12 27q0 16 14 36z" />
    <glyph glyph-name="Uogonek" unicode="&#x172;" horiz-adv-x="670" 
d="M587 248q0 -94 -42.5 -159.5t-122.5 -88.5q-32 -19 -50.5 -46.5t-18.5 -50.5q0 -14 10 -22.5t24 -8.5q15 0 25.5 3t24.5 3q17 0 27 -11t10 -26q0 -14 -10 -23.5t-25 -15t-32.5 -8t-32.5 -2.5q-42 0 -71 23.5t-29 72.5q0 30 19 56.5t46 44.5q-132 0 -192.5 75t-60.5 209
v396q0 24 18.5 42t42.5 18q26 0 44 -18t18 -42v-419q0 -67 35 -104t92 -37q59 0 93.5 37t34.5 104v419q0 24 18 42t43 18t43.5 -18t18.5 -42v-421z" />
    <glyph glyph-name="uogonek" unicode="&#x173;" horiz-adv-x="545" 
d="M472 191q0 -29 -5 -58.5t-17.5 -55.5t-35 -46t-57.5 -31q-32 -19 -51 -46.5t-19 -50.5q0 -14 10 -22.5t24 -8.5t25 3t24 3q17 0 27.5 -11t10.5 -26q0 -14 -10 -23.5t-25 -15t-32.5 -8t-33.5 -2.5q-42 0 -70.5 23.5t-28.5 72.5q0 30 19.5 57t45.5 45q-60 0 -98 18
t-59.5 46.5t-30 65t-8.5 72.5v252q0 24 14 41t46 17q31 0 45.5 -16.5t14.5 -41.5v-256q0 -87 79 -87q39 0 58.5 22t19.5 64v257q0 25 14.5 41.5t44.5 16.5q24 0 41.5 -16.5t17.5 -40.5v-254z" />
    <glyph glyph-name="Wcircumflex" unicode="&#x174;" horiz-adv-x="877" 
d="M9 0zM708 47q-8 -28 -25.5 -39.5t-41.5 -11.5q-25 0 -40.5 11t-23.5 37l-141 456l-136 -456q-8 -26 -23 -37t-40 -11t-41.5 11.5t-23.5 39.5l-160 605q-2 6 -2.5 9t-0.5 8q0 24 18.5 42t43.5 18q20 0 38 -12.5t23 -30.5l110 -455l131 451q14 47 65 47q24 0 42 -11.5
t25 -36.5l134 -450l114 457q5 17 21.5 29t35.5 12q23 0 41 -17t18 -40v-8t-2 -9zM371 932q15 21 32.5 28t34.5 7q19 0 36 -8t31 -27l75 -101q3 -5 5.5 -10.5t2.5 -13.5q0 -17 -12.5 -27t-28.5 -10q-18 0 -32 17l-77 93l-76 -93q-14 -17 -32 -17q-15 0 -28 10t-13 27
q0 8 2.5 13.5t5.5 10.5z" />
    <glyph glyph-name="wcircumflex" unicode="&#x175;" horiz-adv-x="673" 
d="M16 0zM523 35q-6 -19 -20.5 -29t-33.5 -10q-44 0 -55 39l-79 261l-74 -260q-5 -19 -20 -29.5t-35 -10.5q-43 0 -55 39l-131 383q-2 5 -3 10.5t-1 16.5q0 24 16 40.5t42 16.5q20 0 36.5 -11t22.5 -33l73 -267l76 271q5 17 20.5 28.5t35.5 11.5q22 0 35.5 -11t18.5 -28
l81 -272l77 275q5 16 19 26t33 10q25 0 40.5 -15t15.5 -38q0 -6 -1 -11t-2 -8zM269 733q15 23 32.5 30.5t34.5 7.5q19 0 36.5 -8.5t31.5 -29.5l74 -109q3 -5 5.5 -11t2.5 -14q0 -17 -12.5 -28.5t-27.5 -11.5q-8 0 -16.5 3.5t-16.5 14.5l-77 100l-76 -100q-15 -18 -32 -18
q-15 0 -28 11t-13 29q0 8 2.5 14t5.5 11z" />
    <glyph glyph-name="Ycircumflex" unicode="&#x176;" horiz-adv-x="537" 
d="M7 0zM329 318v-262q0 -24 -19 -42t-44 -18q-24 0 -42.5 18t-18.5 42v260l-187 319q-11 16 -11 34q0 24 19 42t43 18q20 0 33.5 -9.5t21.5 -23.5l148 -266l147 266q7 14 19.5 23.5t32.5 9.5q23 0 41 -17t18 -40q0 -10 -4 -18l-7 -14zM201 932q15 21 32.5 28t34.5 7
q19 0 36 -8t31 -27l75 -101q3 -5 5.5 -10.5t2.5 -13.5q0 -17 -12.5 -27t-28.5 -10q-18 0 -32 17l-77 93l-76 -93q-14 -17 -32 -17q-15 0 -28 10t-13 27q0 8 2.5 13.5t5.5 10.5z" />
    <glyph glyph-name="ycircumflex" unicode="&#x177;" horiz-adv-x="435" 
d="M7 0zM227 -87q-5 -12 -16.5 -35t-28.5 -45.5t-38.5 -39t-45.5 -16.5q-25 0 -42.5 16t-17.5 40q0 17 8.5 29.5t21.5 20.5q24 14 38 36.5t23 47.5l27 70l-144 379q-2 5 -3.5 11.5t-1.5 16.5q0 22 17 40t44 18q25 0 38.5 -11.5t19.5 -29.5l89 -274l91 275q5 17 20 28.5
t35 11.5q23 0 40 -16.5t17 -38.5q0 -10 -4 -20zM150 733q15 23 32.5 30.5t34.5 7.5q19 0 36.5 -8.5t31.5 -29.5l74 -109q3 -5 5.5 -11t2.5 -14q0 -17 -12.5 -28.5t-27.5 -11.5q-8 0 -16.5 3.5t-16.5 14.5l-77 100l-76 -100q-15 -18 -32 -18q-15 0 -28 11t-13 29q0 8 2.5 14
t5.5 11z" />
    <glyph glyph-name="Ydieresis" unicode="&#x178;" horiz-adv-x="537" 
d="M7 0zM329 318v-262q0 -24 -19 -42t-44 -18q-24 0 -42.5 18t-18.5 42v260l-187 319q-11 16 -11 34q0 24 19 42t43 18q20 0 33.5 -9.5t21.5 -23.5l148 -266l147 266q7 14 19.5 23.5t32.5 9.5q23 0 41 -17t18 -40q0 -10 -4 -18l-7 -14zM303 880q0 26 18 44t46 18t46 -18
t18 -44t-18 -44t-46 -18t-46 18t-18 44zM105 880q0 26 18 44t46 18t46 -18t18 -44t-18 -44t-46 -18t-46 18t-18 44z" />
    <glyph glyph-name="Zacute" unicode="&#x179;" horiz-adv-x="562" 
d="M37 0zM205 122h257q26 0 44 -18.5t18 -42.5q0 -25 -18 -43t-44 -18h-360q-25 0 -43.5 18t-18.5 43q0 11 4 20t9 17l295 505h-249q-25 0 -43.5 18t-18.5 42q0 25 18.5 43t43.5 18h350q26 0 44 -18t18 -43q0 -17 -10 -34zM307 942q11 14 22.5 19.5t23.5 5.5q20 0 34 -12.5
t14 -31.5q0 -17 -15 -33l-97 -106q-12 -13 -31 -13q-15 0 -26.5 9.5t-11.5 25.5t13 33z" />
    <glyph glyph-name="zacute" unicode="&#x17a;" horiz-adv-x="458" 
d="M38 0zM196 112h166q24 0 40.5 -17t16.5 -40q0 -24 -16.5 -39.5t-40.5 -15.5h-262q-25 0 -42 16t-17 41q0 8 4 17.5t9 17.5l197 295h-154q-25 0 -42 16t-17 39t17 39.5t42 16.5h249q26 0 43 -17t17 -40q0 -10 -3.5 -18.5t-7.5 -14.5zM255 744q11 15 22.5 21t23.5 6
q21 0 34.5 -13.5t13.5 -33.5t-14 -37l-98 -113q-7 -8 -14.5 -11t-15.5 -3q-15 0 -27 10.5t-12 27.5t14 35z" />
    <glyph glyph-name="Zdotaccent" unicode="&#x17b;" horiz-adv-x="562" 
d="M37 0zM205 122h257q26 0 44 -18.5t18 -42.5q0 -25 -18 -43t-44 -18h-360q-25 0 -43.5 18t-18.5 43q0 11 4 20t9 17l295 505h-249q-25 0 -43.5 18t-18.5 42q0 25 18.5 43t43.5 18h350q26 0 44 -18t18 -43q0 -17 -10 -34zM217 880q0 26 18 44t46 18t46 -18t18 -44t-18 -44
t-46 -18t-46 18t-18 44z" />
    <glyph glyph-name="zdotaccent" unicode="&#x17c;" horiz-adv-x="458" 
d="M38 0zM196 112h166q24 0 40.5 -17t16.5 -40q0 -24 -16.5 -39.5t-40.5 -15.5h-262q-25 0 -42 16t-17 41q0 8 4 17.5t9 17.5l197 295h-154q-25 0 -42 16t-17 39t17 39.5t42 16.5h249q26 0 43 -17t17 -40q0 -10 -3.5 -18.5t-7.5 -14.5zM164 672q0 26 18.5 44t46.5 18
q27 0 45.5 -18t18.5 -44t-18.5 -43.5t-45.5 -17.5q-28 0 -46.5 17.5t-18.5 43.5z" />
    <glyph glyph-name="Zcaron" unicode="&#x17d;" horiz-adv-x="562" 
d="M37 0zM205 122h257q26 0 44 -18.5t18 -42.5q0 -25 -18 -43t-44 -18h-360q-25 0 -43.5 18t-18.5 43q0 11 4 20t9 17l295 505h-249q-25 0 -43.5 18t-18.5 42q0 25 18.5 43t43.5 18h350q26 0 44 -18t18 -43q0 -17 -10 -34zM280 857l77 94q14 16 32 16q15 0 28 -10t13 -27
q0 -7 -2.5 -13t-5.5 -11l-75 -101q-15 -20 -32 -27.5t-34 -7.5q-20 0 -37 8t-31 27l-74 101q-3 5 -5.5 11t-2.5 13q0 17 12 27t29 10q20 0 32 -16z" />
    <glyph glyph-name="zcaron" unicode="&#x17e;" horiz-adv-x="458" 
d="M38 0zM196 112h166q24 0 40.5 -17t16.5 -40q0 -24 -16.5 -39.5t-40.5 -15.5h-262q-25 0 -42 16t-17 41q0 8 4 17.5t9 17.5l197 295h-154q-25 0 -42 16t-17 39t17 39.5t42 16.5h249q26 0 43 -17t17 -40q0 -10 -3.5 -18.5t-7.5 -14.5zM228 653l77 100q15 18 32 18
q15 0 28 -11t13 -29q0 -8 -2.5 -14t-5.5 -11l-74 -109q-15 -22 -32.5 -30t-34.5 -8q-22 0 -38 10t-29 28l-75 109q-3 5 -5.5 11t-2.5 14q0 17 12 28.5t29 11.5q18 0 32 -18z" />
    <glyph glyph-name="longs" unicode="&#x17f;" horiz-adv-x="377" 
d="M223 52q0 -25 -17 -40.5t-43 -15.5q-25 0 -42.5 15.5t-17.5 40.5v540q0 75 37 119.5t109 44.5q19 0 40.5 -4t38.5 -13t28.5 -23.5t11.5 -35.5q0 -23 -16 -35.5t-32 -12.5q-12 0 -19 3.5t-12.5 8t-12 8t-16.5 3.5q-37 0 -37 -54v-549z" />
    <glyph glyph-name="uni0180" unicode="&#x180;" horiz-adv-x="524" 
d="M69 666v32q0 24 17 41t43 17q25 0 42 -17t17 -41v-32h140q17 0 29 -12t12 -28q0 -17 -12 -29t-29 -12h-140v-134q20 26 51 42t72 16q48 0 80.5 -22.5t52 -59t28 -84t8.5 -97.5q0 -51 -8.5 -97.5t-28 -82.5t-51 -57t-77.5 -21q-43 0 -77.5 18t-54.5 48q-4 -23 -19 -40.5
t-43 -17.5q-18 0 -28.5 7.5t-15.5 20.5t-6.5 28.5t-1.5 32.5v500h-27q-17 0 -29.5 12t-12.5 29q0 16 12.5 28t29.5 12h27zM188 117q15 -13 36 -20t41 -7q95 0 95 158q0 75 -22.5 116.5t-73.5 41.5q-23 0 -43 -8.5t-33 -24.5v-256z" />
    <glyph glyph-name="uni0181" unicode="&#x181;" horiz-adv-x="789" 
d="M482 724q46 0 84.5 -11.5t66.5 -34t43.5 -56t15.5 -77.5q0 -59 -26.5 -97t-71.5 -57q27 -7 51 -20t42 -35t29 -52.5t11 -71.5q0 -44 -13.5 -83t-40.5 -67.5t-67 -45t-93 -16.5h-192q-25 0 -43.5 18t-18.5 43v568h-92q-20 0 -28 -13t-8 -41v-128q0 -23 -16 -38t-41 -15
q-24 0 -40.5 15t-16.5 38v120q0 72 35.5 114.5t104.5 42.5h325zM383 330v-208h92q28 0 51 5t39.5 17t26 32t9.5 50q0 31 -9.5 51t-27.5 32t-43 16.5t-56 4.5h-82zM383 606v-175h85q48 0 73.5 21t25.5 69q0 49 -26.5 67t-74.5 18h-83z" />
    <glyph glyph-name="uni0187" unicode="&#x187;" horiz-adv-x="756" 
d="M610 562q0 -24 -17.5 -42t-46.5 -18q-15 0 -27 6.5t-23 22.5q-12 16 -24 31.5t-27 26.5t-35 18t-47 7q-45 0 -79 -19.5t-56.5 -53.5t-34 -81.5t-11.5 -102.5q0 -53 10.5 -98.5t33 -78.5t56.5 -52t81 -19q40 0 68 16t51 54q10 17 22 29.5t36 12.5q27 0 45.5 -17.5
t18.5 -44.5q0 -16 -6.5 -31.5t-17.5 -31.5q-33 -47 -94 -77t-134 -30q-66 0 -120 26.5t-93 75t-60 116.5t-21 151t21 152.5t60 119.5t94 78t123 28q47 0 90 -16t76 -55q11 42 40 66.5t77 24.5q19 0 39.5 -4.5t38 -13.5t28.5 -23.5t11 -33.5q0 -26 -16.5 -37.5t-33.5 -11.5
q-10 0 -17 3.5t-13 8t-13 8t-17 3.5q-36 0 -36 -54v-39z" />
    <glyph glyph-name="uni0188" unicode="&#x188;" horiz-adv-x="587" 
d="M440 378q0 -24 -16.5 -40t-40.5 -16q-20 0 -31.5 11t-18.5 25q-4 7 -9 15.5t-13 16t-20 12t-29 4.5q-45 0 -72.5 -37t-27.5 -116q0 -84 29.5 -122.5t71.5 -38.5q25 0 41.5 12t24.5 29q6 14 17 28.5t34 14.5q24 0 40.5 -17.5t16.5 -40.5q0 -15 -6.5 -30t-13.5 -25
q-23 -33 -67.5 -54t-95.5 -21q-47 0 -86 19t-66.5 53.5t-43 82.5t-15.5 106q0 59 15.5 107t44 82t67 52.5t85.5 18.5q28 0 48 -7t40 -23q5 25 14 46.5t24 37.5t36 25t51 9q20 0 41 -4.5t38 -13.5t28 -23.5t11 -33.5q0 -26 -16.5 -37.5t-33.5 -11.5q-10 0 -17 3.5t-13 8
t-13 8t-17 3.5q-36 0 -36 -54v-64z" />
    <glyph glyph-name="uni018A" unicode="&#x18a;" horiz-adv-x="853" 
d="M461 724q75 0 136 -22t103.5 -67t66 -113.5t23.5 -160.5q0 -93 -22.5 -161t-64.5 -112.5t-103 -66t-139 -21.5h-141q-24 0 -42.5 18t-18.5 43v568h-92q-20 0 -28 -13t-8 -41v-128q0 -23 -16 -38t-41 -15q-24 0 -40.5 15t-16.5 38v120q0 72 35.5 114.5t104.5 42.5h304z
M383 602v-480h33q67 0 114 10t77 36.5t44 73t14 119.5q0 72 -14 118.5t-43 74t-73.5 38t-106.5 10.5h-45z" />
    <glyph glyph-name="uni018E" unicode="&#x18e;" horiz-adv-x="588" 
d="M375 121v171h-214q-23 0 -40.5 16t-17.5 39t17.5 40t40.5 17h214v198h-250q-26 0 -44 18.5t-18 42.5q0 25 18 43t44 18h312q25 0 43.5 -18t18.5 -43v-602q0 -25 -18.5 -43t-43.5 -18h-312q-26 0 -44 18t-18 43q0 24 18 42t44 18h250z" />
    <glyph glyph-name="uni018F" unicode="&#x18f;" horiz-adv-x="735" 
d="M538 433q-14 81 -57.5 131t-116.5 50q-30 0 -51 -8t-36.5 -20t-26.5 -27t-20 -29q-12 -18 -25 -23.5t-25 -5.5q-29 0 -46.5 18.5t-17.5 40.5q0 17 12 40q15 30 39.5 54.5t56 42t68.5 27.5t78 10q68 0 123 -28t94 -78t60 -119.5t21 -152.5q0 -86 -22 -154t-61.5 -115.5
t-94.5 -72.5t-121 -25q-75 0 -132 31t-95.5 81t-58 113t-19.5 128q0 45 11.5 68t46.5 23h416zM367 108q79 0 123 57t52 154h-352q4 -48 17 -86.5t35.5 -66.5t53.5 -43t71 -15z" />
    <glyph glyph-name="florin" unicode="&#x192;" 
d="M336 468h40q18 0 36 -14t18 -33q0 -21 -18 -33t-36 -12h-40v-210q0 -80 -34 -125t-106 -45q-15 0 -32 2.5t-31.5 8.5t-24 17t-9.5 28q0 20 14.5 32t31.5 12q11 0 22.5 -5t32.5 -5q25 0 33.5 22.5t8.5 64.5v203h-42q-16 0 -31.5 15t-15.5 30q0 17 13.5 32t33.5 15h42v75
q0 78 34.5 124t106.5 46q14 0 31 -3t31.5 -10t24 -18t9.5 -27q0 -20 -14.5 -32t-31.5 -12q-14 0 -27 5t-25 5q-26 0 -35.5 -21.5t-9.5 -64.5v-67z" />
    <glyph glyph-name="uni0194" unicode="&#x194;" horiz-adv-x="561" 
d="M281 344l152 345q7 16 21.5 28t37.5 12q27 0 45 -16t18 -42q0 -10 -2.5 -17.5t-7.5 -17.5l-204 -429q32 -72 52 -119t31.5 -79t16 -52.5t4.5 -39.5q0 -36 -12.5 -63.5t-35 -46t-52.5 -28t-64 -9.5t-64 9.5t-52 28t-35 46t-13 63.5q0 19 4.5 39.5t16 52.5t31.5 79t52 118
l-204 430q-5 11 -7.5 18t-2.5 16q0 26 18.5 42.5t44.5 16.5q24 0 38 -12t21 -28zM335 -72q0 12 -2.5 24.5t-8.5 29.5t-16.5 40.5t-26.5 57.5q-16 -34 -26.5 -57t-16.5 -40t-8.5 -30t-2.5 -25q0 -32 14 -44.5t40 -12.5t40 12.5t14 44.5z" />
    <glyph glyph-name="uni0198" unicode="&#x198;" horiz-adv-x="673" 
d="M370 385l181 -293q11 -17 11 -33q0 -26 -20 -44.5t-46 -18.5q-16 0 -31 7.5t-25 24.5l-176 300h-51v-272q0 -24 -18 -42t-44 -18q-25 0 -43.5 18t-18.5 42v613q0 24 18.5 42t43.5 18q26 0 44 -18t18 -42v-244h60l106 179q29 49 52.5 79t44 46.5t39.5 21.5t39 5
q21 0 42.5 -4.5t38.5 -13.5t27.5 -23.5t10.5 -33.5q0 -26 -16.5 -37.5t-33.5 -11.5q-10 0 -17 3.5t-13 8t-12.5 8t-16.5 3.5q-8 0 -15 -3.5t-16.5 -14t-23 -30.5t-33.5 -52z" />
    <glyph glyph-name="uni0199" unicode="&#x199;" horiz-adv-x="495" 
d="M82 592q0 75 36.5 119.5t107.5 44.5q21 0 43 -4.5t39 -13.5t28 -23.5t11 -33.5q0 -26 -16.5 -37.5t-33.5 -11.5q-10 0 -17 3.5t-13 8t-13 8t-17 3.5q-36 0 -36 -54v-312h35l112 182q8 12 20 21.5t29 9.5q23 0 38.5 -15.5t15.5 -37.5q0 -17 -10 -30l-104 -157l115 -172
q6 -9 10.5 -18t4.5 -20q0 -23 -18.5 -39t-43.5 -16q-21 0 -36.5 11.5t-26.5 29.5l-106 169h-35v-145q0 -28 -14 -47t-45 -19t-45.5 19t-14.5 48v529z" />
    <glyph glyph-name="uni019D" unicode="&#x19d;" horiz-adv-x="709" 
d="M88 670q0 24 18 41.5t47 17.5q20 0 33.5 -9.5t21.5 -20.5l292 -453v426q0 23 18 40t41 17q24 0 42 -17t18 -40v-616q0 -25 -18 -42.5t-47 -17.5q-20 0 -34 9.5t-22 20.5l-292 454v-539q0 -76 -32.5 -120t-106.5 -44q-19 0 -39.5 3.5t-37 11.5t-27 22t-10.5 34q0 27 16 39
t33 12q10 0 17 -3.5t13 -8t12 -8t15 -3.5q18 0 23.5 15.5t5.5 42.5v736z" />
    <glyph glyph-name="uni01A0" unicode="&#x1a0;" horiz-adv-x="743" 
d="M610 597q27 -45 43 -104.5t16 -134.5q0 -86 -22 -154.5t-61.5 -116t-95.5 -73t-124 -25.5t-123.5 25.5t-95.5 73.5t-61.5 117t-21.5 156t21.5 156.5t61.5 117.5t95 73.5t123 25.5q53 0 88 -13t63 -28q33 -17 53.5 -24t38.5 -7q28 0 35 12.5t7 27.5q0 18 -3.5 28t-3.5 24
q0 21 11 29.5t24 8.5q16 0 26 -10.5t16 -25.5t8 -32t2 -31q0 -47 -20.5 -74t-62.5 -27q-10 0 -18.5 1.5t-18.5 3.5zM367 614q-44 0 -77.5 -18.5t-56.5 -52.5t-34.5 -80.5t-11.5 -101.5q0 -56 12 -102.5t34.5 -80t56 -52t77.5 -18.5q43 0 76.5 18.5t56 52t34 80t11.5 102.5
t-11.5 102.5t-34 80t-56 52t-76.5 18.5z" />
    <glyph glyph-name="uni01A1" unicode="&#x1a1;" horiz-adv-x="530" 
d="M425 440q11 -4 22 -5.5t17 -1.5q20 0 28 13t8 30q0 14 -3.5 25t-3.5 25q0 20 10.5 29t23.5 9q15 0 25 -10t16 -25t8.5 -32t2.5 -32q0 -48 -21 -74.5t-64 -26.5h-15t-15 2q10 -25 15 -53.5t5 -63.5q0 -58 -14.5 -106t-42.5 -82.5t-69.5 -53.5t-94.5 -19t-94 19t-69 54
t-42.5 83t-14.5 107q0 58 14.5 106t42.5 81.5t69 52t94 18.5t93 -18t69 -51zM264 397q-50 0 -76 -37t-26 -109t26 -112t76 -40q49 0 75 40t26 112t-26 109t-75 37z" />
    <glyph glyph-name="uni01AF" unicode="&#x1af;" horiz-adv-x="704" 
d="M216 251q0 -68 34.5 -105.5t93.5 -37.5t93 37.5t34 105.5v418q0 24 17.5 42t42.5 18t39 -17.5t21 -40.5q22 -8 41 -8q38 0 38 41q0 15 -3 26t-3 23q0 22 11 30.5t24 8.5q16 0 26 -10.5t16 -25.5t8 -32t2 -31q0 -47 -21 -74t-64 -27q-18 0 -36 4.5t-36 10.5v-359
q0 -59 -16.5 -106.5t-48.5 -81.5t-79.5 -52.5t-109.5 -18.5q-127 0 -187 76t-60 208v396q0 24 18.5 42t43.5 18t43 -18t18 -42v-418z" />
    <glyph glyph-name="uni01B0" unicode="&#x1b0;" horiz-adv-x="579" 
d="M472 440q11 -4 23 -5.5t19 -1.5q20 0 27.5 12.5t7.5 29.5q0 15 -3.5 25t-3.5 24q0 22 11 30.5t24 8.5q15 0 25 -10t15.5 -25t8 -32t2.5 -32q0 -47 -20.5 -74t-65.5 -27q-33 0 -70 14v-185q0 -36 -7.5 -72.5t-28.5 -66t-59 -47.5t-99 -18q-62 0 -100.5 18t-61 47.5
t-30.5 66t-8 73.5v252q0 24 16.5 40.5t42.5 16.5t43 -16.5t17 -40.5v-256q0 -87 79 -87q78 0 78 85v258q0 24 17.5 40.5t41.5 16.5t41.5 -16.5t17.5 -40.5v-5z" />
    <glyph glyph-name="uni01B3" unicode="&#x1b3;" horiz-adv-x="658" 
d="M329 318v-262q0 -24 -19 -42t-44 -18q-24 0 -42.5 18t-18.5 42v260l-187 319q-11 16 -11 34q0 24 18.5 42t44.5 18q18 0 32 -9.5t22 -23.5l148 -266l113 203q22 39 40.5 63t36.5 37.5t36 18t38 4.5q22 0 44 -4.5t39 -13.5t28 -23.5t11 -33.5q0 -26 -16.5 -37.5
t-33.5 -11.5q-10 0 -17 3.5t-13 8t-13 8t-17 3.5q-5 0 -10 -2t-12 -9.5t-17 -22.5t-26 -42z" />
    <glyph glyph-name="uni01B4" unicode="&#x1b4;" horiz-adv-x="577" 
d="M227 -87q-5 -12 -16.5 -35t-28.5 -45.5t-39 -39t-46 -16.5q-23 0 -41 16t-18 42q0 19 9.5 29.5t20.5 18.5t19 15t15 16t13 21t14 32l27 70l-144 379q-5 12 -5 25q0 26 17 43.5t46 17.5q23 0 36.5 -11.5t19.5 -29.5l89 -274l76 229q18 55 37 90t39.5 55.5t42.5 28t47 7.5
q20 0 41 -4.5t38.5 -13.5t28.5 -23.5t11 -33.5q0 -26 -16.5 -37.5t-33.5 -11.5q-11 0 -17 3.5t-12 8t-13 8t-18 3.5q-8 0 -14.5 -3.5t-14 -15.5t-17 -35t-23.5 -62z" />
    <glyph glyph-name="uni01C4" unicode="&#x1c4;" horiz-adv-x="1243" 
d="M88 0zM290 724q75 0 136 -22t103.5 -67t66 -113.5t23.5 -160.5q0 -93 -22.5 -161t-64.5 -112.5t-103 -66t-139 -21.5h-141q-24 0 -42.5 18t-18.5 43v602q0 25 18.5 43t42.5 18h141zM212 602v-480h33q67 0 114 10t77 36.5t44 73t14 119.5q0 72 -14 118.5t-43 74t-73.5 38
t-106.5 10.5h-45zM886 122h257q26 0 44 -18.5t18 -42.5q0 -25 -18 -43t-44 -18h-360q-25 0 -43.5 18t-18.5 43q0 11 4 20t9 17l295 505h-249q-25 0 -43.5 18t-18.5 42q0 25 18.5 43t43.5 18h350q26 0 44 -18t18 -43q0 -17 -10 -34zM962 857l77 94q14 16 32 16q15 0 28 -10
t13 -27q0 -7 -2.5 -13t-5.5 -11l-75 -101q-15 -20 -32 -27.5t-34 -7.5q-20 0 -37 8t-31 27l-74 101q-3 5 -5.5 11t-2.5 13q0 17 12 27t29 10q20 0 32 -16z" />
    <glyph glyph-name="uni01C5" unicode="&#x1c5;" horiz-adv-x="1140" 
d="M88 0zM290 724q75 0 136 -22t103.5 -67t66 -113.5t23.5 -160.5q0 -93 -22.5 -161t-64.5 -112.5t-103 -66t-139 -21.5h-141q-24 0 -42.5 18t-18.5 43v602q0 25 18.5 43t42.5 18h141zM212 602v-480h33q67 0 114 10t77 36.5t44 73t14 119.5q0 72 -14 118.5t-43 74t-73.5 38
t-106.5 10.5h-45zM877 112h166q24 0 40.5 -17t16.5 -40q0 -24 -16.5 -39.5t-40.5 -15.5h-262q-25 0 -42 16t-17 41q0 8 4 17.5t9 17.5l197 295h-154q-25 0 -42 16t-17 39t17 39.5t42 16.5h249q26 0 43 -17t17 -40q0 -10 -3.5 -18.5t-7.5 -14.5zM910 653l77 100q15 18 32 18
q15 0 28 -11t13 -29q0 -8 -2.5 -14t-5.5 -11l-74 -109q-15 -22 -32.5 -30t-34.5 -8q-22 0 -38 10t-29 28l-75 109q-3 5 -5.5 11t-2.5 14q0 17 12 28.5t29 11.5q18 0 32 -18z" />
    <glyph glyph-name="uni01C6" unicode="&#x1c6;" horiz-adv-x="988" 
d="M43 0zM459 138q0 -32 6 -51.5t6 -34.5q0 -25 -17.5 -40.5t-42.5 -15.5q-21 0 -38.5 14.5t-25.5 52.5q-17 -32 -50.5 -53.5t-81.5 -21.5q-50 0 -83 21.5t-52.5 58t-28 83.5t-8.5 98t8.5 98t28 83t52.5 57.5t82 21.5q36 0 71 -19t55 -48v256q0 24 17 41t43 17q25 0 42 -17
t17 -41v-560zM340 373q-15 15 -37 24.5t-44 9.5q-48 0 -72 -40t-24 -117q0 -76 22 -119t73 -43q27 0 49 11t33 31v243zM726 112h166q24 0 40.5 -17t16.5 -40q0 -24 -16.5 -39.5t-40.5 -15.5h-262q-25 0 -42 16t-17 41q0 8 4 17.5t9 17.5l197 295h-154q-25 0 -42 16t-17 39
t17 39.5t42 16.5h249q26 0 43 -17t17 -40q0 -10 -3.5 -18.5t-7.5 -14.5zM758 653l77 100q15 18 32 18q15 0 28 -11t13 -29q0 -8 -2.5 -14t-5.5 -11l-74 -109q-15 -22 -32.5 -30t-34.5 -8q-22 0 -38 10t-29 28l-75 109q-3 5 -5.5 11t-2.5 14q0 17 12 28.5t29 11.5
q18 0 32 -18z" />
    <glyph glyph-name="uni01DD" unicode="&#x1dd;" horiz-adv-x="517" 
d="M351 267q-2 68 -27.5 103t-68.5 35q-26 0 -45.5 -12t-35.5 -32q-8 -11 -19 -18.5t-29 -7.5q-26 0 -41.5 17t-15.5 37q0 14 6 26t14 21q30 36 74 54.5t94 18.5t90 -19t67.5 -54t42 -83.5t14.5 -106.5t-15 -105.5t-43 -81.5t-68 -52.5t-89 -18.5q-48 0 -85.5 17t-63.5 46.5
t-39.5 69.5t-13.5 86q0 27 16.5 43.5t49.5 16.5h231zM177 193q3 -51 25 -75.5t57 -24.5q37 0 62 25.5t30 74.5h-174z" />
    <glyph glyph-name="uni01E6" unicode="&#x1e6;" horiz-adv-x="702" 
d="M62 0zM604 68q-45 -38 -105 -59t-137 -21q-67 0 -122 25t-94.5 73t-61.5 117t-22 158q0 82 21 151t59.5 118.5t93.5 77.5t123 28q42 0 76.5 -7.5t64 -24t55 -43.5t49.5 -65q10 -15 10 -33q0 -25 -17.5 -43t-44.5 -18q-16 0 -30.5 8t-21.5 21q-25 44 -58.5 63.5
t-81.5 19.5q-41 0 -73 -19t-54.5 -53t-34.5 -80.5t-12 -101.5q0 -118 49 -185.5t137 -67.5q41 0 72 8t48 19v146h-104q-23 0 -41 17.5t-18 40.5q0 24 18 41t41 17h154q26 0 44 -18t18 -42v-268zM364 857l77 94q14 16 32 16q15 0 28 -10t13 -27q0 -7 -2.5 -13t-5.5 -11
l-75 -101q-15 -20 -32 -27.5t-34 -7.5q-20 0 -37 8t-31 27l-74 101q-3 5 -5.5 11t-2.5 13q0 17 12 27t29 10q20 0 32 -16z" />
    <glyph glyph-name="uni01E7" unicode="&#x1e7;" horiz-adv-x="516" 
d="M42 0zM453 3q0 -47 -12.5 -88t-37.5 -72t-61 -48.5t-82 -17.5q-38 0 -79.5 12.5t-69.5 38.5q-27 25 -27 57q0 23 15.5 40t39.5 17q20 0 32.5 -9.5t21.5 -19.5q14 -14 29.5 -22.5t38.5 -8.5q42 0 59.5 28.5t17.5 82.5v101q-20 -29 -52.5 -46t-76.5 -17q-48 0 -80 20
t-51.5 53.5t-27.5 77t-8 89.5q0 49 8.5 92t28 75.5t50.5 51.5t76 19t78 -18t56 -49q2 26 15.5 42.5t42.5 16.5q33 0 44.5 -22t11.5 -53v-423zM338 376q-16 14 -37 22t-46 8q-46 0 -69.5 -32t-23.5 -101q0 -66 22 -103.5t73 -37.5q53 0 81 36v208zM257 653l77 100
q15 18 32 18q15 0 28 -11t13 -29q0 -8 -2.5 -14t-5.5 -11l-74 -109q-15 -22 -32.5 -30t-34.5 -8q-22 0 -38 10t-29 28l-75 109q-3 5 -5.5 11t-2.5 14q0 17 12 28.5t29 11.5q18 0 32 -18z" />
    <glyph glyph-name="uni01F0" unicode="&#x1f0;" horiz-adv-x="309" 
d="M0 0zM162 653l77 100q15 18 32 18q15 0 28 -11t13 -29q0 -8 -2.5 -14t-5.5 -11l-74 -109q-15 -22 -32.5 -30t-34.5 -8q-22 0 -38 10t-29 28l-75 109q-3 5 -5.5 11t-2.5 14q0 17 12 28.5t29 11.5q18 0 32 -18zM226 -59q0 -76 -32.5 -120t-107.5 -44q-19 0 -39.5 3.5
t-37 11.5t-27 22t-10.5 34q0 27 16 39t33 12q10 0 17 -3.5t13 -8t12 -8t15 -3.5q18 0 23.5 15.5t5.5 42.5v511q0 24 16.5 40.5t42.5 16.5t43 -16.5t17 -40.5v-504z" />
    <glyph glyph-name="uni01F1" unicode="&#x1f1;" horiz-adv-x="1243" 
d="M88 0zM290 724q75 0 136 -22t103.5 -67t66 -113.5t23.5 -160.5q0 -93 -22.5 -161t-64.5 -112.5t-103 -66t-139 -21.5h-141q-24 0 -42.5 18t-18.5 43v602q0 25 18.5 43t42.5 18h141zM212 602v-480h33q67 0 114 10t77 36.5t44 73t14 119.5q0 72 -14 118.5t-43 74t-73.5 38
t-106.5 10.5h-45zM886 122h257q26 0 44 -18.5t18 -42.5q0 -25 -18 -43t-44 -18h-360q-25 0 -43.5 18t-18.5 43q0 11 4 20t9 17l295 505h-249q-25 0 -43.5 18t-18.5 42q0 25 18.5 43t43.5 18h350q26 0 44 -18t18 -43q0 -17 -10 -34z" />
    <glyph glyph-name="uni01F2" unicode="&#x1f2;" horiz-adv-x="1140" 
d="M88 0zM290 724q75 0 136 -22t103.5 -67t66 -113.5t23.5 -160.5q0 -93 -22.5 -161t-64.5 -112.5t-103 -66t-139 -21.5h-141q-24 0 -42.5 18t-18.5 43v602q0 25 18.5 43t42.5 18h141zM212 602v-480h33q67 0 114 10t77 36.5t44 73t14 119.5q0 72 -14 118.5t-43 74t-73.5 38
t-106.5 10.5h-45zM877 112h166q24 0 40.5 -17t16.5 -40q0 -24 -16.5 -39.5t-40.5 -15.5h-262q-25 0 -42 16t-17 41q0 8 4 17.5t9 17.5l197 295h-154q-25 0 -42 16t-17 39t17 39.5t42 16.5h249q26 0 43 -17t17 -40q0 -10 -3.5 -18.5t-7.5 -14.5z" />
    <glyph glyph-name="uni01F3" unicode="&#x1f3;" horiz-adv-x="988" 
d="M43 0zM459 138q0 -32 6 -51.5t6 -34.5q0 -25 -17.5 -40.5t-42.5 -15.5q-21 0 -38.5 14.5t-25.5 52.5q-17 -32 -50.5 -53.5t-81.5 -21.5q-50 0 -83 21.5t-52.5 58t-28 83.5t-8.5 98t8.5 98t28 83t52.5 57.5t82 21.5q36 0 71 -19t55 -48v256q0 24 17 41t43 17q25 0 42 -17
t17 -41v-560zM340 373q-15 15 -37 24.5t-44 9.5q-48 0 -72 -40t-24 -117q0 -76 22 -119t73 -43q27 0 49 11t33 31v243zM726 112h166q24 0 40.5 -17t16.5 -40q0 -24 -16.5 -39.5t-40.5 -15.5h-262q-25 0 -42 16t-17 41q0 8 4 17.5t9 17.5l197 295h-154q-25 0 -42 16t-17 39
t17 39.5t42 16.5h249q26 0 43 -17t17 -40q0 -10 -3.5 -18.5t-7.5 -14.5z" />
    <glyph glyph-name="uni01F4" unicode="&#x1f4;" horiz-adv-x="702" 
d="M62 0zM604 68q-45 -38 -105 -59t-137 -21q-67 0 -122 25t-94.5 73t-61.5 117t-22 158q0 82 21 151t59.5 118.5t93.5 77.5t123 28q42 0 76.5 -7.5t64 -24t55 -43.5t49.5 -65q10 -15 10 -33q0 -25 -17.5 -43t-44.5 -18q-16 0 -30.5 8t-21.5 21q-25 44 -58.5 63.5
t-81.5 19.5q-41 0 -73 -19t-54.5 -53t-34.5 -80.5t-12 -101.5q0 -118 49 -185.5t137 -67.5q41 0 72 8t48 19v146h-104q-23 0 -41 17.5t-18 40.5q0 24 18 41t41 17h154q26 0 44 -18t18 -42v-268zM391 942q11 14 22.5 19.5t23.5 5.5q20 0 34 -12.5t14 -31.5q0 -17 -15 -33
l-97 -106q-12 -13 -31 -13q-15 0 -26.5 9.5t-11.5 25.5t13 33z" />
    <glyph glyph-name="uni01F5" unicode="&#x1f5;" horiz-adv-x="516" 
d="M42 0zM453 3q0 -47 -12.5 -88t-37.5 -72t-61 -48.5t-82 -17.5q-38 0 -79.5 12.5t-69.5 38.5q-27 25 -27 57q0 23 15.5 40t39.5 17q20 0 32.5 -9.5t21.5 -19.5q14 -14 29.5 -22.5t38.5 -8.5q42 0 59.5 28.5t17.5 82.5v101q-20 -29 -52.5 -46t-76.5 -17q-48 0 -80 20
t-51.5 53.5t-27.5 77t-8 89.5q0 49 8.5 92t28 75.5t50.5 51.5t76 19t78 -18t56 -49q2 26 15.5 42.5t42.5 16.5q33 0 44.5 -22t11.5 -53v-423zM338 376q-16 14 -37 22t-46 8q-46 0 -69.5 -32t-23.5 -101q0 -66 22 -103.5t73 -37.5q53 0 81 36v208zM284 744q11 15 22.5 21
t23.5 6q21 0 34.5 -13.5t13.5 -33.5t-14 -37l-98 -113q-7 -8 -14.5 -11t-15.5 -3q-15 0 -27 10.5t-12 27.5t14 35z" />
    <glyph glyph-name="uni01F8" unicode="&#x1f8;" horiz-adv-x="709" 
d="M88 0zM619 56q0 -25 -18 -42.5t-47 -17.5q-20 0 -34 9.5t-22 20.5l-292 454v-427q0 -23 -17.5 -40t-41.5 -17t-41.5 17t-17.5 40v617q0 24 18 41.5t47 17.5q20 0 33.5 -9.5t21.5 -20.5l292 -453v426q0 23 18 40t41 17q24 0 42 -17t18 -40v-616zM406 832q8 -12 8 -25
q0 -15 -10 -25.5t-27 -10.5q-8 0 -16 2.5t-15 10.5l-98 106q-8 8 -11 17t-3 17q0 20 15 31.5t35 11.5q11 0 22 -5t22 -20z" />
    <glyph glyph-name="uni01F9" unicode="&#x1f9;" horiz-adv-x="529" 
d="M51 0zM448 136q0 -17 1.5 -29.5t4 -22t4 -17.5t1.5 -17q0 -23 -18 -38.5t-44 -15.5q-22 0 -35.5 12t-20.5 31.5t-9.5 44t-2.5 50.5v179q0 17 -4 34.5t-13 31.5t-24 23t-36 9q-47 0 -71 -33v-325q0 -23 -17.5 -40t-41.5 -17q-32 0 -46 22t-14 51v289q0 33 -5.5 50.5
t-5.5 34.5q0 23 14 41t46 18q23 0 36.5 -15t22.5 -40q22 26 51.5 44t79.5 18q63 0 105 -53t42 -152v-168zM305 633q13 -19 13 -35q0 -17 -11.5 -27.5t-27.5 -10.5q-6 0 -14 2.5t-16 11.5l-97 113q-8 9 -11.5 18.5t-3.5 18.5q0 20 14 33.5t34 13.5q10 0 22.5 -5t23.5 -22z
" />
    <glyph glyph-name="Scommaaccent" unicode="&#x218;" horiz-adv-x="577" 
d="M56 0zM475 651q13 -18 21.5 -38t8.5 -38q0 -27 -18.5 -46t-44.5 -19q-22 0 -37 14t-23 37q-4 12 -9 21.5t-19 20.5q-12 9 -27.5 13.5t-32.5 4.5q-19 0 -36.5 -6t-31 -17.5t-21.5 -27.5t-8 -37q0 -20 8 -35t21.5 -26t32.5 -19.5t40 -16.5q16 -6 35 -12.5t38 -14.5
t37.5 -17.5t34.5 -21.5q34 -26 55 -64.5t21 -97.5q0 -56 -19.5 -97t-52 -68.5t-75 -41t-89.5 -13.5q-74 0 -130 31.5t-82 87.5q-6 13 -11 28.5t-5 29.5q0 26 18 44t44 18q20 0 35 -11.5t23 -30.5q9 -23 14.5 -32t16.5 -18q15 -14 36 -20.5t44 -6.5q22 0 42 6.5t35 18.5
t23.5 29.5t8.5 40.5q0 21 -7.5 35.5t-20.5 26t-30.5 19.5t-37.5 15q-43 15 -80.5 30.5t-69.5 39.5q-33 25 -55.5 63t-22.5 95q0 47 17 85.5t46.5 66t70 42.5t88.5 15q56 0 103 -21t78 -64zM267 -117q-18 6 -26 20.5t-8 28.5q0 18 13.5 34t40.5 16q53 0 53 -70
q0 -20 -4.5 -43t-13 -43t-20.5 -33.5t-27 -13.5q-11 0 -15.5 6.5t-4.5 14.5q0 11 6.5 27.5t6.5 36.5v9.5t-1 9.5z" />
    <glyph glyph-name="scommaaccent" unicode="&#x219;" horiz-adv-x="465" 
d="M40 0zM383 452q8 -11 13 -23t5 -27q0 -19 -15 -34.5t-34 -15.5q-30 0 -45 15q-8 7 -13.5 14t-15.5 15q-9 8 -23.5 13t-34.5 5q-26 0 -39 -12t-13 -30q0 -16 10.5 -26.5t27.5 -18.5q28 -14 66 -24t72 -30q31 -17 51 -44.5t20 -74.5q0 -42 -14 -73t-39.5 -51.5t-60.5 -31
t-77 -10.5q-41 0 -85.5 15.5t-73.5 52.5q-9 11 -17 24.5t-8 30.5q0 23 15.5 37t36.5 14q22 0 36 -7.5t25 -23.5t31 -29.5t42 -13.5q30 0 51.5 14t21.5 35q0 20 -12.5 32.5t-32.5 20.5q-34 12 -67 23t-59 26q-33 19 -53.5 47t-20.5 76q0 36 15 63.5t39.5 46t56.5 27.5t66 9
q52 0 90.5 -14.5t61.5 -41.5zM211 -117q-18 6 -26 20.5t-8 28.5q0 18 13.5 34t40.5 16q53 0 53 -70q0 -20 -4.5 -43t-13 -43t-20.5 -33.5t-27 -13.5q-11 0 -15.5 6.5t-4.5 14.5q0 11 6.5 27.5t6.5 36.5v9.5t-1 9.5z" />
    <glyph glyph-name="uni021A" unicode="&#x21a;" horiz-adv-x="561" 
d="M13 0zM342 603v-547q0 -24 -18.5 -42t-43.5 -18t-43.5 18t-18.5 42v547h-142q-26 0 -44.5 18t-18.5 42q0 25 18.5 43t44.5 18h409q25 0 43.5 -18t18.5 -43q0 -24 -18.5 -42t-43.5 -18h-143zM260 -117q-18 6 -26 20.5t-8 28.5q0 18 13.5 34t40.5 16q53 0 53 -70
q0 -20 -4.5 -43t-13 -43t-20.5 -33.5t-27 -13.5q-11 0 -15.5 6.5t-4.5 14.5q0 11 6.5 27.5t6.5 36.5v9.5t-1 9.5z" />
    <glyph glyph-name="uni021B" unicode="&#x21b;" horiz-adv-x="389" 
d="M22 0zM224 498h80q25 0 37 -14.5t12 -32.5q0 -17 -12 -32t-37 -15h-80v-273q0 -23 10 -31.5t20 -8.5q7 0 13 3t12 7t13 7t17 3q19 0 36 -12t17 -35q0 -21 -10.5 -35.5t-27 -23.5t-36.5 -13t-39 -4q-75 0 -110 46.5t-35 128.5v241h-33q-23 0 -36 13t-13 34q0 17 13 32
t36 15h33v75q0 26 15.5 46.5t44.5 20.5q26 0 43 -15.5t17 -41.5v-85zM193 -117q-18 6 -26 20.5t-8 28.5q0 18 13.5 34t40.5 16q53 0 53 -70q0 -20 -4.5 -43t-13 -43t-20.5 -33.5t-27 -13.5q-11 0 -15.5 6.5t-4.5 14.5q0 11 6.5 27.5t6.5 36.5v9.5t-1 9.5z" />
    <glyph glyph-name="dotlessj" unicode="&#x237;" horiz-adv-x="304" 
d="M226 -59q0 -76 -32.5 -120t-107.5 -44q-19 0 -39.5 3.5t-37 11.5t-27 22t-10.5 34q0 27 16 39t33 12q10 0 17 -3.5t13 -8t12 -8t15 -3.5q18 0 23.5 15.5t5.5 42.5v511q0 24 16.5 40.5t42.5 16.5t43 -16.5t17 -40.5v-504z" />
    <glyph glyph-name="uni0241" unicode="&#x241;" horiz-adv-x="450" 
d="M256 55q0 -23 -18 -41t-44 -18q-29 0 -45.5 21t-16.5 52v188q0 33 4 56t13 42.5t24 39t38 47.5q34 40 48 66t14 56q0 65 -64 65q-10 0 -24 -2.5t-28 -11.5q-23 -15 -35 -20.5t-28 -5.5q-34 0 -48 18.5t-14 40.5q0 40 42 67q27 17 63 25t69 8q37 0 71.5 -10t60 -31
t41 -53.5t15.5 -76.5q0 -32 -8 -59t-20.5 -50.5t-29 -43.5t-32.5 -39q-16 -18 -25.5 -33t-14.5 -29.5t-6.5 -30t-1.5 -36.5v-201z" />
    <glyph glyph-name="uni0242" unicode="&#x242;" horiz-adv-x="437" 
d="M130 79q0 28 7 50t18 40.5t26 35t32 33.5q22 23 38 46t16 54q0 29 -16.5 42t-53.5 13q-20 0 -34 -4t-30 -12q-10 -5 -22.5 -10t-31.5 -5q-20 0 -33.5 13t-13.5 35q0 28 16 44.5t45 27.5q49 20 108 20q39 0 72.5 -9.5t57.5 -30t38 -51.5t14 -73q0 -28 -6 -49.5t-16.5 -39
t-25 -33t-30.5 -30.5q-20 -19 -31 -34t-16.5 -29t-7 -29t-2.5 -34q-2 -27 -18 -45.5t-42 -18.5q-25 0 -41.5 19t-16.5 64z" />
    <glyph glyph-name="uni024C" unicode="&#x24c;" horiz-adv-x="663" 
d="M311 724q56 0 106 -9t88 -33.5t60.5 -67.5t22.5 -110q0 -80 -35.5 -128t-86.5 -67l137 -223q9 -15 9 -31q0 -25 -19.5 -42t-44.5 -17q-15 0 -29 6.5t-24 23.5l-152 257h-76v-228q0 -24 -18 -41.5t-44 -17.5q-24 0 -42.5 17.5t-18.5 41.5v228h-86q-24 0 -41 16t-17 39
t17 40t41 17h86v268q0 24 18.5 42.5t42.5 18.5h106zM267 602v-207h86q46 0 78.5 24.5t32.5 80.5q0 53 -32 77.5t-78 24.5h-87z" />
    <glyph glyph-name="uni024D" unicode="&#x24d;" horiz-adv-x="467" 
d="M112 276v89q0 17 -1.5 29.5t-4 22t-4 18t-1.5 17.5q0 22 17.5 36t35.5 14q34 0 49.5 -21t19.5 -51q53 79 130 79q17 0 34 -4.5t30.5 -14t22 -23.5t8.5 -33q0 -26 -18 -42t-46 -16q-13 0 -22 3.5t-18.5 8t-21 8t-29.5 3.5q-13 0 -34 -9t-28 -23v-91h99q17 0 29 -12t12 -28
q0 -17 -12 -29t-29 -12h-99v-130q0 -29 -15 -49t-44 -20q-30 0 -45 20.5t-15 49.5v129h-68q-17 0 -29.5 12t-12.5 29q0 16 12.5 28t29.5 12h68z" />
    <glyph glyph-name="uni0253" unicode="&#x253;" horiz-adv-x="517" 
d="M62 592q0 75 36.5 119.5t107.5 44.5q21 0 43 -4.5t39 -13.5t28 -23.5t11 -33.5q0 -26 -16.5 -37.5t-33.5 -11.5q-10 0 -17 3.5t-13 8t-13 8t-17 3.5q-36 0 -36 -54v-150q20 26 51 42t72 16q48 0 80.5 -22.5t52 -59t28 -84t8.5 -97.5q0 -51 -8.5 -97.5t-28 -82.5t-51 -57
t-77.5 -21q-43 0 -77.5 18t-54.5 48q-4 -23 -19 -40.5t-43 -17.5q-18 0 -28.5 7.5t-15.5 20.5t-6.5 28.5t-1.5 32.5v507zM181 117q15 -13 36 -20t41 -7q95 0 95 158q0 75 -22.5 116.5t-73.5 41.5q-23 0 -43 -8.5t-33 -24.5v-256z" />
    <glyph glyph-name="uni0257" unicode="&#x257;" horiz-adv-x="606" 
d="M340 592q0 75 36.5 119.5t107.5 44.5q21 0 43 -4.5t39 -13.5t28 -23.5t11 -33.5q0 -26 -16.5 -37.5t-33.5 -11.5q-10 0 -17 3.5t-13 8t-13 8t-17 3.5q-36 0 -36 -54v-463q0 -32 6 -51.5t6 -34.5q0 -25 -17.5 -40.5t-42.5 -15.5q-21 0 -38.5 14.5t-25.5 52.5
q-17 -32 -50.5 -53.5t-81.5 -21.5q-50 0 -83 21.5t-52.5 58t-28 83.5t-8.5 98t8.5 98t28 83t52.5 57.5t82 21.5q36 0 71 -19t55 -48v150zM340 373q-15 15 -37 24.5t-44 9.5q-48 0 -72 -40t-24 -117q0 -76 22 -119t73 -43q27 0 49 11t33 31v243z" />
    <glyph glyph-name="uni0263" unicode="&#x263;" horiz-adv-x="438" 
d="M217 269l87 198q8 19 22.5 27.5t30.5 8.5q24 0 44 -16.5t20 -42.5q0 -15 -9 -33l-137 -275q27 -62 44 -101t26.5 -64.5t13 -42.5t3.5 -34q0 -62 -36 -89.5t-109 -27.5t-109 27.5t-36 89.5q0 17 3.5 34t12.5 42.5t26 64.5t44 101l-136 275q-9 18 -9 33q0 26 20 42.5
t44 16.5q16 0 30.5 -8.5t22.5 -27.5zM257 -96q0 18 -9 44t-31 71q-22 -45 -31 -71t-9 -44q0 -16 8 -27t32 -11t32 11t8 27z" />
    <glyph glyph-name="uni0272" unicode="&#x272;" horiz-adv-x="529" 
d="M62 358q0 33 -5.5 50.5t-5.5 34.5q0 23 14 41t46 18q23 0 36.5 -15t22.5 -40q22 26 51.5 44t79.5 18q63 0 105 -53t42 -152v-168q0 -17 1.5 -29.5t4 -22t4 -17.5t1.5 -17q0 -23 -18 -38.5t-44 -15.5q-22 0 -35.5 12t-20.5 31.5t-9.5 44t-2.5 50.5v179q0 17 -4 34.5
t-13 31.5t-24 23t-36 9q-47 0 -71 -33v-437q0 -76 -32.5 -120t-107.5 -44q-19 0 -39.5 3.5t-37 11.5t-27 22t-10.5 34q0 27 16 39t33 12q10 0 17 -3.5t13 -8t12 -8t15 -3.5q18 0 23.5 15.5t5.5 42.5v424z" />
    <glyph glyph-name="circumflex" unicode="&#x2c6;" horiz-adv-x="323" 
d="M94 733q15 23 32.5 30.5t34.5 7.5q19 0 36.5 -8.5t31.5 -29.5l74 -109q3 -5 5.5 -11t2.5 -14q0 -17 -12.5 -28.5t-27.5 -11.5q-8 0 -16.5 3.5t-16.5 14.5l-77 100l-76 -100q-15 -18 -32 -18q-15 0 -28 11t-13 29q0 8 2.5 14t5.5 11z" />
    <glyph glyph-name="caron" unicode="&#x2c7;" horiz-adv-x="323" 
d="M161 653l77 100q15 18 32 18q15 0 28 -11t13 -29q0 -8 -2.5 -14t-5.5 -11l-74 -109q-15 -22 -32.5 -30t-34.5 -8q-22 0 -38 10t-29 28l-75 109q-3 5 -5.5 11t-2.5 14q0 17 12 28.5t29 11.5q18 0 32 -18z" />
    <glyph glyph-name="uni02C9" unicode="&#x2c9;" horiz-adv-x="0" 
d="M-89 635zM-130 716q17 0 29 -12t12 -28q0 -17 -12 -29t-29 -12h-286q-17 0 -29.5 12t-12.5 29q0 16 12.5 28t29.5 12h286z" />
    <glyph glyph-name="breve" unicode="&#x2d8;" horiz-adv-x="397" 
d="M45 742q14 0 23 -6t17 -14q22 -21 47.5 -31.5t66.5 -10.5t66.5 10.5t47.5 31.5q8 8 17 14t23 6q29 0 29 -30q0 -20 -12 -35.5t-23 -25.5q-23 -20 -59.5 -33.5t-88.5 -13.5q-51 0 -87.5 13.5t-60.5 33.5q-11 10 -23 25.5t-12 35.5q0 30 29 30z" />
    <glyph glyph-name="dotaccent" unicode="&#x2d9;" horiz-adv-x="156" 
d="M13 672q0 26 18.5 44t46.5 18q27 0 45.5 -18t18.5 -44t-18.5 -43.5t-45.5 -17.5q-28 0 -46.5 17.5t-18.5 43.5z" />
    <glyph glyph-name="ring" unicode="&#x2da;" horiz-adv-x="214" 
d="M107 771q19 0 36 -7.5t30 -20.5t20 -30.5t7 -38.5q0 -43 -27 -70t-66 -27q-40 0 -66.5 27t-26.5 70q0 21 7 38.5t20 30.5t29.5 20.5t36.5 7.5zM107 727q-21 0 -35 -15t-14 -37q0 -23 14 -38t35 -15t35 15t14 38q0 22 -14 37t-35 15z" />
    <glyph glyph-name="ogonek" unicode="&#x2db;" horiz-adv-x="231" 
d="M162 0q-32 -19 -50.5 -46.5t-18.5 -50.5q0 -14 9.5 -22.5t23.5 -8.5q15 0 25.5 3t21.5 3q18 0 29 -10.5t11 -26.5q0 -15 -8.5 -24.5t-21.5 -15t-28.5 -7.5t-28.5 -2q-52 0 -82.5 23.5t-30.5 72.5q0 18 7.5 34.5t19.5 31t27 26.5t31 20h64z" />
    <glyph glyph-name="tilde" unicode="&#x2dc;" horiz-adv-x="378" 
d="M26 717q8 14 24 25t44 11q27 0 49 -7t45 -19q23 -11 41.5 -18t36.5 -7q22 0 29 10t12 25q6 20 29 20q14 0 21 -9.5t7 -32.5q0 -14 -3 -29t-9 -27q-8 -14 -24.5 -25t-43.5 -11q-28 0 -52.5 9.5t-50.5 21.5q-19 9 -35 14.5t-33 5.5q-23 0 -30.5 -10t-12.5 -25
q-4 -10 -9.5 -15.5t-18.5 -5.5q-14 0 -21.5 9.5t-7.5 32.5q0 14 3 29.5t10 27.5z" />
    <glyph glyph-name="hungarumlaut" unicode="&#x2dd;" horiz-adv-x="402" 
d="M289 744q11 17 23.5 22t22.5 5q20 0 34 -13.5t14 -33.5q0 -9 -3.5 -18.5t-11.5 -18.5l-97 -113q-8 -9 -16 -11.5t-14 -2.5q-16 0 -27.5 10.5t-11.5 27.5q0 16 13 35zM105 744q11 16 22.5 21.5t24.5 5.5q20 0 34 -13.5t14 -33.5q0 -9 -3.5 -18.5t-11.5 -18.5l-98 -113
q-13 -14 -30 -14q-15 0 -27 10t-12 27q0 16 14 36z" />
    <glyph glyph-name="gravecomb" unicode="&#x300;" horiz-adv-x="0" 
d="M-208 560zM-221 633q13 -19 13 -35q0 -17 -11.5 -27.5t-27.5 -10.5q-6 0 -14 2.5t-16 11.5l-97 113q-8 9 -11.5 18.5t-3.5 18.5q0 20 14 33.5t34 13.5q10 0 22.5 -5t23.5 -22z" />
    <glyph glyph-name="acutecomb" unicode="&#x301;" horiz-adv-x="0" 
d="M-148 560zM-242 744q11 15 22.5 21t23.5 6q21 0 34.5 -13.5t13.5 -33.5t-14 -37l-98 -113q-7 -8 -14.5 -11t-15.5 -3q-15 0 -27 10.5t-12 27.5t14 35z" />
    <glyph glyph-name="uni0302" unicode="&#x302;" horiz-adv-x="0" 
d="M-119 559zM-336 733q15 23 32.5 30.5t34.5 7.5q19 0 36.5 -8.5t31.5 -29.5l74 -109q3 -5 5.5 -11t2.5 -14q0 -17 -12.5 -28.5t-27.5 -11.5q-8 0 -16.5 3.5t-16.5 14.5l-77 100l-76 -100q-15 -18 -32 -18q-15 0 -28 11t-13 29q0 8 2.5 14t5.5 11z" />
    <glyph glyph-name="tildecomb" unicode="&#x303;" horiz-adv-x="0" 
d="M-93 618zM-431 717q8 14 24 25t44 11q27 0 49 -7t45 -19q23 -11 41.5 -18t36.5 -7q22 0 29 10t12 25q6 20 29 20q14 0 21 -9.5t7 -32.5q0 -14 -3 -29t-9 -27q-8 -14 -24.5 -25t-43.5 -11q-28 0 -52.5 9.5t-50.5 21.5q-19 9 -35 14.5t-33 5.5q-23 0 -30.5 -10t-12.5 -25
q-4 -10 -9.5 -15.5t-18.5 -5.5q-14 0 -21.5 9.5t-7.5 32.5q0 14 3 29.5t10 27.5z" />
    <glyph glyph-name="uni0304" unicode="&#x304;" horiz-adv-x="0" 
d="M-84 635zM-125 716q17 0 29 -12t12 -28q0 -17 -12 -29t-29 -12h-286q-17 0 -29.5 12t-12.5 29q0 16 12.5 28t29.5 12h286z" />
    <glyph glyph-name="uni0306" unicode="&#x306;" horiz-adv-x="0" 
d="M-86 604zM-423 742q14 0 23 -6t17 -14q22 -21 47.5 -31.5t66.5 -10.5t66.5 10.5t47.5 31.5q8 8 17 14t23 6q29 0 29 -30q0 -20 -12 -35.5t-23 -25.5q-23 -20 -59.5 -33.5t-88.5 -13.5q-51 0 -87.5 13.5t-60.5 33.5q-11 10 -23 25.5t-12 35.5q0 30 29 30z" />
    <glyph glyph-name="uni0307" unicode="&#x307;" horiz-adv-x="0" 
d="M-205 611zM-334 672q0 26 18.5 44t46.5 18q27 0 45.5 -18t18.5 -44t-18.5 -43.5t-45.5 -17.5q-28 0 -46.5 17.5t-18.5 43.5z" />
    <glyph glyph-name="uni0308" unicode="&#x308;" horiz-adv-x="0" 
d="M-106 611zM-234 672q0 26 18 44t46 18q27 0 45.5 -18t18.5 -44t-18.5 -43.5t-45.5 -17.5q-28 0 -46 17.5t-18 43.5zM-433 672q0 26 18.5 44t46.5 18q27 0 45.5 -18t18.5 -44t-18.5 -43.5t-45.5 -17.5q-28 0 -46.5 17.5t-18.5 43.5z" />
    <glyph glyph-name="hookabovecomb" unicode="&#x309;" horiz-adv-x="0" 
d="M-336 712q13 5 27.5 7t35.5 2q51 0 77 -16.5t26 -54.5q0 -27 -12 -41.5t-32 -23.5q-11 -5 -18 -8t-11 -6t-6 -6t-5 -9q-3 -8 -9 -14.5t-22 -6.5q-17 0 -24.5 9t-7.5 23q0 18 10 28.5t32 19.5q11 5 22 12t11 20q0 11 -8 14.5t-21 3.5q-14 0 -23 -3.5t-15.5 -7.5
t-13.5 -7.5t-18 -3.5q-15 0 -24 8t-9 22q0 25 38 39z" />
    <glyph glyph-name="uni030A" unicode="&#x30a;" horiz-adv-x="0" 
d="M-175 577zM-268 771q19 0 36 -7.5t30 -20.5t20 -30.5t7 -38.5q0 -43 -27 -70t-66 -27q-40 0 -66.5 27t-26.5 70q0 21 7 38.5t20 30.5t29.5 20.5t36.5 7.5zM-268 727q-21 0 -35 -15t-14 -37q0 -23 14 -38t35 -15t35 15t14 38q0 22 -14 37t-35 15z" />
    <glyph glyph-name="uni030B" unicode="&#x30b;" horiz-adv-x="0" 
d="M-56 560zM-150 744q11 17 23.5 22t22.5 5q20 0 34 -13.5t14 -33.5q0 -9 -3.5 -18.5t-11.5 -18.5l-97 -113q-8 -9 -16 -11.5t-14 -2.5q-16 0 -27.5 10.5t-11.5 27.5q0 16 13 35zM-334 744q11 16 22.5 21.5t24.5 5.5q20 0 34 -13.5t14 -33.5q0 -9 -3.5 -18.5t-11.5 -18.5
l-98 -113q-13 -14 -30 -14q-15 0 -27 10t-12 27q0 16 14 36z" />
    <glyph glyph-name="uni030C" unicode="&#x30c;" horiz-adv-x="0" 
d="M-119 559zM-269 653l77 100q15 18 32 18q15 0 28 -11t13 -29q0 -8 -2.5 -14t-5.5 -11l-74 -109q-15 -22 -32.5 -30t-34.5 -8q-22 0 -38 10t-29 28l-75 109q-3 5 -5.5 11t-2.5 14q0 17 12 28.5t29 11.5q18 0 32 -18z" />
    <glyph glyph-name="uni0313" unicode="&#x313;" horiz-adv-x="0" 
d="M-202 534zM-242 663q20 -9 30 -27.5t10 -35.5q0 -25 -16.5 -45.5t-48.5 -20.5t-50.5 21.5t-18.5 68.5q0 23 6 52.5t16.5 55.5t25 43.5t32.5 17.5q15 0 21 -8t6 -18t-2.5 -18.5t-5.5 -18t-5.5 -20.5t-2.5 -25q0 -5 1 -10.5t2 -11.5z" />
    <glyph glyph-name="dotbelowcomb" unicode="&#x323;" horiz-adv-x="0" 
d="M-337 -161q0 26 18.5 44t46.5 18q27 0 45.5 -18t18.5 -44t-18.5 -44t-45.5 -18q-28 0 -46.5 18t-18.5 44z" />
    <glyph glyph-name="uni0326" unicode="&#x326;" horiz-adv-x="0" 
d="M-216 -18zM-289 -117q-18 6 -26 20.5t-8 28.5q0 18 13.5 34t40.5 16q53 0 53 -70q0 -20 -4.5 -43t-13 -43t-20.5 -33.5t-27 -13.5q-11 0 -15.5 6.5t-4.5 14.5q0 11 6.5 27.5t6.5 36.5v9.5t-1 9.5z" />
    <glyph glyph-name="uni0328" unicode="&#x328;" horiz-adv-x="0" 
d="M-170 0zM-221 0q-32 -19 -50.5 -46.5t-18.5 -50.5q0 -14 9.5 -22.5t23.5 -8.5q15 0 25.5 3t21.5 3q18 0 29 -10.5t11 -26.5q0 -15 -8.5 -24.5t-21.5 -15t-28.5 -7.5t-28.5 -2q-52 0 -82.5 23.5t-30.5 72.5q0 18 7.5 34.5t19.5 31t27 26.5t31 20h64z" />
    <glyph glyph-name="uni032D" unicode="&#x32d;" horiz-adv-x="0" 
d="M-122 -26zM-339 -61q15 21 32.5 28t34.5 7q19 0 36 -8t31 -27l75 -101q3 -5 5.5 -10.5t2.5 -13.5q0 -17 -12.5 -27t-28.5 -10q-18 0 -32 17l-77 93l-76 -93q-14 -17 -32 -17q-15 0 -28 10t-13 27q0 8 2.5 13.5t5.5 10.5z" />
    <glyph glyph-name="uni0374" unicode="&#x374;" horiz-adv-x="214" 
d="M16 560zM103 744q11 15 22.5 21t23.5 6q21 0 34.5 -13.5t13.5 -33.5t-14 -37l-98 -113q-7 -8 -14.5 -11t-15.5 -3q-15 0 -27 10.5t-12 27.5t14 35z" />
    <glyph glyph-name="uni0375" unicode="&#x375;" horiz-adv-x="214" 
d="M16 0zM103 9q11 15 22.5 21t23.5 6q21 0 34.5 -13.5t13.5 -33.5t-14 -37l-98 -113q-7 -8 -14.5 -11t-15.5 -3q-15 0 -27 10.5t-12 27.5t14 35z" />
    <glyph glyph-name="uni037E" unicode="&#x37e;" horiz-adv-x="293" 
d="M76 0zM218 421q0 -29 -21 -49t-50 -20t-50 20t-21 49t21 49t50 20t50 -20t21 -49zM116 0q-22 8 -31 26.5t-9 35.5q0 25 15.5 45.5t49.5 20.5q32 0 49.5 -21.5t17.5 -68.5q0 -23 -5.5 -52t-16 -54.5t-25 -43t-32.5 -17.5q-14 0 -20.5 7.5t-6.5 18.5q0 19 7.5 36t7.5 45
v11.5t-1 10.5z" />
    <glyph glyph-name="tonos" unicode="&#x384;" horiz-adv-x="169" 
d="M52 760q6 25 18 36t29 11q23 0 38 -11t15 -34q0 -12 -4 -24l-45 -139q-13 -40 -49 -40q-17 0 -28 12t-11 32v8t2 9z" />
    <glyph glyph-name="dieresistonos" unicode="&#x385;" horiz-adv-x="429" 
d="M13 559zM188 760q6 25 18 36t29 11q23 0 38 -11t15 -34q0 -12 -4 -24l-45 -139q-13 -40 -49 -40q-17 0 -28 12t-11 32v8t2 9zM286 672q0 26 18.5 44t46.5 18q27 0 45.5 -18t18.5 -44t-18.5 -43.5t-45.5 -17.5q-28 0 -46.5 17.5t-18.5 43.5zM13 672q0 26 18.5 44t46.5 18
q27 0 45.5 -18t18.5 -44t-18.5 -43.5t-45.5 -17.5q-28 0 -46.5 17.5t-18.5 43.5z" />
    <glyph glyph-name="Alphatonos" unicode="&#x386;" horiz-adv-x="618" 
d="M15 0zM605 81q4 -13 4 -25q0 -23 -15.5 -41.5t-44.5 -18.5q-23 0 -39 12t-21 29l-38 115h-235l-38 -117q-5 -17 -19.5 -28t-36.5 -11q-27 0 -43 17t-16 40q0 7 1.5 12.5t3.5 13.5l210 610q6 17 22.5 28.5t36.5 11.5t36.5 -11.5t22.5 -28.5zM249 260h169l-85 255zM52 760
q6 25 18 36t29 11q23 0 38 -11t15 -34q0 -12 -4 -24l-45 -139q-13 -40 -49 -40q-17 0 -28 12t-11 32v8t2 9z" />
    <glyph glyph-name="anoteleia" unicode="&#x387;" horiz-adv-x="245" 
d="M51 363zM194 433q0 -29 -21 -49.5t-51 -20.5q-29 0 -50 20.5t-21 49.5t21 49t50 20q30 0 51 -20t21 -49z" />
    <glyph glyph-name="Epsilontonos" unicode="&#x388;" horiz-adv-x="678" 
d="M15 0zM301 603v-171h214q23 0 40.5 -16t17.5 -39t-17.5 -40t-40.5 -17h-214v-198h250q26 0 44 -18.5t18 -42.5q0 -25 -18 -43t-44 -18h-312q-25 0 -43.5 18t-18.5 43v602q0 25 18.5 43t43.5 18h312q26 0 44 -18t18 -43q0 -24 -18 -42t-44 -18h-250zM52 760q6 25 18 36
t29 11q23 0 38 -11t15 -34q0 -12 -4 -24l-45 -139q-13 -40 -49 -40q-17 0 -28 12t-11 32v8t2 9z" />
    <glyph glyph-name="Etatonos" unicode="&#x389;" horiz-adv-x="775" 
d="M15 0zM685 56q0 -24 -18.5 -42t-42.5 -18q-26 0 -44.5 18t-18.5 42v265h-260v-265q0 -24 -18.5 -42t-43.5 -18q-24 0 -43 18t-19 42v613q0 24 19 42t43 18q25 0 43.5 -18t18.5 -42v-233h260v233q0 24 18.5 42t44.5 18q24 0 42.5 -18t18.5 -42v-613zM52 760q6 25 18 36
t29 11q23 0 38 -11t15 -34q0 -12 -4 -24l-45 -139q-13 -40 -49 -40q-17 0 -28 12t-11 32v8t2 9z" />
    <glyph glyph-name="Iotatonos" unicode="&#x38a;" horiz-adv-x="392" 
d="M15 0zM301 56q0 -24 -18 -42t-43 -18q-26 0 -44.5 18t-18.5 42v613q0 24 18.5 42t44.5 18q25 0 43 -18t18 -42v-613zM52 760q6 25 18 36t29 11q23 0 38 -11t15 -34q0 -12 -4 -24l-45 -139q-13 -40 -49 -40q-17 0 -28 12t-11 32v8t2 9z" />
    <glyph glyph-name="Omicrontonos" unicode="&#x38c;" horiz-adv-x="804" 
d="M15 0zM436 736q67 0 122.5 -25.5t95.5 -74t62 -118t22 -156.5q0 -88 -22 -157.5t-61.5 -117.5t-95.5 -73.5t-123 -25.5q-68 0 -124 25.5t-95.5 73.5t-61.5 117.5t-22 157.5q0 87 22 156.5t61.5 118t95.5 74t124 25.5zM436 614q-44 0 -77 -18.5t-56 -52t-34.5 -80
t-11.5 -102.5t11.5 -102.5t34.5 -79.5t56 -51.5t77 -18.5q43 0 76.5 18.5t56 51.5t34 79.5t11.5 102.5t-11.5 102.5t-34 80t-56 52t-76.5 18.5zM52 760q6 25 18 36t29 11q23 0 38 -11t15 -34q0 -12 -4 -24l-45 -139q-13 -40 -49 -40q-17 0 -28 12t-11 32v8t2 9z" />
    <glyph glyph-name="Upsilontonos" unicode="&#x38e;" horiz-adv-x="706" 
d="M15 0zM498 318v-262q0 -24 -19 -42t-44 -18q-24 0 -42.5 18t-18.5 42v260l-187 319q-11 16 -11 34q0 24 19 42t43 18q20 0 33.5 -9.5t21.5 -23.5l148 -266l147 266q7 14 19.5 23.5t32.5 9.5q23 0 41 -17t18 -40q0 -10 -4 -18l-7 -14zM52 760q6 25 18 36t29 11
q23 0 38 -11t15 -34q0 -12 -4 -24l-45 -139q-13 -40 -49 -40q-17 0 -28 12t-11 32v8t2 9z" />
    <glyph glyph-name="Omegatonos" unicode="&#x38f;" horiz-adv-x="804" 
d="M15 0zM394 61q0 -25 -18.5 -43t-43.5 -18h-168q-26 0 -44 18t-18 43q0 24 18 42.5t44 18.5h81q-29 34 -50.5 66.5t-36 67.5t-21.5 75.5t-7 90.5q0 75 16.5 133.5t53.5 98.5t95 61t141 21t141 -21t94.5 -61t53 -98.5t16.5 -133.5q0 -50 -7 -90.5t-21.5 -75.5t-36 -67.5
t-49.5 -66.5h81q25 0 43.5 -18.5t18.5 -42.5q0 -25 -18.5 -43t-43.5 -18h-168q-25 0 -43 18t-18 43q0 11 4 22t17 26q32 36 54.5 68.5t36.5 67t20.5 75t6.5 91.5q0 100 -44 151.5t-138 51.5t-138 -51.5t-44 -151.5q0 -51 6 -92t20 -76t36 -67.5t55 -66.5q14 -15 18.5 -26
t4.5 -22zM52 760q6 25 18 36t29 11q23 0 38 -11t15 -34q0 -12 -4 -24l-45 -139q-13 -40 -49 -40q-17 0 -28 12t-11 32v8t2 9z" />
    <glyph glyph-name="iotadieresistonos" unicode="&#x390;" horiz-adv-x="414" 
d="M1 0zM237 147q0 -33 8 -45.5t25 -12.5q15 0 25 10q5 5 11.5 8.5t17.5 3.5q19 0 35 -12t16 -37q0 -19 -9.5 -33t-26.5 -23q-16 -9 -37 -13t-45 -4q-72 0 -106 44.5t-34 120.5v277q0 29 14.5 50t45.5 21q26 0 43 -16.5t17 -40.5v-298zM176 760q6 25 18 36t29 11
q23 0 38 -11t15 -34q0 -12 -4 -24l-45 -139q-13 -40 -49 -40q-17 0 -28 12t-11 32v8t2 9zM274 672q0 26 18.5 44t46.5 18q27 0 45.5 -18t18.5 -44t-18.5 -43.5t-45.5 -17.5q-28 0 -46.5 17.5t-18.5 43.5zM1 672q0 26 18.5 44t46.5 18q27 0 45.5 -18t18.5 -44t-18.5 -43.5
t-45.5 -17.5q-28 0 -46.5 17.5t-18.5 43.5z" />
    <glyph glyph-name="Alpha" unicode="&#x391;" horiz-adv-x="563" 
d="M8 0zM550 81q4 -13 4 -25q0 -23 -15.5 -41.5t-44.5 -18.5q-23 0 -39 12t-21 29l-38 115h-235l-38 -117q-5 -17 -19.5 -28t-36.5 -11q-27 0 -43 17t-16 40q0 7 1.5 12.5t3.5 13.5l210 610q6 17 22.5 28.5t36.5 11.5t36.5 -11.5t22.5 -28.5zM194 260h169l-85 255z" />
    <glyph glyph-name="Beta" unicode="&#x392;" horiz-adv-x="618" 
d="M88 0zM311 724q46 0 84.5 -11.5t66.5 -34t43.5 -56t15.5 -77.5q0 -59 -26.5 -97t-71.5 -57q27 -7 51 -20t42 -35t29 -52.5t11 -71.5q0 -44 -13.5 -83t-40.5 -67.5t-67 -45t-93 -16.5h-192q-25 0 -43.5 18t-18.5 43v602q0 25 18.5 43t43.5 18h161zM212 330v-208h92
q28 0 51 5t39.5 17t26 32t9.5 50q0 31 -9.5 51t-27.5 32t-43 16.5t-56 4.5h-82zM212 606v-175h85q48 0 73.5 21t25.5 69q0 49 -26.5 67t-74.5 18h-83z" />
    <glyph glyph-name="Gamma" unicode="&#x393;" horiz-adv-x="547" 
d="M96 0zM220 54q0 -24 -18.5 -41.5t-43.5 -17.5t-43.5 17.5t-18.5 41.5v609q0 26 18.5 43.5t43.5 17.5h299q26 0 44.5 -17.5t18.5 -43.5q0 -25 -18.5 -43t-44.5 -18h-237v-548z" />
    <glyph glyph-name="Delta" unicode="&#x394;" horiz-adv-x="563" 
d="M551 85q2 -6 3 -12.5t1 -11.5q0 -26 -18.5 -43.5t-43.5 -17.5h-426q-23 0 -40.5 17.5t-17.5 40.5q0 10 5 25l209 606q5 16 20 28t38 12t38.5 -11.5t21.5 -28.5zM150 122h258l-130 390z" />
    <glyph glyph-name="Epsilon" unicode="&#x395;" horiz-adv-x="588" 
d="M88 0zM212 603v-171h214q23 0 40.5 -16t17.5 -39t-17.5 -40t-40.5 -17h-214v-198h250q26 0 44 -18.5t18 -42.5q0 -25 -18 -43t-44 -18h-312q-25 0 -43.5 18t-18.5 43v602q0 25 18.5 43t43.5 18h312q26 0 44 -18t18 -43q0 -24 -18 -42t-44 -18h-250z" />
    <glyph glyph-name="Zeta" unicode="&#x396;" horiz-adv-x="562" 
d="M37 0zM205 122h257q26 0 44 -18.5t18 -42.5q0 -25 -18 -43t-44 -18h-360q-25 0 -43.5 18t-18.5 43q0 11 4 20t9 17l295 505h-249q-25 0 -43.5 18t-18.5 42q0 25 18.5 43t43.5 18h350q26 0 44 -18t18 -43q0 -17 -10 -34z" />
    <glyph glyph-name="Eta" unicode="&#x397;" horiz-adv-x="686" 
d="M88 0zM596 56q0 -24 -18.5 -42t-42.5 -18q-26 0 -44.5 18t-18.5 42v265h-260v-265q0 -24 -18.5 -42t-43.5 -18q-24 0 -43 18t-19 42v613q0 24 19 42t43 18q25 0 43.5 -18t18.5 -42v-233h260v233q0 24 18.5 42t44.5 18q24 0 42.5 -18t18.5 -42v-613z" />
    <glyph glyph-name="Theta" unicode="&#x398;" horiz-adv-x="735" 
d="M456 433q24 0 41.5 -17t17.5 -40t-17.5 -39.5t-41.5 -16.5h-180q-24 0 -41 16.5t-17 39.5t17 40t41 17h180zM367 736q67 0 122.5 -25.5t95.5 -74t62 -118t22 -156.5q0 -88 -22 -157.5t-61.5 -117.5t-95.5 -73.5t-123 -25.5q-68 0 -124 25.5t-95.5 73.5t-61.5 117.5
t-22 157.5q0 87 22 156.5t61.5 118t95.5 74t124 25.5zM367 614q-44 0 -77 -18.5t-56 -52t-34.5 -80t-11.5 -102.5t11.5 -102.5t34.5 -79.5t56 -51.5t77 -18.5q43 0 76.5 18.5t56 51.5t34 79.5t11.5 102.5t-11.5 102.5t-34 80t-56 52t-76.5 18.5z" />
    <glyph glyph-name="Iota" unicode="&#x399;" horiz-adv-x="303" 
d="M88 0zM212 56q0 -24 -18 -42t-43 -18q-26 0 -44.5 18t-18.5 42v613q0 24 18.5 42t44.5 18q25 0 43 -18t18 -42v-613z" />
    <glyph glyph-name="Kappa" unicode="&#x39a;" horiz-adv-x="572" 
d="M89 0zM370 385l181 -293q11 -17 11 -34q0 -25 -19.5 -43.5t-45.5 -18.5q-17 0 -31.5 7.5t-25.5 24.5l-176 300h-51v-272q0 -24 -18 -42t-44 -18q-25 0 -43.5 18t-18.5 42v613q0 24 18.5 42t43.5 18q26 0 44 -18t18 -42v-244h60l163 277q15 27 49 27q21 0 38.5 -15
t17.5 -40q0 -14 -9 -30z" />
    <glyph glyph-name="Lambda" unicode="&#x39b;" horiz-adv-x="561" 
d="M220 689q5 17 22 28.5t37 11.5t36 -11.5t23 -28.5l210 -608q4 -13 4 -25q0 -24 -18.5 -42t-43.5 -18q-20 0 -36.5 11.5t-21.5 29.5l-156 475l-157 -477q-5 -17 -21 -28t-34 -11q-23 0 -40.5 17t-17.5 40q0 10 5 25z" />
    <glyph glyph-name="Mu" unicode="&#x39c;" horiz-adv-x="860" 
d="M92 0zM769 53q1 -23 -16.5 -40t-41.5 -17q-23 0 -41 16.5t-18 39.5l-4 417l-160 -436q-6 -17 -21.5 -27t-35.5 -10t-35.5 10t-22.5 27l-158 436l-5 -417q0 -23 -17.5 -39.5t-40.5 -16.5t-41.5 17t-17.5 40l13 615q1 31 22 46t49 15q23 0 41.5 -11t26.5 -31l188 -487
l189 487q8 20 24.5 31t39.5 11q28 0 49 -15t22 -46z" />
    <glyph glyph-name="Nu" unicode="&#x39d;" horiz-adv-x="709" 
d="M88 0zM619 56q0 -25 -18 -42.5t-47 -17.5q-20 0 -34 9.5t-22 20.5l-292 454v-427q0 -23 -17.5 -40t-41.5 -17t-41.5 17t-17.5 40v617q0 24 18 41.5t47 17.5q20 0 33.5 -9.5t21.5 -20.5l292 -453v426q0 23 18 40t41 17q24 0 42 -17t18 -40v-616z" />
    <glyph glyph-name="Xi" unicode="&#x39e;" horiz-adv-x="588" 
d="M464 122q25 0 43.5 -18.5t18.5 -43.5q0 -24 -18.5 -42t-43.5 -18h-339q-26 0 -44.5 18t-18.5 42q0 25 19 43.5t44 18.5h339zM464 724q25 0 43.5 -18t18.5 -42q0 -25 -18.5 -43t-43.5 -18h-339q-26 0 -44.5 18t-18.5 43q0 24 18.5 42t44.5 18h339zM427 433q24 0 41 -17
t17 -40t-17 -39.5t-41 -16.5h-266q-24 0 -41 16.5t-17 39.5t17 40t41 17h266z" />
    <glyph glyph-name="Omicron" unicode="&#x39f;" horiz-adv-x="735" 
d="M64 0zM367 736q67 0 122.5 -25.5t95.5 -74t62 -118t22 -156.5q0 -88 -22 -157.5t-61.5 -117.5t-95.5 -73.5t-123 -25.5q-68 0 -124 25.5t-95.5 73.5t-61.5 117.5t-22 157.5q0 87 22 156.5t61.5 118t95.5 74t124 25.5zM367 614q-44 0 -77 -18.5t-56 -52t-34.5 -80
t-11.5 -102.5t11.5 -102.5t34.5 -79.5t56 -51.5t77 -18.5q43 0 76.5 18.5t56 51.5t34 79.5t11.5 102.5t-11.5 102.5t-34 80t-56 52t-76.5 18.5z" />
    <glyph glyph-name="Pi" unicode="&#x3a0;" horiz-adv-x="676" 
d="M89 0zM587 55q0 -24 -18.5 -41.5t-43.5 -17.5t-43.5 17.5t-18.5 41.5v554h-250v-554q0 -24 -18 -41.5t-43 -17.5t-44 17.5t-19 41.5v609q0 24 18.5 42t44.5 18h374q24 0 42.5 -18t18.5 -42v-609z" />
    <glyph glyph-name="Rho" unicode="&#x3a1;" horiz-adv-x="568" 
d="M96 0zM264 724q56 0 106 -9t88 -33.5t60.5 -67t22.5 -109.5q0 -62 -20.5 -104.5t-55.5 -68.5t-80.5 -37t-94.5 -11h-70v-228q0 -24 -18.5 -42t-43.5 -18t-43.5 18t-18.5 42v607q0 25 18.5 43t43.5 18h106zM220 602v-201h86q23 0 43.5 5.5t35.5 17.5t23.5 31.5t8.5 47.5
q0 53 -32 76t-79 23h-86z" />
    <glyph glyph-name="Sigma" unicode="&#x3a3;" horiz-adv-x="594" 
d="M76 629q-10 14 -10 35t16.5 40.5t45.5 19.5h342q23 0 42.5 -15t19.5 -46q0 -32 -19 -46t-43 -14h-235l138 -193q5 -8 9 -17t4 -20t-4 -20t-9 -17l-142 -215h238q26 0 44.5 -15t18.5 -46q0 -32 -19 -46t-44 -14h-328q-37 0 -58.5 14.5t-21.5 44.5q0 11 2.5 19t7.5 16
l185 279z" />
    <glyph glyph-name="Tau" unicode="&#x3a4;" horiz-adv-x="561" 
d="M13 0zM342 603v-547q0 -24 -18.5 -42t-43.5 -18t-43.5 18t-18.5 42v547h-142q-26 0 -44.5 18t-18.5 42q0 25 18.5 43t44.5 18h409q25 0 43.5 -18t18.5 -43q0 -24 -18.5 -42t-43.5 -18h-143z" />
    <glyph glyph-name="Upsilon" unicode="&#x3a5;" horiz-adv-x="537" 
d="M7 0zM329 318v-262q0 -24 -19 -42t-44 -18q-24 0 -42.5 18t-18.5 42v260l-187 319q-11 16 -11 34q0 24 19 42t43 18q20 0 33.5 -9.5t21.5 -23.5l148 -266l147 266q7 14 19.5 23.5t32.5 9.5q23 0 41 -17t18 -40q0 -10 -4 -18l-7 -14z" />
    <glyph glyph-name="Phi" unicode="&#x3a6;" horiz-adv-x="722" 
d="M59 0zM424 631q52 -8 96 -29.5t75.5 -56t49.5 -81t18 -103.5t-17.5 -103.5t-49 -81t-75.5 -56.5t-97 -29v-36q0 -24 -19 -41.5t-43 -17.5q-25 0 -44 17.5t-19 41.5v36q-55 7 -99 29.5t-75.5 57t-48.5 81t-17 103.5t17 103t48.5 80.5t75.5 56t99 29.5v38q0 25 19 42.5
t44 17.5q24 0 43 -17.5t19 -42.5v-38zM545 361q0 63 -30.5 106t-90.5 57v-326q60 14 90.5 57t30.5 106zM177 361q0 -63 31 -106t91 -57v327q-60 -14 -91 -57.5t-31 -106.5z" />
    </font>
</defs>
</svg>
