<?xml version="1.0" standalone="no"?>
<!DOCTYPE svg PUBLIC "-//W3C//DTD SVG 1.1//EN" "http://www.w3.org/Graphics/SVG/1.1/DTD/svg11.dtd" >
<svg xmlns="http://www.w3.org/2000/svg" xmlns:xlink="http://www.w3.org/1999/xlink" version="1.1">
<metadata>
Created by FontForge 20170731 at Mon Jun  6 04:24:26 2016
 By Aleksey,,,
(c) 2008-2016 Typodermic Fonts Inc.
</metadata>
<defs>
<font id="SchemeRg-Bold" horiz-adv-x="593" >
  <font-face 
    font-family="Scheme Rg"
    font-weight="700"
    font-stretch="normal"
    units-per-em="1000"
    panose-1="2 15 8 3 3 0 0 2 0 3"
    ascent="777"
    descent="-223"
    x-height="498"
    cap-height="724"
    bbox="-467 -233 1223 1106"
    underline-thickness="50"
    underline-position="-150"
    unicode-range="U+0017-FB02"
  />
<missing-glyph horiz-adv-x="576" 
d="M505 724q11 0 20 -8.5t9 -20.5v-666q0 -12 -9 -20.5t-20 -8.5h-451q-12 0 -20.5 8.5t-8.5 20.5v666q0 12 8.5 20.5t20.5 8.5h451zM83 58h393v608h-393v-608zM282 389l74 73q2 4 6 5.5t7 1.5q9 0 14.5 -6t5.5 -14q0 -7 -5 -15l-75 -73l76 -74q4 -7 4 -15q0 -19 -19 -19
q-10 0 -14 6l-74 74l-75 -74q-5 -6 -14 -6q-19 0 -19 19q0 7 6 15l73 74l-73 73q-6 6 -6 15q0 8 5.5 14t13.5 6q9 0 15 -7z" />
    <glyph glyph-name=".notdef" horiz-adv-x="576" 
d="M505 724q11 0 20 -8.5t9 -20.5v-666q0 -12 -9 -20.5t-20 -8.5h-451q-12 0 -20.5 8.5t-8.5 20.5v666q0 12 8.5 20.5t20.5 8.5h451zM83 58h393v608h-393v-608zM282 389l74 73q2 4 6 5.5t7 1.5q9 0 14.5 -6t5.5 -14q0 -7 -5 -15l-75 -73l76 -74q4 -7 4 -15q0 -19 -19 -19
q-10 0 -14 6l-74 74l-75 -74q-5 -6 -14 -6q-19 0 -19 19q0 7 6 15l73 74l-73 73q-6 6 -6 15q0 8 5.5 14t13.5 6q9 0 15 -7z" />
    <glyph glyph-name=".null" horiz-adv-x="0" 
 />
    <glyph glyph-name="nonmarkingreturn" horiz-adv-x="222" 
 />
    <glyph glyph-name="uni0017" horiz-adv-x="222" 
 />
    <glyph glyph-name="space" unicode=" " horiz-adv-x="222" 
 />
    <glyph glyph-name="exclam" unicode="!" horiz-adv-x="458" 
d="M301 269q-1 -27 -21.5 -46.5t-49.5 -19.5t-49.5 19.5t-21.5 46.5l-11 395q0 33 23.5 56t58.5 23t58.5 -23t23.5 -56zM144 73q0 17 7 32t18.5 26.5t27 18t33.5 6.5t33.5 -6.5t27.5 -18t19 -26.5t7 -32t-7 -32t-19 -26t-27.5 -17.5t-33.5 -6.5t-33.5 6.5t-27 17.5t-18.5 26
t-7 32z" />
    <glyph glyph-name="quotedbl" unicode="&#x22;" horiz-adv-x="414" 
d="M230 686q0 27 21 47t48 20t48 -20t21 -47l-4 -133q-1 -23 -20 -41.5t-45 -18.5t-45 18.5t-20 41.5zM42 686q0 27 21.5 47t48.5 20t48 -20t21 -47l-4 -133q-1 -23 -20 -41.5t-45 -18.5t-45 18.5t-20 41.5z" />
    <glyph glyph-name="numbersign" unicode="#" horiz-adv-x="548" 
d="M151 498l25 175q3 22 17.5 31.5t30.5 9.5q20 0 35.5 -13.5t15.5 -36.5l-25 -166h87l25 175q3 21 17.5 31t31.5 10q20 0 35 -13.5t15 -36.5l-23 -166h33q25 0 37.5 -14.5t12.5 -32.5q0 -19 -12.5 -34t-37.5 -15h-47l-14 -88h38q25 0 37.5 -14t12.5 -32t-12.5 -33.5
t-37.5 -15.5h-50l-27 -183q-3 -21 -17.5 -30.5t-30.5 -9.5q-19 0 -34.5 13t-15.5 39l25 171h-86l-27 -183q-3 -21 -17.5 -30.5t-30.5 -9.5q-19 0 -34.5 13t-15.5 39l25 171h-34q-26 0 -38.5 15.5t-12.5 33.5t12.5 32t38.5 14h45l15 88h-39q-25 0 -37 15t-12 34q0 18 12 32.5
t37 14.5h52zM223 314h86l15 88h-86z" />
    <glyph glyph-name="dollar" unicode="$" 
d="M246 658q0 23 17 39.5t40 16.5t40 -16.5t17 -39.5v-41q35 -11 58.5 -30t40.5 -50q3 -5 7.5 -16t4.5 -23q0 -18 -14.5 -34.5t-46.5 -16.5q-24 0 -33.5 10.5t-17.5 28.5t-23 24t-35 6q-29 0 -46.5 -10.5t-17.5 -30.5q0 -24 23 -34.5t58 -20.5q27 -8 56 -18.5t53 -29
t39.5 -47t15.5 -73.5q0 -63 -31 -102.5t-91 -55.5v-43q0 -22 -17 -38.5t-40 -16.5t-40 16.5t-17 38.5v39q-34 5 -64 24.5t-48 44.5q-8 11 -15.5 27.5t-7.5 32.5q0 23 16 39t43 16q21 0 31.5 -10t18.5 -26q11 -20 26.5 -33t47.5 -13t53 14.5t21 40.5q0 15 -7.5 25.5t-19.5 18
t-28 12.5t-33 10q-28 8 -55.5 18t-50 27.5t-36.5 43.5t-14 66q0 63 34.5 100t87.5 50v40z" />
    <glyph glyph-name="percent" unicode="%" horiz-adv-x="826" 
d="M208 714q37 0 67 -14.5t50.5 -40t31.5 -60.5t11 -76t-11 -76t-31.5 -60.5t-50.5 -40t-67 -14.5q-38 0 -68 14.5t-51 40t-32 60.5t-11 76t11 76t32 60.5t51 40t68 14.5zM207 612q-29 0 -42 -27t-13 -62q0 -36 13.5 -63t41.5 -27t41.5 26.5t13.5 63.5q0 36 -13 62.5
t-42 26.5zM621 371q38 0 68 -14.5t50.5 -40t31.5 -60.5t11 -76t-11 -76t-31.5 -61t-50.5 -40.5t-68 -14.5t-68 14.5t-51 40.5t-32 61t-11 76t11 76t31.5 60.5t50.5 40t69 14.5zM621 270q-29 0 -42 -27.5t-13 -62.5q0 -36 13.5 -63t41.5 -27t41.5 26.5t13.5 63.5q0 36 -13 63
t-42 27zM281 22q-8 -15 -20.5 -20.5t-25.5 -5.5q-22 0 -36.5 13.5t-14.5 36.5q0 7 1.5 12.5t3.5 12.5l354 616q8 16 21 21.5t24 5.5q20 0 37 -14t17 -36q0 -12 -7 -25z" />
    <glyph glyph-name="ampersand" unicode="&#x26;" horiz-adv-x="588" 
d="M167 406q-32 48 -44 89t-12 73q0 39 13 70t36 52t53 32.5t65 11.5q33 0 63 -10.5t53 -30.5t36.5 -49.5t13.5 -67.5q0 -56 -30 -99.5t-84 -89.5q18 -28 38.5 -55.5t40.5 -53.5q4 15 6.5 26t4 21t2 19.5t0.5 20.5q1 28 22 51t54 23q11 0 24.5 -4t25 -13.5t19 -26.5t7.5 -44
q0 -17 -3.5 -41t-10.5 -50.5t-17.5 -54t-24.5 -51.5q9 -8 17 -14l16 -12q16 -9 24.5 -25.5t8.5 -33.5q0 -29 -22 -51t-54 -22q-13 0 -24.5 4t-20.5 10q-4 3 -10 7t-12 8.5t-11 8.5t-6 6q-32 -23 -67.5 -37t-86.5 -14q-50 0 -90.5 14.5t-69 41.5t-44 65t-15.5 86q0 68 31 117
t85 93zM231 296q-16 -18 -24 -41.5t-8 -43.5q0 -38 24 -58t51 -20q15 0 28.5 5.5t27.5 13.5q-23 29 -50 66.5t-49 77.5zM264 486q17 16 31 40t14 47q0 16 -7.5 25.5t-24.5 9.5q-34 0 -34 -41q0 -16 5 -37.5t16 -43.5z" />
    <glyph glyph-name="quotesingle" unicode="'" horiz-adv-x="227" 
d="M42 686q0 27 21.5 47t48.5 20t48 -20t21 -47l-4 -133q-1 -23 -20 -41.5t-45 -18.5t-45 18.5t-20 41.5z" />
    <glyph glyph-name="parenleft" unicode="(" horiz-adv-x="309" 
d="M169 729q16 27 47 27q21 0 36.5 -15.5t15.5 -36.5q0 -11 -5 -23t-10 -22q-31 -81 -48 -169t-17 -179t16.5 -173.5t44.5 -163.5q5 -12 12 -27.5t7 -30.5q0 -20 -15.5 -36t-36.5 -16q-14 0 -27.5 7.5t-19.5 19.5q-51 93 -75 200.5t-24 219.5q0 106 23 214.5t76 203.5z" />
    <glyph glyph-name="parenright" unicode=")" horiz-adv-x="310" 
d="M141 729q52 -94 75 -203.5t23 -214.5q0 -114 -25 -220t-73 -200q-8 -12 -20.5 -19.5t-27.5 -7.5q-21 0 -36.5 16t-15.5 36q0 15 7 30.5t12 27.5q28 81 44.5 163.5t16.5 173.5t-17 179t-48 169q-4 10 -9.5 22t-5.5 23q0 21 15.5 36.5t36.5 15.5q31 0 48 -27z" />
    <glyph glyph-name="asterisk" unicode="*" horiz-adv-x="444" 
d="M222 614l39 69q8 15 18 20t18 5q14 0 27.5 -11.5t13.5 -31.5q0 -5 -1.5 -10.5t-7.5 -13.5l-55 -64l78 -13q18 -3 25.5 -16t7.5 -25q0 -16 -10.5 -28t-28.5 -12q-11 0 -19 4l-73 30l9 -80q0 -22 -12.5 -32.5t-28.5 -10.5q-15 0 -27.5 10.5t-12.5 32.5l8 80l-72 -30
q-5 -2 -10.5 -3t-9.5 -1q-17 0 -27.5 12t-10.5 28q0 12 7.5 25t25.5 16l78 13l-55 64q-6 8 -7.5 13.5t-1.5 10.5q0 20 13.5 31.5t28.5 11.5q6 0 16 -4t19 -21z" />
    <glyph glyph-name="plus" unicode="+" 
d="M242 344v109q0 22 16 38.5t38 16.5t38 -16.5t16 -38.5v-109h108q23 0 39.5 -15.5t16.5 -37.5t-16.5 -38t-39.5 -16h-108v-109q0 -23 -16 -39.5t-38 -16.5t-38 16.5t-16 39.5v109h-109q-22 0 -38 16t-16 38t16 37.5t38 15.5h109z" />
    <glyph glyph-name="comma" unicode="," horiz-adv-x="348" 
d="M140 4q-29 11 -38.5 34t-9.5 41q0 29 20 53t62 24q37 0 59.5 -23t22.5 -72q0 -24 -6.5 -57t-19 -62.5t-31 -50t-42.5 -20.5q-30 0 -30 30q0 17 7.5 34t7.5 43q0 7 -0.5 13t-1.5 13z" />
    <glyph glyph-name="hyphen" unicode="-" horiz-adv-x="330" 
d="M246 346q29 0 51 -19.5t22 -54.5t-22 -52.5t-51 -17.5h-162q-29 0 -50.5 19t-21.5 53t21.5 53t50.5 19h162z" />
    <glyph glyph-name="period" unicode="." horiz-adv-x="357" 
d="M92 73q0 17 7 32t18.5 26.5t27 18t33.5 6.5q36 0 61.5 -24t25.5 -59q0 -34 -25.5 -58t-61.5 -24q-18 0 -33.5 6.5t-27 17.5t-18.5 26t-7 32z" />
    <glyph glyph-name="slash" unicode="/" horiz-adv-x="338" 
d="M84 -58q-6 -16 -19 -27t-32 -11q-22 0 -38.5 16t-16.5 37q0 10 5 23l270 731q6 15 19 26.5t33 11.5q22 0 38.5 -16t16.5 -37q0 -6 -2 -11.5t-4 -13.5z" />
    <glyph glyph-name="zero" unicode="0" 
d="M296 557q-44 0 -61.5 -48.5t-17.5 -158.5t17.5 -158t61.5 -48q43 0 60.5 47.5t17.5 157.5q0 113 -17.5 160.5t-60.5 47.5zM296 712q125 0 183 -91.5t58 -270.5t-58 -270t-183 -91q-126 0 -183 91.5t-57 269.5q0 177 57.5 269.5t182.5 92.5z" />
    <glyph glyph-name="one" unicode="1" 
d="M389 71q0 -29 -23 -52t-58 -23q-34 0 -56.5 22.5t-22.5 52.5v401l-8 -3q-8 -5 -21 -7t-21 -2q-32 0 -54 23t-22 55q0 28 16.5 43.5t39.5 26.5q14 7 24 12.5t18.5 12.5t16 15.5t16.5 20.5q8 12 24.5 27.5t45.5 15.5q18 0 33.5 -6.5t27 -17.5t18 -25.5t6.5 -29.5v-562z" />
    <glyph glyph-name="two" unicode="2" 
d="M454 152q30 0 55 -18t25 -58q0 -20 -7 -34.5t-18 -23.5t-25.5 -13.5t-29.5 -4.5h-316q-16 0 -30.5 6.5t-25.5 17t-17.5 24.5t-6.5 28q0 27 18 48q42 51 64.5 77.5t33.5 40t16 18.5t12 13t21 23.5t44 50.5q35 41 59 77.5t24 74.5q0 29 -15 46.5t-44 17.5q-16 0 -26 -5.5
t-16 -14.5t-9.5 -20t-6.5 -21q-8 -28 -25.5 -47t-49.5 -19q-18 0 -33 6.5t-26 17t-17 25t-6 29.5q0 12 3 26t7 28q10 31 29.5 57.5t46 46t59.5 30t70 10.5q45 0 84.5 -15.5t69 -43.5t46.5 -67t17 -87q0 -59 -24.5 -106.5t-61.5 -95.5q-30 -39 -61.5 -73t-72.5 -72h166z" />
    <glyph glyph-name="three" unicode="3" 
d="M423 377q51 -25 77 -67t26 -99q0 -50 -19.5 -91t-52.5 -70t-76 -45t-91 -16q-70 0 -126 33.5t-83 91.5q-12 21 -12 45q0 34 23 58t61 24q43 0 67 -41q8 -13 15.5 -24.5t16.5 -19.5t21 -13t28 -5q32 0 51 21t19 63q0 28 -8.5 44t-22 24t-31 10.5t-36.5 4.5q-30 2 -50 18
t-20 50q0 33 19.5 50.5t51.5 19.5q12 0 26 1.5t26 8t20 19t8 35.5q0 32 -16 47.5t-42 15.5q-14 0 -24 -4t-17 -10.5t-11.5 -14t-8.5 -14.5q-26 -50 -71 -50q-16 0 -31 6t-27 17t-19 25.5t-7 32.5q0 26 14 54q26 51 79 75.5t112 24.5q42 0 82 -12.5t71.5 -37t51 -60.5
t19.5 -84q0 -50 -21.5 -84.5t-61.5 -56.5z" />
    <glyph glyph-name="four" unicode="4" 
d="M231 275h90v48q0 32 22 54.5t53 22.5q16 0 30 -6t24 -16t16 -23t6 -27v-53h15q24 0 43 -20t19 -46t-19 -46.5t-43 -20.5h-15v-74q0 -28 -19.5 -50t-52.5 -22q-16 0 -30.5 6t-25 16t-17 23t-6.5 27v74h-201q-37 0 -57 22t-20 51q0 11 3 21.5t8 23.5l203 414q8 18 27 28
t39 10q15 0 29 -6t24.5 -16t16.5 -23t6 -28q0 -10 -2.5 -19.5t-6.5 -17.5z" />
    <glyph glyph-name="five" unicode="5" 
d="M236 464q19 13 44.5 18.5t49.5 5.5q46 0 82 -18t61 -49.5t38 -74.5t13 -92q0 -53 -15.5 -101t-46 -84.5t-76.5 -58t-107 -21.5q-56 0 -105 21.5t-84 74.5q-7 8 -14.5 23.5t-7.5 38.5q0 40 25 58.5t56 18.5q27 0 42 -11.5t27 -29.5q9 -14 23.5 -27.5t45.5 -13.5
q78 0 78 112q0 59 -20 82t-52 23q-14 0 -29.5 -5.5t-25.5 -24.5q-11 -19 -29 -32.5t-43 -13.5q-32 0 -55 22.5t-23 53.5l13 275q1 15 7.5 28t17.5 23.5t25.5 16.5t31.5 6q11 0 40 -2t89 -2q29 0 47.5 0.5t30.5 1.5t19 1.5t13 0.5q36 0 60 -24t24 -57q0 -14 -5.5 -27
t-18.5 -23.5t-35 -17t-56 -6.5q-12 0 -31 1t-40.5 2.5t-42.5 4t-37 5.5z" />
    <glyph glyph-name="six" unicode="6" 
d="M215 379q17 39 52 59t81 20q37 0 70.5 -13.5t58.5 -41.5t39.5 -70.5t14.5 -100.5q0 -120 -61 -181.5t-166 -61.5q-122 0 -182 84.5t-60 250.5q0 31 3 72t12.5 84t27 84.5t47 74.5t72 53t102.5 20q58 0 94 -17.5t56 -40.5q14 -15 23.5 -35t9.5 -44q0 -30 -18 -52t-55 -22
q-32 0 -47 13.5t-23 24.5q-9 12 -22.5 21.5t-35.5 9.5q-26 0 -43.5 -15.5t-28 -42t-15.5 -61t-6 -72.5zM307 323q-32 0 -55 -20.5t-23 -70.5q0 -44 19.5 -67t54.5 -23q30 0 49 20.5t19 73.5q0 49 -17 68t-47 19z" />
    <glyph glyph-name="seven" unicode="7" 
d="M447 708q15 0 30 -4.5t27 -14t20 -24t8 -34.5q0 -17 -6 -29t-17 -30q-15 -23 -32.5 -63t-35.5 -88.5t-37 -102.5t-36 -105t-32 -95.5t-26 -75.5q-8 -23 -27.5 -38t-51.5 -15q-36 0 -58 20t-22 58q0 7 1.5 17.5t9.5 35.5q8 27 25 76.5t41 109.5t53 124.5t62 122.5h-203
q-16 0 -30.5 6.5t-25.5 17.5t-17.5 25t-6.5 29t6.5 29t17.5 24.5t25.5 17t30.5 6.5h307z" />
    <glyph glyph-name="eight" unicode="8" 
d="M164 371q-38 20 -64.5 60.5t-26.5 94.5q0 44 18.5 78.5t49 58.5t70.5 36.5t84 12.5q43 0 83 -12.5t70.5 -36.5t49 -58.5t18.5 -77.5q0 -29 -8 -53t-20.5 -43.5t-29 -34t-33.5 -24.5q17 -10 36 -25t35 -37t26.5 -50t10.5 -63q0 -48 -19.5 -86.5t-52.5 -65.5t-76 -41.5
t-90 -14.5t-89.5 14.5t-75 41.5t-52 66t-19.5 89q0 66 31 109t74 62zM295 318q-16 -3 -31 -9.5t-26.5 -18.5t-18.5 -29t-7 -41q0 -44 22.5 -65.5t60.5 -21.5q37 0 61 21.5t24 66.5q0 48 -26 70.5t-59 26.5zM295 425q29 5 47 23t18 53q0 36 -18.5 51t-46.5 15t-46 -15
t-18 -50q0 -34 17 -52.5t47 -24.5z" />
    <glyph glyph-name="nine" unicode="9" 
d="M378 322q-17 -40 -52 -60t-81 -20q-38 0 -71 13.5t-58 41.5t-39.5 70.5t-14.5 100.5q0 120 61 182t167 62q121 0 181 -84t60 -260q0 -34 -3 -75.5t-12.5 -83.5t-27.5 -81.5t-47 -70.5t-71.5 -49.5t-101.5 -18.5q-56 0 -93.5 16t-57.5 42q-33 36 -33 78q0 31 18.5 53
t54.5 22q30 0 46 -14t24 -25q9 -12 22.5 -21.5t34.5 -9.5q27 0 44.5 16t28 42.5t15 61t6.5 72.5zM289 559q-31 0 -49.5 -20.5t-18.5 -73.5q0 -50 17.5 -68.5t47.5 -18.5q32 0 55 20t23 70q0 44 -19 67.5t-56 23.5z" />
    <glyph glyph-name="colon" unicode=":" horiz-adv-x="357" 
d="M92 79q0 17 7 32t18.5 26t27 17.5t33.5 6.5q36 0 61.5 -24t25.5 -58q0 -17 -7 -32.5t-18.5 -26.5t-27 -17.5t-33.5 -6.5q-36 0 -61.5 24t-25.5 59zM92 409q0 17 7 32t18.5 26t27 17.5t33.5 6.5q36 0 61.5 -24t25.5 -58q0 -17 -7 -32.5t-18.5 -26.5t-27 -17.5t-33.5 -6.5
q-36 0 -61.5 24t-25.5 59z" />
    <glyph glyph-name="semicolon" unicode=";" horiz-adv-x="318" 
d="M73 409q0 17 7 32t19 26t27.5 17.5t33.5 6.5t33.5 -6.5t27 -17.5t18.5 -26t7 -32t-7 -32.5t-18.5 -26.5t-27 -17.5t-33.5 -6.5t-33.5 6.5t-27.5 17.5t-19 26.5t-7 32.5zM120 4q-27 10 -37.5 32t-10.5 42q0 29 20 53.5t62 24.5q37 0 59.5 -22.5t22.5 -72.5q0 -25 -6 -57.5
t-18.5 -62t-31 -50t-42.5 -20.5q-15 0 -22.5 8t-7.5 22q0 17 7 34t7 43q0 7 -0.5 13t-1.5 13z" />
    <glyph glyph-name="less" unicode="&#x3c;" 
d="M411 501q6 4 13 5.5t13 1.5q23 0 38.5 -16t15.5 -37q0 -14 -8 -26t-20 -19l-209 -119l209 -119q16 -9 22 -21t6 -24q0 -23 -16 -38.5t-38 -15.5q-9 0 -15 2.5t-11 4.5l-279 164q-11 7 -21.5 19t-10.5 28q0 15 10.5 27t21.5 19z" />
    <glyph glyph-name="equal" unicode="=" 
d="M458 249q23 0 39.5 -16t16.5 -37t-16.5 -37t-39.5 -16h-325q-22 0 -38 16t-16 37t16 37t38 16h325zM458 439q23 0 39.5 -16t16.5 -38q0 -21 -16.5 -37t-39.5 -16h-325q-22 0 -38 16t-16 37q0 22 16 38t38 16h325z" />
    <glyph glyph-name="greater" unicode="&#x3e;" 
d="M459 337q12 -7 22 -19t10 -27q0 -16 -10 -28t-22 -19l-278 -164q-5 -2 -11 -4.5t-15 -2.5q-22 0 -38.5 16t-16.5 37q0 14 8 26t20 20l209 119l-209 119q-13 8 -20.5 20t-7.5 26q0 20 16.5 36t38.5 16q6 0 13 -1.5t13 -5.5z" />
    <glyph glyph-name="question" unicode="?" horiz-adv-x="548" 
d="M116 682q12 17 31.5 29.5t42 20.5t46.5 12t47 4q40 0 75.5 -12t62 -35t42 -56.5t15.5 -76.5q0 -27 -6 -50t-16 -41t-23 -33.5t-26.5 -31t-26.5 -32t-22 -37.5q-8 -18 -10.5 -34t-3.5 -36q-2 -29 -23.5 -49.5t-51.5 -20.5q-27 0 -49.5 22t-22.5 75q0 13 4 34.5t21 50.5
q9 15 20.5 30t23.5 30t23 29.5t18 26.5q19 33 19 63q0 44 -43 44q-18 0 -29.5 -8t-23.5 -19q-6 -5 -20.5 -13.5t-35.5 -8.5q-16 0 -30 6t-24.5 15.5t-16.5 22.5t-6 27t5.5 28t13.5 24zM185 73q0 34 25.5 58.5t61.5 24.5q18 0 33.5 -6.5t27 -17.5t18.5 -26t7 -32
q0 -35 -25.5 -59t-61.5 -24q-18 0 -33.5 6.5t-27 17.5t-18.5 26t-7 32z" />
    <glyph glyph-name="at" unicode="@" horiz-adv-x="741" 
d="M491 189q3 -7 12 -7q12 0 28.5 13t31 36t25 54.5t10.5 68.5q0 42 -15 77.5t-41 61t-61.5 39.5t-77.5 14q-53 0 -99 -22.5t-80.5 -63t-54 -97t-19.5 -124.5q0 -106 49.5 -168t143.5 -62q38 0 66.5 8.5t51.5 18.5q8 4 16 6t18 2q26 0 40 -14t14 -34q0 -26 -22 -44
t-54 -29.5t-69 -16.5t-67 -5q-71 0 -127 26t-94.5 71.5t-58.5 108t-20 135.5q0 91 29.5 166.5t80 130.5t116.5 85.5t140 30.5q67 0 121.5 -24.5t92.5 -65.5t59 -93.5t21 -108.5q0 -51 -17 -99.5t-46 -86t-68.5 -60t-84.5 -22.5q-9 0 -20.5 1.5t-22.5 6t-22 14t-18 24.5
q-33 -45 -81 -45q-45 0 -71.5 34t-26.5 97q0 33 8.5 72t27 73t47 56.5t68.5 22.5q49 0 70 -40q7 18 17 27.5t28 9.5q23 0 30.5 -13.5t7.5 -34.5v-5.5t-1 -8.5zM419 351q-12 14 -34 14q-20 0 -34 -12t-23 -31t-13 -41t-4 -43q0 -32 9 -41.5t25 -9.5q11 0 26 4t22 14z" />
    <glyph glyph-name="A" unicode="A" horiz-adv-x="573" 
d="M560 102q5 -15 5 -31q0 -30 -19.5 -52.5t-57.5 -22.5q-29 0 -47.5 14.5t-26.5 37.5l-28 85h-207l-28 -89q-6 -20 -24 -34t-47 -14q-35 0 -53.5 20.5t-18.5 49.5q0 15 6 32l199 581q7 20 25 35t48 15t49 -15t26 -35zM219 266h127l-64 196z" />
    <glyph glyph-name="B" unicode="B" horiz-adv-x="624" 
d="M316 724q47 0 87 -11.5t69 -34.5t45.5 -57.5t16.5 -80.5q0 -33 -8.5 -57.5t-22 -42.5t-31.5 -30t-36 -19q27 -7 50.5 -19.5t41.5 -33.5t28.5 -50.5t10.5 -70.5q0 -45 -14 -85t-41.5 -69t-69.5 -46t-97 -17h-181q-32 0 -55.5 22.5t-23.5 54.5v571q0 15 6.5 29t17 24.5
t25 16.5t30.5 6h152zM241 153h69q21 0 39 4t31.5 13.5t21 25t7.5 39.5q0 23 -8 39t-22 25.5t-33.5 13.5t-42.5 4h-62v-164zM241 441h62q75 0 75 70q0 35 -19 50t-58 15h-60v-135z" />
    <glyph glyph-name="C" unicode="C" horiz-adv-x="662" 
d="M359 734q43 0 81.5 -11t70 -29t55.5 -42.5t38 -51.5q15 -30 15 -50q0 -28 -22.5 -51t-56.5 -23q-18 0 -36 8.5t-30 28.5q-2 2 -6.5 11.5t-9.5 14.5q-39 43 -96 43q-36 0 -64 -16.5t-47 -46.5t-28.5 -71.5t-9.5 -90.5q0 -47 9 -86.5t27.5 -68t48 -45t70.5 -16.5
q21 0 44.5 9t46.5 46q11 18 27 35t47 17q36 0 58 -23.5t22 -50.5q0 -8 -2.5 -20.5t-7.5 -25.5q-12 -29 -37 -54.5t-58.5 -44.5t-73.5 -29.5t-82 -10.5q-66 0 -120 26.5t-93 75t-60.5 116.5t-21.5 151t21.5 152t61 119t95.5 77.5t124 27.5z" />
    <glyph glyph-name="D" unicode="D" horiz-adv-x="686" 
d="M296 724q76 0 137 -22t104 -67t66.5 -114t23.5 -163q0 -183 -87.5 -270.5t-243.5 -87.5h-134q-15 0 -29 6t-24.5 16.5t-17 24.5t-6.5 30v571q0 31 23 53.5t54 22.5h134zM241 153h12q60 0 101.5 7.5t67.5 29.5t37.5 62.5t11.5 106.5q0 65 -11.5 106t-36 64.5t-64 32.5
t-95.5 9h-23v-418z" />
    <glyph glyph-name="E" unicode="E" horiz-adv-x="598" 
d="M459 724q16 0 30.5 -6t25 -16.5t17 -24.5t6.5 -29t-6.5 -29t-17 -24.5t-25 -16.5t-30.5 -6h-218v-126h186q30 0 51.5 -21t21.5 -50t-21.5 -49.5t-51.5 -20.5h-186v-152h218q32 0 55.5 -23t23.5 -54q0 -15 -6.5 -29t-17 -24.5t-25 -16.5t-30.5 -6h-296q-32 0 -55 22.5
t-23 54.5v571q0 15 6 29t16.5 24.5t25 16.5t30.5 6h296z" />
    <glyph glyph-name="F" unicode="F" horiz-adv-x="585" 
d="M459 724q16 0 30.5 -6t25 -16.5t17 -24.5t6.5 -29t-6.5 -29t-17 -24.5t-25 -16.5t-30.5 -6h-218v-126h180q15 0 28 -5.5t23 -15.5t16 -22.5t6 -26.5q0 -29 -22 -50t-51 -21h-180v-234q0 -30 -23 -52.5t-54 -22.5q-16 0 -30.5 6t-25 16.5t-17 24t-6.5 28.5v577
q0 15 6.5 29t17 24.5t25 16.5t30.5 6h295z" />
    <glyph glyph-name="G" unicode="G" horiz-adv-x="708" 
d="M535 414q32 0 55 -22.5t23 -54.5v-266q-48 -42 -112 -62t-127 -20q-72 0 -130.5 25t-99 72t-62.5 115t-22 155q0 85 21 155t60.5 119.5t95.5 76.5t126 27q39 0 77 -9t70.5 -26.5t58.5 -44t42 -60.5q5 -11 8.5 -22.5t3.5 -22.5q0 -14 -6 -27t-16.5 -23t-25 -16.5
t-32.5 -6.5t-35.5 8.5t-29.5 28.5q-5 8 -13 20t-21 23t-32 18.5t-45 7.5q-38 0 -66 -17t-47 -47t-28.5 -71.5t-9.5 -90.5q0 -103 41 -161t123 -58q9 0 22.5 1t27 3t26 5t18.5 8v115h-73q-29 0 -51 22t-22 51q0 14 6 27t16 23t23 16t28 6h134z" />
    <glyph glyph-name="H" unicode="H" horiz-adv-x="690" 
d="M241 449h208v204q0 15 6.5 29t17 24.5t25 16.5t30.5 6q31 0 54 -22.5t23 -53.5v-582q0 -30 -23 -52.5t-54 -22.5q-16 0 -30.5 6t-25 16.5t-17 24t-6.5 28.5v235h-208v-235q0 -30 -23 -52.5t-54 -22.5q-16 0 -30 6t-25 16.5t-17.5 24t-6.5 28.5v582q0 15 6.5 29t17 24.5
t25 16.5t30.5 6q31 0 54 -22.5t23 -53.5v-204z" />
    <glyph glyph-name="I" unicode="I" horiz-adv-x="327" 
d="M242 71q0 -15 -6.5 -28.5t-17 -24t-25 -16.5t-29.5 -6t-29.5 6t-25.5 16.5t-17.5 24t-6.5 28.5v582q0 31 24 53.5t55 22.5t54.5 -22.5t23.5 -53.5v-582z" />
    <glyph glyph-name="J" unicode="J" horiz-adv-x="515" 
d="M433 267q0 -61 -15 -112t-44 -88t-71.5 -57.5t-98.5 -20.5q-54 0 -92.5 19t-67.5 54q-12 15 -22 34t-10 40q0 31 23.5 53t57.5 22q28 0 42.5 -14t25.5 -30q7 -10 16.5 -18t31.5 -8q31 0 49.5 25.5t18.5 93.5v394q0 15 6.5 28.5t17 24t24.5 16.5t30 6t30 -6t24.5 -16.5
t17 -24t6.5 -28.5v-387z" />
    <glyph glyph-name="K" unicode="K" horiz-adv-x="586" 
d="M241 436h33l151 259q10 17 25.5 25.5t33.5 8.5q29 0 51 -20t22 -49q0 -8 -2.5 -17.5t-8.5 -18.5l-151 -238l168 -270q14 -22 14 -42q0 -32 -21.5 -55t-59.5 -23q-19 0 -38 8.5t-33 31.5l-164 281h-20v-246q0 -30 -21 -52.5t-55 -22.5t-57 22.5t-23 52.5v582q0 31 22 53.5
t56 22.5t56 -22.5t22 -53.5v-217z" />
    <glyph glyph-name="L" unicode="L" horiz-adv-x="563" 
d="M251 153h206q16 0 30.5 -6.5t25 -17t17 -24.5t6.5 -29t-6.5 -29t-17 -24.5t-25 -16.5t-30.5 -6h-283q-32 0 -55.5 22.5t-23.5 54.5v577q0 15 6.5 28.5t17 24t24.5 16.5t30 6t30 -6t24.5 -16.5t17 -24t6.5 -28.5v-501z" />
    <glyph glyph-name="M" unicode="M" horiz-adv-x="861" 
d="M433 253l162 425q9 25 29.5 38t47.5 13q34 0 59.5 -18.5t26.5 -56.5l12 -588q0 -28 -21.5 -49t-51.5 -21q-28 0 -50.5 21t-22.5 49l-4 324l-117 -347q-7 -21 -24.5 -34t-48.5 -13q-30 0 -47.5 13.5t-24.5 33.5l-117 347l-4 -324q0 -14 -6 -26.5t-16.5 -22.5t-23.5 -15.5
t-28 -5.5t-28 5.5t-22.5 15.5t-15.5 22.5t-6 26.5l11 588q1 38 27 56.5t59 18.5q27 0 51 -13t33 -38z" />
    <glyph glyph-name="N" unicode="N" horiz-adv-x="712" 
d="M479 312v346q0 14 6 27t16 22.5t23 15.5t28 6q31 0 53 -21t22 -50v-587q0 -31 -23 -53t-58 -22q-26 0 -42.5 10.5t-26.5 26.5l-244 380v-346q0 -29 -22 -50t-52 -21t-52 21t-22 50v587q0 31 23 53t58 22q26 0 42 -10.5t27 -26.5z" />
    <glyph glyph-name="O" unicode="O" horiz-adv-x="738" 
d="M367 734q68 0 124.5 -25.5t97 -73.5t63 -117t22.5 -157q0 -87 -22 -156t-62.5 -117t-96.5 -73.5t-125 -25.5t-125 25.5t-96.5 73.5t-62.5 117t-22 156t22 156.5t62 117.5t96.5 73.5t124.5 25.5zM369 582q-37 0 -65 -16.5t-47 -45.5t-29 -69.5t-10 -89.5t10 -89.5
t29 -69.5t47 -45t65 -16q73 0 111 60.5t38 159.5q0 49 -9.5 90t-28.5 70t-47 45t-64 16z" />
    <glyph glyph-name="P" unicode="P" horiz-adv-x="579" 
d="M263 724q56 0 107 -9.5t90 -34.5t62 -68.5t23 -111.5q0 -66 -21 -110t-56.5 -70.5t-82 -38t-97.5 -11.5h-47v-199q0 -30 -21.5 -52.5t-55.5 -22.5q-35 0 -57 22.5t-22 52.5v577q0 15 6.5 29t17 24.5t25 16.5t30.5 6h99zM241 416h62q36 0 61 18t25 60t-24.5 59.5
t-61.5 17.5h-62v-155z" />
    <glyph glyph-name="Q" unicode="Q" horiz-adv-x="738" 
d="M668 35q10 -11 14 -24t4 -24q0 -15 -6.5 -29t-17.5 -24.5t-25.5 -17t-30.5 -6.5q-35 0 -60 30l-60 71q-54 -22 -118 -22q-69 0 -125 25.5t-96.5 73.5t-62.5 117t-22 156t22 156.5t62 117.5t96.5 73.5t124.5 25.5t124.5 -25.5t97 -73.5t63 -116.5t22.5 -155.5
q0 -76 -17.5 -139.5t-49.5 -111.5zM369 582q-37 0 -65 -16.5t-47 -45.5t-29 -69.5t-10 -89.5t10 -89.5t29 -69.5t47 -45t65 -16q73 0 111 60.5t38 159.5q0 49 -9.5 90t-28.5 70t-47 45t-64 16z" />
    <glyph glyph-name="R" unicode="R" horiz-adv-x="627" 
d="M262 724q56 0 107 -9t90 -33.5t62.5 -67.5t23.5 -112q0 -42 -9 -74.5t-24 -56t-34.5 -39.5t-41.5 -26l120 -196q11 -18 11 -39q0 -32 -24 -53.5t-56 -21.5q-20 0 -38 9t-29 29l-138 238h-41v-201q0 -15 -6.5 -28.5t-17 -24t-24.5 -16.5t-30 -6t-30 6t-24.5 16.5t-17 24
t-6.5 28.5v577q0 15 6 29t16.5 24.5t25 16.5t30.5 6h99zM241 410h61q36 0 61 18t25 62q0 43 -24.5 62t-60.5 19h-62v-161z" />
    <glyph glyph-name="S" unicode="S" horiz-adv-x="588" 
d="M70 517q0 50 17 90t47.5 68.5t73 43.5t92.5 15q24 0 49.5 -4t49 -12.5t44.5 -22.5t37 -33q11 -13 17.5 -25.5t11.5 -23.5q10 -26 10 -49q0 -34 -22 -57t-59 -23q-33 0 -47.5 18t-26.5 45q-11 23 -25.5 33.5t-37.5 10.5q-32 0 -53 -17.5t-21 -46.5q0 -32 24 -48t59 -29
q36 -13 75.5 -28t72.5 -40t54.5 -64t21.5 -100q0 -58 -20 -101t-53.5 -71.5t-77.5 -42.5t-92 -14q-72 0 -126 28.5t-85 80.5q-10 17 -18 37.5t-8 39.5q0 32 23 55t56 23q23 0 42.5 -13t30.5 -39q3 -8 8 -18t15 -19.5t25 -16t38 -6.5q35 0 60.5 17.5t25.5 52.5q0 17 -6.5 29
t-17.5 20t-25 13.5t-28 10.5q-30 11 -52.5 19.5t-39.5 16.5q-30 14 -55 32t-44 41.5t-29.5 54t-10.5 69.5z" />
    <glyph glyph-name="T" unicode="T" horiz-adv-x="571" 
d="M480 724q31 0 54.5 -22.5t23.5 -53.5t-23.5 -53.5t-54.5 -22.5h-117v-501q0 -30 -23 -52.5t-54 -22.5q-16 0 -30 6t-25 16.5t-17.5 24t-6.5 28.5v501h-116q-31 0 -54.5 22.5t-23.5 53.5t23.5 53.5t54.5 22.5h389z" />
    <glyph glyph-name="U" unicode="U" horiz-adv-x="674" 
d="M236 257q0 -55 26.5 -85.5t74.5 -30.5t74.5 30.5t26.5 85.5v397q0 30 22.5 52.5t54.5 22.5q16 0 30 -6t25 -16.5t17.5 -24t6.5 -28.5v-400q0 -60 -17 -108.5t-50 -83.5t-81.5 -54t-112.5 -19q-65 0 -112.5 20t-79 57.5t-46.5 91t-15 120.5v376q0 15 6.5 28.5t17 24
t24.5 16.5t30 6t30 -6t24.5 -16.5t17 -24t6.5 -28.5v-397z" />
    <glyph glyph-name="V" unicode="V" horiz-adv-x="573" 
d="M291 266l131 415q6 20 26 34t44 14q15 0 28 -6t23 -15.5t16 -22.5t6 -27q0 -15 -6 -31l-199 -580q-7 -21 -25.5 -36t-48.5 -15q-29 0 -48 15t-26 36l-199 576q-5 15 -5 31q0 15 6.5 28.5t17 24t24.5 16.5t30 6q25 0 45.5 -14.5t27.5 -36.5z" />
    <glyph glyph-name="W" unicode="W" horiz-adv-x="870" 
d="M251 293l105 377q17 59 78 59q30 0 52.5 -15t30.5 -45l108 -376l93 384q5 22 26 37t44 15q30 0 52 -21t22 -50v-9.5t-2 -11.5l-151 -579q-9 -33 -31 -47.5t-51 -14.5q-31 0 -50.5 13.5t-29.5 45.5l-116 386l-109 -385q-10 -32 -28 -46t-50 -14q-30 0 -51 14.5t-30 47.5
l-151 574q-2 8 -2.5 12.5t-0.5 9.5q0 15 6.5 28.5t17.5 24t25 16.5t30 6q25 0 47.5 -16.5t28.5 -39.5z" />
    <glyph glyph-name="X" unicode="X" horiz-adv-x="541" 
d="M275 511l106 184q18 34 61 34q27 0 49 -19.5t22 -49.5q0 -16 -11 -36l-150 -238l168 -270q8 -12 11 -21t3 -22q0 -15 -6.5 -29t-18 -24.5t-26.5 -17t-31 -6.5q-20 0 -39 9.5t-31 30.5l-118 206l-122 -210q-11 -19 -28 -27.5t-34 -8.5q-29 0 -51 20t-22 49q0 10 1 17t9 18
l169 268l-149 241q-13 19 -13 43q0 15 6.5 29t18 24.5t26 17t31.5 6.5q20 0 38.5 -9t30.5 -30z" />
    <glyph glyph-name="Y" unicode="Y" horiz-adv-x="548" 
d="M278 455l125 234q9 16 25 28t40 12q15 0 28 -6t23 -15.5t16 -22.5t6 -27q0 -13 -3.5 -22.5t-7.5 -16.5l-179 -305v-243q0 -15 -6.5 -28.5t-17.5 -24t-25.5 -16.5t-29.5 -6t-29.5 6t-25 16.5t-17 24t-6.5 28.5v242l-174 297q-13 22 -13 44q0 15 6.5 28.5t17.5 24t25 16.5
t30 6q24 0 41.5 -12t26.5 -29z" />
    <glyph glyph-name="Z" unicode="Z" horiz-adv-x="573" 
d="M446 724q38 0 58 -22.5t20 -53.5q0 -11 -4 -22t-9 -21l-265 -452h212q16 0 30.5 -6.5t25 -17t17 -24t6.5 -28.5q0 -32 -23.5 -54.5t-55.5 -22.5h-341q-39 0 -58.5 22.5t-19.5 54.5q0 13 5 24.5t10 20.5l264 450h-204q-16 0 -30.5 6t-25 16.5t-16.5 24.5t-6 29t6 29
t16.5 24.5t25 16.5t30.5 6h332z" />
    <glyph glyph-name="bracketleft" unicode="[" horiz-adv-x="332" 
d="M227 748q22 0 37.5 -15.5t15.5 -36.5q0 -20 -15.5 -35t-37.5 -15h-39v-682h39q22 0 37.5 -15t15.5 -35q0 -21 -15.5 -36.5t-37.5 -15.5h-96q-21 0 -36.5 15.5t-15.5 36.5v782q0 21 15.5 36.5t36.5 15.5h96z" />
    <glyph glyph-name="backslash" unicode="\" horiz-adv-x="298" 
d="M335 -20q5 -13 5 -23q0 -21 -16.5 -37t-37.5 -16q-19 0 -32 11t-19 27l-270 729q-2 8 -4 13.5t-2 11.5q0 21 16 37t38 16q20 0 33.5 -11.5t18.5 -26.5z" />
    <glyph glyph-name="bracketright" unicode="]" horiz-adv-x="332" 
d="M201 748q21 0 36.5 -15.5t15.5 -36.5v-782q0 -21 -15.5 -36.5t-36.5 -15.5h-95q-22 0 -38 15.5t-16 36.5q0 20 16 35t38 15h38v682h-38q-22 0 -38 15t-16 35q0 21 16 36.5t38 15.5h95z" />
    <glyph glyph-name="asciicircum" unicode="^" horiz-adv-x="596" 
d="M509 420q3 -5 5.5 -12t2.5 -13q0 -21 -16.5 -37t-38.5 -16q-14 0 -27 8t-20 20l-117 205l-117 -205q-6 -11 -20 -19.5t-28 -8.5q-22 0 -38 16t-16 37q0 15 7 25l163 279q7 11 19 20.5t30 9.5t30 -9.5t19 -20.5z" />
    <glyph glyph-name="underscore" unicode="_" horiz-adv-x="431" 
d="M402 -87q22 0 38.5 -16t16.5 -37t-16.5 -36.5t-38.5 -15.5h-373q-21 0 -37.5 15.5t-16.5 36.5t16.5 37t37.5 16h373z" />
    <glyph glyph-name="grave" unicode="`" horiz-adv-x="219" 
d="M188 654q19 -25 19 -47q0 -21 -14.5 -34t-33.5 -13q-9 0 -19 3.5t-18 12.5l-92 95q-11 11 -15 22t-4 22q0 23 15.5 39t40.5 16q14 0 27.5 -7t27.5 -24z" />
    <glyph glyph-name="a" unicode="a" horiz-adv-x="489" 
d="M268 340q0 40 -33 40q-18 0 -24.5 -9t-11.5 -22q-10 -22 -27.5 -34t-43.5 -12q-37 0 -53.5 22.5t-16.5 51.5q0 25 12 49t35.5 42t59 29t83.5 11q36 0 67.5 -8t54.5 -28t36 -54.5t13 -87.5v-201q0 -9 3 -16t6.5 -14.5t6.5 -15.5t3 -18q0 -28 -21.5 -48.5t-54.5 -20.5
q-21 0 -34 8t-21 19.5t-12.5 23t-7.5 18.5q-42 -76 -120 -76q-27 0 -50.5 8.5t-41 25t-28 41.5t-10.5 57q0 47 23 78q17 23 44 33t56 16.5l58 13t50 21.5v57zM272 215q-17 -13 -32.5 -21t-28.5 -15t-20.5 -15.5t-7.5 -21.5t7.5 -23.5t27.5 -10.5t33 10.5t21 25.5v71z" />
    <glyph glyph-name="b" unicode="b" horiz-adv-x="522" 
d="M211 453q41 55 113 55q48 0 78.5 -22.5t48 -59t23.5 -83t6 -93.5q0 -48 -6 -94.5t-23 -83.5t-47 -60t-78 -23q-37 0 -68.5 16t-54.5 54q-5 -28 -22 -45.5t-48 -17.5q-30 0 -47.5 17t-22.5 43q-2 11 -2.5 34t-0.5 56v538q0 30 22 51t54 21t53.5 -21t21.5 -51v-231z
M211 128q22 -13 47 -13q37 0 54 31t17 106q0 70 -16 100t-57 30q-10 0 -22 -2.5t-23 -10.5v-241z" />
    <glyph glyph-name="c" unicode="c" horiz-adv-x="496" 
d="M433 419q6 -10 11 -23t5 -28q0 -29 -19.5 -49.5t-51.5 -20.5q-17 0 -28.5 5.5t-19 13.5t-11.5 16t-6 14q-5 11 -17.5 22t-35.5 11q-14 0 -26.5 -6t-21.5 -21t-14.5 -40t-5.5 -62q0 -74 19 -103.5t48 -29.5q21 0 31 12t18 26t23.5 29.5t44.5 15.5q32 0 51 -20.5t19 -48.5
q0 -16 -5.5 -29.5t-10.5 -22.5q-23 -39 -68.5 -65t-105.5 -26q-48 0 -87.5 18.5t-67.5 53t-43.5 82.5t-15.5 107t15.5 107t44.5 81.5t70 51.5t91 18q59 0 103.5 -23.5t66.5 -65.5z" />
    <glyph glyph-name="d" unicode="d" horiz-adv-x="534" 
d="M467 147q0 -18 1.5 -30t3.5 -20t3.5 -15t1.5 -15q0 -31 -22 -51t-55 -20q-56 0 -73 58l-3 10q-21 -42 -54.5 -58.5t-70.5 -16.5q-49 0 -79.5 22.5t-48 59.5t-23.5 83.5t-6 93.5t6 93.5t23 83.5t47 60t77 23q37 0 68 -16t54 -51v243q0 30 21 51t53 21t54 -21t22 -51v-537z
M317 364q-13 10 -26.5 14t-26.5 4q-36 0 -53.5 -30.5t-17.5 -105.5q0 -70 16.5 -100.5t54.5 -30.5q13 0 26.5 3.5t26.5 11.5v234z" />
    <glyph glyph-name="e" unicode="e" horiz-adv-x="522" 
d="M198 226q3 -61 21 -84.5t46 -23.5q37 0 63 29q11 12 24 22.5t36 10.5q32 0 51 -21.5t19 -48.5q0 -32 -28 -61q-31 -32 -74.5 -46t-86.5 -14q-53 0 -94 18.5t-69.5 53t-43.5 82t-15 106.5q0 60 15.5 107.5t44 81.5t68.5 52t90 18q53 0 92.5 -19t65 -48.5t38 -63.5
t12.5 -64q0 -47 -26 -67t-59 -20h-190zM319 309q-5 42 -19.5 56.5t-37.5 14.5t-41 -15t-23 -56h121z" />
    <glyph glyph-name="f" unicode="f" horiz-adv-x="387" 
d="M97 498v88q0 78 39 124t117 46q25 0 49.5 -5t44 -16.5t32 -28.5t12.5 -41q0 -33 -20.5 -46.5t-41.5 -13.5q-11 0 -21.5 4t-16.5 14q-5 6 -11.5 8t-11.5 2q-8 0 -14 -6t-6 -20v-109h41q22 0 40.5 -17t18.5 -39q0 -23 -19 -39.5t-40 -16.5h-41v-319q0 -31 -21.5 -51
t-53.5 -20t-54 20t-22 51v319h-17q-23 0 -41 16.5t-18 39.5q0 22 18 39t41 17h17z" />
    <glyph glyph-name="g" unicode="g" horiz-adv-x="521" 
d="M461 8q0 -45 -13.5 -86.5t-39 -73.5t-63 -51.5t-86.5 -19.5q-17 0 -37 3t-39.5 9t-37.5 15.5t-33 23.5q-17 16 -25.5 34.5t-8.5 37.5q0 29 19 50t51 21q20 0 33 -7.5t23 -20.5q11 -14 23 -25.5t35 -11.5q28 0 42 21.5t14 72.5v97q-22 -35 -53 -50t-69 -15q-48 0 -78 21
t-47.5 55t-23.5 77.5t-6 88.5t6 87.5t23 75t46.5 52t76.5 19.5q38 0 69.5 -16t55.5 -54q3 32 24 48t47 16q27 0 45.5 -16t23.5 -45q2 -12 2.5 -35t0.5 -55v-343zM318 363q-25 19 -58 19q-34 0 -51 -22.5t-17 -86.5q0 -61 16.5 -88t55.5 -27q14 0 27 3.5t27 13.5v188z" />
    <glyph glyph-name="h" unicode="h" horiz-adv-x="548" 
d="M226 471q10 11 35 24t63 13q66 0 107 -50.5t41 -156.5v-154q0 -18 1.5 -30t3.5 -20.5t3.5 -15t1.5 -15.5q0 -30 -21.5 -50t-55.5 -20q-25 0 -41 12t-25.5 32t-13 47.5t-3.5 58.5v167q0 13 -2.5 27t-9.5 25t-19.5 18t-31.5 7q-11 0 -18.5 -2t-14.5 -4v-316q0 -30 -22 -51
t-54 -21t-54 21t-22 51v616q0 29 22 50.5t54 21.5t54 -21.5t22 -50.5v-213z" />
    <glyph glyph-name="i" unicode="i" horiz-adv-x="307" 
d="M70 0zM226 147q0 -18 1.5 -30t3.5 -20t3.5 -15t1.5 -15q0 -31 -22 -51t-55 -20q-56 0 -73 58q-5 18 -7.5 43t-2.5 49v283q0 31 21 52t53 21t54 -21t22 -52v-282zM70 663q0 32 22.5 54t57.5 22q34 0 56.5 -22t22.5 -54t-22.5 -54t-56.5 -22q-35 0 -57.5 22t-22.5 54z" />
    <glyph glyph-name="j" unicode="j" horiz-adv-x="330" 
d="M0 0zM254 -53q0 -78 -36.5 -124t-114.5 -46q-25 0 -49.5 5t-44 16.5t-32 28.5t-12.5 41q0 16 5.5 27.5t14.5 19t20 10.5t21 3q16 0 24.5 -5.5t14.5 -12.5q5 -6 11.5 -8t11.5 -2q12 0 14 7.5t2 18.5v504q0 32 22 52t54 20t53 -20t21 -52v-483zM100 663q0 32 22.5 54
t57.5 22q34 0 56.5 -22t22.5 -54t-22.5 -54t-56.5 -22q-35 0 -57.5 22t-22.5 54z" />
    <glyph glyph-name="k" unicode="k" horiz-adv-x="505" 
d="M230 292l104 171q10 16 25 27.5t36 11.5q28 0 48 -19.5t20 -45.5q0 -11 -3.5 -20.5t-8.5 -17.5l-91 -135l100 -149q8 -11 13 -21.5t5 -24.5q0 -30 -22 -51.5t-54 -21.5q-20 0 -38 9t-30 28l-104 165v-130q0 -30 -21.5 -51t-53.5 -21t-53.5 21t-21.5 51v616
q0 29 21.5 50.5t53.5 21.5t53.5 -21.5t21.5 -50.5v-392z" />
    <glyph glyph-name="l" unicode="l" horiz-adv-x="301" 
d="M226 147q0 -18 1.5 -30t3.5 -20t3.5 -15t1.5 -15q0 -31 -22 -51t-55 -20q-56 0 -73 58q-5 18 -7.5 43t-2.5 49v538q0 30 21 51t53 21t54 -21t22 -51v-537z" />
    <glyph glyph-name="m" unicode="m" horiz-adv-x="756" 
d="M211 68q0 -30 -21.5 -51t-53.5 -21t-54 21t-22 51v283q0 18 -1.5 29.5t-3.5 20t-3.5 15t-1.5 15.5q0 31 21.5 51t53.5 20q24 0 43 -12.5t28 -35.5q10 10 20 19.5t22.5 17t28 12.5t35.5 5q72 0 113 -70q23 29 52.5 49.5t68.5 20.5q29 0 55 -12.5t45.5 -38t31 -64.5
t11.5 -92v-154q0 -18 1.5 -30t3.5 -20t3.5 -15t1.5 -15q0 -31 -22 -51t-56 -20q-25 0 -41 12t-25 32t-12.5 47.5t-3.5 58.5v167q0 14 -2 27.5t-7.5 24.5t-15.5 18t-25 7q-7 0 -16.5 -2t-23.5 -8q6 -32 6 -69v-164q0 -18 1.5 -30t3.5 -20.5t3.5 -15t1.5 -15.5
q0 -30 -21.5 -50t-55.5 -20q-25 0 -41 12t-25.5 32t-13 47.5t-3.5 58.5v167q0 13 -2 27t-7.5 25t-15.5 18t-25 7q-8 0 -17.5 -2t-16.5 -4v-316z" />
    <glyph glyph-name="n" unicode="n" horiz-adv-x="535" 
d="M211 68q0 -30 -21.5 -51t-53.5 -21t-54 21t-22 51v283q0 18 -1.5 29.5t-3.5 20t-3.5 15t-1.5 15.5q0 31 21.5 51t53.5 20q24 0 43 -12.5t28 -35.5l14 14t23 18t33 15.5t44 6.5q69 0 108 -53.5t39 -153.5v-154q0 -19 1.5 -30.5t4 -20t4 -15t1.5 -15.5q0 -30 -22 -50
t-56 -20q-25 0 -41 12t-25.5 32t-13 47.5t-3.5 58.5v167q0 13 -2.5 26.5t-9 25t-19 18.5t-31.5 7q-11 0 -19 -2t-15 -4v-316z" />
    <glyph glyph-name="o" unicode="o" horiz-adv-x="531" 
d="M266 369q-36 0 -55 -26t-19 -92t19 -95t55 -29q35 0 54 29t19 95t-19 92t-54 26zM266 508q109 0 166 -67t57 -189q0 -123 -57 -193t-166 -70t-167 70.5t-58 192.5q0 121 58 188.5t167 67.5z" />
    <glyph glyph-name="p" unicode="p" horiz-adv-x="527" 
d="M202 432q21 42 54.5 59t71.5 17q48 0 78.5 -22.5t48 -58.5t23.5 -82t6 -94t-6 -95t-23 -84t-47 -60t-78 -23q-41 0 -70.5 17.5t-49.5 49.5v-207q0 -30 -21.5 -51t-53.5 -21t-53.5 21t-21.5 51v502q0 18 -1.5 29.5t-3.5 20t-3.5 15t-1.5 15.5q0 31 21.5 51t53.5 20
q27 0 47 -15t28 -43zM210 132q25 -16 52 -16q37 0 54 30.5t17 105.5q0 71 -16 100.5t-53 29.5q-29 0 -54 -17v-233z" />
    <glyph glyph-name="q" unicode="q" horiz-adv-x="523" 
d="M462 -151q0 -30 -21.5 -51t-53.5 -21t-54 21t-22 51v193q-22 -29 -51 -41t-61 -12q-49 0 -79.5 22.5t-48 59.5t-23.5 83.5t-6 93.5t6 93.5t23 83.5t47 60t77 23q38 0 69.5 -16.5t54.5 -54.5q5 31 23.5 48t50.5 17q37 0 53 -23t16 -58v-572zM311 367q-23 15 -48 15
q-35 0 -52.5 -30.5t-17.5 -105.5q0 -70 16.5 -100.5t54.5 -30.5q11 0 23.5 2.5t23.5 9.5v240z" />
    <glyph glyph-name="r" unicode="r" horiz-adv-x="445" 
d="M211 68q0 -30 -21.5 -51t-53.5 -21t-54 21t-22 51v283q0 18 -1.5 29.5t-3.5 20t-3.5 15t-1.5 15.5q0 31 21 51t53 20q33 0 52 -21t24 -51q25 39 56 58.5t66 19.5q19 0 38 -6t34 -17.5t24.5 -28t9.5 -38.5q0 -33 -22 -56.5t-58 -23.5q-14 0 -28.5 5t-25.5 17
q-15 14 -27 23t-25 9q-8 0 -16.5 -5t-14.5 -19v-300z" />
    <glyph glyph-name="s" unicode="s" horiz-adv-x="476" 
d="M50 356q0 38 15 66.5t41.5 47.5t61.5 28.5t75 9.5q45 0 85.5 -12t63.5 -35q25 -24 25 -59q0 -33 -21.5 -49.5t-48.5 -16.5q-20 0 -33.5 8t-27.5 24q-10 12 -23 22t-34 10q-19 0 -28 -8.5t-9 -20.5q0 -6 2.5 -12t11 -12.5t23.5 -14t41 -15.5q28 -9 59.5 -18.5t54.5 -28.5
q21 -17 33.5 -44.5t12.5 -63.5q0 -29 -8 -54t-21 -45q-26 -39 -68.5 -56.5t-96.5 -17.5q-60 0 -102 18t-67 47q-28 33 -28 68q0 28 18 46q19 18 46 18q19 0 38 -9t33 -29q11 -17 25 -29t41 -12q23 0 33.5 9.5t10.5 24.5q0 26 -31 37q-29 11 -61 21t-61 25q-38 20 -59.5 53
t-21.5 79z" />
    <glyph glyph-name="t" unicode="t" horiz-adv-x="412" 
d="M98 498v69q0 31 22 51t54 20t53.5 -20t21.5 -51v-69h72q28 0 43.5 -15t15.5 -40t-16.5 -41t-42.5 -16h-72v-247q0 -14 6 -20t15 -6q5 0 11 2t11 8q6 7 14.5 12.5t24.5 5.5q10 0 21 -3t20 -10.5t14.5 -19t5.5 -27.5q0 -24 -12.5 -41.5t-32 -29t-44 -16.5t-49.5 -5
q-78 0 -117 46.5t-39 124.5v226h-17q-26 0 -42.5 17t-16.5 40q0 22 16.5 38.5t42.5 16.5h17z" />
    <glyph glyph-name="u" unicode="u" horiz-adv-x="558" 
d="M226 193q0 -61 56 -61t56 60v238q0 31 21.5 51.5t53.5 20.5q31 0 52.5 -20.5t21.5 -51.5v-233q0 -37 -7 -74t-29 -67t-61.5 -48.5t-105.5 -18.5t-107 18.5t-64 48.5t-31 67.5t-8 74.5v232q0 31 22 51.5t54 20.5t54 -20.5t22 -51.5v-237z" />
    <glyph glyph-name="v" unicode="v" horiz-adv-x="446" 
d="M227 237l66 216q6 22 25 35.5t44 13.5q30 0 50.5 -19.5t20.5 -48.5q0 -11 -5 -24l-131 -364q-8 -24 -27.5 -37t-45.5 -13q-54 0 -71 50l-133 351q-2 7 -4.5 14t-2.5 18q0 32 22 52.5t55 20.5t50 -17t24 -40z" />
    <glyph glyph-name="w" unicode="w" horiz-adv-x="662" 
d="M211 243l54 209q5 22 24.5 36t45.5 14t44 -13.5t23 -35.5l55 -210l56 213q5 20 23 33t42 13q31 0 50.5 -19t19.5 -46q0 -8 -2 -14l-3 -9l-121 -368q-8 -24 -26.5 -37t-43.5 -13q-26 0 -45 12.5t-25 37.5l-53 193l-49 -192q-6 -25 -24.5 -38t-44.5 -13q-53 0 -70 50
l-121 353q-2 5 -4 12.5t-2 18.5q0 30 20.5 51t54.5 21q25 0 46.5 -14t27.5 -40z" />
    <glyph glyph-name="x" unicode="x" horiz-adv-x="432" 
d="M222 381l51 82q10 16 25 27.5t36 11.5q28 0 48 -19.5t20 -45.5q0 -11 -3.5 -20.5t-8.5 -17.5l-91 -135l100 -149q8 -11 13 -22t5 -25q0 -29 -22.5 -50.5t-54.5 -21.5q-43 0 -67 37l-64 101l-67 -106q-10 -14 -24.5 -23t-33.5 -9q-28 0 -48 19.5t-20 45.5q0 11 4 20.5
t10 18.5l101 150l-90 138q-12 16 -12 36q0 32 21 55t56 23q19 0 36 -8.5t27 -23.5z" />
    <glyph glyph-name="y" unicode="y" horiz-adv-x="444" 
d="M220 237l67 216q6 22 25 35.5t44 13.5q30 0 50.5 -19.5t20.5 -48.5q0 -11 -5 -24l-179 -496q-14 -38 -35.5 -68t-56.5 -54q-20 -15 -48 -15q-32 0 -53.5 20t-21.5 51q0 21 10 37.5t27 24.5t31 18.5t20 30.5l31 87l-134 351l-4 14t-2 18q0 32 21.5 52.5t55.5 20.5
q33 0 50 -17t24 -40z" />
    <glyph glyph-name="z" unicode="z" horiz-adv-x="467" 
d="M341 498q32 0 54 -21t22 -51q0 -11 -4 -22t-10 -19l-171 -245h125q30 0 51 -21t21 -50q0 -30 -21 -49.5t-51 -19.5h-242q-32 0 -54 20t-22 51q0 11 5 22.5t11 21.5l168 245h-112q-32 0 -53 19.5t-21 48.5t21 49.5t53 20.5h230z" />
    <glyph glyph-name="braceleft" unicode="{" horiz-adv-x="347" 
d="M150 306q31 -17 44.5 -41.5t18 -60t4 -84t1.5 -113.5q1 -28 12.5 -35t34.5 -7q22 0 38 -15t16 -35q0 -21 -16 -36.5t-38 -15.5q-41 0 -70.5 9t-48.5 29.5t-28 54.5t-9 84q0 64 -1 104.5t-4 64.5t-9.5 34t-18.5 14q-17 5 -29 18t-12 31t12 31.5t29 18.5q12 3 18.5 13
t9.5 33.5t4 64t1 103.5q0 50 9 84t28 54.5t48.5 29.5t70.5 9q22 0 38 -15.5t16 -36.5q0 -20 -16 -34.5t-38 -14.5q-23 0 -34.5 -7.5t-12.5 -35.5q-2 -65 -1.5 -113t-4 -83t-18 -59t-44.5 -42z" />
    <glyph glyph-name="bar" unicode="|" horiz-adv-x="261" 
d="M185 -167q0 -20 -16.5 -36t-38.5 -16t-38 16t-16 36v880q0 21 16 37t38 16t38.5 -16t16.5 -37v-880z" />
    <glyph glyph-name="braceright" unicode="}" horiz-adv-x="347" 
d="M197 306q-31 18 -45 42t-18.5 59t-4 83t-1.5 113q-1 28 -12 35.5t-34 7.5q-22 0 -38 14.5t-16 34.5q0 21 16 36.5t38 15.5q41 0 70.5 -9t48.5 -29.5t28 -54.5t9 -84q0 -63 1 -103.5t4 -64t9.5 -33.5t18.5 -13q17 -5 28.5 -18.5t11.5 -31.5t-11.5 -31t-28.5 -18
q-12 -4 -18.5 -14t-9.5 -34t-4 -64.5t-1 -104.5q0 -50 -9 -84t-28 -54.5t-48.5 -29.5t-70.5 -9q-22 0 -38 15.5t-16 36.5q0 20 16 35t38 15q23 0 34 7t12 35q2 65 1.5 113.5t4 84t18.5 60t45 41.5z" />
    <glyph glyph-name="asciitilde" unicode="~" 
d="M187 231q-7 -8 -16 -14t-23 -6q-21 0 -36.5 15t-15.5 35q0 16 11 35q8 13 20.5 26t28 23t33 16t36.5 6q17 0 32 -4.5t29 -12.5q23 -12 41 -24t35 -12t24.5 11t20.5 25q7 8 15 12.5t21 4.5q24 0 39 -15.5t15 -35.5q0 -15 -12 -34q-21 -33 -52 -52t-65 -19q-15 0 -28 3.5
t-24 8.5q-26 12 -46 26.5t-39 14.5q-17 0 -25 -11t-19 -22z" />
    <glyph glyph-name="nonbreakingspace" unicode="&#xa0;" horiz-adv-x="222" 
 />
    <glyph glyph-name="exclamdown" unicode="&#xa1;" horiz-adv-x="458" 
d="M158 318q1 27 21.5 46.5t49.5 19.5t49.5 -19.5t21.5 -46.5l11 -395q0 -33 -23.5 -56t-58.5 -23t-58.5 23t-23.5 56zM315 514q0 -17 -7 -32t-18.5 -26.5t-27 -18t-33.5 -6.5t-33.5 6.5t-27.5 18t-19 26.5t-7 32t7 32t19 26t27.5 17.5t33.5 6.5t33.5 -6.5t27 -17.5
t18.5 -26t7 -32z" />
    <glyph glyph-name="cent" unicode="&#xa2;" 
d="M257 656q0 23 17 39.5t40 16.5t40 -16.5t17 -39.5v-38q36 -9 66 -29t47 -52q5 -8 10 -19.5t5 -24.5q0 -23 -16.5 -37.5t-39.5 -14.5q-20 0 -34 9.5t-20 25.5q-8 22 -29 31.5t-47 9.5q-24 0 -43.5 -12t-33.5 -33t-22 -50.5t-8 -63.5q0 -36 8 -66t22 -52.5t34 -35t44 -12.5
q48 0 71 42q8 12 20.5 24.5t33.5 12.5q24 0 40.5 -15.5t16.5 -38.5q0 -11 -5.5 -22t-10.5 -19q-17 -30 -45.5 -50.5t-63.5 -33.5v-41q0 -22 -16 -38.5t-41 -16.5q-23 0 -40 16.5t-17 38.5v42q-76 24 -120 94.5t-44 170.5q0 47 11.5 89t33 76t51.5 58t68 35v40z" />
    <glyph glyph-name="sterling" unicode="&#xa3;" 
d="M146 407q3 52 10.5 106.5t28.5 98.5t61.5 72t109.5 28q46 0 87 -23t60 -68q3 -8 5.5 -17t2.5 -16q0 -23 -16 -39t-39 -16q-19 0 -34.5 10.5t-20.5 27.5q-5 18 -19.5 25.5t-33.5 7.5q-48 0 -66 -48.5t-23 -148.5h96q22 0 39 -16.5t17 -38.5t-17 -38t-39 -16h-99
q-2 -51 -6 -93t-11 -77q29 -1 49.5 -5t38 -8t35 -7.5t40.5 -3.5q19 0 36 6.5t37 6.5q23 0 39.5 -15.5t16.5 -38.5t-14.5 -36t-36.5 -20t-48 -9t-49 -2q-28 0 -49.5 4t-41 9t-39 9t-43.5 4q-15 0 -27 -4t-22.5 -9t-20.5 -9t-22 -4q-29 0 -42.5 15.5t-13.5 38.5q0 24 19 40
t43 25q9 45 14 90t7 93h-9q-22 0 -38.5 16t-16.5 38t16.5 38.5t38.5 16.5h10z" />
    <glyph glyph-name="currency" unicode="&#xa4;" horiz-adv-x="531" 
d="M183 517q35 20 84 20t84 -20l43 44q8 8 19.5 12t22.5 4q23 0 38 -15.5t15 -38.5q0 -25 -16 -41l-57 -57q8 -37 8 -70q0 -34 -8 -71l57 -56q16 -16 16 -42q0 -23 -15 -38.5t-38 -15.5q-22 0 -42 17l-43 43q-34 -19 -84 -19t-84 19l-43 -43q-20 -17 -42 -17
q-23 0 -38.5 15.5t-15.5 38.5q0 22 17 42l57 56q-8 37 -8 71q0 33 8 70l-57 57q-17 17 -17 41q0 23 15.5 38.5t38.5 15.5q11 0 22.5 -4t19.5 -12zM267 439q-30 0 -43.5 -18t-13.5 -66t13.5 -66t43.5 -18t43.5 18t13.5 66t-13.5 66t-43.5 18z" />
    <glyph glyph-name="yen" unicode="&#xa5;" 
d="M296 445l135 236q8 12 21 21.5t30 9.5q23 0 40 -16.5t17 -38.5q0 -7 -2.5 -14t-5.5 -13l-160 -265h65q21 0 37.5 -16t16.5 -37q0 -22 -16.5 -37.5t-37.5 -15.5h-84v-45h84q21 0 37.5 -16t16.5 -38q0 -21 -16.5 -36t-37.5 -15h-84v-58q0 -22 -15.5 -38.5t-41.5 -16.5
t-41 16.5t-15 38.5v58h-83q-22 0 -38 15t-16 36q0 22 16 38t38 16h83v45h-83q-22 0 -38 15.5t-16 37.5q0 21 16 37t38 16h61l-155 263q-8 14 -8 29q0 22 17 38.5t40 16.5q19 0 30.5 -10.5t18.5 -21.5z" />
    <glyph glyph-name="brokenbar" unicode="&#xa6;" horiz-adv-x="261" 
d="M185 -142q0 -21 -16.5 -36.5t-38.5 -15.5t-38 15.5t-16 36.5v311q0 21 16 36.5t38 15.5t38.5 -15.5t16.5 -36.5v-311zM185 372q0 -21 -16.5 -36.5t-38.5 -15.5t-38 15.5t-16 36.5v310q0 21 16 36.5t38 15.5t38.5 -15.5t16.5 -36.5v-310z" />
    <glyph glyph-name="section" unicode="&#xa7;" horiz-adv-x="592" 
d="M330 539q23 -8 50 -15.5t50.5 -23t39.5 -42.5t16 -73q0 -48 -18 -72.5t-49 -40.5q41 -19 54.5 -43.5t13.5 -64.5q0 -88 -52.5 -131.5t-140.5 -43.5q-69 0 -114.5 27.5t-65.5 67.5q-11 17 -11 37q0 24 17 46t54 22q26 0 37 -9t20 -22q11 -18 26.5 -34t45.5 -16
q24 0 33.5 9t9.5 25q0 24 -32 36q-25 10 -51 18t-51 19q-46 20 -71 53.5t-25 87.5q0 72 68 110q-69 39 -69 112q0 75 47 115.5t135 40.5q39 0 71 -7t55.5 -21t36.5 -34.5t13 -48.5t-19.5 -50.5t-50.5 -22.5q-32 0 -43.5 12.5t-19.5 28.5q-7 14 -21.5 23t-35.5 9
q-15 0 -23 -8.5t-8 -20.5q0 -20 20 -30.5t58 -24.5zM263 426q-11 -11 -15.5 -25t-4.5 -29q0 -24 22.5 -36.5t67.5 -28.5q21 18 21 54q0 37 -91 65z" />
    <glyph glyph-name="dieresis" unicode="&#xa8;" horiz-adv-x="388" 
d="M217 663q0 32 22.5 54t57.5 22q34 0 56.5 -22t22.5 -54t-22.5 -54t-56.5 -22q-35 0 -57.5 22t-22.5 54zM13 663q0 32 22.5 54t57.5 22q34 0 56.5 -22t22.5 -54t-22.5 -54t-56.5 -22q-35 0 -57.5 22t-22.5 54z" />
    <glyph glyph-name="copyright" unicode="&#xa9;" horiz-adv-x="716" 
d="M358 714q69 0 130.5 -28t107 -77.5t72 -116t26.5 -142.5q0 -77 -26.5 -143t-72 -115.5t-107 -77.5t-130.5 -28t-130 28.5t-106.5 77.5t-72 115.5t-26.5 142.5t26.5 142.5t72 115.5t106.5 77.5t130 28.5zM358 642q-58 0 -107 -22t-84.5 -61.5t-55.5 -93t-20 -116.5
t20 -116.5t55.5 -93t84.5 -61.5t107 -22t107 22t85 61t56 93t20 117t-20 117t-56 93t-85 61t-107 22zM359 580q47 0 84.5 -19.5t56.5 -52.5q4 -7 7 -15t3 -16q0 -14 -9 -23t-24 -9t-21 7t-9 15q-7 16 -26 30q-11 8 -25.5 13.5t-34.5 5.5q-59 0 -91.5 -46t-32.5 -121
q0 -76 33.5 -123t90.5 -47q35 0 53 16.5t28 33.5q3 5 10.5 13.5t21.5 8.5t23.5 -9.5t9.5 -23.5q0 -11 -7 -24q-11 -21 -26 -34.5t-29 -21.5q-17 -11 -37 -17t-47 -6q-45 0 -80 17.5t-60 48.5t-38 73.5t-13 92.5q0 51 13.5 93.5t38 73.5t59.5 48.5t78 17.5z" />
    <glyph glyph-name="ordfeminine" unicode="&#xaa;" horiz-adv-x="398" 
d="M222 563q0 29 -24 29q-14 0 -19 -7t-8 -16q-13 -34 -55 -34q-26 0 -38.5 17.5t-12.5 38.5q0 19 9.5 36t26.5 30.5t42 21.5t57 8q30 0 55 -5.5t43 -20t28 -40.5t10 -67v-150q0 -14 7 -24t7 -22q0 -23 -16.5 -38.5t-39.5 -15.5q-16 0 -26 5t-16.5 13t-9.5 17t-5 17
q-33 -57 -90 -57q-42 0 -69.5 26.5t-27.5 66.5q0 31 9 50t23.5 29.5t33 16t37.5 9t37 8t32 14.5v44zM226 469q-13 -10 -25 -16t-21.5 -11t-15 -11.5t-5.5 -16.5t6 -18t19 -8q15 0 24.5 7t17.5 20v54z" />
    <glyph glyph-name="guillemotleft" unicode="&#xab;" horiz-adv-x="480" 
d="M29 0zM141 476q13 26 42 26q24 0 38 -14t14 -39q0 -13 -4 -22l-80 -178l80 -178q4 -9 4 -22q0 -25 -14 -39t-38 -14q-29 0 -42 26l-112 227zM356 476q13 26 42 26q24 0 38 -14t14 -39q0 -13 -4 -22l-80 -178l80 -178q4 -9 4 -22q0 -25 -14 -39t-38 -14q-29 0 -42 26
l-112 227z" />
    <glyph glyph-name="logicalnot" unicode="&#xac;" 
d="M458 344q23 0 39.5 -15.5t16.5 -37.5v-140q0 -22 -16.5 -38t-39.5 -16q-22 0 -38.5 16t-16.5 38v86h-270q-22 0 -38 16t-16 38t16 37.5t38 15.5h325z" />
    <glyph glyph-name="uni00AD" unicode="&#xad;" horiz-adv-x="0" 
 />
    <glyph glyph-name="registered" unicode="&#xae;" horiz-adv-x="467" 
d="M218 652q22 0 41 -3.5t33 -13t22.5 -25.5t8.5 -41q0 -30 -12 -47.5t-32 -27.5l47 -76q5 -8 5 -15q0 -10 -7.5 -16t-15.5 -6q-6 0 -12 3t-9 8l-56 94h-27v-83q0 -10 -8 -16t-16 -6q-9 0 -16.5 6t-7.5 16v226q0 9 7.5 16t16.5 7h38zM204 533h31q17 0 29 8t12 28
q0 19 -11.5 27.5t-28.5 8.5h-32v-72zM234 739q44 0 82.5 -16.5t67 -46t45 -71t16.5 -90.5q0 -50 -16.5 -92t-45 -72.5t-67 -47.5t-82.5 -17t-82.5 17t-67 47.5t-45 72.5t-16.5 92q0 49 16.5 90.5t45 71t67 46t82.5 16.5zM234 689q-35 0 -65 -12t-52 -34.5t-34.5 -55
t-12.5 -72.5q0 -41 12.5 -74t34.5 -56t52 -36t65 -13t64.5 13t51.5 36t34 56t12 74q0 40 -12 72.5t-34 55t-51.5 34.5t-64.5 12z" />
    <glyph glyph-name="macron" unicode="&#xaf;" horiz-adv-x="412" 
d="M349 719q20 0 34.5 -14.5t14.5 -32.5q0 -19 -14.5 -33t-34.5 -14h-286q-20 0 -35 14t-15 33q0 18 15 32.5t35 14.5h286z" />
    <glyph glyph-name="degree" unicode="&#xb0;" horiz-adv-x="340" 
d="M171 722q26 0 48.5 -10.5t39 -28.5t26 -42.5t9.5 -52.5q0 -29 -9.5 -53.5t-26 -42.5t-39 -28t-48.5 -10q-27 0 -50 10t-39.5 28t-26 42.5t-9.5 53.5q0 28 9.5 52.5t26 42.5t39.5 28.5t50 10.5zM170 653q-23 0 -36.5 -17.5t-13.5 -47.5t14 -48t37 -18q22 0 35.5 18
t13.5 48t-13.5 47.5t-36.5 17.5z" />
    <glyph glyph-name="plusminus" unicode="&#xb1;" 
d="M79 0zM242 344v109q0 22 16 38.5t38 16.5t38 -16.5t16 -38.5v-109h108q23 0 39.5 -15.5t16.5 -37.5t-16.5 -38t-39.5 -16h-108v-109q0 -23 -16 -39.5t-38 -16.5t-38 16.5t-16 39.5v109h-109q-22 0 -38 16t-16 38t16 37.5t38 15.5h109zM458 19q23 0 39.5 -15.5t16.5 -37.5
t-16.5 -38t-39.5 -16h-325q-22 0 -38 16t-16 38t16 37.5t38 15.5h325z" />
    <glyph glyph-name="twosuperior" unicode="&#xb2;" horiz-adv-x="384" 
d="M47 310zM285.389 401.196q18 0 32.999 -10.7998q14.999 -10.7988 14.999 -34.7988q0 -11.999 -4.19922 -20.6982q-4.2002 -8.7002 -10.7998 -14.0996q-6.59961 -5.40039 -15.2998 -8.09961q-8.69922 -2.7002 -17.6992 -2.7002h-189.592q-9.59961 0 -18.2998 3.89941
q-8.69922 3.90039 -15.2988 10.2002t-10.5 14.6992q-3.89941 8.39941 -3.89941 16.7988q0 16.2002 10.7988 28.7988q25.1992 30.5996 38.6992 46.499q13.499 15.8994 20.0986 23.999t9.59961 11.0996q3 2.99902 7.2002 7.79883q4.19922 4.7998 12.5996 14.0996
q8.39941 9.2998 26.3984 30.2988q20.999 24.5996 35.3984 46.498q14.3994 21.8994 14.3994 44.6982q0 17.3994 -8.99902 27.8994q-9 10.499 -26.3994 10.499q-9.59961 0 -15.5996 -3.2998q-5.99902 -3.2998 -9.59961 -8.69922q-3.59961 -5.40039 -5.69922 -12
q-2.10059 -6.59961 -3.90039 -12.5996q-4.7998 -16.7988 -15.2988 -28.1982q-10.5 -11.3994 -29.6992 -11.3994q-10.7998 0 -19.7988 3.89941q-9 3.89941 -15.5996 10.1992t-10.1992 15q-3.60059 8.69922 -3.60059 17.6992q0 7.19922 1.80078 15.5986
q1.7998 8.40039 4.19922 16.7998q6 18.5996 17.6992 34.499q11.7002 15.8984 27.5996 27.5986q15.8984 11.6992 35.6982 17.999q19.7988 6.2998 41.998 6.2998q26.999 0 50.6982 -9.2998t41.3984 -26.0986q17.6992 -16.7998 27.8984 -40.1982
q10.1992 -23.3994 10.1992 -52.1982q0 -35.3984 -14.6992 -63.8975t-36.8984 -57.2979q-17.999 -23.3984 -36.8984 -43.7979t-43.498 -43.1982h99.5957z" />
    <glyph glyph-name="threesuperior" unicode="&#xb3;" horiz-adv-x="384" 
d="M53 303zM267.79 536.19q30.5986 -14.999 46.1982 -40.1982q15.5986 -25.1992 15.5986 -59.3975q0 -29.999 -11.6992 -54.5977t-31.499 -41.998q-19.7988 -17.3994 -45.5977 -26.999t-54.5977 -9.59961q-41.999 0 -75.5977 20.0986q-33.5986 20.0996 -49.7979 54.8984
q-7.19922 12.5996 -7.19922 26.999q0 20.3984 13.7988 34.7979q13.7998 14.3994 36.5986 14.3994q25.7988 0 40.1982 -24.5986q4.7998 -7.7998 9.2998 -14.6992t9.89941 -11.7002q5.40039 -4.79883 12.5996 -7.79883q7.2002 -3 16.7998 -3q19.1992 0 30.5986 12.5996
t11.3994 37.7979q0 16.7998 -5.09961 26.3994t-13.1992 14.3994t-18.5996 6.2998t-21.8994 2.69922q-17.999 1.2002 -29.999 10.7998q-11.999 9.59961 -11.999 29.999q0 19.7988 11.6992 30.2988q11.7002 10.499 30.8994 11.6992q7.19922 0 15.5986 0.900391
q8.40039 0.899414 15.5996 4.7998q7.2002 3.89941 12 11.3994t4.7998 21.2988q0 19.1992 -9.59961 28.499t-25.1992 9.2998q-8.39941 0 -14.3994 -2.40039q-6 -2.39941 -10.2002 -6.2998q-4.19922 -3.89941 -6.89941 -8.39941t-5.09961 -8.69922
q-15.5996 -29.999 -42.5986 -29.999q-9.59961 0 -18.5986 3.59961q-9 3.59961 -16.1992 10.2002q-7.2002 6.59961 -11.3994 15.2988q-4.2002 8.69922 -4.2002 19.499q0 15.5996 8.39941 32.3994q15.5996 30.5986 47.3984 45.2979t67.1973 14.6992q25.1992 0 49.1973 -7.5
q24 -7.49902 42.8984 -22.1992q18.8994 -14.6992 30.5986 -36.2979q11.7002 -21.5996 11.7002 -50.3984q0 -29.998 -12.8994 -50.6973t-36.8984 -33.8994z" />
    <glyph glyph-name="acute" unicode="&#xb4;" horiz-adv-x="219" 
d="M96 739q14 17 27.5 24t27.5 7q25 0 40.5 -16t15.5 -39q0 -11 -4 -22t-15 -22l-92 -95q-8 -9 -18 -12.5t-19 -3.5q-19 0 -33.5 13t-14.5 34q0 22 19 47z" />
    <glyph glyph-name="uni00B5" unicode="&#xb5;" 
d="M206 117q18 -17 38 -21.5t44 -4.5q79 0 79 95v264q0 22 15.5 37t38.5 15q22 0 38 -15t16 -37v-347q0 -8 3.5 -15t7 -13.5t7 -13.5t3.5 -14q0 -22 -15.5 -36.5t-38.5 -14.5t-38.5 13.5t-15.5 44.5q-19 -38 -43 -51.5t-57 -13.5q-24 0 -46.5 7t-35.5 24v-191
q0 -23 -15.5 -37.5t-38.5 -14.5q-24 0 -39.5 14.5t-15.5 37.5v621q0 22 15.5 37t39.5 15q23 0 38.5 -15t15.5 -37v-333z" />
    <glyph glyph-name="paragraph" unicode="&#xb6;" horiz-adv-x="590" 
d="M462 724q20 0 32 -13t12 -27v-638q0 -50 -54 -50t-54 50v575h-94v-575q0 -50 -54 -50q-52 0 -52 50v320h-12q-125 0 -125 157v43q0 158 125 158h276z" />
    <glyph glyph-name="periodcentered" unicode="&#xb7;" horiz-adv-x="350" 
d="M89 294q0 34 25 58.5t61 24.5q18 0 33.5 -6.5t27 -18t18.5 -26.5t7 -32q0 -35 -25.5 -59.5t-60.5 -24.5q-36 0 -61 24.5t-25 59.5z" />
    <glyph glyph-name="cedilla" unicode="&#xb8;" horiz-adv-x="151" 
d="M50 -125q-21 6 -29 22.5t-8 29.5q0 22 15.5 39t45.5 17q29 0 46.5 -16.5t17.5 -51.5q0 -18 -5 -41.5t-14.5 -44.5t-23 -35.5t-30.5 -14.5q-13 0 -19 6t-6 15q0 13 5.5 24.5t5.5 31.5v9t-1 10z" />
    <glyph glyph-name="onesuperior" unicode="&#xb9;" horiz-adv-x="384" 
d="M75 307zM247.391 352.599q0 -17.3994 -13.7998 -31.1992q-13.7988 -13.7998 -34.7979 -13.7998q-20.3994 0 -33.8994 13.5q-13.499 13.499 -13.499 31.499v240.59l-4.7998 -1.7998q-4.7998 -3 -12.5996 -4.2002t-12.5996 -1.2002q-19.1992 0 -32.3984 13.7998
t-13.1992 32.999q0 16.7988 9.89941 26.0986t23.6992 15.8994q8.39941 4.2002 14.3994 7.5q5.99902 3.2998 11.0996 7.49902q5.09961 4.2002 9.59961 9.2998q4.49902 5.09961 9.89941 12.2998q4.7998 7.19922 14.6992 16.499t27.2988 9.2998q10.7998 0 20.0996 -3.89941
q9.29883 -3.90039 16.1992 -10.5q6.89941 -6.59961 10.7988 -15.2998q3.90039 -8.69922 3.90039 -17.6992v-337.186z" />
    <glyph glyph-name="ordmasculine" unicode="&#xba;" horiz-adv-x="425" 
d="M207 584q-27 0 -41.5 -18.5t-14.5 -69.5t14.5 -72.5t41.5 -21.5q26 0 40.5 21.5t14.5 72.5t-14.5 69.5t-40.5 18.5zM207 688q81 0 124 -50.5t43 -141.5q0 -93 -43 -145t-124 -52q-82 0 -125.5 52t-43.5 145q0 91 43.5 141.5t125.5 50.5z" />
    <glyph glyph-name="guillemotright" unicode="&#xbb;" horiz-adv-x="480" 
d="M29 0zM235 249l-112 -227q-13 -26 -42 -26q-24 0 -38 14t-14 39q0 13 4 22l80 178l-80 178q-4 9 -4 22q0 25 14 39t38 14q29 0 42 -26zM450 249l-112 -227q-13 -26 -42 -26q-24 0 -38 14t-14 39q0 13 4 22l80 178l-80 178q-4 9 -4 22q0 25 14 39t38 14q29 0 42 -26z" />
    <glyph glyph-name="onequarter" unicode="&#xbc;" horiz-adv-x="810" 
d="M37 0zM209.391 352.599q0 -17.3994 -13.7998 -31.1992q-13.7988 -13.7998 -34.7979 -13.7998q-20.3994 0 -33.8994 13.5q-13.499 13.499 -13.499 31.499v240.59l-4.7998 -1.7998q-4.7998 -3 -12.5996 -4.2002t-12.5996 -1.2002q-19.1992 0 -32.3984 13.7998
t-13.1992 32.999q0 16.7988 9.89941 26.0986t23.6992 15.8994q8.39941 4.2002 14.3994 7.5q5.99902 3.2998 11.0996 7.49902q5.09961 4.2002 9.59961 9.2998q4.49902 5.09961 9.89941 12.2998q4.7998 7.19922 14.6992 16.499t27.2988 9.2998q10.7998 0 20.0996 -3.89941
q9.29883 -3.90039 16.1992 -10.5q6.89941 -6.59961 10.7988 -15.2998q3.90039 -8.69922 3.90039 -17.6992v-337.186zM276 -2q-14 -27 -41 -27q-15 0 -29.5 11t-14.5 31q0 4 1 9.5t3 10.5l333 671q15 25 41 25q16 0 30 -11t14 -31q0 -11 -6 -24zM557.595 102.993h53.9971
v28.7988q0 19.1992 13.2002 32.6992q13.1992 13.499 31.7979 13.499q9.59961 0 18 -3.59961q8.39941 -3.59961 14.3994 -9.59961q5.99902 -6 9.59961 -13.7998q3.59961 -7.7998 3.59961 -16.1992v-31.7988h9q14.3994 0 25.7988 -11.999q11.3994 -12 11.3994 -27.5996
q0 -15.5986 -11.3994 -27.8984t-25.7988 -12.2998h-9v-44.3975q0 -16.7998 -11.6992 -29.999q-11.7002 -13.2002 -31.499 -13.2002q-9.59961 0 -18.2988 3.60059q-8.7002 3.59961 -15 9.59961q-6.2998 5.99902 -10.1992 13.7988q-3.90039 7.7998 -3.90039 16.2002v44.3975
h-120.595q-22.1992 0 -34.1982 13.2002q-12 13.1992 -12 30.5986q0 6.59961 1.7998 12.8994t4.7998 14.0996l121.795 248.39q4.7998 10.7998 16.1992 16.7988q11.4004 6 23.3994 6q9 0 17.3994 -3.59961q8.39941 -3.60059 14.6992 -9.59961q6.2998 -6 9.89941 -13.7998
q3.60059 -7.7998 3.60059 -16.7988q0 -6 -1.5 -11.7002q-1.5 -5.69922 -3.90039 -10.499z" />
    <glyph glyph-name="onehalf" unicode="&#xbd;" horiz-adv-x="815" 
d="M31 0zM203.391 352.599q0 -17.3994 -13.7998 -31.1992q-13.7988 -13.7998 -34.7979 -13.7998q-20.3994 0 -33.8994 13.5q-13.499 13.499 -13.499 31.499v240.59l-4.7998 -1.7998q-4.7998 -3 -12.5996 -4.2002t-12.5996 -1.2002q-19.1992 0 -32.3984 13.7998
t-13.1992 32.999q0 16.7988 9.89941 26.0986t23.6992 15.8994q8.39941 4.2002 14.3994 7.5q5.99902 3.2998 11.0996 7.49902q5.09961 4.2002 9.59961 9.2998q4.49902 5.09961 9.89941 12.2998q4.7998 7.19922 14.6992 16.499t27.2988 9.2998q10.7998 0 20.0996 -3.89941
q9.29883 -3.90039 16.1992 -10.5q6.89941 -6.59961 10.7988 -15.2998q3.90039 -8.69922 3.90039 -17.6992v-337.186zM274 -2q-14 -27 -41 -27q-15 0 -29.5 11t-14.5 31q0 4 1 9.5t3 10.5l333 671q15 25 41 25q16 0 30 -11t14 -31q0 -11 -6 -24zM713.389 29.1963
q18 0 32.999 -10.7998q14.999 -10.7988 14.999 -34.7988q0 -11.999 -4.19922 -20.6982q-4.2002 -8.7002 -10.7998 -14.0996q-6.59961 -5.40039 -15.2998 -8.09961q-8.69922 -2.7002 -17.6992 -2.7002h-189.592q-9.59961 0 -18.2998 3.89941
q-8.69922 3.90039 -15.2988 10.2002t-10.5 14.6992q-3.89941 8.39941 -3.89941 16.7988q0 16.2002 10.7988 28.7988q25.1992 30.5996 38.6992 46.499q13.499 15.8994 20.0986 23.999t9.59961 11.0996q3 2.99902 7.2002 7.79883q4.19922 4.7998 12.5996 14.0996
q8.39941 9.2998 26.3984 30.2988q20.999 24.5996 35.3984 46.498q14.3994 21.8994 14.3994 44.6982q0 17.3994 -8.99902 27.8994q-9 10.499 -26.3994 10.499q-9.59961 0 -15.5996 -3.2998q-5.99902 -3.2998 -9.59961 -8.69922q-3.59961 -5.40039 -5.69922 -12
q-2.10059 -6.59961 -3.90039 -12.5996q-4.7998 -16.7988 -15.2988 -28.1982q-10.5 -11.3994 -29.6992 -11.3994q-10.7998 0 -19.7988 3.89941q-9 3.89941 -15.5996 10.1992t-10.1992 15q-3.60059 8.69922 -3.60059 17.6992q0 7.19922 1.80078 15.5986
q1.7998 8.40039 4.19922 16.7998q6 18.5996 17.6992 34.499q11.7002 15.8984 27.5996 27.5986q15.8984 11.6992 35.6982 17.999q19.7988 6.2998 41.998 6.2998q26.999 0 50.6982 -9.2998t41.3984 -26.0986q17.6992 -16.7998 27.8984 -40.1982
q10.1992 -23.3994 10.1992 -52.1982q0 -35.3984 -14.6992 -63.8975t-36.8984 -57.2979q-17.999 -23.3984 -36.8984 -43.7979t-43.498 -43.1982h99.5957z" />
    <glyph glyph-name="threequarters" unicode="&#xbe;" horiz-adv-x="813" 
d="M45 0zM259.79 536.19q30.5986 -14.999 46.1982 -40.1982q15.5986 -25.1992 15.5986 -59.3975q0 -29.999 -11.6992 -54.5977t-31.499 -41.998q-19.7988 -17.3994 -45.5977 -26.999t-54.5977 -9.59961q-41.999 0 -75.5977 20.0986q-33.5986 20.0996 -49.7979 54.8984
q-7.19922 12.5996 -7.19922 26.999q0 20.3984 13.7988 34.7979q13.7998 14.3994 36.5986 14.3994q25.7988 0 40.1982 -24.5986q4.7998 -7.7998 9.2998 -14.6992t9.89941 -11.7002q5.40039 -4.79883 12.5996 -7.79883q7.2002 -3 16.7998 -3q19.1992 0 30.5986 12.5996
t11.3994 37.7979q0 16.7998 -5.09961 26.3994t-13.1992 14.3994t-18.5996 6.2998t-21.8994 2.69922q-17.999 1.2002 -29.999 10.7998q-11.999 9.59961 -11.999 29.999q0 19.7988 11.6992 30.2988q11.7002 10.499 30.8994 11.6992q7.19922 0 15.5986 0.900391
q8.40039 0.899414 15.5996 4.7998q7.2002 3.89941 12 11.3994t4.7998 21.2988q0 19.1992 -9.59961 28.499t-25.1992 9.2998q-8.39941 0 -14.3994 -2.40039q-6 -2.39941 -10.2002 -6.2998q-4.19922 -3.89941 -6.89941 -8.39941t-5.09961 -8.69922
q-15.5996 -29.999 -42.5986 -29.999q-9.59961 0 -18.5986 3.59961q-9 3.59961 -16.1992 10.2002q-7.2002 6.59961 -11.3994 15.2988q-4.2002 8.69922 -4.2002 19.499q0 15.5996 8.39941 32.3994q15.5996 30.5986 47.3984 45.2979t67.1973 14.6992q25.1992 0 49.1973 -7.5
q24 -7.49902 42.8984 -22.1992q18.8994 -14.6992 30.5986 -36.2979q11.7002 -21.5996 11.7002 -50.3984q0 -29.998 -12.8994 -50.6973t-36.8984 -33.8994zM309 -2q-14 -27 -41 -27q-15 0 -29.5 11t-14.5 31q0 4 1 9.5t3 10.5l333 671q15 25 41 25q16 0 30 -11t14 -31
q0 -11 -6 -24zM586.595 102.993h53.9971v28.7988q0 19.1992 13.2002 32.6992q13.1992 13.499 31.7979 13.499q9.59961 0 18 -3.59961q8.39941 -3.59961 14.3994 -9.59961q5.99902 -6 9.59961 -13.7998q3.59961 -7.7998 3.59961 -16.1992v-31.7988h9
q14.3994 0 25.7988 -11.999q11.3994 -12 11.3994 -27.5996q0 -15.5986 -11.3994 -27.8984t-25.7988 -12.2998h-9v-44.3975q0 -16.7998 -11.6992 -29.999q-11.7002 -13.2002 -31.499 -13.2002q-9.59961 0 -18.2988 3.60059q-8.7002 3.59961 -15 9.59961
q-6.2998 5.99902 -10.1992 13.7988q-3.90039 7.7998 -3.90039 16.2002v44.3975h-120.595q-22.1992 0 -34.1982 13.2002q-12 13.1992 -12 30.5986q0 6.59961 1.7998 12.8994t4.7998 14.0996l121.795 248.39q4.7998 10.7998 16.1992 16.7988q11.4004 6 23.3994 6
q9 0 17.3994 -3.59961q8.39941 -3.60059 14.6992 -9.59961q6.2998 -6 9.89941 -13.7998q3.60059 -7.7998 3.60059 -16.7988q0 -6 -1.5 -11.7002q-1.5 -5.69922 -3.90039 -10.499z" />
    <glyph glyph-name="questiondown" unicode="&#xbf;" horiz-adv-x="548" 
d="M431 -89q-12 -17 -31.5 -29.5t-42 -20.5t-47 -12t-46.5 -4q-40 0 -75.5 12t-62 35t-42 56.5t-15.5 76.5q0 27 6 50t16 41t23 33.5t26.5 31t26.5 32t22 37.5q8 18 10.5 34t3.5 36q2 29 23.5 49.5t51.5 20.5q27 0 49.5 -22t22.5 -75q0 -13 -4 -34.5t-21 -50.5
q-9 -15 -20.5 -30t-23.5 -30t-23 -29.5t-18 -26.5q-19 -33 -19 -63q0 -44 43 -44q18 0 29.5 8t23.5 19q6 5 20.5 13.5t35.5 8.5q16 0 30 -6t24.5 -15.5t16.5 -22.5t6 -27t-5.5 -28t-13.5 -24zM362 520q0 -34 -25.5 -58.5t-61.5 -24.5q-18 0 -33.5 6.5t-27 17.5t-18.5 26
t-7 32q0 35 25.5 59t61.5 24q18 0 33.5 -6.5t27 -17.5t18.5 -26t7 -32z" />
    <glyph glyph-name="Agrave" unicode="&#xc0;" horiz-adv-x="573" 
d="M8 0zM560 102q5 -15 5 -31q0 -30 -19.5 -52.5t-57.5 -22.5q-29 0 -47.5 14.5t-26.5 37.5l-28 85h-207l-28 -89q-6 -20 -24 -34t-47 -14q-35 0 -53.5 20.5t-18.5 49.5q0 15 6 32l199 581q7 20 25 35t48 15t49 -15t26 -35zM219 266h127l-64 196zM335 858q19 -22 19 -43
q0 -20 -14.5 -32t-33.5 -12q-9 0 -19 3.5t-18 11.5l-92 88q-11 10 -15 20.5t-4 20.5q0 21 15.5 36t40.5 15q14 0 27.5 -6t27.5 -23z" />
    <glyph glyph-name="Aacute" unicode="&#xc1;" horiz-adv-x="573" 
d="M8 0zM560 102q5 -15 5 -31q0 -30 -19.5 -52.5t-57.5 -22.5q-29 0 -47.5 14.5t-26.5 37.5l-28 85h-207l-28 -89q-6 -20 -24 -34t-47 -14q-35 0 -53.5 20.5t-18.5 49.5q0 15 6 32l199 581q7 20 25 35t48 15t49 -15t26 -35zM219 266h127l-64 196zM303 937q14 17 27.5 23
t27.5 6q25 0 40.5 -15t15.5 -36q0 -10 -4 -20.5t-15 -20.5l-92 -88q-8 -8 -18 -11.5t-19 -3.5q-19 0 -33.5 12t-14.5 32q0 21 19 43z" />
    <glyph glyph-name="Acircumflex" unicode="&#xc2;" horiz-adv-x="573" 
d="M8 0zM560 102q5 -15 5 -31q0 -30 -19.5 -52.5t-57.5 -22.5q-29 0 -47.5 14.5t-26.5 37.5l-28 85h-207l-28 -89q-6 -20 -24 -34t-47 -14q-35 0 -53.5 20.5t-18.5 49.5q0 15 6 32l199 581q7 20 25 35t48 15t49 -15t26 -35zM219 266h127l-64 196zM207 926q20 24 39.5 32
t38.5 8q22 0 42 -9t38 -31l66 -80q4 -5 7.5 -12.5t3.5 -17.5q0 -20 -16 -33t-36 -13q-22 0 -39 20l-65 75l-65 -75q-8 -9 -17 -14.5t-22 -5.5q-19 0 -35.5 13t-16.5 33q0 10 3.5 17.5t7.5 12.5z" />
    <glyph glyph-name="Atilde" unicode="&#xc3;" horiz-adv-x="573" 
d="M8 0zM560 102q5 -15 5 -31q0 -30 -19.5 -52.5t-57.5 -22.5q-29 0 -47.5 14.5t-26.5 37.5l-28 85h-207l-28 -89q-6 -20 -24 -34t-47 -14q-35 0 -53.5 20.5t-18.5 49.5q0 15 6 32l199 581q7 20 25 35t48 15t49 -15t26 -35zM219 266h127l-64 196zM116 925q8 15 25.5 25.5
t46.5 10.5q26 0 50 -8t45 -17.5t40 -17.5t35 -8q10 0 18 2.5t12 5.5q6 4 9 12.5t4 12.5q8 23 34 23q16 0 25 -11t9 -38q0 -15 -3 -30.5t-10 -27.5q-8 -14 -25.5 -24.5t-46.5 -10.5q-25 0 -48.5 8t-45 17t-41 17t-36.5 8q-9 0 -17 -2.5t-12 -4.5q-6 -5 -9 -13.5t-4 -11.5
q-8 -24 -34 -24q-16 0 -25 11t-9 39q0 14 3 29.5t10 27.5z" />
    <glyph glyph-name="Adieresis" unicode="&#xc4;" horiz-adv-x="573" 
d="M8 0zM560 102q5 -15 5 -31q0 -30 -19.5 -52.5t-57.5 -22.5q-29 0 -47.5 14.5t-26.5 37.5l-28 85h-207l-28 -89q-6 -20 -24 -34t-47 -14q-35 0 -53.5 20.5t-18.5 49.5q0 15 6 32l199 581q7 20 25 35t48 15t49 -15t26 -35zM219 266h127l-64 196zM309 872q0 32 22.5 54
t57.5 22q34 0 56.5 -22t22.5 -54t-22.5 -54t-56.5 -22q-35 0 -57.5 22t-22.5 54zM105 872q0 32 22.5 54t57.5 22q34 0 56.5 -22t22.5 -54t-22.5 -54t-56.5 -22q-35 0 -57.5 22t-22.5 54z" />
    <glyph glyph-name="Aring" unicode="&#xc5;" horiz-adv-x="573" 
d="M8 0zM560 102q5 -15 5 -31q0 -30 -19.5 -52.5t-57.5 -22.5q-29 0 -47.5 14.5t-26.5 37.5l-28 85h-207l-28 -89q-6 -20 -24 -34t-47 -14q-35 0 -53.5 20.5t-18.5 49.5q0 15 6 32l199 581q7 20 25 35t48 15t49 -15t26 -35zM219 266h127l-64 196zM190 874q0 19 7.5 36
t20.5 29.5t31 19.5t38 7q40 0 68 -26.5t28 -65.5q0 -42 -28 -67.5t-68 -25.5q-42 0 -69.5 25.5t-27.5 67.5zM287 923q-21 0 -35 -14.5t-14 -34.5t14 -34t35 -14t34.5 14t13.5 34t-13.5 34.5t-34.5 14.5z" />
    <glyph glyph-name="AE" unicode="&#xc6;" horiz-adv-x="894" 
d="M754 724q16 0 30.5 -6t25 -16.5t17 -24.5t6.5 -29t-6.5 -29t-17 -24.5t-25 -16.5t-30.5 -6h-218v-126h186q15 0 28 -5.5t22.5 -15.5t15.5 -22.5t6 -26.5q0 -29 -21.5 -50t-50.5 -21h-186v-152h218q16 0 30 -6.5t25 -17t17.5 -24t6.5 -28.5q0 -32 -23.5 -54.5t-55.5 -22.5
h-296q-32 0 -55 22.5t-23 54.5v56h-192l-29 -86q-7 -21 -26.5 -36t-46.5 -15q-37 0 -58 22.5t-21 52.5q0 16 6 33l197 568q8 22 28 37t46 15h470zM234 266h146v307h-41z" />
    <glyph glyph-name="Ccedilla" unicode="&#xc7;" horiz-adv-x="662" 
d="M57 0zM359 734q43 0 81.5 -11t70 -29t55.5 -42.5t38 -51.5q15 -30 15 -50q0 -28 -22.5 -51t-56.5 -23q-18 0 -36 8.5t-30 28.5q-2 2 -6.5 11.5t-9.5 14.5q-39 43 -96 43q-36 0 -64 -16.5t-47 -46.5t-28.5 -71.5t-9.5 -90.5q0 -47 9 -86.5t27.5 -68t48 -45t70.5 -16.5
q21 0 44.5 9t46.5 46q11 18 27 35t47 17q36 0 58 -23.5t22 -50.5q0 -8 -2.5 -20.5t-7.5 -25.5q-12 -29 -37 -54.5t-58.5 -44.5t-73.5 -29.5t-82 -10.5q-66 0 -120 26.5t-93 75t-60.5 116.5t-21.5 151t21.5 152t61 119t95.5 77.5t124 27.5zM325 -125q-21 6 -29 22.5t-8 29.5
q0 22 15.5 39t45.5 17q29 0 46.5 -16.5t17.5 -51.5q0 -18 -5 -41.5t-14.5 -44.5t-23 -35.5t-30.5 -14.5q-13 0 -19 6t-6 15q0 13 5.5 24.5t5.5 31.5v9t-1 10z" />
    <glyph glyph-name="Egrave" unicode="&#xc8;" horiz-adv-x="598" 
d="M85 0zM459 724q16 0 30.5 -6t25 -16.5t17 -24.5t6.5 -29t-6.5 -29t-17 -24.5t-25 -16.5t-30.5 -6h-218v-126h186q30 0 51.5 -21t21.5 -50t-21.5 -49.5t-51.5 -20.5h-186v-152h218q32 0 55.5 -23t23.5 -54q0 -15 -6.5 -29t-17 -24.5t-25 -16.5t-30.5 -6h-296
q-32 0 -55 22.5t-23 54.5v571q0 15 6 29t16.5 24.5t25 16.5t30.5 6h296zM358 858q19 -22 19 -43q0 -20 -14.5 -32t-33.5 -12q-9 0 -19 3.5t-18 11.5l-92 88q-11 10 -15 20.5t-4 20.5q0 21 15.5 36t40.5 15q14 0 27.5 -6t27.5 -23z" />
    <glyph glyph-name="Eacute" unicode="&#xc9;" horiz-adv-x="598" 
d="M85 0zM459 724q16 0 30.5 -6t25 -16.5t17 -24.5t6.5 -29t-6.5 -29t-17 -24.5t-25 -16.5t-30.5 -6h-218v-126h186q30 0 51.5 -21t21.5 -50t-21.5 -49.5t-51.5 -20.5h-186v-152h218q32 0 55.5 -23t23.5 -54q0 -15 -6.5 -29t-17 -24.5t-25 -16.5t-30.5 -6h-296
q-32 0 -55 22.5t-23 54.5v571q0 15 6 29t16.5 24.5t25 16.5t30.5 6h296zM326 937q14 17 27.5 23t27.5 6q25 0 40.5 -15t15.5 -36q0 -10 -4 -20.5t-15 -20.5l-92 -88q-8 -8 -18 -11.5t-19 -3.5q-19 0 -33.5 12t-14.5 32q0 21 19 43z" />
    <glyph glyph-name="Ecircumflex" unicode="&#xca;" horiz-adv-x="598" 
d="M85 0zM459 724q16 0 30.5 -6t25 -16.5t17 -24.5t6.5 -29t-6.5 -29t-17 -24.5t-25 -16.5t-30.5 -6h-218v-126h186q30 0 51.5 -21t21.5 -50t-21.5 -49.5t-51.5 -20.5h-186v-152h218q32 0 55.5 -23t23.5 -54q0 -15 -6.5 -29t-17 -24.5t-25 -16.5t-30.5 -6h-296
q-32 0 -55 22.5t-23 54.5v571q0 15 6 29t16.5 24.5t25 16.5t30.5 6h296zM235 926q20 24 39.5 32t38.5 8q22 0 42 -9t38 -31l66 -80q4 -5 7.5 -12.5t3.5 -17.5q0 -20 -16 -33t-36 -13q-22 0 -39 20l-65 75l-65 -75q-8 -9 -17 -14.5t-22 -5.5q-19 0 -35.5 13t-16.5 33
q0 10 3.5 17.5t7.5 12.5z" />
    <glyph glyph-name="Edieresis" unicode="&#xcb;" horiz-adv-x="598" 
d="M85 0zM459 724q16 0 30.5 -6t25 -16.5t17 -24.5t6.5 -29t-6.5 -29t-17 -24.5t-25 -16.5t-30.5 -6h-218v-126h186q30 0 51.5 -21t21.5 -50t-21.5 -49.5t-51.5 -20.5h-186v-152h218q32 0 55.5 -23t23.5 -54q0 -15 -6.5 -29t-17 -24.5t-25 -16.5t-30.5 -6h-296
q-32 0 -55 22.5t-23 54.5v571q0 15 6 29t16.5 24.5t25 16.5t30.5 6h296zM331 872q0 32 22.5 54t57.5 22q34 0 56.5 -22t22.5 -54t-22.5 -54t-56.5 -22q-35 0 -57.5 22t-22.5 54zM127 872q0 32 22.5 54t57.5 22q34 0 56.5 -22t22.5 -54t-22.5 -54t-56.5 -22q-35 0 -57.5 22
t-22.5 54z" />
    <glyph glyph-name="Igrave" unicode="&#xcc;" horiz-adv-x="327" 
d="M35 0zM242 71q0 -15 -6.5 -28.5t-17 -24t-25 -16.5t-29.5 -6t-29.5 6t-25.5 16.5t-17.5 24t-6.5 28.5v582q0 31 24 53.5t55 22.5t54.5 -22.5t23.5 -53.5v-582zM212 858q19 -22 19 -43q0 -20 -14.5 -32t-33.5 -12q-9 0 -19 3.5t-18 11.5l-92 88q-11 10 -15 20.5t-4 20.5
q0 21 15.5 36t40.5 15q14 0 27.5 -6t27.5 -23z" />
    <glyph glyph-name="Iacute" unicode="&#xcd;" horiz-adv-x="327" 
d="M85 0zM242 71q0 -15 -6.5 -28.5t-17 -24t-25 -16.5t-29.5 -6t-29.5 6t-25.5 16.5t-17.5 24t-6.5 28.5v582q0 31 24 53.5t55 22.5t54.5 -22.5t23.5 -53.5v-582zM180 937q14 17 27.5 23t27.5 6q25 0 40.5 -15t15.5 -36q0 -10 -4 -20.5t-15 -20.5l-92 -88q-8 -8 -18 -11.5
t-19 -3.5q-19 0 -33.5 12t-14.5 32q0 21 19 43z" />
    <glyph glyph-name="Icircumflex" unicode="&#xce;" horiz-adv-x="327" 
d="M7 0zM242 71q0 -15 -6.5 -28.5t-17 -24t-25 -16.5t-29.5 -6t-29.5 6t-25.5 16.5t-17.5 24t-6.5 28.5v582q0 31 24 53.5t55 22.5t54.5 -22.5t23.5 -53.5v-582zM84 926q20 24 39.5 32t38.5 8q22 0 42 -9t38 -31l66 -80q4 -5 7.5 -12.5t3.5 -17.5q0 -20 -16 -33t-36 -13
q-22 0 -39 20l-65 75l-65 -75q-8 -9 -17 -14.5t-22 -5.5q-19 0 -35.5 13t-16.5 33q0 10 3.5 17.5t7.5 12.5z" />
    <glyph glyph-name="Idieresis" unicode="&#xcf;" horiz-adv-x="364" 
d="M0 0zM260 71q0 -15 -6.5 -28.5t-17 -24t-25 -16.5t-29.5 -6t-29.5 6t-25.5 16.5t-17.5 24t-6.5 28.5v582q0 31 24 53.5t55 22.5t54.5 -22.5t23.5 -53.5v-582zM204 872q0 32 22.5 54t57.5 22q34 0 56.5 -22t22.5 -54t-22.5 -54t-56.5 -22q-35 0 -57.5 22t-22.5 54zM0 872
q0 32 22.5 54t57.5 22q34 0 56.5 -22t22.5 -54t-22.5 -54t-56.5 -22q-35 0 -57.5 22t-22.5 54z" />
    <glyph glyph-name="Eth" unicode="&#xd0;" horiz-adv-x="686" 
d="M296 724q76 0 137 -22t104 -67t66.5 -114t23.5 -163q0 -183 -87.5 -270.5t-243.5 -87.5h-134q-15 0 -29 6t-24.5 16.5t-17 24.5t-6.5 30v228h-16q-29 0 -50.5 20.5t-21.5 49.5q0 14 6 27t15.5 22.5t22.5 15.5t28 6h16v202q0 31 23 53.5t54 22.5h134zM241 446h52
q15 0 28 -6t22.5 -15.5t15.5 -22.5t6 -27q0 -29 -21.5 -49.5t-50.5 -20.5h-52v-152h12q60 0 101.5 7.5t67.5 29.5t37.5 62.5t11.5 106.5q0 65 -11.5 106t-36 64.5t-64 32.5t-95.5 9h-23v-125z" />
    <glyph glyph-name="Ntilde" unicode="&#xd1;" horiz-adv-x="712" 
d="M85 0zM479 312v346q0 14 6 27t16 22.5t23 15.5t28 6q31 0 53 -21t22 -50v-587q0 -31 -23 -53t-58 -22q-26 0 -42.5 10.5t-26.5 26.5l-244 380v-346q0 -29 -22 -50t-52 -21t-52 21t-22 50v587q0 31 23 53t58 22q26 0 42 -10.5t27 -26.5zM186 925q8 15 25.5 25.5t46.5 10.5
q26 0 50 -8t45 -17.5t40 -17.5t35 -8q10 0 18 2.5t12 5.5q6 4 9 12.5t4 12.5q8 23 34 23q16 0 25 -11t9 -38q0 -15 -3 -30.5t-10 -27.5q-8 -14 -25.5 -24.5t-46.5 -10.5q-25 0 -48.5 8t-45 17t-41 17t-36.5 8q-9 0 -17 -2.5t-12 -4.5q-6 -5 -9 -13.5t-4 -11.5
q-8 -24 -34 -24q-16 0 -25 11t-9 39q0 14 3 29.5t10 27.5z" />
    <glyph glyph-name="Ograve" unicode="&#xd2;" horiz-adv-x="738" 
d="M62 0zM367 734q68 0 124.5 -25.5t97 -73.5t63 -117t22.5 -157q0 -87 -22 -156t-62.5 -117t-96.5 -73.5t-125 -25.5t-125 25.5t-96.5 73.5t-62.5 117t-22 156t22 156.5t62 117.5t96.5 73.5t124.5 25.5zM369 582q-37 0 -65 -16.5t-47 -45.5t-29 -69.5t-10 -89.5t10 -89.5
t29 -69.5t47 -45t65 -16q73 0 111 60.5t38 159.5q0 49 -9.5 90t-28.5 70t-47 45t-64 16zM418 858q19 -22 19 -43q0 -20 -14.5 -32t-33.5 -12q-9 0 -19 3.5t-18 11.5l-92 88q-11 10 -15 20.5t-4 20.5q0 21 15.5 36t40.5 15q14 0 27.5 -6t27.5 -23z" />
    <glyph glyph-name="Oacute" unicode="&#xd3;" horiz-adv-x="738" 
d="M62 0zM367 734q68 0 124.5 -25.5t97 -73.5t63 -117t22.5 -157q0 -87 -22 -156t-62.5 -117t-96.5 -73.5t-125 -25.5t-125 25.5t-96.5 73.5t-62.5 117t-22 156t22 156.5t62 117.5t96.5 73.5t124.5 25.5zM369 582q-37 0 -65 -16.5t-47 -45.5t-29 -69.5t-10 -89.5t10 -89.5
t29 -69.5t47 -45t65 -16q73 0 111 60.5t38 159.5q0 49 -9.5 90t-28.5 70t-47 45t-64 16zM386 937q14 17 27.5 23t27.5 6q25 0 40.5 -15t15.5 -36q0 -10 -4 -20.5t-15 -20.5l-92 -88q-8 -8 -18 -11.5t-19 -3.5q-19 0 -33.5 12t-14.5 32q0 21 19 43z" />
    <glyph glyph-name="Ocircumflex" unicode="&#xd4;" horiz-adv-x="738" 
d="M62 0zM367 734q68 0 124.5 -25.5t97 -73.5t63 -117t22.5 -157q0 -87 -22 -156t-62.5 -117t-96.5 -73.5t-125 -25.5t-125 25.5t-96.5 73.5t-62.5 117t-22 156t22 156.5t62 117.5t96.5 73.5t124.5 25.5zM369 582q-37 0 -65 -16.5t-47 -45.5t-29 -69.5t-10 -89.5t10 -89.5
t29 -69.5t47 -45t65 -16q73 0 111 60.5t38 159.5q0 49 -9.5 90t-28.5 70t-47 45t-64 16zM290 926q20 24 39.5 32t38.5 8q22 0 42 -9t38 -31l66 -80q4 -5 7.5 -12.5t3.5 -17.5q0 -20 -16 -33t-36 -13q-22 0 -39 20l-65 75l-65 -75q-8 -9 -17 -14.5t-22 -5.5q-19 0 -35.5 13
t-16.5 33q0 10 3.5 17.5t7.5 12.5z" />
    <glyph glyph-name="Otilde" unicode="&#xd5;" horiz-adv-x="738" 
d="M62 0zM367 734q68 0 124.5 -25.5t97 -73.5t63 -117t22.5 -157q0 -87 -22 -156t-62.5 -117t-96.5 -73.5t-125 -25.5t-125 25.5t-96.5 73.5t-62.5 117t-22 156t22 156.5t62 117.5t96.5 73.5t124.5 25.5zM369 582q-37 0 -65 -16.5t-47 -45.5t-29 -69.5t-10 -89.5t10 -89.5
t29 -69.5t47 -45t65 -16q73 0 111 60.5t38 159.5q0 49 -9.5 90t-28.5 70t-47 45t-64 16zM199 925q8 15 25.5 25.5t46.5 10.5q26 0 50 -8t45 -17.5t40 -17.5t35 -8q10 0 18 2.5t12 5.5q6 4 9 12.5t4 12.5q8 23 34 23q16 0 25 -11t9 -38q0 -15 -3 -30.5t-10 -27.5
q-8 -14 -25.5 -24.5t-46.5 -10.5q-25 0 -48.5 8t-45 17t-41 17t-36.5 8q-9 0 -17 -2.5t-12 -4.5q-6 -5 -9 -13.5t-4 -11.5q-8 -24 -34 -24q-16 0 -25 11t-9 39q0 14 3 29.5t10 27.5z" />
    <glyph glyph-name="Odieresis" unicode="&#xd6;" horiz-adv-x="738" 
d="M62 0zM367 734q68 0 124.5 -25.5t97 -73.5t63 -117t22.5 -157q0 -87 -22 -156t-62.5 -117t-96.5 -73.5t-125 -25.5t-125 25.5t-96.5 73.5t-62.5 117t-22 156t22 156.5t62 117.5t96.5 73.5t124.5 25.5zM369 582q-37 0 -65 -16.5t-47 -45.5t-29 -69.5t-10 -89.5t10 -89.5
t29 -69.5t47 -45t65 -16q73 0 111 60.5t38 159.5q0 49 -9.5 90t-28.5 70t-47 45t-64 16zM391 872q0 32 22.5 54t57.5 22q34 0 56.5 -22t22.5 -54t-22.5 -54t-56.5 -22q-35 0 -57.5 22t-22.5 54zM187 872q0 32 22.5 54t57.5 22q34 0 56.5 -22t22.5 -54t-22.5 -54t-56.5 -22
q-35 0 -57.5 22t-22.5 54z" />
    <glyph glyph-name="multiply" unicode="&#xd7;" 
d="M296 366l76 77q16 15 39 15t37.5 -14.5t14.5 -37.5t-15 -39l-77 -76l77 -78q8 -8 13 -18.5t3 -21.5q0 -22 -15 -37t-38 -15q-22 0 -39 17l-76 76l-78 -76q-17 -17 -39 -17t-37.5 15.5t-15.5 37.5t17 39l76 78l-76 76q-17 17 -17 40q0 22 15.5 36.5t38.5 14.5
q10 0 20 -3.5t18 -11.5z" />
    <glyph glyph-name="Oslash" unicode="&#xd8;" horiz-adv-x="738" 
d="M588 727q12 19 34 19q15 0 28 -11.5t13 -28.5q0 -14 -9 -26l-49 -66q69 -98 69 -252q0 -88 -22 -157t-62.5 -117t-96.5 -73.5t-125 -25.5q-105 0 -182 59l-40 -55q-14 -20 -34 -20q-17 0 -29.5 12t-12.5 29q0 13 10 26l50 69q-32 48 -50 111.5t-18 141.5q0 87 22 156
t62.5 117t96.5 73.5t125 25.5q108 0 180 -60zM279 174q36 -33 89 -33q37 0 65 16t47 45t28.5 69.5t9.5 89.5q0 66 -16 113zM456 549q-38 33 -88 33q-36 0 -64 -16t-47 -45.5t-29 -70t-10 -89.5q0 -67 16 -112z" />
    <glyph glyph-name="Ugrave" unicode="&#xd9;" horiz-adv-x="674" 
d="M80 0zM236 257q0 -55 26.5 -85.5t74.5 -30.5t74.5 30.5t26.5 85.5v397q0 30 22.5 52.5t54.5 22.5q16 0 30 -6t25 -16.5t17.5 -24t6.5 -28.5v-400q0 -60 -17 -108.5t-50 -83.5t-81.5 -54t-112.5 -19q-65 0 -112.5 20t-79 57.5t-46.5 91t-15 120.5v376q0 15 6.5 28.5t17 24
t24.5 16.5t30 6t30 -6t24.5 -16.5t17 -24t6.5 -28.5v-397zM386 858q19 -22 19 -43q0 -20 -14.5 -32t-33.5 -12q-9 0 -19 3.5t-18 11.5l-92 88q-11 10 -15 20.5t-4 20.5q0 21 15.5 36t40.5 15q14 0 27.5 -6t27.5 -23z" />
    <glyph glyph-name="Uacute" unicode="&#xda;" horiz-adv-x="674" 
d="M80 0zM236 257q0 -55 26.5 -85.5t74.5 -30.5t74.5 30.5t26.5 85.5v397q0 30 22.5 52.5t54.5 22.5q16 0 30 -6t25 -16.5t17.5 -24t6.5 -28.5v-400q0 -60 -17 -108.5t-50 -83.5t-81.5 -54t-112.5 -19q-65 0 -112.5 20t-79 57.5t-46.5 91t-15 120.5v376q0 15 6.5 28.5t17 24
t24.5 16.5t30 6t30 -6t24.5 -16.5t17 -24t6.5 -28.5v-397zM354 937q14 17 27.5 23t27.5 6q25 0 40.5 -15t15.5 -36q0 -10 -4 -20.5t-15 -20.5l-92 -88q-8 -8 -18 -11.5t-19 -3.5q-19 0 -33.5 12t-14.5 32q0 21 19 43z" />
    <glyph glyph-name="Ucircumflex" unicode="&#xdb;" horiz-adv-x="674" 
d="M80 0zM236 257q0 -55 26.5 -85.5t74.5 -30.5t74.5 30.5t26.5 85.5v397q0 30 22.5 52.5t54.5 22.5q16 0 30 -6t25 -16.5t17.5 -24t6.5 -28.5v-400q0 -60 -17 -108.5t-50 -83.5t-81.5 -54t-112.5 -19q-65 0 -112.5 20t-79 57.5t-46.5 91t-15 120.5v376q0 15 6.5 28.5t17 24
t24.5 16.5t30 6t30 -6t24.5 -16.5t17 -24t6.5 -28.5v-397zM258 926q20 24 39.5 32t38.5 8q22 0 42 -9t38 -31l66 -80q4 -5 7.5 -12.5t3.5 -17.5q0 -20 -16 -33t-36 -13q-22 0 -39 20l-65 75l-65 -75q-8 -9 -17 -14.5t-22 -5.5q-19 0 -35.5 13t-16.5 33q0 10 3.5 17.5
t7.5 12.5z" />
    <glyph glyph-name="Udieresis" unicode="&#xdc;" horiz-adv-x="674" 
d="M80 0zM236 257q0 -55 26.5 -85.5t74.5 -30.5t74.5 30.5t26.5 85.5v397q0 30 22.5 52.5t54.5 22.5q16 0 30 -6t25 -16.5t17.5 -24t6.5 -28.5v-400q0 -60 -17 -108.5t-50 -83.5t-81.5 -54t-112.5 -19q-65 0 -112.5 20t-79 57.5t-46.5 91t-15 120.5v376q0 15 6.5 28.5t17 24
t24.5 16.5t30 6t30 -6t24.5 -16.5t17 -24t6.5 -28.5v-397zM359 872q0 32 22.5 54t57.5 22q34 0 56.5 -22t22.5 -54t-22.5 -54t-56.5 -22q-35 0 -57.5 22t-22.5 54zM155 872q0 32 22.5 54t57.5 22q34 0 56.5 -22t22.5 -54t-22.5 -54t-56.5 -22q-35 0 -57.5 22t-22.5 54z" />
    <glyph glyph-name="Yacute" unicode="&#xdd;" horiz-adv-x="548" 
d="M7 0zM278 455l125 234q9 16 25 28t40 12q15 0 28 -6t23 -15.5t16 -22.5t6 -27q0 -13 -3.5 -22.5t-7.5 -16.5l-179 -305v-243q0 -15 -6.5 -28.5t-17.5 -24t-25.5 -16.5t-29.5 -6t-29.5 6t-25 16.5t-17 24t-6.5 28.5v242l-174 297q-13 22 -13 44q0 15 6.5 28.5t17.5 24
t25 16.5t30 6q24 0 41.5 -12t26.5 -29zM291 937q14 17 27.5 23t27.5 6q25 0 40.5 -15t15.5 -36q0 -10 -4 -20.5t-15 -20.5l-92 -88q-8 -8 -18 -11.5t-19 -3.5q-19 0 -33.5 12t-14.5 32q0 21 19 43z" />
    <glyph glyph-name="Thorn" unicode="&#xde;" horiz-adv-x="581" 
d="M249 604h50q52 0 97.5 -10t79.5 -35t53.5 -68t19.5 -108t-19 -108t-51.5 -69.5t-75.5 -37.5t-91 -11h-63v-86q0 -35 -23 -55t-54 -20q-32 0 -55.5 20.5t-23.5 54.5v582q0 34 23 55t55 21t55 -21t23 -55v-49zM249 296h68q32 0 54 20t22 65t-22.5 64t-54.5 19h-67v-168z
" />
    <glyph glyph-name="germandbls" unicode="&#xdf;" horiz-adv-x="617" 
d="M226 67q-2 -31 -23 -51t-47 -20q-39 0 -57 20t-18 51v476q0 43 13.5 82t39 68t63.5 46t86 17q99 0 153 -44t54 -119q0 -39 -11.5 -64.5t-25.5 -43t-25.5 -29t-11.5 -20.5q0 -14 12 -26.5t29.5 -25t37 -26t35.5 -29.5q22 -23 35 -58t13 -77q0 -45 -13.5 -83t-38 -65
t-58 -42t-73.5 -15q-27 0 -53.5 8t-47.5 23.5t-34.5 39t-13.5 55.5q0 12 3.5 24.5t11 23t18.5 17t26 6.5q20 0 32 -8.5t21 -18.5t17 -18.5t20 -8.5q39 0 39 56q0 24 -15.5 50t-55.5 49t-60 50.5t-20 69.5q0 28 10 47t21.5 36.5t21.5 37.5t10 50q0 23 -17.5 35.5t-35.5 12.5
q-29 0 -44.5 -22.5t-16.5 -64.5z" />
    <glyph glyph-name="agrave" unicode="&#xe0;" horiz-adv-x="489" 
d="M37 0zM268 340q0 40 -33 40q-18 0 -24.5 -9t-11.5 -22q-10 -22 -27.5 -34t-43.5 -12q-37 0 -53.5 22.5t-16.5 51.5q0 25 12 49t35.5 42t59 29t83.5 11q36 0 67.5 -8t54.5 -28t36 -54.5t13 -87.5v-201q0 -9 3 -16t6.5 -14.5t6.5 -15.5t3 -18q0 -28 -21.5 -48.5
t-54.5 -20.5q-21 0 -34 8t-21 19.5t-12.5 23t-7.5 18.5q-42 -76 -120 -76q-27 0 -50.5 8.5t-41 25t-28 41.5t-10.5 57q0 47 23 78q17 23 44 33t56 16.5l58 13t50 21.5v57zM272 215q-17 -13 -32.5 -21t-28.5 -15t-20.5 -15.5t-7.5 -21.5t7.5 -23.5t27.5 -10.5t33 10.5
t21 25.5v71zM293 654q19 -25 19 -47q0 -21 -14.5 -34t-33.5 -13q-9 0 -19 3.5t-18 12.5l-92 95q-11 11 -15 22t-4 22q0 23 15.5 39t40.5 16q14 0 27.5 -7t27.5 -24z" />
    <glyph glyph-name="aacute" unicode="&#xe1;" horiz-adv-x="489" 
d="M37 0zM268 340q0 40 -33 40q-18 0 -24.5 -9t-11.5 -22q-10 -22 -27.5 -34t-43.5 -12q-37 0 -53.5 22.5t-16.5 51.5q0 25 12 49t35.5 42t59 29t83.5 11q36 0 67.5 -8t54.5 -28t36 -54.5t13 -87.5v-201q0 -9 3 -16t6.5 -14.5t6.5 -15.5t3 -18q0 -28 -21.5 -48.5
t-54.5 -20.5q-21 0 -34 8t-21 19.5t-12.5 23t-7.5 18.5q-42 -76 -120 -76q-27 0 -50.5 8.5t-41 25t-28 41.5t-10.5 57q0 47 23 78q17 23 44 33t56 16.5l58 13t50 21.5v57zM272 215q-17 -13 -32.5 -21t-28.5 -15t-20.5 -15.5t-7.5 -21.5t7.5 -23.5t27.5 -10.5t33 10.5
t21 25.5v71zM261 739q14 17 27.5 24t27.5 7q25 0 40.5 -16t15.5 -39q0 -11 -4 -22t-15 -22l-92 -95q-8 -9 -18 -12.5t-19 -3.5q-19 0 -33.5 13t-14.5 34q0 22 19 47z" />
    <glyph glyph-name="acircumflex" unicode="&#xe2;" horiz-adv-x="489" 
d="M37 0zM268 340q0 40 -33 40q-18 0 -24.5 -9t-11.5 -22q-10 -22 -27.5 -34t-43.5 -12q-37 0 -53.5 22.5t-16.5 51.5q0 25 12 49t35.5 42t59 29t83.5 11q36 0 67.5 -8t54.5 -28t36 -54.5t13 -87.5v-201q0 -9 3 -16t6.5 -14.5t6.5 -15.5t3 -18q0 -28 -21.5 -48.5
t-54.5 -20.5q-21 0 -34 8t-21 19.5t-12.5 23t-7.5 18.5q-42 -76 -120 -76q-27 0 -50.5 8.5t-41 25t-28 41.5t-10.5 57q0 47 23 78q17 23 44 33t56 16.5l58 13t50 21.5v57zM272 215q-17 -13 -32.5 -21t-28.5 -15t-20.5 -15.5t-7.5 -21.5t7.5 -23.5t27.5 -10.5t33 10.5
t21 25.5v71zM165 727q20 26 39.5 34.5t38.5 8.5q22 0 42 -10t38 -33l66 -86q4 -5 7.5 -13t3.5 -19q0 -22 -16 -36t-36 -14q-21 0 -39 22l-65 80l-65 -80q-8 -10 -17 -16t-22 -6q-19 0 -35.5 13.5t-16.5 36.5q0 11 3.5 19t7.5 13z" />
    <glyph glyph-name="atilde" unicode="&#xe3;" horiz-adv-x="489" 
d="M37 0zM268 340q0 40 -33 40q-18 0 -24.5 -9t-11.5 -22q-10 -22 -27.5 -34t-43.5 -12q-37 0 -53.5 22.5t-16.5 51.5q0 25 12 49t35.5 42t59 29t83.5 11q36 0 67.5 -8t54.5 -28t36 -54.5t13 -87.5v-201q0 -9 3 -16t6.5 -14.5t6.5 -15.5t3 -18q0 -28 -21.5 -48.5
t-54.5 -20.5q-21 0 -34 8t-21 19.5t-12.5 23t-7.5 18.5q-42 -76 -120 -76q-27 0 -50.5 8.5t-41 25t-28 41.5t-10.5 57q0 47 23 78q17 23 44 33t56 16.5l58 13t50 21.5v57zM272 215q-17 -13 -32.5 -21t-28.5 -15t-20.5 -15.5t-7.5 -21.5t7.5 -23.5t27.5 -10.5t33 10.5
t21 25.5v71zM74 726q8 16 25.5 27t46.5 11q26 0 50 -8.5t45 -18.5t40 -18.5t35 -8.5q10 0 18 2.5t12 5.5q6 5 9 14t4 13q8 25 34 25q16 0 25 -12t9 -41q0 -16 -3 -32.5t-10 -29.5q-8 -16 -25.5 -27t-46.5 -11q-25 0 -48.5 8.5t-45 18.5t-41 18.5t-36.5 8.5q-9 0 -17 -2.5
t-12 -5.5q-6 -5 -9 -14t-4 -13q-8 -25 -34 -25q-16 0 -25 12t-9 41q0 16 3 32.5t10 29.5z" />
    <glyph glyph-name="adieresis" unicode="&#xe4;" horiz-adv-x="489" 
d="M37 0zM268 340q0 40 -33 40q-18 0 -24.5 -9t-11.5 -22q-10 -22 -27.5 -34t-43.5 -12q-37 0 -53.5 22.5t-16.5 51.5q0 25 12 49t35.5 42t59 29t83.5 11q36 0 67.5 -8t54.5 -28t36 -54.5t13 -87.5v-201q0 -9 3 -16t6.5 -14.5t6.5 -15.5t3 -18q0 -28 -21.5 -48.5
t-54.5 -20.5q-21 0 -34 8t-21 19.5t-12.5 23t-7.5 18.5q-42 -76 -120 -76q-27 0 -50.5 8.5t-41 25t-28 41.5t-10.5 57q0 47 23 78q17 23 44 33t56 16.5l58 13t50 21.5v57zM272 215q-17 -13 -32.5 -21t-28.5 -15t-20.5 -15.5t-7.5 -21.5t7.5 -23.5t27.5 -10.5t33 10.5
t21 25.5v71zM267 663q0 32 22.5 54t57.5 22q34 0 56.5 -22t22.5 -54t-22.5 -54t-56.5 -22q-35 0 -57.5 22t-22.5 54zM63 663q0 32 22.5 54t57.5 22q34 0 56.5 -22t22.5 -54t-22.5 -54t-56.5 -22q-35 0 -57.5 22t-22.5 54z" />
    <glyph glyph-name="aring" unicode="&#xe5;" horiz-adv-x="489" 
d="M37 0zM268 340q0 40 -33 40q-18 0 -24.5 -9t-11.5 -22q-10 -22 -27.5 -34t-43.5 -12q-37 0 -53.5 22.5t-16.5 51.5q0 25 12 49t35.5 42t59 29t83.5 11q36 0 67.5 -8t54.5 -28t36 -54.5t13 -87.5v-201q0 -9 3 -16t6.5 -14.5t6.5 -15.5t3 -18q0 -28 -21.5 -48.5
t-54.5 -20.5q-21 0 -34 8t-21 19.5t-12.5 23t-7.5 18.5q-42 -76 -120 -76q-27 0 -50.5 8.5t-41 25t-28 41.5t-10.5 57q0 47 23 78q17 23 44 33t56 16.5l58 13t50 21.5v57zM272 215q-17 -13 -32.5 -21t-28.5 -15t-20.5 -15.5t-7.5 -21.5t7.5 -23.5t27.5 -10.5t33 10.5
t21 25.5v71zM245 770q20 0 37.5 -7.5t30.5 -21t20.5 -31.5t7.5 -39q0 -45 -28 -72.5t-68 -27.5q-42 0 -69.5 27.5t-27.5 72.5q0 21 7.5 39t20.5 31.5t31 21t38 7.5zM245 724q-21 0 -35 -16t-14 -37q0 -22 14 -37t35 -15t34.5 15t13.5 37q0 21 -13.5 37t-34.5 16z" />
    <glyph glyph-name="ae" unicode="&#xe6;" horiz-adv-x="750" 
d="M268 340q0 40 -33 40q-18 0 -24.5 -9t-11.5 -22q-8 -20 -26 -33t-45 -13q-37 0 -53.5 22.5t-16.5 51.5q0 25 12.5 49t35.5 42t56 29t75 11q43 0 76 -13t53 -41q16 26 53.5 40t76.5 14q46 0 83 -17.5t63.5 -45t41 -61.5t14.5 -68q0 -48 -25.5 -69t-59.5 -21h-190
q1 -31 7 -51.5t15 -33t21 -18t26 -5.5q33 0 61 29q12 12 24 22.5t36 10.5q34 0 52.5 -21.5t18.5 -47.5q0 -17 -8 -33t-20 -29q-31 -32 -75.5 -46t-88.5 -14q-66 0 -112.5 28t-73.5 80q-10 -21 -23.5 -40.5t-30.5 -34.5t-38.5 -24t-48.5 -9q-23 0 -46 7.5t-41 23.5
t-29.5 41.5t-11.5 60.5q0 47 23 77q17 22 43.5 33t56 17.5t58 13t50.5 20.5v57zM544 309q-4 42 -19 56.5t-38 14.5t-41 -14.5t-23 -56.5h121zM272 215q-17 -14 -32.5 -22t-28.5 -14.5t-20.5 -14.5t-7.5 -23q0 -12 7.5 -22.5t27.5 -10.5q19 0 32.5 9.5t21.5 26.5v71z" />
    <glyph glyph-name="ccedilla" unicode="&#xe7;" horiz-adv-x="496" 
d="M42 0zM433 419q6 -10 11 -23t5 -28q0 -29 -19.5 -49.5t-51.5 -20.5q-17 0 -28.5 5.5t-19 13.5t-11.5 16t-6 14q-5 11 -17.5 22t-35.5 11q-14 0 -26.5 -6t-21.5 -21t-14.5 -40t-5.5 -62q0 -74 19 -103.5t48 -29.5q21 0 31 12t18 26t23.5 29.5t44.5 15.5q32 0 51 -20.5
t19 -48.5q0 -16 -5.5 -29.5t-10.5 -22.5q-23 -39 -68.5 -65t-105.5 -26q-48 0 -87.5 18.5t-67.5 53t-43.5 82.5t-15.5 107t15.5 107t44.5 81.5t70 51.5t91 18q59 0 103.5 -23.5t66.5 -65.5zM242 -125q-21 6 -29 22.5t-8 29.5q0 22 15.5 39t45.5 17q29 0 46.5 -16.5
t17.5 -51.5q0 -18 -5 -41.5t-14.5 -44.5t-23 -35.5t-30.5 -14.5q-13 0 -19 6t-6 15q0 13 5.5 24.5t5.5 31.5v9t-1 10z" />
    <glyph glyph-name="egrave" unicode="&#xe8;" horiz-adv-x="522" 
d="M47 0zM198 226q3 -61 21 -84.5t46 -23.5q37 0 63 29q11 12 24 22.5t36 10.5q32 0 51 -21.5t19 -48.5q0 -32 -28 -61q-31 -32 -74.5 -46t-86.5 -14q-53 0 -94 18.5t-69.5 53t-43.5 82t-15 106.5q0 60 15.5 107.5t44 81.5t68.5 52t90 18q53 0 92.5 -19t65 -48.5t38 -63.5
t12.5 -64q0 -47 -26 -67t-59 -20h-190zM319 309q-5 42 -19.5 56.5t-37.5 14.5t-41 -15t-23 -56h121zM310 654q19 -25 19 -47q0 -21 -14.5 -34t-33.5 -13q-9 0 -19 3.5t-18 12.5l-92 95q-11 11 -15 22t-4 22q0 23 15.5 39t40.5 16q14 0 27.5 -7t27.5 -24z" />
    <glyph glyph-name="eacute" unicode="&#xe9;" horiz-adv-x="522" 
d="M47 0zM198 226q3 -61 21 -84.5t46 -23.5q37 0 63 29q11 12 24 22.5t36 10.5q32 0 51 -21.5t19 -48.5q0 -32 -28 -61q-31 -32 -74.5 -46t-86.5 -14q-53 0 -94 18.5t-69.5 53t-43.5 82t-15 106.5q0 60 15.5 107.5t44 81.5t68.5 52t90 18q53 0 92.5 -19t65 -48.5t38 -63.5
t12.5 -64q0 -47 -26 -67t-59 -20h-190zM319 309q-5 42 -19.5 56.5t-37.5 14.5t-41 -15t-23 -56h121zM278 739q14 17 27.5 24t27.5 7q25 0 40.5 -16t15.5 -39q0 -11 -4 -22t-15 -22l-92 -95q-8 -9 -18 -12.5t-19 -3.5q-19 0 -33.5 13t-14.5 34q0 22 19 47z" />
    <glyph glyph-name="ecircumflex" unicode="&#xea;" horiz-adv-x="522" 
d="M47 0zM198 226q3 -61 21 -84.5t46 -23.5q37 0 63 29q11 12 24 22.5t36 10.5q32 0 51 -21.5t19 -48.5q0 -32 -28 -61q-31 -32 -74.5 -46t-86.5 -14q-53 0 -94 18.5t-69.5 53t-43.5 82t-15 106.5q0 60 15.5 107.5t44 81.5t68.5 52t90 18q53 0 92.5 -19t65 -48.5t38 -63.5
t12.5 -64q0 -47 -26 -67t-59 -20h-190zM319 309q-5 42 -19.5 56.5t-37.5 14.5t-41 -15t-23 -56h121zM182 727q20 26 39.5 34.5t38.5 8.5q22 0 42 -10t38 -33l66 -86q4 -5 7.5 -13t3.5 -19q0 -22 -16 -36t-36 -14q-21 0 -39 22l-65 80l-65 -80q-8 -10 -17 -16t-22 -6
q-19 0 -35.5 13.5t-16.5 36.5q0 11 3.5 19t7.5 13z" />
    <glyph glyph-name="edieresis" unicode="&#xeb;" horiz-adv-x="522" 
d="M47 0zM198 226q3 -61 21 -84.5t46 -23.5q37 0 63 29q11 12 24 22.5t36 10.5q32 0 51 -21.5t19 -48.5q0 -32 -28 -61q-31 -32 -74.5 -46t-86.5 -14q-53 0 -94 18.5t-69.5 53t-43.5 82t-15 106.5q0 60 15.5 107.5t44 81.5t68.5 52t90 18q53 0 92.5 -19t65 -48.5t38 -63.5
t12.5 -64q0 -47 -26 -67t-59 -20h-190zM319 309q-5 42 -19.5 56.5t-37.5 14.5t-41 -15t-23 -56h121zM283 663q0 32 22.5 54t57.5 22q34 0 56.5 -22t22.5 -54t-22.5 -54t-56.5 -22q-35 0 -57.5 22t-22.5 54zM79 663q0 32 22.5 54t57.5 22q34 0 56.5 -22t22.5 -54t-22.5 -54
t-56.5 -22q-35 0 -57.5 22t-22.5 54z" />
    <glyph glyph-name="igrave" unicode="&#xec;" horiz-adv-x="307" 
d="M25 0zM226 147q0 -18 1.5 -30t3.5 -20t3.5 -15t1.5 -15q0 -31 -22 -51t-55 -20q-56 0 -73 58q-5 18 -7.5 43t-2.5 49v283q0 31 21 52t53 21t54 -21t22 -52v-282zM202 654q19 -25 19 -47q0 -21 -14.5 -34t-33.5 -13q-9 0 -19 3.5t-18 12.5l-92 95q-11 11 -15 22t-4 22
q0 23 15.5 39t40.5 16q14 0 27.5 -7t27.5 -24z" />
    <glyph glyph-name="iacute" unicode="&#xed;" horiz-adv-x="307" 
d="M76 0zM226 147q0 -18 1.5 -30t3.5 -20t3.5 -15t1.5 -15q0 -31 -22 -51t-55 -20q-56 0 -73 58q-5 18 -7.5 43t-2.5 49v283q0 31 21 52t53 21t54 -21t22 -52v-282zM170 739q14 17 27.5 24t27.5 7q25 0 40.5 -16t15.5 -39q0 -11 -4 -22t-15 -22l-92 -95q-8 -9 -18 -12.5
t-19 -3.5q-19 0 -33.5 13t-14.5 34q0 22 19 47z" />
    <glyph glyph-name="icircumflex" unicode="&#xee;" horiz-adv-x="313" 
d="M0 0zM228 147q0 -18 1.5 -30t3.5 -20t3.5 -15t1.5 -15q0 -31 -22 -51t-55 -20q-56 0 -73 58q-5 18 -7.5 43t-2.5 49v283q0 31 21 52t53 21t54 -21t22 -52v-282zM77 727q20 26 39.5 34.5t38.5 8.5q22 0 42 -10t38 -33l66 -86q4 -5 7.5 -13t3.5 -19q0 -22 -16 -36t-36 -14
q-21 0 -39 22l-65 80l-65 -80q-8 -10 -17 -16t-22 -6q-19 0 -35.5 13.5t-16.5 36.5q0 11 3.5 19t7.5 13z" />
    <glyph glyph-name="idieresis" unicode="&#xef;" horiz-adv-x="366" 
d="M1 0zM255 147q0 -18 1.5 -30t3.5 -20t3.5 -15t1.5 -15q0 -31 -22 -51t-55 -20q-56 0 -73 58q-5 18 -7.5 43t-2.5 49v283q0 31 21 52t53 21t54 -21t22 -52v-282zM205 663q0 32 22.5 54t57.5 22q34 0 56.5 -22t22.5 -54t-22.5 -54t-56.5 -22q-35 0 -57.5 22t-22.5 54z
M1 663q0 32 22.5 54t57.5 22q34 0 56.5 -22t22.5 -54t-22.5 -54t-56.5 -22q-35 0 -57.5 22t-22.5 54z" />
    <glyph glyph-name="eth" unicode="&#xf0;" horiz-adv-x="517" 
d="M204 606q-28 30 -38.5 44.5t-10.5 32.5q0 31 22 52t51 21q26 0 52.5 -18.5t46.5 -47.5l60 41q8 8 23 8q17 0 29 -11t12 -30q0 -10 -4.5 -20t-13.5 -15l-59 -40q47 -81 74.5 -171t27.5 -185q0 -133 -56 -205.5t-158 -72.5q-56 0 -97.5 21t-69 56t-41 79.5t-13.5 91.5
q0 45 12 83t34.5 65.5t54 42.5t69.5 15q35 0 65.5 -13t51.5 -39q-7 42 -25 80t-44 72l-70 -46q-10 -8 -24 -8q-17 0 -29 10.5t-12 29.5q0 10 4.5 20t13.5 16zM327 258q-7 33 -20.5 57t-45.5 24q-33 0 -51 -27.5t-18 -73.5q0 -43 16.5 -74.5t48.5 -31.5q33 0 51.5 34.5
t18.5 91.5z" />
    <glyph glyph-name="ntilde" unicode="&#xf1;" horiz-adv-x="535" 
d="M50 0zM211 68q0 -30 -21.5 -51t-53.5 -21t-54 21t-22 51v283q0 18 -1.5 29.5t-3.5 20t-3.5 15t-1.5 15.5q0 31 21.5 51t53.5 20q24 0 43 -12.5t28 -35.5l14 14t23 18t33 15.5t44 6.5q69 0 108 -53.5t39 -153.5v-154q0 -19 1.5 -30.5t4 -20t4 -15t1.5 -15.5q0 -30 -22 -50
t-56 -20q-25 0 -41 12t-25.5 32t-13 47.5t-3.5 58.5v167q0 13 -2.5 26.5t-9 25t-19 18.5t-31.5 7q-11 0 -19 -2t-15 -4v-316zM89 726q8 16 25.5 27t46.5 11q26 0 50 -8.5t45 -18.5t40 -18.5t35 -8.5q10 0 18 2.5t12 5.5q6 5 9 14t4 13q8 25 34 25q16 0 25 -12t9 -41
q0 -16 -3 -32.5t-10 -29.5q-8 -16 -25.5 -27t-46.5 -11q-25 0 -48.5 8.5t-45 18.5t-41 18.5t-36.5 8.5q-9 0 -17 -2.5t-12 -5.5q-6 -5 -9 -14t-4 -13q-8 -25 -34 -25q-16 0 -25 12t-9 41q0 16 3 32.5t10 29.5z" />
    <glyph glyph-name="ograve" unicode="&#xf2;" horiz-adv-x="531" 
d="M41 0zM266 369q-36 0 -55 -26t-19 -92t19 -95t55 -29q35 0 54 29t19 95t-19 92t-54 26zM266 508q109 0 166 -67t57 -189q0 -123 -57 -193t-166 -70t-167 70.5t-58 192.5q0 121 58 188.5t167 67.5zM314 654q19 -25 19 -47q0 -21 -14.5 -34t-33.5 -13q-9 0 -19 3.5
t-18 12.5l-92 95q-11 11 -15 22t-4 22q0 23 15.5 39t40.5 16q14 0 27.5 -7t27.5 -24z" />
    <glyph glyph-name="oacute" unicode="&#xf3;" horiz-adv-x="531" 
d="M41 0zM266 369q-36 0 -55 -26t-19 -92t19 -95t55 -29q35 0 54 29t19 95t-19 92t-54 26zM266 508q109 0 166 -67t57 -189q0 -123 -57 -193t-166 -70t-167 70.5t-58 192.5q0 121 58 188.5t167 67.5zM282 739q14 17 27.5 24t27.5 7q25 0 40.5 -16t15.5 -39q0 -11 -4 -22
t-15 -22l-92 -95q-8 -9 -18 -12.5t-19 -3.5q-19 0 -33.5 13t-14.5 34q0 22 19 47z" />
    <glyph glyph-name="ocircumflex" unicode="&#xf4;" horiz-adv-x="531" 
d="M41 0zM266 369q-36 0 -55 -26t-19 -92t19 -95t55 -29q35 0 54 29t19 95t-19 92t-54 26zM266 508q109 0 166 -67t57 -189q0 -123 -57 -193t-166 -70t-167 70.5t-58 192.5q0 121 58 188.5t167 67.5zM186 727q20 26 39.5 34.5t38.5 8.5q22 0 42 -10t38 -33l66 -86
q4 -5 7.5 -13t3.5 -19q0 -22 -16 -36t-36 -14q-21 0 -39 22l-65 80l-65 -80q-8 -10 -17 -16t-22 -6q-19 0 -35.5 13.5t-16.5 36.5q0 11 3.5 19t7.5 13z" />
    <glyph glyph-name="otilde" unicode="&#xf5;" horiz-adv-x="531" 
d="M41 0zM266 369q-36 0 -55 -26t-19 -92t19 -95t55 -29q35 0 54 29t19 95t-19 92t-54 26zM266 508q109 0 166 -67t57 -189q0 -123 -57 -193t-166 -70t-167 70.5t-58 192.5q0 121 58 188.5t167 67.5zM95 726q8 16 25.5 27t46.5 11q26 0 50 -8.5t45 -18.5t40 -18.5t35 -8.5
q10 0 18 2.5t12 5.5q6 5 9 14t4 13q8 25 34 25q16 0 25 -12t9 -41q0 -16 -3 -32.5t-10 -29.5q-8 -16 -25.5 -27t-46.5 -11q-25 0 -48.5 8.5t-45 18.5t-41 18.5t-36.5 8.5q-9 0 -17 -2.5t-12 -5.5q-6 -5 -9 -14t-4 -13q-8 -25 -34 -25q-16 0 -25 12t-9 41q0 16 3 32.5
t10 29.5z" />
    <glyph glyph-name="odieresis" unicode="&#xf6;" horiz-adv-x="531" 
d="M41 0zM266 369q-36 0 -55 -26t-19 -92t19 -95t55 -29q35 0 54 29t19 95t-19 92t-54 26zM266 508q109 0 166 -67t57 -189q0 -123 -57 -193t-166 -70t-167 70.5t-58 192.5q0 121 58 188.5t167 67.5zM288 663q0 32 22.5 54t57.5 22q34 0 56.5 -22t22.5 -54t-22.5 -54
t-56.5 -22q-35 0 -57.5 22t-22.5 54zM84 663q0 32 22.5 54t57.5 22q34 0 56.5 -22t22.5 -54t-22.5 -54t-56.5 -22q-35 0 -57.5 22t-22.5 54z" />
    <glyph glyph-name="divide" unicode="&#xf7;" 
d="M79 43zM458 344q23 0 39.5 -15.5t16.5 -37.5t-16.5 -38t-39.5 -16h-325q-22 0 -38 16t-16 38t16 37.5t38 15.5h325zM211 126q0 17 7 32t18.5 26t27 17.5t33.5 6.5q36 0 61.5 -24t25.5 -58q0 -17 -7 -32.5t-18.5 -26.5t-27 -17.5t-33.5 -6.5q-36 0 -61.5 24t-25.5 59z
M211 456q0 17 7 32t18.5 26t27 17.5t33.5 6.5q36 0 61.5 -24t25.5 -58q0 -17 -7 -32.5t-18.5 -26.5t-27 -17.5t-33.5 -6.5q-36 0 -61.5 24t-25.5 59z" />
    <glyph glyph-name="oslash" unicode="&#xf8;" horiz-adv-x="531" 
d="M407 507q14 17 33 17q16 0 29 -12t13 -29q0 -13 -9 -26l-27 -37q43 -64 43 -168q0 -122 -57 -192.5t-166 -70.5q-35 0 -64 8t-53 22l-22 -29q-7 -9 -14.5 -14t-18.5 -5q-17 0 -29.5 12t-12.5 30q0 14 9 26l27 37q-47 65 -47 175q0 123 58 190t167 67q71 0 119 -30z
M308 377q-17 11 -43 11q-41 0 -62.5 -30t-21.5 -106q0 -14 0.5 -25.5t1.5 -21.5zM223 120q19 -11 43 -11q42 0 63.5 33t21.5 107q0 14 -0.5 23.5t-1.5 18.5z" />
    <glyph glyph-name="ugrave" unicode="&#xf9;" horiz-adv-x="558" 
d="M74 0zM226 193q0 -61 56 -61t56 60v238q0 31 21.5 51.5t53.5 20.5q31 0 52.5 -20.5t21.5 -51.5v-233q0 -37 -7 -74t-29 -67t-61.5 -48.5t-105.5 -18.5t-107 18.5t-64 48.5t-31 67.5t-8 74.5v232q0 31 22 51.5t54 20.5t54 -20.5t22 -51.5v-237zM328 654q19 -25 19 -47
q0 -21 -14.5 -34t-33.5 -13q-9 0 -19 3.5t-18 12.5l-92 95q-11 11 -15 22t-4 22q0 23 15.5 39t40.5 16q14 0 27.5 -7t27.5 -24z" />
    <glyph glyph-name="uacute" unicode="&#xfa;" horiz-adv-x="558" 
d="M74 0zM226 193q0 -61 56 -61t56 60v238q0 31 21.5 51.5t53.5 20.5q31 0 52.5 -20.5t21.5 -51.5v-233q0 -37 -7 -74t-29 -67t-61.5 -48.5t-105.5 -18.5t-107 18.5t-64 48.5t-31 67.5t-8 74.5v232q0 31 22 51.5t54 20.5t54 -20.5t22 -51.5v-237zM296 739q14 17 27.5 24
t27.5 7q25 0 40.5 -16t15.5 -39q0 -11 -4 -22t-15 -22l-92 -95q-8 -9 -18 -12.5t-19 -3.5q-19 0 -33.5 13t-14.5 34q0 22 19 47z" />
    <glyph glyph-name="ucircumflex" unicode="&#xfb;" horiz-adv-x="558" 
d="M74 0zM226 193q0 -61 56 -61t56 60v238q0 31 21.5 51.5t53.5 20.5q31 0 52.5 -20.5t21.5 -51.5v-233q0 -37 -7 -74t-29 -67t-61.5 -48.5t-105.5 -18.5t-107 18.5t-64 48.5t-31 67.5t-8 74.5v232q0 31 22 51.5t54 20.5t54 -20.5t22 -51.5v-237zM200 727q20 26 39.5 34.5
t38.5 8.5q22 0 42 -10t38 -33l66 -86q4 -5 7.5 -13t3.5 -19q0 -22 -16 -36t-36 -14q-21 0 -39 22l-65 80l-65 -80q-8 -10 -17 -16t-22 -6q-19 0 -35.5 13.5t-16.5 36.5q0 11 3.5 19t7.5 13z" />
    <glyph glyph-name="udieresis" unicode="&#xfc;" horiz-adv-x="558" 
d="M74 0zM226 193q0 -61 56 -61t56 60v238q0 31 21.5 51.5t53.5 20.5q31 0 52.5 -20.5t21.5 -51.5v-233q0 -37 -7 -74t-29 -67t-61.5 -48.5t-105.5 -18.5t-107 18.5t-64 48.5t-31 67.5t-8 74.5v232q0 31 22 51.5t54 20.5t54 -20.5t22 -51.5v-237zM301 663q0 32 22.5 54
t57.5 22q34 0 56.5 -22t22.5 -54t-22.5 -54t-56.5 -22q-35 0 -57.5 22t-22.5 54zM97 663q0 32 22.5 54t57.5 22q34 0 56.5 -22t22.5 -54t-22.5 -54t-56.5 -22q-35 0 -57.5 22t-22.5 54z" />
    <glyph glyph-name="yacute" unicode="&#xfd;" horiz-adv-x="444" 
d="M7 0zM220 237l67 216q6 22 25 35.5t44 13.5q30 0 50.5 -19.5t20.5 -48.5q0 -11 -5 -24l-179 -496q-14 -38 -35.5 -68t-56.5 -54q-20 -15 -48 -15q-32 0 -53.5 20t-21.5 51q0 21 10 37.5t27 24.5t31 18.5t20 30.5l31 87l-134 351l-4 14t-2 18q0 32 21.5 52.5t55.5 20.5
q33 0 50 -17t24 -40zM239 739q14 17 27.5 24t27.5 7q25 0 40.5 -16t15.5 -39q0 -11 -4 -22t-15 -22l-92 -95q-8 -9 -18 -12.5t-19 -3.5q-19 0 -33.5 13t-14.5 34q0 22 19 47z" />
    <glyph glyph-name="thorn" unicode="&#xfe;" horiz-adv-x="529" 
d="M216 453q22 29 51.5 42t62.5 13q48 0 78 -23t47.5 -59.5t23.5 -83t6 -93.5t-6 -93.5t-23 -83.5t-47 -60t-78 -23q-72 0 -115 59v-200q0 -30 -21.5 -51t-53.5 -21t-54 21t-22 51v836q0 30 22 51t54 21t53.5 -21t21.5 -51v-231zM216 128q22 -13 47 -13q37 0 54 31t17 106
q0 70 -16 100t-57 30q-10 0 -22 -2.5t-23 -10.5v-241z" />
    <glyph glyph-name="ydieresis" unicode="&#xff;" horiz-adv-x="444" 
d="M7 0zM220 237l67 216q6 22 25 35.5t44 13.5q30 0 50.5 -19.5t20.5 -48.5q0 -11 -5 -24l-179 -496q-14 -38 -35.5 -68t-56.5 -54q-20 -15 -48 -15q-32 0 -53.5 20t-21.5 51q0 21 10 37.5t27 24.5t31 18.5t20 30.5l31 87l-134 351l-4 14t-2 18q0 32 21.5 52.5t55.5 20.5
q33 0 50 -17t24 -40zM244 663q0 32 22.5 54t57.5 22q34 0 56.5 -22t22.5 -54t-22.5 -54t-56.5 -22q-35 0 -57.5 22t-22.5 54zM40 663q0 32 22.5 54t57.5 22q34 0 56.5 -22t22.5 -54t-22.5 -54t-56.5 -22q-35 0 -57.5 22t-22.5 54z" />
    <glyph glyph-name="Amacron" unicode="&#x100;" horiz-adv-x="573" 
d="M8 0zM560 102q5 -15 5 -31q0 -30 -19.5 -52.5t-57.5 -22.5q-29 0 -47.5 14.5t-26.5 37.5l-28 85h-207l-28 -89q-6 -20 -24 -34t-47 -14q-35 0 -53.5 20.5t-18.5 49.5q0 15 6 32l199 581q7 20 25 35t48 15t49 -15t26 -35zM219 266h127l-64 196zM430 919q20 0 34.5 -13.5
t14.5 -30.5t-14.5 -30.5t-34.5 -13.5h-286q-20 0 -35 13.5t-15 30.5t15 30.5t35 13.5h286z" />
    <glyph glyph-name="amacron" unicode="&#x101;" horiz-adv-x="489" 
d="M37 0zM268 340q0 40 -33 40q-18 0 -24.5 -9t-11.5 -22q-10 -22 -27.5 -34t-43.5 -12q-37 0 -53.5 22.5t-16.5 51.5q0 25 12 49t35.5 42t59 29t83.5 11q36 0 67.5 -8t54.5 -28t36 -54.5t13 -87.5v-201q0 -9 3 -16t6.5 -14.5t6.5 -15.5t3 -18q0 -28 -21.5 -48.5
t-54.5 -20.5q-21 0 -34 8t-21 19.5t-12.5 23t-7.5 18.5q-42 -76 -120 -76q-27 0 -50.5 8.5t-41 25t-28 41.5t-10.5 57q0 47 23 78q17 23 44 33t56 16.5l58 13t50 21.5v57zM272 215q-17 -13 -32.5 -21t-28.5 -15t-20.5 -15.5t-7.5 -21.5t7.5 -23.5t27.5 -10.5t33 10.5
t21 25.5v71zM388 719q20 0 34.5 -14.5t14.5 -32.5q0 -19 -14.5 -33t-34.5 -14h-286q-20 0 -35 14t-15 33q0 18 15 32.5t35 14.5h286z" />
    <glyph glyph-name="Abreve" unicode="&#x102;" horiz-adv-x="573" 
d="M8 0zM560 102q5 -15 5 -31q0 -30 -19.5 -52.5t-57.5 -22.5q-29 0 -47.5 14.5t-26.5 37.5l-28 85h-207l-28 -89q-6 -20 -24 -34t-47 -14q-35 0 -53.5 20.5t-18.5 49.5q0 15 6 32l199 581q7 20 25 35t48 15t49 -15t26 -35zM219 266h127l-64 196zM95 909q0 17 9 24t24 7
q14 0 24 -6t19 -14q22 -20 46.5 -29.5t68.5 -9.5t68.5 9.5t46.5 29.5q9 8 19 14t24 6q15 0 24 -7t9 -24q0 -21 -11.5 -37.5t-22.5 -25.5q-23 -20 -60.5 -32.5t-96.5 -12.5t-96.5 12.5t-60.5 32.5q-11 9 -22.5 25.5t-11.5 37.5z" />
    <glyph glyph-name="abreve" unicode="&#x103;" horiz-adv-x="489" 
d="M37 0zM268 340q0 40 -33 40q-18 0 -24.5 -9t-11.5 -22q-10 -22 -27.5 -34t-43.5 -12q-37 0 -53.5 22.5t-16.5 51.5q0 25 12 49t35.5 42t59 29t83.5 11q36 0 67.5 -8t54.5 -28t36 -54.5t13 -87.5v-201q0 -9 3 -16t6.5 -14.5t6.5 -15.5t3 -18q0 -28 -21.5 -48.5
t-54.5 -20.5q-21 0 -34 8t-21 19.5t-12.5 23t-7.5 18.5q-42 -76 -120 -76q-27 0 -50.5 8.5t-41 25t-28 41.5t-10.5 57q0 47 23 78q17 23 44 33t56 16.5l58 13t50 21.5v57zM272 215q-17 -13 -32.5 -21t-28.5 -15t-20.5 -15.5t-7.5 -21.5t7.5 -23.5t27.5 -10.5t33 10.5
t21 25.5v71zM86 742q14 0 24 -6.5t19 -15.5q22 -21 46.5 -31.5t68.5 -10.5t68.5 10.5t46.5 31.5q9 9 19 15.5t24 6.5q15 0 24 -8t9 -26q0 -23 -11.5 -40t-22.5 -27q-23 -22 -60.5 -35.5t-96.5 -13.5t-96.5 13.5t-60.5 35.5q-11 10 -22.5 27t-11.5 40q0 18 9 26t24 8z" />
    <glyph glyph-name="Aogonek" unicode="&#x104;" horiz-adv-x="586" 
d="M560 102q5 -15 5 -31q0 -26 -13.5 -41t-25.5 -24q-37 -28 -51.5 -49.5t-14.5 -41.5q0 -28 25 -28q10 0 22 3t24 3q23 0 35 -13t12 -31q0 -12 -7 -23.5t-24 -19.5q-19 -9 -39.5 -12t-34.5 -3q-48 0 -78 26t-30 70q0 39 24 68t64 49q-30 13 -39 44l-28 85h-207l-28 -89
q-7 -22 -24.5 -35t-45.5 -13q-35 0 -54 20.5t-19 49.5q0 15 6 32l199 581q7 21 26 35.5t47 14.5q30 0 49.5 -15.5t25.5 -34.5zM219 266h127l-64 197z" />
    <glyph glyph-name="aogonek" unicode="&#x105;" horiz-adv-x="489" 
d="M268 340q0 40 -33 40q-18 0 -24.5 -9t-11.5 -22q-10 -22 -27.5 -34t-43.5 -12q-37 0 -53.5 22.5t-16.5 51.5q0 25 12 49t35.5 42t59 29t83.5 11q36 0 67.5 -8t54.5 -28t36 -54.5t13 -87.5v-201q0 -9 3 -16.5t6.5 -14.5t6.5 -15t3 -19q0 -19 -8.5 -31t-19.5 -23
q-11 -9 -23 -19.5t-22 -22.5t-17 -25t-7 -28q0 -28 25 -28q10 0 22 3t24 3q23 0 35 -13t12 -31q0 -12 -7 -23.5t-24 -19.5q-19 -9 -39.5 -12t-34.5 -3q-48 0 -78 26t-30 70q0 42 25 70t59 45q-21 11 -29.5 30t-13.5 33q-42 -76 -120 -76q-27 0 -50.5 8.5t-41 25t-28 41.5
t-10.5 57q0 47 23 78q17 23 44 33t56 16.5l58 13t50 21.5v57zM272 215q-17 -13 -32.5 -21t-28.5 -15t-20.5 -15.5t-7.5 -21.5t7.5 -23.5t27.5 -10.5t33 10.5t21 25.5v71z" />
    <glyph glyph-name="Cacute" unicode="&#x106;" horiz-adv-x="662" 
d="M57 0zM359 734q43 0 81.5 -11t70 -29t55.5 -42.5t38 -51.5q15 -30 15 -50q0 -28 -22.5 -51t-56.5 -23q-18 0 -36 8.5t-30 28.5q-2 2 -6.5 11.5t-9.5 14.5q-39 43 -96 43q-36 0 -64 -16.5t-47 -46.5t-28.5 -71.5t-9.5 -90.5q0 -47 9 -86.5t27.5 -68t48 -45t70.5 -16.5
q21 0 44.5 9t46.5 46q11 18 27 35t47 17q36 0 58 -23.5t22 -50.5q0 -8 -2.5 -20.5t-7.5 -25.5q-12 -29 -37 -54.5t-58.5 -44.5t-73.5 -29.5t-82 -10.5q-66 0 -120 26.5t-93 75t-60.5 116.5t-21.5 151t21.5 152t61 119t95.5 77.5t124 27.5zM368 937q14 17 27.5 23t27.5 6
q25 0 40.5 -15t15.5 -36q0 -10 -4 -20.5t-15 -20.5l-92 -88q-8 -8 -18 -11.5t-19 -3.5q-19 0 -33.5 12t-14.5 32q0 21 19 43z" />
    <glyph glyph-name="cacute" unicode="&#x107;" horiz-adv-x="496" 
d="M42 0zM433 419q6 -10 11 -23t5 -28q0 -29 -19.5 -49.5t-51.5 -20.5q-17 0 -28.5 5.5t-19 13.5t-11.5 16t-6 14q-5 11 -17.5 22t-35.5 11q-14 0 -26.5 -6t-21.5 -21t-14.5 -40t-5.5 -62q0 -74 19 -103.5t48 -29.5q21 0 31 12t18 26t23.5 29.5t44.5 15.5q32 0 51 -20.5
t19 -48.5q0 -16 -5.5 -29.5t-10.5 -22.5q-23 -39 -68.5 -65t-105.5 -26q-48 0 -87.5 18.5t-67.5 53t-43.5 82.5t-15.5 107t15.5 107t44.5 81.5t70 51.5t91 18q59 0 103.5 -23.5t66.5 -65.5zM275 739q14 17 27.5 24t27.5 7q25 0 40.5 -16t15.5 -39q0 -11 -4 -22t-15 -22
l-92 -95q-8 -9 -18 -12.5t-19 -3.5q-19 0 -33.5 13t-14.5 34q0 22 19 47z" />
    <glyph glyph-name="Cdotaccent" unicode="&#x10a;" horiz-adv-x="662" 
d="M57 0zM359 734q43 0 81.5 -11t70 -29t55.5 -42.5t38 -51.5q15 -30 15 -50q0 -28 -22.5 -51t-56.5 -23q-18 0 -36 8.5t-30 28.5q-2 2 -6.5 11.5t-9.5 14.5q-39 43 -96 43q-36 0 -64 -16.5t-47 -46.5t-28.5 -71.5t-9.5 -90.5q0 -47 9 -86.5t27.5 -68t48 -45t70.5 -16.5
q21 0 44.5 9t46.5 46q11 18 27 35t47 17q36 0 58 -23.5t22 -50.5q0 -8 -2.5 -20.5t-7.5 -25.5q-12 -29 -37 -54.5t-58.5 -44.5t-73.5 -29.5t-82 -10.5q-66 0 -120 26.5t-93 75t-60.5 116.5t-21.5 151t21.5 152t61 119t95.5 77.5t124 27.5zM271 872q0 32 22.5 54t57.5 22
q34 0 56.5 -22t22.5 -54t-22.5 -54t-56.5 -22q-35 0 -57.5 22t-22.5 54z" />
    <glyph glyph-name="cdotaccent" unicode="&#x10b;" horiz-adv-x="496" 
d="M42 0zM433 419q6 -10 11 -23t5 -28q0 -29 -19.5 -49.5t-51.5 -20.5q-17 0 -28.5 5.5t-19 13.5t-11.5 16t-6 14q-5 11 -17.5 22t-35.5 11q-14 0 -26.5 -6t-21.5 -21t-14.5 -40t-5.5 -62q0 -74 19 -103.5t48 -29.5q21 0 31 12t18 26t23.5 29.5t44.5 15.5q32 0 51 -20.5
t19 -48.5q0 -16 -5.5 -29.5t-10.5 -22.5q-23 -39 -68.5 -65t-105.5 -26q-48 0 -87.5 18.5t-67.5 53t-43.5 82.5t-15.5 107t15.5 107t44.5 81.5t70 51.5t91 18q59 0 103.5 -23.5t66.5 -65.5zM178 663q0 32 22.5 54t57.5 22q34 0 56.5 -22t22.5 -54t-22.5 -54t-56.5 -22
q-35 0 -57.5 22t-22.5 54z" />
    <glyph glyph-name="Ccaron" unicode="&#x10c;" horiz-adv-x="662" 
d="M57 0zM359 734q43 0 81.5 -11t70 -29t55.5 -42.5t38 -51.5q15 -30 15 -50q0 -28 -22.5 -51t-56.5 -23q-18 0 -36 8.5t-30 28.5q-2 2 -6.5 11.5t-9.5 14.5q-39 43 -96 43q-36 0 -64 -16.5t-47 -46.5t-28.5 -71.5t-9.5 -90.5q0 -47 9 -86.5t27.5 -68t48 -45t70.5 -16.5
q21 0 44.5 9t46.5 46q11 18 27 35t47 17q36 0 58 -23.5t22 -50.5q0 -8 -2.5 -20.5t-7.5 -25.5q-12 -29 -37 -54.5t-58.5 -44.5t-73.5 -29.5t-82 -10.5q-66 0 -120 26.5t-93 75t-60.5 116.5t-21.5 151t21.5 152t61 119t95.5 77.5t124 27.5zM351 871l65 75q8 9 17 14.5t22 5.5
q19 0 35.5 -12.5t16.5 -33.5q0 -10 -3.5 -17.5t-7.5 -12.5l-66 -80q-20 -24 -39.5 -32t-38.5 -8q-22 0 -42 9t-38 31l-66 80q-4 5 -7.5 12.5t-3.5 17.5q0 20 16 33t36 13q22 0 39 -20z" />
    <glyph glyph-name="ccaron" unicode="&#x10d;" horiz-adv-x="496" 
d="M42 0zM433 419q6 -10 11 -23t5 -28q0 -29 -19.5 -49.5t-51.5 -20.5q-17 0 -28.5 5.5t-19 13.5t-11.5 16t-6 14q-5 11 -17.5 22t-35.5 11q-14 0 -26.5 -6t-21.5 -21t-14.5 -40t-5.5 -62q0 -74 19 -103.5t48 -29.5q21 0 31 12t18 26t23.5 29.5t44.5 15.5q32 0 51 -20.5
t19 -48.5q0 -16 -5.5 -29.5t-10.5 -22.5q-23 -39 -68.5 -65t-105.5 -26q-48 0 -87.5 18.5t-67.5 53t-43.5 82.5t-15.5 107t15.5 107t44.5 81.5t70 51.5t91 18q59 0 103.5 -23.5t66.5 -65.5zM258 668l65 80q8 10 17 16t22 6q19 0 35.5 -13.5t16.5 -36.5q0 -11 -3.5 -19
t-7.5 -13l-66 -86q-20 -26 -39.5 -34.5t-38.5 -8.5q-22 0 -42 10t-38 33l-66 86q-4 5 -7.5 13t-3.5 19q0 22 16 36t36 14q21 0 39 -22z" />
    <glyph glyph-name="Dcaron" unicode="&#x10e;" horiz-adv-x="686" 
d="M85 0zM296 724q76 0 137 -22t104 -67t66.5 -114t23.5 -163q0 -183 -87.5 -270.5t-243.5 -87.5h-134q-15 0 -29 6t-24.5 16.5t-17 24.5t-6.5 30v571q0 31 23 53.5t54 22.5h134zM241 153h12q60 0 101.5 7.5t67.5 29.5t37.5 62.5t11.5 106.5q0 65 -11.5 106t-36 64.5
t-64 32.5t-95.5 9h-23v-418zM323 871l65 75q8 9 17 14.5t22 5.5q19 0 35.5 -12.5t16.5 -33.5q0 -10 -3.5 -17.5t-7.5 -12.5l-66 -80q-20 -24 -39.5 -32t-38.5 -8q-22 0 -42 9t-38 31l-66 80q-4 5 -7.5 12.5t-3.5 17.5q0 20 16 33t36 13q22 0 39 -20z" />
    <glyph glyph-name="dcaron" unicode="&#x10f;" horiz-adv-x="579" 
d="M42 0zM467 147q0 -18 1.5 -30t3.5 -20t3.5 -15t1.5 -15q0 -31 -22 -51t-55 -20q-56 0 -73 58l-3 10q-21 -42 -54.5 -58.5t-70.5 -16.5q-49 0 -79.5 22.5t-48 59.5t-23.5 83.5t-6 93.5t6 93.5t23 83.5t47 60t77 23q37 0 68 -16t54 -51v243q0 30 21 51t53 21t54 -21t22 -51
v-537zM317 364q-13 10 -26.5 14t-26.5 4q-36 0 -53.5 -30.5t-17.5 -105.5q0 -70 16.5 -100.5t54.5 -30.5q13 0 26.5 3.5t26.5 11.5v234zM544 648q-21 6 -29 22.5t-8 29.5q0 22 15.5 39t45.5 17q29 0 46.5 -16.5t17.5 -51.5q0 -18 -5 -41.5t-14.5 -44.5t-23 -35.5
t-30.5 -14.5q-13 0 -19 6t-6 15q0 13 5.5 24.5t5.5 31.5v9t-1 10z" />
    <glyph glyph-name="Dcroat" unicode="&#x110;" horiz-adv-x="686" 
d="M0 0zM296 724q76 0 137 -22t104 -67t66.5 -114t23.5 -163q0 -183 -87.5 -270.5t-243.5 -87.5h-134q-15 0 -29 6t-24.5 16.5t-17 24.5t-6.5 30v228h-16q-29 0 -50.5 20.5t-21.5 49.5q0 14 6 27t15.5 22.5t22.5 15.5t28 6h16v202q0 31 23 53.5t54 22.5h134zM241 446h52
q15 0 28 -6t22.5 -15.5t15.5 -22.5t6 -27q0 -29 -21.5 -49.5t-50.5 -20.5h-52v-152h12q60 0 101.5 7.5t67.5 29.5t37.5 62.5t11.5 106.5q0 65 -11.5 106t-36 64.5t-64 32.5t-95.5 9h-23v-125z" />
    <glyph glyph-name="dcroat" unicode="&#x111;" horiz-adv-x="534" 
d="M317 658v26q0 30 21 51t53 21t54 -21t22 -51v-26h18q20 0 34.5 -14.5t14.5 -32.5q0 -19 -14.5 -33t-34.5 -14h-18v-417q0 -18 1.5 -30t3.5 -20t3.5 -15t1.5 -15q0 -31 -22 -51t-55 -20q-56 0 -73 58l-3 10q-21 -42 -54.5 -58.5t-70.5 -16.5q-49 0 -79.5 22.5t-48 59.5
t-23.5 83.5t-6 93.5t6 93.5t23 83.5t47 60t77 23q37 0 68 -16t54 -51v123h-85q-20 0 -35 14t-15 33q0 18 15 32.5t35 14.5h85zM317 364q-13 10 -26.5 14t-26.5 4q-36 0 -53.5 -30.5t-17.5 -105.5q0 -70 16.5 -100.5t54.5 -30.5q13 0 26.5 3.5t26.5 11.5v234z" />
    <glyph glyph-name="Emacron" unicode="&#x112;" horiz-adv-x="598" 
d="M85 0zM459 724q16 0 30.5 -6t25 -16.5t17 -24.5t6.5 -29t-6.5 -29t-17 -24.5t-25 -16.5t-30.5 -6h-218v-126h186q30 0 51.5 -21t21.5 -50t-21.5 -49.5t-51.5 -20.5h-186v-152h218q32 0 55.5 -23t23.5 -54q0 -15 -6.5 -29t-17 -24.5t-25 -16.5t-30.5 -6h-296
q-32 0 -55 22.5t-23 54.5v571q0 15 6 29t16.5 24.5t25 16.5t30.5 6h296zM442 919q20 0 34.5 -13.5t14.5 -30.5t-14.5 -30.5t-34.5 -13.5h-286q-20 0 -35 13.5t-15 30.5t15 30.5t35 13.5h286z" />
    <glyph glyph-name="emacron" unicode="&#x113;" horiz-adv-x="522" 
d="M47 0zM198 226q3 -61 21 -84.5t46 -23.5q37 0 63 29q11 12 24 22.5t36 10.5q32 0 51 -21.5t19 -48.5q0 -32 -28 -61q-31 -32 -74.5 -46t-86.5 -14q-53 0 -94 18.5t-69.5 53t-43.5 82t-15 106.5q0 60 15.5 107.5t44 81.5t68.5 52t90 18q53 0 92.5 -19t65 -48.5t38 -63.5
t12.5 -64q0 -47 -26 -67t-59 -20h-190zM319 309q-5 42 -19.5 56.5t-37.5 14.5t-41 -15t-23 -56h121zM404 719q20 0 34.5 -14.5t14.5 -32.5q0 -19 -14.5 -33t-34.5 -14h-286q-20 0 -35 14t-15 33q0 18 15 32.5t35 14.5h286z" />
    <glyph glyph-name="Ebreve" unicode="&#x114;" horiz-adv-x="598" 
d="M85 0zM459 724q16 0 30.5 -6t25 -16.5t17 -24.5t6.5 -29t-6.5 -29t-17 -24.5t-25 -16.5t-30.5 -6h-218v-126h186q30 0 51.5 -21t21.5 -50t-21.5 -49.5t-51.5 -20.5h-186v-152h218q32 0 55.5 -23t23.5 -54q0 -15 -6.5 -29t-17 -24.5t-25 -16.5t-30.5 -6h-296
q-32 0 -55 22.5t-23 54.5v571q0 15 6 29t16.5 24.5t25 16.5t30.5 6h296zM108 909q0 17 9 24t24 7q14 0 24 -6t19 -14q22 -20 46.5 -29.5t68.5 -9.5t68.5 9.5t46.5 29.5q9 8 19 14t24 6q15 0 24 -7t9 -24q0 -21 -11.5 -37.5t-22.5 -25.5q-23 -20 -60.5 -32.5t-96.5 -12.5
t-96.5 12.5t-60.5 32.5q-11 9 -22.5 25.5t-11.5 37.5z" />
    <glyph glyph-name="ebreve" unicode="&#x115;" horiz-adv-x="522" 
d="M47 0zM198 226q3 -61 21 -84.5t46 -23.5q37 0 63 29q11 12 24 22.5t36 10.5q32 0 51 -21.5t19 -48.5q0 -32 -28 -61q-31 -32 -74.5 -46t-86.5 -14q-53 0 -94 18.5t-69.5 53t-43.5 82t-15 106.5q0 60 15.5 107.5t44 81.5t68.5 52t90 18q53 0 92.5 -19t65 -48.5t38 -63.5
t12.5 -64q0 -47 -26 -67t-59 -20h-190zM319 309q-5 42 -19.5 56.5t-37.5 14.5t-41 -15t-23 -56h121zM103 742q14 0 24 -6.5t19 -15.5q22 -21 46.5 -31.5t68.5 -10.5t68.5 10.5t46.5 31.5q9 9 19 15.5t24 6.5q15 0 24 -8t9 -26q0 -23 -11.5 -40t-22.5 -27
q-23 -22 -60.5 -35.5t-96.5 -13.5t-96.5 13.5t-60.5 35.5q-11 10 -22.5 27t-11.5 40q0 18 9 26t24 8z" />
    <glyph glyph-name="Edotaccent" unicode="&#x116;" horiz-adv-x="598" 
d="M85 0zM459 724q16 0 30.5 -6t25 -16.5t17 -24.5t6.5 -29t-6.5 -29t-17 -24.5t-25 -16.5t-30.5 -6h-218v-126h186q30 0 51.5 -21t21.5 -50t-21.5 -49.5t-51.5 -20.5h-186v-152h218q32 0 55.5 -23t23.5 -54q0 -15 -6.5 -29t-17 -24.5t-25 -16.5t-30.5 -6h-296
q-32 0 -55 22.5t-23 54.5v571q0 15 6 29t16.5 24.5t25 16.5t30.5 6h296zM229 872q0 32 22.5 54t57.5 22q34 0 56.5 -22t22.5 -54t-22.5 -54t-56.5 -22q-35 0 -57.5 22t-22.5 54z" />
    <glyph glyph-name="edotaccent" unicode="&#x117;" horiz-adv-x="522" 
d="M47 0zM198 226q3 -61 21 -84.5t46 -23.5q37 0 63 29q11 12 24 22.5t36 10.5q32 0 51 -21.5t19 -48.5q0 -32 -28 -61q-31 -32 -74.5 -46t-86.5 -14q-53 0 -94 18.5t-69.5 53t-43.5 82t-15 106.5q0 60 15.5 107.5t44 81.5t68.5 52t90 18q53 0 92.5 -19t65 -48.5t38 -63.5
t12.5 -64q0 -47 -26 -67t-59 -20h-190zM319 309q-5 42 -19.5 56.5t-37.5 14.5t-41 -15t-23 -56h121zM181 663q0 32 22.5 54t57.5 22q34 0 56.5 -22t22.5 -54t-22.5 -54t-56.5 -22q-35 0 -57.5 22t-22.5 54z" />
    <glyph glyph-name="Eogonek" unicode="&#x118;" horiz-adv-x="598" 
d="M459 724q16 0 30.5 -6t25 -16.5t17 -24.5t6.5 -29t-6.5 -29t-17 -24.5t-25 -16.5t-30.5 -6h-218v-126h186q30 0 51.5 -21t21.5 -50t-21.5 -49.5t-51.5 -20.5h-186v-152h218q32 0 55.5 -23t23.5 -54q0 -27 -17.5 -44.5t-37.5 -31.5q-29 -21 -42.5 -44.5t-13.5 -41.5
q0 -15 7 -21t18 -6q10 0 22 3t24 3q23 0 35 -13t12 -31q0 -12 -7 -23.5t-24 -19.5t-38.5 -11.5t-36.5 -3.5q-46 0 -76.5 25.5t-30.5 70.5q0 42 24.5 69.5t55.5 43.5h-249q-32 0 -55 22.5t-23 54.5v571q0 15 6 29t16.5 24.5t25 16.5t30.5 6h296z" />
    <glyph glyph-name="eogonek" unicode="&#x119;" horiz-adv-x="522" 
d="M198 226q3 -61 21 -84.5t46 -23.5q37 0 63 29q11 12 24 22.5t36 10.5q32 0 51 -21.5t19 -46.5q0 -14 -6.5 -31t-20.5 -33q-11 -13 -23 -20.5t-23.5 -13t-22 -9t-19.5 -7.5q-30 -14 -42 -38t-12 -44q0 -29 24 -29q10 0 22 3t24 3q23 0 35.5 -13t12.5 -31q0 -12 -7 -23.5
t-24 -19.5t-38.5 -11.5t-37.5 -3.5q-45 0 -76 25.5t-31 71.5q0 33 17 58t46 44q-50 2 -88.5 21.5t-65.5 53.5t-41 80.5t-14 103.5q0 60 15.5 107.5t44 81.5t68.5 52t90 18q51 0 90 -18t65.5 -46.5t39.5 -62.5t13 -66q0 -47 -25.5 -68t-59.5 -21h-190zM319 309
q-5 42 -19.5 56.5t-37.5 14.5t-41 -15t-23 -56h121z" />
    <glyph glyph-name="Ecaron" unicode="&#x11a;" horiz-adv-x="598" 
d="M85 0zM459 724q16 0 30.5 -6t25 -16.5t17 -24.5t6.5 -29t-6.5 -29t-17 -24.5t-25 -16.5t-30.5 -6h-218v-126h186q30 0 51.5 -21t21.5 -50t-21.5 -49.5t-51.5 -20.5h-186v-152h218q32 0 55.5 -23t23.5 -54q0 -15 -6.5 -29t-17 -24.5t-25 -16.5t-30.5 -6h-296
q-32 0 -55 22.5t-23 54.5v571q0 15 6 29t16.5 24.5t25 16.5t30.5 6h296zM299 871l65 75q8 9 17 14.5t22 5.5q19 0 35.5 -12.5t16.5 -33.5q0 -10 -3.5 -17.5t-7.5 -12.5l-66 -80q-20 -24 -39.5 -32t-38.5 -8q-22 0 -42 9t-38 31l-66 80q-4 5 -7.5 12.5t-3.5 17.5q0 20 16 33
t36 13q22 0 39 -20z" />
    <glyph glyph-name="ecaron" unicode="&#x11b;" horiz-adv-x="522" 
d="M47 0zM198 226q3 -61 21 -84.5t46 -23.5q37 0 63 29q11 12 24 22.5t36 10.5q32 0 51 -21.5t19 -48.5q0 -32 -28 -61q-31 -32 -74.5 -46t-86.5 -14q-53 0 -94 18.5t-69.5 53t-43.5 82t-15 106.5q0 60 15.5 107.5t44 81.5t68.5 52t90 18q53 0 92.5 -19t65 -48.5t38 -63.5
t12.5 -64q0 -47 -26 -67t-59 -20h-190zM319 309q-5 42 -19.5 56.5t-37.5 14.5t-41 -15t-23 -56h121zM261 668l65 80q8 10 17 16t22 6q19 0 35.5 -13.5t16.5 -36.5q0 -11 -3.5 -19t-7.5 -13l-66 -86q-20 -26 -39.5 -34.5t-38.5 -8.5q-22 0 -42 10t-38 33l-66 86q-4 5 -7.5 13
t-3.5 19q0 22 16 36t36 14q21 0 39 -22z" />
    <glyph glyph-name="Gbreve" unicode="&#x11e;" horiz-adv-x="708" 
d="M60 0zM535 414q32 0 55 -22.5t23 -54.5v-266q-48 -42 -112 -62t-127 -20q-72 0 -130.5 25t-99 72t-62.5 115t-22 155q0 85 21 155t60.5 119.5t95.5 76.5t126 27q39 0 77 -9t70.5 -26.5t58.5 -44t42 -60.5q5 -11 8.5 -22.5t3.5 -22.5q0 -14 -6 -27t-16.5 -23t-25 -16.5
t-32.5 -6.5t-35.5 8.5t-29.5 28.5q-5 8 -13 20t-21 23t-32 18.5t-45 7.5q-38 0 -66 -17t-47 -47t-28.5 -71.5t-9.5 -90.5q0 -103 41 -161t123 -58q9 0 22.5 1t27 3t26 5t18.5 8v115h-73q-29 0 -51 22t-22 51q0 14 6 27t16 23t23 16t28 6h134zM173 909q0 17 9 24t24 7
q14 0 24 -6t19 -14q22 -20 46.5 -29.5t68.5 -9.5t68.5 9.5t46.5 29.5q9 8 19 14t24 6q15 0 24 -7t9 -24q0 -21 -11.5 -37.5t-22.5 -25.5q-23 -20 -60.5 -32.5t-96.5 -12.5t-96.5 12.5t-60.5 32.5q-11 9 -22.5 25.5t-11.5 37.5z" />
    <glyph glyph-name="gbreve" unicode="&#x11f;" horiz-adv-x="521" 
d="M41 0zM461 8q0 -45 -13.5 -86.5t-39 -73.5t-63 -51.5t-86.5 -19.5q-17 0 -37 3t-39.5 9t-37.5 15.5t-33 23.5q-17 16 -25.5 34.5t-8.5 37.5q0 29 19 50t51 21q20 0 33 -7.5t23 -20.5q11 -14 23 -25.5t35 -11.5q28 0 42 21.5t14 72.5v97q-22 -35 -53 -50t-69 -15
q-48 0 -78 21t-47.5 55t-23.5 77.5t-6 88.5t6 87.5t23 75t46.5 52t76.5 19.5q38 0 69.5 -16t55.5 -54q3 32 24 48t47 16q27 0 45.5 -16t23.5 -45q2 -12 2.5 -35t0.5 -55v-343zM318 363q-25 19 -58 19q-34 0 -51 -22.5t-17 -86.5q0 -61 16.5 -88t55.5 -27q14 0 27 3.5
t27 13.5v188zM102 742q14 0 24 -6.5t19 -15.5q22 -21 46.5 -31.5t68.5 -10.5t68.5 10.5t46.5 31.5q9 9 19 15.5t24 6.5q15 0 24 -8t9 -26q0 -23 -11.5 -40t-22.5 -27q-23 -22 -60.5 -35.5t-96.5 -13.5t-96.5 13.5t-60.5 35.5q-11 10 -22.5 27t-11.5 40q0 18 9 26t24 8z" />
    <glyph glyph-name="Gdotaccent" unicode="&#x120;" horiz-adv-x="708" 
d="M60 0zM535 414q32 0 55 -22.5t23 -54.5v-266q-48 -42 -112 -62t-127 -20q-72 0 -130.5 25t-99 72t-62.5 115t-22 155q0 85 21 155t60.5 119.5t95.5 76.5t126 27q39 0 77 -9t70.5 -26.5t58.5 -44t42 -60.5q5 -11 8.5 -22.5t3.5 -22.5q0 -14 -6 -27t-16.5 -23t-25 -16.5
t-32.5 -6.5t-35.5 8.5t-29.5 28.5q-5 8 -13 20t-21 23t-32 18.5t-45 7.5q-38 0 -66 -17t-47 -47t-28.5 -71.5t-9.5 -90.5q0 -103 41 -161t123 -58q9 0 22.5 1t27 3t26 5t18.5 8v115h-73q-29 0 -51 22t-22 51q0 14 6 27t16 23t23 16t28 6h134zM284 872q0 32 22.5 54t57.5 22
q34 0 56.5 -22t22.5 -54t-22.5 -54t-56.5 -22q-35 0 -57.5 22t-22.5 54z" />
    <glyph glyph-name="gdotaccent" unicode="&#x121;" horiz-adv-x="521" 
d="M41 0zM461 8q0 -45 -13.5 -86.5t-39 -73.5t-63 -51.5t-86.5 -19.5q-17 0 -37 3t-39.5 9t-37.5 15.5t-33 23.5q-17 16 -25.5 34.5t-8.5 37.5q0 29 19 50t51 21q20 0 33 -7.5t23 -20.5q11 -14 23 -25.5t35 -11.5q28 0 42 21.5t14 72.5v97q-22 -35 -53 -50t-69 -15
q-48 0 -78 21t-47.5 55t-23.5 77.5t-6 88.5t6 87.5t23 75t46.5 52t76.5 19.5q38 0 69.5 -16t55.5 -54q3 32 24 48t47 16q27 0 45.5 -16t23.5 -45q2 -12 2.5 -35t0.5 -55v-343zM318 363q-25 19 -58 19q-34 0 -51 -22.5t-17 -86.5q0 -61 16.5 -88t55.5 -27q14 0 27 3.5
t27 13.5v188zM181 663q0 32 22.5 54t57.5 22q34 0 56.5 -22t22.5 -54t-22.5 -54t-56.5 -22q-35 0 -57.5 22t-22.5 54z" />
    <glyph glyph-name="Gcommaaccent" unicode="&#x122;" horiz-adv-x="708" 
d="M60 0zM535 414q32 0 55 -22.5t23 -54.5v-266q-48 -42 -112 -62t-127 -20q-72 0 -130.5 25t-99 72t-62.5 115t-22 155q0 85 21 155t60.5 119.5t95.5 76.5t126 27q39 0 77 -9t70.5 -26.5t58.5 -44t42 -60.5q5 -11 8.5 -22.5t3.5 -22.5q0 -14 -6 -27t-16.5 -23t-25 -16.5
t-32.5 -6.5t-35.5 8.5t-29.5 28.5q-5 8 -13 20t-21 23t-32 18.5t-45 7.5q-38 0 -66 -17t-47 -47t-28.5 -71.5t-9.5 -90.5q0 -103 41 -161t123 -58q9 0 22.5 1t27 3t26 5t18.5 8v115h-73q-29 0 -51 22t-22 51q0 14 6 27t16 23t23 16t28 6h134zM338 -125q-21 6 -29 22.5
t-8 29.5q0 22 15.5 39t45.5 17q29 0 46.5 -16.5t17.5 -51.5q0 -18 -5 -41.5t-14.5 -44.5t-23 -35.5t-30.5 -14.5q-13 0 -19 6t-6 15q0 13 5.5 24.5t5.5 31.5v9t-1 10z" />
    <glyph glyph-name="gcommaaccent" unicode="&#x123;" horiz-adv-x="521" 
d="M41 0zM461 8q0 -45 -13.5 -86.5t-39 -73.5t-63 -51.5t-86.5 -19.5q-17 0 -37 3t-39.5 9t-37.5 15.5t-33 23.5q-17 16 -25.5 34.5t-8.5 37.5q0 29 19 50t51 21q20 0 33 -7.5t23 -20.5q11 -14 23 -25.5t35 -11.5q28 0 42 21.5t14 72.5v97q-22 -35 -53 -50t-69 -15
q-48 0 -78 21t-47.5 55t-23.5 77.5t-6 88.5t6 87.5t23 75t46.5 52t76.5 19.5q38 0 69.5 -16t55.5 -54q3 32 24 48t47 16q27 0 45.5 -16t23.5 -45q2 -12 2.5 -35t0.5 -55v-343zM318 363q-25 19 -58 19q-34 0 -51 -22.5t-17 -86.5q0 -61 16.5 -88t55.5 -27q14 0 27 3.5
t27 13.5v188zM294 682q27 -11 37.5 -32t10.5 -41q0 -15 -5 -29t-15 -25t-26 -18t-37 -7q-36 0 -58.5 22.5t-22.5 72.5q0 25 6.5 58.5t19 62.5t30.5 49.5t42 20.5q15 0 23 -8.5t8 -22.5q0 -16 -7.5 -33t-7.5 -43q0 -7 0.5 -13t1.5 -14z" />
    <glyph glyph-name="Hcircumflex" unicode="&#x124;" horiz-adv-x="690" 
d="M85 0zM241 449h208v204q0 15 6.5 29t17 24.5t25 16.5t30.5 6q31 0 54 -22.5t23 -53.5v-582q0 -30 -23 -52.5t-54 -22.5q-16 0 -30.5 6t-25 16.5t-17 24t-6.5 28.5v235h-208v-235q0 -30 -23 -52.5t-54 -22.5q-16 0 -30 6t-25 16.5t-17.5 24t-6.5 28.5v582q0 15 6.5 29
t17 24.5t25 16.5t30.5 6q31 0 54 -22.5t23 -53.5v-204zM264 926q20 24 39.5 32t38.5 8q22 0 42 -9t38 -31l66 -80q4 -5 7.5 -12.5t3.5 -17.5q0 -20 -16 -33t-36 -13q-22 0 -39 20l-65 75l-65 -75q-8 -9 -17 -14.5t-22 -5.5q-19 0 -35.5 13t-16.5 33q0 10 3.5 17.5t7.5 12.5z
" />
    <glyph glyph-name="hcircumflex" unicode="&#x125;" horiz-adv-x="548" 
d="M0 0zM226 471q10 11 35 24t63 13q66 0 107 -50.5t41 -156.5v-154q0 -18 1.5 -30t3.5 -20.5t3.5 -15t1.5 -15.5q0 -30 -21.5 -50t-55.5 -20q-25 0 -41 12t-25.5 32t-13 47.5t-3.5 58.5v167q0 13 -2.5 27t-9.5 25t-19.5 18t-31.5 7q-11 0 -18.5 -2t-14.5 -4v-316
q0 -30 -22 -51t-54 -21t-54 21t-22 51v616q0 29 22 50.5t54 21.5t54 -21.5t22 -50.5v-213zM76 926q20 24 39.5 32t38.5 8q22 0 42 -9t38 -31l66 -80q4 -5 7.5 -12.5t3.5 -17.5q0 -20 -16 -33t-36 -13q-22 0 -39 20l-65 75l-65 -75q-8 -9 -17 -14.5t-22 -5.5q-19 0 -35.5 13
t-16.5 33q0 10 3.5 17.5t7.5 12.5z" />
    <glyph glyph-name="Hbar" unicode="&#x126;" horiz-adv-x="690" 
d="M241 619h208v34q0 15 6.5 29t17 24.5t25 16.5t30.5 6q31 0 54 -22.5t23 -53.5v-582q0 -30 -23 -52.5t-54 -22.5q-16 0 -30.5 6t-25 16.5t-17 24t-6.5 28.5v235h-208v-235q0 -30 -23 -52.5t-54 -22.5q-16 0 -30 6t-25 16.5t-17.5 24t-6.5 28.5v582q0 15 6.5 29t17 24.5
t25 16.5t30.5 6q31 0 54 -22.5t23 -53.5v-34zM241 430h208v85h-208v-85z" />
    <glyph glyph-name="hbar" unicode="&#x127;" horiz-adv-x="548" 
d="M74 658v26q0 29 22 50.5t54 21.5t54 -21.5t22 -50.5v-26h77q20 0 34.5 -14.5t14.5 -32.5q0 -19 -14.5 -33t-34.5 -14h-77v-93q10 11 35 24t63 13q66 0 107 -50.5t41 -156.5v-154q0 -18 1.5 -30t3.5 -20.5t3.5 -15t1.5 -15.5q0 -30 -21.5 -50t-55.5 -20q-25 0 -41 12
t-25.5 32t-13 47.5t-3.5 58.5v167q0 13 -2.5 27t-9.5 25t-19.5 18t-31.5 7q-11 0 -18.5 -2t-14.5 -4v-316q0 -30 -22 -51t-54 -21t-54 21t-22 51v496h-24q-20 0 -35 14t-15 33q0 18 15 32.5t35 14.5h24z" />
    <glyph glyph-name="Itilde" unicode="&#x128;" horiz-adv-x="356" 
d="M0 0zM257 71q0 -15 -6.5 -28.5t-17 -24t-25 -16.5t-29.5 -6t-29.5 6t-25.5 16.5t-17.5 24t-6.5 28.5v582q0 31 24 53.5t55 22.5t54.5 -22.5t23.5 -53.5v-582zM8 925q8 15 25.5 25.5t46.5 10.5q26 0 50 -8t45 -17.5t40 -17.5t35 -8q10 0 18 2.5t12 5.5q6 4 9 12.5t4 12.5
q8 23 34 23q16 0 25 -11t9 -38q0 -15 -3 -30.5t-10 -27.5q-8 -14 -25.5 -24.5t-46.5 -10.5q-25 0 -48.5 8t-45 17t-41 17t-36.5 8q-9 0 -17 -2.5t-12 -4.5q-6 -5 -9 -13.5t-4 -11.5q-8 -24 -34 -24q-16 0 -25 11t-9 39q0 14 3 29.5t10 27.5z" />
    <glyph glyph-name="itilde" unicode="&#x129;" horiz-adv-x="356" 
d="M0 0zM250 147q0 -18 1.5 -30t3.5 -20t3.5 -15t1.5 -15q0 -31 -22 -51t-55 -20q-56 0 -73 58q-5 18 -7.5 43t-2.5 49v283q0 31 21 52t53 21t54 -21t22 -52v-282zM8 726q8 16 25.5 27t46.5 11q26 0 50 -8.5t45 -18.5t40 -18.5t35 -8.5q10 0 18 2.5t12 5.5q6 5 9 14t4 13
q8 25 34 25q16 0 25 -12t9 -41q0 -16 -3 -32.5t-10 -29.5q-8 -16 -25.5 -27t-46.5 -11q-25 0 -48.5 8.5t-45 18.5t-41 18.5t-36.5 8.5q-9 0 -17 -2.5t-12 -5.5q-6 -5 -9 -14t-4 -13q-8 -25 -34 -25q-16 0 -25 12t-9 41q0 16 3 32.5t10 29.5z" />
    <glyph glyph-name="Imacron" unicode="&#x12a;" horiz-adv-x="377" 
d="M0 0zM267 71q0 -15 -6.5 -28.5t-17 -24t-25 -16.5t-29.5 -6t-29.5 6t-25.5 16.5t-17.5 24t-6.5 28.5v582q0 31 24 53.5t55 22.5t54.5 -22.5t23.5 -53.5v-582zM332 919q20 0 34.5 -13.5t14.5 -30.5t-14.5 -30.5t-34.5 -13.5h-286q-20 0 -35 13.5t-15 30.5t15 30.5t35 13.5
h286z" />
    <glyph glyph-name="imacron" unicode="&#x12b;" horiz-adv-x="368" 
d="M0 0zM257 147q0 -18 1.5 -30t3.5 -20t3.5 -15t1.5 -15q0 -31 -22 -51t-55 -20q-56 0 -73 58q-5 18 -7.5 43t-2.5 49v283q0 31 21 52t53 21t54 -21t22 -52v-282zM328 719q20 0 34.5 -14.5t14.5 -32.5q0 -19 -14.5 -33t-34.5 -14h-286q-20 0 -35 14t-15 33q0 18 15 32.5
t35 14.5h286z" />
    <glyph glyph-name="Ibreve" unicode="&#x12c;" horiz-adv-x="372" 
d="M0 0zM265 71q0 -15 -6.5 -28.5t-17 -24t-25 -16.5t-29.5 -6t-29.5 6t-25.5 16.5t-17.5 24t-6.5 28.5v582q0 31 24 53.5t55 22.5t54.5 -22.5t23.5 -53.5v-582zM-5 909q0 17 9 24t24 7q14 0 24 -6t19 -14q22 -20 46.5 -29.5t68.5 -9.5t68.5 9.5t46.5 29.5q9 8 19 14t24 6
q15 0 24 -7t9 -24q0 -21 -11.5 -37.5t-22.5 -25.5q-23 -20 -60.5 -32.5t-96.5 -12.5t-96.5 12.5t-60.5 32.5q-11 9 -22.5 25.5t-11.5 37.5z" />
    <glyph glyph-name="ibreve" unicode="&#x12d;" horiz-adv-x="370" 
d="M0 0zM257 147q0 -18 1.5 -30t3.5 -20t3.5 -15t1.5 -15q0 -31 -22 -51t-55 -20q-56 0 -73 58q-5 18 -7.5 43t-2.5 49v283q0 31 21 52t53 21t54 -21t22 -52v-282zM27 742q14 0 24 -6.5t19 -15.5q22 -21 46.5 -31.5t68.5 -10.5t68.5 10.5t46.5 31.5q9 9 19 15.5t24 6.5
q15 0 24 -8t9 -26q0 -23 -11.5 -40t-22.5 -27q-23 -22 -60.5 -35.5t-96.5 -13.5t-96.5 13.5t-60.5 35.5q-11 10 -22.5 27t-11.5 40q0 18 9 26t24 8z" />
    <glyph glyph-name="Iogonek" unicode="&#x12e;" horiz-adv-x="354" 
d="M256 71q0 -32 -17 -46.5t-36 -24.5q-16 -9 -27 -21t-17.5 -24.5t-9 -24t-2.5 -18.5q0 -25 25 -25q10 0 22 3t24 3q22 0 34.5 -13t12.5 -31q0 -12 -7 -23.5t-24 -19.5t-38.5 -11.5t-37.5 -3.5q-45 0 -75.5 25.5t-30.5 70.5q0 39 24 67.5t66 50.5q-19 10 -31 27.5t-12 38.5
v582q0 31 24 53.5t55 22.5t54.5 -22.5t23.5 -53.5v-582z" />
    <glyph glyph-name="iogonek" unicode="&#x12f;" horiz-adv-x="307" 
d="M226 147q0 -19 1.5 -30.5t3.5 -20t3.5 -15t1.5 -15.5q0 -28 -14.5 -41.5t-34.5 -24.5q-31 -17 -43.5 -37.5t-12.5 -44.5q0 -14 5 -22.5t20 -8.5q11 0 22.5 3t23.5 3q23 0 35 -13t12 -31q0 -12 -7 -23.5t-24 -19.5q-19 -9 -39.5 -12t-34.5 -3q-48 0 -78 26t-30 71
q0 38 23.5 66.5t63.5 48.5q-17 8 -24.5 20t-12.5 31q-10 39 -10 92v283q0 31 21 52t53 21t54 -21t22 -52v-282zM70 663q0 32 22.5 54t57.5 22q34 0 56.5 -22t22.5 -54t-22.5 -54t-56.5 -22q-35 0 -57.5 22t-22.5 54z" />
    <glyph glyph-name="Idotaccent" unicode="&#x130;" horiz-adv-x="327" 
d="M84 0zM242 71q0 -15 -6.5 -28.5t-17 -24t-25 -16.5t-29.5 -6t-29.5 6t-25.5 16.5t-17.5 24t-6.5 28.5v582q0 31 24 53.5t55 22.5t54.5 -22.5t23.5 -53.5v-582zM84 872q0 32 22.5 54t57.5 22q34 0 56.5 -22t22.5 -54t-22.5 -54t-56.5 -22q-35 0 -57.5 22t-22.5 54z" />
    <glyph glyph-name="dotlessi" unicode="&#x131;" horiz-adv-x="307" 
d="M226 147q0 -18 1.5 -30t3.5 -20t3.5 -15t1.5 -15q0 -31 -22 -51t-55 -20q-56 0 -73 58q-5 18 -7.5 43t-2.5 49v283q0 31 21 52t53 21t54 -21t22 -52v-282z" />
    <glyph glyph-name="IJ" unicode="&#x132;" horiz-adv-x="812" 
d="M85 0zM242 71q0 -15 -6.5 -28.5t-17 -24t-25 -16.5t-29.5 -6t-29.5 6t-25.5 16.5t-17.5 24t-6.5 28.5v582q0 31 24 53.5t55 22.5t54.5 -22.5t23.5 -53.5v-582zM730 267q0 -61 -15 -112t-44 -88t-71.5 -57.5t-98.5 -20.5q-54 0 -92.5 19t-67.5 54q-12 15 -22 34t-10 40
q0 31 23.5 53t57.5 22q28 0 42.5 -14t25.5 -30q7 -10 16.5 -18t31.5 -8q31 0 49.5 25.5t18.5 93.5v394q0 15 6.5 28.5t17 24t24.5 16.5t30 6t30 -6t24.5 -16.5t17 -24t6.5 -28.5v-387z" />
    <glyph glyph-name="ij" unicode="&#x133;" horiz-adv-x="597" 
d="M70 0zM226 147q0 -18 1.5 -30t3.5 -20t3.5 -15t1.5 -15q0 -31 -22 -51t-55 -20q-56 0 -73 58q-5 18 -7.5 43t-2.5 49v283q0 31 21 52t53 21t54 -21t22 -52v-282zM70 663q0 32 22.5 54t57.5 22q34 0 56.5 -22t22.5 -54t-22.5 -54t-56.5 -22q-35 0 -57.5 22t-22.5 54z
M521 -53q0 -78 -36.5 -124t-114.5 -46q-25 0 -49.5 5t-44 16.5t-32 28.5t-12.5 41q0 16 5.5 27.5t14.5 19t20 10.5t21 3q16 0 24.5 -5.5t14.5 -12.5q5 -6 11.5 -8t11.5 -2q12 0 14 7.5t2 18.5v504q0 32 22 52t54 20t53 -20t21 -52v-483zM367 663q0 32 22.5 54t57.5 22
q34 0 56.5 -22t22.5 -54t-22.5 -54t-56.5 -22q-35 0 -57.5 22t-22.5 54z" />
    <glyph glyph-name="Jcircumflex" unicode="&#x134;" horiz-adv-x="515" 
d="M12 0zM433 267q0 -61 -15 -112t-44 -88t-71.5 -57.5t-98.5 -20.5q-54 0 -92.5 19t-67.5 54q-12 15 -22 34t-10 40q0 31 23.5 53t57.5 22q28 0 42.5 -14t25.5 -30q7 -10 16.5 -18t31.5 -8q31 0 49.5 25.5t18.5 93.5v394q0 15 6.5 28.5t17 24t24.5 16.5t30 6t30 -6
t24.5 -16.5t17 -24t6.5 -28.5v-387zM279 926q20 24 39.5 32t38.5 8q22 0 42 -9t38 -31l66 -80q4 -5 7.5 -12.5t3.5 -17.5q0 -20 -16 -33t-36 -13q-22 0 -39 20l-65 75l-65 -75q-8 -9 -17 -14.5t-22 -5.5q-19 0 -35.5 13t-16.5 33q0 10 3.5 17.5t7.5 12.5z" />
    <glyph glyph-name="jcircumflex" unicode="&#x135;" horiz-adv-x="331" 
d="M0 0zM98 727q20 26 39.5 34.5t38.5 8.5q22 0 42 -10t38 -33l66 -86q4 -5 7.5 -13t3.5 -19q0 -22 -16 -36t-36 -14q-21 0 -39 22l-65 80l-65 -80q-8 -10 -17 -16t-22 -6q-19 0 -35.5 13.5t-16.5 36.5q0 11 3.5 19t7.5 13zM254 -53q0 -78 -36.5 -124t-114.5 -46
q-25 0 -49.5 5t-44 16.5t-32 28.5t-12.5 41q0 16 5.5 27.5t14.5 19t20 10.5t21 3q16 0 24.5 -5.5t14.5 -12.5q5 -6 11.5 -8t11.5 -2q12 0 14 7.5t2 18.5v504q0 32 22 52t54 20t53 -20t21 -52v-483z" />
    <glyph glyph-name="Kcommaaccent" unicode="&#x136;" horiz-adv-x="586" 
d="M85 0zM241 436h33l151 259q10 17 25.5 25.5t33.5 8.5q29 0 51 -20t22 -49q0 -8 -2.5 -17.5t-8.5 -18.5l-151 -238l168 -270q14 -22 14 -42q0 -32 -21.5 -55t-59.5 -23q-19 0 -38 8.5t-33 31.5l-164 281h-20v-246q0 -30 -21 -52.5t-55 -22.5t-57 22.5t-23 52.5v582
q0 31 22 53.5t56 22.5t56 -22.5t22 -53.5v-217zM307 -125q-21 6 -29 22.5t-8 29.5q0 22 15.5 39t45.5 17q29 0 46.5 -16.5t17.5 -51.5q0 -18 -5 -41.5t-14.5 -44.5t-23 -35.5t-30.5 -14.5q-13 0 -19 6t-6 15q0 13 5.5 24.5t5.5 31.5v9t-1 10z" />
    <glyph glyph-name="kcommaaccent" unicode="&#x137;" horiz-adv-x="505" 
d="M80 0zM230 292l104 171q10 16 25 27.5t36 11.5q28 0 48 -19.5t20 -45.5q0 -11 -3.5 -20.5t-8.5 -17.5l-91 -135l100 -149q8 -11 13 -21.5t5 -24.5q0 -30 -22 -51.5t-54 -21.5q-20 0 -38 9t-30 28l-104 165v-130q0 -30 -21.5 -51t-53.5 -21t-53.5 21t-21.5 51v616
q0 29 21.5 50.5t53.5 21.5t53.5 -21.5t21.5 -50.5v-392zM247 -125q-21 6 -29 22.5t-8 29.5q0 22 15.5 39t45.5 17q29 0 46.5 -16.5t17.5 -51.5q0 -18 -5 -41.5t-14.5 -44.5t-23 -35.5t-30.5 -14.5q-13 0 -19 6t-6 15q0 13 5.5 24.5t5.5 31.5v9t-1 10z" />
    <glyph glyph-name="Lacute" unicode="&#x139;" horiz-adv-x="563" 
d="M95 0zM251 153h206q16 0 30.5 -6.5t25 -17t17 -24.5t6.5 -29t-6.5 -29t-17 -24.5t-25 -16.5t-30.5 -6h-283q-32 0 -55.5 22.5t-23.5 54.5v577q0 15 6.5 28.5t17 24t24.5 16.5t30 6t30 -6t24.5 -16.5t17 -24t6.5 -28.5v-501zM208 937q14 17 27.5 23t27.5 6q25 0 40.5 -15
t15.5 -36q0 -10 -4 -20.5t-15 -20.5l-92 -88q-8 -8 -18 -11.5t-19 -3.5q-19 0 -33.5 12t-14.5 32q0 21 19 43z" />
    <glyph glyph-name="lacute" unicode="&#x13a;" horiz-adv-x="301" 
d="M76 0zM226 147q0 -18 1.5 -30t3.5 -20t3.5 -15t1.5 -15q0 -31 -22 -51t-55 -20q-56 0 -73 58q-5 18 -7.5 43t-2.5 49v538q0 30 21 51t53 21t54 -21t22 -51v-537zM167 937q14 17 27.5 23t27.5 6q25 0 40.5 -15t15.5 -36q0 -10 -4 -20.5t-15 -20.5l-92 -88q-8 -8 -18 -11.5
t-19 -3.5q-19 0 -33.5 12t-14.5 32q0 21 19 43z" />
    <glyph glyph-name="Lcommaaccent" unicode="&#x13b;" horiz-adv-x="563" 
d="M95 0zM251 153h206q16 0 30.5 -6.5t25 -17t17 -24.5t6.5 -29t-6.5 -29t-17 -24.5t-25 -16.5t-30.5 -6h-283q-32 0 -55.5 22.5t-23.5 54.5v577q0 15 6.5 28.5t17 24t24.5 16.5t30 6t30 -6t24.5 -16.5t17 -24t6.5 -28.5v-501zM276 -125q-21 6 -29 22.5t-8 29.5
q0 22 15.5 39t45.5 17q29 0 46.5 -16.5t17.5 -51.5q0 -18 -5 -41.5t-14.5 -44.5t-23 -35.5t-30.5 -14.5q-13 0 -19 6t-6 15q0 13 5.5 24.5t5.5 31.5v9t-1 10z" />
    <glyph glyph-name="lcommaaccent" unicode="&#x13c;" horiz-adv-x="301" 
d="M76 0zM226 147q0 -18 1.5 -30t3.5 -20t3.5 -15t1.5 -15q0 -31 -22 -51t-55 -20q-56 0 -73 58q-5 18 -7.5 43t-2.5 49v538q0 30 21 51t53 21t54 -21t22 -51v-537zM135 -125q-21 6 -29 22.5t-8 29.5q0 22 15.5 39t45.5 17q29 0 46.5 -16.5t17.5 -51.5q0 -18 -5 -41.5
t-14.5 -44.5t-23 -35.5t-30.5 -14.5q-13 0 -19 6t-6 15q0 13 5.5 24.5t5.5 31.5v9t-1 10z" />
    <glyph glyph-name="Lcaron" unicode="&#x13d;" horiz-adv-x="563" 
d="M95 0zM251 153h206q16 0 30.5 -6.5t25 -17t17 -24.5t6.5 -29t-6.5 -29t-17 -24.5t-25 -16.5t-30.5 -6h-283q-32 0 -55.5 22.5t-23.5 54.5v577q0 15 6.5 28.5t17 24t24.5 16.5t30 6t30 -6t24.5 -16.5t17 -24t6.5 -28.5v-501zM353 621q-21 6 -29 22.5t-8 29.5q0 22 15.5 39
t45.5 17q29 0 46.5 -16.5t17.5 -51.5q0 -18 -5 -41.5t-14.5 -44.5t-23 -35.5t-30.5 -14.5q-13 0 -19 6t-6 15q0 13 5.5 24.5t5.5 31.5v9t-1 10z" />
    <glyph glyph-name="lcaron" unicode="&#x13e;" horiz-adv-x="338" 
d="M76 0zM226 147q0 -18 1.5 -30t3.5 -20t3.5 -15t1.5 -15q0 -31 -22 -51t-55 -20q-56 0 -73 58q-5 18 -7.5 43t-2.5 49v538q0 30 21 51t53 21t54 -21t22 -51v-537zM303 648q-21 6 -29 22.5t-8 29.5q0 22 15.5 39t45.5 17q29 0 46.5 -16.5t17.5 -51.5q0 -18 -5 -41.5
t-14.5 -44.5t-23 -35.5t-30.5 -14.5q-13 0 -19 6t-6 15q0 13 5.5 24.5t5.5 31.5v9t-1 10z" />
    <glyph glyph-name="Lslash" unicode="&#x141;" horiz-adv-x="561" 
d="M249 478l32 9q2 0 2.5 0.5t6.5 0.5q27 0 44 -14t17 -34q0 -18 -12.5 -34.5t-29.5 -21.5l-60 -17v-214h206q16 0 30.5 -6.5t25 -17t17 -24.5t6.5 -29t-6.5 -29t-17 -24.5t-25 -16.5t-30.5 -6h-283q-32 0 -55.5 22.5t-23.5 54.5v248l-25 -6q-8 -2 -15 -2q-9 0 -18.5 3.5
t-17.5 10t-13 16t-5 20.5q0 17 12 33.5t30 21.5l52 14v218q0 33 23 54t55 21t55 -21t23 -54v-176z" />
    <glyph glyph-name="lslash" unicode="&#x142;" horiz-adv-x="301" 
d="M226 462q8 3 11.5 3.5t6.5 0.5q26 0 41.5 -14t15.5 -37q0 -16 -9 -32t-32 -22l-34 -9v-205q0 -18 1.5 -30t3.5 -20t3.5 -15t1.5 -15q0 -31 -22 -51t-56 -20q-25 0 -41 12t-25 32t-12.5 47.5t-3.5 58.5v164q-15 -4 -24 -4q-20 0 -36 14.5t-16 40.5q0 16 8.5 30t31.5 21
l36 9v263q0 30 21 51t53 21t54 -21t22 -51v-222z" />
    <glyph glyph-name="Nacute" unicode="&#x143;" horiz-adv-x="712" 
d="M85 0zM479 312v346q0 14 6 27t16 22.5t23 15.5t28 6q31 0 53 -21t22 -50v-587q0 -31 -23 -53t-58 -22q-26 0 -42.5 10.5t-26.5 26.5l-244 380v-346q0 -29 -22 -50t-52 -21t-52 21t-22 50v587q0 31 23 53t58 22q26 0 42 -10.5t27 -26.5zM373 937q14 17 27.5 23t27.5 6
q25 0 40.5 -15t15.5 -36q0 -10 -4 -20.5t-15 -20.5l-92 -88q-8 -8 -18 -11.5t-19 -3.5q-19 0 -33.5 12t-14.5 32q0 21 19 43z" />
    <glyph glyph-name="nacute" unicode="&#x144;" horiz-adv-x="535" 
d="M50 0zM211 68q0 -30 -21.5 -51t-53.5 -21t-54 21t-22 51v283q0 18 -1.5 29.5t-3.5 20t-3.5 15t-1.5 15.5q0 31 21.5 51t53.5 20q24 0 43 -12.5t28 -35.5l14 14t23 18t33 15.5t44 6.5q69 0 108 -53.5t39 -153.5v-154q0 -19 1.5 -30.5t4 -20t4 -15t1.5 -15.5q0 -30 -22 -50
t-56 -20q-25 0 -41 12t-25.5 32t-13 47.5t-3.5 58.5v167q0 13 -2.5 26.5t-9 25t-19 18.5t-31.5 7q-11 0 -19 -2t-15 -4v-316zM274 739q14 17 27.5 24t27.5 7q25 0 40.5 -16t15.5 -39q0 -11 -4 -22t-15 -22l-92 -95q-8 -9 -18 -12.5t-19 -3.5q-19 0 -33.5 13t-14.5 34
q0 22 19 47z" />
    <glyph glyph-name="Ncommaaccent" unicode="&#x145;" horiz-adv-x="712" 
d="M85 0zM479 312v346q0 14 6 27t16 22.5t23 15.5t28 6q31 0 53 -21t22 -50v-587q0 -31 -23 -53t-58 -22q-26 0 -42.5 10.5t-26.5 26.5l-244 380v-346q0 -29 -22 -50t-52 -21t-52 21t-22 50v587q0 31 23 53t58 22q26 0 42 -10.5t27 -26.5zM330 -125q-21 6 -29 22.5t-8 29.5
q0 22 15.5 39t45.5 17q29 0 46.5 -16.5t17.5 -51.5q0 -18 -5 -41.5t-14.5 -44.5t-23 -35.5t-30.5 -14.5q-13 0 -19 6t-6 15q0 13 5.5 24.5t5.5 31.5v9t-1 10z" />
    <glyph glyph-name="ncommaaccent" unicode="&#x146;" horiz-adv-x="535" 
d="M50 0zM211 68q0 -30 -21.5 -51t-53.5 -21t-54 21t-22 51v283q0 18 -1.5 29.5t-3.5 20t-3.5 15t-1.5 15.5q0 31 21.5 51t53.5 20q24 0 43 -12.5t28 -35.5l14 14t23 18t33 15.5t44 6.5q69 0 108 -53.5t39 -153.5v-154q0 -19 1.5 -30.5t4 -20t4 -15t1.5 -15.5q0 -30 -22 -50
t-56 -20q-25 0 -41 12t-25.5 32t-13 47.5t-3.5 58.5v167q0 13 -2.5 26.5t-9 25t-19 18.5t-31.5 7q-11 0 -19 -2t-15 -4v-316zM242 -125q-21 6 -29 22.5t-8 29.5q0 22 15.5 39t45.5 17q29 0 46.5 -16.5t17.5 -51.5q0 -18 -5 -41.5t-14.5 -44.5t-23 -35.5t-30.5 -14.5
q-13 0 -19 6t-6 15q0 13 5.5 24.5t5.5 31.5v9t-1 10z" />
    <glyph glyph-name="Ncaron" unicode="&#x147;" horiz-adv-x="712" 
d="M85 0zM479 312v346q0 14 6 27t16 22.5t23 15.5t28 6q31 0 53 -21t22 -50v-587q0 -31 -23 -53t-58 -22q-26 0 -42.5 10.5t-26.5 26.5l-244 380v-346q0 -29 -22 -50t-52 -21t-52 21t-22 50v587q0 31 23 53t58 22q26 0 42 -10.5t27 -26.5zM356 871l65 75q8 9 17 14.5t22 5.5
q19 0 35.5 -12.5t16.5 -33.5q0 -10 -3.5 -17.5t-7.5 -12.5l-66 -80q-20 -24 -39.5 -32t-38.5 -8q-22 0 -42 9t-38 31l-66 80q-4 5 -7.5 12.5t-3.5 17.5q0 20 16 33t36 13q22 0 39 -20z" />
    <glyph glyph-name="ncaron" unicode="&#x148;" horiz-adv-x="535" 
d="M50 0zM211 68q0 -30 -21.5 -51t-53.5 -21t-54 21t-22 51v283q0 18 -1.5 29.5t-3.5 20t-3.5 15t-1.5 15.5q0 31 21.5 51t53.5 20q24 0 43 -12.5t28 -35.5l14 14t23 18t33 15.5t44 6.5q69 0 108 -53.5t39 -153.5v-154q0 -19 1.5 -30.5t4 -20t4 -15t1.5 -15.5q0 -30 -22 -50
t-56 -20q-25 0 -41 12t-25.5 32t-13 47.5t-3.5 58.5v167q0 13 -2.5 26.5t-9 25t-19 18.5t-31.5 7q-11 0 -19 -2t-15 -4v-316zM257 668l65 80q8 10 17 16t22 6q19 0 35.5 -13.5t16.5 -36.5q0 -11 -3.5 -19t-7.5 -13l-66 -86q-20 -26 -39.5 -34.5t-38.5 -8.5q-22 0 -42 10
t-38 33l-66 86q-4 5 -7.5 13t-3.5 19q0 22 16 36t36 14q21 0 39 -22z" />
    <glyph glyph-name="Eng" unicode="&#x14a;" horiz-adv-x="674" 
d="M237 71q0 -15 -6.5 -28.5t-17 -24t-25 -16.5t-29.5 -6t-29.5 6t-25.5 16.5t-17.5 24t-6.5 28.5v582q0 31 24 53.5t55 22.5q21 0 39 -11.5t29 -28.5q29 23 65 35t82 12q57 0 98.5 -20t68.5 -57.5t40 -91t13 -120.5v-500q0 -78 -39.5 -124t-117.5 -46q-25 0 -49.5 5
t-44 16.5t-32 28.5t-12.5 41q0 16 5.5 27.5t14.5 19t20 10.5t21 3q16 0 24.5 -5.5t14.5 -12.5q5 -6 11.5 -8t11.5 -2q12 0 14 7.5t2 18.5v542q0 55 -23.5 85.5t-72.5 30.5q-36 0 -61.5 -15.5t-43.5 -40.5v-457z" />
    <glyph glyph-name="eng" unicode="&#x14b;" horiz-adv-x="535" 
d="M211 68q0 -30 -21.5 -51t-53.5 -21t-54 21t-22 51v283q0 18 -1.5 29.5t-3.5 20t-3.5 15t-1.5 15.5q0 31 21.5 51t53.5 20q24 0 43 -12.5t28 -35.5l14 14t23 18t33 15.5t44 6.5q69 0 108 -53.5t39 -153.5v-354q0 -78 -36.5 -124t-114.5 -46q-25 0 -49.5 5t-44 16.5
t-32 28.5t-12.5 41q0 33 20.5 46.5t41.5 13.5q14 0 22 -5t16 -13q6 -6 11 -8t10 -2q14 0 16 7.5t2 18.5v387q0 13 -2.5 26.5t-9 25t-19 18.5t-31.5 7q-11 0 -19 -2t-15 -4v-316z" />
    <glyph glyph-name="Omacron" unicode="&#x14c;" horiz-adv-x="738" 
d="M62 0zM367 734q68 0 124.5 -25.5t97 -73.5t63 -117t22.5 -157q0 -87 -22 -156t-62.5 -117t-96.5 -73.5t-125 -25.5t-125 25.5t-96.5 73.5t-62.5 117t-22 156t22 156.5t62 117.5t96.5 73.5t124.5 25.5zM369 582q-37 0 -65 -16.5t-47 -45.5t-29 -69.5t-10 -89.5t10 -89.5
t29 -69.5t47 -45t65 -16q73 0 111 60.5t38 159.5q0 49 -9.5 90t-28.5 70t-47 45t-64 16zM512 919q20 0 34.5 -13.5t14.5 -30.5t-14.5 -30.5t-34.5 -13.5h-286q-20 0 -35 13.5t-15 30.5t15 30.5t35 13.5h286z" />
    <glyph glyph-name="omacron" unicode="&#x14d;" horiz-adv-x="531" 
d="M41 0zM266 369q-36 0 -55 -26t-19 -92t19 -95t55 -29q35 0 54 29t19 95t-19 92t-54 26zM266 508q109 0 166 -67t57 -189q0 -123 -57 -193t-166 -70t-167 70.5t-58 192.5q0 121 58 188.5t167 67.5zM409 719q20 0 34.5 -14.5t14.5 -32.5q0 -19 -14.5 -33t-34.5 -14h-286
q-20 0 -35 14t-15 33q0 18 15 32.5t35 14.5h286z" />
    <glyph glyph-name="Obreve" unicode="&#x14e;" horiz-adv-x="738" 
d="M62 0zM367 734q68 0 124.5 -25.5t97 -73.5t63 -117t22.5 -157q0 -87 -22 -156t-62.5 -117t-96.5 -73.5t-125 -25.5t-125 25.5t-96.5 73.5t-62.5 117t-22 156t22 156.5t62 117.5t96.5 73.5t124.5 25.5zM369 582q-37 0 -65 -16.5t-47 -45.5t-29 -69.5t-10 -89.5t10 -89.5
t29 -69.5t47 -45t65 -16q73 0 111 60.5t38 159.5q0 49 -9.5 90t-28.5 70t-47 45t-64 16zM178 909q0 17 9 24t24 7q14 0 24 -6t19 -14q22 -20 46.5 -29.5t68.5 -9.5t68.5 9.5t46.5 29.5q9 8 19 14t24 6q15 0 24 -7t9 -24q0 -21 -11.5 -37.5t-22.5 -25.5q-23 -20 -60.5 -32.5
t-96.5 -12.5t-96.5 12.5t-60.5 32.5q-11 9 -22.5 25.5t-11.5 37.5z" />
    <glyph glyph-name="obreve" unicode="&#x14f;" horiz-adv-x="531" 
d="M41 0zM266 369q-36 0 -55 -26t-19 -92t19 -95t55 -29q35 0 54 29t19 95t-19 92t-54 26zM266 508q109 0 166 -67t57 -189q0 -123 -57 -193t-166 -70t-167 70.5t-58 192.5q0 121 58 188.5t167 67.5zM107 742q14 0 24 -6.5t19 -15.5q22 -21 46.5 -31.5t68.5 -10.5t68.5 10.5
t46.5 31.5q9 9 19 15.5t24 6.5q15 0 24 -8t9 -26q0 -23 -11.5 -40t-22.5 -27q-23 -22 -60.5 -35.5t-96.5 -13.5t-96.5 13.5t-60.5 35.5q-11 10 -22.5 27t-11.5 40q0 18 9 26t24 8z" />
    <glyph glyph-name="Ohungarumlaut" unicode="&#x150;" horiz-adv-x="738" 
d="M62 0zM367 734q68 0 124.5 -25.5t97 -73.5t63 -117t22.5 -157q0 -87 -22 -156t-62.5 -117t-96.5 -73.5t-125 -25.5t-125 25.5t-96.5 73.5t-62.5 117t-22 156t22 156.5t62 117.5t96.5 73.5t124.5 25.5zM369 582q-37 0 -65 -16.5t-47 -45.5t-29 -69.5t-10 -89.5t10 -89.5
t29 -69.5t47 -45t65 -16q73 0 111 60.5t38 159.5q0 49 -9.5 90t-28.5 70t-47 45t-64 16zM291 937q14 17 27.5 23t27.5 6q25 0 40.5 -15t15.5 -36q0 -10 -4 -20.5t-15 -20.5l-92 -88q-8 -8 -18 -11.5t-19 -3.5q-19 0 -33.5 12t-14.5 32q0 21 19 43zM481 937q14 17 27.5 23
t27.5 6q25 0 40.5 -15t15.5 -36q0 -10 -4 -20.5t-15 -20.5l-92 -88q-8 -8 -18 -11.5t-19 -3.5q-19 0 -33.5 12t-14.5 32q0 21 19 43z" />
    <glyph glyph-name="ohungarumlaut" unicode="&#x151;" horiz-adv-x="531" 
d="M41 0zM266 369q-36 0 -55 -26t-19 -92t19 -95t55 -29q35 0 54 29t19 95t-19 92t-54 26zM266 508q109 0 166 -67t57 -189q0 -123 -57 -193t-166 -70t-167 70.5t-58 192.5q0 121 58 188.5t167 67.5zM187 739q14 17 27.5 24t27.5 7q25 0 40.5 -16t15.5 -39q0 -11 -4 -22
t-15 -22l-92 -95q-8 -9 -18 -12.5t-19 -3.5q-19 0 -33.5 13t-14.5 34q0 22 19 47zM377 739q14 17 27.5 24t27.5 7q25 0 40.5 -16t15.5 -39q0 -11 -4 -22t-15 -22l-92 -95q-8 -9 -18 -12.5t-19 -3.5q-19 0 -33.5 13t-14.5 34q0 22 19 47z" />
    <glyph glyph-name="OE" unicode="&#x152;" horiz-adv-x="967" 
d="M838 724q31 0 55 -22.5t24 -53.5t-24 -53.5t-55 -22.5h-218v-126h186q15 0 28 -6t22.5 -15.5t15.5 -22.5t6 -27q0 -29 -21.5 -49.5t-50.5 -20.5h-186v-152h218q31 0 55 -23t24 -54t-24 -53.5t-55 -22.5h-296q-17 0 -28.5 3.5t-19.5 13.5q-29 -14 -62 -21t-68 -7
q-69 0 -125.5 25.5t-97 73.5t-62.5 117t-22 156t22 156.5t62 117.5t96.5 73.5t124.5 25.5q70 0 130 -28q10 18 50 18h296zM463 536q-18 22 -43.5 34t-56.5 12q-36 0 -64 -16t-47 -45.5t-29 -70t-10 -89.5t10 -89.5t29 -69.5t47.5 -45t65.5 -16q62 0 98 45v350z" />
    <glyph glyph-name="oe" unicode="&#x153;" horiz-adv-x="811" 
d="M490 226q3 -61 21.5 -84.5t46.5 -23.5q37 0 63 29q11 12 24 22.5t36 10.5q32 0 51 -21.5t19 -48.5q0 -32 -28 -61q-31 -32 -74 -46t-88 -14q-90 0 -146 53q-56 -53 -148 -53q-111 0 -168.5 70.5t-57.5 191.5q0 123 58 190t167 67q94 0 150 -53q28 26 64 39.5t78 13.5
q50 0 89 -18t65.5 -45.5t40 -61.5t13.5 -67q0 -49 -26 -69.5t-59 -20.5h-191zM266 369q-36 0 -55 -26t-19 -92t19 -95t55 -29q35 0 54 29t19 95t-19 92t-54 26zM611 309q-4 39 -18 55t-38 16q-21 0 -40 -14t-25 -57h121z" />
    <glyph glyph-name="Racute" unicode="&#x154;" horiz-adv-x="627" 
d="M85 0zM262 724q56 0 107 -9t90 -33.5t62.5 -67.5t23.5 -112q0 -42 -9 -74.5t-24 -56t-34.5 -39.5t-41.5 -26l120 -196q11 -18 11 -39q0 -32 -24 -53.5t-56 -21.5q-20 0 -38 9t-29 29l-138 238h-41v-201q0 -15 -6.5 -28.5t-17 -24t-24.5 -16.5t-30 -6t-30 6t-24.5 16.5
t-17 24t-6.5 28.5v577q0 15 6 29t16.5 24.5t25 16.5t30.5 6h99zM241 410h61q36 0 61 18t25 62q0 43 -24.5 62t-60.5 19h-62v-161zM310 937q14 17 27.5 23t27.5 6q25 0 40.5 -15t15.5 -36q0 -10 -4 -20.5t-15 -20.5l-92 -88q-8 -8 -18 -11.5t-19 -3.5q-19 0 -33.5 12
t-14.5 32q0 21 19 43z" />
    <glyph glyph-name="racute" unicode="&#x155;" horiz-adv-x="445" 
d="M50 0zM211 68q0 -30 -21.5 -51t-53.5 -21t-54 21t-22 51v283q0 18 -1.5 29.5t-3.5 20t-3.5 15t-1.5 15.5q0 31 21 51t53 20q33 0 52 -21t24 -51q25 39 56 58.5t66 19.5q19 0 38 -6t34 -17.5t24.5 -28t9.5 -38.5q0 -33 -22 -56.5t-58 -23.5q-14 0 -28.5 5t-25.5 17
q-15 14 -27 23t-25 9q-8 0 -16.5 -5t-14.5 -19v-300zM249 739q14 17 27.5 24t27.5 7q25 0 40.5 -16t15.5 -39q0 -11 -4 -22t-15 -22l-92 -95q-8 -9 -18 -12.5t-19 -3.5q-19 0 -33.5 13t-14.5 34q0 22 19 47z" />
    <glyph glyph-name="Rcommaaccent" unicode="&#x156;" horiz-adv-x="627" 
d="M85 0zM262 724q56 0 107 -9t90 -33.5t62.5 -67.5t23.5 -112q0 -42 -9 -74.5t-24 -56t-34.5 -39.5t-41.5 -26l120 -196q11 -18 11 -39q0 -32 -24 -53.5t-56 -21.5q-20 0 -38 9t-29 29l-138 238h-41v-201q0 -15 -6.5 -28.5t-17 -24t-24.5 -16.5t-30 -6t-30 6t-24.5 16.5
t-17 24t-6.5 28.5v577q0 15 6 29t16.5 24.5t25 16.5t30.5 6h99zM241 410h61q36 0 61 18t25 62q0 43 -24.5 62t-60.5 19h-62v-161zM298 -125q-21 6 -29 22.5t-8 29.5q0 22 15.5 39t45.5 17q29 0 46.5 -16.5t17.5 -51.5q0 -18 -5 -41.5t-14.5 -44.5t-23 -35.5t-30.5 -14.5
q-13 0 -19 6t-6 15q0 13 5.5 24.5t5.5 31.5v9t-1 10z" />
    <glyph glyph-name="rcommaaccent" unicode="&#x157;" horiz-adv-x="445" 
d="M50 0zM211 68q0 -30 -21.5 -51t-53.5 -21t-54 21t-22 51v283q0 18 -1.5 29.5t-3.5 20t-3.5 15t-1.5 15.5q0 31 21 51t53 20q33 0 52 -21t24 -51q25 39 56 58.5t66 19.5q19 0 38 -6t34 -17.5t24.5 -28t9.5 -38.5q0 -33 -22 -56.5t-58 -23.5q-14 0 -28.5 5t-25.5 17
q-15 14 -27 23t-25 9q-8 0 -16.5 -5t-14.5 -19v-300zM114 -125q-21 6 -29 22.5t-8 29.5q0 22 15.5 39t45.5 17q29 0 46.5 -16.5t17.5 -51.5q0 -18 -5 -41.5t-14.5 -44.5t-23 -35.5t-30.5 -14.5q-13 0 -19 6t-6 15q0 13 5.5 24.5t5.5 31.5v9t-1 10z" />
    <glyph glyph-name="Rcaron" unicode="&#x158;" horiz-adv-x="627" 
d="M85 0zM262 724q56 0 107 -9t90 -33.5t62.5 -67.5t23.5 -112q0 -42 -9 -74.5t-24 -56t-34.5 -39.5t-41.5 -26l120 -196q11 -18 11 -39q0 -32 -24 -53.5t-56 -21.5q-20 0 -38 9t-29 29l-138 238h-41v-201q0 -15 -6.5 -28.5t-17 -24t-24.5 -16.5t-30 -6t-30 6t-24.5 16.5
t-17 24t-6.5 28.5v577q0 15 6 29t16.5 24.5t25 16.5t30.5 6h99zM241 410h61q36 0 61 18t25 62q0 43 -24.5 62t-60.5 19h-62v-161zM293 871l65 75q8 9 17 14.5t22 5.5q19 0 35.5 -12.5t16.5 -33.5q0 -10 -3.5 -17.5t-7.5 -12.5l-66 -80q-20 -24 -39.5 -32t-38.5 -8
q-22 0 -42 9t-38 31l-66 80q-4 5 -7.5 12.5t-3.5 17.5q0 20 16 33t36 13q22 0 39 -20z" />
    <glyph glyph-name="rcaron" unicode="&#x159;" horiz-adv-x="445" 
d="M50 0zM211 68q0 -30 -21.5 -51t-53.5 -21t-54 21t-22 51v283q0 18 -1.5 29.5t-3.5 20t-3.5 15t-1.5 15.5q0 31 21 51t53 20q33 0 52 -21t24 -51q25 39 56 58.5t66 19.5q19 0 38 -6t34 -17.5t24.5 -28t9.5 -38.5q0 -33 -22 -56.5t-58 -23.5q-14 0 -28.5 5t-25.5 17
q-15 14 -27 23t-25 9q-8 0 -16.5 -5t-14.5 -19v-300zM232 668l65 80q8 10 17 16t22 6q19 0 35.5 -13.5t16.5 -36.5q0 -11 -3.5 -19t-7.5 -13l-66 -86q-20 -26 -39.5 -34.5t-38.5 -8.5q-22 0 -42 10t-38 33l-66 86q-4 5 -7.5 13t-3.5 19q0 22 16 36t36 14q21 0 39 -22z" />
    <glyph glyph-name="Sacute" unicode="&#x15a;" horiz-adv-x="588" 
d="M54 0zM70 517q0 50 17 90t47.5 68.5t73 43.5t92.5 15q24 0 49.5 -4t49 -12.5t44.5 -22.5t37 -33q11 -13 17.5 -25.5t11.5 -23.5q10 -26 10 -49q0 -34 -22 -57t-59 -23q-33 0 -47.5 18t-26.5 45q-11 23 -25.5 33.5t-37.5 10.5q-32 0 -53 -17.5t-21 -46.5q0 -32 24 -48
t59 -29q36 -13 75.5 -28t72.5 -40t54.5 -64t21.5 -100q0 -58 -20 -101t-53.5 -71.5t-77.5 -42.5t-92 -14q-72 0 -126 28.5t-85 80.5q-10 17 -18 37.5t-8 39.5q0 32 23 55t56 23q23 0 42.5 -13t30.5 -39q3 -8 8 -18t15 -19.5t25 -16t38 -6.5q35 0 60.5 17.5t25.5 52.5
q0 17 -6.5 29t-17.5 20t-25 13.5t-28 10.5q-30 11 -52.5 19.5t-39.5 16.5q-30 14 -55 32t-44 41.5t-29.5 54t-10.5 69.5zM311 937q14 17 27.5 23t27.5 6q25 0 40.5 -15t15.5 -36q0 -10 -4 -20.5t-15 -20.5l-92 -88q-8 -8 -18 -11.5t-19 -3.5q-19 0 -33.5 12t-14.5 32
q0 21 19 43z" />
    <glyph glyph-name="sacute" unicode="&#x15b;" horiz-adv-x="476" 
d="M39 0zM50 356q0 38 15 66.5t41.5 47.5t61.5 28.5t75 9.5q45 0 85.5 -12t63.5 -35q25 -24 25 -59q0 -33 -21.5 -49.5t-48.5 -16.5q-20 0 -33.5 8t-27.5 24q-10 12 -23 22t-34 10q-19 0 -28 -8.5t-9 -20.5q0 -6 2.5 -12t11 -12.5t23.5 -14t41 -15.5q28 -9 59.5 -18.5
t54.5 -28.5q21 -17 33.5 -44.5t12.5 -63.5q0 -29 -8 -54t-21 -45q-26 -39 -68.5 -56.5t-96.5 -17.5q-60 0 -102 18t-67 47q-28 33 -28 68q0 28 18 46q19 18 46 18q19 0 38 -9t33 -29q11 -17 25 -29t41 -12q23 0 33.5 9.5t10.5 24.5q0 26 -31 37q-29 11 -61 21t-61 25
q-38 20 -59.5 53t-21.5 79zM255 739q14 17 27.5 24t27.5 7q25 0 40.5 -16t15.5 -39q0 -11 -4 -22t-15 -22l-92 -95q-8 -9 -18 -12.5t-19 -3.5q-19 0 -33.5 13t-14.5 34q0 22 19 47z" />
    <glyph glyph-name="Scircumflex" unicode="&#x15c;" horiz-adv-x="588" 
d="M54 0zM70 517q0 50 17 90t47.5 68.5t73 43.5t92.5 15q24 0 49.5 -4t49 -12.5t44.5 -22.5t37 -33q11 -13 17.5 -25.5t11.5 -23.5q10 -26 10 -49q0 -34 -22 -57t-59 -23q-33 0 -47.5 18t-26.5 45q-11 23 -25.5 33.5t-37.5 10.5q-32 0 -53 -17.5t-21 -46.5q0 -32 24 -48
t59 -29q36 -13 75.5 -28t72.5 -40t54.5 -64t21.5 -100q0 -58 -20 -101t-53.5 -71.5t-77.5 -42.5t-92 -14q-72 0 -126 28.5t-85 80.5q-10 17 -18 37.5t-8 39.5q0 32 23 55t56 23q23 0 42.5 -13t30.5 -39q3 -8 8 -18t15 -19.5t25 -16t38 -6.5q35 0 60.5 17.5t25.5 52.5
q0 17 -6.5 29t-17.5 20t-25 13.5t-28 10.5q-30 11 -52.5 19.5t-39.5 16.5q-30 14 -55 32t-44 41.5t-29.5 54t-10.5 69.5zM227 926q20 24 39.5 32t38.5 8q22 0 42 -9t38 -31l66 -80q4 -5 7.5 -12.5t3.5 -17.5q0 -20 -16 -33t-36 -13q-22 0 -39 20l-65 75l-65 -75
q-8 -9 -17 -14.5t-22 -5.5q-19 0 -35.5 13t-16.5 33q0 10 3.5 17.5t7.5 12.5z" />
    <glyph glyph-name="scircumflex" unicode="&#x15d;" horiz-adv-x="476" 
d="M39 0zM50 356q0 38 15 66.5t41.5 47.5t61.5 28.5t75 9.5q45 0 85.5 -12t63.5 -35q25 -24 25 -59q0 -33 -21.5 -49.5t-48.5 -16.5q-20 0 -33.5 8t-27.5 24q-10 12 -23 22t-34 10q-19 0 -28 -8.5t-9 -20.5q0 -6 2.5 -12t11 -12.5t23.5 -14t41 -15.5q28 -9 59.5 -18.5
t54.5 -28.5q21 -17 33.5 -44.5t12.5 -63.5q0 -29 -8 -54t-21 -45q-26 -39 -68.5 -56.5t-96.5 -17.5q-60 0 -102 18t-67 47q-28 33 -28 68q0 28 18 46q19 18 46 18q19 0 38 -9t33 -29q11 -17 25 -29t41 -12q23 0 33.5 9.5t10.5 24.5q0 26 -31 37q-29 11 -61 21t-61 25
q-38 20 -59.5 53t-21.5 79zM156 727q20 26 39.5 34.5t38.5 8.5q22 0 42 -10t38 -33l66 -86q4 -5 7.5 -13t3.5 -19q0 -22 -16 -36t-36 -14q-21 0 -39 22l-65 80l-65 -80q-8 -10 -17 -16t-22 -6q-19 0 -35.5 13.5t-16.5 36.5q0 11 3.5 19t7.5 13z" />
    <glyph glyph-name="Scedilla" unicode="&#x15e;" horiz-adv-x="588" 
d="M54 0zM70 517q0 50 17 90t47.5 68.5t73 43.5t92.5 15q24 0 49.5 -4t49 -12.5t44.5 -22.5t37 -33q11 -13 17.5 -25.5t11.5 -23.5q10 -26 10 -49q0 -34 -22 -57t-59 -23q-33 0 -47.5 18t-26.5 45q-11 23 -25.5 33.5t-37.5 10.5q-32 0 -53 -17.5t-21 -46.5q0 -32 24 -48
t59 -29q36 -13 75.5 -28t72.5 -40t54.5 -64t21.5 -100q0 -58 -20 -101t-53.5 -71.5t-77.5 -42.5t-92 -14q-72 0 -126 28.5t-85 80.5q-10 17 -18 37.5t-8 39.5q0 32 23 55t56 23q23 0 42.5 -13t30.5 -39q3 -8 8 -18t15 -19.5t25 -16t38 -6.5q35 0 60.5 17.5t25.5 52.5
q0 17 -6.5 29t-17.5 20t-25 13.5t-28 10.5q-30 11 -52.5 19.5t-39.5 16.5q-30 14 -55 32t-44 41.5t-29.5 54t-10.5 69.5zM268 -125q-21 6 -29 22.5t-8 29.5q0 22 15.5 39t45.5 17q29 0 46.5 -16.5t17.5 -51.5q0 -18 -5 -41.5t-14.5 -44.5t-23 -35.5t-30.5 -14.5q-13 0 -19 6
t-6 15q0 13 5.5 24.5t5.5 31.5v9t-1 10z" />
    <glyph glyph-name="scedilla" unicode="&#x15f;" horiz-adv-x="476" 
d="M39 0zM50 356q0 38 15 66.5t41.5 47.5t61.5 28.5t75 9.5q45 0 85.5 -12t63.5 -35q25 -24 25 -59q0 -33 -21.5 -49.5t-48.5 -16.5q-20 0 -33.5 8t-27.5 24q-10 12 -23 22t-34 10q-19 0 -28 -8.5t-9 -20.5q0 -6 2.5 -12t11 -12.5t23.5 -14t41 -15.5q28 -9 59.5 -18.5
t54.5 -28.5q21 -17 33.5 -44.5t12.5 -63.5q0 -29 -8 -54t-21 -45q-26 -39 -68.5 -56.5t-96.5 -17.5q-60 0 -102 18t-67 47q-28 33 -28 68q0 28 18 46q19 18 46 18q19 0 38 -9t33 -29q11 -17 25 -29t41 -12q23 0 33.5 9.5t10.5 24.5q0 26 -31 37q-29 11 -61 21t-61 25
q-38 20 -59.5 53t-21.5 79zM212 -125q-21 6 -29 22.5t-8 29.5q0 22 15.5 39t45.5 17q29 0 46.5 -16.5t17.5 -51.5q0 -18 -5 -41.5t-14.5 -44.5t-23 -35.5t-30.5 -14.5q-13 0 -19 6t-6 15q0 13 5.5 24.5t5.5 31.5v9t-1 10z" />
    <glyph glyph-name="Scaron" unicode="&#x160;" horiz-adv-x="588" 
d="M54 0zM70 517q0 50 17 90t47.5 68.5t73 43.5t92.5 15q24 0 49.5 -4t49 -12.5t44.5 -22.5t37 -33q11 -13 17.5 -25.5t11.5 -23.5q10 -26 10 -49q0 -34 -22 -57t-59 -23q-33 0 -47.5 18t-26.5 45q-11 23 -25.5 33.5t-37.5 10.5q-32 0 -53 -17.5t-21 -46.5q0 -32 24 -48
t59 -29q36 -13 75.5 -28t72.5 -40t54.5 -64t21.5 -100q0 -58 -20 -101t-53.5 -71.5t-77.5 -42.5t-92 -14q-72 0 -126 28.5t-85 80.5q-10 17 -18 37.5t-8 39.5q0 32 23 55t56 23q23 0 42.5 -13t30.5 -39q3 -8 8 -18t15 -19.5t25 -16t38 -6.5q35 0 60.5 17.5t25.5 52.5
q0 17 -6.5 29t-17.5 20t-25 13.5t-28 10.5q-30 11 -52.5 19.5t-39.5 16.5q-30 14 -55 32t-44 41.5t-29.5 54t-10.5 69.5zM294 871l65 75q8 9 17 14.5t22 5.5q19 0 35.5 -12.5t16.5 -33.5q0 -10 -3.5 -17.5t-7.5 -12.5l-66 -80q-20 -24 -39.5 -32t-38.5 -8q-22 0 -42 9
t-38 31l-66 80q-4 5 -7.5 12.5t-3.5 17.5q0 20 16 33t36 13q22 0 39 -20z" />
    <glyph glyph-name="scaron" unicode="&#x161;" horiz-adv-x="476" 
d="M39 0zM50 356q0 38 15 66.5t41.5 47.5t61.5 28.5t75 9.5q45 0 85.5 -12t63.5 -35q25 -24 25 -59q0 -33 -21.5 -49.5t-48.5 -16.5q-20 0 -33.5 8t-27.5 24q-10 12 -23 22t-34 10q-19 0 -28 -8.5t-9 -20.5q0 -6 2.5 -12t11 -12.5t23.5 -14t41 -15.5q28 -9 59.5 -18.5
t54.5 -28.5q21 -17 33.5 -44.5t12.5 -63.5q0 -29 -8 -54t-21 -45q-26 -39 -68.5 -56.5t-96.5 -17.5q-60 0 -102 18t-67 47q-28 33 -28 68q0 28 18 46q19 18 46 18q19 0 38 -9t33 -29q11 -17 25 -29t41 -12q23 0 33.5 9.5t10.5 24.5q0 26 -31 37q-29 11 -61 21t-61 25
q-38 20 -59.5 53t-21.5 79zM238 668l65 80q8 10 17 16t22 6q19 0 35.5 -13.5t16.5 -36.5q0 -11 -3.5 -19t-7.5 -13l-66 -86q-20 -26 -39.5 -34.5t-38.5 -8.5q-22 0 -42 10t-38 33l-66 86q-4 5 -7.5 13t-3.5 19q0 22 16 36t36 14q21 0 39 -22z" />
    <glyph glyph-name="Tcedilla" unicode="&#x162;" horiz-adv-x="571" 
d="M13 0zM480 724q31 0 54.5 -22.5t23.5 -53.5t-23.5 -53.5t-54.5 -22.5h-117v-501q0 -30 -23 -52.5t-54 -22.5q-16 0 -30 6t-25 16.5t-17.5 24t-6.5 28.5v501h-116q-31 0 -54.5 22.5t-23.5 53.5t23.5 53.5t54.5 22.5h389zM260 -125q-21 6 -29 22.5t-8 29.5q0 22 15.5 39
t45.5 17q29 0 46.5 -16.5t17.5 -51.5q0 -18 -5 -41.5t-14.5 -44.5t-23 -35.5t-30.5 -14.5q-13 0 -19 6t-6 15q0 13 5.5 24.5t5.5 31.5v9t-1 10z" />
    <glyph glyph-name="tcedilla" unicode="&#x163;" horiz-adv-x="412" 
d="M22 0zM98 498v69q0 31 22 51t54 20t53.5 -20t21.5 -51v-69h72q28 0 43.5 -15t15.5 -40t-16.5 -41t-42.5 -16h-72v-247q0 -14 6 -20t15 -6q5 0 11 2t11 8q6 7 14.5 12.5t24.5 5.5q10 0 21 -3t20 -10.5t14.5 -19t5.5 -27.5q0 -24 -12.5 -41.5t-32 -29t-44 -16.5t-49.5 -5
q-78 0 -117 46.5t-39 124.5v226h-17q-26 0 -42.5 17t-16.5 40q0 22 16.5 38.5t42.5 16.5h17zM200 -125q-21 6 -29 22.5t-8 29.5q0 22 15.5 39t45.5 17q29 0 46.5 -16.5t17.5 -51.5q0 -18 -5 -41.5t-14.5 -44.5t-23 -35.5t-30.5 -14.5q-13 0 -19 6t-6 15q0 13 5.5 24.5
t5.5 31.5v9t-1 10z" />
    <glyph glyph-name="Tcaron" unicode="&#x164;" horiz-adv-x="571" 
d="M13 0zM480 724q31 0 54.5 -22.5t23.5 -53.5t-23.5 -53.5t-54.5 -22.5h-117v-501q0 -30 -23 -52.5t-54 -22.5q-16 0 -30 6t-25 16.5t-17.5 24t-6.5 28.5v501h-116q-31 0 -54.5 22.5t-23.5 53.5t23.5 53.5t54.5 22.5h389zM285 871l65 75q8 9 17 14.5t22 5.5
q19 0 35.5 -12.5t16.5 -33.5q0 -10 -3.5 -17.5t-7.5 -12.5l-66 -80q-20 -24 -39.5 -32t-38.5 -8q-22 0 -42 9t-38 31l-66 80q-4 5 -7.5 12.5t-3.5 17.5q0 20 16 33t36 13q22 0 39 -20z" />
    <glyph glyph-name="tcaron" unicode="&#x165;" horiz-adv-x="412" 
d="M22 0zM98 498v69q0 31 22 51t54 20t53.5 -20t21.5 -51v-69h72q28 0 43.5 -15t15.5 -40t-16.5 -41t-42.5 -16h-72v-247q0 -14 6 -20t15 -6q5 0 11 2t11 8q6 7 14.5 12.5t24.5 5.5q10 0 21 -3t20 -10.5t14.5 -19t5.5 -27.5q0 -24 -12.5 -41.5t-32 -29t-44 -16.5t-49.5 -5
q-78 0 -117 46.5t-39 124.5v226h-17q-26 0 -42.5 17t-16.5 40q0 22 16.5 38.5t42.5 16.5h17zM309 648q-21 6 -29 22.5t-8 29.5q0 22 15.5 39t45.5 17q29 0 46.5 -16.5t17.5 -51.5q0 -18 -5 -41.5t-14.5 -44.5t-23 -35.5t-30.5 -14.5q-13 0 -19 6t-6 15q0 13 5.5 24.5
t5.5 31.5v9t-1 10z" />
    <glyph glyph-name="Tbar" unicode="&#x166;" horiz-adv-x="571" 
d="M480 724q31 0 54.5 -22.5t23.5 -53.5t-23.5 -53.5t-54.5 -22.5h-117v-74h58q20 0 34.5 -14.5t14.5 -32.5q0 -20 -14.5 -34t-34.5 -14h-58v-332q0 -30 -23 -52.5t-54 -22.5q-16 0 -30 6t-25 16.5t-17.5 24t-6.5 28.5v332h-56q-20 0 -35 14t-15 34q0 18 15 32.5t35 14.5h56
v74h-116q-31 0 -54.5 22.5t-23.5 53.5t23.5 53.5t54.5 22.5h389z" />
    <glyph glyph-name="tbar" unicode="&#x167;" horiz-adv-x="412" 
d="M98 498v69q0 31 22 51t54 20t53.5 -20t21.5 -51v-69h72q22 0 40.5 -17t18.5 -38q0 -23 -18.5 -40t-40.5 -17h-72v-44h65q27 0 46.5 -17.5t19.5 -37.5q0 -23 -19.5 -40t-46.5 -17h-65v-91q0 -14 6 -20t14 -6q5 0 11.5 2t11.5 8q5 7 14.5 12.5t26.5 5.5q9 0 19.5 -3.5
t19.5 -10.5t14.5 -18t5.5 -25q0 -26 -12.5 -44.5t-32 -29.5t-44.5 -16t-50 -5q-76 0 -115.5 46.5t-39.5 124.5v70h-7q-26 0 -46.5 17t-20.5 40q0 20 20.5 37.5t46.5 17.5h7v44h-17q-23 0 -41 17t-18 40q0 21 18 38t41 17h17z" />
    <glyph glyph-name="Utilde" unicode="&#x168;" horiz-adv-x="674" 
d="M80 0zM236 257q0 -55 26.5 -85.5t74.5 -30.5t74.5 30.5t26.5 85.5v397q0 30 22.5 52.5t54.5 22.5q16 0 30 -6t25 -16.5t17.5 -24t6.5 -28.5v-400q0 -60 -17 -108.5t-50 -83.5t-81.5 -54t-112.5 -19q-65 0 -112.5 20t-79 57.5t-46.5 91t-15 120.5v376q0 15 6.5 28.5t17 24
t24.5 16.5t30 6t30 -6t24.5 -16.5t17 -24t6.5 -28.5v-397zM167 925q8 15 25.5 25.5t46.5 10.5q26 0 50 -8t45 -17.5t40 -17.5t35 -8q10 0 18 2.5t12 5.5q6 4 9 12.5t4 12.5q8 23 34 23q16 0 25 -11t9 -38q0 -15 -3 -30.5t-10 -27.5q-8 -14 -25.5 -24.5t-46.5 -10.5
q-25 0 -48.5 8t-45 17t-41 17t-36.5 8q-9 0 -17 -2.5t-12 -4.5q-6 -5 -9 -13.5t-4 -11.5q-8 -24 -34 -24q-16 0 -25 11t-9 39q0 14 3 29.5t10 27.5z" />
    <glyph glyph-name="utilde" unicode="&#x169;" horiz-adv-x="558" 
d="M74 0zM226 193q0 -61 56 -61t56 60v238q0 31 21.5 51.5t53.5 20.5q31 0 52.5 -20.5t21.5 -51.5v-233q0 -37 -7 -74t-29 -67t-61.5 -48.5t-105.5 -18.5t-107 18.5t-64 48.5t-31 67.5t-8 74.5v232q0 31 22 51.5t54 20.5t54 -20.5t22 -51.5v-237zM109 726q8 16 25.5 27
t46.5 11q26 0 50 -8.5t45 -18.5t40 -18.5t35 -8.5q10 0 18 2.5t12 5.5q6 5 9 14t4 13q8 25 34 25q16 0 25 -12t9 -41q0 -16 -3 -32.5t-10 -29.5q-8 -16 -25.5 -27t-46.5 -11q-25 0 -48.5 8.5t-45 18.5t-41 18.5t-36.5 8.5q-9 0 -17 -2.5t-12 -5.5q-6 -5 -9 -14t-4 -13
q-8 -25 -34 -25q-16 0 -25 12t-9 41q0 16 3 32.5t10 29.5z" />
    <glyph glyph-name="Umacron" unicode="&#x16a;" horiz-adv-x="674" 
d="M80 0zM236 257q0 -55 26.5 -85.5t74.5 -30.5t74.5 30.5t26.5 85.5v397q0 30 22.5 52.5t54.5 22.5q16 0 30 -6t25 -16.5t17.5 -24t6.5 -28.5v-400q0 -60 -17 -108.5t-50 -83.5t-81.5 -54t-112.5 -19q-65 0 -112.5 20t-79 57.5t-46.5 91t-15 120.5v376q0 15 6.5 28.5t17 24
t24.5 16.5t30 6t30 -6t24.5 -16.5t17 -24t6.5 -28.5v-397zM480 919q20 0 34.5 -13.5t14.5 -30.5t-14.5 -30.5t-34.5 -13.5h-286q-20 0 -35 13.5t-15 30.5t15 30.5t35 13.5h286z" />
    <glyph glyph-name="umacron" unicode="&#x16b;" horiz-adv-x="558" 
d="M74 0zM226 193q0 -61 56 -61t56 60v238q0 31 21.5 51.5t53.5 20.5q31 0 52.5 -20.5t21.5 -51.5v-233q0 -37 -7 -74t-29 -67t-61.5 -48.5t-105.5 -18.5t-107 18.5t-64 48.5t-31 67.5t-8 74.5v232q0 31 22 51.5t54 20.5t54 -20.5t22 -51.5v-237zM422 719q20 0 34.5 -14.5
t14.5 -32.5q0 -19 -14.5 -33t-34.5 -14h-286q-20 0 -35 14t-15 33q0 18 15 32.5t35 14.5h286z" />
    <glyph glyph-name="Uring" unicode="&#x16e;" horiz-adv-x="674" 
d="M80 0zM236 257q0 -55 26.5 -85.5t74.5 -30.5t74.5 30.5t26.5 85.5v397q0 30 22.5 52.5t54.5 22.5q16 0 30 -6t25 -16.5t17.5 -24t6.5 -28.5v-400q0 -60 -17 -108.5t-50 -83.5t-81.5 -54t-112.5 -19q-65 0 -112.5 20t-79 57.5t-46.5 91t-15 120.5v376q0 15 6.5 28.5t17 24
t24.5 16.5t30 6t30 -6t24.5 -16.5t17 -24t6.5 -28.5v-397zM240 874q0 19 7.5 36t20.5 29.5t31 19.5t38 7q40 0 68 -26.5t28 -65.5q0 -42 -28 -67.5t-68 -25.5q-42 0 -69.5 25.5t-27.5 67.5zM337 923q-21 0 -35 -14.5t-14 -34.5t14 -34t35 -14t34.5 14t13.5 34t-13.5 34.5
t-34.5 14.5z" />
    <glyph glyph-name="uring" unicode="&#x16f;" horiz-adv-x="558" 
d="M74 0zM226 193q0 -61 56 -61t56 60v238q0 31 21.5 51.5t53.5 20.5q31 0 52.5 -20.5t21.5 -51.5v-233q0 -37 -7 -74t-29 -67t-61.5 -48.5t-105.5 -18.5t-107 18.5t-64 48.5t-31 67.5t-8 74.5v232q0 31 22 51.5t54 20.5t54 -20.5t22 -51.5v-237zM279 770q20 0 37.5 -7.5
t30.5 -21t20.5 -31.5t7.5 -39q0 -45 -28 -72.5t-68 -27.5q-42 0 -69.5 27.5t-27.5 72.5q0 21 7.5 39t20.5 31.5t31 21t38 7.5zM279 724q-21 0 -35 -16t-14 -37q0 -22 14 -37t35 -15t34.5 15t13.5 37q0 21 -13.5 37t-34.5 16z" />
    <glyph glyph-name="Uhungarumlaut" unicode="&#x170;" horiz-adv-x="674" 
d="M80 0zM236 257q0 -55 26.5 -85.5t74.5 -30.5t74.5 30.5t26.5 85.5v397q0 30 22.5 52.5t54.5 22.5q16 0 30 -6t25 -16.5t17.5 -24t6.5 -28.5v-400q0 -60 -17 -108.5t-50 -83.5t-81.5 -54t-112.5 -19q-65 0 -112.5 20t-79 57.5t-46.5 91t-15 120.5v376q0 15 6.5 28.5t17 24
t24.5 16.5t30 6t30 -6t24.5 -16.5t17 -24t6.5 -28.5v-397zM259 937q14 17 27.5 23t27.5 6q25 0 40.5 -15t15.5 -36q0 -10 -4 -20.5t-15 -20.5l-92 -88q-8 -8 -18 -11.5t-19 -3.5q-19 0 -33.5 12t-14.5 32q0 21 19 43zM449 937q14 17 27.5 23t27.5 6q25 0 40.5 -15t15.5 -36
q0 -10 -4 -20.5t-15 -20.5l-92 -88q-8 -8 -18 -11.5t-19 -3.5q-19 0 -33.5 12t-14.5 32q0 21 19 43z" />
    <glyph glyph-name="uhungarumlaut" unicode="&#x171;" horiz-adv-x="558" 
d="M74 0zM226 193q0 -61 56 -61t56 60v238q0 31 21.5 51.5t53.5 20.5q31 0 52.5 -20.5t21.5 -51.5v-233q0 -37 -7 -74t-29 -67t-61.5 -48.5t-105.5 -18.5t-107 18.5t-64 48.5t-31 67.5t-8 74.5v232q0 31 22 51.5t54 20.5t54 -20.5t22 -51.5v-237zM201 739q14 17 27.5 24
t27.5 7q25 0 40.5 -16t15.5 -39q0 -11 -4 -22t-15 -22l-92 -95q-8 -9 -18 -12.5t-19 -3.5q-19 0 -33.5 13t-14.5 34q0 22 19 47zM391 739q14 17 27.5 24t27.5 7q25 0 40.5 -16t15.5 -39q0 -11 -4 -22t-15 -22l-92 -95q-8 -9 -18 -12.5t-19 -3.5q-19 0 -33.5 13t-14.5 34
q0 22 19 47z" />
    <glyph glyph-name="Uogonek" unicode="&#x172;" horiz-adv-x="674" 
d="M236 257q0 -55 26.5 -85.5t74.5 -30.5t74.5 30.5t26.5 85.5v397q0 30 23 52.5t55 22.5q15 0 29.5 -6t25 -16.5t17 -24t6.5 -28.5v-400q0 -97 -44 -164t-128 -90q-29 -18 -42 -44.5t-13 -45.5q0 -8 6 -15.5t17 -7.5q12 0 23 3t25 3q22 0 34 -13t12 -32q0 -11 -7 -22.5
t-24 -19.5q-16 -8 -37.5 -11.5t-37.5 -3.5q-45 0 -76 25t-31 77q0 28 17 53.5t43 42.5q-66 1 -113 21.5t-78 57.5t-45.5 90t-14.5 120v376q0 15 6.5 28.5t17 24t24.5 16.5t30 6t30 -6t24.5 -16.5t17 -24t6.5 -28.5v-397z" />
    <glyph glyph-name="uogonek" unicode="&#x173;" horiz-adv-x="558" 
d="M226 193q0 -61 56 -61t56 60v238q0 31 21.5 51.5t53.5 20.5q30 0 52 -20.5t22 -51.5v-233q0 -30 -4.5 -60.5t-17.5 -57t-37 -47.5t-63 -32q-29 -18 -42.5 -44.5t-13.5 -45.5q0 -8 6.5 -15.5t17.5 -7.5q12 0 23 3t25 3q22 0 34 -13t12 -32q0 -11 -7 -22.5t-24 -19.5
t-38.5 -11.5t-36.5 -3.5q-45 0 -76 25t-31 77q0 28 17.5 54t43.5 43q-63 1 -102.5 20t-61 48.5t-29.5 66.5t-8 73v232q0 31 22 51.5t54 20.5t54 -20.5t22 -51.5v-237z" />
    <glyph glyph-name="Wcircumflex" unicode="&#x174;" horiz-adv-x="870" 
d="M9 0zM251 293l105 377q17 59 78 59q30 0 52.5 -15t30.5 -45l108 -376l93 384q5 22 26 37t44 15q30 0 52 -21t22 -50v-9.5t-2 -11.5l-151 -579q-9 -33 -31 -47.5t-51 -14.5q-31 0 -50.5 13.5t-29.5 45.5l-116 386l-109 -385q-10 -32 -28 -46t-50 -14q-30 0 -51 14.5
t-30 47.5l-151 574q-2 8 -2.5 12.5t-0.5 9.5q0 15 6.5 28.5t17.5 24t25 16.5t30 6q25 0 47.5 -16.5t28.5 -39.5zM356 926q20 24 39.5 32t38.5 8q22 0 42 -9t38 -31l66 -80q4 -5 7.5 -12.5t3.5 -17.5q0 -20 -16 -33t-36 -13q-22 0 -39 20l-65 75l-65 -75q-8 -9 -17 -14.5
t-22 -5.5q-19 0 -35.5 13t-16.5 33q0 10 3.5 17.5t7.5 12.5z" />
    <glyph glyph-name="wcircumflex" unicode="&#x175;" horiz-adv-x="662" 
d="M14 0zM211 243l54 209q5 22 24.5 36t45.5 14t44 -13.5t23 -35.5l55 -210l56 213q5 20 23 33t42 13q31 0 50.5 -19t19.5 -46q0 -8 -2 -14l-3 -9l-121 -368q-8 -24 -26.5 -37t-43.5 -13q-26 0 -45 12.5t-25 37.5l-53 193l-49 -192q-6 -25 -24.5 -38t-44.5 -13q-53 0 -70 50
l-121 353q-2 5 -4 12.5t-2 18.5q0 30 20.5 51t54.5 21q25 0 46.5 -14t27.5 -40zM252 727q20 26 39.5 34.5t38.5 8.5q22 0 42 -10t38 -33l66 -86q4 -5 7.5 -13t3.5 -19q0 -22 -16 -36t-36 -14q-21 0 -39 22l-65 80l-65 -80q-8 -10 -17 -16t-22 -6q-19 0 -35.5 13.5
t-16.5 36.5q0 11 3.5 19t7.5 13z" />
    <glyph glyph-name="Ycircumflex" unicode="&#x176;" horiz-adv-x="548" 
d="M7 0zM278 455l125 234q9 16 25 28t40 12q15 0 28 -6t23 -15.5t16 -22.5t6 -27q0 -13 -3.5 -22.5t-7.5 -16.5l-179 -305v-243q0 -15 -6.5 -28.5t-17.5 -24t-25.5 -16.5t-29.5 -6t-29.5 6t-25 16.5t-17 24t-6.5 28.5v242l-174 297q-13 22 -13 44q0 15 6.5 28.5t17.5 24
t25 16.5t30 6q24 0 41.5 -12t26.5 -29zM195 926q20 24 39.5 32t38.5 8q22 0 42 -9t38 -31l66 -80q4 -5 7.5 -12.5t3.5 -17.5q0 -20 -16 -33t-36 -13q-22 0 -39 20l-65 75l-65 -75q-8 -9 -17 -14.5t-22 -5.5q-19 0 -35.5 13t-16.5 33q0 10 3.5 17.5t7.5 12.5z" />
    <glyph glyph-name="ycircumflex" unicode="&#x177;" horiz-adv-x="444" 
d="M7 0zM220 237l67 216q6 22 25 35.5t44 13.5q30 0 50.5 -19.5t20.5 -48.5q0 -11 -5 -24l-179 -496q-14 -38 -35.5 -68t-56.5 -54q-20 -15 -48 -15q-32 0 -53.5 20t-21.5 51q0 21 10 37.5t27 24.5t31 18.5t20 30.5l31 87l-134 351l-4 14t-2 18q0 32 21.5 52.5t55.5 20.5
q33 0 50 -17t24 -40zM143 727q20 26 39.5 34.5t38.5 8.5q22 0 42 -10t38 -33l66 -86q4 -5 7.5 -13t3.5 -19q0 -22 -16 -36t-36 -14q-21 0 -39 22l-65 80l-65 -80q-8 -10 -17 -16t-22 -6q-19 0 -35.5 13.5t-16.5 36.5q0 11 3.5 19t7.5 13z" />
    <glyph glyph-name="Ydieresis" unicode="&#x178;" horiz-adv-x="548" 
d="M7 0zM278 455l125 234q9 16 25 28t40 12q15 0 28 -6t23 -15.5t16 -22.5t6 -27q0 -13 -3.5 -22.5t-7.5 -16.5l-179 -305v-243q0 -15 -6.5 -28.5t-17.5 -24t-25.5 -16.5t-29.5 -6t-29.5 6t-25 16.5t-17 24t-6.5 28.5v242l-174 297q-13 22 -13 44q0 15 6.5 28.5t17.5 24
t25 16.5t30 6q24 0 41.5 -12t26.5 -29zM296 872q0 32 22.5 54t57.5 22q34 0 56.5 -22t22.5 -54t-22.5 -54t-56.5 -22q-35 0 -57.5 22t-22.5 54zM92 872q0 32 22.5 54t57.5 22q34 0 56.5 -22t22.5 -54t-22.5 -54t-56.5 -22q-35 0 -57.5 22t-22.5 54z" />
    <glyph glyph-name="Zacute" unicode="&#x179;" horiz-adv-x="573" 
d="M36 0zM446 724q38 0 58 -22.5t20 -53.5q0 -11 -4 -22t-9 -21l-265 -452h212q16 0 30.5 -6.5t25 -17t17 -24t6.5 -28.5q0 -32 -23.5 -54.5t-55.5 -22.5h-341q-39 0 -58.5 22.5t-19.5 54.5q0 13 5 24.5t10 20.5l264 450h-204q-16 0 -30.5 6t-25 16.5t-16.5 24.5t-6 29t6 29
t16.5 24.5t25 16.5t30.5 6h332zM303 937q14 17 27.5 23t27.5 6q25 0 40.5 -15t15.5 -36q0 -10 -4 -20.5t-15 -20.5l-92 -88q-8 -8 -18 -11.5t-19 -3.5q-19 0 -33.5 12t-14.5 32q0 21 19 43z" />
    <glyph glyph-name="zacute" unicode="&#x17a;" horiz-adv-x="467" 
d="M37 0zM341 498q32 0 54 -21t22 -51q0 -11 -4 -22t-10 -19l-171 -245h125q30 0 51 -21t21 -50q0 -30 -21 -49.5t-51 -19.5h-242q-32 0 -54 20t-22 51q0 11 5 22.5t11 21.5l168 245h-112q-32 0 -53 19.5t-21 48.5t21 49.5t53 20.5h230zM250 739q14 17 27.5 24t27.5 7
q25 0 40.5 -16t15.5 -39q0 -11 -4 -22t-15 -22l-92 -95q-8 -9 -18 -12.5t-19 -3.5q-19 0 -33.5 13t-14.5 34q0 22 19 47z" />
    <glyph glyph-name="Zdotaccent" unicode="&#x17b;" horiz-adv-x="573" 
d="M36 0zM446 724q38 0 58 -22.5t20 -53.5q0 -11 -4 -22t-9 -21l-265 -452h212q16 0 30.5 -6.5t25 -17t17 -24t6.5 -28.5q0 -32 -23.5 -54.5t-55.5 -22.5h-341q-39 0 -58.5 22.5t-19.5 54.5q0 13 5 24.5t10 20.5l264 450h-204q-16 0 -30.5 6t-25 16.5t-16.5 24.5t-6 29t6 29
t16.5 24.5t25 16.5t30.5 6h332zM207 872q0 32 22.5 54t57.5 22q34 0 56.5 -22t22.5 -54t-22.5 -54t-56.5 -22q-35 0 -57.5 22t-22.5 54z" />
    <glyph glyph-name="zdotaccent" unicode="&#x17c;" horiz-adv-x="467" 
d="M37 0zM341 498q32 0 54 -21t22 -51q0 -11 -4 -22t-10 -19l-171 -245h125q30 0 51 -21t21 -50q0 -30 -21 -49.5t-51 -19.5h-242q-32 0 -54 20t-22 51q0 11 5 22.5t11 21.5l168 245h-112q-32 0 -53 19.5t-21 48.5t21 49.5t53 20.5h230zM154 663q0 32 22.5 54t57.5 22
q34 0 56.5 -22t22.5 -54t-22.5 -54t-56.5 -22q-35 0 -57.5 22t-22.5 54z" />
    <glyph glyph-name="Zcaron" unicode="&#x17d;" horiz-adv-x="573" 
d="M36 0zM446 724q38 0 58 -22.5t20 -53.5q0 -11 -4 -22t-9 -21l-265 -452h212q16 0 30.5 -6.5t25 -17t17 -24t6.5 -28.5q0 -32 -23.5 -54.5t-55.5 -22.5h-341q-39 0 -58.5 22.5t-19.5 54.5q0 13 5 24.5t10 20.5l264 450h-204q-16 0 -30.5 6t-25 16.5t-16.5 24.5t-6 29t6 29
t16.5 24.5t25 16.5t30.5 6h332zM286 871l65 75q8 9 17 14.5t22 5.5q19 0 35.5 -12.5t16.5 -33.5q0 -10 -3.5 -17.5t-7.5 -12.5l-66 -80q-20 -24 -39.5 -32t-38.5 -8q-22 0 -42 9t-38 31l-66 80q-4 5 -7.5 12.5t-3.5 17.5q0 20 16 33t36 13q22 0 39 -20z" />
    <glyph glyph-name="zcaron" unicode="&#x17e;" horiz-adv-x="467" 
d="M37 0zM341 498q32 0 54 -21t22 -51q0 -11 -4 -22t-10 -19l-171 -245h125q30 0 51 -21t21 -50q0 -30 -21 -49.5t-51 -19.5h-242q-32 0 -54 20t-22 51q0 11 5 22.5t11 21.5l168 245h-112q-32 0 -53 19.5t-21 48.5t21 49.5t53 20.5h230zM233 668l65 80q8 10 17 16t22 6
q19 0 35.5 -13.5t16.5 -36.5q0 -11 -3.5 -19t-7.5 -13l-66 -86q-20 -26 -39.5 -34.5t-38.5 -8.5q-22 0 -42 10t-38 33l-66 86q-4 5 -7.5 13t-3.5 19q0 22 16 36t36 14q21 0 39 -22z" />
    <glyph glyph-name="longs" unicode="&#x17f;" horiz-adv-x="387" 
d="M248 67q0 -31 -21.5 -51t-53.5 -20t-54 20t-22 51v519q0 78 39.5 124t115.5 46q25 0 50 -5t44.5 -16t32 -29t12.5 -44q0 -14 -5.5 -25t-14.5 -18t-19.5 -10.5t-19.5 -3.5q-17 0 -26.5 5t-14.5 13q-5 6 -11.5 8t-11.5 2q-8 0 -14 -6t-6 -20v-540z" />
    <glyph glyph-name="uni0180" unicode="&#x180;" horiz-adv-x="533" 
d="M71 659v25q0 30 22 51t54 21t53.5 -21t21.5 -51v-25h115q20 0 34.5 -14.5t14.5 -32.5q0 -19 -14.5 -33t-34.5 -14h-115v-112q41 55 113 55q48 0 78.5 -22.5t48 -59t23.5 -83t6 -93.5q0 -48 -6 -94.5t-23 -83.5t-47 -60t-78 -23q-37 0 -68.5 16t-54.5 54q-5 -28 -22 -45.5
t-48 -17.5q-30 0 -47.5 17t-22.5 43q-2 11 -2.5 34t-0.5 56v419h-20q-20 0 -35 14t-15 33q0 18 15 32.5t35 14.5h20zM222 128q22 -13 47 -13q37 0 54 31t17 106q0 70 -16 100t-57 30q-10 0 -22 -2.5t-23 -10.5v-241z" />
    <glyph glyph-name="uni0181" unicode="&#x181;" horiz-adv-x="816" 
d="M508 724q47 0 87 -11.5t69 -34.5t45.5 -57.5t16.5 -80.5q0 -33 -8.5 -57.5t-22 -42.5t-31.5 -30t-36 -19q27 -7 50.5 -19.5t41.5 -33.5t28.5 -50.5t10.5 -70.5q0 -45 -14 -85t-41.5 -69t-69.5 -46t-97 -17h-181q-32 0 -55.5 22.5t-23.5 54.5v532h-96q-19 0 -19 -25v-157
q0 -29 -20 -47.5t-51 -18.5q-30 0 -50.5 18.5t-20.5 47.5v137q0 74 37 117t109 43h342zM433 153h69q21 0 39 4t31.5 13.5t21 25t7.5 39.5q0 23 -8 39t-22 25.5t-33.5 13.5t-42.5 4h-62v-164zM433 441h62q75 0 75 70q0 35 -19 50t-58 15h-60v-135z" />
    <glyph glyph-name="uni0187" unicode="&#x187;" horiz-adv-x="762" 
d="M349 734q57 0 100 -21.5t62 -54.5q10 48 41 73t79 25q21 0 44.5 -5t42.5 -16.5t31.5 -28.5t12.5 -41q0 -33 -20.5 -46.5t-41.5 -13.5q-15 0 -23 5t-15 13q-6 7 -10.5 8.5t-9.5 1.5q-11 0 -17 -5.5t-6 -20.5v-57q0 -28 -22.5 -51t-56.5 -23q-20 0 -38.5 10t-27.5 27
q-3 6 -6.5 12t-9.5 14q-17 21 -43.5 32t-54.5 11q-35 0 -62.5 -17t-46.5 -47t-28.5 -71.5t-9.5 -90.5q0 -46 9 -85.5t27.5 -68t48 -45t70.5 -16.5q21 0 44.5 9t46.5 46q11 18 27 35t47 17q36 0 58 -23.5t22 -50.5q0 -8 -2.5 -20.5t-7.5 -25.5q-12 -29 -37 -54.5t-58.5 -44.5
t-73.5 -29.5t-82 -10.5q-66 0 -120 27t-93 75.5t-60.5 116t-21.5 149.5q0 83 22 152.5t61 119.5t92.5 77.5t116.5 27.5z" />
    <glyph glyph-name="uni0188" unicode="&#x188;" 
d="M449 368q0 -29 -19.5 -49.5t-51.5 -20.5q-17 0 -28.5 5.5t-19 13.5t-11.5 16t-6 14q-5 11 -17.5 22t-35.5 11q-14 0 -26.5 -6t-21.5 -21t-14.5 -40t-5.5 -62q0 -74 19 -103.5t48 -29.5q21 0 31 11.5t18 26.5q8 14 23.5 29.5t44.5 15.5q32 0 51 -20.5t19 -48.5
q0 -16 -5.5 -29.5t-10.5 -22.5q-22 -38 -67.5 -64.5t-105.5 -26.5q-48 0 -88 19t-68 53t-43.5 80t-15.5 100q0 46 11.5 93t35.5 84.5t60.5 61.5t86.5 24t93 -29q6 25 15.5 47t25 38.5t37.5 26t53 9.5q22 0 45.5 -5t43 -16.5t32 -28.5t12.5 -41q0 -33 -20.5 -46.5
t-41.5 -13.5q-11 0 -21.5 4t-16.5 14q-5 6 -11.5 8t-11.5 2q-8 0 -14.5 -6t-6.5 -20v-79z" />
    <glyph glyph-name="uni018A" unicode="&#x18a;" horiz-adv-x="878" 
d="M488 724q76 0 137 -22t104 -67t66.5 -114t23.5 -163q0 -183 -87.5 -270.5t-243.5 -87.5h-134q-15 0 -29 6t-24.5 16.5t-17 24.5t-6.5 30v532h-96q-19 0 -19 -25v-157q0 -29 -20 -47.5t-51 -18.5q-30 0 -50.5 18.5t-20.5 47.5v137q0 74 37 117t109 43h322zM433 153h12
q60 0 101.5 7.5t67.5 29.5t37.5 62.5t11.5 106.5q0 65 -11.5 106t-36 64.5t-64 32.5t-95.5 9h-23v-418z" />
    <glyph glyph-name="uni018E" unicode="&#x18e;" horiz-adv-x="598" 
d="M136 0q-16 0 -30.5 6t-25 16.5t-17 24.5t-6.5 29t6.5 29t17 24.5t25 16.5t30.5 6h218v126h-186q-30 0 -51.5 21t-21.5 50t21.5 49.5t51.5 20.5h186v152h-218q-32 0 -55.5 23t-23.5 54q0 15 6.5 29t17 24.5t25 16.5t30.5 6h296q32 0 55 -22.5t23 -54.5v-571q0 -15 -6 -29
t-16.5 -24.5t-25 -16.5t-30.5 -6h-296z" />
    <glyph glyph-name="uni018F" unicode="&#x18f;" horiz-adv-x="738" 
d="M508 446q-14 63 -49 99.5t-89 36.5q-28 0 -53 -10.5t-44 -32.5q-8 -10 -10.5 -15.5t-5.5 -10.5q-12 -20 -30 -28.5t-36 -8.5q-17 0 -31.5 6.5t-25 16.5t-16.5 23t-6 27q0 22 15 51q14 27 38 51.5t55.5 42.5t70 29t81.5 11q68 0 124 -27.5t95.5 -77.5t61 -120t21.5 -154
q0 -86 -22 -153.5t-62.5 -115t-96.5 -72.5t-123 -25q-79 0 -137 32t-96 82.5t-56.5 112t-18.5 121.5q0 34 6 55.5t15.5 33.5t23 16t28.5 4h373zM369 141q63 0 99.5 43.5t46.5 120.5h-293q10 -75 47 -119.5t100 -44.5z" />
    <glyph glyph-name="florin" unicode="&#x192;" 
d="M239 475v71q0 78 38 122t106 44q16 0 34.5 -3t34.5 -10.5t27 -20t11 -31.5q0 -23 -15.5 -38t-38.5 -15q-17 0 -26 5.5t-23 5.5q-21 0 -28 -19t-7 -56v-55h35q23 0 40 -16.5t17 -38.5t-17 -38.5t-40 -16.5h-35v-204q0 -76 -37.5 -120.5t-106.5 -44.5q-15 0 -33.5 2.5
t-35 10t-27.5 19.5t-11 32q0 25 17 40t37 15q16 0 25.5 -6.5t24.5 -6.5q20 0 27 19t7 57v187h-30q-23 0 -39.5 16.5t-16.5 38.5t16.5 38.5t39.5 16.5h30z" />
    <glyph glyph-name="uni0194" unicode="&#x194;" horiz-adv-x="573" 
d="M287 401l126 278q8 19 26 34.5t48 15.5q32 0 55.5 -20t23.5 -55q0 -12 -3 -21.5t-9 -21.5l-190 -380q34 -75 56 -124.5t35 -83t17.5 -55t4.5 -41.5q0 -40 -15 -70t-41 -50t-60.5 -30t-73.5 -10t-73.5 10t-60.5 30t-41 50t-15 70q0 20 4.5 41.5t17 55t34.5 83t56 124.5
l-189 380q-7 13 -9.5 22t-2.5 20q0 35 23.5 55.5t55.5 20.5q30 0 48 -15.5t26 -34.5zM335 -57q0 13 -2.5 25.5t-8.5 28t-15 34.5t-22 45q-13 -26 -22 -45t-15 -34.5t-8.5 -28t-2.5 -24.5q0 -31 13.5 -42t34.5 -11t34.5 11t13.5 41z" />
    <glyph glyph-name="uni0198" unicode="&#x198;" horiz-adv-x="691" 
d="M395 386l168 -270q14 -22 14 -42q0 -32 -21.5 -55t-59.5 -23q-19 0 -38 8.5t-33 31.5l-164 281h-20v-246q0 -30 -21 -52.5t-55 -22.5t-57 22.5t-23 52.5v582q0 31 22 53.5t56 22.5t56 -22.5t22 -53.5v-217h33l92 158q28 48 52.5 79t48.5 49.5t47 26t48 7.5q22 0 44.5 -5
t41.5 -16.5t31 -28.5t12 -41q0 -33 -20.5 -46.5t-41.5 -13.5q-25 0 -38 18q-5 7 -9 8.5t-9 1.5t-11 -3t-15.5 -13.5t-24 -31t-36.5 -55.5z" />
    <glyph glyph-name="uni0199" unicode="&#x199;" horiz-adv-x="505" 
d="M80 586q0 78 39 124t117 46q25 0 49.5 -5t44 -16.5t32 -28.5t12.5 -41q0 -33 -20.5 -46.5t-41.5 -13.5q-25 0 -38 18q-5 7 -11.5 8.5t-11.5 1.5q-8 0 -14.5 -6t-6.5 -20v-315l104 171q10 16 25 27.5t36 11.5q28 0 48 -19.5t20 -45.5q0 -11 -3.5 -20.5t-8.5 -17.5
l-91 -135l100 -149q8 -11 13 -21.5t5 -24.5q0 -30 -22 -51.5t-54 -21.5q-20 0 -38 9t-30 28l-104 165v-130q0 -30 -21.5 -51t-53.5 -21t-53.5 21t-21.5 51v518z" />
    <glyph glyph-name="uni019D" unicode="&#x19d;" horiz-adv-x="712" 
d="M85 654q0 31 23 53t58 22q26 0 42 -10.5t27 -26.5l244 -380v346q0 14 6 27t16 22.5t23 15.5t28 6q31 0 53 -21t22 -50v-587q0 -31 -23 -53t-58 -22q-26 0 -42.5 10.5t-26.5 26.5l-244 380v-466q0 -78 -35.5 -124t-113.5 -46q-25 0 -49.5 5t-44 16.5t-32 28.5t-12.5 41
q0 16 5.5 27.5t14.5 19t20 10.5t21 3q16 0 24.5 -5.5t14.5 -12.5q5 -6 11.5 -8t11.5 -2q12 0 14 7.5t2 18.5v728z" />
    <glyph glyph-name="uni01A0" unicode="&#x1a0;" horiz-adv-x="750" 
d="M624 584q24 -45 37 -100.5t13 -121.5q0 -88 -22 -157t-62.5 -117t-96.5 -73.5t-125 -25.5t-125 25.5t-96.5 73.5t-62.5 117t-22 157q0 87 22 156t62.5 117t96.5 73.5t125 25.5q38 0 73 -8.5t65 -23.5q39 -19 64 -28t48 -9q11 0 16 12t5 23q0 12 -3 23t-3 25q0 26 13.5 36
t32.5 10q16 0 26.5 -10.5t17.5 -26t10 -34.5t3 -35q0 -51 -20 -79t-62 -28q-15 0 -30 3zM368 582q-36 0 -64 -16t-47 -45.5t-29 -70t-10 -89.5t10 -89.5t29 -69.5t47 -45t64 -16q37 0 65 16t47 45t28.5 69.5t9.5 89.5t-9.5 89.5t-28.5 70t-47 45.5t-65 16z" />
    <glyph glyph-name="uni01A1" unicode="&#x1a1;" horiz-adv-x="536" 
d="M434 436q20 -7 41 -7q11 0 16.5 12t5.5 23q0 12 -3.5 23t-3.5 25q0 26 13.5 36.5t32.5 10.5q16 0 26.5 -10.5t17.5 -26t10 -34.5t3 -36q0 -51 -20 -78.5t-62 -27.5q-8 0 -17 0.5t-17 2.5q12 -44 12 -98q0 -121 -57 -191.5t-166 -70.5t-167 70.5t-58 191.5q0 123 58 190
t167 67q108 0 168 -72zM266 369q-36 0 -55 -26t-19 -92t19 -95t55 -29q35 0 54 29t19 95t-19 92t-54 26z" />
    <glyph glyph-name="uni01AF" unicode="&#x1af;" horiz-adv-x="713" 
d="M246 257q0 -55 26.5 -85.5t74.5 -30.5t74.5 30.5t26.5 85.5v397q0 30 23 52.5t55 22.5q25 0 45.5 -15t28.5 -38q14 -5 25.5 -8t23.5 -3q11 0 16 12t5 23q0 12 -3 23t-3 25q0 26 13.5 36t32.5 10q16 0 26.5 -10.5t17.5 -26t10 -34.5t3 -35q0 -51 -20 -79t-62 -28
q-19 0 -40 6t-41 14v-347q0 -60 -17 -108.5t-50 -83.5t-81 -54t-109 -19q-67 0 -115.5 20t-80 57.5t-46.5 91t-15 120.5v376q0 15 6.5 28.5t17 24t24.5 16.5t30 6t30 -6t24.5 -16.5t17 -24t6.5 -28.5v-397z" />
    <glyph glyph-name="uni01B0" unicode="&#x1b0;" horiz-adv-x="595" 
d="M226 193q0 -61 56 -61t56 60v238q0 31 21.5 51.5t53.5 20.5q28 0 49 -18t24 -45q24 -10 48 -10q11 0 16.5 12t5.5 23q0 12 -3.5 23t-3.5 25q0 26 13.5 36.5t32.5 10.5q16 0 26.5 -10.5t17.5 -26t10 -34.5t3 -36q0 -51 -20 -78.5t-62 -27.5q-41 0 -83 19v-168
q0 -37 -7 -74t-29 -67t-62.5 -48.5t-106.5 -18.5q-65 0 -106 19t-63.5 49t-30.5 67t-8 74v232q0 31 22 51.5t54 20.5t54 -20.5t22 -51.5v-237z" />
    <glyph glyph-name="uni01B3" unicode="&#x1b3;" horiz-adv-x="673" 
d="M351 314v-243q0 -15 -6.5 -28.5t-17.5 -24t-25.5 -16.5t-29.5 -6t-29.5 6t-25 16.5t-17 24t-6.5 28.5v242l-174 297q-13 22 -13 44q0 15 6.5 29t17.5 24t25.5 16t30.5 6q23 0 40.5 -12t26.5 -29l124 -233l81 152q23 43 45.5 72t45 46t46 24t48.5 7q24 0 47 -5.5t41 -17
t29.5 -28.5t11.5 -40q0 -17 -5.5 -28t-14.5 -18.5t-20 -10.5t-21 -3q-11 0 -21 3.5t-18 14.5q-8 10 -17 10q-5 0 -9.5 -2.5t-12.5 -12.5t-21 -30t-33 -54z" />
    <glyph glyph-name="uni01B4" unicode="&#x1b4;" horiz-adv-x="587" 
d="M243 -86q-13 -35 -34 -66t-58 -56q-20 -15 -47 -15q-34 0 -55 20t-21 51q0 21 10 37.5t27 24.5q18 9 31.5 19t19.5 30l31 87l-134 351l-4 14t-2 17q0 34 21.5 54t56.5 20q32 0 49 -17t24 -40l62 -208l65 209q15 49 35 79t41.5 45.5t43.5 20.5t43 5q25 0 50 -5t44.5 -16.5
t32 -28.5t12.5 -41q0 -33 -20.5 -46.5t-41.5 -13.5q-15 0 -23 5t-15 13q-9 10 -20 10q-6 0 -11.5 -2.5t-11.5 -13t-14 -30.5t-21 -55z" />
    <glyph glyph-name="uni01C4" unicode="&#x1c4;" horiz-adv-x="1259" 
d="M85 0zM296 724q76 0 137 -22t104 -67t66.5 -114t23.5 -163q0 -183 -87.5 -270.5t-243.5 -87.5h-134q-15 0 -29 6t-24.5 16.5t-17 24.5t-6.5 30v571q0 31 23 53.5t54 22.5h134zM241 153h12q60 0 101.5 7.5t67.5 29.5t37.5 62.5t11.5 106.5q0 65 -11.5 106t-36 64.5
t-64 32.5t-95.5 9h-23v-418zM1132 724q38 0 58 -22.5t20 -53.5q0 -11 -4 -22t-9 -21l-265 -452h212q16 0 30.5 -6.5t25 -17t17 -24t6.5 -28.5q0 -32 -23.5 -54.5t-55.5 -22.5h-341q-39 0 -58.5 22.5t-19.5 54.5q0 13 5 24.5t10 20.5l264 450h-204q-16 0 -30.5 6t-25 16.5
t-16.5 24.5t-6 29t6 29t16.5 24.5t25 16.5t30.5 6h332zM972 871l65 75q8 9 17 14.5t22 5.5q19 0 35.5 -12.5t16.5 -33.5q0 -10 -3.5 -17.5t-7.5 -12.5l-66 -80q-20 -24 -39.5 -32t-38.5 -8q-22 0 -42 9t-38 31l-66 80q-4 5 -7.5 12.5t-3.5 17.5q0 20 16 33t36 13
q22 0 39 -20z" />
    <glyph glyph-name="uni01C5" unicode="&#x1c5;" horiz-adv-x="1153" 
d="M85 0zM296 724q76 0 137 -22t104 -67t66.5 -114t23.5 -163q0 -183 -87.5 -270.5t-243.5 -87.5h-134q-15 0 -29 6t-24.5 16.5t-17 24.5t-6.5 30v571q0 31 23 53.5t54 22.5h134zM241 153h12q60 0 101.5 7.5t67.5 29.5t37.5 62.5t11.5 106.5q0 65 -11.5 106t-36 64.5
t-64 32.5t-95.5 9h-23v-418zM1027 498q32 0 54 -21t22 -51q0 -11 -4 -22t-10 -19l-171 -245h125q30 0 51 -21t21 -50q0 -30 -21 -49.5t-51 -19.5h-242q-32 0 -54 20t-22 51q0 11 5 22.5t11 21.5l168 245h-112q-32 0 -53 19.5t-21 48.5t21 49.5t53 20.5h230zM919 668l65 80
q8 10 17 16t22 6q19 0 35.5 -13.5t16.5 -36.5q0 -11 -3.5 -19t-7.5 -13l-66 -86q-20 -26 -39.5 -34.5t-38.5 -8.5q-22 0 -42 10t-38 33l-66 86q-4 5 -7.5 13t-3.5 19q0 22 16 36t36 14q21 0 39 -22z" />
    <glyph glyph-name="uni01C6" unicode="&#x1c6;" horiz-adv-x="1001" 
d="M42 0zM467 147q0 -18 1.5 -30t3.5 -20t3.5 -15t1.5 -15q0 -31 -22 -51t-55 -20q-56 0 -73 58l-3 10q-21 -42 -54.5 -58.5t-70.5 -16.5q-49 0 -79.5 22.5t-48 59.5t-23.5 83.5t-6 93.5t6 93.5t23 83.5t47 60t77 23q37 0 68 -16t54 -51v243q0 30 21 51t53 21t54 -21t22 -51
v-537zM317 364q-13 10 -26.5 14t-26.5 4q-36 0 -53.5 -30.5t-17.5 -105.5q0 -70 16.5 -100.5t54.5 -30.5q13 0 26.5 3.5t26.5 11.5v234zM875 498q32 0 54 -21t22 -51q0 -11 -4 -22t-10 -19l-171 -245h125q30 0 51 -21t21 -50q0 -30 -21 -49.5t-51 -19.5h-242q-32 0 -54 20
t-22 51q0 11 5 22.5t11 21.5l168 245h-112q-32 0 -53 19.5t-21 48.5t21 49.5t53 20.5h230zM767 668l65 80q8 10 17 16t22 6q19 0 35.5 -13.5t16.5 -36.5q0 -11 -3.5 -19t-7.5 -13l-66 -86q-20 -26 -39.5 -34.5t-38.5 -8.5q-22 0 -42 10t-38 33l-66 86q-4 5 -7.5 13t-3.5 19
q0 22 16 36t36 14q21 0 39 -22z" />
    <glyph glyph-name="uni01DD" unicode="&#x1dd;" horiz-adv-x="522" 
d="M327 271q-3 61 -21 84.5t-46 23.5q-37 0 -63 -29q-11 -12 -24 -22.5t-36 -10.5q-32 0 -51 21.5t-19 48.5q0 32 28 61q31 32 74.5 46t86.5 14q52 0 93.5 -18.5t70 -53t43.5 -82.5t15 -106q0 -60 -15.5 -107.5t-44 -81.5t-69 -52t-89.5 -18q-53 0 -92.5 19t-65 48.5
t-38 63.5t-12.5 64q0 47 26 67t59 20h190zM206 188q5 -42 19.5 -56.5t37.5 -14.5q22 0 40.5 15t23.5 56h-121z" />
    <glyph glyph-name="uni01E6" unicode="&#x1e6;" horiz-adv-x="708" 
d="M60 0zM535 414q32 0 55 -22.5t23 -54.5v-266q-48 -42 -112 -62t-127 -20q-72 0 -130.5 25t-99 72t-62.5 115t-22 155q0 85 21 155t60.5 119.5t95.5 76.5t126 27q39 0 77 -9t70.5 -26.5t58.5 -44t42 -60.5q5 -11 8.5 -22.5t3.5 -22.5q0 -14 -6 -27t-16.5 -23t-25 -16.5
t-32.5 -6.5t-35.5 8.5t-29.5 28.5q-5 8 -13 20t-21 23t-32 18.5t-45 7.5q-38 0 -66 -17t-47 -47t-28.5 -71.5t-9.5 -90.5q0 -103 41 -161t123 -58q9 0 22.5 1t27 3t26 5t18.5 8v115h-73q-29 0 -51 22t-22 51q0 14 6 27t16 23t23 16t28 6h134zM364 871l65 75q8 9 17 14.5
t22 5.5q19 0 35.5 -12.5t16.5 -33.5q0 -10 -3.5 -17.5t-7.5 -12.5l-66 -80q-20 -24 -39.5 -32t-38.5 -8q-22 0 -42 9t-38 31l-66 80q-4 5 -7.5 12.5t-3.5 17.5q0 20 16 33t36 13q22 0 39 -20z" />
    <glyph glyph-name="uni01E7" unicode="&#x1e7;" horiz-adv-x="521" 
d="M41 0zM461 8q0 -45 -13.5 -86.5t-39 -73.5t-63 -51.5t-86.5 -19.5q-17 0 -37 3t-39.5 9t-37.5 15.5t-33 23.5q-17 16 -25.5 34.5t-8.5 37.5q0 29 19 50t51 21q20 0 33 -7.5t23 -20.5q11 -14 23 -25.5t35 -11.5q28 0 42 21.5t14 72.5v97q-22 -35 -53 -50t-69 -15
q-48 0 -78 21t-47.5 55t-23.5 77.5t-6 88.5t6 87.5t23 75t46.5 52t76.5 19.5q38 0 69.5 -16t55.5 -54q3 32 24 48t47 16q27 0 45.5 -16t23.5 -45q2 -12 2.5 -35t0.5 -55v-343zM318 363q-25 19 -58 19q-34 0 -51 -22.5t-17 -86.5q0 -61 16.5 -88t55.5 -27q14 0 27 3.5
t27 13.5v188zM260 668l65 80q8 10 17 16t22 6q19 0 35.5 -13.5t16.5 -36.5q0 -11 -3.5 -19t-7.5 -13l-66 -86q-20 -26 -39.5 -34.5t-38.5 -8.5q-22 0 -42 10t-38 33l-66 86q-4 5 -7.5 13t-3.5 19q0 22 16 36t36 14q21 0 39 -22z" />
    <glyph glyph-name="uni01F0" unicode="&#x1f0;" horiz-adv-x="330" 
d="M0 0zM254 -53q0 -78 -36.5 -124t-114.5 -46q-25 0 -49.5 5t-44 16.5t-32 28.5t-12.5 41q0 16 5.5 27.5t14.5 19t20 10.5t21 3q16 0 24.5 -5.5t14.5 -12.5q5 -6 11.5 -8t11.5 -2q12 0 14 7.5t2 18.5v504q0 32 22 52t54 20t53 -20t21 -52v-483zM175 668l65 80q8 10 17 16
t22 6q19 0 35.5 -13.5t16.5 -36.5q0 -11 -3.5 -19t-7.5 -13l-66 -86q-20 -26 -39.5 -34.5t-38.5 -8.5q-22 0 -42 10t-38 33l-66 86q-4 5 -7.5 13t-3.5 19q0 22 16 36t36 14q21 0 39 -22z" />
    <glyph glyph-name="uni01F1" unicode="&#x1f1;" horiz-adv-x="1259" 
d="M85 0zM296 724q76 0 137 -22t104 -67t66.5 -114t23.5 -163q0 -183 -87.5 -270.5t-243.5 -87.5h-134q-15 0 -29 6t-24.5 16.5t-17 24.5t-6.5 30v571q0 31 23 53.5t54 22.5h134zM241 153h12q60 0 101.5 7.5t67.5 29.5t37.5 62.5t11.5 106.5q0 65 -11.5 106t-36 64.5
t-64 32.5t-95.5 9h-23v-418zM1132 724q38 0 58 -22.5t20 -53.5q0 -11 -4 -22t-9 -21l-265 -452h212q16 0 30.5 -6.5t25 -17t17 -24t6.5 -28.5q0 -32 -23.5 -54.5t-55.5 -22.5h-341q-39 0 -58.5 22.5t-19.5 54.5q0 13 5 24.5t10 20.5l264 450h-204q-16 0 -30.5 6t-25 16.5
t-16.5 24.5t-6 29t6 29t16.5 24.5t25 16.5t30.5 6h332z" />
    <glyph glyph-name="uni01F2" unicode="&#x1f2;" horiz-adv-x="1153" 
d="M85 0zM296 724q76 0 137 -22t104 -67t66.5 -114t23.5 -163q0 -183 -87.5 -270.5t-243.5 -87.5h-134q-15 0 -29 6t-24.5 16.5t-17 24.5t-6.5 30v571q0 31 23 53.5t54 22.5h134zM241 153h12q60 0 101.5 7.5t67.5 29.5t37.5 62.5t11.5 106.5q0 65 -11.5 106t-36 64.5
t-64 32.5t-95.5 9h-23v-418zM1027 498q32 0 54 -21t22 -51q0 -11 -4 -22t-10 -19l-171 -245h125q30 0 51 -21t21 -50q0 -30 -21 -49.5t-51 -19.5h-242q-32 0 -54 20t-22 51q0 11 5 22.5t11 21.5l168 245h-112q-32 0 -53 19.5t-21 48.5t21 49.5t53 20.5h230z" />
    <glyph glyph-name="uni01F3" unicode="&#x1f3;" horiz-adv-x="1001" 
d="M42 0zM467 147q0 -18 1.5 -30t3.5 -20t3.5 -15t1.5 -15q0 -31 -22 -51t-55 -20q-56 0 -73 58l-3 10q-21 -42 -54.5 -58.5t-70.5 -16.5q-49 0 -79.5 22.5t-48 59.5t-23.5 83.5t-6 93.5t6 93.5t23 83.5t47 60t77 23q37 0 68 -16t54 -51v243q0 30 21 51t53 21t54 -21t22 -51
v-537zM317 364q-13 10 -26.5 14t-26.5 4q-36 0 -53.5 -30.5t-17.5 -105.5q0 -70 16.5 -100.5t54.5 -30.5q13 0 26.5 3.5t26.5 11.5v234zM875 498q32 0 54 -21t22 -51q0 -11 -4 -22t-10 -19l-171 -245h125q30 0 51 -21t21 -50q0 -30 -21 -49.5t-51 -19.5h-242q-32 0 -54 20
t-22 51q0 11 5 22.5t11 21.5l168 245h-112q-32 0 -53 19.5t-21 48.5t21 49.5t53 20.5h230z" />
    <glyph glyph-name="uni01F4" unicode="&#x1f4;" horiz-adv-x="708" 
d="M60 0zM535 414q32 0 55 -22.5t23 -54.5v-266q-48 -42 -112 -62t-127 -20q-72 0 -130.5 25t-99 72t-62.5 115t-22 155q0 85 21 155t60.5 119.5t95.5 76.5t126 27q39 0 77 -9t70.5 -26.5t58.5 -44t42 -60.5q5 -11 8.5 -22.5t3.5 -22.5q0 -14 -6 -27t-16.5 -23t-25 -16.5
t-32.5 -6.5t-35.5 8.5t-29.5 28.5q-5 8 -13 20t-21 23t-32 18.5t-45 7.5q-38 0 -66 -17t-47 -47t-28.5 -71.5t-9.5 -90.5q0 -103 41 -161t123 -58q9 0 22.5 1t27 3t26 5t18.5 8v115h-73q-29 0 -51 22t-22 51q0 14 6 27t16 23t23 16t28 6h134zM381 937q14 17 27.5 23t27.5 6
q25 0 40.5 -15t15.5 -36q0 -10 -4 -20.5t-15 -20.5l-92 -88q-8 -8 -18 -11.5t-19 -3.5q-19 0 -33.5 12t-14.5 32q0 21 19 43z" />
    <glyph glyph-name="uni01F5" unicode="&#x1f5;" horiz-adv-x="521" 
d="M41 0zM461 8q0 -45 -13.5 -86.5t-39 -73.5t-63 -51.5t-86.5 -19.5q-17 0 -37 3t-39.5 9t-37.5 15.5t-33 23.5q-17 16 -25.5 34.5t-8.5 37.5q0 29 19 50t51 21q20 0 33 -7.5t23 -20.5q11 -14 23 -25.5t35 -11.5q28 0 42 21.5t14 72.5v97q-22 -35 -53 -50t-69 -15
q-48 0 -78 21t-47.5 55t-23.5 77.5t-6 88.5t6 87.5t23 75t46.5 52t76.5 19.5q38 0 69.5 -16t55.5 -54q3 32 24 48t47 16q27 0 45.5 -16t23.5 -45q2 -12 2.5 -35t0.5 -55v-343zM318 363q-25 19 -58 19q-34 0 -51 -22.5t-17 -86.5q0 -61 16.5 -88t55.5 -27q14 0 27 3.5
t27 13.5v188zM277 739q14 17 27.5 24t27.5 7q25 0 40.5 -16t15.5 -39q0 -11 -4 -22t-15 -22l-92 -95q-8 -9 -18 -12.5t-19 -3.5q-19 0 -33.5 13t-14.5 34q0 22 19 47z" />
    <glyph glyph-name="uni01F8" unicode="&#x1f8;" horiz-adv-x="712" 
d="M85 0zM479 312v346q0 14 6 27t16 22.5t23 15.5t28 6q31 0 53 -21t22 -50v-587q0 -31 -23 -53t-58 -22q-26 0 -42.5 10.5t-26.5 26.5l-244 380v-346q0 -29 -22 -50t-52 -21t-52 21t-22 50v587q0 31 23 53t58 22q26 0 42 -10.5t27 -26.5zM405 858q19 -22 19 -43
q0 -20 -14.5 -32t-33.5 -12q-9 0 -19 3.5t-18 11.5l-92 88q-11 10 -15 20.5t-4 20.5q0 21 15.5 36t40.5 15q14 0 27.5 -6t27.5 -23z" />
    <glyph glyph-name="uni01F9" unicode="&#x1f9;" horiz-adv-x="535" 
d="M50 0zM211 68q0 -30 -21.5 -51t-53.5 -21t-54 21t-22 51v283q0 18 -1.5 29.5t-3.5 20t-3.5 15t-1.5 15.5q0 31 21.5 51t53.5 20q24 0 43 -12.5t28 -35.5l14 14t23 18t33 15.5t44 6.5q69 0 108 -53.5t39 -153.5v-154q0 -19 1.5 -30.5t4 -20t4 -15t1.5 -15.5q0 -30 -22 -50
t-56 -20q-25 0 -41 12t-25.5 32t-13 47.5t-3.5 58.5v167q0 13 -2.5 26.5t-9 25t-19 18.5t-31.5 7q-11 0 -19 -2t-15 -4v-316zM306 654q19 -25 19 -47q0 -21 -14.5 -34t-33.5 -13q-9 0 -19 3.5t-18 12.5l-92 95q-11 11 -15 22t-4 22q0 23 15.5 39t40.5 16q14 0 27.5 -7
t27.5 -24z" />
    <glyph glyph-name="Scommaaccent" unicode="&#x218;" horiz-adv-x="588" 
d="M54 0zM70 517q0 50 17 90t47.5 68.5t73 43.5t92.5 15q24 0 49.5 -4t49 -12.5t44.5 -22.5t37 -33q11 -13 17.5 -25.5t11.5 -23.5q10 -26 10 -49q0 -34 -22 -57t-59 -23q-33 0 -47.5 18t-26.5 45q-11 23 -25.5 33.5t-37.5 10.5q-32 0 -53 -17.5t-21 -46.5q0 -32 24 -48
t59 -29q36 -13 75.5 -28t72.5 -40t54.5 -64t21.5 -100q0 -58 -20 -101t-53.5 -71.5t-77.5 -42.5t-92 -14q-72 0 -126 28.5t-85 80.5q-10 17 -18 37.5t-8 39.5q0 32 23 55t56 23q23 0 42.5 -13t30.5 -39q3 -8 8 -18t15 -19.5t25 -16t38 -6.5q35 0 60.5 17.5t25.5 52.5
q0 17 -6.5 29t-17.5 20t-25 13.5t-28 10.5q-30 11 -52.5 19.5t-39.5 16.5q-30 14 -55 32t-44 41.5t-29.5 54t-10.5 69.5zM268 -125q-21 6 -29 22.5t-8 29.5q0 22 15.5 39t45.5 17q29 0 46.5 -16.5t17.5 -51.5q0 -18 -5 -41.5t-14.5 -44.5t-23 -35.5t-30.5 -14.5q-13 0 -19 6
t-6 15q0 13 5.5 24.5t5.5 31.5v9t-1 10z" />
    <glyph glyph-name="scommaaccent" unicode="&#x219;" horiz-adv-x="476" 
d="M39 0zM50 356q0 38 15 66.5t41.5 47.5t61.5 28.5t75 9.5q45 0 85.5 -12t63.5 -35q25 -24 25 -59q0 -33 -21.5 -49.5t-48.5 -16.5q-20 0 -33.5 8t-27.5 24q-10 12 -23 22t-34 10q-19 0 -28 -8.5t-9 -20.5q0 -6 2.5 -12t11 -12.5t23.5 -14t41 -15.5q28 -9 59.5 -18.5
t54.5 -28.5q21 -17 33.5 -44.5t12.5 -63.5q0 -29 -8 -54t-21 -45q-26 -39 -68.5 -56.5t-96.5 -17.5q-60 0 -102 18t-67 47q-28 33 -28 68q0 28 18 46q19 18 46 18q19 0 38 -9t33 -29q11 -17 25 -29t41 -12q23 0 33.5 9.5t10.5 24.5q0 26 -31 37q-29 11 -61 21t-61 25
q-38 20 -59.5 53t-21.5 79zM212 -125q-21 6 -29 22.5t-8 29.5q0 22 15.5 39t45.5 17q29 0 46.5 -16.5t17.5 -51.5q0 -18 -5 -41.5t-14.5 -44.5t-23 -35.5t-30.5 -14.5q-13 0 -19 6t-6 15q0 13 5.5 24.5t5.5 31.5v9t-1 10z" />
    <glyph glyph-name="uni021A" unicode="&#x21a;" horiz-adv-x="571" 
d="M13 0zM480 724q31 0 54.5 -22.5t23.5 -53.5t-23.5 -53.5t-54.5 -22.5h-117v-501q0 -30 -23 -52.5t-54 -22.5q-16 0 -30 6t-25 16.5t-17.5 24t-6.5 28.5v501h-116q-31 0 -54.5 22.5t-23.5 53.5t23.5 53.5t54.5 22.5h389zM260 -125q-21 6 -29 22.5t-8 29.5q0 22 15.5 39
t45.5 17q29 0 46.5 -16.5t17.5 -51.5q0 -18 -5 -41.5t-14.5 -44.5t-23 -35.5t-30.5 -14.5q-13 0 -19 6t-6 15q0 13 5.5 24.5t5.5 31.5v9t-1 10z" />
    <glyph glyph-name="uni021B" unicode="&#x21b;" horiz-adv-x="412" 
d="M22 0zM98 498v69q0 31 22 51t54 20t53.5 -20t21.5 -51v-69h72q28 0 43.5 -15t15.5 -40t-16.5 -41t-42.5 -16h-72v-247q0 -14 6 -20t15 -6q5 0 11 2t11 8q6 7 14.5 12.5t24.5 5.5q10 0 21 -3t20 -10.5t14.5 -19t5.5 -27.5q0 -24 -12.5 -41.5t-32 -29t-44 -16.5t-49.5 -5
q-78 0 -117 46.5t-39 124.5v226h-17q-26 0 -42.5 17t-16.5 40q0 22 16.5 38.5t42.5 16.5h17zM200 -125q-21 6 -29 22.5t-8 29.5q0 22 15.5 39t45.5 17q29 0 46.5 -16.5t17.5 -51.5q0 -18 -5 -41.5t-14.5 -44.5t-23 -35.5t-30.5 -14.5q-13 0 -19 6t-6 15q0 13 5.5 24.5
t5.5 31.5v9t-1 10z" />
    <glyph glyph-name="dotlessj" unicode="&#x237;" horiz-adv-x="330" 
d="M254 -53q0 -78 -36.5 -124t-114.5 -46q-25 0 -49.5 5t-44 16.5t-32 28.5t-12.5 41q0 16 5.5 27.5t14.5 19t20 10.5t21 3q16 0 24.5 -5.5t14.5 -12.5q5 -6 11.5 -8t11.5 -2q12 0 14 7.5t2 18.5v504q0 32 22 52t54 20t53 -20t21 -52v-483z" />
    <glyph glyph-name="uni0241" unicode="&#x241;" horiz-adv-x="458" 
d="M279 71q0 -15 -6.5 -28.5t-17 -24t-25 -16.5t-29.5 -6t-29.5 6t-25.5 16.5t-17.5 24t-6.5 28.5v201q0 6 1 19.5t3.5 29.5t7.5 33t14 31q9 15 20.5 30t23.5 30t23 29.5t18 26.5q19 33 19 63q0 44 -43 44q-18 0 -29.5 -8t-23.5 -19q-6 -5 -20.5 -13.5t-35.5 -8.5
q-16 0 -30 6t-24.5 15.5t-16.5 22.5t-6 27t5.5 28t13.5 24q12 17 31.5 29.5t42 20.5t46.5 12t47 4q40 0 75.5 -12t62 -35t42 -56.5t15.5 -76.5q0 -27 -6 -50t-16 -41t-21 -32t-22.5 -28t-22.5 -29.5t-20 -36.5q-8 -18 -12 -38.5t-5 -40.5v-201z" />
    <glyph glyph-name="uni0242" unicode="&#x242;" horiz-adv-x="439" 
d="M118 94q0 5 1 16t3.5 24.5t7 27.5t12.5 25q5 8 16 20.5t23.5 26t24 26.5t18.5 23q9 13 13.5 26.5t4.5 24.5q0 37 -40 37q-18 0 -29 -6.5t-23 -15.5q-7 -5 -21 -11.5t-35 -6.5t-35 7.5t-22 18.5t-11 23t-3 20q0 13 5.5 25.5t12.5 20.5q10 13 28 23t39.5 17.5t46 11.5
t48.5 4q37 0 71 -10.5t59 -30t40 -48t15 -65.5q0 -24 -6 -43.5t-15 -35.5q-8 -14 -19 -26t-22.5 -24.5t-22.5 -26.5t-19 -31q-8 -15 -12 -32.5t-5 -34.5v-29q0 -14 -6 -26t-16 -22t-23 -15.5t-28 -5.5q-30 0 -53 21t-23 48v29z" />
    <glyph glyph-name="uni024C" unicode="&#x24c;" horiz-adv-x="679" 
d="M314 724q56 0 107 -9t90 -33.5t62.5 -67.5t23.5 -112q0 -42 -9 -74.5t-24 -56t-34.5 -39.5t-41.5 -26l120 -196q11 -18 11 -39q0 -32 -24 -53.5t-56 -21.5q-20 0 -38 9t-29 29l-138 238h-41v-201q0 -15 -6.5 -28.5t-17 -24t-24.5 -16.5t-30 -6t-30 6t-24.5 16.5t-17 24
t-6.5 28.5v201h-64q-30 0 -51.5 19t-21.5 48t21.5 50t51.5 21h64v238q0 15 6 29t16.5 24.5t25 16.5t30.5 6h99zM293 410h61q36 0 61 18t25 62q0 43 -24.5 62t-60.5 19h-62v-161z" />
    <glyph glyph-name="uni024D" unicode="&#x24d;" horiz-adv-x="497" 
d="M112 285v66q0 18 -1.5 29.5t-3.5 20t-3.5 15t-1.5 15.5q0 31 21 51t53 20q33 0 52 -21t24 -51q25 39 56 58.5t66 19.5q19 0 38 -6t34 -17.5t24.5 -28t9.5 -38.5q0 -33 -22 -56.5t-58 -23.5q-14 0 -28.5 5t-25.5 17q-15 14 -27 23t-25 9q-8 0 -16.5 -5t-14.5 -19v-83h75
q20 0 34.5 -14.5t14.5 -32.5q0 -19 -14.5 -33t-34.5 -14h-75v-123q0 -30 -21.5 -51t-53.5 -21t-54 21t-22 51v123h-60q-20 0 -35 14t-15 33q0 18 15 32.5t35 14.5h60z" />
    <glyph glyph-name="uni0253" unicode="&#x253;" horiz-adv-x="522" 
d="M60 586q0 78 39 124t117 46q25 0 49.5 -5t44 -16.5t32 -28.5t12.5 -41q0 -33 -20.5 -46.5t-41.5 -13.5q-11 0 -21.5 4t-16.5 14q-5 6 -11.5 8t-11.5 2q-8 0 -14 -6t-6 -20v-154q41 55 113 55q48 0 78.5 -22.5t48 -59t23.5 -83t6 -93.5q0 -48 -6 -94.5t-23 -83.5t-47 -60
t-78 -23q-37 0 -68.5 16t-54.5 54q-5 -28 -22 -45.5t-48 -17.5q-30 0 -47.5 17t-22.5 43q-2 11 -2.5 34t-0.5 56v440zM211 128q22 -13 47 -13q37 0 54 31t17 106q0 70 -16 100t-57 30q-10 0 -22 -2.5t-23 -10.5v-241z" />
    <glyph glyph-name="uni0257" unicode="&#x257;" horiz-adv-x="610" 
d="M317 586q0 78 38.5 124t116.5 46q25 0 49.5 -5t44 -16.5t32 -28.5t12.5 -41q0 -33 -20.5 -46.5t-41.5 -13.5q-11 0 -21.5 4t-16.5 14q-5 6 -11.5 8t-11.5 2q-8 0 -14 -6t-6 -20v-460q0 -18 1.5 -30t3.5 -20t3.5 -15t1.5 -15q0 -31 -22 -51t-55 -20q-56 0 -73 58l-3 10
q-21 -42 -54.5 -58.5t-70.5 -16.5q-49 0 -79.5 22.5t-48 59.5t-23.5 83.5t-6 93.5t6 93.5t23 83.5t47 60t77 23q37 0 68 -16t54 -51v145zM317 364q-13 10 -26.5 14t-26.5 4q-36 0 -53.5 -30.5t-17.5 -105.5q0 -70 16.5 -100.5t54.5 -30.5q13 0 26.5 3.5t26.5 11.5v234z" />
    <glyph glyph-name="uni0263" unicode="&#x263;" horiz-adv-x="446" 
d="M221 327l61 132q11 23 29 33t38 10q15 0 29.5 -5t26 -14.5t18.5 -23t7 -29.5q0 -19 -12 -41l-122 -225q30 -64 48.5 -105.5t29 -69t14.5 -46t4 -37.5q0 -65 -40 -97t-131 -32t-131 32t-40 98q0 17 3.5 34.5t13.5 45t29 69.5t49 108l-121 225q-12 22 -12 41q0 16 7 29.5
t18.5 23t26 14.5t29.5 5q20 0 38 -10t29 -33zM256 -78q0 32 -35 102q-35 -70 -35 -102q0 -12 6.5 -23.5t28.5 -11.5t28.5 11.5t6.5 23.5z" />
    <glyph glyph-name="uni0272" unicode="&#x272;" horiz-adv-x="535" 
d="M60 351q0 18 -1.5 29.5t-3.5 20t-3.5 15t-1.5 15.5q0 31 21.5 51t53.5 20q24 0 43 -12.5t28 -35.5l14 14t23 18t33 15.5t44 6.5q69 0 108 -53.5t39 -153.5v-154q0 -19 1.5 -30.5t4 -20t4 -15t1.5 -15.5q0 -30 -22 -50t-56 -20q-25 0 -41 12t-25.5 32t-13 47.5t-3.5 58.5
v167q0 13 -2.5 26.5t-9 25t-19 18.5t-31.5 7q-11 0 -19 -2t-15 -4v-437q0 -78 -37 -124t-115 -46q-25 0 -49.5 5t-44 16.5t-32 28.5t-12.5 41q0 16 5.5 27.5t14.5 19t20 10.5t21 3q16 0 24.5 -5.5t14.5 -12.5q5 -6 11.5 -8t11.5 -2q12 0 14 7.5t2 18.5v425z" />
    <glyph glyph-name="circumflex" unicode="&#x2c6;" horiz-adv-x="339" 
d="M90 727q20 26 39.5 34.5t38.5 8.5q22 0 42 -10t38 -33l66 -86q4 -5 7.5 -13t3.5 -19q0 -22 -16 -36t-36 -14q-21 0 -39 22l-65 80l-65 -80q-8 -10 -17 -16t-22 -6q-19 0 -35.5 13.5t-16.5 36.5q0 11 3.5 19t7.5 13z" />
    <glyph glyph-name="caron" unicode="&#x2c7;" horiz-adv-x="339" 
d="M169 668l65 80q8 10 17 16t22 6q19 0 35.5 -13.5t16.5 -36.5q0 -11 -3.5 -19t-7.5 -13l-66 -86q-20 -26 -39.5 -34.5t-38.5 -8.5q-22 0 -42 10t-38 33l-66 86q-4 5 -7.5 13t-3.5 19q0 22 16 36t36 14q21 0 39 -22z" />
    <glyph glyph-name="uni02C9" unicode="&#x2c9;" horiz-adv-x="0" 
d="M-82 625zM-131 719q20 0 34.5 -14.5t14.5 -32.5q0 -19 -14.5 -33t-34.5 -14h-286q-20 0 -35 14t-15 33q0 18 15 32.5t35 14.5h286z" />
    <glyph glyph-name="breve" unicode="&#x2d8;" horiz-adv-x="412" 
d="M49 742q14 0 24 -6.5t19 -15.5q22 -21 46.5 -31.5t68.5 -10.5t68.5 10.5t46.5 31.5q9 9 19 15.5t24 6.5q15 0 24 -8t9 -26q0 -23 -11.5 -40t-22.5 -27q-23 -22 -60.5 -35.5t-96.5 -13.5t-96.5 13.5t-60.5 35.5q-11 10 -22.5 27t-11.5 40q0 18 9 26t24 8z" />
    <glyph glyph-name="dotaccent" unicode="&#x2d9;" horiz-adv-x="185" 
d="M13 663q0 32 22.5 54t57.5 22q34 0 56.5 -22t22.5 -54t-22.5 -54t-56.5 -22q-35 0 -57.5 22t-22.5 54z" />
    <glyph glyph-name="ring" unicode="&#x2da;" horiz-adv-x="219" 
d="M110 770q20 0 37.5 -7.5t30.5 -21t20.5 -31.5t7.5 -39q0 -45 -28 -72.5t-68 -27.5q-42 0 -69.5 27.5t-27.5 72.5q0 21 7.5 39t20.5 31.5t31 21t38 7.5zM110 724q-21 0 -35 -16t-14 -37q0 -22 14 -37t35 -15t34.5 15t13.5 37q0 21 -13.5 37t-34.5 16z" />
    <glyph glyph-name="ogonek" unicode="&#x2db;" horiz-adv-x="243" 
d="M164 0q-29 -18 -42 -44.5t-13 -43.5q0 -25 24 -25q10 0 22 3t24 3q23 0 35.5 -13t12.5 -31q0 -12 -7 -23.5t-24 -19.5t-38.5 -11.5t-37.5 -3.5q-45 0 -76 25.5t-31 71.5q0 42 24.5 69t55.5 43h71z" />
    <glyph glyph-name="tilde" unicode="&#x2dc;" horiz-adv-x="392" 
d="M26 726q8 16 25.5 27t46.5 11q26 0 50 -8.5t45 -18.5t40 -18.5t35 -8.5q10 0 18 2.5t12 5.5q6 5 9 14t4 13q8 25 34 25q16 0 25 -12t9 -41q0 -16 -3 -32.5t-10 -29.5q-8 -16 -25.5 -27t-46.5 -11q-25 0 -48.5 8.5t-45 18.5t-41 18.5t-36.5 8.5q-9 0 -17 -2.5t-12 -5.5
q-6 -5 -9 -14t-4 -13q-8 -25 -34 -25q-16 0 -25 12t-9 41q0 16 3 32.5t10 29.5z" />
    <glyph glyph-name="hungarumlaut" unicode="&#x2dd;" horiz-adv-x="412" 
d="M98 739q14 17 27.5 24t27.5 7q25 0 40.5 -16t15.5 -39q0 -11 -4 -22t-15 -22l-92 -95q-8 -9 -18 -12.5t-19 -3.5q-19 0 -33.5 13t-14.5 34q0 22 19 47zM288 739q14 17 27.5 24t27.5 7q25 0 40.5 -16t15.5 -39q0 -11 -4 -22t-15 -22l-92 -95q-8 -9 -18 -12.5t-19 -3.5
q-19 0 -33.5 13t-14.5 34q0 22 19 47z" />
    <glyph glyph-name="gravecomb" unicode="&#x300;" horiz-adv-x="0" 
d="M-205 560zM-224 654q19 -25 19 -47q0 -21 -14.5 -34t-33.5 -13q-9 0 -19 3.5t-18 12.5l-92 95q-11 11 -15 22t-4 22q0 23 15.5 39t40.5 16q14 0 27.5 -7t27.5 -24z" />
    <glyph glyph-name="acutecomb" unicode="&#x301;" horiz-adv-x="0" 
d="M-145 560zM-256 739q14 17 27.5 24t27.5 7q25 0 40.5 -16t15.5 -39q0 -11 -4 -22t-15 -22l-92 -95q-8 -9 -18 -12.5t-19 -3.5q-19 0 -33.5 13t-14.5 34q0 22 19 47z" />
    <glyph glyph-name="uni0302" unicode="&#x302;" horiz-adv-x="0" 
d="M-117 559zM-352 727q20 26 39.5 34.5t38.5 8.5q22 0 42 -10t38 -33l66 -86q4 -5 7.5 -13t3.5 -19q0 -22 -16 -36t-36 -14q-21 0 -39 22l-65 80l-65 -80q-8 -10 -17 -16t-22 -6q-19 0 -35.5 13.5t-16.5 36.5q0 11 3.5 19t7.5 13z" />
    <glyph glyph-name="tildecomb" unicode="&#x303;" horiz-adv-x="0" 
d="M-90 611zM-443 726q8 16 25.5 27t46.5 11q26 0 50 -8.5t45 -18.5t40 -18.5t35 -8.5q10 0 18 2.5t12 5.5q6 5 9 14t4 13q8 25 34 25q16 0 25 -12t9 -41q0 -16 -3 -32.5t-10 -29.5q-8 -16 -25.5 -27t-46.5 -11q-25 0 -48.5 8.5t-45 18.5t-41 18.5t-36.5 8.5q-9 0 -17 -2.5
t-12 -5.5q-6 -5 -9 -14t-4 -13q-8 -25 -34 -25q-16 0 -25 12t-9 41q0 16 3 32.5t10 29.5z" />
    <glyph glyph-name="uni0304" unicode="&#x304;" horiz-adv-x="0" 
d="M-80 625zM-129 719q20 0 34.5 -14.5t14.5 -32.5q0 -19 -14.5 -33t-34.5 -14h-286q-20 0 -35 14t-15 33q0 18 15 32.5t35 14.5h286z" />
    <glyph glyph-name="uni0306" unicode="&#x306;" horiz-adv-x="0" 
d="M-82 592zM-431 742q14 0 24 -6.5t19 -15.5q22 -21 46.5 -31.5t68.5 -10.5t68.5 10.5t46.5 31.5q9 9 19 15.5t24 6.5q15 0 24 -8t9 -26q0 -23 -11.5 -40t-22.5 -27q-23 -22 -60.5 -35.5t-96.5 -13.5t-96.5 13.5t-60.5 35.5q-11 10 -22.5 27t-11.5 40q0 18 9 26t24 8z" />
    <glyph glyph-name="uni0307" unicode="&#x307;" horiz-adv-x="0" 
d="M-193 587zM-352 663q0 32 22.5 54t57.5 22q34 0 56.5 -22t22.5 -54t-22.5 -54t-56.5 -22q-35 0 -57.5 22t-22.5 54z" />
    <glyph glyph-name="uni0308" unicode="&#x308;" horiz-adv-x="0" 
d="M-91 587zM-250 663q0 32 22.5 54t57.5 22q34 0 56.5 -22t22.5 -54t-22.5 -54t-56.5 -22q-35 0 -57.5 22t-22.5 54zM-454 663q0 32 22.5 54t57.5 22q34 0 56.5 -22t22.5 -54t-22.5 -54t-56.5 -22q-35 0 -57.5 22t-22.5 54z" />
    <glyph glyph-name="hookabovecomb" unicode="&#x309;" horiz-adv-x="0" 
d="M-346 712q13 5 28 7t37 2q53 0 79 -15.5t26 -56.5q0 -24 -9.5 -38t-30.5 -25q-11 -5 -17.5 -8.5t-11 -6.5t-7.5 -6.5t-6 -8.5q-5 -8 -12 -14.5t-23 -6.5q-17 0 -25 9t-8 24t8 25t27 19q11 5 23.5 13t12.5 21q0 10 -7.5 13t-16.5 3q-12 0 -20.5 -3.5t-16 -8t-15.5 -8
t-20 -3.5q-36 0 -36 32q0 15 10.5 24.5t30.5 16.5z" />
    <glyph glyph-name="uni030A" unicode="&#x30a;" horiz-adv-x="0" 
d="M-176 571zM-272 770q20 0 37.5 -7.5t30.5 -21t20.5 -31.5t7.5 -39q0 -45 -28 -72.5t-68 -27.5q-42 0 -69.5 27.5t-27.5 72.5q0 21 7.5 39t20.5 31.5t31 21t38 7.5zM-272 724q-21 0 -35 -16t-14 -37q0 -22 14 -37t35 -15t34.5 15t13.5 37q0 21 -13.5 37t-34.5 16z" />
    <glyph glyph-name="uni030B" unicode="&#x30b;" horiz-adv-x="0" 
d="M-50 560zM-351 739q14 17 27.5 24t27.5 7q25 0 40.5 -16t15.5 -39q0 -11 -4 -22t-15 -22l-92 -95q-8 -9 -18 -12.5t-19 -3.5q-19 0 -33.5 13t-14.5 34q0 22 19 47zM-161 739q14 17 27.5 24t27.5 7q25 0 40.5 -16t15.5 -39q0 -11 -4 -22t-15 -22l-92 -95q-8 -9 -18 -12.5
t-19 -3.5q-19 0 -33.5 13t-14.5 34q0 22 19 47z" />
    <glyph glyph-name="uni030C" unicode="&#x30c;" horiz-adv-x="0" 
d="M-117 559zM-273 668l65 80q8 10 17 16t22 6q19 0 35.5 -13.5t16.5 -36.5q0 -11 -3.5 -19t-7.5 -13l-66 -86q-20 -26 -39.5 -34.5t-38.5 -8.5q-22 0 -42 10t-38 33l-66 86q-4 5 -7.5 13t-3.5 19q0 22 16 36t36 14q21 0 39 -22z" />
    <glyph glyph-name="uni0313" unicode="&#x313;" horiz-adv-x="0" 
d="M-191 530zM-239 682q27 -11 37.5 -32t10.5 -41q0 -15 -5 -29t-15 -25t-26 -18t-37 -7q-36 0 -58.5 22.5t-22.5 72.5q0 25 6.5 58.5t19 62.5t30.5 49.5t42 20.5q15 0 23 -8.5t8 -22.5q0 -16 -7.5 -33t-7.5 -43q0 -7 0.5 -13t1.5 -14z" />
    <glyph glyph-name="dotbelowcomb" unicode="&#x323;" horiz-adv-x="0" 
d="M-347 -147q0 32 22.5 54t57.5 22q34 0 56.5 -22t22.5 -54t-22.5 -54t-56.5 -22q-35 0 -57.5 22t-22.5 54z" />
    <glyph glyph-name="uni0326" unicode="&#x326;" horiz-adv-x="0" 
d="M-210 -17zM-298 -125q-21 6 -29 22.5t-8 29.5q0 22 15.5 39t45.5 17q29 0 46.5 -16.5t17.5 -51.5q0 -18 -5 -41.5t-14.5 -44.5t-23 -35.5t-30.5 -14.5q-13 0 -19 6t-6 15q0 13 5.5 24.5t5.5 31.5v9t-1 10z" />
    <glyph glyph-name="uni0328" unicode="&#x328;" horiz-adv-x="0" 
d="M-166 0zM-229 0q-29 -18 -42 -44.5t-13 -43.5q0 -25 24 -25q10 0 22 3t24 3q23 0 35.5 -13t12.5 -31q0 -12 -7 -23.5t-24 -19.5t-38.5 -11.5t-37.5 -3.5q-45 0 -76 25.5t-31 71.5q0 42 24.5 69t55.5 43h71z" />
    <glyph glyph-name="uni032D" unicode="&#x32d;" horiz-adv-x="0" 
d="M-122 -27zM-357 -67q20 24 39.5 32t38.5 8q22 0 42 -9t38 -31l66 -80q4 -5 7.5 -12.5t3.5 -17.5q0 -20 -16 -33t-36 -13q-22 0 -39 20l-65 75l-65 -75q-8 -9 -17 -14.5t-22 -5.5q-19 0 -35.5 13t-16.5 33q0 10 3.5 17.5t7.5 12.5z" />
    <glyph glyph-name="uni0374" unicode="&#x374;" horiz-adv-x="219" 
d="M11 560zM96 739q14 17 27.5 24t27.5 7q25 0 40.5 -16t15.5 -39q0 -11 -4 -22t-15 -22l-92 -95q-8 -9 -18 -12.5t-19 -3.5q-19 0 -33.5 13t-14.5 34q0 22 19 47z" />
    <glyph glyph-name="uni0375" unicode="&#x375;" horiz-adv-x="219" 
d="M11 0zM96 26q14 17 27.5 24t27.5 7q25 0 40.5 -16t15.5 -39q0 -11 -4 -22t-15 -22l-92 -95q-8 -9 -18 -12.5t-19 -3.5q-19 0 -33.5 13t-14.5 34q0 22 19 47z" />
    <glyph glyph-name="uni037E" unicode="&#x37e;" horiz-adv-x="318" 
d="M72 0zM73 409q0 17 7 32t19 26t27.5 17.5t33.5 6.5t33.5 -6.5t27 -17.5t18.5 -26t7 -32t-7 -32.5t-18.5 -26.5t-27 -17.5t-33.5 -6.5t-33.5 6.5t-27.5 17.5t-19 26.5t-7 32.5zM120 4q-27 10 -37.5 32t-10.5 42q0 29 20 53.5t62 24.5q37 0 59.5 -22.5t22.5 -72.5
q0 -25 -6 -57.5t-18.5 -62t-31 -50t-42.5 -20.5q-15 0 -22.5 8t-7.5 22q0 17 7 34t7 43q0 7 -0.5 13t-1.5 13z" />
    <glyph glyph-name="tonos" unicode="&#x384;" horiz-adv-x="182" 
d="M52 763q7 24 22.5 35t35.5 11q23 0 40.5 -13.5t17.5 -40.5q0 -5 -1 -11.5t-4 -14.5l-50 -129q-8 -20 -21.5 -30t-29.5 -10q-17 0 -33 13t-16 45v5t2 8z" />
    <glyph glyph-name="dieresistonos" unicode="&#x385;" horiz-adv-x="493" 
d="M13 560zM13 663q0 32 22.5 54t57.5 22q34 0 56.5 -22t22.5 -54t-22.5 -54t-56.5 -22q-35 0 -57.5 22t-22.5 54zM217 763q7 24 22.5 35t35.5 11q23 0 40.5 -13.5t17.5 -40.5q0 -5 -1 -11.5t-4 -14.5l-50 -129q-8 -20 -21.5 -30t-29.5 -10q-17 0 -33 13t-16 45v5t2 8z
M321 663q0 32 22.5 54t57.5 22q34 0 56.5 -22t22.5 -54t-22.5 -54t-56.5 -22q-35 0 -57.5 22t-22.5 54z" />
    <glyph glyph-name="Alphatonos" unicode="&#x386;" horiz-adv-x="635" 
d="M13 0zM52 763q7 24 22.5 35t35.5 11q23 0 40.5 -13.5t17.5 -40.5q0 -5 -1 -11.5t-4 -14.5l-50 -129q-8 -20 -21.5 -30t-29.5 -10q-17 0 -33 13t-16 45v5t2 8zM622 102q5 -15 5 -31q0 -30 -19.5 -52.5t-57.5 -22.5q-29 0 -47.5 14.5t-26.5 37.5l-28 85h-207l-28 -89
q-6 -20 -24 -34t-47 -14q-35 0 -53.5 20.5t-18.5 49.5q0 15 6 32l199 581q7 20 25 35t48 15t49 -15t26 -35zM281 266h127l-64 196z" />
    <glyph glyph-name="anoteleia" unicode="&#x387;" horiz-adv-x="271" 
d="M49 337zM49 419q0 17 7 32t18.5 26.5t27 18t33.5 6.5q36 0 61.5 -24t25.5 -59q0 -34 -25.5 -58t-61.5 -24q-18 0 -33.5 6.5t-27 17.5t-18.5 26t-7 32z" />
    <glyph glyph-name="Epsilontonos" unicode="&#x388;" horiz-adv-x="700" 
d="M13 0zM52 763q7 24 22.5 35t35.5 11q23 0 40.5 -13.5t17.5 -40.5q0 -5 -1 -11.5t-4 -14.5l-50 -129q-8 -20 -21.5 -30t-29.5 -10q-17 0 -33 13t-16 45v5t2 8zM561 724q16 0 30.5 -6t25 -16.5t17 -24.5t6.5 -29t-6.5 -29t-17 -24.5t-25 -16.5t-30.5 -6h-218v-126h186
q30 0 51.5 -21t21.5 -50t-21.5 -49.5t-51.5 -20.5h-186v-152h218q32 0 55.5 -23t23.5 -54q0 -15 -6.5 -29t-17 -24.5t-25 -16.5t-30.5 -6h-296q-32 0 -55 22.5t-23 54.5v571q0 15 6 29t16.5 24.5t25 16.5t30.5 6h296z" />
    <glyph glyph-name="Etatonos" unicode="&#x389;" horiz-adv-x="792" 
d="M13 0zM52 763q7 24 22.5 35t35.5 11q23 0 40.5 -13.5t17.5 -40.5q0 -5 -1 -11.5t-4 -14.5l-50 -129q-8 -20 -21.5 -30t-29.5 -10q-17 0 -33 13t-16 45v5t2 8zM343 449h208v204q0 15 6.5 29t17 24.5t25 16.5t30.5 6q31 0 54 -22.5t23 -53.5v-582q0 -30 -23 -52.5
t-54 -22.5q-16 0 -30.5 6t-25 16.5t-17 24t-6.5 28.5v235h-208v-235q0 -30 -23 -52.5t-54 -22.5q-16 0 -30 6t-25 16.5t-17.5 24t-6.5 28.5v582q0 15 6.5 29t17 24.5t25 16.5t30.5 6q31 0 54 -22.5t23 -53.5v-204z" />
    <glyph glyph-name="Iotatonos" unicode="&#x38a;" horiz-adv-x="429" 
d="M13 0zM52 763q7 24 22.5 35t35.5 11q23 0 40.5 -13.5t17.5 -40.5q0 -5 -1 -11.5t-4 -14.5l-50 -129q-8 -20 -21.5 -30t-29.5 -10q-17 0 -33 13t-16 45v5t2 8zM344 71q0 -15 -6.5 -28.5t-17 -24t-25 -16.5t-29.5 -6t-29.5 6t-25.5 16.5t-17.5 24t-6.5 28.5v582
q0 31 24 53.5t55 22.5t54.5 -22.5t23.5 -53.5v-582z" />
    <glyph glyph-name="Omicrontonos" unicode="&#x38c;" horiz-adv-x="820" 
d="M13 0zM52 763q7 24 22.5 35t35.5 11q23 0 40.5 -13.5t17.5 -40.5q0 -5 -1 -11.5t-4 -14.5l-50 -129q-8 -20 -21.5 -30t-29.5 -10q-17 0 -33 13t-16 45v5t2 8zM449 734q68 0 124.5 -25.5t97 -73.5t63 -117t22.5 -157q0 -87 -22 -156t-62.5 -117t-96.5 -73.5t-125 -25.5
t-125 25.5t-96.5 73.5t-62.5 117t-22 156t22 156.5t62 117.5t96.5 73.5t124.5 25.5zM451 582q-37 0 -65 -16.5t-47 -45.5t-29 -69.5t-10 -89.5t10 -89.5t29 -69.5t47 -45t65 -16q73 0 111 60.5t38 159.5q0 49 -9.5 90t-28.5 70t-47 45t-64 16z" />
    <glyph glyph-name="Upsilontonos" unicode="&#x38e;" horiz-adv-x="730" 
d="M13 0zM52 763q7 24 22.5 35t35.5 11q23 0 40.5 -13.5t17.5 -40.5q0 -5 -1 -11.5t-4 -14.5l-50 -129q-8 -20 -21.5 -30t-29.5 -10q-17 0 -33 13t-16 45v5t2 8zM460 455l125 234q9 16 25 28t40 12q15 0 28 -6t23 -15.5t16 -22.5t6 -27q0 -13 -3.5 -22.5t-7.5 -16.5
l-179 -305v-243q0 -15 -6.5 -28.5t-17.5 -24t-25.5 -16.5t-29.5 -6t-29.5 6t-25 16.5t-17 24t-6.5 28.5v242l-174 297q-13 22 -13 44q0 15 6.5 28.5t17.5 24t25 16.5t30 6q24 0 41.5 -12t26.5 -29z" />
    <glyph glyph-name="Omegatonos" unicode="&#x38f;" horiz-adv-x="820" 
d="M13 0zM52 763q7 24 22.5 35t35.5 11q23 0 40.5 -13.5t17.5 -40.5q0 -5 -1 -11.5t-4 -14.5l-50 -129q-8 -20 -21.5 -30t-29.5 -10q-17 0 -33 13t-16 45v5t2 8zM234 153q-22 25 -39.5 51t-30 57t-19 70t-6.5 91q0 74 15.5 132t52 98t96 61t147.5 21q87 0 147 -21
t96.5 -60.5t52.5 -98t16 -133.5q0 -53 -7 -92t-19.5 -69.5t-30.5 -56t-39 -50.5h57q32 0 55.5 -19t23.5 -57t-23.5 -57.5t-55.5 -19.5h-165q-32 0 -55 22t-23 57q0 18 7.5 31t22.5 29q18 19 35 39.5t30.5 48.5t21.5 66.5t8 92.5q0 103 -35 149.5t-119 46.5q-85 0 -120.5 -46
t-35.5 -150q0 -54 8 -92.5t21.5 -66.5t30.5 -48.5t35 -39.5q14 -15 22 -28t8 -32q0 -35 -23 -57t-54 -22h-166q-32 0 -55 20.5t-23 56.5q0 37 23 56.5t55 19.5h57z" />
    <glyph glyph-name="iotadieresistonos" unicode="&#x390;" horiz-adv-x="467" 
d="M0 0zM285 139q0 -14 6 -20t15 -6q5 0 11 2t11 8q6 7 14.5 12.5t24.5 5.5q10 0 21 -3t20 -10.5t14.5 -19t5.5 -27.5q0 -24 -12.5 -41.5t-32 -29t-44 -16.5t-49.5 -5q-78 0 -117 46.5t-39 124.5v271q0 31 22 51t54 20t53.5 -20t21.5 -51v-292zM0 663q0 32 22.5 54t57.5 22
q34 0 56.5 -22t22.5 -54t-22.5 -54t-56.5 -22q-35 0 -57.5 22t-22.5 54zM204 763q7 24 22.5 35t35.5 11q23 0 40.5 -13.5t17.5 -40.5q0 -5 -1 -11.5t-4 -14.5l-50 -129q-8 -20 -21.5 -30t-29.5 -10q-17 0 -33 13t-16 45v5t2 8zM308 663q0 32 22.5 54t57.5 22q34 0 56.5 -22
t22.5 -54t-22.5 -54t-56.5 -22q-35 0 -57.5 22t-22.5 54z" />
    <glyph glyph-name="Alpha" unicode="&#x391;" horiz-adv-x="573" 
d="M8 0zM560 102q5 -15 5 -31q0 -30 -19.5 -52.5t-57.5 -22.5q-29 0 -47.5 14.5t-26.5 37.5l-28 85h-207l-28 -89q-6 -20 -24 -34t-47 -14q-35 0 -53.5 20.5t-18.5 49.5q0 15 6 32l199 581q7 20 25 35t48 15t49 -15t26 -35zM219 266h127l-64 196z" />
    <glyph glyph-name="Beta" unicode="&#x392;" horiz-adv-x="624" 
d="M85 0zM316 724q47 0 87 -11.5t69 -34.5t45.5 -57.5t16.5 -80.5q0 -33 -8.5 -57.5t-22 -42.5t-31.5 -30t-36 -19q27 -7 50.5 -19.5t41.5 -33.5t28.5 -50.5t10.5 -70.5q0 -45 -14 -85t-41.5 -69t-69.5 -46t-97 -17h-181q-32 0 -55.5 22.5t-23.5 54.5v571q0 15 6.5 29
t17 24.5t25 16.5t30.5 6h152zM241 153h69q21 0 39 4t31.5 13.5t21 25t7.5 39.5q0 23 -8 39t-22 25.5t-33.5 13.5t-42.5 4h-62v-164zM241 441h62q75 0 75 70q0 35 -19 50t-58 15h-60v-135z" />
    <glyph glyph-name="Gamma" unicode="&#x393;" horiz-adv-x="563" 
d="M95 0zM457 724q32 0 55.5 -22.5t23.5 -54.5q0 -15 -6.5 -29t-17 -24.5t-25 -16.5t-30.5 -6h-206v-501q0 -30 -23 -52.5t-54 -22.5q-16 0 -30.5 6t-25 16.5t-17 24t-6.5 28.5v577q0 32 23.5 54.5t55.5 22.5h283z" />
    <glyph glyph-name="Delta" unicode="&#x394;" horiz-adv-x="573" 
d="M560 106q5 -15 5 -30q0 -31 -23 -53.5t-55 -22.5h-406q-15 0 -28 6t-23 16t-16 23t-6 27q0 13 6 30l199 576q7 20 25 35.5t48 15.5t48.5 -15t26.5 -36zM184 153h197l-99 306z" />
    <glyph glyph-name="Epsilon" unicode="&#x395;" horiz-adv-x="598" 
d="M85 0zM459 724q16 0 30.5 -6t25 -16.5t17 -24.5t6.5 -29t-6.5 -29t-17 -24.5t-25 -16.5t-30.5 -6h-218v-126h186q30 0 51.5 -21t21.5 -50t-21.5 -49.5t-51.5 -20.5h-186v-152h218q32 0 55.5 -23t23.5 -54q0 -15 -6.5 -29t-17 -24.5t-25 -16.5t-30.5 -6h-296
q-32 0 -55 22.5t-23 54.5v571q0 15 6 29t16.5 24.5t25 16.5t30.5 6h296z" />
    <glyph glyph-name="Zeta" unicode="&#x396;" horiz-adv-x="573" 
d="M36 0zM446 724q38 0 58 -22.5t20 -53.5q0 -11 -4 -22t-9 -21l-265 -452h212q16 0 30.5 -6.5t25 -17t17 -24t6.5 -28.5q0 -32 -23.5 -54.5t-55.5 -22.5h-341q-39 0 -58.5 22.5t-19.5 54.5q0 13 5 24.5t10 20.5l264 450h-204q-16 0 -30.5 6t-25 16.5t-16.5 24.5t-6 29t6 29
t16.5 24.5t25 16.5t30.5 6h332z" />
    </font>
</defs>
</svg>
