<?xml version="1.0" standalone="no"?>
<!DOCTYPE svg PUBLIC "-//W3C//DTD SVG 1.1//EN" "http://www.w3.org/Graphics/SVG/1.1/DTD/svg11.dtd" >
<svg xmlns="http://www.w3.org/2000/svg" xmlns:xlink="http://www.w3.org/1999/xlink" version="1.1">
<metadata>
Created by FontForge 20170731 at Mon Jun  6 04:24:26 2016
 By Aleksey,,,
(c) 2008-2016 Typodermic Fonts Inc.
</metadata>
<defs>
<font id="SchemeLt-Regular" horiz-adv-x="518" >
  <font-face 
    font-family="Scheme Lt"
    font-weight="300"
    font-stretch="normal"
    units-per-em="1000"
    panose-1="2 15 3 3 3 0 0 2 0 3"
    ascent="777"
    descent="-223"
    x-height="498"
    cap-height="724"
    bbox="-445 -223 1172 1061"
    underline-thickness="50"
    underline-position="-150"
    unicode-range="U+0017-FB02"
  />
<missing-glyph horiz-adv-x="584" 
d="M508 724q11 0 20 -8.5t9 -20.5v-666q0 -12 -9 -20.5t-20 -8.5h-451q-12 0 -20.5 8.5t-8.5 20.5v666q0 12 8.5 20.5t20.5 8.5h451zM86 58h393v608h-393v-608zM286 389l73 73q4 7 14 7q8 0 13.5 -6t5.5 -14q0 -7 -5 -15l-75 -73l76 -74q4 -7 4 -15q0 -19 -18 -19
q-11 0 -15 6l-73 74l-76 -74q-5 -6 -13 -6t-14 5.5t-6 13.5q0 7 6 15l74 74l-74 73q-6 6 -6 15q0 8 6 14t14 6t14 -7z" />
    <glyph glyph-name=".notdef" horiz-adv-x="584" 
d="M508 724q11 0 20 -8.5t9 -20.5v-666q0 -12 -9 -20.5t-20 -8.5h-451q-12 0 -20.5 8.5t-8.5 20.5v666q0 12 8.5 20.5t20.5 8.5h451zM86 58h393v608h-393v-608zM286 389l73 73q4 7 14 7q8 0 13.5 -6t5.5 -14q0 -7 -5 -15l-75 -73l76 -74q4 -7 4 -15q0 -19 -18 -19
q-11 0 -15 6l-73 74l-76 -74q-5 -6 -13 -6t-14 5.5t-6 13.5q0 7 6 15l74 74l-74 73q-6 6 -6 15q0 8 6 14t14 6t14 -7z" />
    <glyph glyph-name=".null" horiz-adv-x="0" 
 />
    <glyph glyph-name="nonmarkingreturn" horiz-adv-x="247" 
 />
    <glyph glyph-name="uni0017" horiz-adv-x="247" 
 />
    <glyph glyph-name="space" unicode=" " horiz-adv-x="247" 
 />
    <glyph glyph-name="exclam" unicode="!" horiz-adv-x="400" 
d="M164 707q0 14 11 25t26 11q14 0 25 -11t11 -25v-14t-1 -28.5t-1.5 -54.5t-2.5 -91.5t-4 -139t-5 -197.5q0 -9 -6.5 -16t-15.5 -7q-10 0 -16.5 7t-6.5 16q-3 115 -5 197.5t-4 139t-2.5 91.5t-1.5 54.5t-1 28.5v14zM201 78q17 0 29 -12.5t12 -29.5t-12 -29t-29 -12
t-29.5 12t-12.5 29t12.5 29.5t29.5 12.5z" />
    <glyph glyph-name="quotedbl" unicode="&#x22;" horiz-adv-x="269" 
d="M212 547q0 -8 -6.5 -14.5t-15.5 -6.5q-8 0 -14.5 6.5t-6.5 14.5l-7 178q0 11 8.5 19.5t19.5 8.5t19.5 -8.5t8.5 -19.5zM97 547q0 -8 -6.5 -14.5t-14.5 -6.5q-9 0 -15.5 6.5t-6.5 14.5l-6 178q0 11 8.5 19.5t19.5 8.5t19 -8.5t8 -19.5z" />
    <glyph glyph-name="numbersign" unicode="#" horiz-adv-x="497" 
d="M203 479h126l31 217q4 18 21 18q8 0 14 -5t6 -15l-31 -215h75q11 0 16.5 -6.5t5.5 -14.5t-5.5 -14t-16.5 -6h-81l-23 -158h79q11 0 16.5 -6t5.5 -14t-5.5 -14.5t-16.5 -6.5h-84l-32 -226q-5 -18 -21 -18q-8 0 -14 5t-6 16l32 223h-126l-32 -226q-5 -18 -21 -18
q-8 0 -14.5 5t-6.5 16l32 223h-75q-11 0 -16.5 6.5t-5.5 14.5t5.5 14t16.5 6h80l23 158h-78q-11 0 -16.5 6t-5.5 14t5.5 14.5t16.5 6.5h84l31 217q2 10 8 14t13 4q8 0 14.5 -5t6.5 -15zM174 280h126l23 158h-126z" />
    <glyph glyph-name="dollar" unicode="$" horiz-adv-x="549" 
d="M311 613q82 -11 111 -72q3 -6 5.5 -13.5t2.5 -15.5q0 -12 -8 -19.5t-21 -7.5q-12 0 -17.5 6.5t-9.5 15.5q-13 28 -34.5 41t-59.5 13q-47 0 -75 -19t-28 -57q0 -24 11 -38t28 -24q18 -10 40 -17.5t45.5 -14.5t46.5 -15.5t41 -21.5q24 -17 39.5 -43.5t15.5 -66.5
q0 -32 -10.5 -57.5t-29 -44t-42.5 -30.5t-51 -17v-71q0 -12 -8.5 -20.5t-20.5 -8.5q-11 0 -20 8.5t-9 20.5v68q-36 3 -71.5 21t-56.5 48q-5 8 -12 21t-7 26q0 11 7.5 19.5t20.5 8.5q11 0 16 -5.5t10 -14.5q18 -35 44 -52t68 -17q50 0 82.5 23t32.5 68q0 22 -8 37.5t-22 26.5
q-15 12 -35.5 20t-43 14.5t-46 13.5t-43.5 18q-29 15 -48.5 41t-19.5 70q0 61 37.5 94.5t94.5 40.5v71q0 11 9 20t20 9q12 0 20.5 -9t8.5 -20v-72z" />
    <glyph glyph-name="percent" unicode="%" horiz-adv-x="755" 
d="M193 714q34 0 60.5 -13t44.5 -36.5t27.5 -55.5t9.5 -70t-9.5 -70.5t-27.5 -56.5t-44.5 -37.5t-60.5 -13.5t-60.5 13.5t-44.5 37.5t-27.5 56.5t-9.5 70.5t9.5 70t27.5 55.5t44.5 36.5t60.5 13zM193 665q-24 0 -42 -10.5t-29 -27.5t-16.5 -40t-5.5 -48q0 -26 5.5 -49.5
t16.5 -41.5t29 -28.5t42 -10.5t41.5 10.5t29 28.5t17 41.5t5.5 49.5q0 25 -5.5 48t-17 40.5t-29 27.5t-41.5 10zM564 341q34 0 60.5 -13.5t45 -37t28 -55.5t9.5 -70t-9.5 -70.5t-28 -56.5t-45 -37.5t-60.5 -13.5t-60.5 13.5t-45 37.5t-28 56.5t-9.5 70.5t9.5 70t28 55.5
t45 37t60.5 13.5zM565 293q-24 0 -41.5 -10.5t-29 -28t-17 -41t-5.5 -48.5q0 -26 5.5 -49.5t17 -41.5t29 -28.5t41.5 -10.5t41 10.5t28.5 28.5t17 41.5t5.5 49.5t-5.5 49t-17 40.5t-28.5 28t-41 10.5zM201 8q-9 -13 -21 -13q-10 0 -17 6t-7 17q0 6 3 14l384 668q4 8 10 11
t11 3q8 0 16 -6.5t8 -17.5q0 -6 -4 -13z" />
    <glyph glyph-name="ampersand" unicode="&#x26;" horiz-adv-x="596" 
d="M205 413q-29 44 -51 86.5t-22 91.5q0 33 11.5 60t31 46t45.5 29.5t55 10.5q27 0 52.5 -9t44.5 -27t30.5 -44.5t11.5 -60.5q0 -35 -12 -63.5t-31 -52t-42.5 -43t-46.5 -36.5q42 -60 85 -118t91 -115q18 31 31 69t21 80q5 27 6.5 43.5t2.5 33.5q1 14 10 21.5t19 7.5
q12 0 20.5 -8.5t8.5 -22.5q0 -5 -1 -12.5t-2 -15.5q-8 -60 -25.5 -122.5t-52.5 -115.5q11 -11 32.5 -35t50.5 -43q13 -10 13 -24q0 -12 -9 -20.5t-21 -8.5q-8 0 -16 5q-3 2 -14 11t-24.5 21t-26.5 25t-22 23q-38 -45 -83 -69t-108 -24q-51 0 -90.5 15.5t-66.5 42t-41 62
t-14 75.5t13 74.5t34 63.5t47.5 52.5t54.5 40.5zM425 120q-51 60 -97 122.5t-91 125.5q-24 -18 -46.5 -37.5t-39.5 -41.5t-27 -47.5t-10 -56.5q0 -33 11.5 -59t32.5 -44t49 -28t61 -10q48 0 85 20.5t72 55.5zM251 445q16 12 34.5 26.5t34 32.5t26 40t10.5 48q0 41 -24 64
t-58 23q-35 0 -59.5 -24.5t-24.5 -66.5q0 -35 18.5 -71.5t42.5 -71.5z" />
    <glyph glyph-name="quotesingle" unicode="'" horiz-adv-x="154" 
d="M97 547q0 -8 -6.5 -14.5t-14.5 -6.5q-9 0 -15.5 6.5t-6.5 14.5l-6 178q0 11 8.5 19.5t19.5 8.5t19 -8.5t8 -19.5z" />
    <glyph glyph-name="parenleft" unicode="(" horiz-adv-x="270" 
d="M180 743q7 12 20 12q11 0 17.5 -8t6.5 -16q0 -2 -0.5 -4t-1.5 -5q-8 -23 -22 -60t-28 -88t-24 -117t-10 -145q0 -112 22 -215.5t62 -199.5q1 -5 1.5 -6.5t0.5 -3.5q0 -8 -6.5 -16t-17.5 -8q-12 0 -20 13q-4 7 -26 58q-32 73 -53.5 165.5t-21.5 209.5t21.5 210t53.5 166
l26 58v0z" />
    <glyph glyph-name="parenright" unicode=")" horiz-adv-x="270" 
d="M46 732q0 7 6.5 15t17.5 8q12 0 20 -12l26 -58q31 -72 53 -165t22 -207q0 -119 -23 -216.5t-51 -162.5q-2 -4 -5.5 -12.5t-8 -17.5l-8.5 -17t-6 -11q-5 -8 -8 -10.5t-10 -2.5q-15 0 -20 9.5t-5 14.5q0 2 0.5 3.5t1.5 6.5q40 96 62 199.5t22 216.5q0 76 -9.5 139
t-22.5 113.5t-27.5 89.5t-24.5 67q-2 6 -2 10z" />
    <glyph glyph-name="asterisk" unicode="*" horiz-adv-x="458" 
d="M230 600l52 92q7 8 13.5 11.5t12.5 4.5q14 0 24.5 -10.5t10.5 -27.5q0 -5 -1 -8t-6 -8l-68 -81l100 -19q25 -10 25 -32q0 -13 -9 -23.5t-26 -10.5q-5 0 -11 3l-94 38l11 -100q1 -17 -10.5 -26t-23.5 -9q-13 0 -23.5 9t-10.5 26l10 100l-92 -38q-5 -1 -7.5 -2t-7.5 -1
q-14 0 -23 10.5t-9 24.5q0 9 5.5 17.5t19.5 13.5l100 19l-69 81q-6 9 -6 19q0 14 10.5 24.5t22.5 10.5q7 0 15 -4t13 -12z" />
    <glyph glyph-name="plus" unicode="+" horiz-adv-x="549" 
d="M245 325v153q0 11 9 20t20 9q12 0 20.5 -9t8.5 -20v-153h154q12 0 20.5 -9t8.5 -20q0 -12 -8.5 -20.5t-20.5 -8.5h-154v-154q0 -12 -8.5 -20.5t-20.5 -8.5q-11 0 -20 8.5t-9 20.5v154h-153q-11 0 -20 8.5t-9 20.5q0 11 9 20t20 9h153z" />
    <glyph glyph-name="comma" unicode="," horiz-adv-x="276" 
d="M127 -6q-9 6 -17 16.5t-8 24.5t9 25.5t27 11.5q17 0 26.5 -14t9.5 -47q0 -20 -3.5 -44.5t-9.5 -45.5t-15 -35.5t-20 -14.5q-7 0 -10 5t-3 10q0 10 0.5 11l1.5 3q6 18 9.5 35t3.5 38v10.5t-1 10.5z" />
    <glyph glyph-name="hyphen" unicode="-" horiz-adv-x="276" 
d="M235 347q11 0 19.5 -8.5t8.5 -19.5t-8.5 -19.5t-19.5 -8.5h-194q-11 0 -19.5 8.5t-8.5 19.5t8.5 19.5t19.5 8.5h194z" />
    <glyph glyph-name="period" unicode="." horiz-adv-x="288" 
d="M144 78q17 0 29 -12.5t12 -29.5t-12 -29t-29 -12t-29.5 12t-12.5 29t12.5 29.5t29.5 12.5z" />
    <glyph glyph-name="slash" unicode="/" horiz-adv-x="300" 
d="M31 -73q-4 -10 -10.5 -16.5t-16.5 -6.5q-11 0 -19.5 8.5t-8.5 20.5q0 6 3 12l289 781q3 10 9.5 16.5t17.5 6.5q12 0 20.5 -8.5t8.5 -19.5q0 -7 -4 -14z" />
    <glyph glyph-name="zero" unicode="0" horiz-adv-x="549" 
d="M275 656q-44 0 -74 -25.5t-49.5 -67.5t-28 -97.5t-8.5 -115.5t8.5 -115.5t28 -97.5t49.5 -67.5t74 -25.5q43 0 73 25.5t49 67.5t27.5 97.5t8.5 115.5t-8.5 115.5t-27.5 97.5t-49 67.5t-73 25.5zM274 714q56 0 97 -27t67.5 -75t39.5 -115t13 -147t-13 -146.5t-39.5 -114.5
t-67.5 -75t-97 -27t-97 26.5t-67.5 74.5t-39.5 115t-13 147q0 79 13 146t39.5 115.5t67.5 75.5t97 27z" />
    <glyph glyph-name="one" unicode="1" horiz-adv-x="549" 
d="M322 23q0 -11 -7.5 -19.5t-21.5 -8.5q-13 0 -20 8t-7 20v590q-20 -17 -47 -34t-59 -34q-6 -3 -13 -3q-11 0 -19.5 8.5t-8.5 19.5q0 17 22 27t38 19t30 19t26.5 23.5t26.5 33.5q5 8 12 15t17 7q12 0 21.5 -9.5t9.5 -21.5v-660z" />
    <glyph glyph-name="two" unicode="2" horiz-adv-x="549" 
d="M460 56q11 0 19.5 -8.5t8.5 -19.5t-8.5 -19.5t-19.5 -8.5h-371q-11 0 -19.5 8.5t-8.5 19.5q0 9 7 19q10 15 37.5 47.5t61 71t67 76t56.5 62.5q53 58 81 110.5t28 109.5q0 63 -34.5 98.5t-104.5 35.5q-33 0 -52 -9.5t-32 -23.5q-12 -14 -21 -33.5t-17 -51.5q-3 -11 -9 -19
t-19 -8q-11 0 -19.5 8t-8.5 29v4t2 10q5 24 15 49.5t35 49.5q31 30 64 40.5t65 10.5q42 0 77.5 -13.5t62 -38.5t41 -60t14.5 -78q0 -36 -10.5 -69.5t-27.5 -65t-39.5 -62t-47.5 -59.5q-53 -63 -101.5 -112t-87.5 -100h316z" />
    <glyph glyph-name="three" unicode="3" horiz-adv-x="549" 
d="M326 380q30 -6 57.5 -21.5t48.5 -39.5t33.5 -56t12.5 -71q0 -47 -18 -85t-47.5 -64.5t-68 -41t-79.5 -14.5q-43 0 -80 15.5t-65 41.5q-13 12 -22 25t-14 25q-7 15 -10 30t-3 24q0 19 10 25t18 6q11 0 18.5 -8.5t9.5 -19.5q3 -15 5.5 -24t4.5 -15t5 -10.5t8 -11.5
q17 -24 46 -36t65 -12q34 0 63.5 10.5t51.5 30.5t34 48.5t12 64.5q0 43 -16 72.5t-39 46.5q-27 21 -60.5 27.5t-69.5 9.5q-16 2 -22 11t-6 17t5.5 17t22.5 11q28 2 47 4t33 6t25 10.5t23 18.5q16 15 25 37t9 51q0 31 -11 54.5t-30 38.5t-43 22.5t-49 7.5q-23 0 -46.5 -6
t-40.5 -18q-24 -17 -30.5 -36.5l-10.5 -31.5q-5 -15 -12 -20t-15 -5q-12 0 -20.5 8t-8.5 22q0 7 2.5 17.5t7.5 21.5q8 17 20 32.5t24 26.5q22 20 53 32.5t71 12.5q35 0 70 -11t62.5 -33t45 -55t17.5 -78q0 -35 -11 -62.5t-29 -47t-41 -31.5t-48 -16z" />
    <glyph glyph-name="four" unicode="4" horiz-adv-x="549" 
d="M108 222h250v181q0 11 8.5 19.5t19.5 8.5t19.5 -8.5t8.5 -19.5v-181h67q11 0 19.5 -8.5t8.5 -19.5t-8.5 -19t-19.5 -8h-67v-144q0 -11 -8 -19.5t-20 -8.5q-13 0 -20.5 8.5t-7.5 19.5v144h-290q-13 0 -20.5 9t-7.5 23q0 10 6 18l271 482q7 15 22 15q13 0 21 -8.5t8 -20.5
q0 -7 -4 -14z" />
    <glyph glyph-name="five" unicode="5" horiz-adv-x="549" 
d="M150 409q23 26 52.5 42.5t74.5 16.5q43 0 79.5 -16.5t63 -47t41 -73t14.5 -93.5t-14.5 -97t-42 -80t-66.5 -54t-88 -20q-27 0 -54.5 6.5t-52 20t-45 34.5t-32.5 50q-6 13 -6 25q0 11 8 19.5t22 8.5q8 0 13.5 -3.5t10.5 -14.5q9 -17 18.5 -33.5t23.5 -29.5t34 -20.5
t50 -7.5q41 0 72 15t51.5 41.5t31 62.5t10.5 77q0 85 -40 129.5t-106 44.5q-38 0 -68 -16t-45 -48q-8 -24 -33 -24q-14 0 -24.5 10.5t-10.5 24.5l17 322q1 11 8.5 19.5t19.5 8.5q38 0 74.5 -0.5t71.5 -0.5t69 0.5t72 0.5q11 0 19.5 -8.5t8.5 -19.5t-8.5 -19.5t-19.5 -8.5
q-4 0 -23.5 -0.5t-43 -0.5t-44 -0.5t-26.5 -0.5h-22.5h-31.5t-35.5 0.5t-34.5 1.5z" />
    <glyph glyph-name="six" unicode="6" horiz-adv-x="549" 
d="M122 343q12 25 30 44.5t40.5 32.5t47.5 19.5t51 6.5q43 0 78.5 -17t61 -47.5t39.5 -72.5t14 -92t-14.5 -92t-41 -73t-64.5 -48t-85 -17q-53 0 -93 22.5t-67 63t-40.5 97.5t-13.5 127q0 32 3.5 75.5t13 89.5t26 91.5t42.5 81t63 57.5t87 22q51 0 86.5 -22t55.5 -56
q4 -6 8 -16t4 -18q0 -11 -8.5 -19.5t-20.5 -8.5q-11 0 -16.5 7.5t-10.5 17.5q-5 11 -11.5 21.5t-17 19t-26 13.5t-37.5 5q-49 0 -81.5 -24t-53 -66.5t-32 -100t-17.5 -124.5zM287 390q-32 0 -61 -11.5t-51 -33t-34.5 -53t-12.5 -71.5q0 -36 10.5 -68t30.5 -57t48.5 -39.5
t64.5 -14.5q30 0 57 11t46.5 33.5t31 55.5t11.5 77q0 76 -36 123.5t-105 47.5z" />
    <glyph glyph-name="seven" unicode="7" horiz-adv-x="549" 
d="M453 709q14 0 23.5 -10t9.5 -25q0 -8 -6 -17q-17 -26 -39.5 -76t-47 -112t-50 -131t-48 -132.5t-40 -116t-26.5 -81.5q-4 -9 -11 -15t-18 -6t-20 7t-9 22q0 8 5 23q30 91 66 187.5t70 181.5t61.5 150.5t41.5 94.5h-324q-11 0 -19.5 8.5t-8.5 19.5t8.5 19.5t19.5 8.5h362z
" />
    <glyph glyph-name="eight" unicode="8" horiz-adv-x="549" 
d="M190 374q-49 13 -80 55t-31 105q0 44 16 78t43 56.5t62.5 34t73.5 11.5t73 -11.5t62 -34t43.5 -56t16.5 -78.5q0 -64 -31.5 -103.5t-79.5 -56.5q54 -17 91.5 -62t37.5 -121q0 -50 -17.5 -88.5t-47 -64t-68 -38.5t-80.5 -13t-80.5 13t-68 39t-46.5 63.5t-17 87.5
q0 72 35.5 118t92.5 66zM273 350q-31 -2 -59 -13t-49.5 -30.5t-34 -47.5t-12.5 -65q0 -36 12.5 -64.5t33.5 -48t49 -29.5t60 -10q31 0 60 10t50.5 29.5t34.5 48t13 64.5q0 37 -13 65t-35 47.5t-50.5 30.5t-59.5 13zM274 398q63 5 101 39.5t38 94.5q0 32 -11.5 56t-30.5 39.5
t-44 23t-52 7.5t-52.5 -7.5t-45 -23t-31.5 -39t-12 -55.5q0 -60 40 -95.5t100 -39.5z" />
    <glyph glyph-name="nine" unicode="9" horiz-adv-x="549" 
d="M427 357q-23 -50 -70 -76.5t-99 -26.5q-43 0 -78.5 17t-61 47.5t-39.5 72.5t-14 92t14.5 92.5t41 73t64.5 48t85 17.5q53 0 93 -22.5t67 -63t40.5 -97.5t13.5 -127q0 -32 -3.5 -75.5t-13 -89.5t-26 -91.5t-42.5 -81t-63 -57.5t-87 -22q-54 0 -89 23t-52 54q-5 6 -9 16
t-4 18q0 11 8 19.5t21 8.5q12 0 17.5 -7.5t9.5 -17.5q14 -33 37 -46t55 -13q48 0 81 24t54 66.5t32.5 100t16.5 124.5zM268 658q-30 0 -57 -11t-47 -33t-31.5 -55t-11.5 -77q0 -77 36.5 -124.5t105.5 -47.5q32 0 61 11.5t50.5 33t34 53t12.5 71.5q0 36 -10.5 68.5t-30.5 57
t-48 39t-64 14.5z" />
    <glyph glyph-name="colon" unicode=":" horiz-adv-x="288" 
d="M144 78q17 0 29 -12.5t12 -29.5t-12 -29t-29 -12t-29.5 12t-12.5 29t12.5 29.5t29.5 12.5zM102 448q0 17 12.5 29t29.5 12t29 -12t12 -29t-12 -29t-29 -12t-29.5 12t-12.5 29z" />
    <glyph glyph-name="semicolon" unicode=";" horiz-adv-x="242" 
d="M122 489q17 0 29 -12t12 -29t-12 -29t-29 -12t-29 12t-12 29t12 29t29 12zM108 -6q-10 6 -17.5 16.5t-7.5 24.5t8.5 25.5t26.5 11.5q36 0 36 -61q0 -19 -3 -43.5t-9 -46t-15 -36t-21 -14.5q-7 0 -10 5t-3 10q0 10 0.5 11l1.5 3q6 18 10 35t4 38v10.5t-1 10.5z" />
    <glyph glyph-name="less" unicode="&#x3c;" horiz-adv-x="549" 
d="M419 505q7 4 14 4q11 0 19.5 -8.5t8.5 -19.5q0 -8 -4.5 -15t-10.5 -10l-283 -160l283 -160q6 -4 10.5 -10.5t4.5 -14.5q0 -11 -8.5 -19.5t-19.5 -8.5q-7 0 -14 4l-312 183q-8 4 -13.5 10.5t-5.5 15.5q0 8 5.5 15t13.5 11z" />
    <glyph glyph-name="equal" unicode="=" horiz-adv-x="549" 
d="M457 242q12 0 20.5 -8.5t8.5 -20.5q0 -11 -8.5 -20t-20.5 -9h-365q-11 0 -20 9t-9 20q0 12 9 20.5t20 8.5h365zM457 408q12 0 20.5 -9t8.5 -20q0 -12 -8.5 -20.5t-20.5 -8.5h-365q-11 0 -20 8.5t-9 20.5q0 11 9 20t20 9h365z" />
    <glyph glyph-name="greater" unicode="&#x3e;" horiz-adv-x="549" 
d="M443 322q7 -4 12.5 -11t5.5 -15q0 -9 -5.5 -15.5t-12.5 -10.5l-313 -183q-7 -4 -14 -4q-11 0 -19.5 8.5t-8.5 19.5q0 8 4.5 14.5t10.5 10.5l283 160l-283 160q-6 3 -10.5 10t-4.5 15q0 11 8.5 19.5t19.5 8.5q7 0 14 -4z" />
    <glyph glyph-name="question" unicode="?" horiz-adv-x="529" 
d="M117 685q22 27 65 45t90 18q35 0 67.5 -11.5t57 -34t39.5 -56.5t15 -79q0 -32 -7.5 -57.5t-20.5 -47t-30 -41.5t-36 -40q-23 -24 -37.5 -40.5t-22.5 -31t-11.5 -29t-3.5 -33.5q0 -10 0.5 -29.5t0.5 -35.5q0 -5 -5.5 -15.5t-22.5 -10.5q-6 0 -12.5 4t-9.5 22
q-2 11 -2.5 21t-0.5 24q0 35 5 60t15.5 46t27 41t39.5 45q15 17 29 33t24.5 34t16.5 38t6 45q0 57 -33.5 89t-98.5 32q-30 0 -55.5 -8.5t-43.5 -30.5q-5 -7 -11 -11.5t-14 -4.5q-12 0 -20.5 9t-8.5 20q0 10 9 21zM259 78q17 0 29 -12.5t12 -29.5t-12 -29t-29 -12t-29.5 12
t-12.5 29t12.5 29.5t29.5 12.5z" />
    <glyph glyph-name="at" unicode="@" horiz-adv-x="737" 
d="M462 431q2 10 8.5 19t21.5 9q10 0 18 -6.5t8 -26.5q0 -5 -0.5 -5.5t-0.5 -2.5l-39 -243q2 -23 11.5 -30.5t20.5 -7.5q19 0 41 17t40 46.5t30 69t12 85.5q0 51 -16 95.5t-45.5 77.5t-72.5 52t-97 19q-63 0 -118.5 -26.5t-97 -74.5t-65.5 -114.5t-24 -146.5
q0 -65 16 -116.5t47 -88t75.5 -56t101.5 -19.5q38 0 74 10t62 33q3 3 8 6.5t13 3.5q11 0 19.5 -8t8.5 -19q0 -8 -4 -14t-9 -11q-13 -13 -34 -23.5t-46 -18t-52.5 -11.5t-52.5 -4q-65 0 -117.5 26t-89 71.5t-56.5 108t-20 134.5q0 90 29.5 166t79.5 131t115.5 86t138.5 31
q65 0 117.5 -24t90 -64.5t57.5 -94t20 -113.5q0 -53 -15.5 -103t-41 -88t-59.5 -61t-70 -23q-30 0 -49 17t-22 52q-17 -32 -47.5 -50t-65.5 -18q-48 0 -79.5 34t-31.5 107q0 45 13 87.5t36 75.5t54.5 52.5t67.5 19.5q31 0 50 -13t31 -33zM454 365q-6 24 -28.5 35t-42.5 11
q-23 0 -45.5 -14.5t-40 -40t-28.5 -59t-11 -70.5q0 -48 18 -69.5t49 -21.5q19 0 37 8.5t33.5 26.5t27.5 47.5t19 71.5z" />
    <glyph glyph-name="A" unicode="A" horiz-adv-x="543" 
d="M533 36q1 -4 1.5 -7t0.5 -6q0 -11 -9 -19.5t-20 -8.5q-10 0 -17.5 6t-10.5 15l-60 173h-293l-59 -173q-3 -9 -10.5 -15t-17.5 -6q-11 0 -20 8.5t-9 21.5q0 6 3 14l232 671q3 8 11 14t17 6t17 -6t11 -14zM145 247h253l-127 374z" />
    <glyph glyph-name="B" unicode="B" horiz-adv-x="606" 
d="M304 724q42 0 77.5 -11t61.5 -33t40.5 -53.5t14.5 -73.5q0 -57 -26 -100.5t-71 -61.5q60 -15 97.5 -63t37.5 -126q0 -42 -12.5 -79t-37 -64.5t-62 -43t-86.5 -15.5h-211q-11 0 -20 8.5t-9 20.5v666q0 12 9 20.5t20 8.5h177zM156 58h142q41 0 74 7t56 24.5t35.5 46
t12.5 70.5q0 45 -14 74.5t-40 46t-62.5 23t-81.5 6.5h-122v-298zM156 414h133q32 0 59.5 7t47 22.5t30.5 40t11 60.5t-11.5 60t-31.5 37.5t-47.5 19t-59.5 5.5h-131v-252z" />
    <glyph glyph-name="C" unicode="C" horiz-adv-x="642" 
d="M352 737q40 0 73.5 -7.5t62 -24t53.5 -42.5t48 -62q5 -8 5 -18q0 -11 -8.5 -20t-20.5 -9q-16 0 -23 13q-29 60 -76 86t-113 26q-55 0 -98 -24t-73 -66.5t-45.5 -101t-15.5 -127.5q0 -68 14.5 -126t44 -100t73.5 -66t103 -24q24 0 50.5 6.5t50.5 19.5t43.5 32t28.5 45
q3 9 11 16t19 7t20 -9t9 -20q0 -2 -2 -12q-11 -33 -35.5 -59.5t-56.5 -45t-68.5 -28t-71.5 -9.5q-68 0 -121.5 27t-91.5 76t-58 118t-20 153q0 81 20.5 150t58.5 119.5t91 78.5t119 28z" />
    <glyph glyph-name="D" unicode="D" horiz-adv-x="672" 
d="M282 724q74 0 134 -22t102 -67t65 -114t23 -163q0 -92 -22 -159t-64 -111.5t-102 -66t-136 -21.5h-155q-11 0 -20 8.5t-9 20.5v666q0 12 9 20.5t20 8.5h155zM156 58h77q80 0 139.5 14.5t98.5 49.5t58 93t19 145q0 89 -19.5 147.5t-58 93.5t-95 49.5t-130.5 14.5h-89v-607
z" />
    <glyph glyph-name="E" unicode="E" horiz-adv-x="569" 
d="M473 724q11 0 20 -8.5t9 -20.5q0 -11 -9 -20t-20 -9h-317v-259h271q12 0 20.5 -9t8.5 -20q0 -12 -8.5 -20.5t-20.5 -8.5h-271v-291h317q11 0 20 -9t9 -20q0 -12 -9 -20.5t-20 -8.5h-346q-11 0 -20 8.5t-9 20.5v666q0 12 9 20.5t20 8.5h346z" />
    <glyph glyph-name="F" unicode="F" horiz-adv-x="552" 
d="M473 724q11 0 20 -8.5t9 -20.5q0 -11 -9 -20t-20 -9h-317v-260h265q12 0 20.5 -9t8.5 -20q0 -12 -8.5 -20.5t-20.5 -8.5h-265v-324q0 -12 -8.5 -20.5t-20.5 -8.5q-11 0 -20 8.5t-9 20.5v671q0 12 9 20.5t20 8.5h346z" />
    <glyph glyph-name="G" unicode="G" horiz-adv-x="691" 
d="M558 362q11 0 20 -8.5t9 -20.5v-271q-46 -38 -104 -56.5t-125 -18.5q-65 0 -118.5 25t-92 73t-60 117.5t-21.5 158.5q0 82 20.5 151.5t58 119t91 77.5t119.5 28q80 0 135.5 -31t101.5 -105q5 -8 5 -18q0 -11 -8.5 -20t-20.5 -9q-16 0 -23 13q-31 60 -77 86t-112 26
q-55 0 -98 -24t-73 -66.5t-45.5 -101t-15.5 -127.5q0 -75 17 -133.5t48.5 -99t77 -62t102.5 -21.5q52 0 92 14.5t69 34.5v211h-169q-11 0 -20 9t-9 20q0 12 9 20.5t20 8.5h197z" />
    <glyph glyph-name="H" unicode="H" horiz-adv-x="678" 
d="M156 410h367v291q0 12 8.5 20.5t20.5 8.5q11 0 19.5 -8.5t8.5 -20.5v-677q0 -12 -8.5 -20.5t-19.5 -8.5q-12 0 -20.5 8.5t-8.5 20.5v327h-367v-327q0 -12 -8.5 -20.5t-20.5 -8.5q-11 0 -20 8.5t-9 20.5v677q0 12 9 20.5t20 8.5q12 0 20.5 -8.5t8.5 -20.5v-291z" />
    <glyph glyph-name="I" unicode="I" horiz-adv-x="254" 
d="M156 24q0 -12 -9 -20.5t-20 -8.5q-12 0 -20.5 8.5t-8.5 20.5v677q0 12 8.5 20.5t20.5 8.5q11 0 20 -8.5t9 -20.5v-677z" />
    <glyph glyph-name="J" unicode="J" horiz-adv-x="475" 
d="M381 250q0 -58 -14 -106t-39.5 -83t-62 -54.5t-82.5 -19.5q-28 0 -52 7t-43.5 18t-34.5 24.5t-25 27.5q-9 11 -12 19t-3 13q0 12 7.5 20.5t21.5 8.5q19 0 27 -18q17 -33 46 -48.5t67 -15.5q33 0 59 15t44 41.5t28 63t10 79.5v459q0 12 8.5 20.5t20.5 8.5q11 0 20 -8.5
t9 -20.5v-451z" />
    <glyph glyph-name="K" unicode="K" horiz-adv-x="545" 
d="M156 406h116l188 310q8 14 23 14q11 0 19 -7.5t8 -19.5q0 -8 -4 -15l-186 -304l208 -340q6 -11 6 -19q0 -12 -9.5 -21t-23.5 -9q-18 0 -28 17l-203 339h-114v-327q0 -13 -7.5 -21t-20.5 -8q-14 0 -22 8.5t-8 20.5v677q0 12 8.5 20.5t20.5 8.5q11 0 20 -8.5t9 -20.5v-295z
" />
    <glyph glyph-name="L" unicode="L" horiz-adv-x="516" 
d="M156 58h302q12 0 20.5 -9t8.5 -20q0 -12 -8.5 -20.5t-20.5 -8.5h-331q-11 0 -20 8.5t-9 20.5v672q0 12 9 20.5t20 8.5q12 0 20.5 -8.5t8.5 -20.5v-643z" />
    <glyph glyph-name="M" unicode="M" horiz-adv-x="857" 
d="M428 91l244 613q11 26 38 26q16 0 28 -8.5t12 -24.5l13 -673q0 -12 -9 -20.5t-20 -8.5q-12 0 -20.5 8.5t-8.5 20.5l-7 607l-243 -618q-7 -18 -27 -18q-19 0 -26 18l-242 618l-8 -607q0 -12 -7.5 -20.5t-21.5 -8.5q-12 0 -20.5 8.5t-8.5 20.5l14 673q0 16 12 24.5t28 8.5
q27 0 38 -26z" />
    <glyph glyph-name="N" unicode="N" horiz-adv-x="703" 
d="M547 109v592q0 12 9 20.5t20 8.5q12 0 20.5 -8.5t8.5 -20.5v-678q0 -12 -8.5 -20t-22.5 -8q-11 0 -18 4.5t-11 10.5l-389 607v-593q0 -12 -8.5 -20.5t-20.5 -8.5q-11 0 -20 8.5t-9 20.5v678q0 12 9 20t22 8q11 0 18 -4.5t11 -10.5z" />
    <glyph glyph-name="O" unicode="O" horiz-adv-x="728" 
d="M363 737q66 0 120.5 -25.5t93.5 -74t60.5 -118.5t21.5 -158t-21.5 -157.5t-60 -117.5t-93 -73.5t-120.5 -25.5t-120.5 25.5t-93 74t-60 118t-21.5 157.5t21.5 157.5t60 118t92.5 74t120 25.5zM364 679q-57 0 -101.5 -23.5t-74.5 -65.5t-45.5 -100.5t-15.5 -128.5
q0 -71 15.5 -129t45.5 -100t74.5 -65t101.5 -23t101.5 23t74.5 65t45.5 100t15.5 129t-15.5 129.5t-45.5 100.5t-74.5 65t-101.5 23z" />
    <glyph glyph-name="P" unicode="P" horiz-adv-x="546" 
d="M243 724q54 0 102 -8.5t85 -31t58.5 -61.5t21.5 -101q0 -59 -19.5 -99t-52.5 -64t-76 -34.5t-90 -10.5h-116v-290q0 -12 -8.5 -20.5t-20.5 -8.5q-11 0 -20 8.5t-9 20.5v671q0 12 9 20.5t20 8.5h116zM156 373h134q34 0 63.5 8t51.5 25.5t34.5 45.5t12.5 68q0 39 -12.5 67
t-34 45t-51 25t-63.5 8h-135v-292z" />
    <glyph glyph-name="Q" unicode="Q" horiz-adv-x="728" 
d="M665 -56q7 -7 7 -19q0 -13 -9 -21t-21 -8q-14 0 -22 11l-102 124q-65 -44 -153 -44q-66 0 -120.5 25.5t-93.5 74t-60.5 118t-21.5 157.5t21.5 157.5t60 118t92.5 74t120 25.5t120.5 -25.5t93.5 -74t60.5 -118.5t21.5 -158q0 -96 -25 -169.5t-70 -121.5zM364 679
q-57 0 -101.5 -23.5t-74.5 -65.5t-45.5 -100.5t-15.5 -128.5q0 -71 15.5 -129t45.5 -100t74.5 -65t101.5 -23t101.5 23t74.5 65t45.5 100t15.5 129t-15.5 129.5t-45.5 100.5t-74.5 65t-101.5 23z" />
    <glyph glyph-name="R" unicode="R" horiz-adv-x="601" 
d="M242 724q53 0 101.5 -8.5t85 -31t58.5 -62.5t22 -103q0 -45 -11 -78.5t-31 -58t-47.5 -40t-59.5 -23.5l170 -280q5 -12 5 -17q0 -11 -9 -19t-21 -8q-15 0 -25 15l-179 299q-8 -1 -15 -1h-15h-116v-284q0 -12 -7.5 -20.5t-20.5 -8.5q-12 0 -20.5 8.5t-8.5 20.5v671
q0 12 8.5 20.5t20.5 8.5h115zM155 367h134q34 0 63.5 8.5t51.5 26.5t34.5 46t12.5 68q0 39 -12.5 67.5t-34 46.5t-51 26.5t-63.5 8.5h-135v-298z" />
    <glyph glyph-name="S" unicode="S" horiz-adv-x="554" 
d="M79 545q0 43 15 78t42 60.5t65 39.5t85 14q59 0 110 -25t74 -83q8 -21 8 -33q0 -14 -8.5 -22.5t-21.5 -8.5q-12 0 -17.5 7t-10.5 19q-6 15 -13.5 30.5t-21.5 28t-36.5 21t-56.5 8.5q-69 0 -112 -33.5t-43 -94.5q0 -32 12 -55t32 -40q24 -21 53 -33.5t60 -23t62 -22
t59 -30.5q34 -23 56.5 -60.5t22.5 -95.5q0 -51 -18.5 -89.5t-49 -64t-70.5 -38t-83 -12.5q-41 0 -76 10.5t-62 29t-46 44t-26 55.5q-3 10 -3 19q0 14 9 22t20 8q18 0 28 -21q8 -17 18.5 -36.5t27.5 -36t43 -27t65 -10.5q36 0 66 10t52.5 28.5t35 44.5t12.5 58
q0 35 -13.5 61.5t-35.5 43.5q-23 18 -53 30t-62.5 23t-65 24.5t-60.5 35.5q-31 25 -49.5 59t-18.5 83z" />
    <glyph glyph-name="T" unicode="T" horiz-adv-x="540" 
d="M497 724q11 0 20 -8.5t9 -20.5q0 -11 -9 -20t-20 -9h-198v-642q0 -12 -8.5 -20.5t-20.5 -8.5t-20.5 8.5t-8.5 20.5v642h-198q-11 0 -20 9t-9 20q0 12 9 20.5t20 8.5h454z" />
    <glyph glyph-name="U" unicode="U" horiz-adv-x="663" 
d="M152 239q0 -94 47.5 -144.5t131.5 -50.5q85 0 133 51t48 144v462q0 12 8.5 20.5t19.5 8.5q12 0 20.5 -8.5t8.5 -20.5v-464q0 -56 -15.5 -102t-46.5 -79t-76 -51t-103 -18q-60 0 -104 19.5t-73 55.5t-43 87.5t-14 115.5v436q0 12 9 20.5t20 8.5q12 0 20.5 -8.5t8.5 -20.5
v-462z" />
    <glyph glyph-name="V" unicode="V" horiz-adv-x="538" 
d="M270 104l205 606q3 8 10.5 14t17.5 6q11 0 20 -8.5t9 -21.5q0 -7 -3 -14l-232 -670q-3 -9 -11 -15t-17 -6t-17 6t-11 15l-233 673q-1 4 -1.5 7t-0.5 6q0 11 9 19.5t20 8.5q10 0 17.5 -6t10.5 -14z" />
    <glyph glyph-name="W" unicode="W" horiz-adv-x="892" 
d="M224 103l186 600q3 11 11 19t24 8q12 0 21.5 -5.5t14.5 -21.5l187 -600l158 607q2 8 10 14t17 6q12 0 20.5 -8.5t8.5 -20.5q0 -7 -1 -9l-175 -669q-7 -28 -35 -28q-26 0 -33 28l-195 598l-189 -598q-7 -28 -33 -28q-12 0 -21 6.5t-13 21.5l-176 669q-1 2 -1 9
q0 12 9 20.5t20 8.5q10 0 18 -6t10 -14z" />
    <glyph glyph-name="X" unicode="X" horiz-adv-x="506" 
d="M253 434l169 282q8 14 23 14q11 0 19.5 -7.5t8.5 -19.5q0 -8 -4 -15l-186 -304l208 -340q7 -10 7 -18q0 -13 -10 -22t-24 -9q-16 0 -27 17l-189 313l-188 -316q-8 -14 -24 -14q-11 0 -19.5 7.5t-8.5 19.5q0 8 4 15l206 339l-185 305q-6 9 -6 18q0 13 9 22t23 9
q19 0 29 -17z" />
    <glyph glyph-name="Y" unicode="Y" horiz-adv-x="514" 
d="M259 380l191 332q4 7 10.5 12.5t16.5 5.5q11 0 20 -8.5t9 -20.5q0 -5 -2 -9l-4 -8l-217 -361v-299q0 -12 -7.5 -20.5t-21.5 -8.5q-11 0 -19.5 8.5t-8.5 20.5v297l-214 366q-4 4 -4 14q0 12 9 20.5t20 8.5q16 0 27 -18z" />
    <glyph glyph-name="Z" unicode="Z" horiz-adv-x="540" 
d="M456 724q12 0 20.5 -8.5t8.5 -20.5q0 -8 -5 -16l-359 -621h350q11 0 20 -9t9 -20q0 -12 -9 -20.5t-20 -8.5h-399q-11 0 -20 8.5t-9 20.5q0 5 2.5 10t5.5 10l357 617h-339q-11 0 -20 9t-9 20q0 12 9 20.5t20 8.5h387z" />
    <glyph glyph-name="bracketleft" unicode="[" horiz-adv-x="306" 
d="M221 748q11 0 19 -8t8 -19q0 -10 -8 -18t-19 -8h-76v-780h76q11 0 19 -7.5t8 -18.5t-8 -19t-19 -8h-107q-11 0 -18.5 8t-7.5 19v832q0 11 7.5 19t18.5 8h107z" />
    <glyph glyph-name="backslash" unicode="\" horiz-adv-x="256" 
d="M299 -55q3 -6 3 -13q0 -11 -8.5 -19.5t-19.5 -8.5q-9 0 -16 6.5t-11 16.5l-288 780q-5 8 -5 14q0 11 8.5 19.5t19.5 8.5t18 -6.5t10 -16.5z" />
    <glyph glyph-name="bracketright" unicode="]" horiz-adv-x="306" 
d="M192 748q11 0 18.5 -8t7.5 -19v-832q0 -11 -7.5 -19t-18.5 -8h-107q-11 0 -19 8t-8 19t8 18.5t19 7.5h76v780h-76q-11 0 -19 8t-8 18q0 11 8 19t19 8h107z" />
    <glyph glyph-name="asciicircum" unicode="^" horiz-adv-x="600" 
d="M509 399q4 -7 4 -14q0 -11 -8.5 -19.5t-19.5 -8.5q-8 0 -15 4.5t-10 10.5l-160 283l-160 -283q-3 -6 -10 -10.5t-15 -4.5q-11 0 -19.5 8.5t-8.5 19.5q0 7 4 14l183 313q4 7 11 12.5t15 5.5t15 -5.5t11 -12.5z" />
    <glyph glyph-name="underscore" unicode="_" horiz-adv-x="420" 
d="M420 -87q11 0 19.5 -8.5t8.5 -19.5t-8.5 -19.5t-19.5 -8.5h-420q-11 0 -19.5 8.5t-8.5 19.5t8.5 19.5t19.5 8.5h420z" />
    <glyph glyph-name="grave" unicode="`" horiz-adv-x="204" 
d="M175 591q3 -6 3 -12q0 -9 -6 -14.5t-14 -5.5q-11 0 -17 10l-109 152q-6 10 -6 20q0 14 10 23.5t22 9.5q19 0 29 -19z" />
    <glyph glyph-name="a" unicode="a" horiz-adv-x="467" 
d="M386 86q0 -24 14 -44q10 -9 10 -20q0 -12 -8.5 -19.5t-20.5 -7.5t-20 8q-10 9 -15.5 23.5t-8.5 31.5q-19 -27 -58 -49t-96 -22q-30 0 -56 7.5t-45 24t-30 41.5t-11 60q0 60 30 93.5t78 45.5q19 5 42 7.5t47 5l48 5t44 7.5v66q0 53 -23.5 79t-80.5 26q-30 0 -60 -11.5
t-47 -48.5q-4 -9 -9.5 -15t-16.5 -6q-13 0 -21 8t-8 20t8 27t17 26q23 28 59.5 41.5t83.5 13.5q32 0 60 -7.5t49 -25.5t33 -49t12 -78v-264zM330 233q-18 -5 -39.5 -8t-44 -6t-43.5 -6t-36 -7q-30 -8 -50 -28.5t-20 -59.5q0 -44 25 -60.5t65 -16.5q95 0 143 79v113z" />
    <glyph glyph-name="b" unicode="b" horiz-adv-x="507" 
d="M123 448q17 21 52 41.5t86 20.5q47 0 83.5 -21t62 -57t39 -84.5t13.5 -103.5t-13.5 -102t-38.5 -81.5t-61 -54t-82 -19.5q-43 0 -83 16t-59 40q0 -22 -5.5 -35t-21.5 -13q-17 0 -22.5 16t-5.5 33v684q0 12 8.5 20t19.5 8q12 0 20 -8t8 -20v-280zM123 95q23 -24 60 -39
t74 -15q35 0 62.5 15t46 42t28 64.5t9.5 82.5q0 40 -8 78t-26 67.5t-46 47t-68 17.5t-78 -18.5t-54 -53.5v-288z" />
    <glyph glyph-name="c" unicode="c" horiz-adv-x="475" 
d="M408 68q-10 -16 -24 -30.5t-32 -25.5q-41 -25 -94 -25q-49 0 -88 20t-66 55t-41.5 83.5t-14.5 104.5t14.5 104t42 82.5t66.5 54t89 19.5q48 0 88 -19.5t64 -60.5q4 -6 7.5 -14t3.5 -16q0 -12 -7.5 -20t-21.5 -8q-12 0 -17.5 6t-8.5 13q-5 11 -12 21t-19 19q-32 24 -78 24
q-36 0 -64.5 -15t-49 -42t-31.5 -64.5t-11 -82.5q0 -46 11.5 -84.5t31.5 -66.5t48.5 -43.5t63.5 -15.5q23 0 42 7t33 18q10 8 17.5 18t12.5 20q4 8 10 15t18 7t20 -8t8 -19q0 -8 -3.5 -15.5t-7.5 -15.5z" />
    <glyph glyph-name="d" unicode="d" horiz-adv-x="522" 
d="M446 121q0 -25 3 -47.5t7 -42.5q1 -2 1.5 -4t0.5 -5q0 -11 -8 -19t-20 -8q-11 0 -18.5 7.5t-10.5 19.5q-2 8 -3.5 19t-3.5 22q-6 -11 -19 -24t-31.5 -24.5t-43 -19.5t-54.5 -8q-47 0 -83.5 21t-62 57t-39 84t-13.5 103t13 102t38 81.5t60.5 54.5t80.5 20q24 0 47.5 -5.5
t43.5 -14.5t35.5 -20.5t23.5 -23.5v282q0 12 8 20t20 8q11 0 19.5 -8t8.5 -20v-607zM390 394q-22 26 -62 43.5t-80 17.5q-35 0 -62 -15t-45.5 -42t-28 -64.5t-9.5 -81.5q0 -41 8.5 -79t26.5 -67t46.5 -47t67.5 -18q22 0 44.5 6t41.5 17.5t32.5 28t19.5 37.5v264z" />
    <glyph glyph-name="e" unicode="e" horiz-adv-x="507" 
d="M109 239q0 -42 10.5 -78t30.5 -62.5t49.5 -41.5t68.5 -15q25 0 43 6t31 16t22.5 22.5t18.5 25.5q9 14 23 14t22 -8.5t8 -19.5q0 -7 -4 -12q-12 -24 -30.5 -42.5t-41.5 -31t-49 -19t-53 -6.5q-49 0 -87 20t-64.5 55t-40.5 83.5t-14 104.5t14 103.5t40.5 82.5t65.5 54.5
t89 19.5q47 0 83 -18t60 -50t36 -77t12 -99q0 -12 -8 -19.5t-20 -7.5h-315zM395 293v4q0 32 -9.5 61t-27.5 50.5t-43.5 34t-57.5 12.5t-57.5 -12.5t-44.5 -34.5t-30 -51.5t-14 -63.5h284z" />
    <glyph glyph-name="f" unicode="f" horiz-adv-x="358" 
d="M118 498v108q0 69 31.5 109.5t94.5 40.5q18 0 36.5 -4t30.5 -12q14 -9 14 -24q0 -12 -8 -19.5t-22 -7.5q-6 0 -14 4t-16 6t-20 2q-42 0 -56.5 -27.5t-14.5 -84.5v-91h96q12 0 20 -8.5t8 -19.5q0 -12 -8 -19.5t-20 -7.5h-96v-421q0 -12 -8.5 -19.5t-19.5 -7.5
q-12 0 -20 7.5t-8 19.5v421h-67q-12 0 -20 7.5t-8 19.5q0 11 8 19.5t20 8.5h67z" />
    <glyph glyph-name="g" unicode="g" horiz-adv-x="506" 
d="M439 0q0 -106 -45 -164.5t-138 -58.5q-31 0 -54.5 6t-40.5 14q-11 6 -17.5 10.5t-11.5 7.5t-8.5 6t-8.5 8q-6 6 -12 12.5t-6 16.5q0 12 8.5 20t20.5 8q8 0 14 -4t13 -11q14 -13 24 -20t26 -12q24 -8 50 -8q34 0 58.5 12t40.5 32t23.5 47.5t7.5 59.5v108
q-17 -21 -52.5 -41.5t-87.5 -20.5q-46 0 -82 19t-61.5 52t-39 78t-13.5 97q0 51 13.5 94.5t38.5 75t60.5 49t80.5 17.5t85 -16.5t59 -40.5q1 7 1.5 18t2.5 15q6 16 23 16q19 0 25 -24q3 -23 3 -101v-377zM383 401q-23 23 -59.5 38.5t-75.5 15.5q-70 0 -108 -50.5t-38 -132.5
q0 -38 8.5 -72t26.5 -60t46 -41.5t67 -15.5q42 0 79.5 18.5t53.5 53.5v246z" />
    <glyph glyph-name="h" unicode="h" horiz-adv-x="534" 
d="M139 448q16 21 51.5 41.5t87.5 20.5q42 0 73.5 -15.5t52.5 -42t32 -62.5t11 -77v-192q0 -25 3 -47.5t7 -42.5q1 -2 1.5 -4t0.5 -5q0 -11 -8 -19t-20 -8q-22 0 -29 27q-5 20 -8 48t-3 50v197q0 24 -6 48.5t-20.5 44.5t-37.5 32.5t-57 12.5q-42 0 -79.5 -19.5t-51.5 -52.5
v-360q0 -12 -8.5 -20t-19.5 -8q-12 0 -20 8t-8 20v705q0 12 8 20t20 8q11 0 19.5 -8t8.5 -20v-280z" />
    <glyph glyph-name="i" unicode="i" horiz-adv-x="231" 
d="M79 0zM140 121q0 -25 3 -47.5t7 -42.5q1 -2 1.5 -4t0.5 -5q0 -11 -7.5 -19t-21.5 -8q-21 0 -28 27q-4 14 -7.5 41.5t-3.5 56.5v355q0 11 8 19.5t20 8.5q11 0 19.5 -8.5t8.5 -19.5v-354zM112 726q14 0 23.5 -9.5t9.5 -23.5t-9.5 -23.5t-23.5 -9.5t-23.5 9.5t-9.5 23.5
t9.5 23.5t23.5 9.5z" />
    <glyph glyph-name="j" unicode="j" horiz-adv-x="251" 
d="M0 0zM168 -67q0 -71 -22.5 -113.5t-83.5 -42.5q-11 0 -26 1.5t-23 4.5q-6 2 -12 6t-8 6q-9 9 -9 20t8.5 19.5t19.5 8.5q6 0 10.5 -2t8.5 -4q8 -5 12 -5.5t12 -0.5q36 1 46.5 25.5t10.5 78.5v540q0 11 8 19.5t20 8.5q11 0 19.5 -8.5t8.5 -19.5v-542zM140 726
q14 0 23.5 -9.5t9.5 -23.5t-9.5 -23.5t-23.5 -9.5t-23.5 9.5t-9.5 23.5t9.5 23.5t23.5 9.5z" />
    <glyph glyph-name="k" unicode="k" horiz-adv-x="474" 
d="M145 281h102l131 205q11 17 24 17q11 0 18.5 -7.5t7.5 -18.5q0 -5 -2 -8.5t-4 -8.5l-128 -200l144 -219q6 -8 6 -18q0 -13 -8.5 -20.5t-20.5 -7.5q-15 0 -24 12l-143 222h-103v-206q0 -12 -8.5 -20t-19.5 -8q-12 0 -20 8t-8 20v705q0 12 8 20t20 8q11 0 19.5 -8t8.5 -20
v-447z" />
    <glyph glyph-name="l" unicode="l" horiz-adv-x="224" 
d="M140 121q0 -25 3 -47.5t7 -42.5q2 -8 2 -9q0 -12 -8 -19.5t-20 -7.5q-23 0 -29 27q-5 23 -8 47t-3 51v608q0 12 8 20t20 8q11 0 19.5 -8t8.5 -20v-607z" />
    <glyph glyph-name="m" unicode="m" horiz-adv-x="789" 
d="M123 23q0 -12 -8 -20t-20 -8q-11 0 -19.5 8t-8.5 20v353q0 25 -3 47.5t-7 43.5q-2 10 -2 9q0 11 8 19t20 8q23 0 29 -27q6 -21 7 -43q22 35 56.5 56t77.5 21q55 0 89.5 -27t51.5 -72q10 25 27 44t37.5 31t43 18t43.5 6q41 0 70.5 -16t49 -43t28.5 -63t9 -75v-192
q0 -25 3.5 -47t7.5 -43q2 -10 2 -9q0 -12 -8.5 -19.5t-19.5 -7.5q-23 0 -29 27q-5 23 -8 47t-3 51v197q0 25 -4.5 50t-16.5 44.5t-32 31.5t-51 12q-45 0 -78 -24t-56 -84q1 -8 1.5 -16.5t0.5 -17.5v-290q0 -12 -8.5 -20t-19.5 -8q-12 0 -20 8t-8 20v294q0 25 -4.5 50
t-16.5 44.5t-32 31.5t-51 12q-45 0 -77.5 -21.5t-50.5 -67.5v-343z" />
    <glyph glyph-name="n" unicode="n" 
d="M123 23q0 -12 -8 -20t-20 -8q-11 0 -19.5 8t-8.5 20v353q0 25 -3 48t-7 43q-2 6 -2 10q0 10 7.5 18t20.5 8t19.5 -8t9.5 -19q2 -8 4 -21.5t3 -21.5q22 35 61 56t86 21q39 0 70 -15.5t52 -42t32 -62.5t11 -77v-192q0 -25 3 -48t8 -42q1 -3 1.5 -5.5t0.5 -5.5
q0 -10 -8 -17.5t-21 -7.5q-21 0 -28 27q-4 14 -7.5 41.5t-3.5 56.5v197q0 24 -6.5 48.5t-20.5 44.5t-36 32.5t-54 12.5q-19 0 -39 -5t-38.5 -16t-34 -27.5t-24.5 -40.5v-343z" />
    <glyph glyph-name="o" unicode="o" 
d="M259 455q-38 0 -67.5 -16.5t-49.5 -45t-30.5 -66t-10.5 -78.5t10.5 -79t30.5 -66.5t49.5 -45.5t67.5 -17t67.5 17t49.5 45.5t30.5 66.5t10.5 79t-10.5 78.5t-30.5 66t-49.5 45t-67.5 16.5zM259 510q51 0 91 -20.5t67.5 -55.5t41.5 -82.5t14 -102.5t-14.5 -102.5
t-41.5 -83t-67 -56t-91 -20.5t-91 20.5t-67 56t-41 83t-14 102.5t14 102.5t41 82.5t66.5 55.5t91.5 20.5z" />
    <glyph glyph-name="p" unicode="p" horiz-adv-x="513" 
d="M123 -196q0 -11 -8 -19t-20 -8q-11 0 -19.5 8t-8.5 19v572q0 25 -3 48t-7 43q-2 6 -2 10q0 10 7.5 18t20.5 8t19.5 -8t9.5 -19q2 -8 4 -21.5t3 -21.5q7 12 20.5 25.5t32 25t42.5 19t53 7.5q46 0 83 -21t63 -57t39.5 -84.5t13.5 -103.5t-13.5 -102t-38.5 -81.5t-60.5 -54
t-80.5 -19.5q-24 0 -47.5 5.5t-43.5 14.5t-35.5 20.5t-23.5 23.5v-247zM123 102q22 -26 61.5 -43.5t78.5 -17.5q36 0 63 15t46 42t28.5 64t9.5 82q0 41 -8.5 79t-26.5 67.5t-46.5 47t-67.5 17.5q-23 0 -45 -6t-41 -17.5t-32.5 -28t-19.5 -37.5v-264z" />
    <glyph glyph-name="q" unicode="q" horiz-adv-x="507" 
d="M440 -196q0 -11 -8.5 -19t-19.5 -8q-12 0 -20 8t-8 19v245q-17 -21 -52 -41.5t-86 -20.5q-47 0 -83.5 20.5t-62 56.5t-39 84.5t-13.5 103.5t13.5 102.5t38.5 82t61.5 54t81.5 19.5q44 0 83.5 -16.5t58.5 -40.5q0 14 1 22t3 12q7 16 24 16q27 0 27 -31v-668zM384 401
q-23 24 -60 39t-74 15q-35 0 -62.5 -15t-46.5 -42t-28.5 -64t-9.5 -82q0 -41 8.5 -79t26.5 -67t46.5 -47t67.5 -18q40 0 78 19t54 54v287z" />
    <glyph glyph-name="r" unicode="r" horiz-adv-x="358" 
d="M123 23q0 -12 -8 -20t-20 -8q-11 0 -19.5 8t-8.5 20v353q0 17 -1.5 29.5t-3 22.5t-2.5 19t-1 20q-1 0 -2 2q-2 2 -2 8q0 10 7.5 18t21.5 8q12 0 18 -7t10 -20q2 -5 4.5 -18.5t3.5 -25.5q29 40 67.5 59t76.5 19q22 0 43 -6q18 -5 26 -14q6 -6 6 -17q0 -12 -7.5 -19.5
t-21.5 -7.5q-6 0 -11 1.5t-13 4.5t-21 3q-37 0 -76.5 -19.5t-65.5 -70.5v-342z" />
    <glyph glyph-name="s" unicode="s" horiz-adv-x="442" 
d="M63 373q0 35 12.5 60.5t34.5 42.5t51.5 25.5t62.5 8.5q53 0 88 -19.5t52 -54.5q3 -6 5.5 -14t2.5 -15q0 -12 -8 -19.5t-21 -7.5q-12 0 -17.5 6.5t-8.5 14.5q-11 29 -35 41.5t-60 12.5q-47 0 -75 -19t-28 -57q0 -26 12.5 -40.5t31.5 -24.5q16 -9 36 -15t41 -12.5t42 -14
t39 -18.5q26 -16 45.5 -43t19.5 -72q0 -35 -13.5 -63.5t-37 -48t-55 -30t-66.5 -10.5q-49 0 -87 19t-60 50q-6 8 -12.5 21t-6.5 25t8 20t21 8q18 0 25 -19q16 -36 46 -53t69 -17q45 0 78.5 23t33.5 69q0 26 -10.5 42t-27.5 27q-18 12 -41 20t-47.5 15t-48 15.5t-43.5 22.5
q-22 16 -35 39t-13 59z" />
    <glyph glyph-name="t" unicode="t" horiz-adv-x="341" 
d="M119 498v121q0 11 8 19.5t20 8.5q11 0 19.5 -8.5t8.5 -19.5v-121h96q12 0 20 -8.5t8 -19.5q0 -12 -8 -19.5t-20 -7.5h-96v-279q0 -66 11.5 -94.5t44.5 -28.5q11 0 14.5 0.5t10.5 5.5q4 2 8.5 4t9.5 2q12 0 20 -8.5t8 -19.5q0 -14 -8 -20q-3 -2 -9.5 -6t-11.5 -6
q-8 -3 -22 -4.5t-25 -1.5q-31 0 -51.5 11.5t-33 32t-17.5 49t-5 63.5v300h-67q-12 0 -20 7.5t-8 19.5q0 11 8 19.5t20 8.5h67z" />
    <glyph glyph-name="u" unicode="u" 
d="M139 180q0 -69 31 -104.5t94 -35.5t92.5 35.5t29.5 102.5v297q0 11 8 19.5t20 8.5q11 0 19 -8.5t8 -19.5v-292q0 -37 -8 -72t-28 -62.5t-54.5 -44.5t-86.5 -17q-53 0 -87.5 17t-55.5 44.5t-29.5 63t-8.5 72.5v291q0 11 8 19.5t20 8.5q11 0 19.5 -8.5t8.5 -19.5v-295z" />
    <glyph glyph-name="v" unicode="v" horiz-adv-x="421" 
d="M212 87l141 396q3 8 9.5 14t16.5 6q11 0 19.5 -8.5t8.5 -19.5q0 -6 -3 -12l-165 -449q-3 -9 -10.5 -14t-16.5 -5q-21 0 -27 19l-166 442q-5 8 -5 18q0 12 8.5 20.5t20.5 8.5q20 0 27 -19z" />
    <glyph glyph-name="w" unicode="w" horiz-adv-x="695" 
d="M197 87l123 396q2 8 9 14t17 6q11 0 17 -6t9 -14l131 -396l123 396q2 8 9 14t17 6q12 0 20 -8.5t8 -19.5q0 -2 -2 -12l-151 -449q-7 -19 -24 -19q-19 0 -25 19l-130 397l-128 -397q-6 -19 -23 -19q-19 0 -25 19l-151 442q-4 7 -4 19q0 11 7.5 19.5t19.5 8.5q20 0 28 -23z
" />
    <glyph glyph-name="x" unicode="x" horiz-adv-x="403" 
d="M205 303l115 183q11 17 24 17q11 0 18.5 -7.5t7.5 -18.5q0 -5 -2 -8.5t-4 -8.5l-128 -200l144 -219q6 -8 6 -18q0 -13 -8.5 -20.5t-20.5 -7.5q-15 0 -24 12l-134 209l-131 -207q-9 -14 -25 -14q-25 0 -25 25q0 10 4 14l147 225l-130 195q-6 7 -6 20q0 12 8.5 20.5
t19.5 8.5q17 0 25 -14z" />
    <glyph glyph-name="y" unicode="y" horiz-adv-x="418" 
d="M206 87l141 396q3 8 9.5 14t15.5 6q12 0 20 -8.5t8 -19.5q0 -2 -2 -12l-204 -555q-13 -35 -33 -67t-52 -58q-9 -6 -19 -6q-12 0 -20 7.5t-8 18.5q0 17 15 25q7 4 13.5 12t16.5 19q8 11 17.5 28.5t17.5 39.5l34 94l-164 435q-4 9 -4 18q0 12 8.5 20.5t20.5 8.5
q11 0 16.5 -4t10.5 -15z" />
    <glyph glyph-name="z" unicode="z" horiz-adv-x="441" 
d="M355 498q11 0 19.5 -8.5t8.5 -19.5q0 -9 -5 -17l-257 -398h250q12 0 20 -8.5t8 -19.5q0 -12 -8 -19.5t-20 -7.5h-299q-11 0 -19.5 7.5t-8.5 19.5q0 9 7 19l256 397h-238q-11 0 -19.5 7.5t-8.5 19.5q0 11 8.5 19.5t19.5 8.5h286z" />
    <glyph glyph-name="braceleft" unicode="{" horiz-adv-x="323" 
d="M124 621q2 41 13 66t29.5 38.5t43.5 17.5t55 4q11 0 19 -8t8 -19q0 -10 -8 -18t-19 -8q-21 0 -37 -2.5t-26.5 -10.5t-16 -23.5t-6.5 -40.5q-2 -38 -2 -77.5t-1 -78.5q-1 -63 -20 -101.5t-38 -54.5q19 -16 38 -54.5t20 -101.5q1 -39 1 -78t2 -77q1 -26 6.5 -41.5t16 -23.5
t26.5 -10.5t37 -2.5q11 0 19 -7.5t8 -18.5t-8 -19t-19 -8q-30 0 -55 4t-43.5 17.5t-29.5 38.5t-13 67q-3 42 -2 89t-2.5 88t-16 71.5t-41.5 39.5q-9 3 -16 10.5t-7 16.5q0 10 7 17t16 10q29 9 41.5 39t16 71.5t2.5 88.5t2 90z" />
    <glyph glyph-name="bar" unicode="|" horiz-adv-x="226" 
d="M142 -190q0 -12 -9 -20.5t-20 -8.5q-12 0 -20.5 8.5t-8.5 20.5v927q0 11 8.5 20t20.5 9q11 0 20 -9t9 -20v-927z" />
    <glyph glyph-name="braceright" unicode="}" horiz-adv-x="323" 
d="M205 305q-19 16 -38 54.5t-20 101.5q-1 39 -1 78.5t-2 77.5q-1 25 -6.5 40.5t-16 23.5t-26.5 10.5t-37 2.5q-11 0 -19 8t-8 18q0 11 8 19t19 8q30 0 55 -4t43 -17.5t29 -38.5t14 -66q3 -43 2 -90t2.5 -88.5t16 -71.5t41.5 -39q9 -3 15.5 -10t6.5 -17q0 -9 -6.5 -16.5
t-15.5 -10.5q-29 -9 -41.5 -39.5t-16 -71.5t-2.5 -88t-2 -89t-14 -67t-29 -38.5t-43 -17.5t-55 -4q-11 0 -19 8t-8 19t8 18.5t19 7.5q21 0 37 2.5t26.5 10.5t16 23.5t6.5 41.5q2 38 2 77t1 78q1 63 20 101.5t38 54.5z" />
    <glyph glyph-name="asciitilde" unicode="~" horiz-adv-x="549" 
d="M91 280q9 12 20.5 24.5t25 23t30.5 17t37 6.5q28 0 48.5 -11.5t45.5 -26.5q14 -8 27 -14.5t27 -6.5q23 0 40 16t31 33q6 10 19 10q11 0 18 -7.5t7 -16.5q0 -10 -9 -19q-20 -26 -47 -48t-66 -22q-26 0 -46.5 10.5t-47.5 26.5q-20 11 -31 16.5t-23 5.5q-23 0 -39.5 -15.5
t-31.5 -34.5q-4 -5 -7.5 -7t-9.5 -2q-13 0 -19.5 7.5t-6.5 16.5q0 10 8 18z" />
    <glyph glyph-name="nonbreakingspace" unicode="&#xa0;" horiz-adv-x="247" 
 />
    <glyph glyph-name="exclamdown" unicode="&#xa1;" horiz-adv-x="400" 
d="M237 -119q0 -14 -11 -25t-26 -11q-14 0 -25 11t-11 25v14t1 28.5t1.5 54.5t2.5 91.5t4 139t5 197.5q0 9 6.5 16t15.5 7q10 0 16.5 -7t6.5 -16q3 -115 5 -197.5t4 -139t2.5 -91.5t1.5 -54.5t1 -28.5v-14zM200 510q-17 0 -29 12.5t-12 29.5t12 29t29 12t29.5 -12t12.5 -29
t-12.5 -29.5t-29.5 -12.5z" />
    <glyph glyph-name="cent" unicode="&#xa2;" horiz-adv-x="549" 
d="M324 614q42 -5 74.5 -24.5t52.5 -52.5q4 -6 7.5 -14.5t3.5 -16.5q0 -12 -8 -19.5t-20 -7.5q-20 0 -26 19q-13 33 -46 48.5t-68 15.5q-33 0 -60.5 -15t-48 -42t-31.5 -64.5t-11 -82.5q0 -46 11 -84.5t31.5 -66.5t48.5 -43.5t61 -15.5q34 0 63 15.5t44 47.5q5 8 11 15t17 7
q12 0 20 -8.5t8 -19.5q0 -7 -3.5 -15t-7.5 -15q-10 -17 -24 -31t-32 -25q-16 -9 -32 -15.5t-35 -9.5v-70q0 -12 -9 -20.5t-20 -8.5q-12 0 -20.5 8.5t-8.5 20.5v71q-42 6 -75 28.5t-56.5 57t-35.5 80t-12 97.5q0 50 12.5 94t35.5 77.5t56 55.5t75 28v72q0 11 8.5 20t20.5 9
q11 0 20 -9t9 -20v-71z" />
    <glyph glyph-name="sterling" unicode="&#xa3;" horiz-adv-x="549" 
d="M143 380q3 85 9 132q5 37 17 73.5t33.5 65t54 46t78.5 17.5q47 0 81 -19t51 -56q3 -6 6 -15.5t3 -15.5q0 -9 -7.5 -18.5t-21.5 -9.5q-8 0 -14 4t-12 16q-6 13 -12.5 23.5t-15.5 18t-22 12t-32 4.5q-59 0 -87.5 -36t-38.5 -91q-4 -21 -7.5 -57t-5.5 -94h138
q11 0 19.5 -8.5t8.5 -19.5t-8.5 -19.5t-19.5 -8.5h-140q-2 -78 -8 -142t-20 -106q8 1 16 1.5t20 0.5q31 0 54.5 -4t43 -9t39 -9t43.5 -4q21 0 36.5 3t22.5 5q13 5 22 5q14 0 22 -8.5t8 -19.5q0 -13 -8 -19t-18 -9q-9 -3 -22 -5.5t-27.5 -4.5t-29.5 -3t-28 -1q-26 0 -48 4.5
t-43 9.5t-44 9.5t-50 4.5q-32 0 -49.5 -6t-31.5 -16q-8 -6 -17 -6q-12 0 -20 8t-8 20q0 13 12 24q12 8 24.5 13t26.5 9q14 60 20 124.5t7 130.5h-43q-11 0 -19.5 8.5t-8.5 19.5t8.5 19.5t19.5 8.5h43z" />
    <glyph glyph-name="currency" unicode="&#xa4;" horiz-adv-x="642" 
d="M171 546q27 32 65 49.5t86 17.5t86 -17.5t65 -49.5l72 73q8 8 20 8q13 0 21.5 -9t8.5 -21t-8 -20l-82 -80q14 -32 22 -67t8 -75t-8 -75.5t-22 -66.5l82 -81q8 -8 8 -20t-8.5 -20.5t-21.5 -8.5q-12 0 -20 8l-72 72q-27 -31 -65 -49t-86 -18t-86 18t-65 49l-73 -72
q-8 -8 -20 -8t-20.5 8.5t-8.5 20.5t8 20l82 81q-30 61 -30 142q0 79 30 142l-82 80q-8 8 -8 20q0 13 8.5 21.5t20.5 8.5t20 -8zM322 559q-38 0 -67.5 -17t-49.5 -45t-30.5 -65t-10.5 -77q0 -41 10.5 -77.5t30.5 -65t49.5 -45t67.5 -16.5q37 0 66.5 16.5t49.5 45t30.5 65
t10.5 77.5q0 40 -10.5 77t-30.5 65t-49.5 45t-66.5 17z" />
    <glyph glyph-name="yen" unicode="&#xa5;" horiz-adv-x="549" 
d="M274 387l177 309q8 18 26 18q11 0 19.5 -8t8.5 -19q0 -7 -4 -16l-200 -336h125q11 0 19 -8t8 -19t-8 -19t-19 -8h-125v-75h125q11 0 19 -8t8 -19t-8 -19t-19 -8h-125v-129q0 -11 -8.5 -19.5t-19.5 -8.5t-19.5 8.5t-8.5 19.5v129h-122q-11 0 -19 8t-8 19t8 19t19 8h122v75
h-122q-11 0 -19 8t-8 19t8 19t19 8h122l-196 336q-5 8 -5 15q0 11 8.5 19.5t19.5 8.5q9 0 15.5 -6t10.5 -13z" />
    <glyph glyph-name="brokenbar" unicode="&#xa6;" horiz-adv-x="226" 
d="M142 -190q0 -12 -9 -20.5t-20 -8.5q-12 0 -20.5 8.5t-8.5 20.5v348q0 12 8.5 20.5t20.5 8.5q11 0 20 -8.5t9 -20.5v-348zM142 388q0 -12 -9 -20.5t-20 -8.5q-12 0 -20.5 8.5t-8.5 20.5v349q0 11 8.5 20t20.5 9q11 0 20 -9t9 -20v-349z" />
    <glyph glyph-name="section" unicode="&#xa7;" horiz-adv-x="569" 
d="M431 655q4 -5 6.5 -13.5t2.5 -15.5q0 -12 -8 -19.5t-21 -7.5q-14 0 -19 7t-8 15q-7 18 -18 28.5t-24 16.5t-27 8t-26 2q-50 0 -76.5 -21.5t-26.5 -56.5q0 -22 10 -35.5t28 -24.5q31 -18 69.5 -27.5t73.5 -26.5q17 -8 32.5 -18.5t27.5 -25.5t19 -35t7 -47
q0 -38 -14.5 -66.5t-40.5 -48.5q24 -17 39.5 -40.5t15.5 -62.5q0 -36 -13.5 -64t-37 -48t-54.5 -30.5t-65 -10.5q-45 0 -85 17.5t-64 51.5q-6 8 -12.5 21t-6.5 25t7.5 20t21.5 8q12 0 17.5 -6t8.5 -13q16 -32 41 -51t71 -19q51 0 82.5 23.5t31.5 68.5q0 32 -16 50t-42 29
q-19 8 -39 13.5t-39.5 11.5t-39 13t-36.5 18q-23 15 -38.5 39t-15.5 62q0 41 18.5 71t50.5 47q-29 15 -49 38.5t-20 68.5q0 34 12.5 59.5t34.5 42.5t50.5 25.5t61.5 8.5q53 0 89 -20t53 -55zM259 458q-33 -7 -53 -30t-20 -54q0 -27 15 -42.5t38.5 -26t53 -18.5t58.5 -19
q18 13 31.5 34t13.5 51t-15 47.5t-44 30.5q-18 8 -37.5 14.5t-40.5 12.5z" />
    <glyph glyph-name="dieresis" unicode="&#xa8;" horiz-adv-x="285" 
d="M235 726q14 0 23.5 -9.5t9.5 -23.5t-9.5 -23.5t-23.5 -9.5t-23.5 9.5t-9.5 23.5t9.5 23.5t23.5 9.5zM49 726q14 0 23.5 -9.5t9.5 -23.5t-9.5 -23.5t-23.5 -9.5t-23.5 9.5t-9.5 23.5t9.5 23.5t23.5 9.5z" />
    <glyph glyph-name="copyright" unicode="&#xa9;" horiz-adv-x="719" 
d="M360 714q69 0 130 -28.5t106.5 -77.5t71.5 -115.5t26 -142.5t-26 -142.5t-71.5 -115.5t-106.5 -77.5t-130 -28.5t-130 28t-106.5 77.5t-72 115.5t-26.5 143q0 76 26.5 142.5t72 116t106.5 77.5t130 28zM360 659q-61 0 -112.5 -23t-89.5 -64.5t-59.5 -98t-21.5 -122.5
q0 -67 21.5 -124t59.5 -99t89.5 -65.5t112.5 -23.5t112.5 23.5t89.5 65.5t59.5 99t21.5 124q0 66 -21.5 122.5t-59.5 98t-89.5 64.5t-112.5 23zM496 507q4 -5 7 -12.5t3 -14.5q0 -10 -7 -17t-18 -7q-18 0 -23 17q-5 11 -11 19t-17 16q-14 10 -30.5 15.5t-37.5 5.5
q-32 0 -57 -13.5t-42.5 -37.5t-27 -57t-9.5 -72q0 -40 9.5 -73.5t27 -58t42.5 -38t57 -13.5q19 0 36 5t29 16q11 9 18 20.5t8 13.5q4 7 9.5 13t15.5 6t17.5 -6.5t7.5 -16.5t-11 -28q-18 -30 -48 -48q-17 -11 -36 -17t-45 -6q-44 0 -79 17.5t-59 48.5t-36.5 73t-12.5 91
q0 50 13 92t37 72.5t58 47.5t77 17q44 0 80 -18t55 -52z" />
    <glyph glyph-name="ordfeminine" unicode="&#xaa;" horiz-adv-x="391" 
d="M265 563q0 35 -15.5 52t-53.5 17q-24 0 -42.5 -7.5t-26.5 -24.5q-4 -8 -10 -17t-19 -9q-11 0 -19.5 8t-8.5 19q0 10 6.5 22t14.5 21q21 24 49.5 33.5t61.5 9.5q25 0 46.5 -5.5t37.5 -19.5t25 -38t9 -61v-192q0 -16 8 -27q9 -9 9 -20t-7.5 -18.5t-18.5 -7.5q-7 0 -13 2.5
t-9 5.5q-5 5 -9.5 12.5t-6.5 16.5q-20 -20 -45 -31.5t-63 -11.5q-49 0 -79.5 23.5t-30.5 80.5q0 91 91 107q17 3 50.5 7t68.5 10v43zM265 476q-19 -5 -49 -8.5t-49 -7.5q-15 -3 -25.5 -7t-18 -10.5t-11 -17t-3.5 -27.5q0 -23 10.5 -37.5t48.5 -14.5q64 0 97 52v78z" />
    <glyph glyph-name="guillemotleft" unicode="&#xab;" horiz-adv-x="370" 
d="M23 0zM87 249l96 -215q3 -8 3 -14q0 -11 -7 -18t-17 -7q-16 0 -21 11l-118 243l118 243q5 11 21 11q10 0 17 -7t7 -18q0 -7 -3 -14zM247 249l96 -215q3 -8 3 -14q0 -11 -7 -18t-17 -7q-16 0 -21 11l-118 243l118 243q5 11 21 11q10 0 17 -7t7 -18q0 -7 -3 -14z" />
    <glyph glyph-name="logicalnot" unicode="&#xac;" horiz-adv-x="549" 
d="M457 325q12 0 20.5 -9t8.5 -20v-157q0 -12 -8.5 -20.5t-20.5 -8.5q-11 0 -20 8.5t-9 20.5v128h-336q-11 0 -20 8.5t-9 20.5q0 11 9 20t20 9h365z" />
    <glyph glyph-name="uni00AD" unicode="&#xad;" horiz-adv-x="0" 
 />
    <glyph glyph-name="registered" unicode="&#xae;" horiz-adv-x="472" 
d="M220 650q20 0 38.5 -3.5t32.5 -12t22 -23.5t8 -39q0 -30 -13 -47.5t-35 -26.5l54 -91q2 -4 2 -9q0 -6 -5 -10.5t-12 -4.5q-4 0 -8.5 2t-6.5 7l-60 100h-39v-93q0 -7 -6 -11.5t-12 -4.5t-11.5 4.5t-5.5 11.5v234q0 7 5.5 12t12.5 5h39zM198 527h39q21 0 35.5 10t14.5 34
q0 23 -14.5 34t-34.5 11h-40v-89zM237 740q45 0 83 -16.5t66.5 -46.5t44.5 -71.5t16 -91.5t-16 -92t-44.5 -72t-67 -47t-82.5 -17t-83 17t-67.5 47t-45 72t-16.5 92t16.5 91.5t45 71.5t67 46.5t83.5 16.5zM236 702q-37 0 -69 -13t-56 -37t-37.5 -59t-13.5 -78
q0 -44 13.5 -79.5t37.5 -60.5t56 -38.5t69 -13.5t69.5 13.5t56 39t37 60.5t13.5 79q0 43 -13.5 77.5t-37 59t-56 37.5t-69.5 13z" />
    <glyph glyph-name="macron" unicode="&#xaf;" horiz-adv-x="369" 
d="M327 711q11 0 19 -8.5t8 -19.5t-8 -19.5t-19 -8.5h-284q-11 0 -19 8.5t-8 19.5t8 19.5t19 8.5h284z" />
    <glyph glyph-name="degree" unicode="&#xb0;" horiz-adv-x="342" 
d="M172 722q25 0 47 -10t38 -28t25 -42.5t9 -53.5t-9 -53.5t-25 -42.5t-38 -28t-47 -10q-54 0 -87.5 37t-33.5 97q0 29 9 53.5t25 42.5t38.5 28t48.5 10zM171 677q-36 0 -57 -24.5t-21 -64.5t21.5 -64.5t57.5 -24.5q34 0 55 24.5t21 64.5t-21 64.5t-56 24.5z" />
    <glyph glyph-name="plusminus" unicode="&#xb1;" horiz-adv-x="549" 
d="M63 0zM245 325v153q0 11 9 20t20 9q12 0 20.5 -9t8.5 -20v-153h154q12 0 20.5 -9t8.5 -20q0 -12 -8.5 -20.5t-20.5 -8.5h-154v-154q0 -12 -8.5 -20.5t-20.5 -8.5q-11 0 -20 8.5t-9 20.5v154h-153q-11 0 -20 8.5t-9 20.5q0 11 9 20t20 9h153zM457 0q12 0 20.5 -9t8.5 -20
q0 -12 -8.5 -20.5t-20.5 -8.5h-365q-11 0 -20 8.5t-9 20.5q0 11 9 20t20 9h365z" />
    <glyph glyph-name="twosuperior" unicode="&#xb2;" horiz-adv-x="364" 
d="M54 310zM293.988 343.599q6.60059 0 11.7002 -5.09961t5.09961 -11.7002q0 -6.59961 -5.09961 -11.6992t-11.7002 -5.09961h-222.591q-6.59961 0 -11.6992 5.09961t-5.09961 11.6992q0 5.40039 4.2002 11.4004q5.99902 8.99902 22.499 28.498
q16.499 19.5 36.5977 42.5986q20.0996 23.0986 40.1992 45.5986q20.0986 22.499 33.8984 37.498q31.7988 34.7988 48.5977 66.2969q16.7998 31.499 16.7998 65.6973q0 37.7988 -20.6992 59.0977q-20.6992 21.2998 -62.6973 21.2998q-19.7998 0 -31.1992 -5.7002
q-11.3994 -5.69922 -19.1992 -14.0996q-7.19922 -8.39941 -12.5996 -20.0986q-5.39941 -11.7002 -10.1992 -30.8994q-1.7998 -6.59961 -5.40039 -11.3994q-3.59961 -4.7998 -11.3994 -4.7998q-6.59961 0 -11.6992 4.7998t-5.09961 17.3994v2.40039q0 1.19922 1.2002 6
q2.99902 14.3984 8.99902 29.6982t20.999 29.6992q18.5996 17.999 38.3984 24.2988q19.7998 6.2998 38.999 6.2998q25.1982 0 46.498 -8.09961q21.2988 -8.09961 37.1982 -23.0996q15.8994 -14.999 24.5986 -35.998q8.7002 -20.999 8.7002 -46.7988
q0 -21.5986 -6.2998 -41.6982q-6.2998 -20.0986 -16.499 -38.998q-10.2002 -18.8994 -23.6992 -37.1982q-13.5 -18.2998 -28.499 -35.6992q-31.7988 -37.7979 -60.8975 -67.1973q-29.0986 -29.3984 -52.498 -59.9971h189.592z" />
    <glyph glyph-name="threesuperior" unicode="&#xb3;" horiz-adv-x="364" 
d="M60 302zM213.592 537.99q18 -3.59961 34.499 -12.8994q16.499 -9.29883 29.0986 -23.6982t20.0996 -33.5986q7.49902 -19.1992 7.49902 -42.5986q0 -28.1992 -10.7998 -50.998q-10.7988 -22.7988 -28.498 -38.6982t-40.7988 -24.5986q-23.0986 -8.7002 -47.6982 -8.7002
q-25.7988 0 -47.998 9.2998q-22.1982 9.2998 -38.998 24.8984q-7.7998 7.2002 -13.1992 15q-5.40039 7.7998 -8.39941 14.999q-4.2002 9 -6 17.999q-1.7998 9 -1.7998 14.4004q0 11.3994 5.99902 14.999q6 3.59961 10.7998 3.59961q6.59961 0 11.0996 -5.09961
t5.7002 -11.6992q1.7998 -9 3.2998 -14.3994q1.5 -5.40039 2.69922 -9q1.2002 -3.59961 3 -6.2998t4.7998 -6.89941q10.2002 -14.3994 27.5996 -21.5996q17.3984 -7.19922 38.998 -7.19922q20.3994 0 38.0986 6.2998t30.8984 18.2988q13.1992 12 20.3994 29.0986
q7.19922 17.0996 7.19922 38.6992q0 25.7988 -9.59961 43.498t-23.3984 27.8984q-16.1992 12.5996 -36.2988 16.499q-20.0996 3.90039 -41.6982 5.7002q-9.59961 1.2002 -13.1992 6.59961q-3.60059 5.40039 -3.60059 10.1992q0 4.80078 3.2998 10.2002t13.5 6.59961
q16.7988 1.2002 28.1982 2.39941q11.4004 1.2002 19.7998 3.60059q8.39941 2.39941 14.999 6.2998q6.59961 3.89941 13.7998 11.0996q9.59961 8.99902 14.999 22.1992q5.40039 13.1992 5.40039 30.5986q0 18.5986 -6.59961 32.6982q-6.60059 14.0996 -18 23.0996
q-11.3994 8.99902 -25.7988 13.499t-29.3984 4.5q-13.7998 0 -27.8994 -3.60059q-14.0986 -3.59961 -24.2988 -10.7988q-14.3994 -10.2002 -18.2988 -21.8994q-3.90039 -11.6992 -6.2998 -18.8994q-3 -8.99902 -7.2002 -11.999q-4.19922 -3 -8.99902 -3
q-7.2002 0 -12.2998 4.7998t-5.09961 13.1992q0 4.2002 1.5 10.5t4.49902 12.8994q4.80078 10.1992 12 19.499t14.3994 15.8994q13.1992 11.999 31.7988 19.499q18.5986 7.5 42.5986 7.5q20.999 0 41.998 -6.59961t37.498 -19.7998q16.5 -13.1992 26.999 -32.998
q10.5 -19.7998 10.5 -46.7988q0 -20.999 -6.60059 -37.498q-6.59961 -16.499 -17.3984 -28.1992q-10.7998 -11.6992 -24.5996 -18.8994q-13.7988 -7.19922 -28.7988 -9.59961z" />
    <glyph glyph-name="acute" unicode="&#xb4;" horiz-adv-x="204" 
d="M117 755q10 19 29 19q12 0 22 -9.5t10 -23.5q0 -10 -6 -20l-109 -152q-6 -10 -17 -10q-8 0 -14 5.5t-6 14.5q0 6 3 12z" />
    <glyph glyph-name="uni00B5" unicode="&#xb5;" horiz-adv-x="549" 
d="M140 102q20 -25 52 -43.5t77 -18.5q59 0 88.5 35.5t29.5 102.5v297q0 11 8 19.5t20 8.5q11 0 19 -8.5t8 -19.5v-389q0 -24 14 -44q10 -10 10 -20q0 -12 -8.5 -19.5t-20.5 -7.5t-20 8t-15.5 23t-9.5 27q-14 -26 -47 -46t-75 -20q-38 0 -73.5 17.5t-56.5 46.5v-247
q0 -11 -8.5 -19t-19.5 -8q-12 0 -20 8t-8 19v671q0 11 8 19.5t20 8.5q11 0 19.5 -8.5t8.5 -19.5v-373z" />
    <glyph glyph-name="paragraph" unicode="&#xb6;" horiz-adv-x="526" 
d="M417 724q7 0 11 -4.5t4 -9.5v-690q0 -25 -26 -25q-27 0 -27 25v650h-103v-650q0 -25 -28 -25q-26 0 -26 25v364h-46q-108 0 -108 146v47q0 147 108 147h241z" />
    <glyph glyph-name="periodcentered" unicode="&#xb7;" horiz-adv-x="280" 
d="M99 294q0 17 12.5 29t29.5 12t29 -12t12 -29t-12 -29.5t-29 -12.5t-29.5 12.5t-12.5 29.5z" />
    <glyph glyph-name="cedilla" unicode="&#xb8;" horiz-adv-x="102" 
d="M40 -100q-9 6 -16.5 16t-7.5 25q0 14 8.5 25.5t26.5 11.5q17 0 26.5 -14t9.5 -47q0 -20 -3.5 -44.5t-9.5 -45.5t-15 -35.5t-20 -14.5q-7 0 -10 5t-3 10q0 10 0.5 11l1.5 3q6 18 9.5 35t3.5 38v10t-1 11z" />
    <glyph glyph-name="onesuperior" unicode="&#xb9;" horiz-adv-x="364" 
d="M95 307zM217.192 323.8q0 -6.60059 -4.5 -11.7002t-12.8994 -5.09961q-7.7998 0 -12 4.7998q-4.19922 4.7998 -4.19922 12v353.985q-12 -10.1992 -28.1992 -20.3994q-16.1992 -10.1992 -35.3984 -20.3994q-3.59961 -1.7998 -7.7998 -1.7998q-6.59961 0 -11.6992 5.09961
q-5.09961 5.10059 -5.09961 11.7002q0 10.1992 13.1992 16.1992t22.7988 11.3994t17.999 11.3994q8.40039 6 15.8994 14.0996q7.5 8.09961 15.8994 20.0996q3 4.79883 7.2002 8.99902q4.19922 4.2002 10.1992 4.2002q7.2002 0 12.8994 -5.7002
q5.7002 -5.69922 5.7002 -12.8994v-395.983z" />
    <glyph glyph-name="ordmasculine" unicode="&#xba;" horiz-adv-x="424" 
d="M205 633q-26 0 -46 -11.5t-34 -31t-21.5 -45.5t-7.5 -54q0 -29 7.5 -55t21.5 -46t34 -32t46 -12t46 12t33.5 32t20.5 46t7 55q0 28 -7 54t-20.5 45.5t-33.5 31t-46 11.5zM203 688q39 0 70 -15.5t52 -42t32 -62.5t11 -77t-11 -77.5t-32 -63.5t-52 -42.5t-70 -15.5
t-69 15.5t-50.5 42.5t-31 63t-10.5 78q0 41 10.5 77t31 62.5t50.5 42t69 15.5z" />
    <glyph glyph-name="guillemotright" unicode="&#xbb;" horiz-adv-x="370" 
d="M23 0zM186 249l-118 -243q-6 -11 -21 -11q-10 0 -17 7t-7 18q0 6 3 14l96 215l-96 215q-3 7 -3 14q0 11 7 18t17 7q15 0 21 -11zM346 249l-118 -243q-6 -11 -21 -11q-10 0 -17 7t-7 18q0 6 3 14l96 215l-96 215q-3 7 -3 14q0 11 7 18t17 7q15 0 21 -11z" />
    <glyph glyph-name="onequarter" unicode="&#xbc;" horiz-adv-x="797" 
d="M27 0zM149.192 323.8q0 -6.60059 -4.5 -11.7002t-12.8994 -5.09961q-7.7998 0 -12 4.7998q-4.19922 4.7998 -4.19922 12v353.985q-12 -10.1992 -28.1992 -20.3994q-16.1992 -10.1992 -35.3984 -20.3994q-3.59961 -1.7998 -7.7998 -1.7998q-6.59961 0 -11.6992 5.09961
q-5.09961 5.10059 -5.09961 11.7002q0 10.1992 13.1992 16.1992t22.7988 11.3994t17.999 11.3994q8.40039 6 15.8994 14.0996q7.5 8.09961 15.8994 20.0996q3 4.79883 7.2002 8.99902q4.19922 4.2002 10.1992 4.2002q7.2002 0 12.8994 -5.7002
q5.7002 -5.69922 5.7002 -12.8994v-395.983zM216 -19q-4 -10 -15 -10q-6 0 -11.5 4.5t-5.5 12.5l2 8l357 723q6 10 15 10q7 0 12 -4t5 -12q0 -5 -2 -9zM491.797 71.1943h149.994v108.596q0 6.59961 5.09961 11.6992q5.10059 5.10059 11.7002 5.10059t11.6992 -5.10059
q5.09961 -5.09961 5.09961 -11.6992v-108.596h40.1982q6.59961 0 11.7002 -5.09961q5.09961 -5.09961 5.09961 -11.6992t-5.09961 -11.3994q-5.10059 -4.7998 -11.7002 -4.7998h-40.1982v-86.3965q0 -6.60059 -4.7998 -11.7002t-11.999 -5.09961q-7.7998 0 -12.2998 5.09961
t-4.5 11.7002v86.3965h-173.992q-7.7998 0 -12.2998 5.39941t-4.5 13.7998q0 5.99902 3.59961 10.7988l162.594 289.188q4.2002 9 13.1992 9q7.7998 0 12.5996 -5.09961q4.7998 -5.10059 4.7998 -12.2998q0 -4.2002 -2.40039 -8.39941z" />
    <glyph glyph-name="onehalf" unicode="&#xbd;" horiz-adv-x="797" 
d="M20 0zM142.192 323.8q0 -6.60059 -4.5 -11.7002t-12.8994 -5.09961q-7.7998 0 -12 4.7998q-4.19922 4.7998 -4.19922 12v353.985q-12 -10.1992 -28.1992 -20.3994q-16.1992 -10.1992 -35.3984 -20.3994q-3.59961 -1.7998 -7.7998 -1.7998q-6.59961 0 -11.6992 5.09961
q-5.09961 5.10059 -5.09961 11.7002q0 10.1992 13.1992 16.1992t22.7988 11.3994t17.999 11.3994q8.40039 6 15.8994 14.0996q7.5 8.09961 15.8994 20.0996q3 4.79883 7.2002 8.99902q4.19922 4.2002 10.1992 4.2002q7.2002 0 12.8994 -5.7002
q5.7002 -5.69922 5.7002 -12.8994v-395.983zM214 -19q-4 -10 -15 -10q-6 0 -11.5 4.5t-5.5 12.5l2 8l357 723q6 10 15 10q7 0 12 -4t5 -12q0 -5 -2 -9zM720.988 -28.4014q6.60059 0 11.7002 -5.09961t5.09961 -11.7002q0 -6.59961 -5.09961 -11.6992t-11.7002 -5.09961
h-222.591q-6.59961 0 -11.6992 5.09961t-5.09961 11.6992q0 5.40039 4.2002 11.4004q5.99902 8.99902 22.499 28.498q16.499 19.5 36.5977 42.5986q20.0996 23.0986 40.1992 45.5986q20.0986 22.499 33.8984 37.498q31.7988 34.7988 48.5977 66.2969
q16.7998 31.499 16.7998 65.6973q0 37.7988 -20.6992 59.0977q-20.6992 21.2998 -62.6973 21.2998q-19.7998 0 -31.1992 -5.7002q-11.3994 -5.69922 -19.1992 -14.0996q-7.19922 -8.39941 -12.5996 -20.0986q-5.39941 -11.7002 -10.1992 -30.8994
q-1.7998 -6.59961 -5.40039 -11.3994q-3.59961 -4.7998 -11.3994 -4.7998q-6.59961 0 -11.6992 4.7998t-5.09961 17.3994v2.40039q0 1.19922 1.2002 6q2.99902 14.3984 8.99902 29.6982t20.999 29.6992q18.5996 17.999 38.3984 24.2988q19.7998 6.2998 38.999 6.2998
q25.1982 0 46.498 -8.09961q21.2988 -8.09961 37.1982 -23.0996q15.8994 -14.999 24.5986 -35.998q8.7002 -20.999 8.7002 -46.7988q0 -21.5986 -6.2998 -41.6982q-6.2998 -20.0986 -16.499 -38.998q-10.2002 -18.8994 -23.6992 -37.1982q-13.5 -18.2998 -28.499 -35.6992
q-31.7988 -37.7979 -60.8975 -67.1973q-29.0986 -29.3984 -52.498 -59.9971h189.592z" />
    <glyph glyph-name="threequarters" unicode="&#xbe;" horiz-adv-x="797" 
d="M52 0zM205.592 537.99q18 -3.59961 34.499 -12.8994q16.499 -9.29883 29.0986 -23.6982t20.0996 -33.5986q7.49902 -19.1992 7.49902 -42.5986q0 -28.1992 -10.7998 -50.998q-10.7988 -22.7988 -28.498 -38.6982t-40.7988 -24.5986q-23.0986 -8.7002 -47.6982 -8.7002
q-25.7988 0 -47.998 9.2998q-22.1982 9.2998 -38.998 24.8984q-7.7998 7.2002 -13.1992 15q-5.40039 7.7998 -8.39941 14.999q-4.2002 9 -6 17.999q-1.7998 9 -1.7998 14.4004q0 11.3994 5.99902 14.999q6 3.59961 10.7998 3.59961q6.59961 0 11.0996 -5.09961
t5.7002 -11.6992q1.7998 -9 3.2998 -14.3994q1.5 -5.40039 2.69922 -9q1.2002 -3.59961 3 -6.2998t4.7998 -6.89941q10.2002 -14.3994 27.5996 -21.5996q17.3984 -7.19922 38.998 -7.19922q20.3994 0 38.0986 6.2998t30.8984 18.2988q13.1992 12 20.3994 29.0986
q7.19922 17.0996 7.19922 38.6992q0 25.7988 -9.59961 43.498t-23.3984 27.8984q-16.1992 12.5996 -36.2988 16.499q-20.0996 3.90039 -41.6982 5.7002q-9.59961 1.2002 -13.1992 6.59961q-3.60059 5.40039 -3.60059 10.1992q0 4.80078 3.2998 10.2002t13.5 6.59961
q16.7988 1.2002 28.1982 2.39941q11.4004 1.2002 19.7998 3.60059q8.39941 2.39941 14.999 6.2998q6.59961 3.89941 13.7998 11.0996q9.59961 8.99902 14.999 22.1992q5.40039 13.1992 5.40039 30.5986q0 18.5986 -6.59961 32.6982q-6.60059 14.0996 -18 23.0996
q-11.3994 8.99902 -25.7988 13.499t-29.3984 4.5q-13.7998 0 -27.8994 -3.60059q-14.0986 -3.59961 -24.2988 -10.7988q-14.3994 -10.2002 -18.2988 -21.8994q-3.90039 -11.6992 -6.2998 -18.8994q-3 -8.99902 -7.2002 -11.999q-4.19922 -3 -8.99902 -3
q-7.2002 0 -12.2998 4.7998t-5.09961 13.1992q0 4.2002 1.5 10.5t4.49902 12.8994q4.80078 10.1992 12 19.499t14.3994 15.8994q13.1992 11.999 31.7988 19.499q18.5986 7.5 42.5986 7.5q20.999 0 41.998 -6.59961t37.498 -19.7998q16.5 -13.1992 26.999 -32.998
q10.5 -19.7998 10.5 -46.7988q0 -20.999 -6.60059 -37.498q-6.59961 -16.499 -17.3984 -28.1992q-10.7998 -11.6992 -24.5996 -18.8994q-13.7988 -7.19922 -28.7988 -9.59961zM249 -19q-4 -10 -15 -10q-6 0 -11.5 4.5t-5.5 12.5l2 8l357 723q6 10 15 10q7 0 12 -4t5 -12
q0 -5 -2 -9zM520.797 71.1943h149.994v108.596q0 6.59961 5.09961 11.6992q5.10059 5.10059 11.7002 5.10059t11.6992 -5.10059q5.09961 -5.09961 5.09961 -11.6992v-108.596h40.1982q6.59961 0 11.7002 -5.09961q5.09961 -5.09961 5.09961 -11.6992t-5.09961 -11.3994
q-5.10059 -4.7998 -11.7002 -4.7998h-40.1982v-86.3965q0 -6.60059 -4.7998 -11.7002t-11.999 -5.09961q-7.7998 0 -12.2998 5.09961t-4.5 11.7002v86.3965h-173.992q-7.7998 0 -12.2998 5.39941t-4.5 13.7998q0 5.99902 3.59961 10.7988l162.594 289.188
q4.2002 9 13.1992 9q7.7998 0 12.5996 -5.09961q4.7998 -5.10059 4.7998 -12.2998q0 -4.2002 -2.40039 -8.39941z" />
    <glyph glyph-name="questiondown" unicode="&#xbf;" horiz-adv-x="529" 
d="M411 -92q-22 -27 -65 -45t-90 -18q-35 0 -67.5 11.5t-57.5 34t-39.5 56.5t-14.5 79q0 32 7.5 57.5t20.5 47t30 41.5t36 40q22 24 37 40.5t23 31t11.5 28.5t3.5 34q0 10 -0.5 29.5t-0.5 35.5q0 5 5.5 15.5t22.5 10.5q6 0 12.5 -4t9.5 -22q2 -11 2.5 -21t0.5 -24
q0 -35 -5 -60t-15.5 -46t-27 -41t-39.5 -45q-15 -17 -29 -33t-24.5 -34t-16.5 -38t-6 -45q0 -57 33.5 -89t98.5 -32q30 0 55.5 8.5t43.5 30.5q5 7 11 11.5t14 4.5q12 0 20.5 -9t8.5 -20t-9 -21zM269 515q-17 0 -29 12.5t-12 29.5t12 29t29 12t29.5 -12t12.5 -29t-12.5 -29.5
t-29.5 -12.5z" />
    <glyph glyph-name="Agrave" unicode="&#xc0;" horiz-adv-x="543" 
d="M9 0zM533 36q1 -4 1.5 -7t0.5 -6q0 -11 -9 -19.5t-20 -8.5q-10 0 -17.5 6t-10.5 15l-60 173h-293l-59 -173q-3 -9 -10.5 -15t-17.5 -6q-11 0 -20 8.5t-9 21.5q0 6 3 14l232 671q3 8 11 14t17 6t17 -6t11 -14zM145 247h253l-127 374zM314 800q3 -6 3 -11q0 -9 -6 -14
t-14 -5q-11 0 -17 9l-109 142q-6 9 -6 18q0 14 10 22.5t22 8.5q18 0 29 -18z" />
    <glyph glyph-name="Aacute" unicode="&#xc1;" horiz-adv-x="543" 
d="M9 0zM533 36q1 -4 1.5 -7t0.5 -6q0 -11 -9 -19.5t-20 -8.5q-10 0 -17.5 6t-10.5 15l-60 173h-293l-59 -173q-3 -9 -10.5 -15t-17.5 -6q-11 0 -20 8.5t-9 21.5q0 6 3 14l232 671q3 8 11 14t17 6t17 -6t11 -14zM145 247h253l-127 374zM316 952q10 18 29 18q12 0 22 -8.5
t10 -22.5q0 -9 -6 -18l-109 -142q-6 -9 -17 -9q-8 0 -14 5t-6 14q0 5 3 11z" />
    <glyph glyph-name="Acircumflex" unicode="&#xc2;" horiz-adv-x="543" 
d="M9 0zM533 36q1 -4 1.5 -7t0.5 -6q0 -11 -9 -19.5t-20 -8.5q-10 0 -17.5 6t-10.5 15l-60 173h-293l-59 -173q-3 -9 -10.5 -15t-17.5 -6q-11 0 -20 8.5t-9 21.5q0 6 3 14l232 671q3 8 11 14t17 6t17 -6t11 -14zM145 247h253l-127 374zM228 944q16 26 43 26t43 -26l91 -144
q3 -6 3 -11q0 -8 -5.5 -13.5t-13.5 -5.5q-10 0 -19 10l-99 130l-99 -130q-9 -10 -19 -10q-8 0 -13.5 5.5t-5.5 13.5q0 5 3 11z" />
    <glyph glyph-name="Atilde" unicode="&#xc3;" horiz-adv-x="543" 
d="M9 0zM533 36q1 -4 1.5 -7t0.5 -6q0 -11 -9 -19.5t-20 -8.5q-10 0 -17.5 6t-10.5 15l-60 173h-293l-59 -173q-3 -9 -10.5 -15t-17.5 -6q-11 0 -20 8.5t-9 21.5q0 6 3 14l232 671q3 8 11 14t17 6t17 -6t11 -14zM145 247h253l-127 374zM123 899q7 11 21.5 21t38.5 10
q18 0 41 -6.5t47 -15t46.5 -15t39.5 -6.5q20 0 29 11q4 5 7 13t4 10q4 10 18 10q17 0 17 -19q0 -8 -3 -20t-9 -22q-7 -11 -21.5 -20.5t-38.5 -9.5q-18 0 -41 6.5t-47 14.5t-47 14.5t-39 6.5q-21 0 -29 -11q-4 -5 -7 -12.5t-4 -9.5q-4 -10 -18 -10q-17 0 -17 18q0 9 3 20.5
t9 21.5z" />
    <glyph glyph-name="Adieresis" unicode="&#xc4;" horiz-adv-x="543" 
d="M9 0zM533 36q1 -4 1.5 -7t0.5 -6q0 -11 -9 -19.5t-20 -8.5q-10 0 -17.5 6t-10.5 15l-60 173h-293l-59 -173q-3 -9 -10.5 -15t-17.5 -6q-11 0 -20 8.5t-9 21.5q0 6 3 14l232 671q3 8 11 14t17 6t17 -6t11 -14zM145 247h253l-127 374zM364 930q14 0 23.5 -9.5t9.5 -23.5
t-9.5 -23.5t-23.5 -9.5t-23.5 9.5t-9.5 23.5t9.5 23.5t23.5 9.5zM178 930q14 0 23.5 -9.5t9.5 -23.5t-9.5 -23.5t-23.5 -9.5t-23.5 9.5t-9.5 23.5t9.5 23.5t23.5 9.5z" />
    <glyph glyph-name="Aring" unicode="&#xc5;" horiz-adv-x="543" 
d="M9 0zM533 36q1 -4 1.5 -7t0.5 -6q0 -11 -9 -19.5t-20 -8.5q-10 0 -17.5 6t-10.5 15l-60 173h-293l-59 -173q-3 -9 -10.5 -15t-17.5 -6q-11 0 -20 8.5t-9 21.5q0 6 3 14l232 671q3 8 11 14t17 6t17 -6t11 -14zM145 247h253l-127 374zM271 970q38 0 62 -24.5t24 -62.5
t-24.5 -62t-61.5 -24t-61.5 24t-24.5 62t24 62.5t62 24.5zM220 884q0 -21 14.5 -36t35.5 -15q22 0 36.5 15t14.5 36q0 22 -14.5 35.5t-36.5 13.5q-21 0 -35.5 -13.5t-14.5 -35.5z" />
    <glyph glyph-name="AE" unicode="&#xc6;" horiz-adv-x="853" 
d="M756 724q12 0 20.5 -8.5t8.5 -20.5q0 -11 -8.5 -20t-20.5 -9h-316v-259h271q11 0 20 -9t9 -20q0 -12 -9 -20.5t-20 -8.5h-271v-291h316q12 0 20.5 -9t8.5 -20q0 -12 -8.5 -20.5t-20.5 -8.5h-345q-12 0 -20.5 8.5t-8.5 20.5v160h-258l-59 -173q-3 -9 -10.5 -15t-17.5 -6
q-11 0 -20 8.5t-9 21.5q0 6 3 14l230 664q3 9 11 15t17 6h487zM144 247h238v419h-95z" />
    <glyph glyph-name="Ccedilla" unicode="&#xc7;" horiz-adv-x="642" 
d="M63 0zM352 737q40 0 73.5 -7.5t62 -24t53.5 -42.5t48 -62q5 -8 5 -18q0 -11 -8.5 -20t-20.5 -9q-16 0 -23 13q-29 60 -76 86t-113 26q-55 0 -98 -24t-73 -66.5t-45.5 -101t-15.5 -127.5q0 -68 14.5 -126t44 -100t73.5 -66t103 -24q24 0 50.5 6.5t50.5 19.5t43.5 32
t28.5 45q3 9 11 16t19 7t20 -9t9 -20q0 -2 -2 -12q-11 -33 -35.5 -59.5t-56.5 -45t-68.5 -28t-71.5 -9.5q-68 0 -121.5 27t-91.5 76t-58 118t-20 153q0 81 20.5 150t58.5 119.5t91 78.5t119 28zM349 -100q-9 6 -16.5 16t-7.5 25q0 14 8.5 25.5t26.5 11.5q17 0 26.5 -14
t9.5 -47q0 -20 -3.5 -44.5t-9.5 -45.5t-15 -35.5t-20 -14.5q-7 0 -10 5t-3 10q0 10 0.5 11l1.5 3q6 18 9.5 35t3.5 38v10t-1 11z" />
    <glyph glyph-name="Egrave" unicode="&#xc8;" horiz-adv-x="569" 
d="M98 0zM473 724q11 0 20 -8.5t9 -20.5q0 -11 -9 -20t-20 -9h-317v-259h271q12 0 20.5 -9t8.5 -20q0 -12 -8.5 -20.5t-20.5 -8.5h-271v-291h317q11 0 20 -9t9 -20q0 -12 -9 -20.5t-20 -8.5h-346q-11 0 -20 8.5t-9 20.5v666q0 12 9 20.5t20 8.5h346zM347 800q3 -6 3 -11
q0 -9 -6 -14t-14 -5q-11 0 -17 9l-109 142q-6 9 -6 18q0 14 10 22.5t22 8.5q18 0 29 -18z" />
    <glyph glyph-name="Eacute" unicode="&#xc9;" horiz-adv-x="569" 
d="M98 0zM473 724q11 0 20 -8.5t9 -20.5q0 -11 -9 -20t-20 -9h-317v-259h271q12 0 20.5 -9t8.5 -20q0 -12 -8.5 -20.5t-20.5 -8.5h-271v-291h317q11 0 20 -9t9 -20q0 -12 -9 -20.5t-20 -8.5h-346q-11 0 -20 8.5t-9 20.5v666q0 12 9 20.5t20 8.5h346zM349 952q10 18 29 18
q12 0 22 -8.5t10 -22.5q0 -9 -6 -18l-109 -142q-6 -9 -17 -9q-8 0 -14 5t-6 14q0 5 3 11z" />
    <glyph glyph-name="Ecircumflex" unicode="&#xca;" horiz-adv-x="569" 
d="M98 0zM473 724q11 0 20 -8.5t9 -20.5q0 -11 -9 -20t-20 -9h-317v-259h271q12 0 20.5 -9t8.5 -20q0 -12 -8.5 -20.5t-20.5 -8.5h-271v-291h317q11 0 20 -9t9 -20q0 -12 -9 -20.5t-20 -8.5h-346q-11 0 -20 8.5t-9 20.5v666q0 12 9 20.5t20 8.5h346zM261 944q16 26 43 26
t43 -26l91 -144q3 -6 3 -11q0 -8 -5.5 -13.5t-13.5 -5.5q-10 0 -19 10l-99 130l-99 -130q-9 -10 -19 -10q-8 0 -13.5 5.5t-5.5 13.5q0 5 3 11z" />
    <glyph glyph-name="Edieresis" unicode="&#xcb;" horiz-adv-x="569" 
d="M98 0zM473 724q11 0 20 -8.5t9 -20.5q0 -11 -9 -20t-20 -9h-317v-259h271q12 0 20.5 -9t8.5 -20q0 -12 -8.5 -20.5t-20.5 -8.5h-271v-291h317q11 0 20 -9t9 -20q0 -12 -9 -20.5t-20 -8.5h-346q-11 0 -20 8.5t-9 20.5v666q0 12 9 20.5t20 8.5h346zM397 930q14 0 23.5 -9.5
t9.5 -23.5t-9.5 -23.5t-23.5 -9.5t-23.5 9.5t-9.5 23.5t9.5 23.5t23.5 9.5zM211 930q14 0 23.5 -9.5t9.5 -23.5t-9.5 -23.5t-23.5 -9.5t-23.5 9.5t-9.5 23.5t9.5 23.5t23.5 9.5z" />
    <glyph glyph-name="Igrave" unicode="&#xcc;" horiz-adv-x="254" 
d="M21 0zM156 24q0 -12 -9 -20.5t-20 -8.5q-12 0 -20.5 8.5t-8.5 20.5v677q0 12 8.5 20.5t20.5 8.5q11 0 20 -8.5t9 -20.5v-677zM170 800q3 -6 3 -11q0 -9 -6 -14t-14 -5q-11 0 -17 9l-109 142q-6 9 -6 18q0 14 10 22.5t22 8.5q18 0 29 -18z" />
    <glyph glyph-name="Iacute" unicode="&#xcd;" horiz-adv-x="254" 
d="M81 0zM156 24q0 -12 -9 -20.5t-20 -8.5q-12 0 -20.5 8.5t-8.5 20.5v677q0 12 8.5 20.5t20.5 8.5q11 0 20 -8.5t9 -20.5v-677zM172 952q10 18 29 18q12 0 22 -8.5t10 -22.5q0 -9 -6 -18l-109 -142q-6 -9 -17 -9q-8 0 -14 5t-6 14q0 5 3 11z" />
    <glyph glyph-name="Icircumflex" unicode="&#xce;" horiz-adv-x="274" 
d="M0 0zM166 24q0 -12 -9 -20.5t-20 -8.5q-12 0 -20.5 8.5t-8.5 20.5v677q0 12 8.5 20.5t20.5 8.5q11 0 20 -8.5t9 -20.5v-677zM94 944q16 26 43 26t43 -26l91 -144q3 -6 3 -11q0 -8 -5.5 -13.5t-13.5 -5.5q-10 0 -19 10l-99 130l-99 -130q-9 -10 -19 -10q-8 0 -13.5 5.5
t-5.5 13.5q0 5 3 11z" />
    <glyph glyph-name="Idieresis" unicode="&#xcf;" horiz-adv-x="254" 
d="M1 0zM156 24q0 -12 -9 -20.5t-20 -8.5q-12 0 -20.5 8.5t-8.5 20.5v677q0 12 8.5 20.5t20.5 8.5q11 0 20 -8.5t9 -20.5v-677zM220 930q14 0 23.5 -9.5t9.5 -23.5t-9.5 -23.5t-23.5 -9.5t-23.5 9.5t-9.5 23.5t9.5 23.5t23.5 9.5zM34 930q14 0 23.5 -9.5t9.5 -23.5
t-9.5 -23.5t-23.5 -9.5t-23.5 9.5t-9.5 23.5t9.5 23.5t23.5 9.5z" />
    <glyph glyph-name="Eth" unicode="&#xd0;" horiz-adv-x="668" 
d="M278 724q74 0 134 -22t102 -67t65 -114t23 -163q0 -92 -22 -159t-64 -111.5t-102 -66t-136 -21.5h-155q-11 0 -20 8.5t-9 20.5v320h-39q-11 0 -20 8.5t-9 20.5q0 11 9 20t20 9h39v288q0 12 9 20.5t20 8.5h155zM152 407h166q11 0 20 -9t9 -20q0 -12 -9 -20.5t-20 -8.5
h-166v-291h77q80 0 139.5 14.5t98.5 49.5t58 93t19 145q0 89 -19.5 147.5t-58 93.5t-95 49.5t-130.5 14.5h-89v-258z" />
    <glyph glyph-name="Ntilde" unicode="&#xd1;" horiz-adv-x="703" 
d="M98 0zM547 109v592q0 12 9 20.5t20 8.5q12 0 20.5 -8.5t8.5 -20.5v-678q0 -12 -8.5 -20t-22.5 -8q-11 0 -18 4.5t-11 10.5l-389 607v-593q0 -12 -8.5 -20.5t-20.5 -8.5q-11 0 -20 8.5t-9 20.5v678q0 12 9 20t22 8q11 0 18 -4.5t11 -10.5zM203 899q7 11 21.5 21t38.5 10
q18 0 41 -6.5t47 -15t46.5 -15t39.5 -6.5q20 0 29 11q4 5 7 13t4 10q4 10 18 10q17 0 17 -19q0 -8 -3 -20t-9 -22q-7 -11 -21.5 -20.5t-38.5 -9.5q-18 0 -41 6.5t-47 14.5t-47 14.5t-39 6.5q-21 0 -29 -11q-4 -5 -7 -12.5t-4 -9.5q-4 -10 -18 -10q-17 0 -17 18q0 9 3 20.5
t9 21.5z" />
    <glyph glyph-name="Ograve" unicode="&#xd2;" horiz-adv-x="728" 
d="M69 0zM363 737q66 0 120.5 -25.5t93.5 -74t60.5 -118.5t21.5 -158t-21.5 -157.5t-60 -117.5t-93 -73.5t-120.5 -25.5t-120.5 25.5t-93 74t-60 118t-21.5 157.5t21.5 157.5t60 118t92.5 74t120 25.5zM364 679q-57 0 -101.5 -23.5t-74.5 -65.5t-45.5 -100.5t-15.5 -128.5
q0 -71 15.5 -129t45.5 -100t74.5 -65t101.5 -23t101.5 23t74.5 65t45.5 100t15.5 129t-15.5 129.5t-45.5 100.5t-74.5 65t-101.5 23zM407 800q3 -6 3 -11q0 -9 -6 -14t-14 -5q-11 0 -17 9l-109 142q-6 9 -6 18q0 14 10 22.5t22 8.5q18 0 29 -18z" />
    <glyph glyph-name="Oacute" unicode="&#xd3;" horiz-adv-x="728" 
d="M69 0zM363 737q66 0 120.5 -25.5t93.5 -74t60.5 -118.5t21.5 -158t-21.5 -157.5t-60 -117.5t-93 -73.5t-120.5 -25.5t-120.5 25.5t-93 74t-60 118t-21.5 157.5t21.5 157.5t60 118t92.5 74t120 25.5zM364 679q-57 0 -101.5 -23.5t-74.5 -65.5t-45.5 -100.5t-15.5 -128.5
q0 -71 15.5 -129t45.5 -100t74.5 -65t101.5 -23t101.5 23t74.5 65t45.5 100t15.5 129t-15.5 129.5t-45.5 100.5t-74.5 65t-101.5 23zM409 952q10 18 29 18q12 0 22 -8.5t10 -22.5q0 -9 -6 -18l-109 -142q-6 -9 -17 -9q-8 0 -14 5t-6 14q0 5 3 11z" />
    <glyph glyph-name="Ocircumflex" unicode="&#xd4;" horiz-adv-x="728" 
d="M69 0zM363 737q66 0 120.5 -25.5t93.5 -74t60.5 -118.5t21.5 -158t-21.5 -157.5t-60 -117.5t-93 -73.5t-120.5 -25.5t-120.5 25.5t-93 74t-60 118t-21.5 157.5t21.5 157.5t60 118t92.5 74t120 25.5zM364 679q-57 0 -101.5 -23.5t-74.5 -65.5t-45.5 -100.5t-15.5 -128.5
q0 -71 15.5 -129t45.5 -100t74.5 -65t101.5 -23t101.5 23t74.5 65t45.5 100t15.5 129t-15.5 129.5t-45.5 100.5t-74.5 65t-101.5 23zM321 944q16 26 43 26t43 -26l91 -144q3 -6 3 -11q0 -8 -5.5 -13.5t-13.5 -5.5q-10 0 -19 10l-99 130l-99 -130q-9 -10 -19 -10
q-8 0 -13.5 5.5t-5.5 13.5q0 5 3 11z" />
    <glyph glyph-name="Otilde" unicode="&#xd5;" horiz-adv-x="728" 
d="M69 0zM363 737q66 0 120.5 -25.5t93.5 -74t60.5 -118.5t21.5 -158t-21.5 -157.5t-60 -117.5t-93 -73.5t-120.5 -25.5t-120.5 25.5t-93 74t-60 118t-21.5 157.5t21.5 157.5t60 118t92.5 74t120 25.5zM364 679q-57 0 -101.5 -23.5t-74.5 -65.5t-45.5 -100.5t-15.5 -128.5
q0 -71 15.5 -129t45.5 -100t74.5 -65t101.5 -23t101.5 23t74.5 65t45.5 100t15.5 129t-15.5 129.5t-45.5 100.5t-74.5 65t-101.5 23zM215 899q7 11 21.5 21t38.5 10q18 0 41 -6.5t47 -15t46.5 -15t39.5 -6.5q20 0 29 11q4 5 7 13t4 10q4 10 18 10q17 0 17 -19q0 -8 -3 -20
t-9 -22q-7 -11 -21.5 -20.5t-38.5 -9.5q-18 0 -41 6.5t-47 14.5t-47 14.5t-39 6.5q-21 0 -29 -11q-4 -5 -7 -12.5t-4 -9.5q-4 -10 -18 -10q-17 0 -17 18q0 9 3 20.5t9 21.5z" />
    <glyph glyph-name="Odieresis" unicode="&#xd6;" horiz-adv-x="728" 
d="M69 0zM363 737q66 0 120.5 -25.5t93.5 -74t60.5 -118.5t21.5 -158t-21.5 -157.5t-60 -117.5t-93 -73.5t-120.5 -25.5t-120.5 25.5t-93 74t-60 118t-21.5 157.5t21.5 157.5t60 118t92.5 74t120 25.5zM364 679q-57 0 -101.5 -23.5t-74.5 -65.5t-45.5 -100.5t-15.5 -128.5
q0 -71 15.5 -129t45.5 -100t74.5 -65t101.5 -23t101.5 23t74.5 65t45.5 100t15.5 129t-15.5 129.5t-45.5 100.5t-74.5 65t-101.5 23zM457 930q14 0 23.5 -9.5t9.5 -23.5t-9.5 -23.5t-23.5 -9.5t-23.5 9.5t-9.5 23.5t9.5 23.5t23.5 9.5zM271 930q14 0 23.5 -9.5t9.5 -23.5
t-9.5 -23.5t-23.5 -9.5t-23.5 9.5t-9.5 23.5t9.5 23.5t23.5 9.5z" />
    <glyph glyph-name="multiply" unicode="&#xd7;" horiz-adv-x="549" 
d="M275 336l108 109q8 8 20 8t20.5 -8.5t8.5 -20.5q0 -10 -8 -21l-108 -107l109 -110q7 -7 7 -20t-8 -20.5t-20 -7.5t-20 8l-109 108l-109 -108q-8 -8 -21 -8q-12 0 -20 8t-8 20t8 20l109 110l-109 107q-8 11 -8 21q0 13 8 21t21 8q10 0 21 -8z" />
    <glyph glyph-name="Oslash" unicode="&#xd8;" horiz-adv-x="728" 
d="M609 737q6 9 16 9q9 0 15.5 -6.5t6.5 -15.5q0 -7 -5 -12l-60 -83q37 -48 57 -115t20 -152q0 -88 -21.5 -157.5t-60.5 -118t-93.5 -74t-120.5 -25.5q-115 0 -189 74l-56 -78q-8 -9 -17 -9q-8 0 -14 5.5t-6 16.5q0 8 4 12l61 85q-37 48 -57 115t-20 154q0 88 21.5 157.5
t60 118t92.5 74t120 25.5q58 0 106 -19.5t85 -56.5zM521 613q-60 66 -157 66q-57 0 -101.5 -23.5t-74.5 -65.5t-45.5 -100.5t-15.5 -128.5q0 -133 54 -219zM208 108q29 -31 68 -47.5t88 -16.5q57 0 101.5 23t74.5 65t45.5 100t15.5 128q0 133 -54 219z" />
    <glyph glyph-name="Ugrave" unicode="&#xd9;" horiz-adv-x="663" 
d="M94 0zM152 239q0 -94 47.5 -144.5t131.5 -50.5q85 0 133 51t48 144v462q0 12 8.5 20.5t19.5 8.5q12 0 20.5 -8.5t8.5 -20.5v-464q0 -56 -15.5 -102t-46.5 -79t-76 -51t-103 -18q-60 0 -104 19.5t-73 55.5t-43 87.5t-14 115.5v436q0 12 9 20.5t20 8.5q12 0 20.5 -8.5
t8.5 -20.5v-462zM374 800q3 -6 3 -11q0 -9 -6 -14t-14 -5q-11 0 -17 9l-109 142q-6 9 -6 18q0 14 10 22.5t22 8.5q18 0 29 -18z" />
    <glyph glyph-name="Uacute" unicode="&#xda;" horiz-adv-x="663" 
d="M94 0zM152 239q0 -94 47.5 -144.5t131.5 -50.5q85 0 133 51t48 144v462q0 12 8.5 20.5t19.5 8.5q12 0 20.5 -8.5t8.5 -20.5v-464q0 -56 -15.5 -102t-46.5 -79t-76 -51t-103 -18q-60 0 -104 19.5t-73 55.5t-43 87.5t-14 115.5v436q0 12 9 20.5t20 8.5q12 0 20.5 -8.5
t8.5 -20.5v-462zM376 952q10 18 29 18q12 0 22 -8.5t10 -22.5q0 -9 -6 -18l-109 -142q-6 -9 -17 -9q-8 0 -14 5t-6 14q0 5 3 11z" />
    <glyph glyph-name="Ucircumflex" unicode="&#xdb;" horiz-adv-x="663" 
d="M94 0zM152 239q0 -94 47.5 -144.5t131.5 -50.5q85 0 133 51t48 144v462q0 12 8.5 20.5t19.5 8.5q12 0 20.5 -8.5t8.5 -20.5v-464q0 -56 -15.5 -102t-46.5 -79t-76 -51t-103 -18q-60 0 -104 19.5t-73 55.5t-43 87.5t-14 115.5v436q0 12 9 20.5t20 8.5q12 0 20.5 -8.5
t8.5 -20.5v-462zM288 944q16 26 43 26t43 -26l91 -144q3 -6 3 -11q0 -8 -5.5 -13.5t-13.5 -5.5q-10 0 -19 10l-99 130l-99 -130q-9 -10 -19 -10q-8 0 -13.5 5.5t-5.5 13.5q0 5 3 11z" />
    <glyph glyph-name="Udieresis" unicode="&#xdc;" horiz-adv-x="663" 
d="M94 0zM152 239q0 -94 47.5 -144.5t131.5 -50.5q85 0 133 51t48 144v462q0 12 8.5 20.5t19.5 8.5q12 0 20.5 -8.5t8.5 -20.5v-464q0 -56 -15.5 -102t-46.5 -79t-76 -51t-103 -18q-60 0 -104 19.5t-73 55.5t-43 87.5t-14 115.5v436q0 12 9 20.5t20 8.5q12 0 20.5 -8.5
t8.5 -20.5v-462zM424 930q14 0 23.5 -9.5t9.5 -23.5t-9.5 -23.5t-23.5 -9.5t-23.5 9.5t-9.5 23.5t9.5 23.5t23.5 9.5zM238 930q14 0 23.5 -9.5t9.5 -23.5t-9.5 -23.5t-23.5 -9.5t-23.5 9.5t-9.5 23.5t9.5 23.5t23.5 9.5z" />
    <glyph glyph-name="Yacute" unicode="&#xdd;" horiz-adv-x="514" 
d="M8 0zM259 380l191 332q4 7 10.5 12.5t16.5 5.5q11 0 20 -8.5t9 -20.5q0 -5 -2 -9l-4 -8l-217 -361v-299q0 -12 -7.5 -20.5t-21.5 -8.5q-11 0 -19.5 8.5t-8.5 20.5v297l-214 366q-4 4 -4 14q0 12 9 20.5t20 8.5q16 0 27 -18zM303 952q10 18 29 18q12 0 22 -8.5t10 -22.5
q0 -9 -6 -18l-109 -142q-6 -9 -17 -9q-8 0 -14 5t-6 14q0 5 3 11z" />
    <glyph glyph-name="Thorn" unicode="&#xde;" horiz-adv-x="547" 
d="M161 584h120q48 0 89.5 -9t73 -32t49.5 -61.5t18 -96.5q0 -57 -17 -96t-46.5 -62.5t-68.5 -33.5t-82 -10h-136v-159q0 -12 -8.5 -20.5t-20.5 -8.5q-11 0 -20 8.5t-9 20.5v677q0 12 9 20.5t20 8.5q12 0 20.5 -8.5t8.5 -20.5v-117zM161 241h140q31 0 59 8t48.5 25.5
t32.5 44.5t12 65t-12 65t-32.5 44t-48.5 25t-60 8h-139v-285z" />
    <glyph glyph-name="germandbls" unicode="&#xdf;" horiz-adv-x="557" 
d="M146 22q0 -12 -8.5 -19.5t-19.5 -7.5q-12 0 -20 7.5t-8 19.5v530q0 42 8.5 79t27 64.5t49 44t75.5 16.5q34 0 63.5 -9.5t51.5 -27.5t34.5 -44t12.5 -58q0 -42 -22 -83q-11 -21 -23.5 -35t-25.5 -31q-11 -15 -16 -26t-5 -25q0 -12 4 -20.5t11.5 -16t19 -15.5t26.5 -18
q36 -25 58 -42t32 -27q20 -20 31.5 -48.5t11.5 -67.5q0 -41 -12.5 -73t-34 -55t-51 -35t-63.5 -12q-51 0 -87 23.5t-50 52.5q-5 8 -5 18q0 11 7.5 19.5t21.5 8.5q11 0 16 -5.5t9 -13.5q10 -18 27.5 -33.5t55.5 -15.5q48 0 79 29.5t31 85.5q0 25 -6.5 42.5t-18.5 34.5
q-14 19 -30.5 31.5t-43.5 30.5q-18 12 -35.5 24t-30.5 26t-21 31t-8 39q0 20 6.5 35.5t17.5 32.5q14 20 24.5 33t23.5 35q10 17 15 31t5 31q0 42 -30 65t-74 23q-32 0 -52.5 -12t-32.5 -32.5t-16.5 -48.5t-4.5 -61v-525z" />
    <glyph glyph-name="agrave" unicode="&#xe0;" horiz-adv-x="467" 
d="M41 0zM386 86q0 -24 14 -44q10 -9 10 -20q0 -12 -8.5 -19.5t-20.5 -7.5t-20 8q-10 9 -15.5 23.5t-8.5 31.5q-19 -27 -58 -49t-96 -22q-30 0 -56 7.5t-45 24t-30 41.5t-11 60q0 60 30 93.5t78 45.5q19 5 42 7.5t47 5l48 5t44 7.5v66q0 53 -23.5 79t-80.5 26
q-30 0 -60 -11.5t-47 -48.5q-4 -9 -9.5 -15t-16.5 -6q-13 0 -21 8t-8 20t8 27t17 26q23 28 59.5 41.5t83.5 13.5q32 0 60 -7.5t49 -25.5t33 -49t12 -78v-264zM330 233q-18 -5 -39.5 -8t-44 -6t-43.5 -6t-36 -7q-30 -8 -50 -28.5t-20 -59.5q0 -44 25 -60.5t65 -16.5
q95 0 143 79v113zM276 591q3 -6 3 -12q0 -9 -6 -14.5t-14 -5.5q-11 0 -17 10l-109 152q-6 10 -6 20q0 14 10 23.5t22 9.5q19 0 29 -19z" />
    <glyph glyph-name="aacute" unicode="&#xe1;" horiz-adv-x="467" 
d="M41 0zM386 86q0 -24 14 -44q10 -9 10 -20q0 -12 -8.5 -19.5t-20.5 -7.5t-20 8q-10 9 -15.5 23.5t-8.5 31.5q-19 -27 -58 -49t-96 -22q-30 0 -56 7.5t-45 24t-30 41.5t-11 60q0 60 30 93.5t78 45.5q19 5 42 7.5t47 5l48 5t44 7.5v66q0 53 -23.5 79t-80.5 26
q-30 0 -60 -11.5t-47 -48.5q-4 -9 -9.5 -15t-16.5 -6q-13 0 -21 8t-8 20t8 27t17 26q23 28 59.5 41.5t83.5 13.5q32 0 60 -7.5t49 -25.5t33 -49t12 -78v-264zM330 233q-18 -5 -39.5 -8t-44 -6t-43.5 -6t-36 -7q-30 -8 -50 -28.5t-20 -59.5q0 -44 25 -60.5t65 -16.5
q95 0 143 79v113zM278 755q10 19 29 19q12 0 22 -9.5t10 -23.5q0 -10 -6 -20l-109 -152q-6 -10 -17 -10q-8 0 -14 5.5t-6 14.5q0 6 3 12z" />
    <glyph glyph-name="acircumflex" unicode="&#xe2;" horiz-adv-x="467" 
d="M41 0zM386 86q0 -24 14 -44q10 -9 10 -20q0 -12 -8.5 -19.5t-20.5 -7.5t-20 8q-10 9 -15.5 23.5t-8.5 31.5q-19 -27 -58 -49t-96 -22q-30 0 -56 7.5t-45 24t-30 41.5t-11 60q0 60 30 93.5t78 45.5q19 5 42 7.5t47 5l48 5t44 7.5v66q0 53 -23.5 79t-80.5 26
q-30 0 -60 -11.5t-47 -48.5q-4 -9 -9.5 -15t-16.5 -6q-13 0 -21 8t-8 20t8 27t17 26q23 28 59.5 41.5t83.5 13.5q32 0 60 -7.5t49 -25.5t33 -49t12 -78v-264zM330 233q-18 -5 -39.5 -8t-44 -6t-43.5 -6t-36 -7q-30 -8 -50 -28.5t-20 -59.5q0 -44 25 -60.5t65 -16.5
q95 0 143 79v113zM190 746q16 28 43 28t43 -28l91 -155q3 -6 3 -12q0 -8 -5.5 -14t-13.5 -6q-11 0 -19 11l-99 140l-99 -140q-8 -11 -19 -11q-8 0 -13.5 6t-5.5 14q0 6 3 12z" />
    <glyph glyph-name="atilde" unicode="&#xe3;" horiz-adv-x="467" 
d="M41 0zM386 86q0 -24 14 -44q10 -9 10 -20q0 -12 -8.5 -19.5t-20.5 -7.5t-20 8q-10 9 -15.5 23.5t-8.5 31.5q-19 -27 -58 -49t-96 -22q-30 0 -56 7.5t-45 24t-30 41.5t-11 60q0 60 30 93.5t78 45.5q19 5 42 7.5t47 5l48 5t44 7.5v66q0 53 -23.5 79t-80.5 26
q-30 0 -60 -11.5t-47 -48.5q-4 -9 -9.5 -15t-16.5 -6q-13 0 -21 8t-8 20t8 27t17 26q23 28 59.5 41.5t83.5 13.5q32 0 60 -7.5t49 -25.5t33 -49t12 -78v-264zM330 233q-18 -5 -39.5 -8t-44 -6t-43.5 -6t-36 -7q-30 -8 -50 -28.5t-20 -59.5q0 -44 25 -60.5t65 -16.5
q95 0 143 79v113zM85 698q7 12 21.5 22.5t38.5 10.5q18 0 41 -7t47 -16t46.5 -16t39.5 -7q20 0 29 12q4 5 7 13.5t4 10.5q4 11 18 11q17 0 17 -20q0 -9 -3 -21.5t-9 -23.5q-7 -12 -21.5 -22.5t-38.5 -10.5q-18 0 -41 7t-47 16t-47 16t-39 7q-20 0 -29 -12q-4 -5 -7 -13.5
t-4 -10.5q-4 -11 -18 -11q-17 0 -17 20q0 9 3 21.5t9 23.5z" />
    <glyph glyph-name="adieresis" unicode="&#xe4;" horiz-adv-x="467" 
d="M41 0zM386 86q0 -24 14 -44q10 -9 10 -20q0 -12 -8.5 -19.5t-20.5 -7.5t-20 8q-10 9 -15.5 23.5t-8.5 31.5q-19 -27 -58 -49t-96 -22q-30 0 -56 7.5t-45 24t-30 41.5t-11 60q0 60 30 93.5t78 45.5q19 5 42 7.5t47 5l48 5t44 7.5v66q0 53 -23.5 79t-80.5 26
q-30 0 -60 -11.5t-47 -48.5q-4 -9 -9.5 -15t-16.5 -6q-13 0 -21 8t-8 20t8 27t17 26q23 28 59.5 41.5t83.5 13.5q32 0 60 -7.5t49 -25.5t33 -49t12 -78v-264zM330 233q-18 -5 -39.5 -8t-44 -6t-43.5 -6t-36 -7q-30 -8 -50 -28.5t-20 -59.5q0 -44 25 -60.5t65 -16.5
q95 0 143 79v113zM326 726q14 0 23.5 -9.5t9.5 -23.5t-9.5 -23.5t-23.5 -9.5t-23.5 9.5t-9.5 23.5t9.5 23.5t23.5 9.5zM140 726q14 0 23.5 -9.5t9.5 -23.5t-9.5 -23.5t-23.5 -9.5t-23.5 9.5t-9.5 23.5t9.5 23.5t23.5 9.5z" />
    <glyph glyph-name="aring" unicode="&#xe5;" horiz-adv-x="467" 
d="M41 0zM386 86q0 -24 14 -44q10 -9 10 -20q0 -12 -8.5 -19.5t-20.5 -7.5t-20 8q-10 9 -15.5 23.5t-8.5 31.5q-19 -27 -58 -49t-96 -22q-30 0 -56 7.5t-45 24t-30 41.5t-11 60q0 60 30 93.5t78 45.5q19 5 42 7.5t47 5l48 5t44 7.5v66q0 53 -23.5 79t-80.5 26
q-30 0 -60 -11.5t-47 -48.5q-4 -9 -9.5 -15t-16.5 -6q-13 0 -21 8t-8 20t8 27t17 26q23 28 59.5 41.5t83.5 13.5q32 0 60 -7.5t49 -25.5t33 -49t12 -78v-264zM330 233q-18 -5 -39.5 -8t-44 -6t-43.5 -6t-36 -7q-30 -8 -50 -28.5t-20 -59.5q0 -44 25 -60.5t65 -16.5
q95 0 143 79v113zM233 774q38 0 62 -26.5t24 -66.5q0 -41 -24.5 -67t-61.5 -26t-61.5 26t-24.5 67q0 40 24 66.5t62 26.5zM232 734q-21 0 -35.5 -14.5t-14.5 -37.5t14.5 -39t35.5 -16q22 0 36.5 16t14.5 39t-14.5 37.5t-36.5 14.5z" />
    <glyph glyph-name="ae" unicode="&#xe6;" horiz-adv-x="788" 
d="M330 350q0 53 -23.5 79t-80.5 26q-30 0 -60 -11.5t-47 -48.5q-4 -9 -9.5 -15t-16.5 -6q-13 0 -21 8t-8 20t8 27t17 26q23 29 60 42t82 13q50 0 89.5 -19t56.5 -70q26 42 65 65.5t96 23.5q49 0 85 -18t60 -50.5t36 -77t12 -98.5q0 -12 -8 -19.5t-20 -7.5h-315
q0 -42 10.5 -78t30.5 -62.5t50 -41.5t68 -15q25 0 43 6.5t31.5 16.5t23 22.5t17.5 24.5q5 7 10 10.5t14 3.5q16 0 22.5 -9.5t6.5 -16.5q0 -2 -0.5 -7t-1.5 -7q-2 -9 -15 -26t-36 -33t-55 -28t-72 -12q-59 0 -101 28t-68 77q-30 -46 -72.5 -75.5t-108.5 -29.5
q-63 0 -103.5 31.5t-40.5 101.5q0 60 30 93.5t78 45.5q19 5 42 7.5t47 5l48 5t44 7.5v66zM674 293v4q0 32 -9.5 60.5t-27 50.5t-43 34.5t-58.5 12.5q-32 0 -58 -12.5t-44.5 -34.5t-29.5 -51.5t-14 -63.5h284zM330 233q-18 -5 -39.5 -8t-44 -6t-43.5 -6t-36 -7
q-70 -19 -70 -88q0 -44 25.5 -60.5t66.5 -16.5q29 0 50.5 6.5t39 19.5t33.5 32.5t34 44.5q-6 19 -8.5 31t-3.5 20.5t-1.5 15.5t-1.5 15z" />
    <glyph glyph-name="ccedilla" unicode="&#xe7;" horiz-adv-x="475" 
d="M48 0zM408 68q-10 -16 -24 -30.5t-32 -25.5q-41 -25 -94 -25q-49 0 -88 20t-66 55t-41.5 83.5t-14.5 104.5t14.5 104t42 82.5t66.5 54t89 19.5q48 0 88 -19.5t64 -60.5q4 -6 7.5 -14t3.5 -16q0 -12 -7.5 -20t-21.5 -8q-12 0 -17.5 6t-8.5 13q-5 11 -12 21t-19 19
q-32 24 -78 24q-36 0 -64.5 -15t-49 -42t-31.5 -64.5t-11 -82.5q0 -46 11.5 -84.5t31.5 -66.5t48.5 -43.5t63.5 -15.5q23 0 42 7t33 18q10 8 17.5 18t12.5 20q4 8 10 15t18 7t20 -8t8 -19q0 -8 -3.5 -15.5t-7.5 -15.5zM246 -100q-9 6 -16.5 16t-7.5 25q0 14 8.5 25.5
t26.5 11.5q17 0 26.5 -14t9.5 -47q0 -20 -3.5 -44.5t-9.5 -45.5t-15 -35.5t-20 -14.5q-7 0 -10 5t-3 10q0 10 0.5 11l1.5 3q6 18 9.5 35t3.5 38v10t-1 11z" />
    <glyph glyph-name="egrave" unicode="&#xe8;" horiz-adv-x="507" 
d="M52 0zM109 239q0 -42 10.5 -78t30.5 -62.5t49.5 -41.5t68.5 -15q25 0 43 6t31 16t22.5 22.5t18.5 25.5q9 14 23 14t22 -8.5t8 -19.5q0 -7 -4 -12q-12 -24 -30.5 -42.5t-41.5 -31t-49 -19t-53 -6.5q-49 0 -87 20t-64.5 55t-40.5 83.5t-14 104.5t14 103.5t40.5 82.5
t65.5 54.5t89 19.5q47 0 83 -18t60 -50t36 -77t12 -99q0 -12 -8 -19.5t-20 -7.5h-315zM395 293v4q0 32 -9.5 61t-27.5 50.5t-43.5 34t-57.5 12.5t-57.5 -12.5t-44.5 -34.5t-30 -51.5t-14 -63.5h284zM296 591q3 -6 3 -12q0 -9 -6 -14.5t-14 -5.5q-11 0 -17 10l-109 152
q-6 10 -6 20q0 14 10 23.5t22 9.5q19 0 29 -19z" />
    <glyph glyph-name="eacute" unicode="&#xe9;" horiz-adv-x="507" 
d="M52 0zM109 239q0 -42 10.5 -78t30.5 -62.5t49.5 -41.5t68.5 -15q25 0 43 6t31 16t22.5 22.5t18.5 25.5q9 14 23 14t22 -8.5t8 -19.5q0 -7 -4 -12q-12 -24 -30.5 -42.5t-41.5 -31t-49 -19t-53 -6.5q-49 0 -87 20t-64.5 55t-40.5 83.5t-14 104.5t14 103.5t40.5 82.5
t65.5 54.5t89 19.5q47 0 83 -18t60 -50t36 -77t12 -99q0 -12 -8 -19.5t-20 -7.5h-315zM395 293v4q0 32 -9.5 61t-27.5 50.5t-43.5 34t-57.5 12.5t-57.5 -12.5t-44.5 -34.5t-30 -51.5t-14 -63.5h284zM298 755q10 19 29 19q12 0 22 -9.5t10 -23.5q0 -10 -6 -20l-109 -152
q-6 -10 -17 -10q-8 0 -14 5.5t-6 14.5q0 6 3 12z" />
    <glyph glyph-name="ecircumflex" unicode="&#xea;" horiz-adv-x="507" 
d="M52 0zM109 239q0 -42 10.5 -78t30.5 -62.5t49.5 -41.5t68.5 -15q25 0 43 6t31 16t22.5 22.5t18.5 25.5q9 14 23 14t22 -8.5t8 -19.5q0 -7 -4 -12q-12 -24 -30.5 -42.5t-41.5 -31t-49 -19t-53 -6.5q-49 0 -87 20t-64.5 55t-40.5 83.5t-14 104.5t14 103.5t40.5 82.5
t65.5 54.5t89 19.5q47 0 83 -18t60 -50t36 -77t12 -99q0 -12 -8 -19.5t-20 -7.5h-315zM395 293v4q0 32 -9.5 61t-27.5 50.5t-43.5 34t-57.5 12.5t-57.5 -12.5t-44.5 -34.5t-30 -51.5t-14 -63.5h284zM210 746q16 28 43 28t43 -28l91 -155q3 -6 3 -12q0 -8 -5.5 -14t-13.5 -6
q-11 0 -19 11l-99 140l-99 -140q-8 -11 -19 -11q-8 0 -13.5 6t-5.5 14q0 6 3 12z" />
    <glyph glyph-name="edieresis" unicode="&#xeb;" horiz-adv-x="507" 
d="M52 0zM109 239q0 -42 10.5 -78t30.5 -62.5t49.5 -41.5t68.5 -15q25 0 43 6t31 16t22.5 22.5t18.5 25.5q9 14 23 14t22 -8.5t8 -19.5q0 -7 -4 -12q-12 -24 -30.5 -42.5t-41.5 -31t-49 -19t-53 -6.5q-49 0 -87 20t-64.5 55t-40.5 83.5t-14 104.5t14 103.5t40.5 82.5
t65.5 54.5t89 19.5q47 0 83 -18t60 -50t36 -77t12 -99q0 -12 -8 -19.5t-20 -7.5h-315zM395 293v4q0 32 -9.5 61t-27.5 50.5t-43.5 34t-57.5 12.5t-57.5 -12.5t-44.5 -34.5t-30 -51.5t-14 -63.5h284zM346 726q14 0 23.5 -9.5t9.5 -23.5t-9.5 -23.5t-23.5 -9.5t-23.5 9.5
t-9.5 23.5t9.5 23.5t23.5 9.5zM160 726q14 0 23.5 -9.5t9.5 -23.5t-9.5 -23.5t-23.5 -9.5t-23.5 9.5t-9.5 23.5t9.5 23.5t23.5 9.5z" />
    <glyph glyph-name="igrave" unicode="&#xec;" horiz-adv-x="231" 
d="M9 0zM140 121q0 -25 3 -47.5t7 -42.5q1 -2 1.5 -4t0.5 -5q0 -11 -7.5 -19t-21.5 -8q-21 0 -28 27q-4 14 -7.5 41.5t-3.5 56.5v355q0 11 8 19.5t20 8.5q11 0 19.5 -8.5t8.5 -19.5v-354zM158 591q3 -6 3 -12q0 -9 -6 -14.5t-14 -5.5q-11 0 -17 10l-109 152q-6 10 -6 20
q0 14 10 23.5t22 9.5q19 0 29 -19z" />
    <glyph glyph-name="iacute" unicode="&#xed;" horiz-adv-x="231" 
d="M69 0zM140 121q0 -25 3 -47.5t7 -42.5q1 -2 1.5 -4t0.5 -5q0 -11 -7.5 -19t-21.5 -8q-21 0 -28 27q-4 14 -7.5 41.5t-3.5 56.5v355q0 11 8 19.5t20 8.5q11 0 19.5 -8.5t8.5 -19.5v-354zM160 755q10 19 29 19q12 0 22 -9.5t10 -23.5q0 -10 -6 -20l-109 -152
q-6 -10 -17 -10q-8 0 -14 5.5t-6 14.5q0 6 3 12z" />
    <glyph glyph-name="icircumflex" unicode="&#xee;" horiz-adv-x="274" 
d="M0 0zM161 121q0 -25 3 -47.5t7 -42.5q1 -2 1.5 -4t0.5 -5q0 -11 -7.5 -19t-21.5 -8q-21 0 -28 27q-4 14 -7.5 41.5t-3.5 56.5v355q0 11 8 19.5t20 8.5q11 0 19.5 -8.5t8.5 -19.5v-354zM94 746q16 28 43 28t43 -28l91 -155q3 -6 3 -12q0 -8 -5.5 -14t-13.5 -6
q-11 0 -19 11l-99 140l-99 -140q-8 -11 -19 -11q-8 0 -13.5 6t-5.5 14q0 6 3 12z" />
    <glyph glyph-name="idieresis" unicode="&#xef;" horiz-adv-x="257" 
d="M2 0zM152 121q0 -25 3 -47.5t7 -42.5q1 -2 1.5 -4t0.5 -5q0 -11 -7.5 -19t-21.5 -8q-21 0 -28 27q-4 14 -7.5 41.5t-3.5 56.5v355q0 11 8 19.5t20 8.5q11 0 19.5 -8.5t8.5 -19.5v-354zM221 726q14 0 23.5 -9.5t9.5 -23.5t-9.5 -23.5t-23.5 -9.5t-23.5 9.5t-9.5 23.5
t9.5 23.5t23.5 9.5zM35 726q14 0 23.5 -9.5t9.5 -23.5t-9.5 -23.5t-23.5 -9.5t-23.5 9.5t-9.5 23.5t9.5 23.5t23.5 9.5z" />
    <glyph glyph-name="eth" unicode="&#xf0;" horiz-adv-x="501" 
d="M265 664q-14 12 -27.5 21t-29.5 17q-18 10 -18 26q0 12 8.5 20t19.5 8q7 0 12 -2.5t10 -5.5q17 -10 34 -23.5t33 -28.5l61 49q6 4 11 7.5t13 3.5q12 0 20 -8t8 -20q0 -8 -4 -13.5t-9 -10.5l-63 -49q29 -38 50 -82.5t34.5 -92.5t20 -98.5t6.5 -99.5q0 -149 -53.5 -222
t-148.5 -73q-50 0 -89 19.5t-65 52.5t-39.5 78t-13.5 96q0 52 13.5 97t39 78t62.5 52t83 19q31 0 56 -8.5t43.5 -22t32 -30.5t22.5 -33q-11 69 -34 129.5t-61 108.5l-93 -74q-8 -6 -19 -6t-19.5 7.5t-8.5 19.5q0 14 12 23zM401 260q-5 30 -14.5 59.5t-26.5 53t-43 37.5
t-64 14t-66 -14t-47.5 -39.5t-29 -60t-9.5 -74.5t9.5 -75.5t28 -62t46.5 -42t64 -15.5t64.5 16t48 44.5t29.5 69t10 89.5z" />
    <glyph glyph-name="ntilde" unicode="&#xf1;" 
d="M55 0zM123 23q0 -12 -8 -20t-20 -8q-11 0 -19.5 8t-8.5 20v353q0 25 -3 48t-7 43q-2 6 -2 10q0 10 7.5 18t20.5 8t19.5 -8t9.5 -19q2 -8 4 -21.5t3 -21.5q22 35 61 56t86 21q39 0 70 -15.5t52 -42t32 -62.5t11 -77v-192q0 -25 3 -48t8 -42q1 -3 1.5 -5.5t0.5 -5.5
q0 -10 -8 -17.5t-21 -7.5q-21 0 -28 27q-4 14 -7.5 41.5t-3.5 56.5v197q0 24 -6.5 48.5t-20.5 44.5t-36 32.5t-54 12.5q-19 0 -39 -5t-38.5 -16t-34 -27.5t-24.5 -40.5v-343zM110 698q7 12 21.5 22.5t38.5 10.5q18 0 41 -7t47 -16t46.5 -16t39.5 -7q20 0 29 12q4 5 7 13.5
t4 10.5q4 11 18 11q17 0 17 -20q0 -9 -3 -21.5t-9 -23.5q-7 -12 -21.5 -22.5t-38.5 -10.5q-18 0 -41 7t-47 16t-47 16t-39 7q-20 0 -29 -12q-4 -5 -7 -13.5t-4 -10.5q-4 -11 -18 -11q-17 0 -17 20q0 9 3 21.5t9 23.5z" />
    <glyph glyph-name="ograve" unicode="&#xf2;" 
d="M46 0zM259 455q-38 0 -67.5 -16.5t-49.5 -45t-30.5 -66t-10.5 -78.5t10.5 -79t30.5 -66.5t49.5 -45.5t67.5 -17t67.5 17t49.5 45.5t30.5 66.5t10.5 79t-10.5 78.5t-30.5 66t-49.5 45t-67.5 16.5zM259 510q51 0 91 -20.5t67.5 -55.5t41.5 -82.5t14 -102.5t-14.5 -102.5
t-41.5 -83t-67 -56t-91 -20.5t-91 20.5t-67 56t-41 83t-14 102.5t14 102.5t41 82.5t66.5 55.5t91.5 20.5zM302 591q3 -6 3 -12q0 -9 -6 -14.5t-14 -5.5q-11 0 -17 10l-109 152q-6 10 -6 20q0 14 10 23.5t22 9.5q19 0 29 -19z" />
    <glyph glyph-name="oacute" unicode="&#xf3;" 
d="M46 0zM259 455q-38 0 -67.5 -16.5t-49.5 -45t-30.5 -66t-10.5 -78.5t10.5 -79t30.5 -66.5t49.5 -45.5t67.5 -17t67.5 17t49.5 45.5t30.5 66.5t10.5 79t-10.5 78.5t-30.5 66t-49.5 45t-67.5 16.5zM259 510q51 0 91 -20.5t67.5 -55.5t41.5 -82.5t14 -102.5t-14.5 -102.5
t-41.5 -83t-67 -56t-91 -20.5t-91 20.5t-67 56t-41 83t-14 102.5t14 102.5t41 82.5t66.5 55.5t91.5 20.5zM304 755q10 19 29 19q12 0 22 -9.5t10 -23.5q0 -10 -6 -20l-109 -152q-6 -10 -17 -10q-8 0 -14 5.5t-6 14.5q0 6 3 12z" />
    <glyph glyph-name="ocircumflex" unicode="&#xf4;" 
d="M46 0zM259 455q-38 0 -67.5 -16.5t-49.5 -45t-30.5 -66t-10.5 -78.5t10.5 -79t30.5 -66.5t49.5 -45.5t67.5 -17t67.5 17t49.5 45.5t30.5 66.5t10.5 79t-10.5 78.5t-30.5 66t-49.5 45t-67.5 16.5zM259 510q51 0 91 -20.5t67.5 -55.5t41.5 -82.5t14 -102.5t-14.5 -102.5
t-41.5 -83t-67 -56t-91 -20.5t-91 20.5t-67 56t-41 83t-14 102.5t14 102.5t41 82.5t66.5 55.5t91.5 20.5zM216 746q16 28 43 28t43 -28l91 -155q3 -6 3 -12q0 -8 -5.5 -14t-13.5 -6q-11 0 -19 11l-99 140l-99 -140q-8 -11 -19 -11q-8 0 -13.5 6t-5.5 14q0 6 3 12z" />
    <glyph glyph-name="otilde" unicode="&#xf5;" 
d="M46 0zM259 455q-38 0 -67.5 -16.5t-49.5 -45t-30.5 -66t-10.5 -78.5t10.5 -79t30.5 -66.5t49.5 -45.5t67.5 -17t67.5 17t49.5 45.5t30.5 66.5t10.5 79t-10.5 78.5t-30.5 66t-49.5 45t-67.5 16.5zM259 510q51 0 91 -20.5t67.5 -55.5t41.5 -82.5t14 -102.5t-14.5 -102.5
t-41.5 -83t-67 -56t-91 -20.5t-91 20.5t-67 56t-41 83t-14 102.5t14 102.5t41 82.5t66.5 55.5t91.5 20.5zM110 698q7 12 21.5 22.5t38.5 10.5q18 0 41 -7t47 -16t46.5 -16t39.5 -7q20 0 29 12q4 5 7 13.5t4 10.5q4 11 18 11q17 0 17 -20q0 -9 -3 -21.5t-9 -23.5
q-7 -12 -21.5 -22.5t-38.5 -10.5q-18 0 -41 7t-47 16t-47 16t-39 7q-20 0 -29 -12q-4 -5 -7 -13.5t-4 -10.5q-4 -11 -18 -11q-17 0 -17 20q0 9 3 21.5t9 23.5z" />
    <glyph glyph-name="odieresis" unicode="&#xf6;" 
d="M46 0zM259 455q-38 0 -67.5 -16.5t-49.5 -45t-30.5 -66t-10.5 -78.5t10.5 -79t30.5 -66.5t49.5 -45.5t67.5 -17t67.5 17t49.5 45.5t30.5 66.5t10.5 79t-10.5 78.5t-30.5 66t-49.5 45t-67.5 16.5zM259 510q51 0 91 -20.5t67.5 -55.5t41.5 -82.5t14 -102.5t-14.5 -102.5
t-41.5 -83t-67 -56t-91 -20.5t-91 20.5t-67 56t-41 83t-14 102.5t14 102.5t41 82.5t66.5 55.5t91.5 20.5zM352 726q14 0 23.5 -9.5t9.5 -23.5t-9.5 -23.5t-23.5 -9.5t-23.5 9.5t-9.5 23.5t9.5 23.5t23.5 9.5zM166 726q14 0 23.5 -9.5t9.5 -23.5t-9.5 -23.5t-23.5 -9.5
t-23.5 9.5t-9.5 23.5t9.5 23.5t23.5 9.5z" />
    <glyph glyph-name="divide" unicode="&#xf7;" horiz-adv-x="549" 
d="M63 47zM457 325q12 0 20.5 -9t8.5 -20q0 -12 -8.5 -20.5t-20.5 -8.5h-365q-11 0 -20 8.5t-9 20.5q0 11 9 20t20 9h365zM276 130q17 0 29 -12.5t12 -29.5t-12 -29t-29 -12t-29.5 12t-12.5 29t12.5 29.5t29.5 12.5zM234 500q0 17 12.5 29t29.5 12t29 -12t12 -29t-12 -29
t-29 -12t-29.5 12t-12.5 29z" />
    <glyph glyph-name="oslash" unicode="&#xf8;" 
d="M422 515q6 9 17 9q8 0 14 -6t6 -15q0 -3 -1 -7t-3 -6l-39 -54q57 -72 57 -187q0 -55 -14.5 -103t-42 -83t-67.5 -55.5t-91 -20.5q-39 0 -73.5 12.5t-60.5 37.5l-39 -54q-8 -9 -17 -9q-8 0 -14 5.5t-6 16.5q0 8 4 12l44 61q-50 74 -50 180q0 55 14 102.5t41 82.5
t66.5 55.5t91.5 20.5q40 0 71 -12t56 -32zM158 85q20 -20 44.5 -32t56.5 -12q38 0 67.5 17t49.5 46t30.5 66.5t10.5 79.5q0 81 -37 137zM352 420q-37 35 -92 35q-39 0 -68.5 -16.5t-49.5 -45t-30.5 -65.5t-10.5 -79q0 -35 7.5 -68t23.5 -62z" />
    <glyph glyph-name="ugrave" unicode="&#xf9;" 
d="M83 0zM139 180q0 -69 31 -104.5t94 -35.5t92.5 35.5t29.5 102.5v297q0 11 8 19.5t20 8.5q11 0 19 -8.5t8 -19.5v-292q0 -37 -8 -72t-28 -62.5t-54.5 -44.5t-86.5 -17q-53 0 -87.5 17t-55.5 44.5t-29.5 63t-8.5 72.5v291q0 11 8 19.5t20 8.5q11 0 19.5 -8.5t8.5 -19.5
v-295zM302 591q3 -6 3 -12q0 -9 -6 -14.5t-14 -5.5q-11 0 -17 10l-109 152q-6 10 -6 20q0 14 10 23.5t22 9.5q19 0 29 -19z" />
    <glyph glyph-name="uacute" unicode="&#xfa;" 
d="M83 0zM139 180q0 -69 31 -104.5t94 -35.5t92.5 35.5t29.5 102.5v297q0 11 8 19.5t20 8.5q11 0 19 -8.5t8 -19.5v-292q0 -37 -8 -72t-28 -62.5t-54.5 -44.5t-86.5 -17q-53 0 -87.5 17t-55.5 44.5t-29.5 63t-8.5 72.5v291q0 11 8 19.5t20 8.5q11 0 19.5 -8.5t8.5 -19.5
v-295zM304 755q10 19 29 19q12 0 22 -9.5t10 -23.5q0 -10 -6 -20l-109 -152q-6 -10 -17 -10q-8 0 -14 5.5t-6 14.5q0 6 3 12z" />
    <glyph glyph-name="ucircumflex" unicode="&#xfb;" 
d="M83 0zM139 180q0 -69 31 -104.5t94 -35.5t92.5 35.5t29.5 102.5v297q0 11 8 19.5t20 8.5q11 0 19 -8.5t8 -19.5v-292q0 -37 -8 -72t-28 -62.5t-54.5 -44.5t-86.5 -17q-53 0 -87.5 17t-55.5 44.5t-29.5 63t-8.5 72.5v291q0 11 8 19.5t20 8.5q11 0 19.5 -8.5t8.5 -19.5
v-295zM216 746q16 28 43 28t43 -28l91 -155q3 -6 3 -12q0 -8 -5.5 -14t-13.5 -6q-11 0 -19 11l-99 140l-99 -140q-8 -11 -19 -11q-8 0 -13.5 6t-5.5 14q0 6 3 12z" />
    <glyph glyph-name="udieresis" unicode="&#xfc;" 
d="M83 0zM139 180q0 -69 31 -104.5t94 -35.5t92.5 35.5t29.5 102.5v297q0 11 8 19.5t20 8.5q11 0 19 -8.5t8 -19.5v-292q0 -37 -8 -72t-28 -62.5t-54.5 -44.5t-86.5 -17q-53 0 -87.5 17t-55.5 44.5t-29.5 63t-8.5 72.5v291q0 11 8 19.5t20 8.5q11 0 19.5 -8.5t8.5 -19.5
v-295zM352 726q14 0 23.5 -9.5t9.5 -23.5t-9.5 -23.5t-23.5 -9.5t-23.5 9.5t-9.5 23.5t9.5 23.5t23.5 9.5zM166 726q14 0 23.5 -9.5t9.5 -23.5t-9.5 -23.5t-23.5 -9.5t-23.5 9.5t-9.5 23.5t9.5 23.5t23.5 9.5z" />
    <glyph glyph-name="yacute" unicode="&#xfd;" horiz-adv-x="418" 
d="M8 0zM206 87l141 396q3 8 9.5 14t15.5 6q12 0 20 -8.5t8 -19.5q0 -2 -2 -12l-204 -555q-13 -35 -33 -67t-52 -58q-9 -6 -19 -6q-12 0 -20 7.5t-8 18.5q0 17 15 25q7 4 13.5 12t16.5 19q8 11 17.5 28.5t17.5 39.5l34 94l-164 435q-4 9 -4 18q0 12 8.5 20.5t20.5 8.5
q11 0 16.5 -4t10.5 -15zM252 755q10 19 29 19q12 0 22 -9.5t10 -23.5q0 -10 -6 -20l-109 -152q-6 -10 -17 -10q-8 0 -14 5.5t-6 14.5q0 6 3 12z" />
    <glyph glyph-name="thorn" unicode="&#xfe;" 
d="M128 448q17 21 52 41.5t86 20.5q47 0 85 -21t64.5 -57t41 -85t14.5 -105q0 -54 -13.5 -100.5t-38.5 -81t-60.5 -54t-80.5 -19.5q-24 0 -47.5 5.5t-43.5 14.5t-35.5 20.5t-23.5 23.5v-247q0 -11 -8 -19t-20 -8q-11 0 -19.5 8t-8.5 19v924q0 12 8.5 20t19.5 8q12 0 20 -8
t8 -20v-280zM128 102q22 -26 61.5 -43.5t78.5 -17.5q35 0 62.5 14.5t46 41t28.5 63.5t10 81q0 42 -9.5 81t-28.5 68.5t-48 47t-69 17.5q-42 0 -79.5 -19.5t-52.5 -52.5v-281z" />
    <glyph glyph-name="ydieresis" unicode="&#xff;" horiz-adv-x="418" 
d="M8 0zM206 87l141 396q3 8 9.5 14t15.5 6q12 0 20 -8.5t8 -19.5q0 -2 -2 -12l-204 -555q-13 -35 -33 -67t-52 -58q-9 -6 -19 -6q-12 0 -20 7.5t-8 18.5q0 17 15 25q7 4 13.5 12t16.5 19q8 11 17.5 28.5t17.5 39.5l34 94l-164 435q-4 9 -4 18q0 12 8.5 20.5t20.5 8.5
q11 0 16.5 -4t10.5 -15zM302 726q14 0 23.5 -9.5t9.5 -23.5t-9.5 -23.5t-23.5 -9.5t-23.5 9.5t-9.5 23.5t9.5 23.5t23.5 9.5zM116 726q14 0 23.5 -9.5t9.5 -23.5t-9.5 -23.5t-23.5 -9.5t-23.5 9.5t-9.5 23.5t9.5 23.5t23.5 9.5z" />
    <glyph glyph-name="Amacron" unicode="&#x100;" horiz-adv-x="543" 
d="M9 0zM533 36q1 -4 1.5 -7t0.5 -6q0 -11 -9 -19.5t-20 -8.5q-10 0 -17.5 6t-10.5 15l-60 173h-293l-59 -173q-3 -9 -10.5 -15t-17.5 -6q-11 0 -20 8.5t-9 21.5q0 6 3 14l232 671q3 8 11 14t17 6t17 -6t11 -14zM145 247h253l-127 374zM413 911q11 0 19 -7.5t8 -18.5
t-8 -18.5t-19 -7.5h-284q-11 0 -19 7.5t-8 18.5t8 18.5t19 7.5h284z" />
    <glyph glyph-name="amacron" unicode="&#x101;" horiz-adv-x="467" 
d="M41 0zM386 86q0 -24 14 -44q10 -9 10 -20q0 -12 -8.5 -19.5t-20.5 -7.5t-20 8q-10 9 -15.5 23.5t-8.5 31.5q-19 -27 -58 -49t-96 -22q-30 0 -56 7.5t-45 24t-30 41.5t-11 60q0 60 30 93.5t78 45.5q19 5 42 7.5t47 5l48 5t44 7.5v66q0 53 -23.5 79t-80.5 26
q-30 0 -60 -11.5t-47 -48.5q-4 -9 -9.5 -15t-16.5 -6q-13 0 -21 8t-8 20t8 27t17 26q23 28 59.5 41.5t83.5 13.5q32 0 60 -7.5t49 -25.5t33 -49t12 -78v-264zM330 233q-18 -5 -39.5 -8t-44 -6t-43.5 -6t-36 -7q-30 -8 -50 -28.5t-20 -59.5q0 -44 25 -60.5t65 -16.5
q95 0 143 79v113zM375 711q11 0 19 -8.5t8 -19.5t-8 -19.5t-19 -8.5h-284q-11 0 -19 8.5t-8 19.5t8 19.5t19 8.5h284z" />
    <glyph glyph-name="Abreve" unicode="&#x102;" horiz-adv-x="543" 
d="M9 0zM533 36q1 -4 1.5 -7t0.5 -6q0 -11 -9 -19.5t-20 -8.5q-10 0 -17.5 6t-10.5 15l-60 173h-293l-59 -173q-3 -9 -10.5 -15t-17.5 -6q-11 0 -20 8.5t-9 21.5q0 6 3 14l232 671q3 8 11 14t17 6t17 -6t11 -14zM145 247h253l-127 374zM103 920q0 9 6 15t17 6t19.5 -6
t14.5 -11q20 -16 48.5 -26.5t62.5 -10.5t62.5 10.5t48.5 26.5q6 5 14.5 11t19.5 6t17 -6t6 -15q0 -14 -12.5 -26t-25.5 -20q-25 -16 -59 -27.5t-71 -11.5t-71 11.5t-59 27.5q-13 8 -25.5 20t-12.5 26z" />
    <glyph glyph-name="abreve" unicode="&#x103;" horiz-adv-x="467" 
d="M41 0zM386 86q0 -24 14 -44q10 -9 10 -20q0 -12 -8.5 -19.5t-20.5 -7.5t-20 8q-10 9 -15.5 23.5t-8.5 31.5q-19 -27 -58 -49t-96 -22q-30 0 -56 7.5t-45 24t-30 41.5t-11 60q0 60 30 93.5t78 45.5q19 5 42 7.5t47 5l48 5t44 7.5v66q0 53 -23.5 79t-80.5 26
q-30 0 -60 -11.5t-47 -48.5q-4 -9 -9.5 -15t-16.5 -6q-13 0 -21 8t-8 20t8 27t17 26q23 28 59.5 41.5t83.5 13.5q32 0 60 -7.5t49 -25.5t33 -49t12 -78v-264zM330 233q-18 -5 -39.5 -8t-44 -6t-43.5 -6t-36 -7q-30 -8 -50 -28.5t-20 -59.5q0 -44 25 -60.5t65 -16.5
q95 0 143 79v113zM88 743q11 0 19.5 -6.5t14.5 -11.5q20 -17 48.5 -28.5t62.5 -11.5t62.5 11.5t48.5 28.5q6 5 14.5 11.5t19.5 6.5t17 -6.5t6 -16.5q0 -14 -12.5 -27t-25.5 -22q-25 -17 -59 -29.5t-71 -12.5t-71 12.5t-59 29.5q-13 9 -25.5 22t-12.5 27q0 10 6 16.5t17 6.5z
" />
    <glyph glyph-name="Aogonek" unicode="&#x104;" horiz-adv-x="543" 
d="M533 36q1 -4 1.5 -7t0.5 -6q0 -11 -8.5 -18t-17.5 -12q-15 -9 -30 -21t-28 -26.5t-21 -29.5t-8 -30q0 -21 16 -34.5t40 -13.5q14 0 27 3.5t23 3.5q11 0 15.5 -5.5t4.5 -12.5q0 -11 -9.5 -18t-22.5 -11t-26.5 -5t-22.5 -1q-41 0 -66 20t-25 60q0 44 28.5 75t68.5 54
q6 1 6 10l-61 178h-293l-59 -173q-3 -9 -10.5 -15t-17.5 -6q-11 0 -20 8.5t-9 21.5q0 6 3 14l232 671q3 8 11 14t17 6t17 -6t11 -14zM145 247h253l-127 374z" />
    <glyph glyph-name="aogonek" unicode="&#x105;" horiz-adv-x="473" 
d="M386 86q0 -24 14 -44q10 -9 10 -21q0 -10 -5.5 -15.5t-11.5 -9.5q-38 -25 -66 -53t-28 -57q0 -19 14 -33.5t44 -14.5q6 0 15 1t17 3l8 2t9 1q10 0 14.5 -6t4.5 -14q0 -13 -14 -21q-16 -7 -36.5 -9.5t-33.5 -2.5q-44 0 -66.5 23t-22.5 55q0 22 10 42.5t25 38t34 31.5
t37 24q-17 21 -21 52q-19 -27 -58 -49t-96 -22q-30 0 -56 7.5t-45 24t-30 41.5t-11 60q0 60 30 93.5t78 45.5q19 5 42 7.5t47 5l48 5t44 7.5v66q0 53 -23.5 79t-80.5 26q-30 0 -60 -11.5t-47 -48.5q-4 -9 -9.5 -15t-16.5 -6q-13 0 -21 8t-8 20t8 27t17 26q23 28 59.5 41.5
t83.5 13.5q32 0 60 -7.5t49 -25.5t33 -49t12 -78v-264zM330 233q-18 -5 -39.5 -8t-44 -6t-43.5 -6t-36 -7q-30 -8 -50 -28.5t-20 -59.5q0 -44 25 -60.5t65 -16.5q95 0 143 79v113z" />
    <glyph glyph-name="Cacute" unicode="&#x106;" horiz-adv-x="642" 
d="M63 0zM352 737q40 0 73.5 -7.5t62 -24t53.5 -42.5t48 -62q5 -8 5 -18q0 -11 -8.5 -20t-20.5 -9q-16 0 -23 13q-29 60 -76 86t-113 26q-55 0 -98 -24t-73 -66.5t-45.5 -101t-15.5 -127.5q0 -68 14.5 -126t44 -100t73.5 -66t103 -24q24 0 50.5 6.5t50.5 19.5t43.5 32
t28.5 45q3 9 11 16t19 7t20 -9t9 -20q0 -2 -2 -12q-11 -33 -35.5 -59.5t-56.5 -45t-68.5 -28t-71.5 -9.5q-68 0 -121.5 27t-91.5 76t-58 118t-20 153q0 81 20.5 150t58.5 119.5t91 78.5t119 28zM395 952q10 18 29 18q12 0 22 -8.5t10 -22.5q0 -9 -6 -18l-109 -142
q-6 -9 -17 -9q-8 0 -14 5t-6 14q0 5 3 11z" />
    <glyph glyph-name="cacute" unicode="&#x107;" horiz-adv-x="475" 
d="M48 0zM408 68q-10 -16 -24 -30.5t-32 -25.5q-41 -25 -94 -25q-49 0 -88 20t-66 55t-41.5 83.5t-14.5 104.5t14.5 104t42 82.5t66.5 54t89 19.5q48 0 88 -19.5t64 -60.5q4 -6 7.5 -14t3.5 -16q0 -12 -7.5 -20t-21.5 -8q-12 0 -17.5 6t-8.5 13q-5 11 -12 21t-19 19
q-32 24 -78 24q-36 0 -64.5 -15t-49 -42t-31.5 -64.5t-11 -82.5q0 -46 11.5 -84.5t31.5 -66.5t48.5 -43.5t63.5 -15.5q23 0 42 7t33 18q10 8 17.5 18t12.5 20q4 8 10 15t18 7t20 -8t8 -19q0 -8 -3.5 -15.5t-7.5 -15.5zM300 755q10 19 29 19q12 0 22 -9.5t10 -23.5
q0 -10 -6 -20l-109 -152q-6 -10 -17 -10q-8 0 -14 5.5t-6 14.5q0 6 3 12z" />
    <glyph glyph-name="Cdotaccent" unicode="&#x10a;" horiz-adv-x="642" 
d="M63 0zM352 737q40 0 73.5 -7.5t62 -24t53.5 -42.5t48 -62q5 -8 5 -18q0 -11 -8.5 -20t-20.5 -9q-16 0 -23 13q-29 60 -76 86t-113 26q-55 0 -98 -24t-73 -66.5t-45.5 -101t-15.5 -127.5q0 -68 14.5 -126t44 -100t73.5 -66t103 -24q24 0 50.5 6.5t50.5 19.5t43.5 32
t28.5 45q3 9 11 16t19 7t20 -9t9 -20q0 -2 -2 -12q-11 -33 -35.5 -59.5t-56.5 -45t-68.5 -28t-71.5 -9.5q-68 0 -121.5 27t-91.5 76t-58 118t-20 153q0 81 20.5 150t58.5 119.5t91 78.5t119 28zM361 930q14 0 23.5 -9.5t9.5 -23.5t-9.5 -23.5t-23.5 -9.5t-23.5 9.5
t-9.5 23.5t9.5 23.5t23.5 9.5z" />
    <glyph glyph-name="cdotaccent" unicode="&#x10b;" horiz-adv-x="475" 
d="M48 0zM408 68q-10 -16 -24 -30.5t-32 -25.5q-41 -25 -94 -25q-49 0 -88 20t-66 55t-41.5 83.5t-14.5 104.5t14.5 104t42 82.5t66.5 54t89 19.5q48 0 88 -19.5t64 -60.5q4 -6 7.5 -14t3.5 -16q0 -12 -7.5 -20t-21.5 -8q-12 0 -17.5 6t-8.5 13q-5 11 -12 21t-19 19
q-32 24 -78 24q-36 0 -64.5 -15t-49 -42t-31.5 -64.5t-11 -82.5q0 -46 11.5 -84.5t31.5 -66.5t48.5 -43.5t63.5 -15.5q23 0 42 7t33 18q10 8 17.5 18t12.5 20q4 8 10 15t18 7t20 -8t8 -19q0 -8 -3.5 -15.5t-7.5 -15.5zM257 726q14 0 23.5 -9.5t9.5 -23.5t-9.5 -23.5
t-23.5 -9.5t-23.5 9.5t-9.5 23.5t9.5 23.5t23.5 9.5z" />
    <glyph glyph-name="Ccaron" unicode="&#x10c;" horiz-adv-x="642" 
d="M63 0zM352 737q40 0 73.5 -7.5t62 -24t53.5 -42.5t48 -62q5 -8 5 -18q0 -11 -8.5 -20t-20.5 -9q-16 0 -23 13q-29 60 -76 86t-113 26q-55 0 -98 -24t-73 -66.5t-45.5 -101t-15.5 -127.5q0 -68 14.5 -126t44 -100t73.5 -66t103 -24q24 0 50.5 6.5t50.5 19.5t43.5 32
t28.5 45q3 9 11 16t19 7t20 -9t9 -20q0 -2 -2 -12q-11 -33 -35.5 -59.5t-56.5 -45t-68.5 -28t-71.5 -9.5q-68 0 -121.5 27t-91.5 76t-58 118t-20 153q0 81 20.5 150t58.5 119.5t91 78.5t119 28zM361 829l99 131q9 10 19 10q8 0 13.5 -5.5t5.5 -13.5q0 -5 -3 -11l-91 -144
q-16 -26 -43 -26t-43 26l-91 144q-3 6 -3 11q0 8 5.5 13.5t13.5 5.5q10 0 19 -10z" />
    <glyph glyph-name="ccaron" unicode="&#x10d;" horiz-adv-x="475" 
d="M48 0zM408 68q-10 -16 -24 -30.5t-32 -25.5q-41 -25 -94 -25q-49 0 -88 20t-66 55t-41.5 83.5t-14.5 104.5t14.5 104t42 82.5t66.5 54t89 19.5q48 0 88 -19.5t64 -60.5q4 -6 7.5 -14t3.5 -16q0 -12 -7.5 -20t-21.5 -8q-12 0 -17.5 6t-8.5 13q-5 11 -12 21t-19 19
q-32 24 -78 24q-36 0 -64.5 -15t-49 -42t-31.5 -64.5t-11 -82.5q0 -46 11.5 -84.5t31.5 -66.5t48.5 -43.5t63.5 -15.5q23 0 42 7t33 18q10 8 17.5 18t12.5 20q4 8 10 15t18 7t20 -8t8 -19q0 -8 -3.5 -15.5t-7.5 -15.5zM257 623l99 140q8 11 19 11q8 0 13.5 -6t5.5 -14
q0 -6 -3 -12l-91 -155q-16 -28 -43 -28t-43 28l-91 155q-3 6 -3 12q0 8 5.5 14t13.5 6q11 0 19 -11z" />
    <glyph glyph-name="Dcaron" unicode="&#x10e;" horiz-adv-x="672" 
d="M98 0zM282 724q74 0 134 -22t102 -67t65 -114t23 -163q0 -92 -22 -159t-64 -111.5t-102 -66t-136 -21.5h-155q-11 0 -20 8.5t-9 20.5v666q0 12 9 20.5t20 8.5h155zM156 58h77q80 0 139.5 14.5t98.5 49.5t58 93t19 145q0 89 -19.5 147.5t-58 93.5t-95 49.5t-130.5 14.5
h-89v-607zM316 829l99 131q9 10 19 10q8 0 13.5 -5.5t5.5 -13.5q0 -5 -3 -11l-91 -144q-16 -26 -43 -26t-43 26l-91 144q-3 6 -3 11q0 8 5.5 13.5t13.5 5.5q10 0 19 -10z" />
    <glyph glyph-name="dcaron" unicode="&#x10f;" horiz-adv-x="561" 
d="M48 0zM446 121q0 -25 3 -47.5t7 -42.5q1 -2 1.5 -4t0.5 -5q0 -11 -8 -19t-20 -8q-11 0 -18.5 7.5t-10.5 19.5q-2 8 -3.5 19t-3.5 22q-6 -11 -19 -24t-31.5 -24.5t-43 -19.5t-54.5 -8q-47 0 -83.5 21t-62 57t-39 84t-13.5 103t13 102t38 81.5t60.5 54.5t80.5 20
q24 0 47.5 -5.5t43.5 -14.5t35.5 -20.5t23.5 -23.5v282q0 12 8 20t20 8q11 0 19.5 -8t8.5 -20v-607zM390 394q-22 26 -62 43.5t-80 17.5q-35 0 -62 -15t-45.5 -42t-28 -64.5t-9.5 -81.5q0 -41 8.5 -79t26.5 -67t46.5 -47t67.5 -18q22 0 44.5 6t41.5 17.5t32.5 28t19.5 37.5
v264zM540 678q-9 6 -16.5 16t-7.5 25q0 14 8.5 25.5t26.5 11.5q17 0 26.5 -14t9.5 -47q0 -20 -3.5 -44.5t-9.5 -45.5t-15 -35.5t-20 -14.5q-7 0 -10 5t-3 10q0 10 0.5 11l1.5 3q6 18 9.5 35t3.5 38v10t-1 11z" />
    <glyph glyph-name="Dcroat" unicode="&#x110;" horiz-adv-x="668" 
d="M26 0zM278 724q74 0 134 -22t102 -67t65 -114t23 -163q0 -92 -22 -159t-64 -111.5t-102 -66t-136 -21.5h-155q-11 0 -20 8.5t-9 20.5v320h-39q-11 0 -20 8.5t-9 20.5q0 11 9 20t20 9h39v288q0 12 9 20.5t20 8.5h155zM152 407h166q11 0 20 -9t9 -20q0 -12 -9 -20.5
t-20 -8.5h-166v-291h77q80 0 139.5 14.5t98.5 49.5t58 93t19 145q0 89 -19.5 147.5t-58 93.5t-95 49.5t-130.5 14.5h-89v-258z" />
    <glyph glyph-name="dcroat" unicode="&#x111;" horiz-adv-x="522" 
d="M390 681v47q0 12 8 20t20 8q11 0 19.5 -8t8.5 -20v-47h25q11 0 19.5 -8.5t8.5 -19.5t-8.5 -19.5t-19.5 -8.5h-25v-504q0 -25 3 -47.5t7 -42.5q1 -2 1.5 -4t0.5 -5q0 -11 -8 -19t-20 -8q-11 0 -18.5 7.5t-10.5 19.5q-2 8 -3.5 19t-3.5 22q-6 -11 -19 -24t-31.5 -24.5
t-43 -19.5t-54.5 -8q-47 0 -83.5 21t-62 57t-39 84t-13.5 103t13 102t38 81.5t60.5 54.5t80.5 20q24 0 47.5 -5.5t43.5 -14.5t35.5 -20.5t23.5 -23.5v179h-102q-11 0 -19.5 8.5t-8.5 19.5t8.5 19.5t19.5 8.5h102zM390 394q-22 26 -62 43.5t-80 17.5q-35 0 -62 -15t-45.5 -42
t-28 -64.5t-9.5 -81.5q0 -41 8.5 -79t26.5 -67t46.5 -47t67.5 -18q22 0 44.5 6t41.5 17.5t32.5 28t19.5 37.5v264z" />
    <glyph glyph-name="Emacron" unicode="&#x112;" horiz-adv-x="569" 
d="M98 0zM473 724q11 0 20 -8.5t9 -20.5q0 -11 -9 -20t-20 -9h-317v-259h271q12 0 20.5 -9t8.5 -20q0 -12 -8.5 -20.5t-20.5 -8.5h-271v-291h317q11 0 20 -9t9 -20q0 -12 -9 -20.5t-20 -8.5h-346q-11 0 -20 8.5t-9 20.5v666q0 12 9 20.5t20 8.5h346zM446 911q11 0 19 -7.5
t8 -18.5t-8 -18.5t-19 -7.5h-284q-11 0 -19 7.5t-8 18.5t8 18.5t19 7.5h284z" />
    <glyph glyph-name="emacron" unicode="&#x113;" horiz-adv-x="507" 
d="M52 0zM109 239q0 -42 10.5 -78t30.5 -62.5t49.5 -41.5t68.5 -15q25 0 43 6t31 16t22.5 22.5t18.5 25.5q9 14 23 14t22 -8.5t8 -19.5q0 -7 -4 -12q-12 -24 -30.5 -42.5t-41.5 -31t-49 -19t-53 -6.5q-49 0 -87 20t-64.5 55t-40.5 83.5t-14 104.5t14 103.5t40.5 82.5
t65.5 54.5t89 19.5q47 0 83 -18t60 -50t36 -77t12 -99q0 -12 -8 -19.5t-20 -7.5h-315zM395 293v4q0 32 -9.5 61t-27.5 50.5t-43.5 34t-57.5 12.5t-57.5 -12.5t-44.5 -34.5t-30 -51.5t-14 -63.5h284zM395 711q11 0 19 -8.5t8 -19.5t-8 -19.5t-19 -8.5h-284q-11 0 -19 8.5
t-8 19.5t8 19.5t19 8.5h284z" />
    <glyph glyph-name="Ebreve" unicode="&#x114;" horiz-adv-x="569" 
d="M98 0zM473 724q11 0 20 -8.5t9 -20.5q0 -11 -9 -20t-20 -9h-317v-259h271q12 0 20.5 -9t8.5 -20q0 -12 -8.5 -20.5t-20.5 -8.5h-271v-291h317q11 0 20 -9t9 -20q0 -12 -9 -20.5t-20 -8.5h-346q-11 0 -20 8.5t-9 20.5v666q0 12 9 20.5t20 8.5h346zM136 920q0 9 6 15t17 6
t19.5 -6t14.5 -11q20 -16 48.5 -26.5t62.5 -10.5t62.5 10.5t48.5 26.5q6 5 14.5 11t19.5 6t17 -6t6 -15q0 -14 -12.5 -26t-25.5 -20q-25 -16 -59 -27.5t-71 -11.5t-71 11.5t-59 27.5q-13 8 -25.5 20t-12.5 26z" />
    <glyph glyph-name="ebreve" unicode="&#x115;" horiz-adv-x="507" 
d="M52 0zM109 239q0 -42 10.5 -78t30.5 -62.5t49.5 -41.5t68.5 -15q25 0 43 6t31 16t22.5 22.5t18.5 25.5q9 14 23 14t22 -8.5t8 -19.5q0 -7 -4 -12q-12 -24 -30.5 -42.5t-41.5 -31t-49 -19t-53 -6.5q-49 0 -87 20t-64.5 55t-40.5 83.5t-14 104.5t14 103.5t40.5 82.5
t65.5 54.5t89 19.5q47 0 83 -18t60 -50t36 -77t12 -99q0 -12 -8 -19.5t-20 -7.5h-315zM395 293v4q0 32 -9.5 61t-27.5 50.5t-43.5 34t-57.5 12.5t-57.5 -12.5t-44.5 -34.5t-30 -51.5t-14 -63.5h284zM108 743q11 0 19.5 -6.5t14.5 -11.5q20 -17 48.5 -28.5t62.5 -11.5
t62.5 11.5t48.5 28.5q6 5 14.5 11.5t19.5 6.5t17 -6.5t6 -16.5q0 -14 -12.5 -27t-25.5 -22q-25 -17 -59 -29.5t-71 -12.5t-71 12.5t-59 29.5q-13 9 -25.5 22t-12.5 27q0 10 6 16.5t17 6.5z" />
    <glyph glyph-name="Edotaccent" unicode="&#x116;" horiz-adv-x="569" 
d="M98 0zM473 724q11 0 20 -8.5t9 -20.5q0 -11 -9 -20t-20 -9h-317v-259h271q12 0 20.5 -9t8.5 -20q0 -12 -8.5 -20.5t-20.5 -8.5h-271v-291h317q11 0 20 -9t9 -20q0 -12 -9 -20.5t-20 -8.5h-346q-11 0 -20 8.5t-9 20.5v666q0 12 9 20.5t20 8.5h346zM304 930q14 0 23.5 -9.5
t9.5 -23.5t-9.5 -23.5t-23.5 -9.5t-23.5 9.5t-9.5 23.5t9.5 23.5t23.5 9.5z" />
    <glyph glyph-name="edotaccent" unicode="&#x117;" horiz-adv-x="507" 
d="M52 0zM109 239q0 -42 10.5 -78t30.5 -62.5t49.5 -41.5t68.5 -15q25 0 43 6t31 16t22.5 22.5t18.5 25.5q9 14 23 14t22 -8.5t8 -19.5q0 -7 -4 -12q-12 -24 -30.5 -42.5t-41.5 -31t-49 -19t-53 -6.5q-49 0 -87 20t-64.5 55t-40.5 83.5t-14 104.5t14 103.5t40.5 82.5
t65.5 54.5t89 19.5q47 0 83 -18t60 -50t36 -77t12 -99q0 -12 -8 -19.5t-20 -7.5h-315zM395 293v4q0 32 -9.5 61t-27.5 50.5t-43.5 34t-57.5 12.5t-57.5 -12.5t-44.5 -34.5t-30 -51.5t-14 -63.5h284zM253 726q14 0 23.5 -9.5t9.5 -23.5t-9.5 -23.5t-23.5 -9.5t-23.5 9.5
t-9.5 23.5t9.5 23.5t23.5 9.5z" />
    <glyph glyph-name="Eogonek" unicode="&#x118;" horiz-adv-x="569" 
d="M473 724q11 0 20 -8.5t9 -20.5q0 -11 -9 -20t-20 -9h-317v-259h271q12 0 20.5 -9t8.5 -20q0 -12 -8.5 -20.5t-20.5 -8.5h-271v-291h317q11 0 20 -9t9 -20q0 -9 -5.5 -16.5t-13.5 -12.5q-41 -24 -71 -53.5t-30 -59.5q0 -24 17 -36.5t37 -12.5q21 0 36 4l8 2t9 1q9 0 14 -6
t5 -14q0 -14 -15 -21t-35.5 -9.5t-36.5 -2.5q-37 0 -61.5 20.5t-24.5 63.5q0 20 9 39t23 35t31 29t33 21h-304q-11 0 -20 8.5t-9 20.5v666q0 12 9 20.5t20 8.5h346z" />
    <glyph glyph-name="eogonek" unicode="&#x119;" horiz-adv-x="507" 
d="M109 239q0 -42 10.5 -78t30.5 -62.5t49.5 -41.5t68.5 -15q25 0 43 6t31 16t22.5 22.5t18.5 25.5q9 14 23 14t22 -8.5t8 -19.5q0 -7 -4 -12q-14 -32 -40.5 -54t-61.5 -33q-36 -22 -65 -51.5t-29 -60.5q0 -20 13.5 -34.5t44.5 -14.5q6 0 15 1t17 3q4 1 7.5 2t8.5 1
q10 0 15 -6t5 -14q0 -13 -14 -21q-16 -7 -36.5 -9.5t-33.5 -2.5q-44 0 -66.5 22.5t-22.5 57.5q0 37 22 65.5t52 49.5h-9q-47 0 -84.5 20t-63.5 55t-40 83.5t-14 104.5t14 103.5t40.5 82.5t65.5 54.5t89 19.5q47 0 83 -18t60 -50t36 -77t12 -99q0 -12 -8 -19.5t-20 -7.5h-315
zM395 293v4q0 32 -9.5 61t-27.5 50.5t-43.5 34t-57.5 12.5t-57.5 -12.5t-44.5 -34.5t-30 -51.5t-14 -63.5h284z" />
    <glyph glyph-name="Ecaron" unicode="&#x11a;" horiz-adv-x="569" 
d="M98 0zM473 724q11 0 20 -8.5t9 -20.5q0 -11 -9 -20t-20 -9h-317v-259h271q12 0 20.5 -9t8.5 -20q0 -12 -8.5 -20.5t-20.5 -8.5h-271v-291h317q11 0 20 -9t9 -20q0 -12 -9 -20.5t-20 -8.5h-346q-11 0 -20 8.5t-9 20.5v666q0 12 9 20.5t20 8.5h346zM304 829l99 131
q9 10 19 10q8 0 13.5 -5.5t5.5 -13.5q0 -5 -3 -11l-91 -144q-16 -26 -43 -26t-43 26l-91 144q-3 6 -3 11q0 8 5.5 13.5t13.5 5.5q10 0 19 -10z" />
    <glyph glyph-name="ecaron" unicode="&#x11b;" horiz-adv-x="507" 
d="M52 0zM109 239q0 -42 10.5 -78t30.5 -62.5t49.5 -41.5t68.5 -15q25 0 43 6t31 16t22.5 22.5t18.5 25.5q9 14 23 14t22 -8.5t8 -19.5q0 -7 -4 -12q-12 -24 -30.5 -42.5t-41.5 -31t-49 -19t-53 -6.5q-49 0 -87 20t-64.5 55t-40.5 83.5t-14 104.5t14 103.5t40.5 82.5
t65.5 54.5t89 19.5q47 0 83 -18t60 -50t36 -77t12 -99q0 -12 -8 -19.5t-20 -7.5h-315zM395 293v4q0 32 -9.5 61t-27.5 50.5t-43.5 34t-57.5 12.5t-57.5 -12.5t-44.5 -34.5t-30 -51.5t-14 -63.5h284zM253 623l99 140q8 11 19 11q8 0 13.5 -6t5.5 -14q0 -6 -3 -12l-91 -155
q-16 -28 -43 -28t-43 28l-91 155q-3 6 -3 12q0 8 5.5 14t13.5 6q11 0 19 -11z" />
    <glyph glyph-name="Gbreve" unicode="&#x11e;" horiz-adv-x="691" 
d="M66 0zM558 362q11 0 20 -8.5t9 -20.5v-271q-46 -38 -104 -56.5t-125 -18.5q-65 0 -118.5 25t-92 73t-60 117.5t-21.5 158.5q0 82 20.5 151.5t58 119t91 77.5t119.5 28q80 0 135.5 -31t101.5 -105q5 -8 5 -18q0 -11 -8.5 -20t-20.5 -9q-16 0 -23 13q-31 60 -77 86t-112 26
q-55 0 -98 -24t-73 -66.5t-45.5 -101t-15.5 -127.5q0 -75 17 -133.5t48.5 -99t77 -62t102.5 -21.5q52 0 92 14.5t69 34.5v211h-169q-11 0 -20 9t-9 20q0 12 9 20.5t20 8.5h197zM197 920q0 9 6 15t17 6t19.5 -6t14.5 -11q20 -16 48.5 -26.5t62.5 -10.5t62.5 10.5t48.5 26.5
q6 5 14.5 11t19.5 6t17 -6t6 -15q0 -14 -12.5 -26t-25.5 -20q-25 -16 -59 -27.5t-71 -11.5t-71 11.5t-59 27.5q-13 8 -25.5 20t-12.5 26z" />
    <glyph glyph-name="gbreve" unicode="&#x11f;" horiz-adv-x="506" 
d="M47 0zM439 0q0 -106 -45 -164.5t-138 -58.5q-31 0 -54.5 6t-40.5 14q-11 6 -17.5 10.5t-11.5 7.5t-8.5 6t-8.5 8q-6 6 -12 12.5t-6 16.5q0 12 8.5 20t20.5 8q8 0 14 -4t13 -11q14 -13 24 -20t26 -12q24 -8 50 -8q34 0 58.5 12t40.5 32t23.5 47.5t7.5 59.5v108
q-17 -21 -52.5 -41.5t-87.5 -20.5q-46 0 -82 19t-61.5 52t-39 78t-13.5 97q0 51 13.5 94.5t38.5 75t60.5 49t80.5 17.5t85 -16.5t59 -40.5q1 7 1.5 18t2.5 15q6 16 23 16q19 0 25 -24q3 -23 3 -101v-377zM383 401q-23 23 -59.5 38.5t-75.5 15.5q-70 0 -108 -50.5t-38 -132.5
q0 -38 8.5 -72t26.5 -60t46 -41.5t67 -15.5q42 0 79.5 18.5t53.5 53.5v246zM108 743q11 0 19.5 -6.5t14.5 -11.5q20 -17 48.5 -28.5t62.5 -11.5t62.5 11.5t48.5 28.5q6 5 14.5 11.5t19.5 6.5t17 -6.5t6 -16.5q0 -14 -12.5 -27t-25.5 -22q-25 -17 -59 -29.5t-71 -12.5
t-71 12.5t-59 29.5q-13 9 -25.5 22t-12.5 27q0 10 6 16.5t17 6.5z" />
    <glyph glyph-name="Gdotaccent" unicode="&#x120;" horiz-adv-x="691" 
d="M66 0zM558 362q11 0 20 -8.5t9 -20.5v-271q-46 -38 -104 -56.5t-125 -18.5q-65 0 -118.5 25t-92 73t-60 117.5t-21.5 158.5q0 82 20.5 151.5t58 119t91 77.5t119.5 28q80 0 135.5 -31t101.5 -105q5 -8 5 -18q0 -11 -8.5 -20t-20.5 -9q-16 0 -23 13q-31 60 -77 86t-112 26
q-55 0 -98 -24t-73 -66.5t-45.5 -101t-15.5 -127.5q0 -75 17 -133.5t48.5 -99t77 -62t102.5 -21.5q52 0 92 14.5t69 34.5v211h-169q-11 0 -20 9t-9 20q0 12 9 20.5t20 8.5h197zM365 930q14 0 23.5 -9.5t9.5 -23.5t-9.5 -23.5t-23.5 -9.5t-23.5 9.5t-9.5 23.5t9.5 23.5
t23.5 9.5z" />
    <glyph glyph-name="gdotaccent" unicode="&#x121;" horiz-adv-x="506" 
d="M47 0zM439 0q0 -106 -45 -164.5t-138 -58.5q-31 0 -54.5 6t-40.5 14q-11 6 -17.5 10.5t-11.5 7.5t-8.5 6t-8.5 8q-6 6 -12 12.5t-6 16.5q0 12 8.5 20t20.5 8q8 0 14 -4t13 -11q14 -13 24 -20t26 -12q24 -8 50 -8q34 0 58.5 12t40.5 32t23.5 47.5t7.5 59.5v108
q-17 -21 -52.5 -41.5t-87.5 -20.5q-46 0 -82 19t-61.5 52t-39 78t-13.5 97q0 51 13.5 94.5t38.5 75t60.5 49t80.5 17.5t85 -16.5t59 -40.5q1 7 1.5 18t2.5 15q6 16 23 16q19 0 25 -24q3 -23 3 -101v-377zM383 401q-23 23 -59.5 38.5t-75.5 15.5q-70 0 -108 -50.5t-38 -132.5
q0 -38 8.5 -72t26.5 -60t46 -41.5t67 -15.5q42 0 79.5 18.5t53.5 53.5v246zM253 726q14 0 23.5 -9.5t9.5 -23.5t-9.5 -23.5t-23.5 -9.5t-23.5 9.5t-9.5 23.5t9.5 23.5t23.5 9.5z" />
    <glyph glyph-name="Gcommaaccent" unicode="&#x122;" horiz-adv-x="691" 
d="M66 0zM558 362q11 0 20 -8.5t9 -20.5v-271q-46 -38 -104 -56.5t-125 -18.5q-65 0 -118.5 25t-92 73t-60 117.5t-21.5 158.5q0 82 20.5 151.5t58 119t91 77.5t119.5 28q80 0 135.5 -31t101.5 -105q5 -8 5 -18q0 -11 -8.5 -20t-20.5 -9q-16 0 -23 13q-31 60 -77 86t-112 26
q-55 0 -98 -24t-73 -66.5t-45.5 -101t-15.5 -127.5q0 -75 17 -133.5t48.5 -99t77 -62t102.5 -21.5q52 0 92 14.5t69 34.5v211h-169q-11 0 -20 9t-9 20q0 12 9 20.5t20 8.5h197zM344 -100q-9 6 -16.5 16t-7.5 25q0 14 8.5 25.5t26.5 11.5q17 0 26.5 -14t9.5 -47
q0 -20 -3.5 -44.5t-9.5 -45.5t-15 -35.5t-20 -14.5q-7 0 -10 5t-3 10q0 10 0.5 11l1.5 3q6 18 9.5 35t3.5 38v10t-1 11z" />
    <glyph glyph-name="gcommaaccent" unicode="&#x123;" horiz-adv-x="506" 
d="M47 0zM439 0q0 -106 -45 -164.5t-138 -58.5q-31 0 -54.5 6t-40.5 14q-11 6 -17.5 10.5t-11.5 7.5t-8.5 6t-8.5 8q-6 6 -12 12.5t-6 16.5q0 12 8.5 20t20.5 8q8 0 14 -4t13 -11q14 -13 24 -20t26 -12q24 -8 50 -8q34 0 58.5 12t40.5 32t23.5 47.5t7.5 59.5v108
q-17 -21 -52.5 -41.5t-87.5 -20.5q-46 0 -82 19t-61.5 52t-39 78t-13.5 97q0 51 13.5 94.5t38.5 75t60.5 49t80.5 17.5t85 -16.5t59 -40.5q1 7 1.5 18t2.5 15q6 16 23 16q19 0 25 -24q3 -23 3 -101v-377zM383 401q-23 23 -59.5 38.5t-75.5 15.5q-70 0 -108 -50.5t-38 -132.5
q0 -38 8.5 -72t26.5 -60t46 -41.5t67 -15.5q42 0 79.5 18.5t53.5 53.5v246zM263 623q10 -7 17.5 -17t7.5 -25t-8.5 -26t-26.5 -11q-36 0 -36 61q0 18 3 42.5t9 46.5t15 37t21 15q8 0 10.5 -6t2.5 -14q0 -5 -0.5 -6l-1.5 -3q-7 -19 -10.5 -36t-3.5 -38v-10t1 -10z" />
    <glyph glyph-name="Hcircumflex" unicode="&#x124;" horiz-adv-x="678" 
d="M98 0zM156 410h367v291q0 12 8.5 20.5t20.5 8.5q11 0 19.5 -8.5t8.5 -20.5v-677q0 -12 -8.5 -20.5t-19.5 -8.5q-12 0 -20.5 8.5t-8.5 20.5v327h-367v-327q0 -12 -8.5 -20.5t-20.5 -8.5q-11 0 -20 8.5t-9 20.5v677q0 12 9 20.5t20 8.5q12 0 20.5 -8.5t8.5 -20.5v-291z
M298 944q16 26 43 26t43 -26l91 -144q3 -6 3 -11q0 -8 -5.5 -13.5t-13.5 -5.5q-10 0 -19 10l-99 130l-99 -130q-9 -10 -19 -10q-8 0 -13.5 5.5t-5.5 13.5q0 5 3 11z" />
    <glyph glyph-name="hcircumflex" unicode="&#x125;" horiz-adv-x="534" 
d="M0 0zM139 448q16 21 51.5 41.5t87.5 20.5q42 0 73.5 -15.5t52.5 -42t32 -62.5t11 -77v-192q0 -25 3 -47.5t7 -42.5q1 -2 1.5 -4t0.5 -5q0 -11 -8 -19t-20 -8q-22 0 -29 27q-5 20 -8 48t-3 50v197q0 24 -6 48.5t-20.5 44.5t-37.5 32.5t-57 12.5q-42 0 -79.5 -19.5
t-51.5 -52.5v-360q0 -12 -8.5 -20t-19.5 -8q-12 0 -20 8t-8 20v705q0 12 8 20t20 8q11 0 19.5 -8t8.5 -20v-280zM70 944q16 26 43 26t43 -26l91 -144q3 -6 3 -11q0 -8 -5.5 -13.5t-13.5 -5.5q-10 0 -19 10l-99 130l-99 -130q-9 -10 -19 -10q-8 0 -13.5 5.5t-5.5 13.5
q0 5 3 11z" />
    <glyph glyph-name="Hbar" unicode="&#x126;" horiz-adv-x="678" 
d="M156 606h367v95q0 12 8.5 20.5t20.5 8.5q11 0 19.5 -8.5t8.5 -20.5v-677q0 -12 -8.5 -20.5t-19.5 -8.5q-12 0 -20.5 8.5t-8.5 20.5v327h-367v-327q0 -12 -8.5 -20.5t-20.5 -8.5q-11 0 -20 8.5t-9 20.5v677q0 12 9 20.5t20 8.5q12 0 20.5 -8.5t8.5 -20.5v-95zM156 410h367
v140h-367v-140z" />
    <glyph glyph-name="hbar" unicode="&#x127;" horiz-adv-x="534" 
d="M83 681v47q0 12 8 20t20 8q11 0 19.5 -8t8.5 -20v-47h98q11 0 19.5 -8.5t8.5 -19.5t-8.5 -19.5t-19.5 -8.5h-98v-177q16 21 51.5 41.5t87.5 20.5q42 0 73.5 -15.5t52.5 -42t32 -62.5t11 -77v-192q0 -25 3 -47.5t7 -42.5q1 -2 1.5 -4t0.5 -5q0 -11 -8 -19t-20 -8
q-22 0 -29 27q-5 20 -8 48t-3 50v197q0 24 -6 48.5t-20.5 44.5t-37.5 32.5t-57 12.5q-42 0 -79.5 -19.5t-51.5 -52.5v-360q0 -12 -8.5 -20t-19.5 -8q-12 0 -20 8t-8 20v602h-29q-11 0 -19.5 8.5t-8.5 19.5t8.5 19.5t19.5 8.5h29z" />
    <glyph glyph-name="Itilde" unicode="&#x128;" horiz-adv-x="313" 
d="M0 0zM186 24q0 -12 -9 -20.5t-20 -8.5q-12 0 -20.5 8.5t-8.5 20.5v677q0 12 8.5 20.5t20.5 8.5q11 0 20 -8.5t9 -20.5v-677zM8 899q7 11 21.5 21t38.5 10q18 0 41 -6.5t47 -15t46.5 -15t39.5 -6.5q20 0 29 11q4 5 7 13t4 10q4 10 18 10q17 0 17 -19q0 -8 -3 -20t-9 -22
q-7 -11 -21.5 -20.5t-38.5 -9.5q-18 0 -41 6.5t-47 14.5t-47 14.5t-39 6.5q-21 0 -29 -11q-4 -5 -7 -12.5t-4 -9.5q-4 -10 -18 -10q-17 0 -17 18q0 9 3 20.5t9 21.5z" />
    <glyph glyph-name="itilde" unicode="&#x129;" horiz-adv-x="320" 
d="M0 0zM185 121q0 -25 3 -47.5t7 -42.5q1 -2 1.5 -4t0.5 -5q0 -11 -7.5 -19t-21.5 -8q-21 0 -28 27q-4 14 -7.5 41.5t-3.5 56.5v355q0 11 8 19.5t20 8.5q11 0 19.5 -8.5t8.5 -19.5v-354zM12 698q7 12 21.5 22.5t38.5 10.5q18 0 41 -7t47 -16t46.5 -16t39.5 -7q20 0 29 12
q4 5 7 13.5t4 10.5q4 11 18 11q17 0 17 -20q0 -9 -3 -21.5t-9 -23.5q-7 -12 -21.5 -22.5t-38.5 -10.5q-18 0 -41 7t-47 16t-47 16t-39 7q-20 0 -29 -12q-4 -5 -7 -13.5t-4 -10.5q-4 -11 -18 -11q-17 0 -17 20q0 9 3 21.5t9 23.5z" />
    <glyph glyph-name="Imacron" unicode="&#x12a;" horiz-adv-x="330" 
d="M0 0zM194 24q0 -12 -9 -20.5t-20 -8.5q-12 0 -20.5 8.5t-8.5 20.5v677q0 12 8.5 20.5t20.5 8.5q11 0 20 -8.5t9 -20.5v-677zM307 911q11 0 19 -7.5t8 -18.5t-8 -18.5t-19 -7.5h-284q-11 0 -19 7.5t-8 18.5t8 18.5t19 7.5h284z" />
    <glyph glyph-name="imacron" unicode="&#x12b;" horiz-adv-x="330" 
d="M0 0zM189 121q0 -25 3 -47.5t7 -42.5q1 -2 1.5 -4t0.5 -5q0 -11 -7.5 -19t-21.5 -8q-21 0 -28 27q-4 14 -7.5 41.5t-3.5 56.5v355q0 11 8 19.5t20 8.5q11 0 19.5 -8.5t8.5 -19.5v-354zM307 711q11 0 19 -8.5t8 -19.5t-8 -19.5t-19 -8.5h-284q-11 0 -19 8.5t-8 19.5
t8 19.5t19 8.5h284z" />
    <glyph glyph-name="Ibreve" unicode="&#x12c;" horiz-adv-x="287" 
d="M0 0zM173 24q0 -12 -9 -20.5t-20 -8.5q-12 0 -20.5 8.5t-8.5 20.5v677q0 12 8.5 20.5t20.5 8.5q11 0 20 -8.5t9 -20.5v-677zM-24 920q0 9 6 15t17 6t19.5 -6t14.5 -11q20 -16 48.5 -26.5t62.5 -10.5t62.5 10.5t48.5 26.5q6 5 14.5 11t19.5 6t17 -6t6 -15q0 -14 -12.5 -26
t-25.5 -20q-25 -16 -59 -27.5t-71 -11.5t-71 11.5t-59 27.5q-13 8 -25.5 20t-12.5 26z" />
    <glyph glyph-name="ibreve" unicode="&#x12d;" horiz-adv-x="319" 
d="M0 0zM184 121q0 -25 3 -47.5t7 -42.5q1 -2 1.5 -4t0.5 -5q0 -11 -7.5 -19t-21.5 -8q-21 0 -28 27q-4 14 -7.5 41.5t-3.5 56.5v355q0 11 8 19.5t20 8.5q11 0 19.5 -8.5t8.5 -19.5v-354zM15 743q11 0 19.5 -6.5t14.5 -11.5q20 -17 48.5 -28.5t62.5 -11.5t62.5 11.5
t48.5 28.5q6 5 14.5 11.5t19.5 6.5t17 -6.5t6 -16.5q0 -14 -12.5 -27t-25.5 -22q-25 -17 -59 -29.5t-71 -12.5t-71 12.5t-59 29.5q-13 9 -25.5 22t-12.5 27q0 10 6 16.5t17 6.5z" />
    <glyph glyph-name="Iogonek" unicode="&#x12e;" horiz-adv-x="278" 
d="M169 24q0 -8 -4 -14t-9 -10q-10 -8 -26.5 -18.5t-32 -24.5t-27 -31t-11.5 -38q0 -22 14.5 -36t43.5 -14q6 0 15 1t17 3l8 2t9 1q10 0 14.5 -6t4.5 -14q0 -13 -14 -21q-16 -7 -36.5 -9.5t-33.5 -2.5q-44 0 -66.5 22.5t-22.5 57.5q0 22 8.5 41.5t22.5 36t31 29t35 21.5l8 5
q-6 7 -6 19v677q0 12 8.5 20.5t20.5 8.5q11 0 20 -8.5t9 -20.5v-677z" />
    <glyph glyph-name="iogonek" unicode="&#x12f;" horiz-adv-x="231" 
d="M140 121q0 -23 3.5 -49.5t6.5 -40.5q1 -3 1.5 -5t0.5 -6q0 -10 -4 -14.5t-11 -9.5q-10 -7 -26 -17t-31 -23.5t-26 -30.5t-11 -38q0 -23 15.5 -36t45.5 -13q12 0 29 4q12 3 18 3q8 0 13.5 -6t5.5 -14q0 -14 -15 -21q-7 -3 -17 -5.5t-20 -4t-19.5 -2t-15.5 -0.5
q-41 0 -63.5 22.5t-22.5 57.5q0 22 9 42t23.5 36.5t33.5 30t39 23.5l-4 8t-3 10q-5 23 -8 47t-3 51v355q0 11 8 19.5t20 8.5q11 0 19.5 -8.5t8.5 -19.5v-354zM112 726q14 0 23.5 -9.5t9.5 -23.5t-9.5 -23.5t-23.5 -9.5t-23.5 9.5t-9.5 23.5t9.5 23.5t23.5 9.5z" />
    <glyph glyph-name="Idotaccent" unicode="&#x130;" horiz-adv-x="254" 
d="M94 0zM156 24q0 -12 -9 -20.5t-20 -8.5q-12 0 -20.5 8.5t-8.5 20.5v677q0 12 8.5 20.5t20.5 8.5q11 0 20 -8.5t9 -20.5v-677zM127 930q14 0 23.5 -9.5t9.5 -23.5t-9.5 -23.5t-23.5 -9.5t-23.5 9.5t-9.5 23.5t9.5 23.5t23.5 9.5z" />
    <glyph glyph-name="dotlessi" unicode="&#x131;" horiz-adv-x="231" 
d="M140 121q0 -25 3 -47.5t7 -42.5q1 -2 1.5 -4t0.5 -5q0 -11 -7.5 -19t-21.5 -8q-21 0 -28 27q-4 14 -7.5 41.5t-3.5 56.5v355q0 11 8 19.5t20 8.5q11 0 19.5 -8.5t8.5 -19.5v-354z" />
    <glyph glyph-name="IJ" unicode="&#x132;" horiz-adv-x="710" 
d="M98 0zM156 24q0 -12 -9 -20.5t-20 -8.5q-12 0 -20.5 8.5t-8.5 20.5v677q0 12 8.5 20.5t20.5 8.5q11 0 20 -8.5t9 -20.5v-677zM615 250q0 -58 -14 -106t-39.5 -83t-62 -54.5t-82.5 -19.5q-28 0 -52 7t-43.5 18t-34.5 24.5t-25 27.5q-9 11 -12 19t-3 13q0 12 7.5 20.5
t21.5 8.5q19 0 27 -18q17 -33 46 -48.5t67 -15.5q33 0 59 15t44 41.5t28 63t10 79.5v459q0 12 8.5 20.5t20.5 8.5q11 0 20 -8.5t9 -20.5v-451z" />
    <glyph glyph-name="ij" unicode="&#x133;" horiz-adv-x="448" 
d="M79 0zM140 121q0 -25 3 -47.5t7 -42.5q1 -2 1.5 -4t0.5 -5q0 -11 -7.5 -19t-21.5 -8q-21 0 -28 27q-4 14 -7.5 41.5t-3.5 56.5v355q0 11 8 19.5t20 8.5q11 0 19.5 -8.5t8.5 -19.5v-354zM112 726q14 0 23.5 -9.5t9.5 -23.5t-9.5 -23.5t-23.5 -9.5t-23.5 9.5t-9.5 23.5
t9.5 23.5t23.5 9.5zM365 -67q0 -71 -22.5 -113.5t-83.5 -42.5q-11 0 -26 1.5t-23 4.5q-6 2 -12 6t-8 6q-9 9 -9 20t8.5 19.5t19.5 8.5q6 0 10.5 -2t8.5 -4q8 -5 12 -5.5t12 -0.5q36 1 46.5 25.5t10.5 78.5v540q0 11 8 19.5t20 8.5q11 0 19.5 -8.5t8.5 -19.5v-542zM337 726
q14 0 23.5 -9.5t9.5 -23.5t-9.5 -23.5t-23.5 -9.5t-23.5 9.5t-9.5 23.5t9.5 23.5t23.5 9.5z" />
    <glyph glyph-name="Jcircumflex" unicode="&#x134;" horiz-adv-x="472" 
d="M13 0zM381 250q0 -58 -14 -106t-39.5 -83t-62 -54.5t-82.5 -19.5q-28 0 -52 7t-43.5 18t-34.5 24.5t-25 27.5q-9 11 -12 19t-3 13q0 12 7.5 20.5t21.5 8.5q19 0 27 -18q17 -33 46 -48.5t67 -15.5q33 0 59 15t44 41.5t28 63t10 79.5v459q0 12 8.5 20.5t20.5 8.5
q11 0 20 -8.5t9 -20.5v-451zM307 944q16 26 43 26t43 -26l91 -144q3 -6 3 -11q0 -8 -5.5 -13.5t-13.5 -5.5q-10 0 -19 10l-99 130l-99 -130q-9 -10 -19 -10q-8 0 -13.5 5.5t-5.5 13.5q0 5 3 11z" />
    <glyph glyph-name="jcircumflex" unicode="&#x135;" horiz-adv-x="251" 
d="M0 0zM97 746q16 28 43 28t43 -28l91 -155q3 -6 3 -12q0 -8 -5.5 -14t-13.5 -6q-11 0 -19 11l-99 140l-99 -140q-8 -11 -19 -11q-8 0 -13.5 6t-5.5 14q0 6 3 12zM168 -67q0 -71 -22.5 -113.5t-83.5 -42.5q-11 0 -26 1.5t-23 4.5q-6 2 -12 6t-8 6q-9 9 -9 20t8.5 19.5
t19.5 8.5q6 0 10.5 -2t8.5 -4q8 -5 12 -5.5t12 -0.5q36 1 46.5 25.5t10.5 78.5v540q0 11 8 19.5t20 8.5q11 0 19.5 -8.5t8.5 -19.5v-542z" />
    <glyph glyph-name="Kcommaaccent" unicode="&#x136;" horiz-adv-x="545" 
d="M98 0zM156 406h116l188 310q8 14 23 14q11 0 19 -7.5t8 -19.5q0 -8 -4 -15l-186 -304l208 -340q6 -11 6 -19q0 -12 -9.5 -21t-23.5 -9q-18 0 -28 17l-203 339h-114v-327q0 -13 -7.5 -21t-20.5 -8q-14 0 -22 8.5t-8 20.5v677q0 12 8.5 20.5t20.5 8.5q11 0 20 -8.5t9 -20.5
v-295zM281 -100q-9 6 -16.5 16t-7.5 25q0 14 8.5 25.5t26.5 11.5q17 0 26.5 -14t9.5 -47q0 -20 -3.5 -44.5t-9.5 -45.5t-15 -35.5t-20 -14.5q-7 0 -10 5t-3 10q0 10 0.5 11l1.5 3q6 18 9.5 35t3.5 38v10t-1 11z" />
    <glyph glyph-name="kcommaaccent" unicode="&#x137;" horiz-adv-x="474" 
d="M89 0zM145 281h102l131 205q11 17 24 17q11 0 18.5 -7.5t7.5 -18.5q0 -5 -2 -8.5t-4 -8.5l-128 -200l144 -219q6 -8 6 -18q0 -13 -8.5 -20.5t-20.5 -7.5q-15 0 -24 12l-143 222h-103v-206q0 -12 -8.5 -20t-19.5 -8q-12 0 -20 8t-8 20v705q0 12 8 20t20 8q11 0 19.5 -8
t8.5 -20v-447zM235 -100q-9 6 -16.5 16t-7.5 25q0 14 8.5 25.5t26.5 11.5q17 0 26.5 -14t9.5 -47q0 -20 -3.5 -44.5t-9.5 -45.5t-15 -35.5t-20 -14.5q-7 0 -10 5t-3 10q0 10 0.5 11l1.5 3q6 18 9.5 35t3.5 38v10t-1 11z" />
    <glyph glyph-name="Lacute" unicode="&#x139;" horiz-adv-x="516" 
d="M98 0zM156 58h302q12 0 20.5 -9t8.5 -20q0 -12 -8.5 -20.5t-20.5 -8.5h-331q-11 0 -20 8.5t-9 20.5v672q0 12 9 20.5t20 8.5q12 0 20.5 -8.5t8.5 -20.5v-643zM210 952q10 18 29 18q12 0 22 -8.5t10 -22.5q0 -9 -6 -18l-109 -142q-6 -9 -17 -9q-8 0 -14 5t-6 14q0 5 3 11z
" />
    <glyph glyph-name="lacute" unicode="&#x13a;" horiz-adv-x="238" 
d="M84 0zM140 121q0 -25 3 -47.5t7 -42.5q2 -8 2 -9q0 -12 -8 -19.5t-20 -7.5q-23 0 -29 27q-5 23 -8 47t-3 51v608q0 12 8 20t20 8q11 0 19.5 -8t8.5 -20v-607zM176 952q10 18 29 18q12 0 22 -8.5t10 -22.5q0 -9 -6 -18l-109 -142q-6 -9 -17 -9q-8 0 -14 5t-6 14q0 5 3 11z
" />
    <glyph glyph-name="Lcommaaccent" unicode="&#x13b;" horiz-adv-x="516" 
d="M98 0zM156 58h302q12 0 20.5 -9t8.5 -20q0 -12 -8.5 -20.5t-20.5 -8.5h-331q-11 0 -20 8.5t-9 20.5v672q0 12 9 20.5t20 8.5q12 0 20.5 -8.5t8.5 -20.5v-643zM266 -100q-9 6 -16.5 16t-7.5 25q0 14 8.5 25.5t26.5 11.5q17 0 26.5 -14t9.5 -47q0 -20 -3.5 -44.5
t-9.5 -45.5t-15 -35.5t-20 -14.5q-7 0 -10 5t-3 10q0 10 0.5 11l1.5 3q6 18 9.5 35t3.5 38v10t-1 11z" />
    <glyph glyph-name="lcommaaccent" unicode="&#x13c;" horiz-adv-x="224" 
d="M76 0zM140 121q0 -25 3 -47.5t7 -42.5q2 -8 2 -9q0 -12 -8 -19.5t-20 -7.5q-23 0 -29 27q-5 23 -8 47t-3 51v608q0 12 8 20t20 8q11 0 19.5 -8t8.5 -20v-607zM100 -100q-9 6 -16.5 16t-7.5 25q0 14 8.5 25.5t26.5 11.5q17 0 26.5 -14t9.5 -47q0 -20 -3.5 -44.5
t-9.5 -45.5t-15 -35.5t-20 -14.5q-7 0 -10 5t-3 10q0 10 0.5 11l1.5 3q6 18 9.5 35t3.5 38v10t-1 11z" />
    <glyph glyph-name="Lcaron" unicode="&#x13d;" horiz-adv-x="516" 
d="M98 0zM156 58h302q12 0 20.5 -9t8.5 -20q0 -12 -8.5 -20.5t-20.5 -8.5h-331q-11 0 -20 8.5t-9 20.5v672q0 12 9 20.5t20 8.5q12 0 20.5 -8.5t8.5 -20.5v-643zM306 652q-9 6 -16.5 16t-7.5 25q0 14 8.5 25.5t26.5 11.5q17 0 26.5 -14t9.5 -47q0 -20 -3.5 -44.5t-9.5 -45.5
t-15 -35.5t-20 -14.5q-7 0 -10 5t-3 10q0 10 0.5 11l1.5 3q6 18 9.5 35t3.5 38v10t-1 11z" />
    <glyph glyph-name="lcaron" unicode="&#x13e;" horiz-adv-x="224" 
d="M84 0zM140 121q0 -25 3 -47.5t7 -42.5q2 -8 2 -9q0 -12 -8 -19.5t-20 -7.5q-23 0 -29 27q-5 23 -8 47t-3 51v608q0 12 8 20t20 8q11 0 19.5 -8t8.5 -20v-607zM234 678q-9 6 -16.5 16t-7.5 25q0 14 8.5 25.5t26.5 11.5q17 0 26.5 -14t9.5 -47q0 -20 -3.5 -44.5t-9.5 -45.5
t-15 -35.5t-20 -14.5q-7 0 -10 5t-3 10q0 10 0.5 11l1.5 3q6 18 9.5 35t3.5 38v10t-1 11z" />
    <glyph glyph-name="Lslash" unicode="&#x141;" horiz-adv-x="502" 
d="M142 431l90 41q8 2 10 2q8 0 13.5 -6t5.5 -15q0 -13 -13 -19l-106 -47v-329h302q11 0 20 -9t9 -20q0 -12 -9 -20.5t-20 -8.5h-331q-12 0 -20.5 8.5t-8.5 20.5v332l-48 -21q-2 -2 -4.5 -2h-4.5q-11 1 -16 7t-5 14q0 11 14 19l64 28v295q0 12 8.5 20.5t20.5 8.5
q11 0 20 -8.5t9 -20.5v-270z" />
    <glyph glyph-name="lslash" unicode="&#x142;" horiz-adv-x="227" 
d="M140 455l52 24q5 1 6.5 1.5t4.5 0.5q8 0 13 -6t5 -15q0 -14 -12 -18l-69 -31v-290q0 -25 3 -47.5t7 -42.5q1 -2 1.5 -4t0.5 -5q0 -11 -8 -19t-19 -8q-14 0 -22 12t-12 30t-5.5 40t-1.5 43v265l-49 -22q-2 -2 -4.5 -2h-4.5q-11 1 -16 7t-5 14q0 12 14 18l65 29v299
q0 12 8 20t20 8q11 0 19.5 -8t8.5 -20v-273z" />
    <glyph glyph-name="Nacute" unicode="&#x143;" horiz-adv-x="703" 
d="M98 0zM547 109v592q0 12 9 20.5t20 8.5q12 0 20.5 -8.5t8.5 -20.5v-678q0 -12 -8.5 -20t-22.5 -8q-11 0 -18 4.5t-11 10.5l-389 607v-593q0 -12 -8.5 -20.5t-20.5 -8.5q-11 0 -20 8.5t-9 20.5v678q0 12 9 20t22 8q11 0 18 -4.5t11 -10.5zM396 952q10 18 29 18
q12 0 22 -8.5t10 -22.5q0 -9 -6 -18l-109 -142q-6 -9 -17 -9q-8 0 -14 5t-6 14q0 5 3 11z" />
    <glyph glyph-name="nacute" unicode="&#x144;" 
d="M55 0zM123 23q0 -12 -8 -20t-20 -8q-11 0 -19.5 8t-8.5 20v353q0 25 -3 48t-7 43q-2 6 -2 10q0 10 7.5 18t20.5 8t19.5 -8t9.5 -19q2 -8 4 -21.5t3 -21.5q22 35 61 56t86 21q39 0 70 -15.5t52 -42t32 -62.5t11 -77v-192q0 -25 3 -48t8 -42q1 -3 1.5 -5.5t0.5 -5.5
q0 -10 -8 -17.5t-21 -7.5q-21 0 -28 27q-4 14 -7.5 41.5t-3.5 56.5v197q0 24 -6.5 48.5t-20.5 44.5t-36 32.5t-54 12.5q-19 0 -39 -5t-38.5 -16t-34 -27.5t-24.5 -40.5v-343zM304 755q10 19 29 19q12 0 22 -9.5t10 -23.5q0 -10 -6 -20l-109 -152q-6 -10 -17 -10
q-8 0 -14 5.5t-6 14.5q0 6 3 12z" />
    <glyph glyph-name="Ncommaaccent" unicode="&#x145;" horiz-adv-x="703" 
d="M98 0zM547 109v592q0 12 9 20.5t20 8.5q12 0 20.5 -8.5t8.5 -20.5v-678q0 -12 -8.5 -20t-22.5 -8q-11 0 -18 4.5t-11 10.5l-389 607v-593q0 -12 -8.5 -20.5t-20.5 -8.5q-11 0 -20 8.5t-9 20.5v678q0 12 9 20t22 8q11 0 18 -4.5t11 -10.5zM340 -100q-9 6 -16.5 16t-7.5 25
q0 14 8.5 25.5t26.5 11.5q17 0 26.5 -14t9.5 -47q0 -20 -3.5 -44.5t-9.5 -45.5t-15 -35.5t-20 -14.5q-7 0 -10 5t-3 10q0 10 0.5 11l1.5 3q6 18 9.5 35t3.5 38v10t-1 11z" />
    <glyph glyph-name="ncommaaccent" unicode="&#x146;" 
d="M55 0zM123 23q0 -12 -8 -20t-20 -8q-11 0 -19.5 8t-8.5 20v353q0 25 -3 48t-7 43q-2 6 -2 10q0 10 7.5 18t20.5 8t19.5 -8t9.5 -19q2 -8 4 -21.5t3 -21.5q22 35 61 56t86 21q39 0 70 -15.5t52 -42t32 -62.5t11 -77v-192q0 -25 3 -48t8 -42q1 -3 1.5 -5.5t0.5 -5.5
q0 -10 -8 -17.5t-21 -7.5q-21 0 -28 27q-4 14 -7.5 41.5t-3.5 56.5v197q0 24 -6.5 48.5t-20.5 44.5t-36 32.5t-54 12.5q-19 0 -39 -5t-38.5 -16t-34 -27.5t-24.5 -40.5v-343zM247 -100q-9 6 -16.5 16t-7.5 25q0 14 8.5 25.5t26.5 11.5q17 0 26.5 -14t9.5 -47
q0 -20 -3.5 -44.5t-9.5 -45.5t-15 -35.5t-20 -14.5q-7 0 -10 5t-3 10q0 10 0.5 11l1.5 3q6 18 9.5 35t3.5 38v10t-1 11z" />
    <glyph glyph-name="Ncaron" unicode="&#x147;" horiz-adv-x="703" 
d="M98 0zM547 109v592q0 12 9 20.5t20 8.5q12 0 20.5 -8.5t8.5 -20.5v-678q0 -12 -8.5 -20t-22.5 -8q-11 0 -18 4.5t-11 10.5l-389 607v-593q0 -12 -8.5 -20.5t-20.5 -8.5q-11 0 -20 8.5t-9 20.5v678q0 12 9 20t22 8q11 0 18 -4.5t11 -10.5zM351 829l99 131q9 10 19 10
q8 0 13.5 -5.5t5.5 -13.5q0 -5 -3 -11l-91 -144q-16 -26 -43 -26t-43 26l-91 144q-3 6 -3 11q0 8 5.5 13.5t13.5 5.5q10 0 19 -10z" />
    <glyph glyph-name="ncaron" unicode="&#x148;" 
d="M55 0zM123 23q0 -12 -8 -20t-20 -8q-11 0 -19.5 8t-8.5 20v353q0 25 -3 48t-7 43q-2 6 -2 10q0 10 7.5 18t20.5 8t19.5 -8t9.5 -19q2 -8 4 -21.5t3 -21.5q22 35 61 56t86 21q39 0 70 -15.5t52 -42t32 -62.5t11 -77v-192q0 -25 3 -48t8 -42q1 -3 1.5 -5.5t0.5 -5.5
q0 -10 -8 -17.5t-21 -7.5q-21 0 -28 27q-4 14 -7.5 41.5t-3.5 56.5v197q0 24 -6.5 48.5t-20.5 44.5t-36 32.5t-54 12.5q-19 0 -39 -5t-38.5 -16t-34 -27.5t-24.5 -40.5v-343zM259 623l99 140q8 11 19 11q8 0 13.5 -6t5.5 -14q0 -6 -3 -12l-91 -155q-16 -28 -43 -28t-43 28
l-91 155q-3 6 -3 12q0 8 5.5 14t13.5 6q11 0 19 -11z" />
    <glyph glyph-name="Eng" unicode="&#x14a;" horiz-adv-x="663" 
d="M569 -67q0 -71 -23 -113.5t-84 -42.5q-11 0 -26 1.5t-23 4.5q-6 2 -12 6t-8 6q-9 9 -9 20t8.5 19.5t19.5 8.5q6 0 10.5 -2t8.5 -4q8 -5 12 -5.5t12 -0.5q36 1 46.5 25.5t10.5 78.5v537q0 46 -12 84t-34 65.5t-54 42.5t-72 15q-68 0 -112.5 -40.5t-75.5 -101.5v-505
q0 -12 -9 -20.5t-20 -8.5q-12 0 -20.5 8.5t-8.5 20.5v669q0 12 8.5 20.5t20.5 8.5q11 0 20 -8.5t9 -20.5v-72q15 20 33.5 39.5t42.5 34.5t53.5 24t64.5 9q52 0 93 -20t70 -55t44.5 -83t15.5 -104v-541v0z" />
    <glyph glyph-name="eng" unicode="&#x14b;" horiz-adv-x="509" 
d="M123 23q0 -12 -8 -20t-20 -8q-11 0 -19.5 8t-8.5 20v353q0 41 -6 63.5t-6 35.5q0 14 8.5 21t19.5 7t17.5 -6.5t10 -17t5.5 -23t3 -23.5q22 35 61 56t86 21q39 0 70 -15.5t52 -42t32 -62.5t11 -77v-380q0 -36 -5 -65t-17.5 -49.5t-33.5 -31t-54 -10.5q-11 0 -24 1.5
t-24 5.5t-18 11.5t-7 18.5q0 13 8.5 21t19.5 8q12 0 21 -6t26 -6q30 0 41.5 27t11.5 77v382q0 24 -6.5 48.5t-20.5 44.5t-36 32.5t-54 12.5q-19 0 -39 -5t-38.5 -16t-34 -27.5t-24.5 -40.5v-343z" />
    <glyph glyph-name="Omacron" unicode="&#x14c;" horiz-adv-x="728" 
d="M69 0zM363 737q66 0 120.5 -25.5t93.5 -74t60.5 -118.5t21.5 -158t-21.5 -157.5t-60 -117.5t-93 -73.5t-120.5 -25.5t-120.5 25.5t-93 74t-60 118t-21.5 157.5t21.5 157.5t60 118t92.5 74t120 25.5zM364 679q-57 0 -101.5 -23.5t-74.5 -65.5t-45.5 -100.5t-15.5 -128.5
q0 -71 15.5 -129t45.5 -100t74.5 -65t101.5 -23t101.5 23t74.5 65t45.5 100t15.5 129t-15.5 129.5t-45.5 100.5t-74.5 65t-101.5 23zM506 911q11 0 19 -7.5t8 -18.5t-8 -18.5t-19 -7.5h-284q-11 0 -19 7.5t-8 18.5t8 18.5t19 7.5h284z" />
    <glyph glyph-name="omacron" unicode="&#x14d;" 
d="M46 0zM259 455q-38 0 -67.5 -16.5t-49.5 -45t-30.5 -66t-10.5 -78.5t10.5 -79t30.5 -66.5t49.5 -45.5t67.5 -17t67.5 17t49.5 45.5t30.5 66.5t10.5 79t-10.5 78.5t-30.5 66t-49.5 45t-67.5 16.5zM259 510q51 0 91 -20.5t67.5 -55.5t41.5 -82.5t14 -102.5t-14.5 -102.5
t-41.5 -83t-67 -56t-91 -20.5t-91 20.5t-67 56t-41 83t-14 102.5t14 102.5t41 82.5t66.5 55.5t91.5 20.5zM401 711q11 0 19 -8.5t8 -19.5t-8 -19.5t-19 -8.5h-284q-11 0 -19 8.5t-8 19.5t8 19.5t19 8.5h284z" />
    <glyph glyph-name="Obreve" unicode="&#x14e;" horiz-adv-x="728" 
d="M69 0zM363 737q66 0 120.5 -25.5t93.5 -74t60.5 -118.5t21.5 -158t-21.5 -157.5t-60 -117.5t-93 -73.5t-120.5 -25.5t-120.5 25.5t-93 74t-60 118t-21.5 157.5t21.5 157.5t60 118t92.5 74t120 25.5zM364 679q-57 0 -101.5 -23.5t-74.5 -65.5t-45.5 -100.5t-15.5 -128.5
q0 -71 15.5 -129t45.5 -100t74.5 -65t101.5 -23t101.5 23t74.5 65t45.5 100t15.5 129t-15.5 129.5t-45.5 100.5t-74.5 65t-101.5 23zM196 920q0 9 6 15t17 6t19.5 -6t14.5 -11q20 -16 48.5 -26.5t62.5 -10.5t62.5 10.5t48.5 26.5q6 5 14.5 11t19.5 6t17 -6t6 -15
q0 -14 -12.5 -26t-25.5 -20q-25 -16 -59 -27.5t-71 -11.5t-71 11.5t-59 27.5q-13 8 -25.5 20t-12.5 26z" />
    <glyph glyph-name="obreve" unicode="&#x14f;" 
d="M46 0zM259 455q-38 0 -67.5 -16.5t-49.5 -45t-30.5 -66t-10.5 -78.5t10.5 -79t30.5 -66.5t49.5 -45.5t67.5 -17t67.5 17t49.5 45.5t30.5 66.5t10.5 79t-10.5 78.5t-30.5 66t-49.5 45t-67.5 16.5zM259 510q51 0 91 -20.5t67.5 -55.5t41.5 -82.5t14 -102.5t-14.5 -102.5
t-41.5 -83t-67 -56t-91 -20.5t-91 20.5t-67 56t-41 83t-14 102.5t14 102.5t41 82.5t66.5 55.5t91.5 20.5zM114 743q11 0 19.5 -6.5t14.5 -11.5q20 -17 48.5 -28.5t62.5 -11.5t62.5 11.5t48.5 28.5q6 5 14.5 11.5t19.5 6.5t17 -6.5t6 -16.5q0 -14 -12.5 -27t-25.5 -22
q-25 -17 -59 -29.5t-71 -12.5t-71 12.5t-59 29.5q-13 9 -25.5 22t-12.5 27q0 10 6 16.5t17 6.5z" />
    <glyph glyph-name="Ohungarumlaut" unicode="&#x150;" horiz-adv-x="728" 
d="M69 0zM363 737q66 0 120.5 -25.5t93.5 -74t60.5 -118.5t21.5 -158t-21.5 -157.5t-60 -117.5t-93 -73.5t-120.5 -25.5t-120.5 25.5t-93 74t-60 118t-21.5 157.5t21.5 157.5t60 118t92.5 74t120 25.5zM364 679q-57 0 -101.5 -23.5t-74.5 -65.5t-45.5 -100.5t-15.5 -128.5
q0 -71 15.5 -129t45.5 -100t74.5 -65t101.5 -23t101.5 23t74.5 65t45.5 100t15.5 129t-15.5 129.5t-45.5 100.5t-74.5 65t-101.5 23zM494 952q10 18 29 18q12 0 22 -8.5t10 -22.5q0 -9 -6 -18l-109 -142q-6 -9 -17 -9q-8 0 -14 5t-6 14q0 5 3 11zM324 952q10 18 29 18
q12 0 22 -8.5t10 -22.5q0 -9 -6 -18l-109 -142q-6 -9 -17 -9q-8 0 -14 5t-6 14q0 5 3 11z" />
    <glyph glyph-name="ohungarumlaut" unicode="&#x151;" 
d="M46 0zM259 455q-38 0 -67.5 -16.5t-49.5 -45t-30.5 -66t-10.5 -78.5t10.5 -79t30.5 -66.5t49.5 -45.5t67.5 -17t67.5 17t49.5 45.5t30.5 66.5t10.5 79t-10.5 78.5t-30.5 66t-49.5 45t-67.5 16.5zM259 510q51 0 91 -20.5t67.5 -55.5t41.5 -82.5t14 -102.5t-14.5 -102.5
t-41.5 -83t-67 -56t-91 -20.5t-91 20.5t-67 56t-41 83t-14 102.5t14 102.5t41 82.5t66.5 55.5t91.5 20.5zM389 755q10 19 29 19q12 0 22 -9.5t10 -23.5q0 -10 -6 -20l-109 -152q-6 -10 -17 -10q-8 0 -14 5.5t-6 14.5q0 6 3 12zM219 755q10 19 29 19q12 0 22 -9.5t10 -23.5
q0 -10 -6 -20l-109 -152q-6 -10 -17 -10q-8 0 -14 5.5t-6 14.5q0 6 3 12z" />
    <glyph glyph-name="OE" unicode="&#x152;" horiz-adv-x="986" 
d="M901 724q12 0 20.5 -8.5t8.5 -20.5q0 -11 -8.5 -20t-20.5 -9h-317v-259h272q11 0 19.5 -9t8.5 -20q0 -12 -8.5 -20.5t-19.5 -8.5h-272v-291h317q12 0 20.5 -9t8.5 -20q0 -12 -8.5 -20.5t-20.5 -8.5h-345q-12 0 -20.5 8.5t-8.5 20.5v12q-71 -54 -168 -54
q-66 0 -120.5 25.5t-93.5 74t-60.5 118t-21.5 157.5t21.5 157.5t60 118t93 74t120.5 25.5q97 0 169 -57v15q0 12 8.5 20.5t20.5 8.5h345zM527 599q-31 38 -73 59t-96 21q-57 0 -101.5 -23.5t-74.5 -65.5t-45.5 -100.5t-15.5 -128.5q0 -71 15.5 -129t45.5 -100t74.5 -65
t101.5 -23q54 0 96 20.5t73 58.5v476z" />
    <glyph glyph-name="oe" unicode="&#x153;" horiz-adv-x="868" 
d="M474 239q0 -42 10.5 -78t30.5 -62.5t50 -41.5t68 -15q25 0 43 6.5t31.5 16.5t23 22.5t17.5 24.5q5 7 10 10.5t14 3.5q16 0 22.5 -9.5t6.5 -16.5q0 -2 -0.5 -7t-1.5 -7q-3 -11 -16.5 -28t-36.5 -32.5t-54.5 -27t-70.5 -11.5q-124 0 -177 122q-26 -57 -72 -89.5t-112 -32.5
q-52 0 -92 20.5t-67 56t-41 83.5t-14 103q0 54 14 101.5t41 83t66.5 55.5t91.5 20q68 0 114 -33.5t72 -87.5q26 55 69.5 88t110.5 33q48 0 84 -18t60 -50t36 -77t12 -99q0 -12 -8 -19.5t-20 -7.5h-315zM760 293v4q0 32 -9.5 60.5t-27 50.5t-43 34.5t-58.5 12.5
q-32 0 -58 -12.5t-44.5 -34.5t-29.5 -51.5t-14 -63.5h284zM259 455q-38 0 -67.5 -16.5t-49.5 -45t-30.5 -66t-10.5 -78.5t10.5 -79t30.5 -66.5t49.5 -45.5t67.5 -17t67.5 17t49.5 45.5t30.5 66.5t10.5 79t-10.5 78.5t-30.5 66t-49.5 45t-67.5 16.5z" />
    <glyph glyph-name="Racute" unicode="&#x154;" horiz-adv-x="601" 
d="M98 0zM242 724q53 0 101.5 -8.5t85 -31t58.5 -62.5t22 -103q0 -45 -11 -78.5t-31 -58t-47.5 -40t-59.5 -23.5l170 -280q5 -12 5 -17q0 -11 -9 -19t-21 -8q-15 0 -25 15l-179 299q-8 -1 -15 -1h-15h-116v-284q0 -12 -7.5 -20.5t-20.5 -8.5q-12 0 -20.5 8.5t-8.5 20.5v671
q0 12 8.5 20.5t20.5 8.5h115zM155 367h134q34 0 63.5 8.5t51.5 26.5t34.5 46t12.5 68q0 39 -12.5 67.5t-34 46.5t-51 26.5t-63.5 8.5h-135v-298zM325 952q10 18 29 18q12 0 22 -8.5t10 -22.5q0 -9 -6 -18l-109 -142q-6 -9 -17 -9q-8 0 -14 5t-6 14q0 5 3 11z" />
    <glyph glyph-name="racute" unicode="&#x155;" horiz-adv-x="358" 
d="M55 0zM123 23q0 -12 -8 -20t-20 -8q-11 0 -19.5 8t-8.5 20v353q0 17 -1.5 29.5t-3 22.5t-2.5 19t-1 20q-1 0 -2 2q-2 2 -2 8q0 10 7.5 18t21.5 8q12 0 18 -7t10 -20q2 -5 4.5 -18.5t3.5 -25.5q29 40 67.5 59t76.5 19q22 0 43 -6q18 -5 26 -14q6 -6 6 -17
q0 -12 -7.5 -19.5t-21.5 -7.5q-6 0 -11 1.5t-13 4.5t-21 3q-37 0 -76.5 -19.5t-65.5 -70.5v-342zM244 755q10 19 29 19q12 0 22 -9.5t10 -23.5q0 -10 -6 -20l-109 -152q-6 -10 -17 -10q-8 0 -14 5.5t-6 14.5q0 6 3 12z" />
    <glyph glyph-name="Rcommaaccent" unicode="&#x156;" horiz-adv-x="601" 
d="M98 0zM242 724q53 0 101.5 -8.5t85 -31t58.5 -62.5t22 -103q0 -45 -11 -78.5t-31 -58t-47.5 -40t-59.5 -23.5l170 -280q5 -12 5 -17q0 -11 -9 -19t-21 -8q-15 0 -25 15l-179 299q-8 -1 -15 -1h-15h-116v-284q0 -12 -7.5 -20.5t-20.5 -8.5q-12 0 -20.5 8.5t-8.5 20.5v671
q0 12 8.5 20.5t20.5 8.5h115zM155 367h134q34 0 63.5 8.5t51.5 26.5t34.5 46t12.5 68q0 39 -12.5 67.5t-34 46.5t-51 26.5t-63.5 8.5h-135v-298zM289 -100q-9 6 -16.5 16t-7.5 25q0 14 8.5 25.5t26.5 11.5q17 0 26.5 -14t9.5 -47q0 -20 -3.5 -44.5t-9.5 -45.5t-15 -35.5
t-20 -14.5q-7 0 -10 5t-3 10q0 10 0.5 11l1.5 3q6 18 9.5 35t3.5 38v10t-1 11z" />
    <glyph glyph-name="rcommaaccent" unicode="&#x157;" horiz-adv-x="358" 
d="M55 0zM123 23q0 -12 -8 -20t-20 -8q-11 0 -19.5 8t-8.5 20v353q0 17 -1.5 29.5t-3 22.5t-2.5 19t-1 20q-1 0 -2 2q-2 2 -2 8q0 10 7.5 18t21.5 8q12 0 18 -7t10 -20q2 -5 4.5 -18.5t3.5 -25.5q29 40 67.5 59t76.5 19q22 0 43 -6q18 -5 26 -14q6 -6 6 -17
q0 -12 -7.5 -19.5t-21.5 -7.5q-6 0 -11 1.5t-13 4.5t-21 3q-37 0 -76.5 -19.5t-65.5 -70.5v-342zM81 -100q-9 6 -16.5 16t-7.5 25q0 14 8.5 25.5t26.5 11.5q17 0 26.5 -14t9.5 -47q0 -20 -3.5 -44.5t-9.5 -45.5t-15 -35.5t-20 -14.5q-7 0 -10 5t-3 10q0 10 0.5 11l1.5 3
q6 18 9.5 35t3.5 38v10t-1 11z" />
    <glyph glyph-name="Rcaron" unicode="&#x158;" horiz-adv-x="601" 
d="M98 0zM242 724q53 0 101.5 -8.5t85 -31t58.5 -62.5t22 -103q0 -45 -11 -78.5t-31 -58t-47.5 -40t-59.5 -23.5l170 -280q5 -12 5 -17q0 -11 -9 -19t-21 -8q-15 0 -25 15l-179 299q-8 -1 -15 -1h-15h-116v-284q0 -12 -7.5 -20.5t-20.5 -8.5q-12 0 -20.5 8.5t-8.5 20.5v671
q0 12 8.5 20.5t20.5 8.5h115zM155 367h134q34 0 63.5 8.5t51.5 26.5t34.5 46t12.5 68q0 39 -12.5 67.5t-34 46.5t-51 26.5t-63.5 8.5h-135v-298zM280 829l99 131q9 10 19 10q8 0 13.5 -5.5t5.5 -13.5q0 -5 -3 -11l-91 -144q-16 -26 -43 -26t-43 26l-91 144q-3 6 -3 11
q0 8 5.5 13.5t13.5 5.5q10 0 19 -10z" />
    <glyph glyph-name="rcaron" unicode="&#x159;" horiz-adv-x="358" 
d="M52 0zM123 23q0 -12 -8 -20t-20 -8q-11 0 -19.5 8t-8.5 20v353q0 17 -1.5 29.5t-3 22.5t-2.5 19t-1 20q-1 0 -2 2q-2 2 -2 8q0 10 7.5 18t21.5 8q12 0 18 -7t10 -20q2 -5 4.5 -18.5t3.5 -25.5q29 40 67.5 59t76.5 19q22 0 43 -6q18 -5 26 -14q6 -6 6 -17
q0 -12 -7.5 -19.5t-21.5 -7.5q-6 0 -11 1.5t-13 4.5t-21 3q-37 0 -76.5 -19.5t-65.5 -70.5v-342zM189 623l99 140q8 11 19 11q8 0 13.5 -6t5.5 -14q0 -6 -3 -12l-91 -155q-16 -28 -43 -28t-43 28l-91 155q-3 6 -3 12q0 8 5.5 14t13.5 6q11 0 19 -11z" />
    <glyph glyph-name="Sacute" unicode="&#x15a;" horiz-adv-x="554" 
d="M60 0zM79 545q0 43 15 78t42 60.5t65 39.5t85 14q59 0 110 -25t74 -83q8 -21 8 -33q0 -14 -8.5 -22.5t-21.5 -8.5q-12 0 -17.5 7t-10.5 19q-6 15 -13.5 30.5t-21.5 28t-36.5 21t-56.5 8.5q-69 0 -112 -33.5t-43 -94.5q0 -32 12 -55t32 -40q24 -21 53 -33.5t60 -23t62 -22
t59 -30.5q34 -23 56.5 -60.5t22.5 -95.5q0 -51 -18.5 -89.5t-49 -64t-70.5 -38t-83 -12.5q-41 0 -76 10.5t-62 29t-46 44t-26 55.5q-3 10 -3 19q0 14 9 22t20 8q18 0 28 -21q8 -17 18.5 -36.5t27.5 -36t43 -27t65 -10.5q36 0 66 10t52.5 28.5t35 44.5t12.5 58
q0 35 -13.5 61.5t-35.5 43.5q-23 18 -53 30t-62.5 23t-65 24.5t-60.5 35.5q-31 25 -49.5 59t-18.5 83zM322 952q10 18 29 18q12 0 22 -8.5t10 -22.5q0 -9 -6 -18l-109 -142q-6 -9 -17 -9q-8 0 -14 5t-6 14q0 5 3 11z" />
    <glyph glyph-name="sacute" unicode="&#x15b;" horiz-adv-x="442" 
d="M48 0zM63 373q0 35 12.5 60.5t34.5 42.5t51.5 25.5t62.5 8.5q53 0 88 -19.5t52 -54.5q3 -6 5.5 -14t2.5 -15q0 -12 -8 -19.5t-21 -7.5q-12 0 -17.5 6.5t-8.5 14.5q-11 29 -35 41.5t-60 12.5q-47 0 -75 -19t-28 -57q0 -26 12.5 -40.5t31.5 -24.5q16 -9 36 -15t41 -12.5
t42 -14t39 -18.5q26 -16 45.5 -43t19.5 -72q0 -35 -13.5 -63.5t-37 -48t-55 -30t-66.5 -10.5q-49 0 -87 19t-60 50q-6 8 -12.5 21t-6.5 25t8 20t21 8q18 0 25 -19q16 -36 46 -53t69 -17q45 0 78.5 23t33.5 69q0 26 -10.5 42t-27.5 27q-18 12 -41 20t-47.5 15t-48 15.5
t-43.5 22.5q-22 16 -35 39t-13 59zM266 755q10 19 29 19q12 0 22 -9.5t10 -23.5q0 -10 -6 -20l-109 -152q-6 -10 -17 -10q-8 0 -14 5.5t-6 14.5q0 6 3 12z" />
    <glyph glyph-name="Scircumflex" unicode="&#x15c;" horiz-adv-x="554" 
d="M60 0zM79 545q0 43 15 78t42 60.5t65 39.5t85 14q59 0 110 -25t74 -83q8 -21 8 -33q0 -14 -8.5 -22.5t-21.5 -8.5q-12 0 -17.5 7t-10.5 19q-6 15 -13.5 30.5t-21.5 28t-36.5 21t-56.5 8.5q-69 0 -112 -33.5t-43 -94.5q0 -32 12 -55t32 -40q24 -21 53 -33.5t60 -23t62 -22
t59 -30.5q34 -23 56.5 -60.5t22.5 -95.5q0 -51 -18.5 -89.5t-49 -64t-70.5 -38t-83 -12.5q-41 0 -76 10.5t-62 29t-46 44t-26 55.5q-3 10 -3 19q0 14 9 22t20 8q18 0 28 -21q8 -17 18.5 -36.5t27.5 -36t43 -27t65 -10.5q36 0 66 10t52.5 28.5t35 44.5t12.5 58
q0 35 -13.5 61.5t-35.5 43.5q-23 18 -53 30t-62.5 23t-65 24.5t-60.5 35.5q-31 25 -49.5 59t-18.5 83zM248 944q16 26 43 26t43 -26l91 -144q3 -6 3 -11q0 -8 -5.5 -13.5t-13.5 -5.5q-10 0 -19 10l-99 130l-99 -130q-9 -10 -19 -10q-8 0 -13.5 5.5t-5.5 13.5q0 5 3 11z" />
    <glyph glyph-name="scircumflex" unicode="&#x15d;" horiz-adv-x="442" 
d="M48 0zM63 373q0 35 12.5 60.5t34.5 42.5t51.5 25.5t62.5 8.5q53 0 88 -19.5t52 -54.5q3 -6 5.5 -14t2.5 -15q0 -12 -8 -19.5t-21 -7.5q-12 0 -17.5 6.5t-8.5 14.5q-11 29 -35 41.5t-60 12.5q-47 0 -75 -19t-28 -57q0 -26 12.5 -40.5t31.5 -24.5q16 -9 36 -15t41 -12.5
t42 -14t39 -18.5q26 -16 45.5 -43t19.5 -72q0 -35 -13.5 -63.5t-37 -48t-55 -30t-66.5 -10.5q-49 0 -87 19t-60 50q-6 8 -12.5 21t-6.5 25t8 20t21 8q18 0 25 -19q16 -36 46 -53t69 -17q45 0 78.5 23t33.5 69q0 26 -10.5 42t-27.5 27q-18 12 -41 20t-47.5 15t-48 15.5
t-43.5 22.5q-22 16 -35 39t-13 59zM177 746q16 28 43 28t43 -28l91 -155q3 -6 3 -12q0 -8 -5.5 -14t-13.5 -6q-11 0 -19 11l-99 140l-99 -140q-8 -11 -19 -11q-8 0 -13.5 6t-5.5 14q0 6 3 12z" />
    <glyph glyph-name="Scedilla" unicode="&#x15e;" horiz-adv-x="554" 
d="M60 0zM79 545q0 43 15 78t42 60.5t65 39.5t85 14q59 0 110 -25t74 -83q8 -21 8 -33q0 -14 -8.5 -22.5t-21.5 -8.5q-12 0 -17.5 7t-10.5 19q-6 15 -13.5 30.5t-21.5 28t-36.5 21t-56.5 8.5q-69 0 -112 -33.5t-43 -94.5q0 -32 12 -55t32 -40q24 -21 53 -33.5t60 -23t62 -22
t59 -30.5q34 -23 56.5 -60.5t22.5 -95.5q0 -51 -18.5 -89.5t-49 -64t-70.5 -38t-83 -12.5q-41 0 -76 10.5t-62 29t-46 44t-26 55.5q-3 10 -3 19q0 14 9 22t20 8q18 0 28 -21q8 -17 18.5 -36.5t27.5 -36t43 -27t65 -10.5q36 0 66 10t52.5 28.5t35 44.5t12.5 58
q0 35 -13.5 61.5t-35.5 43.5q-23 18 -53 30t-62.5 23t-65 24.5t-60.5 35.5q-31 25 -49.5 59t-18.5 83zM265 -100q-9 6 -16.5 16t-7.5 25q0 14 8.5 25.5t26.5 11.5q17 0 26.5 -14t9.5 -47q0 -20 -3.5 -44.5t-9.5 -45.5t-15 -35.5t-20 -14.5q-7 0 -10 5t-3 10q0 10 0.5 11
l1.5 3q6 18 9.5 35t3.5 38v10t-1 11z" />
    <glyph glyph-name="scedilla" unicode="&#x15f;" horiz-adv-x="442" 
d="M48 0zM63 373q0 35 12.5 60.5t34.5 42.5t51.5 25.5t62.5 8.5q53 0 88 -19.5t52 -54.5q3 -6 5.5 -14t2.5 -15q0 -12 -8 -19.5t-21 -7.5q-12 0 -17.5 6.5t-8.5 14.5q-11 29 -35 41.5t-60 12.5q-47 0 -75 -19t-28 -57q0 -26 12.5 -40.5t31.5 -24.5q16 -9 36 -15t41 -12.5
t42 -14t39 -18.5q26 -16 45.5 -43t19.5 -72q0 -35 -13.5 -63.5t-37 -48t-55 -30t-66.5 -10.5q-49 0 -87 19t-60 50q-6 8 -12.5 21t-6.5 25t8 20t21 8q18 0 25 -19q16 -36 46 -53t69 -17q45 0 78.5 23t33.5 69q0 26 -10.5 42t-27.5 27q-18 12 -41 20t-47.5 15t-48 15.5
t-43.5 22.5q-22 16 -35 39t-13 59zM209 -100q-9 6 -16.5 16t-7.5 25q0 14 8.5 25.5t26.5 11.5q17 0 26.5 -14t9.5 -47q0 -20 -3.5 -44.5t-9.5 -45.5t-15 -35.5t-20 -14.5q-7 0 -10 5t-3 10q0 10 0.5 11l1.5 3q6 18 9.5 35t3.5 38v10t-1 11z" />
    <glyph glyph-name="Scaron" unicode="&#x160;" horiz-adv-x="554" 
d="M60 0zM79 545q0 43 15 78t42 60.5t65 39.5t85 14q59 0 110 -25t74 -83q8 -21 8 -33q0 -14 -8.5 -22.5t-21.5 -8.5q-12 0 -17.5 7t-10.5 19q-6 15 -13.5 30.5t-21.5 28t-36.5 21t-56.5 8.5q-69 0 -112 -33.5t-43 -94.5q0 -32 12 -55t32 -40q24 -21 53 -33.5t60 -23t62 -22
t59 -30.5q34 -23 56.5 -60.5t22.5 -95.5q0 -51 -18.5 -89.5t-49 -64t-70.5 -38t-83 -12.5q-41 0 -76 10.5t-62 29t-46 44t-26 55.5q-3 10 -3 19q0 14 9 22t20 8q18 0 28 -21q8 -17 18.5 -36.5t27.5 -36t43 -27t65 -10.5q36 0 66 10t52.5 28.5t35 44.5t12.5 58
q0 35 -13.5 61.5t-35.5 43.5q-23 18 -53 30t-62.5 23t-65 24.5t-60.5 35.5q-31 25 -49.5 59t-18.5 83zM285 829l99 131q9 10 19 10q8 0 13.5 -5.5t5.5 -13.5q0 -5 -3 -11l-91 -144q-16 -26 -43 -26t-43 26l-91 144q-3 6 -3 11q0 8 5.5 13.5t13.5 5.5q10 0 19 -10z" />
    <glyph glyph-name="scaron" unicode="&#x161;" horiz-adv-x="442" 
d="M48 0zM63 373q0 35 12.5 60.5t34.5 42.5t51.5 25.5t62.5 8.5q53 0 88 -19.5t52 -54.5q3 -6 5.5 -14t2.5 -15q0 -12 -8 -19.5t-21 -7.5q-12 0 -17.5 6.5t-8.5 14.5q-11 29 -35 41.5t-60 12.5q-47 0 -75 -19t-28 -57q0 -26 12.5 -40.5t31.5 -24.5q16 -9 36 -15t41 -12.5
t42 -14t39 -18.5q26 -16 45.5 -43t19.5 -72q0 -35 -13.5 -63.5t-37 -48t-55 -30t-66.5 -10.5q-49 0 -87 19t-60 50q-6 8 -12.5 21t-6.5 25t8 20t21 8q18 0 25 -19q16 -36 46 -53t69 -17q45 0 78.5 23t33.5 69q0 26 -10.5 42t-27.5 27q-18 12 -41 20t-47.5 15t-48 15.5
t-43.5 22.5q-22 16 -35 39t-13 59zM221 623l99 140q8 11 19 11q8 0 13.5 -6t5.5 -14q0 -6 -3 -12l-91 -155q-16 -28 -43 -28t-43 28l-91 155q-3 6 -3 12q0 8 5.5 14t13.5 6q11 0 19 -11z" />
    <glyph glyph-name="Tcedilla" unicode="&#x162;" horiz-adv-x="540" 
d="M14 0zM497 724q11 0 20 -8.5t9 -20.5q0 -11 -9 -20t-20 -9h-198v-642q0 -12 -8.5 -20.5t-20.5 -8.5t-20.5 8.5t-8.5 20.5v642h-198q-11 0 -20 9t-9 20q0 12 9 20.5t20 8.5h454zM258 -100q-9 6 -16.5 16t-7.5 25q0 14 8.5 25.5t26.5 11.5q17 0 26.5 -14t9.5 -47
q0 -20 -3.5 -44.5t-9.5 -45.5t-15 -35.5t-20 -14.5q-7 0 -10 5t-3 10q0 10 0.5 11l1.5 3q6 18 9.5 35t3.5 38v10t-1 11z" />
    <glyph glyph-name="tcedilla" unicode="&#x163;" horiz-adv-x="341" 
d="M24 0zM119 498v121q0 11 8 19.5t20 8.5q11 0 19.5 -8.5t8.5 -19.5v-121h96q12 0 20 -8.5t8 -19.5q0 -12 -8 -19.5t-20 -7.5h-96v-279q0 -66 11.5 -94.5t44.5 -28.5q11 0 14.5 0.5t10.5 5.5q4 2 8.5 4t9.5 2q12 0 20 -8.5t8 -19.5q0 -14 -8 -20q-3 -2 -9.5 -6t-11.5 -6
q-8 -3 -22 -4.5t-25 -1.5q-31 0 -51.5 11.5t-33 32t-17.5 49t-5 63.5v300h-67q-12 0 -20 7.5t-8 19.5q0 11 8 19.5t20 8.5h67zM179 -100q-9 6 -16.5 16t-7.5 25q0 14 8.5 25.5t26.5 11.5q17 0 26.5 -14t9.5 -47q0 -20 -3.5 -44.5t-9.5 -45.5t-15 -35.5t-20 -14.5q-7 0 -10 5
t-3 10q0 10 0.5 11l1.5 3q6 18 9.5 35t3.5 38v10t-1 11z" />
    <glyph glyph-name="Tcaron" unicode="&#x164;" horiz-adv-x="540" 
d="M14 0zM497 724q11 0 20 -8.5t9 -20.5q0 -11 -9 -20t-20 -9h-198v-642q0 -12 -8.5 -20.5t-20.5 -8.5t-20.5 8.5t-8.5 20.5v642h-198q-11 0 -20 9t-9 20q0 12 9 20.5t20 8.5h454zM270 829l99 131q9 10 19 10q8 0 13.5 -5.5t5.5 -13.5q0 -5 -3 -11l-91 -144q-16 -26 -43 -26
t-43 26l-91 144q-3 6 -3 11q0 8 5.5 13.5t13.5 5.5q10 0 19 -10z" />
    <glyph glyph-name="tcaron" unicode="&#x165;" horiz-adv-x="341" 
d="M24 0zM119 498v121q0 11 8 19.5t20 8.5q11 0 19.5 -8.5t8.5 -19.5v-121h96q12 0 20 -8.5t8 -19.5q0 -12 -8 -19.5t-20 -7.5h-96v-279q0 -66 11.5 -94.5t44.5 -28.5q11 0 14.5 0.5t10.5 5.5q4 2 8.5 4t9.5 2q12 0 20 -8.5t8 -19.5q0 -14 -8 -20q-3 -2 -9.5 -6t-11.5 -6
q-8 -3 -22 -4.5t-25 -1.5q-31 0 -51.5 11.5t-33 32t-17.5 49t-5 63.5v300h-67q-12 0 -20 7.5t-8 19.5q0 11 8 19.5t20 8.5h67zM292 678q-9 6 -16.5 16t-7.5 25q0 14 8.5 25.5t26.5 11.5q17 0 26.5 -14t9.5 -47q0 -20 -3.5 -44.5t-9.5 -45.5t-15 -35.5t-20 -14.5q-7 0 -10 5
t-3 10q0 10 0.5 11l1.5 3q6 18 9.5 35t3.5 38v10t-1 11z" />
    <glyph glyph-name="Tbar" unicode="&#x166;" horiz-adv-x="540" 
d="M497 724q11 0 20 -8.5t9 -20.5q0 -11 -9 -20t-20 -9h-198v-168h103q11 0 19.5 -8.5t8.5 -19.5t-8.5 -19.5t-19.5 -8.5h-103v-418q0 -12 -8.5 -20.5t-20.5 -8.5t-20.5 8.5t-8.5 20.5v418h-104q-11 0 -19.5 8.5t-8.5 19.5t8.5 19.5t19.5 8.5h104v168h-198q-11 0 -20 9
t-9 20q0 12 9 20.5t20 8.5h454z" />
    <glyph glyph-name="tbar" unicode="&#x167;" horiz-adv-x="341" 
d="M119 498v121q0 11 8 19.5t20 8.5q11 0 19.5 -8.5t8.5 -19.5v-121h96q12 0 20 -8.5t8 -19.5q0 -12 -8 -19.5t-20 -7.5h-96v-77h96q11 0 19.5 -8.5t8.5 -19.5t-8.5 -19.5t-19.5 -8.5h-96v-146q0 -66 11.5 -94.5t44.5 -28.5q6 0 12 0.5t13 5.5q4 2 8.5 4t9.5 2q12 0 20 -8.5
t8 -19.5q0 -12 -8 -20q-11 -8 -21 -12q-8 -3 -22 -4.5t-24 -1.5q-32 0 -52.5 11t-33 31.5t-17.5 49t-5 64.5v167h-65q-11 0 -19.5 8.5t-8.5 19.5t8.5 19.5t19.5 8.5h65v77h-67q-12 0 -20 7.5t-8 19.5q0 11 8 19.5t20 8.5h67z" />
    <glyph glyph-name="Utilde" unicode="&#x168;" horiz-adv-x="663" 
d="M94 0zM152 239q0 -94 47.5 -144.5t131.5 -50.5q85 0 133 51t48 144v462q0 12 8.5 20.5t19.5 8.5q12 0 20.5 -8.5t8.5 -20.5v-464q0 -56 -15.5 -102t-46.5 -79t-76 -51t-103 -18q-60 0 -104 19.5t-73 55.5t-43 87.5t-14 115.5v436q0 12 9 20.5t20 8.5q12 0 20.5 -8.5
t8.5 -20.5v-462zM183 899q7 11 21.5 21t38.5 10q18 0 41 -6.5t47 -15t46.5 -15t39.5 -6.5q20 0 29 11q4 5 7 13t4 10q4 10 18 10q17 0 17 -19q0 -8 -3 -20t-9 -22q-7 -11 -21.5 -20.5t-38.5 -9.5q-18 0 -41 6.5t-47 14.5t-47 14.5t-39 6.5q-21 0 -29 -11q-4 -5 -7 -12.5
t-4 -9.5q-4 -10 -18 -10q-17 0 -17 18q0 9 3 20.5t9 21.5z" />
    <glyph glyph-name="utilde" unicode="&#x169;" 
d="M83 0zM139 180q0 -69 31 -104.5t94 -35.5t92.5 35.5t29.5 102.5v297q0 11 8 19.5t20 8.5q11 0 19 -8.5t8 -19.5v-292q0 -37 -8 -72t-28 -62.5t-54.5 -44.5t-86.5 -17q-53 0 -87.5 17t-55.5 44.5t-29.5 63t-8.5 72.5v291q0 11 8 19.5t20 8.5q11 0 19.5 -8.5t8.5 -19.5
v-295zM110 698q7 12 21.5 22.5t38.5 10.5q18 0 41 -7t47 -16t46.5 -16t39.5 -7q20 0 29 12q4 5 7 13.5t4 10.5q4 11 18 11q17 0 17 -20q0 -9 -3 -21.5t-9 -23.5q-7 -12 -21.5 -22.5t-38.5 -10.5q-18 0 -41 7t-47 16t-47 16t-39 7q-20 0 -29 -12q-4 -5 -7 -13.5t-4 -10.5
q-4 -11 -18 -11q-17 0 -17 20q0 9 3 21.5t9 23.5z" />
    <glyph glyph-name="Umacron" unicode="&#x16a;" horiz-adv-x="663" 
d="M94 0zM152 239q0 -94 47.5 -144.5t131.5 -50.5q85 0 133 51t48 144v462q0 12 8.5 20.5t19.5 8.5q12 0 20.5 -8.5t8.5 -20.5v-464q0 -56 -15.5 -102t-46.5 -79t-76 -51t-103 -18q-60 0 -104 19.5t-73 55.5t-43 87.5t-14 115.5v436q0 12 9 20.5t20 8.5q12 0 20.5 -8.5
t8.5 -20.5v-462zM473 911q11 0 19 -7.5t8 -18.5t-8 -18.5t-19 -7.5h-284q-11 0 -19 7.5t-8 18.5t8 18.5t19 7.5h284z" />
    <glyph glyph-name="umacron" unicode="&#x16b;" 
d="M83 0zM139 180q0 -69 31 -104.5t94 -35.5t92.5 35.5t29.5 102.5v297q0 11 8 19.5t20 8.5q11 0 19 -8.5t8 -19.5v-292q0 -37 -8 -72t-28 -62.5t-54.5 -44.5t-86.5 -17q-53 0 -87.5 17t-55.5 44.5t-29.5 63t-8.5 72.5v291q0 11 8 19.5t20 8.5q11 0 19.5 -8.5t8.5 -19.5
v-295zM401 711q11 0 19 -8.5t8 -19.5t-8 -19.5t-19 -8.5h-284q-11 0 -19 8.5t-8 19.5t8 19.5t19 8.5h284z" />
    <glyph glyph-name="Uring" unicode="&#x16e;" horiz-adv-x="663" 
d="M94 0zM152 239q0 -94 47.5 -144.5t131.5 -50.5q85 0 133 51t48 144v462q0 12 8.5 20.5t19.5 8.5q12 0 20.5 -8.5t8.5 -20.5v-464q0 -56 -15.5 -102t-46.5 -79t-76 -51t-103 -18q-60 0 -104 19.5t-73 55.5t-43 87.5t-14 115.5v436q0 12 9 20.5t20 8.5q12 0 20.5 -8.5
t8.5 -20.5v-462zM331 970q38 0 62 -24.5t24 -62.5t-24.5 -62t-61.5 -24t-61.5 24t-24.5 62t24 62.5t62 24.5zM280 884q0 -21 14.5 -36t35.5 -15q22 0 36.5 15t14.5 36q0 22 -14.5 35.5t-36.5 13.5q-21 0 -35.5 -13.5t-14.5 -35.5z" />
    <glyph glyph-name="uring" unicode="&#x16f;" 
d="M83 0zM139 180q0 -69 31 -104.5t94 -35.5t92.5 35.5t29.5 102.5v297q0 11 8 19.5t20 8.5q11 0 19 -8.5t8 -19.5v-292q0 -37 -8 -72t-28 -62.5t-54.5 -44.5t-86.5 -17q-53 0 -87.5 17t-55.5 44.5t-29.5 63t-8.5 72.5v291q0 11 8 19.5t20 8.5q11 0 19.5 -8.5t8.5 -19.5
v-295zM259 774q38 0 62 -26.5t24 -66.5q0 -41 -24.5 -67t-61.5 -26t-61.5 26t-24.5 67q0 40 24 66.5t62 26.5zM258 734q-21 0 -35.5 -14.5t-14.5 -37.5t14.5 -39t35.5 -16q22 0 36.5 16t14.5 39t-14.5 37.5t-36.5 14.5z" />
    <glyph glyph-name="Uhungarumlaut" unicode="&#x170;" horiz-adv-x="663" 
d="M94 0zM152 239q0 -94 47.5 -144.5t131.5 -50.5q85 0 133 51t48 144v462q0 12 8.5 20.5t19.5 8.5q12 0 20.5 -8.5t8.5 -20.5v-464q0 -56 -15.5 -102t-46.5 -79t-76 -51t-103 -18q-60 0 -104 19.5t-73 55.5t-43 87.5t-14 115.5v436q0 12 9 20.5t20 8.5q12 0 20.5 -8.5
t8.5 -20.5v-462zM461 952q10 18 29 18q12 0 22 -8.5t10 -22.5q0 -9 -6 -18l-109 -142q-6 -9 -17 -9q-8 0 -14 5t-6 14q0 5 3 11zM291 952q10 18 29 18q12 0 22 -8.5t10 -22.5q0 -9 -6 -18l-109 -142q-6 -9 -17 -9q-8 0 -14 5t-6 14q0 5 3 11z" />
    <glyph glyph-name="uhungarumlaut" unicode="&#x171;" 
d="M83 0zM139 180q0 -69 31 -104.5t94 -35.5t92.5 35.5t29.5 102.5v297q0 11 8 19.5t20 8.5q11 0 19 -8.5t8 -19.5v-292q0 -37 -8 -72t-28 -62.5t-54.5 -44.5t-86.5 -17q-53 0 -87.5 17t-55.5 44.5t-29.5 63t-8.5 72.5v291q0 11 8 19.5t20 8.5q11 0 19.5 -8.5t8.5 -19.5
v-295zM389 755q10 19 29 19q12 0 22 -9.5t10 -23.5q0 -10 -6 -20l-109 -152q-6 -10 -17 -10q-8 0 -14 5.5t-6 14.5q0 6 3 12zM219 755q10 19 29 19q12 0 22 -9.5t10 -23.5q0 -10 -6 -20l-109 -152q-6 -10 -17 -10q-8 0 -14 5.5t-6 14.5q0 6 3 12z" />
    <glyph glyph-name="Uogonek" unicode="&#x172;" horiz-adv-x="663" 
d="M152 239q0 -94 47.5 -144.5t131.5 -50.5q85 0 133 51t48 144v461q0 12 8.5 20.5t19.5 8.5q12 0 20.5 -8.5t8.5 -20.5v-463q0 -90 -38.5 -152t-111.5 -85q-18 -11 -35.5 -24.5t-31 -28t-21.5 -30t-8 -30.5q0 -24 17 -36.5t37 -12.5q21 0 36 4l8 2t10 1q8 0 13 -6t5 -14
q0 -13 -14 -21q-16 -7 -36.5 -9.5t-36.5 -2.5q-36 0 -61 20.5t-25 63.5q0 33 23 62.5t51 49.5q-5 -1 -9.5 -1h-9.5q-62 0 -106.5 19.5t-73.5 55.5t-43 87.5t-14 115.5v435q0 12 9 20.5t20 8.5q12 0 20.5 -8.5t8.5 -20.5v-461z" />
    <glyph glyph-name="uogonek" unicode="&#x173;" 
d="M139 180q0 -139 125 -139q63 0 92.5 35t29.5 102v297q0 11 8 19.5t20 8.5q11 0 19 -8.5t8 -19.5v-292q0 -29 -5 -57t-16.5 -52.5t-31 -43.5t-48.5 -30q-18 -11 -35.5 -24.5t-31 -28t-22 -30t-8.5 -30.5q0 -24 17 -36.5t37 -12.5q21 0 36 4l8 2t10 1q8 0 13 -6t5 -14
q0 -13 -14 -21q-16 -7 -36.5 -9.5t-36.5 -2.5q-36 0 -60.5 20.5t-24.5 63.5q0 34 22.5 63.5t51.5 48.5h-7q-53 0 -87.5 16.5t-55.5 44t-29.5 62.5t-8.5 73v291q0 11 8 19.5t20 8.5q11 0 19.5 -8.5t8.5 -19.5v-295z" />
    <glyph glyph-name="Wcircumflex" unicode="&#x174;" horiz-adv-x="892" 
d="M10 0zM224 103l186 600q3 11 11 19t24 8q12 0 21.5 -5.5t14.5 -21.5l187 -600l158 607q2 8 10 14t17 6q12 0 20.5 -8.5t8.5 -20.5q0 -7 -1 -9l-175 -669q-7 -28 -35 -28q-26 0 -33 28l-195 598l-189 -598q-7 -28 -33 -28q-12 0 -21 6.5t-13 21.5l-176 669q-1 2 -1 9
q0 12 9 20.5t20 8.5q10 0 18 -6t10 -14zM403 944q16 26 43 26t43 -26l91 -144q3 -6 3 -11q0 -8 -5.5 -13.5t-13.5 -5.5q-10 0 -19 10l-99 130l-99 -130q-9 -10 -19 -10q-8 0 -13.5 5.5t-5.5 13.5q0 5 3 11z" />
    <glyph glyph-name="wcircumflex" unicode="&#x175;" horiz-adv-x="695" 
d="M17 0zM197 87l123 396q2 8 9 14t17 6q11 0 17 -6t9 -14l131 -396l123 396q2 8 9 14t17 6q12 0 20 -8.5t8 -19.5q0 -2 -2 -12l-151 -449q-7 -19 -24 -19q-19 0 -25 19l-130 397l-128 -397q-6 -19 -23 -19q-19 0 -25 19l-151 442q-4 7 -4 19q0 11 7.5 19.5t19.5 8.5
q20 0 28 -23zM304 746q16 28 43 28t43 -28l91 -155q3 -6 3 -12q0 -8 -5.5 -14t-13.5 -6q-11 0 -19 11l-99 140l-99 -140q-8 -11 -19 -11q-8 0 -13.5 6t-5.5 14q0 6 3 12z" />
    <glyph glyph-name="Ycircumflex" unicode="&#x176;" horiz-adv-x="514" 
d="M8 0zM259 380l191 332q4 7 10.5 12.5t16.5 5.5q11 0 20 -8.5t9 -20.5q0 -5 -2 -9l-4 -8l-217 -361v-299q0 -12 -7.5 -20.5t-21.5 -8.5q-11 0 -19.5 8.5t-8.5 20.5v297l-214 366q-4 4 -4 14q0 12 9 20.5t20 8.5q16 0 27 -18zM214 944q16 26 43 26t43 -26l91 -144
q3 -6 3 -11q0 -8 -5.5 -13.5t-13.5 -5.5q-10 0 -19 10l-99 130l-99 -130q-9 -10 -19 -10q-8 0 -13.5 5.5t-5.5 13.5q0 5 3 11z" />
    <glyph glyph-name="ycircumflex" unicode="&#x177;" horiz-adv-x="418" 
d="M8 0zM206 87l141 396q3 8 9.5 14t15.5 6q12 0 20 -8.5t8 -19.5q0 -2 -2 -12l-204 -555q-13 -35 -33 -67t-52 -58q-9 -6 -19 -6q-12 0 -20 7.5t-8 18.5q0 17 15 25q7 4 13.5 12t16.5 19q8 11 17.5 28.5t17.5 39.5l34 94l-164 435q-4 9 -4 18q0 12 8.5 20.5t20.5 8.5
q11 0 16.5 -4t10.5 -15zM166 746q16 28 43 28t43 -28l91 -155q3 -6 3 -12q0 -8 -5.5 -14t-13.5 -6q-11 0 -19 11l-99 140l-99 -140q-8 -11 -19 -11q-8 0 -13.5 6t-5.5 14q0 6 3 12z" />
    <glyph glyph-name="Ydieresis" unicode="&#x178;" horiz-adv-x="514" 
d="M8 0zM259 380l191 332q4 7 10.5 12.5t16.5 5.5q11 0 20 -8.5t9 -20.5q0 -5 -2 -9l-4 -8l-217 -361v-299q0 -12 -7.5 -20.5t-21.5 -8.5q-11 0 -19.5 8.5t-8.5 20.5v297l-214 366q-4 4 -4 14q0 12 9 20.5t20 8.5q16 0 27 -18zM350 930q14 0 23.5 -9.5t9.5 -23.5t-9.5 -23.5
t-23.5 -9.5t-23.5 9.5t-9.5 23.5t9.5 23.5t23.5 9.5zM164 930q14 0 23.5 -9.5t9.5 -23.5t-9.5 -23.5t-23.5 -9.5t-23.5 9.5t-9.5 23.5t9.5 23.5t23.5 9.5z" />
    <glyph glyph-name="Zacute" unicode="&#x179;" horiz-adv-x="540" 
d="M40 0zM456 724q12 0 20.5 -8.5t8.5 -20.5q0 -8 -5 -16l-359 -621h350q11 0 20 -9t9 -20q0 -12 -9 -20.5t-20 -8.5h-399q-11 0 -20 8.5t-9 20.5q0 5 2.5 10t5.5 10l357 617h-339q-11 0 -20 9t-9 20q0 12 9 20.5t20 8.5h387zM315 952q10 18 29 18q12 0 22 -8.5t10 -22.5
q0 -9 -6 -18l-109 -142q-6 -9 -17 -9q-8 0 -14 5t-6 14q0 5 3 11z" />
    <glyph glyph-name="zacute" unicode="&#x17a;" horiz-adv-x="441" 
d="M41 0zM355 498q11 0 19.5 -8.5t8.5 -19.5q0 -9 -5 -17l-257 -398h250q12 0 20 -8.5t8 -19.5q0 -12 -8 -19.5t-20 -7.5h-299q-11 0 -19.5 7.5t-8.5 19.5q0 9 7 19l256 397h-238q-11 0 -19.5 7.5t-8.5 19.5q0 11 8.5 19.5t19.5 8.5h286zM265 755q10 19 29 19q12 0 22 -9.5
t10 -23.5q0 -10 -6 -20l-109 -152q-6 -10 -17 -10q-8 0 -14 5.5t-6 14.5q0 6 3 12z" />
    <glyph glyph-name="Zdotaccent" unicode="&#x17b;" horiz-adv-x="540" 
d="M40 0zM456 724q12 0 20.5 -8.5t8.5 -20.5q0 -8 -5 -16l-359 -621h350q11 0 20 -9t9 -20q0 -12 -9 -20.5t-20 -8.5h-399q-11 0 -20 8.5t-9 20.5q0 5 2.5 10t5.5 10l357 617h-339q-11 0 -20 9t-9 20q0 12 9 20.5t20 8.5h387zM270 930q14 0 23.5 -9.5t9.5 -23.5t-9.5 -23.5
t-23.5 -9.5t-23.5 9.5t-9.5 23.5t9.5 23.5t23.5 9.5z" />
    <glyph glyph-name="zdotaccent" unicode="&#x17c;" horiz-adv-x="441" 
d="M41 0zM355 498q11 0 19.5 -8.5t8.5 -19.5q0 -9 -5 -17l-257 -398h250q12 0 20 -8.5t8 -19.5q0 -12 -8 -19.5t-20 -7.5h-299q-11 0 -19.5 7.5t-8.5 19.5q0 9 7 19l256 397h-238q-11 0 -19.5 7.5t-8.5 19.5q0 11 8.5 19.5t19.5 8.5h286zM220 726q14 0 23.5 -9.5t9.5 -23.5
t-9.5 -23.5t-23.5 -9.5t-23.5 9.5t-9.5 23.5t9.5 23.5t23.5 9.5z" />
    <glyph glyph-name="Zcaron" unicode="&#x17d;" horiz-adv-x="540" 
d="M40 0zM456 724q12 0 20.5 -8.5t8.5 -20.5q0 -8 -5 -16l-359 -621h350q11 0 20 -9t9 -20q0 -12 -9 -20.5t-20 -8.5h-399q-11 0 -20 8.5t-9 20.5q0 5 2.5 10t5.5 10l357 617h-339q-11 0 -20 9t-9 20q0 12 9 20.5t20 8.5h387zM270 829l99 131q9 10 19 10q8 0 13.5 -5.5
t5.5 -13.5q0 -5 -3 -11l-91 -144q-16 -26 -43 -26t-43 26l-91 144q-3 6 -3 11q0 8 5.5 13.5t13.5 5.5q10 0 19 -10z" />
    <glyph glyph-name="zcaron" unicode="&#x17e;" horiz-adv-x="441" 
d="M41 0zM355 498q11 0 19.5 -8.5t8.5 -19.5q0 -9 -5 -17l-257 -398h250q12 0 20 -8.5t8 -19.5q0 -12 -8 -19.5t-20 -7.5h-299q-11 0 -19.5 7.5t-8.5 19.5q0 9 7 19l256 397h-238q-11 0 -19.5 7.5t-8.5 19.5q0 11 8.5 19.5t19.5 8.5h286zM220 623l99 140q8 11 19 11
q8 0 13.5 -6t5.5 -14q0 -6 -3 -12l-91 -155q-16 -28 -43 -28t-43 28l-91 155q-3 6 -3 12q0 8 5.5 14t13.5 6q11 0 19 -11z" />
    <glyph glyph-name="longs" unicode="&#x17f;" horiz-adv-x="358" 
d="M174 22q0 -12 -8.5 -19.5t-19.5 -7.5q-12 0 -20 7.5t-8 19.5v584q0 69 32 109.5t95 40.5q17 0 35.5 -4t30.5 -12q14 -9 14 -24q0 -12 -8.5 -19.5t-19.5 -7.5q-9 0 -16 4q-14 8 -36 8q-42 0 -56.5 -27.5t-14.5 -84.5v-567z" />
    <glyph glyph-name="uni0180" unicode="&#x180;" horiz-adv-x="507" 
d="M67 681v47q0 12 8.5 20t19.5 8q12 0 20 -8t8 -20v-47h185q11 0 19 -8.5t8 -19.5t-8 -19.5t-19 -8.5h-185v-177q17 21 52 41.5t86 20.5q47 0 83.5 -21t62 -57t39 -84.5t13.5 -103.5t-13.5 -102t-38.5 -81.5t-61 -54t-82 -19.5q-43 0 -83 16t-59 40q0 -22 -5.5 -35
t-21.5 -13q-17 0 -22.5 16t-5.5 33v581h-43q-11 0 -19 8.5t-8 19.5t8 19.5t19 8.5h43zM123 95q23 -24 60 -39t74 -15q35 0 62.5 15t46 42t28 64.5t9.5 82.5q0 40 -8 78t-26 67.5t-46 47t-68 17.5t-78 -18.5t-54 -53.5v-288z" />
    <glyph glyph-name="uni0181" unicode="&#x181;" horiz-adv-x="735" 
d="M433 724q42 0 77.5 -11t61.5 -33t40.5 -53.5t14.5 -73.5q0 -57 -26 -100.5t-71 -61.5q60 -15 97.5 -63t37.5 -126q0 -42 -12.5 -79t-37 -64.5t-62 -43t-86.5 -15.5h-211q-11 0 -20 8.5t-9 20.5v640h-88q-42 0 -56.5 -27.5t-14.5 -84.5v-68q0 -12 -8.5 -19.5t-19.5 -7.5
q-12 0 -20 7.5t-8 19.5v85q0 69 31.5 109.5t94.5 40.5h295zM285 58h142q41 0 74 7t56 24.5t35.5 46t12.5 70.5q0 45 -14 74.5t-40 46t-62.5 23t-81.5 6.5h-122v-298zM285 414h133q32 0 59.5 7t47 22.5t30.5 40t11 60.5t-11.5 60t-31.5 37.5t-47.5 19t-59.5 5.5h-131v-252z
" />
    <glyph glyph-name="uni0187" unicode="&#x187;" horiz-adv-x="745" 
d="M352 737q64 0 111.5 -20t85.5 -67q8 49 35.5 77.5t79.5 28.5q18 0 36.5 -4t30.5 -12q14 -9 14 -24q0 -12 -8 -19.5t-22 -7.5q-6 0 -14 4t-16 6t-20 2q-42 0 -56.5 -28.5t-14.5 -89.5q0 -14 -8.5 -21.5t-20.5 -7.5q-16 0 -23 13q-29 60 -76 86t-113 26q-55 0 -98 -24
t-73 -66.5t-45.5 -101t-15.5 -127.5q0 -68 14.5 -126t44 -100t73.5 -66t103 -24q24 0 50.5 6.5t50.5 19.5t43.5 32t28.5 45q3 9 11 16t19 7t20 -9t9 -20q0 -2 -2 -12q-11 -33 -35.5 -59.5t-56.5 -45t-68.5 -28t-71.5 -9.5q-68 0 -121.5 27t-91.5 76t-58 118t-20 153
q0 81 20.5 150t58.5 119.5t91 78.5t119 28z" />
    <glyph glyph-name="uni0188" unicode="&#x188;" horiz-adv-x="576" 
d="M408 68q-10 -16 -24 -30.5t-32 -25.5q-41 -25 -94 -25q-49 0 -88 20t-66 55t-41.5 83.5t-14.5 104.5t14.5 104t42 82.5t66.5 54t89 19.5q32 0 61 -9.5t52 -29.5q5 59 34 93t86 34q18 0 36.5 -4t30.5 -12q14 -9 14 -24q0 -12 -8 -19.5t-22 -7.5q-6 0 -14 4t-16 6t-20 2
q-42 0 -56.5 -27.5t-14.5 -84.5v-31q0 -12 -7.5 -20t-21.5 -8q-12 0 -17.5 6t-8.5 13q-5 11 -12 21t-19 19q-32 24 -78 24q-36 0 -64.5 -15t-49 -42t-31.5 -64.5t-11 -82.5q0 -46 11.5 -84.5t31.5 -66.5t48.5 -43.5t63.5 -15.5q23 0 42 7t33 18q10 8 17.5 18t12.5 20
q4 8 10 15t18 7t20 -8t8 -19q0 -8 -3.5 -15.5t-7.5 -15.5z" />
    <glyph glyph-name="uni018A" unicode="&#x18a;" horiz-adv-x="801" 
d="M411 724q74 0 134 -22t102 -67t65 -114t23 -163q0 -92 -22 -159t-64 -111.5t-102 -66t-136 -21.5h-155q-11 0 -20 8.5t-9 20.5v640h-88q-42 0 -56.5 -27.5t-14.5 -84.5v-68q0 -12 -8.5 -19.5t-19.5 -7.5q-12 0 -20 7.5t-8 19.5v85q0 69 31.5 109.5t94.5 40.5h273zM285 58
h77q80 0 139.5 14.5t98.5 49.5t58 93t19 145q0 89 -19.5 147.5t-58 93.5t-95 49.5t-130.5 14.5h-89v-607z" />
    <glyph glyph-name="uni018E" unicode="&#x18e;" horiz-adv-x="569" 
d="M97 0q-11 0 -20 8.5t-9 20.5q0 11 9 20t20 9h317v259h-271q-12 0 -20.5 9t-8.5 20q0 12 8.5 20.5t20.5 8.5h271v291h-317q-11 0 -20 9t-9 20q0 12 9 20.5t20 8.5h346q11 0 20 -8.5t9 -20.5v-666q0 -12 -9 -20.5t-20 -8.5h-346z" />
    <glyph glyph-name="uni018F" unicode="&#x18f;" horiz-adv-x="728" 
d="M597 407q-5 60 -23 110t-47 86t-69.5 56t-90.5 20q-66 0 -113 -26t-76 -86q-7 -13 -23 -13q-12 0 -20.5 9t-8.5 20q0 10 5 18q46 73 101.5 104.5t135.5 31.5q66 0 119 -28t91 -78.5t58.5 -119.5t20.5 -150q0 -88 -21 -157.5t-59.5 -117.5t-92.5 -73.5t-120 -25.5
t-120.5 28t-93 79.5t-60 123.5t-21.5 160q0 11 8.5 20t20.5 9h499zM364 44q56 0 99.5 22t73 62t45.5 96.5t17 124.5h-472q1 -69 17 -125t46 -96t74 -62t100 -22z" />
    <glyph glyph-name="florin" unicode="&#x192;" horiz-adv-x="549" 
d="M246 454v110q0 69 32 109.5t95 40.5q17 0 35.5 -4t31.5 -13q13 -7 13 -24q0 -11 -8 -18.5t-20 -7.5q-11 0 -15 4q-14 8 -37 8q-42 0 -56.5 -28t-14.5 -85v-92h71q11 0 19.5 -8.5t8.5 -19.5t-8.5 -19.5t-19.5 -8.5h-71v-253q0 -69 -32 -109.5t-95 -40.5q-17 0 -35.5 4
t-30.5 12q-14 9 -14 24q0 12 8.5 19.5t19.5 7.5q9 0 16 -4q14 -8 36 -8q42 0 56.5 27.5t14.5 84.5v236h-66q-11 0 -19.5 8.5t-8.5 19.5t8.5 19.5t19.5 8.5h66z" />
    <glyph glyph-name="uni0194" unicode="&#x194;" horiz-adv-x="538" 
d="M269 219l206 491q4 8 10.5 14t17.5 6q13 0 21 -8.5t8 -19.5q0 -8 -4 -16l-232 -531q26 -62 42.5 -104t25.5 -70.5t12.5 -47.5t3.5 -35q0 -58 -30 -89.5t-81 -31.5t-81 31.5t-30 89.5q0 16 3.5 35t12.5 47.5t25.5 70.5t42.5 104l-232 531q-4 8 -4 16q0 11 8 19.5t21 8.5
q11 0 17.5 -6t10.5 -14zM269 93q-22 -50 -35 -82t-20 -53t-9 -34.5t-2 -26.5q0 -35 14 -51.5t52 -16.5t52 16.5t14 51.5q0 13 -2 26.5t-9 34.5t-20 53t-35 82z" />
    <glyph glyph-name="uni0198" unicode="&#x198;" horiz-adv-x="636" 
d="M398 613q28 46 49 74t39 43.5t34.5 20.5t34.5 5t36.5 -4t30.5 -12q14 -9 14 -24q0 -12 -8 -19.5t-22 -7.5q-6 0 -14 4t-16.5 6t-20.5 2q-9 0 -18 -2.5t-21.5 -13.5t-29 -33t-40.5 -61l-126 -207l208 -340q6 -11 6 -19q0 -12 -9.5 -21t-23.5 -9q-18 0 -28 17l-203 339
h-114v-327q0 -13 -7.5 -21t-20.5 -8q-14 0 -22 8.5t-8 20.5v677q0 12 8.5 20.5t20.5 8.5q11 0 20 -8.5t9 -20.5v-295h116z" />
    <glyph glyph-name="uni0199" unicode="&#x199;" horiz-adv-x="474" 
d="M89 606q0 69 31.5 109.5t94.5 40.5q18 0 36.5 -4t30.5 -12q14 -9 14 -24q0 -12 -8 -19.5t-22 -7.5q-6 0 -14 4t-16 6t-20 2q-42 0 -56.5 -27.5t-14.5 -84.5v-308h102l131 205q11 17 24 17q11 0 18.5 -7.5t7.5 -18.5q0 -5 -2 -8.5t-4 -8.5l-128 -200l144 -219q6 -8 6 -18
q0 -13 -8.5 -20.5t-20.5 -7.5q-15 0 -24 12l-143 222h-103v-206q0 -12 -8.5 -20t-19.5 -8q-12 0 -20 8t-8 20v583z" />
    <glyph glyph-name="uni019D" unicode="&#x19d;" horiz-adv-x="703" 
d="M98 702q0 12 9 20t22 8q11 0 18 -4.5t11 -10.5l389 -606v592q0 12 9 20.5t20 8.5q12 0 20.5 -8.5t8.5 -20.5v-678q0 -12 -8.5 -20t-22.5 -8q-11 0 -18 4.5t-11 10.5l-389 607v-684q0 -71 -23.5 -113.5t-84.5 -42.5q-11 0 -26 1.5t-23 4.5q-6 2 -12 6t-8 6q-9 9 -9 20
t8.5 19.5t19.5 8.5q6 0 10.5 -2t8.5 -4q8 -5 12 -5.5t12 -0.5q36 1 46.5 25.5t10.5 78.5v767z" />
    <glyph glyph-name="uni01A0" unicode="&#x1a0;" horiz-adv-x="728" 
d="M538 676q17 -11 40 -15t46 -4q49 0 49 59q0 18 -3.5 29t-3.5 25q0 8 6 13t14 5q10 0 16.5 -9.5t10.5 -23t5 -28.5t1 -26q0 -34 -21.5 -59.5t-63.5 -25.5q-15 0 -26 2.5t-24 7.5q33 -48 54 -115.5t21 -148.5q0 -88 -21.5 -157.5t-60 -118t-93 -74t-120.5 -25.5
t-120.5 25.5t-93 74t-60 118t-21.5 157.5t21.5 157.5t60 118t93 74t120.5 25.5q19 0 41 -3t45 -9.5t45.5 -18.5t42.5 -30zM364 679q-57 0 -101.5 -23.5t-74.5 -65.5t-45.5 -100.5t-15.5 -128.5q0 -71 15.5 -129t45.5 -100t74.5 -65t101.5 -23t101.5 23t74.5 65t45.5 100
t15.5 129t-15.5 129.5t-45.5 100.5t-74.5 65t-101.5 23z" />
    <glyph glyph-name="uni01A1" unicode="&#x1a1;" horiz-adv-x="517" 
d="M407 447q11 -3 23.5 -4t24.5 -1q50 0 50 59q0 17 -3.5 28t-3.5 25q0 19 19 19q10 0 16.5 -9.5t10.5 -23t5 -28.5t1 -26q0 -34 -23 -60t-69 -26h-9.5t-9.5 1q34 -64 34 -150q0 -56 -14.5 -104t-41.5 -83.5t-66.5 -56t-90.5 -20.5q-52 0 -92 20.5t-67 56t-41 83.5t-14 104
q0 54 14 101t41 82.5t67 55.5t92 20q46 0 82.5 -17t64.5 -46zM260 455q-39 0 -68.5 -16.5t-49.5 -45t-30.5 -65.5t-10.5 -77q0 -42 10.5 -80t30.5 -67t49.5 -46t68.5 -17q37 0 66.5 17t49.5 46t30.5 67t10.5 80q0 40 -10.5 77t-30.5 65.5t-49.5 45t-66.5 16.5z" />
    <glyph glyph-name="uni01AF" unicode="&#x1af;" horiz-adv-x="686" 
d="M158 239q0 -94 47.5 -144.5t131.5 -50.5q85 0 133 51t48 144v462q0 12 8.5 20.5t19.5 8.5q12 0 20.5 -8.5t8.5 -20.5v-39q12 -3 24 -4t25 -1q49 0 49 59q0 18 -3.5 29t-3.5 25q0 8 6 13t14 5q10 0 16.5 -9.5t10.5 -23t5 -28.5t1 -26q0 -34 -23 -59.5t-69 -25.5
q-27 0 -52 6v-385q0 -56 -16 -102t-46 -79t-74.5 -51t-101.5 -18q-62 0 -106.5 19.5t-73.5 55.5t-43 87.5t-14 115.5v436q0 12 9 20.5t20 8.5q12 0 20.5 -8.5t8.5 -20.5v-462z" />
    <glyph glyph-name="uni01B0" unicode="&#x1b0;" horiz-adv-x="548" 
d="M139 180q0 -69 31 -104.5t94 -35.5t92.5 35.5t29.5 102.5v297q0 11 8 19.5t20 8.5q11 0 19 -8.5t8 -19.5v-29q20 -4 45 -4q50 0 50 59q0 17 -3.5 28t-3.5 25q0 19 19 19q10 0 16.5 -9.5t10.5 -23t5 -28.5t1 -26q0 -34 -23 -60t-69 -26q-26 0 -48 6v-223q0 -37 -8 -72
t-28 -62.5t-54.5 -44.5t-86.5 -17q-53 0 -87.5 17t-55.5 44.5t-29.5 63t-8.5 72.5v291q0 11 8 19.5t20 8.5q11 0 19.5 -8.5t8.5 -19.5v-295z" />
    <glyph glyph-name="uni01B3" unicode="&#x1b3;" horiz-adv-x="629" 
d="M411 645q21 36 39 58t34 34t31.5 15.5t31.5 3.5q20 0 38 -4t30 -12q14 -9 14 -24q0 -12 -8 -19.5t-22 -7.5q-6 0 -14 4t-16 6t-20 2q-10 0 -18.5 -2.5t-19 -11.5t-23.5 -26.5t-31 -47.5l-174 -290v-299q0 -12 -7.5 -20.5t-20.5 -8.5t-21 8.5t-8 20.5v297l-214 366
q-4 4 -4 13q0 13 8.5 21.5t20.5 8.5q16 0 27 -18l195 -332z" />
    <glyph glyph-name="uni01B4" unicode="&#x1b4;" horiz-adv-x="557" 
d="M475 598q18 0 36.5 -4t30.5 -12q14 -9 14 -24q0 -12 -8 -19.5t-22 -7.5q-6 0 -14 4t-16 6t-20 2t-23 -3.5t-21.5 -15.5t-22.5 -34t-25 -59l-190 -523q-6 -18 -16 -37t-21.5 -36t-23.5 -31t-24 -21q-9 -6 -19 -6q-12 0 -20 7t-8 21q0 8 3.5 13t11.5 10l7.5 6t5 4.5t6 7
t11.5 13.5q9 12 19 31.5t16 36.5l34 94l-164 435q-4 9 -4 18q0 11 8 20t24 9q8 0 13.5 -4t10.5 -15l142 -397l126 356q17 47 33 77t33.5 47.5t36 24t40.5 6.5z" />
    <glyph glyph-name="uni01C4" unicode="&#x1c4;" horiz-adv-x="1212" 
d="M98 0zM282 724q74 0 134 -22t102 -67t65 -114t23 -163q0 -92 -22 -159t-64 -111.5t-102 -66t-136 -21.5h-155q-11 0 -20 8.5t-9 20.5v666q0 12 9 20.5t20 8.5h155zM156 58h77q80 0 139.5 14.5t98.5 49.5t58 93t19 145q0 89 -19.5 147.5t-58 93.5t-95 49.5t-130.5 14.5
h-89v-607zM1128 724q12 0 20.5 -8.5t8.5 -20.5q0 -8 -5 -16l-359 -621h350q11 0 20 -9t9 -20q0 -12 -9 -20.5t-20 -8.5h-399q-11 0 -20 8.5t-9 20.5q0 5 2.5 10t5.5 10l357 617h-339q-11 0 -20 9t-9 20q0 12 9 20.5t20 8.5h387zM942 829l99 131q9 10 19 10q8 0 13.5 -5.5
t5.5 -13.5q0 -5 -3 -11l-91 -144q-16 -26 -43 -26t-43 26l-91 144q-3 6 -3 11q0 8 5.5 13.5t13.5 5.5q10 0 19 -10z" />
    <glyph glyph-name="uni01C5" unicode="&#x1c5;" horiz-adv-x="1113" 
d="M98 0zM282 724q74 0 134 -22t102 -67t65 -114t23 -163q0 -92 -22 -159t-64 -111.5t-102 -66t-136 -21.5h-155q-11 0 -20 8.5t-9 20.5v666q0 12 9 20.5t20 8.5h155zM156 58h77q80 0 139.5 14.5t98.5 49.5t58 93t19 145q0 89 -19.5 147.5t-58 93.5t-95 49.5t-130.5 14.5
h-89v-607zM1027 498q11 0 19.5 -8.5t8.5 -19.5q0 -9 -5 -17l-257 -398h250q12 0 20 -8.5t8 -19.5q0 -12 -8 -19.5t-20 -7.5h-299q-11 0 -19.5 7.5t-8.5 19.5q0 9 7 19l256 397h-238q-11 0 -19.5 7.5t-8.5 19.5q0 11 8.5 19.5t19.5 8.5h286zM892 623l99 140q8 11 19 11
q8 0 13.5 -6t5.5 -14q0 -6 -3 -12l-91 -155q-16 -28 -43 -28t-43 28l-91 155q-3 6 -3 12q0 8 5.5 14t13.5 6q11 0 19 -11z" />
    <glyph glyph-name="uni01C6" unicode="&#x1c6;" horiz-adv-x="963" 
d="M48 0zM446 121q0 -25 3 -47.5t7 -42.5q1 -2 1.5 -4t0.5 -5q0 -11 -8 -19t-20 -8q-11 0 -18.5 7.5t-10.5 19.5q-2 8 -3.5 19t-3.5 22q-6 -11 -19 -24t-31.5 -24.5t-43 -19.5t-54.5 -8q-47 0 -83.5 21t-62 57t-39 84t-13.5 103t13 102t38 81.5t60.5 54.5t80.5 20
q24 0 47.5 -5.5t43.5 -14.5t35.5 -20.5t23.5 -23.5v282q0 12 8 20t20 8q11 0 19.5 -8t8.5 -20v-607zM390 394q-22 26 -62 43.5t-80 17.5q-35 0 -62 -15t-45.5 -42t-28 -64.5t-9.5 -81.5q0 -41 8.5 -79t26.5 -67t46.5 -47t67.5 -18q22 0 44.5 6t41.5 17.5t32.5 28t19.5 37.5
v264zM877 498q11 0 19.5 -8.5t8.5 -19.5q0 -9 -5 -17l-257 -398h250q12 0 20 -8.5t8 -19.5q0 -12 -8 -19.5t-20 -7.5h-299q-11 0 -19.5 7.5t-8.5 19.5q0 9 7 19l256 397h-238q-11 0 -19.5 7.5t-8.5 19.5q0 11 8.5 19.5t19.5 8.5h286zM742 623l99 140q8 11 19 11q8 0 13.5 -6
t5.5 -14q0 -6 -3 -12l-91 -155q-16 -28 -43 -28t-43 28l-91 155q-3 6 -3 12q0 8 5.5 14t13.5 6q11 0 19 -11z" />
    <glyph glyph-name="uni01DD" unicode="&#x1dd;" horiz-adv-x="507" 
d="M402 258q0 42 -10.5 78t-30.5 62.5t-49.5 41.5t-68.5 15q-25 0 -43 -6t-31 -16t-22.5 -22.5t-18.5 -25.5q-9 -14 -23 -14t-22 8.5t-8 19.5q0 7 4 12q12 24 30.5 42.5t41.5 31t49 19t53 6.5q49 0 87 -20t64.5 -55.5t40.5 -83.5t14 -104t-14 -103.5t-40.5 -82.5
t-65.5 -54.5t-89 -19.5q-47 0 -83 18t-60 50t-36 77t-12 99q0 12 8 19.5t20 7.5h315zM116 204v-4q0 -32 9.5 -61t27.5 -50.5t43.5 -34t57.5 -12.5t57.5 12.5t44.5 34.5t30 51.5t14 63.5h-284z" />
    <glyph glyph-name="uni01E6" unicode="&#x1e6;" horiz-adv-x="691" 
d="M66 0zM558 362q11 0 20 -8.5t9 -20.5v-271q-46 -38 -104 -56.5t-125 -18.5q-65 0 -118.5 25t-92 73t-60 117.5t-21.5 158.5q0 82 20.5 151.5t58 119t91 77.5t119.5 28q80 0 135.5 -31t101.5 -105q5 -8 5 -18q0 -11 -8.5 -20t-20.5 -9q-16 0 -23 13q-31 60 -77 86t-112 26
q-55 0 -98 -24t-73 -66.5t-45.5 -101t-15.5 -127.5q0 -75 17 -133.5t48.5 -99t77 -62t102.5 -21.5q52 0 92 14.5t69 34.5v211h-169q-11 0 -20 9t-9 20q0 12 9 20.5t20 8.5h197zM365 829l99 131q9 10 19 10q8 0 13.5 -5.5t5.5 -13.5q0 -5 -3 -11l-91 -144q-16 -26 -43 -26
t-43 26l-91 144q-3 6 -3 11q0 8 5.5 13.5t13.5 5.5q10 0 19 -10z" />
    <glyph glyph-name="uni01E7" unicode="&#x1e7;" horiz-adv-x="506" 
d="M47 0zM439 0q0 -106 -45 -164.5t-138 -58.5q-31 0 -54.5 6t-40.5 14q-11 6 -17.5 10.5t-11.5 7.5t-8.5 6t-8.5 8q-6 6 -12 12.5t-6 16.5q0 12 8.5 20t20.5 8q8 0 14 -4t13 -11q14 -13 24 -20t26 -12q24 -8 50 -8q34 0 58.5 12t40.5 32t23.5 47.5t7.5 59.5v108
q-17 -21 -52.5 -41.5t-87.5 -20.5q-46 0 -82 19t-61.5 52t-39 78t-13.5 97q0 51 13.5 94.5t38.5 75t60.5 49t80.5 17.5t85 -16.5t59 -40.5q1 7 1.5 18t2.5 15q6 16 23 16q19 0 25 -24q3 -23 3 -101v-377zM383 401q-23 23 -59.5 38.5t-75.5 15.5q-70 0 -108 -50.5t-38 -132.5
q0 -38 8.5 -72t26.5 -60t46 -41.5t67 -15.5q42 0 79.5 18.5t53.5 53.5v246zM253 623l99 140q8 11 19 11q8 0 13.5 -6t5.5 -14q0 -6 -3 -12l-91 -155q-16 -28 -43 -28t-43 28l-91 155q-3 6 -3 12q0 8 5.5 14t13.5 6q11 0 19 -11z" />
    <glyph glyph-name="uni01F0" unicode="&#x1f0;" horiz-adv-x="266" 
d="M0 0zM168 -67q0 -71 -22.5 -113.5t-83.5 -42.5q-11 0 -26 1.5t-23 4.5q-6 2 -12 6t-8 6q-9 9 -9 20t8.5 19.5t19.5 8.5q6 0 10.5 -2t8.5 -4q8 -5 12 -5.5t12 -0.5q36 1 46.5 25.5t10.5 78.5v540q0 11 8 19.5t20 8.5q11 0 19.5 -8.5t8.5 -19.5v-542zM136 623l99 140
q8 11 19 11q8 0 13.5 -6t5.5 -14q0 -6 -3 -12l-91 -155q-16 -28 -43 -28t-43 28l-91 155q-3 6 -3 12q0 8 5.5 14t13.5 6q11 0 19 -11z" />
    <glyph glyph-name="uni01F1" unicode="&#x1f1;" horiz-adv-x="1212" 
d="M98 0zM282 724q74 0 134 -22t102 -67t65 -114t23 -163q0 -92 -22 -159t-64 -111.5t-102 -66t-136 -21.5h-155q-11 0 -20 8.5t-9 20.5v666q0 12 9 20.5t20 8.5h155zM156 58h77q80 0 139.5 14.5t98.5 49.5t58 93t19 145q0 89 -19.5 147.5t-58 93.5t-95 49.5t-130.5 14.5
h-89v-607zM1128 724q12 0 20.5 -8.5t8.5 -20.5q0 -8 -5 -16l-359 -621h350q11 0 20 -9t9 -20q0 -12 -9 -20.5t-20 -8.5h-399q-11 0 -20 8.5t-9 20.5q0 5 2.5 10t5.5 10l357 617h-339q-11 0 -20 9t-9 20q0 12 9 20.5t20 8.5h387z" />
    <glyph glyph-name="uni01F2" unicode="&#x1f2;" horiz-adv-x="1113" 
d="M98 0zM282 724q74 0 134 -22t102 -67t65 -114t23 -163q0 -92 -22 -159t-64 -111.5t-102 -66t-136 -21.5h-155q-11 0 -20 8.5t-9 20.5v666q0 12 9 20.5t20 8.5h155zM156 58h77q80 0 139.5 14.5t98.5 49.5t58 93t19 145q0 89 -19.5 147.5t-58 93.5t-95 49.5t-130.5 14.5
h-89v-607zM1027 498q11 0 19.5 -8.5t8.5 -19.5q0 -9 -5 -17l-257 -398h250q12 0 20 -8.5t8 -19.5q0 -12 -8 -19.5t-20 -7.5h-299q-11 0 -19.5 7.5t-8.5 19.5q0 9 7 19l256 397h-238q-11 0 -19.5 7.5t-8.5 19.5q0 11 8.5 19.5t19.5 8.5h286z" />
    <glyph glyph-name="uni01F3" unicode="&#x1f3;" horiz-adv-x="963" 
d="M48 0zM446 121q0 -25 3 -47.5t7 -42.5q1 -2 1.5 -4t0.5 -5q0 -11 -8 -19t-20 -8q-11 0 -18.5 7.5t-10.5 19.5q-2 8 -3.5 19t-3.5 22q-6 -11 -19 -24t-31.5 -24.5t-43 -19.5t-54.5 -8q-47 0 -83.5 21t-62 57t-39 84t-13.5 103t13 102t38 81.5t60.5 54.5t80.5 20
q24 0 47.5 -5.5t43.5 -14.5t35.5 -20.5t23.5 -23.5v282q0 12 8 20t20 8q11 0 19.5 -8t8.5 -20v-607zM390 394q-22 26 -62 43.5t-80 17.5q-35 0 -62 -15t-45.5 -42t-28 -64.5t-9.5 -81.5q0 -41 8.5 -79t26.5 -67t46.5 -47t67.5 -18q22 0 44.5 6t41.5 17.5t32.5 28t19.5 37.5
v264zM877 498q11 0 19.5 -8.5t8.5 -19.5q0 -9 -5 -17l-257 -398h250q12 0 20 -8.5t8 -19.5q0 -12 -8 -19.5t-20 -7.5h-299q-11 0 -19.5 7.5t-8.5 19.5q0 9 7 19l256 397h-238q-11 0 -19.5 7.5t-8.5 19.5q0 11 8.5 19.5t19.5 8.5h286z" />
    <glyph glyph-name="uni01F4" unicode="&#x1f4;" horiz-adv-x="691" 
d="M66 0zM558 362q11 0 20 -8.5t9 -20.5v-271q-46 -38 -104 -56.5t-125 -18.5q-65 0 -118.5 25t-92 73t-60 117.5t-21.5 158.5q0 82 20.5 151.5t58 119t91 77.5t119.5 28q80 0 135.5 -31t101.5 -105q5 -8 5 -18q0 -11 -8.5 -20t-20.5 -9q-16 0 -23 13q-31 60 -77 86t-112 26
q-55 0 -98 -24t-73 -66.5t-45.5 -101t-15.5 -127.5q0 -75 17 -133.5t48.5 -99t77 -62t102.5 -21.5q52 0 92 14.5t69 34.5v211h-169q-11 0 -20 9t-9 20q0 12 9 20.5t20 8.5h197zM410 952q10 18 29 18q12 0 22 -8.5t10 -22.5q0 -9 -6 -18l-109 -142q-6 -9 -17 -9q-8 0 -14 5
t-6 14q0 5 3 11z" />
    <glyph glyph-name="uni01F5" unicode="&#x1f5;" horiz-adv-x="506" 
d="M47 0zM439 0q0 -106 -45 -164.5t-138 -58.5q-31 0 -54.5 6t-40.5 14q-11 6 -17.5 10.5t-11.5 7.5t-8.5 6t-8.5 8q-6 6 -12 12.5t-6 16.5q0 12 8.5 20t20.5 8q8 0 14 -4t13 -11q14 -13 24 -20t26 -12q24 -8 50 -8q34 0 58.5 12t40.5 32t23.5 47.5t7.5 59.5v108
q-17 -21 -52.5 -41.5t-87.5 -20.5q-46 0 -82 19t-61.5 52t-39 78t-13.5 97q0 51 13.5 94.5t38.5 75t60.5 49t80.5 17.5t85 -16.5t59 -40.5q1 7 1.5 18t2.5 15q6 16 23 16q19 0 25 -24q3 -23 3 -101v-377zM383 401q-23 23 -59.5 38.5t-75.5 15.5q-70 0 -108 -50.5t-38 -132.5
q0 -38 8.5 -72t26.5 -60t46 -41.5t67 -15.5q42 0 79.5 18.5t53.5 53.5v246zM298 755q10 19 29 19q12 0 22 -9.5t10 -23.5q0 -10 -6 -20l-109 -152q-6 -10 -17 -10q-8 0 -14 5.5t-6 14.5q0 6 3 12z" />
    <glyph glyph-name="uni01F8" unicode="&#x1f8;" horiz-adv-x="703" 
d="M98 0zM547 109v592q0 12 9 20.5t20 8.5q12 0 20.5 -8.5t8.5 -20.5v-678q0 -12 -8.5 -20t-22.5 -8q-11 0 -18 4.5t-11 10.5l-389 607v-593q0 -12 -8.5 -20.5t-20.5 -8.5q-11 0 -20 8.5t-9 20.5v678q0 12 9 20t22 8q11 0 18 -4.5t11 -10.5zM394 800q3 -6 3 -11q0 -9 -6 -14
t-14 -5q-11 0 -17 9l-109 142q-6 9 -6 18q0 14 10 22.5t22 8.5q18 0 29 -18z" />
    <glyph glyph-name="uni01F9" unicode="&#x1f9;" 
d="M55 0zM123 23q0 -12 -8 -20t-20 -8q-11 0 -19.5 8t-8.5 20v353q0 25 -3 48t-7 43q-2 6 -2 10q0 10 7.5 18t20.5 8t19.5 -8t9.5 -19q2 -8 4 -21.5t3 -21.5q22 35 61 56t86 21q39 0 70 -15.5t52 -42t32 -62.5t11 -77v-192q0 -25 3 -48t8 -42q1 -3 1.5 -5.5t0.5 -5.5
q0 -10 -8 -17.5t-21 -7.5q-21 0 -28 27q-4 14 -7.5 41.5t-3.5 56.5v197q0 24 -6.5 48.5t-20.5 44.5t-36 32.5t-54 12.5q-19 0 -39 -5t-38.5 -16t-34 -27.5t-24.5 -40.5v-343zM302 591q3 -6 3 -12q0 -9 -6 -14.5t-14 -5.5q-11 0 -17 10l-109 152q-6 10 -6 20q0 14 10 23.5
t22 9.5q19 0 29 -19z" />
    <glyph glyph-name="Scommaaccent" unicode="&#x218;" horiz-adv-x="554" 
d="M60 0zM79 545q0 43 15 78t42 60.5t65 39.5t85 14q59 0 110 -25t74 -83q8 -21 8 -33q0 -14 -8.5 -22.5t-21.5 -8.5q-12 0 -17.5 7t-10.5 19q-6 15 -13.5 30.5t-21.5 28t-36.5 21t-56.5 8.5q-69 0 -112 -33.5t-43 -94.5q0 -32 12 -55t32 -40q24 -21 53 -33.5t60 -23t62 -22
t59 -30.5q34 -23 56.5 -60.5t22.5 -95.5q0 -51 -18.5 -89.5t-49 -64t-70.5 -38t-83 -12.5q-41 0 -76 10.5t-62 29t-46 44t-26 55.5q-3 10 -3 19q0 14 9 22t20 8q18 0 28 -21q8 -17 18.5 -36.5t27.5 -36t43 -27t65 -10.5q36 0 66 10t52.5 28.5t35 44.5t12.5 58
q0 35 -13.5 61.5t-35.5 43.5q-23 18 -53 30t-62.5 23t-65 24.5t-60.5 35.5q-31 25 -49.5 59t-18.5 83zM265 -100q-9 6 -16.5 16t-7.5 25q0 14 8.5 25.5t26.5 11.5q17 0 26.5 -14t9.5 -47q0 -20 -3.5 -44.5t-9.5 -45.5t-15 -35.5t-20 -14.5q-7 0 -10 5t-3 10q0 10 0.5 11
l1.5 3q6 18 9.5 35t3.5 38v10t-1 11z" />
    <glyph glyph-name="scommaaccent" unicode="&#x219;" horiz-adv-x="442" 
d="M48 0zM63 373q0 35 12.5 60.5t34.5 42.5t51.5 25.5t62.5 8.5q53 0 88 -19.5t52 -54.5q3 -6 5.5 -14t2.5 -15q0 -12 -8 -19.5t-21 -7.5q-12 0 -17.5 6.5t-8.5 14.5q-11 29 -35 41.5t-60 12.5q-47 0 -75 -19t-28 -57q0 -26 12.5 -40.5t31.5 -24.5q16 -9 36 -15t41 -12.5
t42 -14t39 -18.5q26 -16 45.5 -43t19.5 -72q0 -35 -13.5 -63.5t-37 -48t-55 -30t-66.5 -10.5q-49 0 -87 19t-60 50q-6 8 -12.5 21t-6.5 25t8 20t21 8q18 0 25 -19q16 -36 46 -53t69 -17q45 0 78.5 23t33.5 69q0 26 -10.5 42t-27.5 27q-18 12 -41 20t-47.5 15t-48 15.5
t-43.5 22.5q-22 16 -35 39t-13 59zM209 -100q-9 6 -16.5 16t-7.5 25q0 14 8.5 25.5t26.5 11.5q17 0 26.5 -14t9.5 -47q0 -20 -3.5 -44.5t-9.5 -45.5t-15 -35.5t-20 -14.5q-7 0 -10 5t-3 10q0 10 0.5 11l1.5 3q6 18 9.5 35t3.5 38v10t-1 11z" />
    <glyph glyph-name="uni021A" unicode="&#x21a;" horiz-adv-x="540" 
d="M14 0zM497 724q11 0 20 -8.5t9 -20.5q0 -11 -9 -20t-20 -9h-198v-642q0 -12 -8.5 -20.5t-20.5 -8.5t-20.5 8.5t-8.5 20.5v642h-198q-11 0 -20 9t-9 20q0 12 9 20.5t20 8.5h454zM258 -100q-9 6 -16.5 16t-7.5 25q0 14 8.5 25.5t26.5 11.5q17 0 26.5 -14t9.5 -47
q0 -20 -3.5 -44.5t-9.5 -45.5t-15 -35.5t-20 -14.5q-7 0 -10 5t-3 10q0 10 0.5 11l1.5 3q6 18 9.5 35t3.5 38v10t-1 11z" />
    <glyph glyph-name="uni021B" unicode="&#x21b;" horiz-adv-x="341" 
d="M24 0zM119 498v121q0 11 8 19.5t20 8.5q11 0 19.5 -8.5t8.5 -19.5v-121h96q12 0 20 -8.5t8 -19.5q0 -12 -8 -19.5t-20 -7.5h-96v-279q0 -66 11.5 -94.5t44.5 -28.5q11 0 14.5 0.5t10.5 5.5q4 2 8.5 4t9.5 2q12 0 20 -8.5t8 -19.5q0 -14 -8 -20q-3 -2 -9.5 -6t-11.5 -6
q-8 -3 -22 -4.5t-25 -1.5q-31 0 -51.5 11.5t-33 32t-17.5 49t-5 63.5v300h-67q-12 0 -20 7.5t-8 19.5q0 11 8 19.5t20 8.5h67zM179 -100q-9 6 -16.5 16t-7.5 25q0 14 8.5 25.5t26.5 11.5q17 0 26.5 -14t9.5 -47q0 -20 -3.5 -44.5t-9.5 -45.5t-15 -35.5t-20 -14.5q-7 0 -10 5
t-3 10q0 10 0.5 11l1.5 3q6 18 9.5 35t3.5 38v10t-1 11z" />
    <glyph glyph-name="dotlessj" unicode="&#x237;" horiz-adv-x="251" 
d="M168 -67q0 -71 -22.5 -113.5t-83.5 -42.5q-11 0 -26 1.5t-23 4.5q-6 2 -12 6t-8 6q-9 9 -9 20t8.5 19.5t19.5 8.5q6 0 10.5 -2t8.5 -4q8 -5 12 -5.5t12 -0.5q36 1 46.5 25.5t10.5 78.5v540q0 11 8 19.5t20 8.5q11 0 19.5 -8.5t8.5 -19.5v-542z" />
    <glyph glyph-name="uni0241" unicode="&#x241;" horiz-adv-x="433" 
d="M212 24q0 -12 -9 -20.5t-20 -8.5q-12 0 -20.5 8.5t-8.5 20.5v204q0 35 5 60t15.5 45.5t27 40.5t39.5 45q15 17 29 33t24.5 34t16.5 38t6 45q0 57 -33.5 89t-98.5 32q-30 0 -55.5 -8.5t-43.5 -30.5q-5 -7 -11 -11.5t-14 -4.5q-12 0 -20.5 9t-8.5 20q0 16 16 31t40.5 27
t54.5 19t57 7q33 0 64.5 -11.5t56 -34t39.5 -56.5t15 -79q0 -32 -7.5 -57.5t-20.5 -47.5t-30 -41.5t-36 -39.5q-23 -24 -36.5 -44t-20.5 -39t-9.5 -37t-2.5 -37v-200z" />
    <glyph glyph-name="uni0242" unicode="&#x242;" horiz-adv-x="433" 
d="M156 53q0 33 4 54.5t14 39t26.5 34t40.5 37.5q17 15 31 28.5t24.5 28.5t16.5 32t6 38q0 104 -138 104q-17 0 -33.5 -2t-32.5 -9q-11 -5 -17.5 -10t-11.5 -10t-11 -9t-14 -4q-12 0 -20.5 7.5t-8.5 18.5q0 15 16 29t39 23t52 14t55 5q36 0 69 -9.5t57.5 -29.5t39.5 -50
t15 -70q0 -28 -7 -49.5t-19.5 -39.5t-30 -34.5t-37.5 -34.5q-21 -19 -34.5 -34t-21.5 -30t-11.5 -32t-3.5 -39v-26q0 -12 -8 -20.5t-19 -8.5q-12 0 -19.5 8.5t-7.5 20.5v29z" />
    <glyph glyph-name="uni024C" unicode="&#x24c;" horiz-adv-x="631" 
d="M272 724q53 0 101.5 -8.5t85 -31t58.5 -62.5t22 -103q0 -45 -11 -78.5t-31 -58t-47.5 -40t-59.5 -23.5l170 -280q5 -12 5 -17q0 -11 -9 -19t-21 -8q-15 0 -25 15l-179 299q-8 -1 -15 -1h-15h-116v-284q0 -12 -7.5 -20.5t-20.5 -8.5q-12 0 -20.5 8.5t-8.5 20.5v284h-99
q-12 0 -20.5 8.5t-8.5 20.5q0 11 8.5 20.5t20.5 9.5h99v328q0 12 8.5 20.5t20.5 8.5h115zM185 367h134q34 0 63.5 8.5t51.5 26.5t34.5 46t12.5 68q0 39 -12.5 67.5t-34 46.5t-51 26.5t-63.5 8.5h-135v-298z" />
    <glyph glyph-name="uni024D" unicode="&#x24d;" horiz-adv-x="405" 
d="M114 258v118q0 17 -1.5 29.5t-3 22.5t-2.5 19t-1 20q-1 0 -2 2q-2 2 -2 8q0 10 7.5 18t21.5 8q12 0 18 -7t10 -20q2 -5 4.5 -18.5t3.5 -25.5q29 40 67.5 59t76.5 19q22 0 43 -6q18 -5 26 -14q6 -6 6 -17q0 -12 -7.5 -19.5t-21.5 -7.5q-6 0 -11 1.5t-13 4.5t-21 3
q-37 0 -76.5 -19.5t-65.5 -70.5v-107h143q11 0 19 -8.5t8 -19.5t-8 -19.5t-19 -8.5h-143v-179q0 -12 -8 -20t-20 -8q-11 0 -19.5 8t-8.5 20v179h-85q-11 0 -19 8.5t-8 19.5t8 19.5t19 8.5h85z" />
    <glyph glyph-name="uni0253" unicode="&#x253;" horiz-adv-x="507" 
d="M67 606q0 69 31.5 109.5t94.5 40.5q18 0 36.5 -4t30.5 -12q14 -9 14 -24q0 -12 -8 -19.5t-22 -7.5q-6 0 -14 4t-16 6t-20 2q-42 0 -56.5 -27.5t-14.5 -84.5v-141q17 21 52 41.5t86 20.5q47 0 83.5 -21t62 -57t39 -84.5t13.5 -103.5t-13.5 -102t-38.5 -81.5t-61 -54
t-82 -19.5q-43 0 -83 16t-59 40q0 -22 -5.5 -35t-21.5 -13q-17 0 -22.5 16t-5.5 33v562zM123 95q23 -24 60 -39t74 -15q35 0 62.5 15t46 42t28 64.5t9.5 82.5q0 40 -8 78t-26 67.5t-46 47t-68 17.5t-78 -18.5t-54 -53.5v-288z" />
    <glyph glyph-name="uni0257" unicode="&#x257;" horiz-adv-x="597" 
d="M390 606q0 69 31.5 109.5t94.5 40.5q18 0 36.5 -4t30.5 -12q14 -9 14 -24q0 -12 -8 -19.5t-22 -7.5q-6 0 -14 4t-16 6t-20 2q-42 0 -56.5 -27.5t-14.5 -84.5v-468q0 -25 3 -47.5t7 -42.5q1 -2 1.5 -4t0.5 -5q0 -11 -8 -19t-20 -8q-11 0 -18.5 7.5t-10.5 19.5
q-2 8 -3.5 19t-3.5 22q-6 -11 -19 -24t-31.5 -24.5t-43 -19.5t-54.5 -8q-47 0 -83.5 21t-62 57t-39 84t-13.5 103t13 102t38 81.5t60.5 54.5t80.5 20q24 0 47.5 -5.5t43.5 -14.5t35.5 -20.5t23.5 -23.5v160zM390 394q-22 26 -62 43.5t-80 17.5q-35 0 -62 -15t-45.5 -42
t-28 -64.5t-9.5 -81.5q0 -41 8.5 -79t26.5 -67t46.5 -47t67.5 -18q22 0 44.5 6t41.5 17.5t32.5 28t19.5 37.5v264z" />
    <glyph glyph-name="uni0263" unicode="&#x263;" horiz-adv-x="421" 
d="M209 145l139 339q9 20 25 20q11 0 20.5 -9t9.5 -23q0 -8 -4 -16l-163 -379q20 -48 33 -81t20 -55.5t9.5 -38t2.5 -30.5q0 -55 -26 -75t-66 -20t-66 20t-26 75q0 15 2.5 30.5t9.5 38t19.5 55.5t32.5 81l-162 379q-4 8 -4 16q0 14 9.5 23t20.5 9q16 0 25 -20zM209 13
q-16 -38 -25.5 -61.5t-15 -39t-7 -24.5t-1.5 -18q0 -25 10.5 -35.5t38.5 -10.5t38.5 10.5t10.5 35.5q0 9 -1.5 18t-7 24.5t-15 39t-25.5 61.5z" />
    <glyph glyph-name="uni0272" unicode="&#x272;" 
d="M67 376q0 25 -3 48t-7 43q-2 6 -2 10q0 10 7.5 18t20.5 8t19.5 -8t9.5 -19q2 -8 4 -21.5t3 -21.5q22 35 61 56t86 21q39 0 70 -15.5t52 -42t32 -62.5t11 -77v-192q0 -25 3 -48t8 -42q1 -3 1.5 -5.5t0.5 -5.5q0 -10 -8 -17.5t-21 -7.5q-21 0 -28 27q-4 14 -7.5 41.5
t-3.5 56.5v197q0 24 -6.5 48.5t-20.5 44.5t-36 32.5t-54 12.5q-19 0 -39 -5t-38.5 -16t-34 -27.5t-24.5 -40.5v-433q0 -71 -22.5 -113.5t-83.5 -42.5q-11 0 -26 1.5t-23 4.5q-6 2 -12 6t-8 6q-9 9 -9 20t8.5 19.5t19.5 8.5q6 0 10.5 -2t8.5 -4q8 -5 12 -5.5t12 -0.5
q36 1 46.5 25.5t10.5 78.5v441z" />
    <glyph glyph-name="circumflex" unicode="&#x2c6;" horiz-adv-x="292" 
d="M103 746q16 28 43 28t43 -28l91 -155q3 -6 3 -12q0 -8 -5.5 -14t-13.5 -6q-11 0 -19 11l-99 140l-99 -140q-8 -11 -19 -11q-8 0 -13.5 6t-5.5 14q0 6 3 12z" />
    <glyph glyph-name="caron" unicode="&#x2c7;" horiz-adv-x="292" 
d="M146 623l99 140q8 11 19 11q8 0 13.5 -6t5.5 -14q0 -6 -3 -12l-91 -155q-16 -28 -43 -28t-43 28l-91 155q-3 6 -3 12q0 8 5.5 14t13.5 6q11 0 19 -11z" />
    <glyph glyph-name="uni02C9" unicode="&#x2c9;" horiz-adv-x="0" 
d="M-107 655zM-134 711q11 0 19 -8.5t8 -19.5t-8 -19.5t-19 -8.5h-284q-11 0 -19 8.5t-8 19.5t8 19.5t19 8.5h284z" />
    <glyph glyph-name="breve" unicode="&#x2d8;" horiz-adv-x="366" 
d="M38 743q11 0 19.5 -6.5t14.5 -11.5q20 -17 48.5 -28.5t62.5 -11.5t62.5 11.5t48.5 28.5q6 5 14.5 11.5t19.5 6.5t17 -6.5t6 -16.5q0 -14 -12.5 -27t-25.5 -22q-25 -17 -59 -29.5t-71 -12.5t-71 12.5t-59 29.5q-13 9 -25.5 22t-12.5 27q0 10 6 16.5t17 6.5z" />
    <glyph glyph-name="dotaccent" unicode="&#x2d9;" horiz-adv-x="97" 
d="M49 726q14 0 23.5 -9.5t9.5 -23.5t-9.5 -23.5t-23.5 -9.5t-23.5 9.5t-9.5 23.5t9.5 23.5t23.5 9.5z" />
    <glyph glyph-name="ring" unicode="&#x2da;" horiz-adv-x="204" 
d="M102 774q38 0 62 -26.5t24 -66.5q0 -41 -24.5 -67t-61.5 -26t-61.5 26t-24.5 67q0 40 24 66.5t62 26.5zM101 734q-21 0 -35.5 -14.5t-14.5 -37.5t14.5 -39t35.5 -16q22 0 36.5 16t14.5 39t-14.5 37.5t-36.5 14.5z" />
    <glyph glyph-name="ogonek" unicode="&#x2db;" horiz-adv-x="207" 
d="M159 0q-18 -11 -35.5 -24t-31 -28t-22 -30.5t-8.5 -31.5q0 -19 13.5 -33.5t45.5 -14.5q14 0 31 4l8 2t9 1q10 0 14.5 -6t4.5 -14q0 -13 -14 -21q-7 -4 -17 -6t-20.5 -3.5t-19.5 -2t-14 -0.5q-39 0 -63 21t-24 59q0 23 9 43t23 36.5t31 28.5t33 20h47z" />
    <glyph glyph-name="tilde" unicode="&#x2dc;" horiz-adv-x="349" 
d="M26 698q7 12 21.5 22.5t38.5 10.5q18 0 41 -7t47 -16t46.5 -16t39.5 -7q20 0 29 12q4 5 7 13.5t4 10.5q4 11 18 11q17 0 17 -20q0 -9 -3 -21.5t-9 -23.5q-7 -12 -21.5 -22.5t-38.5 -10.5q-18 0 -41 7t-47 16t-47 16t-39 7q-20 0 -29 -12q-4 -5 -7 -13.5t-4 -10.5
q-4 -11 -18 -11q-17 0 -17 20q0 9 3 21.5t9 23.5z" />
    <glyph glyph-name="hungarumlaut" unicode="&#x2dd;" horiz-adv-x="381" 
d="M290 755q10 19 29 19q12 0 22 -9.5t10 -23.5q0 -10 -6 -20l-109 -152q-6 -10 -17 -10q-8 0 -14 5.5t-6 14.5q0 6 3 12zM120 755q10 19 29 19q12 0 22 -9.5t10 -23.5q0 -10 -6 -20l-109 -152q-6 -10 -17 -10q-8 0 -14 5.5t-6 14.5q0 6 3 12z" />
    <glyph glyph-name="gravecomb" unicode="&#x300;" horiz-adv-x="0" 
d="M-214 559zM-217 591q3 -6 3 -12q0 -9 -6 -14.5t-14 -5.5q-11 0 -17 10l-109 152q-6 10 -6 20q0 14 10 23.5t22 9.5q19 0 29 -19z" />
    <glyph glyph-name="acutecomb" unicode="&#x301;" horiz-adv-x="0" 
d="M-154 559zM-215 755q10 19 29 19q12 0 22 -9.5t10 -23.5q0 -10 -6 -20l-109 -152q-6 -10 -17 -10q-8 0 -14 5.5t-6 14.5q0 6 3 12z" />
    <glyph glyph-name="uni0302" unicode="&#x302;" horiz-adv-x="0" 
d="M-123 559zM-303 746q16 28 43 28t43 -28l91 -155q3 -6 3 -12q0 -8 -5.5 -14t-13.5 -6q-11 0 -19 11l-99 140l-99 -140q-8 -11 -19 -11q-8 0 -13.5 6t-5.5 14q0 6 3 12z" />
    <glyph glyph-name="tildecomb" unicode="&#x303;" horiz-adv-x="0" 
d="M-99 633zM-408 698q7 12 21.5 22.5t38.5 10.5q18 0 41 -7t47 -16t46.5 -16t39.5 -7q20 0 29 12q4 5 7 13.5t4 10.5q4 11 18 11q17 0 17 -20q0 -9 -3 -21.5t-9 -23.5q-7 -12 -21.5 -22.5t-38.5 -10.5q-18 0 -41 7t-47 16t-47 16t-39 7q-20 0 -29 -12q-4 -5 -7 -13.5
t-4 -10.5q-4 -11 -18 -11q-17 0 -17 20q0 9 3 21.5t9 23.5z" />
    <glyph glyph-name="uni0304" unicode="&#x304;" horiz-adv-x="0" 
d="M-91 655zM-118 711q11 0 19 -8.5t8 -19.5t-8 -19.5t-19 -8.5h-284q-11 0 -19 8.5t-8 19.5t8 19.5t19 8.5h284z" />
    <glyph glyph-name="uni0306" unicode="&#x306;" horiz-adv-x="0" 
d="M-92 629zM-405 743q11 0 19.5 -6.5t14.5 -11.5q20 -17 48.5 -28.5t62.5 -11.5t62.5 11.5t48.5 28.5q6 5 14.5 11.5t19.5 6.5t17 -6.5t6 -16.5q0 -14 -12.5 -27t-25.5 -22q-25 -17 -59 -29.5t-71 -12.5t-71 12.5t-59 29.5q-13 9 -25.5 22t-12.5 27q0 10 6 16.5t17 6.5z
" />
    <glyph glyph-name="uni0307" unicode="&#x307;" horiz-adv-x="0" 
d="M-227 660zM-260 726q14 0 23.5 -9.5t9.5 -23.5t-9.5 -23.5t-23.5 -9.5t-23.5 9.5t-9.5 23.5t9.5 23.5t23.5 9.5z" />
    <glyph glyph-name="uni0308" unicode="&#x308;" horiz-adv-x="0" 
d="M-134 660zM-167 726q14 0 23.5 -9.5t9.5 -23.5t-9.5 -23.5t-23.5 -9.5t-23.5 9.5t-9.5 23.5t9.5 23.5t23.5 9.5zM-353 726q14 0 23.5 -9.5t9.5 -23.5t-9.5 -23.5t-23.5 -9.5t-23.5 9.5t-9.5 23.5t9.5 23.5t23.5 9.5z" />
    <glyph glyph-name="hookabovecomb" unicode="&#x309;" horiz-adv-x="0" 
d="M-315 712q22 9 57 9q99 0 99 -70q0 -32 -15.5 -45.5t-35.5 -21.5q-12 -5 -18.5 -7.5t-9.5 -5t-4.5 -6t-2.5 -10.5q-1 -6 -4.5 -13t-20.5 -7t-23.5 8.5t-6.5 22.5q0 24 15 34.5t43 19.5q12 4 19.5 9.5t7.5 18.5q0 24 -41 24q-18 0 -27 -3t-14.5 -7t-9.5 -7t-13 -3
q-12 0 -20.5 6.5t-8.5 17.5q0 10 8.5 19.5t25.5 16.5z" />
    <glyph glyph-name="uni030A" unicode="&#x30a;" horiz-adv-x="0" 
d="M-174 588zM-260 774q38 0 62 -26.5t24 -66.5q0 -41 -24.5 -67t-61.5 -26t-61.5 26t-24.5 67q0 40 24 66.5t62 26.5zM-261 734q-21 0 -35.5 -14.5t-14.5 -37.5t14.5 -39t35.5 -16q22 0 36.5 16t14.5 39t-14.5 37.5t-36.5 14.5z" />
    <glyph glyph-name="uni030B" unicode="&#x30b;" horiz-adv-x="0" 
d="M-69 559zM-130 755q10 19 29 19q12 0 22 -9.5t10 -23.5q0 -10 -6 -20l-109 -152q-6 -10 -17 -10q-8 0 -14 5.5t-6 14.5q0 6 3 12zM-300 755q10 19 29 19q12 0 22 -9.5t10 -23.5q0 -10 -6 -20l-109 -152q-6 -10 -17 -10q-8 0 -14 5.5t-6 14.5q0 6 3 12z" />
    <glyph glyph-name="uni030C" unicode="&#x30c;" horiz-adv-x="0" 
d="M-123 559zM-260 623l99 140q8 11 19 11q8 0 13.5 -6t5.5 -14q0 -6 -3 -12l-91 -155q-16 -28 -43 -28t-43 28l-91 155q-3 6 -3 12q0 8 5.5 14t13.5 6q11 0 19 -11z" />
    <glyph glyph-name="uni0313" unicode="&#x313;" horiz-adv-x="0" 
d="M-224 544zM-249 623q10 -7 17.5 -17t7.5 -25t-8.5 -26t-26.5 -11q-36 0 -36 61q0 18 3 42.5t9 46.5t15 37t21 15q8 0 10.5 -6t2.5 -14q0 -5 -0.5 -6l-1.5 -3q-7 -19 -10.5 -36t-3.5 -38v-10t1 -10z" />
    <glyph glyph-name="dotbelowcomb" unicode="&#x323;" horiz-adv-x="0" 
d="M-261 -157q14 0 23.5 -9.5t9.5 -23.5t-9.5 -23.5t-23.5 -9.5t-23.5 9.5t-9.5 23.5t9.5 23.5t23.5 9.5z" />
    <glyph glyph-name="uni0326" unicode="&#x326;" horiz-adv-x="0" 
d="M-224 -22zM-271 -100q-9 6 -16.5 16t-7.5 25q0 14 8.5 25.5t26.5 11.5q17 0 26.5 -14t9.5 -47q0 -20 -3.5 -44.5t-9.5 -45.5t-15 -35.5t-20 -14.5q-7 0 -10 5t-3 10q0 10 0.5 11l1.5 3q6 18 9.5 35t3.5 38v10t-1 11z" />
    <glyph glyph-name="uni0328" unicode="&#x328;" horiz-adv-x="0" 
d="M-174 0zM-203 0q-18 -11 -35.5 -24t-31 -28t-22 -30.5t-8.5 -31.5q0 -19 13.5 -33.5t45.5 -14.5q14 0 31 4l8 2t9 1q10 0 14.5 -6t4.5 -14q0 -13 -14 -21q-7 -4 -17 -6t-20.5 -3.5t-19.5 -2t-14 -0.5q-39 0 -63 21t-24 59q0 23 9 43t23 36.5t31 28.5t33 20h47z" />
    <glyph glyph-name="uni032D" unicode="&#x32d;" horiz-adv-x="0" 
d="M-123 -23zM-303 -49q16 26 43 26t43 -26l91 -144q3 -6 3 -11q0 -8 -5.5 -13.5t-13.5 -5.5q-10 0 -19 10l-99 130l-99 -130q-9 -10 -19 -10q-8 0 -13.5 5.5t-5.5 13.5q0 5 3 11z" />
    <glyph glyph-name="uni0374" unicode="&#x374;" horiz-adv-x="204" 
d="M26 559zM117 755q10 19 29 19q12 0 22 -9.5t10 -23.5q0 -10 -6 -20l-109 -152q-6 -10 -17 -10q-8 0 -14 5.5t-6 14.5q0 6 3 12z" />
    <glyph glyph-name="uni0375" unicode="&#x375;" horiz-adv-x="204" 
d="M26 -7zM117 -26q10 19 29 19q12 0 22 -9.5t10 -23.5q0 -10 -6 -20l-109 -152q-6 -10 -17 -10q-8 0 -14 5.5t-6 14.5q0 6 3 12z" />
    <glyph glyph-name="uni037E" unicode="&#x37e;" horiz-adv-x="242" 
d="M81 0zM122 489q17 0 29 -12t12 -29t-12 -29t-29 -12t-29 12t-12 29t12 29t29 12zM108 -6q-10 6 -17.5 16.5t-7.5 24.5t8.5 25.5t26.5 11.5q36 0 36 -61q0 -19 -3 -43.5t-9 -46t-15 -36t-21 -14.5q-7 0 -10 5t-3 10q0 10 0.5 11l1.5 3q6 18 10 35t4 38v10.5t-1 10.5z" />
    <glyph glyph-name="tonos" unicode="&#x384;" horiz-adv-x="143" 
d="M62 577q-2 -7 -6.5 -13t-13.5 -6q-8 0 -14.5 5.5t-6.5 14.5q0 7 3 21l34 178q3 17 13 23t20 6q15 0 23 -10.5t8 -23.5v-5t-2 -8z" />
    <glyph glyph-name="dieresistonos" unicode="&#x385;" horiz-adv-x="299" 
d="M15 558zM48 726q14 0 23.5 -9.5t9.5 -23.5t-9.5 -23.5t-23.5 -9.5t-23.5 9.5t-9.5 23.5t9.5 23.5t23.5 9.5zM138 577q-2 -7 -6.5 -13t-13.5 -6q-8 0 -14.5 5.5t-6.5 14.5q0 7 3 21l34 178q3 17 13 23t20 6q15 0 23 -10.5t8 -23.5v-5t-2 -8zM251 726q14 0 23.5 -9.5
t9.5 -23.5t-9.5 -23.5t-23.5 -9.5t-23.5 9.5t-9.5 23.5t9.5 23.5t23.5 9.5z" />
    <glyph glyph-name="Alphatonos" unicode="&#x386;" horiz-adv-x="584" 
d="M21 0zM62 577q-2 -7 -6.5 -13t-13.5 -6q-8 0 -14.5 5.5t-6.5 14.5q0 7 3 21l34 178q3 17 13 23t20 6q15 0 23 -10.5t8 -23.5v-5t-2 -8zM574 36q1 -4 1.5 -7t0.5 -6q0 -11 -9 -19.5t-20 -8.5q-10 0 -17.5 6t-10.5 15l-60 173h-293l-59 -173q-3 -9 -10.5 -15t-17.5 -6
q-11 0 -20 8.5t-9 21.5q0 6 3 14l232 671q3 8 11 14t17 6t17 -6t11 -14zM186 247h253l-127 374z" />
    <glyph glyph-name="anoteleia" unicode="&#x387;" horiz-adv-x="192" 
d="M54 420zM54 462q0 17 12.5 29t29.5 12t29 -12t12 -29t-12 -29.5t-29 -12.5t-29.5 12.5t-12.5 29.5z" />
    <glyph glyph-name="Epsilontonos" unicode="&#x388;" horiz-adv-x="632" 
d="M21 0zM62 577q-2 -7 -6.5 -13t-13.5 -6q-8 0 -14.5 5.5t-6.5 14.5q0 7 3 21l34 178q3 17 13 23t20 6q15 0 23 -10.5t8 -23.5v-5t-2 -8zM536 724q11 0 20 -8.5t9 -20.5q0 -11 -9 -20t-20 -9h-317v-259h271q12 0 20.5 -9t8.5 -20q0 -12 -8.5 -20.5t-20.5 -8.5h-271v-291
h317q11 0 20 -9t9 -20q0 -12 -9 -20.5t-20 -8.5h-346q-11 0 -20 8.5t-9 20.5v666q0 12 9 20.5t20 8.5h346z" />
    <glyph glyph-name="Etatonos" unicode="&#x389;" horiz-adv-x="741" 
d="M21 0zM62 577q-2 -7 -6.5 -13t-13.5 -6q-8 0 -14.5 5.5t-6.5 14.5q0 7 3 21l34 178q3 17 13 23t20 6q15 0 23 -10.5t8 -23.5v-5t-2 -8zM219 410h367v291q0 12 8.5 20.5t20.5 8.5q11 0 19.5 -8.5t8.5 -20.5v-677q0 -12 -8.5 -20.5t-19.5 -8.5q-12 0 -20.5 8.5t-8.5 20.5
v327h-367v-327q0 -12 -8.5 -20.5t-20.5 -8.5q-11 0 -20 8.5t-9 20.5v677q0 12 9 20.5t20 8.5q12 0 20.5 -8.5t8.5 -20.5v-291z" />
    <glyph glyph-name="Iotatonos" unicode="&#x38a;" horiz-adv-x="317" 
d="M21 0zM62 577q-2 -7 -6.5 -13t-13.5 -6q-8 0 -14.5 5.5t-6.5 14.5q0 7 3 21l34 178q3 17 13 23t20 6q15 0 23 -10.5t8 -23.5v-5t-2 -8zM219 24q0 -12 -9 -20.5t-20 -8.5q-12 0 -20.5 8.5t-8.5 20.5v677q0 12 8.5 20.5t20.5 8.5q11 0 20 -8.5t9 -20.5v-677z" />
    <glyph glyph-name="Omicrontonos" unicode="&#x38c;" horiz-adv-x="771" 
d="M21 0zM62 577q-2 -7 -6.5 -13t-13.5 -6q-8 0 -14.5 5.5t-6.5 14.5q0 7 3 21l34 178q3 17 13 23t20 6q15 0 23 -10.5t8 -23.5v-5t-2 -8zM406 737q66 0 120.5 -25.5t93.5 -74t60.5 -118.5t21.5 -158t-21.5 -157.5t-60 -117.5t-93 -73.5t-120.5 -25.5t-120.5 25.5t-93 74
t-60 118t-21.5 157.5t21.5 157.5t60 118t92.5 74t120 25.5zM407 679q-57 0 -101.5 -23.5t-74.5 -65.5t-45.5 -100.5t-15.5 -128.5q0 -71 15.5 -129t45.5 -100t74.5 -65t101.5 -23t101.5 23t74.5 65t45.5 100t15.5 129t-15.5 129.5t-45.5 100.5t-74.5 65t-101.5 23z" />
    <glyph glyph-name="Upsilontonos" unicode="&#x38e;" horiz-adv-x="657" 
d="M21 0zM62 577q-2 -7 -6.5 -13t-13.5 -6q-8 0 -14.5 5.5t-6.5 14.5q0 7 3 21l34 178q3 17 13 23t20 6q15 0 23 -10.5t8 -23.5v-5t-2 -8zM402 380l191 332q4 7 10.5 12.5t16.5 5.5q11 0 20 -8.5t9 -20.5q0 -5 -2 -9l-4 -8l-217 -361v-299q0 -12 -7.5 -20.5t-21.5 -8.5
q-11 0 -19.5 8.5t-8.5 20.5v297l-214 366q-4 4 -4 14q0 12 9 20.5t20 8.5q16 0 27 -18z" />
    <glyph glyph-name="Omegatonos" unicode="&#x38f;" horiz-adv-x="771" 
d="M21 0zM62 577q-2 -7 -6.5 -13t-13.5 -6q-8 0 -14.5 5.5t-6.5 14.5q0 7 3 21l34 178q3 17 13 23t20 6q15 0 23 -10.5t8 -23.5v-5t-2 -8zM269 58q-44 52 -73.5 97.5t-48.5 89t-27 87.5t-8 94q0 160 77 235.5t218 75.5t218 -75.5t77 -235.5q0 -49 -8 -92.5t-26.5 -87
t-48.5 -89.5t-73 -99h131q12 0 20.5 -9t8.5 -20q0 -12 -8.5 -20.5t-20.5 -8.5h-174q-11 0 -20 8.5t-9 20.5q0 9 8 20q40 58 70.5 104t51 88t30.5 85t10 95q0 128 -59.5 193t-177.5 65t-177.5 -65t-59.5 -194q0 -53 10 -95.5t30.5 -84.5t51 -87.5t71.5 -103.5q7 -10 7 -20
q0 -12 -9 -20.5t-20 -8.5h-174q-11 0 -20 8.5t-9 20.5q0 11 9 20t20 9h132z" />
    <glyph glyph-name="iotadieresistonos" unicode="&#x390;" horiz-adv-x="306" 
d="M6 0zM140 164q0 -68 12 -95.5t47 -27.5q8 0 12.5 1.5t9.5 4.5q4 2 8.5 4t9.5 2q12 0 20 -8.5t8 -19.5q0 -12 -8 -20q-2 -2 -8 -6t-13 -6q-8 -3 -22 -4.5t-25 -1.5q-62 0 -84.5 42.5t-22.5 113.5v332q0 11 8 19.5t20 8.5q11 0 19.5 -8.5t8.5 -19.5v-311zM39 726
q14 0 23.5 -9.5t9.5 -23.5t-9.5 -23.5t-23.5 -9.5t-23.5 9.5t-9.5 23.5t9.5 23.5t23.5 9.5zM129 577q-2 -7 -6.5 -13t-13.5 -6q-8 0 -14.5 5.5t-6.5 14.5q0 7 3 21l34 178q3 17 13 23t20 6q15 0 23 -10.5t8 -23.5v-5t-2 -8zM242 726q14 0 23.5 -9.5t9.5 -23.5t-9.5 -23.5
t-23.5 -9.5t-23.5 9.5t-9.5 23.5t9.5 23.5t23.5 9.5z" />
    <glyph glyph-name="Alpha" unicode="&#x391;" horiz-adv-x="543" 
d="M9 0zM533 36q1 -4 1.5 -7t0.5 -6q0 -11 -9 -19.5t-20 -8.5q-10 0 -17.5 6t-10.5 15l-60 173h-293l-59 -173q-3 -9 -10.5 -15t-17.5 -6q-11 0 -20 8.5t-9 21.5q0 6 3 14l232 671q3 8 11 14t17 6t17 -6t11 -14zM145 247h253l-127 374z" />
    <glyph glyph-name="Beta" unicode="&#x392;" horiz-adv-x="606" 
d="M98 0zM304 724q42 0 77.5 -11t61.5 -33t40.5 -53.5t14.5 -73.5q0 -57 -26 -100.5t-71 -61.5q60 -15 97.5 -63t37.5 -126q0 -42 -12.5 -79t-37 -64.5t-62 -43t-86.5 -15.5h-211q-11 0 -20 8.5t-9 20.5v666q0 12 9 20.5t20 8.5h177zM156 58h142q41 0 74 7t56 24.5t35.5 46
t12.5 70.5q0 45 -14 74.5t-40 46t-62.5 23t-81.5 6.5h-122v-298zM156 414h133q32 0 59.5 7t47 22.5t30.5 40t11 60.5t-11.5 60t-31.5 37.5t-47.5 19t-59.5 5.5h-131v-252z" />
    <glyph glyph-name="Gamma" unicode="&#x393;" horiz-adv-x="516" 
d="M98 0zM458 724q12 0 20.5 -8.5t8.5 -20.5q0 -11 -8.5 -20t-20.5 -9h-302v-643q0 -12 -8.5 -20.5t-20.5 -8.5q-11 0 -20 8.5t-9 20.5v672q0 12 9 20.5t20 8.5h331z" />
    <glyph glyph-name="Delta" unicode="&#x394;" horiz-adv-x="543" 
d="M532 41q2 -5 2 -13q0 -11 -9 -19.5t-20 -8.5h-465q-11 0 -20 8.5t-9 21.5q0 6 3 14l230 666q3 8 11 14t17 6t17 -6t11 -14zM80 58h384l-193 563z" />
    <glyph glyph-name="Epsilon" unicode="&#x395;" horiz-adv-x="569" 
d="M98 0zM473 724q11 0 20 -8.5t9 -20.5q0 -11 -9 -20t-20 -9h-317v-259h271q12 0 20.5 -9t8.5 -20q0 -12 -8.5 -20.5t-20.5 -8.5h-271v-291h317q11 0 20 -9t9 -20q0 -12 -9 -20.5t-20 -8.5h-346q-11 0 -20 8.5t-9 20.5v666q0 12 9 20.5t20 8.5h346z" />
    <glyph glyph-name="Zeta" unicode="&#x396;" horiz-adv-x="540" 
d="M40 0zM456 724q12 0 20.5 -8.5t8.5 -20.5q0 -8 -5 -16l-359 -621h350q11 0 20 -9t9 -20q0 -12 -9 -20.5t-20 -8.5h-399q-11 0 -20 8.5t-9 20.5q0 5 2.5 10t5.5 10l357 617h-339q-11 0 -20 9t-9 20q0 12 9 20.5t20 8.5h387z" />
    <glyph glyph-name="Eta" unicode="&#x397;" horiz-adv-x="678" 
d="M98 0zM156 410h367v291q0 12 8.5 20.5t20.5 8.5q11 0 19.5 -8.5t8.5 -20.5v-677q0 -12 -8.5 -20.5t-19.5 -8.5q-12 0 -20.5 8.5t-8.5 20.5v327h-367v-327q0 -12 -8.5 -20.5t-20.5 -8.5q-11 0 -20 8.5t-9 20.5v677q0 12 9 20.5t20 8.5q12 0 20.5 -8.5t8.5 -20.5v-291z" />
    <glyph glyph-name="Theta" unicode="&#x398;" horiz-adv-x="728" 
d="M536 407q12 0 20.5 -9t8.5 -20q0 -12 -8.5 -20.5t-20.5 -8.5h-335q-12 0 -20.5 8.5t-8.5 20.5q0 11 8.5 20t20.5 9h335zM363 737q66 0 120.5 -25.5t93.5 -74t60.5 -118.5t21.5 -158t-21.5 -157.5t-60 -117.5t-93 -73.5t-120.5 -25.5t-120.5 25.5t-93 74t-60 118
t-21.5 157.5t21.5 157.5t60 118t92.5 74t120 25.5zM364 679q-57 0 -101.5 -23.5t-74.5 -65.5t-45.5 -100.5t-15.5 -128.5q0 -71 15.5 -129t45.5 -100t74.5 -65t101.5 -23t101.5 23t74.5 65t45.5 100t15.5 129t-15.5 129.5t-45.5 100.5t-74.5 65t-101.5 23z" />
    <glyph glyph-name="Iota" unicode="&#x399;" horiz-adv-x="254" 
d="M98 0zM156 24q0 -12 -9 -20.5t-20 -8.5q-12 0 -20.5 8.5t-8.5 20.5v677q0 12 8.5 20.5t20.5 8.5q11 0 20 -8.5t9 -20.5v-677z" />
    <glyph glyph-name="Kappa" unicode="&#x39a;" horiz-adv-x="545" 
d="M98 0zM156 406h116l188 310q8 14 23 14q11 0 19 -7.5t8 -19.5q0 -8 -4 -15l-186 -304l208 -340q6 -11 6 -19q0 -12 -9.5 -21t-23.5 -9q-18 0 -28 17l-203 339h-114v-327q0 -13 -7.5 -21t-20.5 -8q-14 0 -22 8.5t-8 20.5v677q0 12 8.5 20.5t20.5 8.5q11 0 20 -8.5t9 -20.5
v-295z" />
    <glyph glyph-name="Lambda" unicode="&#x39b;" horiz-adv-x="538" 
d="M268 621l-205 -606q-3 -8 -10.5 -14t-17.5 -6q-11 0 -20 8.5t-9 21.5q0 6 3 14l232 670q3 9 11 15t17 6t17 -6t11 -15l233 -673q1 -4 1.5 -7t0.5 -6q0 -11 -9 -19.5t-20 -8.5q-10 0 -17.5 6t-10.5 14z" />
    <glyph glyph-name="Mu" unicode="&#x39c;" horiz-adv-x="857" 
d="M94 0zM428 91l244 613q11 26 38 26q16 0 28 -8.5t12 -24.5l13 -673q0 -12 -9 -20.5t-20 -8.5q-12 0 -20.5 8.5t-8.5 20.5l-7 607l-243 -618q-7 -18 -27 -18q-19 0 -26 18l-242 618l-8 -607q0 -12 -7.5 -20.5t-21.5 -8.5q-12 0 -20.5 8.5t-8.5 20.5l14 673q0 16 12 24.5
t28 8.5q27 0 38 -26z" />
    <glyph glyph-name="Nu" unicode="&#x39d;" horiz-adv-x="703" 
d="M98 0zM547 109v592q0 12 9 20.5t20 8.5q12 0 20.5 -8.5t8.5 -20.5v-678q0 -12 -8.5 -20t-22.5 -8q-11 0 -18 4.5t-11 10.5l-389 607v-593q0 -12 -8.5 -20.5t-20.5 -8.5q-11 0 -20 8.5t-9 20.5v678q0 12 9 20t22 8q11 0 18 -4.5t11 -10.5z" />
    <glyph glyph-name="Xi" unicode="&#x39e;" horiz-adv-x="569" 
d="M473 58q11 0 20 -9t9 -20q0 -12 -9 -20.5t-20 -8.5h-377q-11 0 -20 8.5t-9 20.5q0 11 9 20t20 9h377zM473 724q11 0 20 -8.5t9 -20.5q0 -11 -9 -20t-20 -9h-377q-11 0 -20 9t-9 20q0 12 9 20.5t20 8.5h377zM427 407q12 0 20.5 -9t8.5 -20q0 -12 -8.5 -20.5t-20.5 -8.5
h-285q-12 0 -20.5 8.5t-8.5 20.5q0 11 8.5 20t20.5 9h285z" />
    <glyph glyph-name="Omicron" unicode="&#x39f;" horiz-adv-x="728" 
d="M69 0zM363 737q66 0 120.5 -25.5t93.5 -74t60.5 -118.5t21.5 -158t-21.5 -157.5t-60 -117.5t-93 -73.5t-120.5 -25.5t-120.5 25.5t-93 74t-60 118t-21.5 157.5t21.5 157.5t60 118t92.5 74t120 25.5zM364 679q-57 0 -101.5 -23.5t-74.5 -65.5t-45.5 -100.5t-15.5 -128.5
q0 -71 15.5 -129t45.5 -100t74.5 -65t101.5 -23t101.5 23t74.5 65t45.5 100t15.5 129t-15.5 129.5t-45.5 100.5t-74.5 65t-101.5 23z" />
    <glyph glyph-name="Pi" unicode="&#x3a0;" horiz-adv-x="668" 
d="M98 0zM542 724q11 0 19.5 -8.5t8.5 -20.5v-671q0 -12 -8.5 -20.5t-19.5 -8.5q-12 0 -20.5 8.5t-8.5 20.5v641h-357v-641q0 -12 -8.5 -20.5t-20.5 -8.5q-11 0 -20 8.5t-9 20.5v671q0 12 9 20.5t20 8.5h415z" />
    <glyph glyph-name="Rho" unicode="&#x3a1;" horiz-adv-x="546" 
d="M98 0zM243 724q54 0 102 -8.5t85 -31t58.5 -61.5t21.5 -101q0 -59 -19.5 -99t-52.5 -64t-76 -34.5t-90 -10.5h-116v-290q0 -12 -8.5 -20.5t-20.5 -8.5q-11 0 -20 8.5t-9 20.5v671q0 12 9 20.5t20 8.5h116zM156 373h134q34 0 63.5 8t51.5 25.5t34.5 45.5t12.5 68
q0 39 -12.5 67t-34 45t-51 25t-63.5 8h-135v-292z" />
    <glyph glyph-name="Sigma" unicode="&#x3a3;" horiz-adv-x="583" 
d="M490 724q11 0 20 -8.5t9 -20.5q0 -11 -9 -20t-20 -9h-334l198 -266q8 -11 8 -20t-8 -20l-210 -302h346q11 0 20 -9t9 -20q0 -12 -9 -20.5t-20 -8.5h-397q-12 0 -20.5 8.5t-8.5 20.5q0 8 5 16l232 335l-220 299q-5 8 -5 16q0 12 8.5 20.5t20.5 8.5h385z" />
    <glyph glyph-name="Tau" unicode="&#x3a4;" horiz-adv-x="540" 
d="M14 0zM497 724q11 0 20 -8.5t9 -20.5q0 -11 -9 -20t-20 -9h-198v-642q0 -12 -8.5 -20.5t-20.5 -8.5t-20.5 8.5t-8.5 20.5v642h-198q-11 0 -20 9t-9 20q0 12 9 20.5t20 8.5h454z" />
    </font>
</defs>
</svg>
